<svg width="16" height="16" viewBox="0 0 16 16" fill="none" xmlns="http://www.w3.org/2000/svg">
<path d="M5.06066 2.70711L4.35355 2L2 4.35355L4.35355 6.70711L5.06066 6L3.91421 4.85355H9.70709C11.0878 4.85355 12.2071 5.97284 12.2071 7.35355H13.2071C13.2071 5.42056 11.6401 3.85355 9.70709 3.85355H3.91421L5.06066 2.70711Z" fill="black"/>
<path d="M11.8535 12.6464L12.5606 13.3535L14.9142 11L12.5606 8.64641L11.8535 9.35352L13 10.5L8.20709 10.5C6.82638 10.5 5.70709 9.38067 5.70709 7.99996L4.70709 7.99996C4.70709 9.93296 6.27409 11.5 8.20709 11.5L13 11.5L11.8535 12.6464Z" fill="black"/>
</svg>
