<svg width="18" height="16" viewBox="0 0 18 16" fill="none" xmlns="http://www.w3.org/2000/svg">
    <path fill-rule="evenodd" clip-rule="evenodd" d="M0 3C0 1.34315 1.34315 0 3 0H15C16.6569 0 18 1.34315 18 3V11C18 12.6569 16.6569 14 15 14H6.33333L3 16L3 14C1.34315 14 0 12.6569 0 11V3ZM7.38265 10.5061L7.53153 8.27254L11.3667 4.59935C11.5336 4.44175 11.3307 4.35456 11.1076 4.51215L6.36637 7.67654L4.3252 6.99934C3.88119 6.85254 3.87294 6.52854 4.41783 6.30295L12.4018 3.04256C12.7715 2.89576 13.0948 3.12976 12.9744 3.72816L11.6157 10.5173C11.5134 10.9965 11.246 11.1153 10.8665 10.8897L8.79718 9.27333L7.79853 10.2913C7.68791 10.4085 7.59565 10.5061 7.38265 10.5061Z" fill="#23024D"/>
</svg>