<svg width="100%" height="100%" viewBox="0 0 547 527" fill="none" xmlns="http://www.w3.org/2000/svg">
<path opacity="0.1" d="M198.1 84.2002L450.615 133.13C456.003 134.175 459.543 139.367 458.546 144.764L398.956 467.367C397.949 472.819 392.7 476.411 387.254 475.375L132.698 426.947C127.278 425.916 123.717 420.689 124.741 415.267L167.432 189.337L182.031 115.643L186.365 92.1996C187.375 86.7358 192.645 83.1431 198.1 84.2002Z" fill="#24034F" stroke="white"/>
<g opacity="0.2">
<path d="M282.206 160.525L284.764 193.202L285.555 193.141L282.997 160.463L282.206 160.525Z" fill="white"/>
<path d="M248.198 157.318L250.098 162.692L250.846 162.427L248.946 157.053L248.198 157.318Z" fill="white"/>
<path d="M359.022 339.993L363.355 343.697L363.87 343.094L359.537 339.39L359.022 339.993Z" fill="white"/>
<path d="M366.967 346.784L378.161 356.353L378.676 355.749L367.483 346.181L366.967 346.784Z" fill="white"/>
<path d="M393.327 369.316L382.133 359.747L382.648 359.144L393.842 368.713L393.327 369.316Z" fill="white"/>
<path d="M256.59 181.053L251.68 167.17L252.428 166.905L257.338 180.789L256.59 181.053Z" fill="white"/>
<path d="M258.334 185.98L263.244 199.864L263.992 199.599L259.082 185.716L258.334 185.98Z" fill="white"/>
<path d="M209.931 241.759L213.361 243.396L213.703 242.68L210.273 241.043L209.931 241.759Z" fill="white"/>
<path d="M206.932 240.326L197.93 236.027L198.272 235.311L207.274 239.61L206.932 240.326Z" fill="white"/>
<path d="M185.926 230.296L194.928 234.595L195.27 233.879L186.268 229.58L185.926 230.296Z" fill="white"/>
<path d="M330.869 391.523L329.602 387.94L330.35 387.676L331.617 391.259L330.869 391.523Z" fill="white"/>
<path d="M325.167 375.4L328.493 384.805L329.241 384.541L325.915 375.136L325.167 375.4Z" fill="white"/>
<path d="M324.058 372.265L320.732 362.861L321.48 362.596L324.806 372.001L324.058 372.265Z" fill="white"/>
<path d="M208.404 211.039L197.21 201.47L197.725 200.867L208.919 210.436L208.404 211.039Z" fill="white"/>
<path d="M212.375 214.434L223.568 224.003L224.084 223.4L212.89 213.831L212.375 214.434Z" fill="white"/>
<path d="M350.344 366.232L342.009 354.092L342.663 353.643L350.999 365.783L350.344 366.232Z" fill="white"/>
<path d="M353.303 370.54L361.639 382.68L362.293 382.23L353.958 370.091L353.303 370.54Z" fill="white"/>
<path d="M236.315 200.167L240.617 206.432L241.271 205.983L236.969 199.717L236.315 200.167Z" fill="white"/>
<path d="M232.548 194.684L220.986 177.845L221.64 177.396L233.202 194.235L232.548 194.684Z" fill="white"/>
<path d="M205.662 155.525L216.956 171.972L217.61 171.522L206.316 155.075L205.662 155.525Z" fill="white"/>
<path d="M303.063 427.683L302.47 420.106L303.261 420.044L303.854 427.621L303.063 427.683Z" fill="white"/>
<path d="M300.359 393.112L301.953 413.476L302.744 413.414L301.15 393.05L300.359 393.112Z" fill="white"/>
<path d="M299.804 386.008L298.247 366.118L299.038 366.056L300.595 385.946L299.804 386.008Z" fill="white"/>
<path d="M400.162 332.955L370.584 318.832L370.926 318.115L400.504 332.239L400.162 332.955Z" fill="white"/>
<path d="M203.888 314.074L209.262 312.173L208.997 311.425L203.623 313.325L203.888 314.074Z" fill="white"/>
<path d="M199.408 315.655L185.524 320.565L185.26 319.817L199.143 314.907L199.408 315.655Z" fill="white"/>
<path d="M166.715 327.217L180.599 322.307L180.334 321.559L166.451 326.469L166.715 327.217Z" fill="white"/>
<path d="M378.302 181.488L374.598 185.821L373.994 185.305L377.698 180.972L378.302 181.488Z" fill="white"/>
<path d="M361.942 200.625L371.51 189.432L370.907 188.916L361.338 200.11L361.942 200.625Z" fill="white"/>
<path d="M358.548 204.597L348.979 215.791L348.376 215.275L357.944 204.082L358.548 204.597Z" fill="white"/>
<path d="M383.687 274.038L379.898 274.335L379.836 273.544L383.625 273.247L383.687 274.038Z" fill="white"/>
<path d="M387 273.778L396.946 273L396.884 272.209L386.938 272.987L387 273.778Z" fill="white"/>
<path d="M410.208 271.962L400.262 272.741L400.2 271.95L410.146 271.171L410.208 271.962Z" fill="white"/>
<path d="M217.029 370.375L219.498 367.486L218.895 366.97L216.426 369.859L217.029 370.375Z" fill="white"/>
<path d="M228.141 357.375L221.659 364.958L221.056 364.443L227.538 356.86L228.141 357.375Z" fill="white"/>
<path d="M230.302 354.848L236.784 347.265L236.181 346.749L229.699 354.332L230.302 354.848Z" fill="white"/>
<path d="M396.144 245.917L410.027 241.007L409.762 240.259L395.879 245.169L396.144 245.917Z" fill="white"/>
<path d="M391.219 247.659L377.335 252.569L377.071 251.821L390.954 246.911L391.219 247.659Z" fill="white"/>
<path d="M207.935 339.776L220.075 331.44L219.625 330.786L207.486 339.122L207.935 339.776Z" fill="white"/>
<path d="M203.626 342.733L191.486 351.069L191.037 350.414L203.176 342.079L203.626 342.733Z" fill="white"/>
<path d="M373.999 225.745L367.733 230.047L367.284 229.393L373.55 225.091L373.999 225.745Z" fill="white"/>
<path d="M379.483 221.981L396.322 210.419L395.873 209.764L379.034 221.327L379.483 221.981Z" fill="white"/>
<path d="M418.64 195.091L402.193 206.384L401.743 205.73L418.191 194.436L418.64 195.091Z" fill="white"/>
<path d="M229.993 414.108L233.268 407.25L232.552 406.908L229.277 413.766L229.993 414.108Z" fill="white"/>
<path d="M244.934 382.815L236.132 401.248L235.416 400.906L244.217 382.473L244.934 382.815Z" fill="white"/>
<path d="M248.003 376.385L256.6 358.381L255.884 358.039L247.287 376.043L248.003 376.385Z" fill="white"/>
<path d="M173.395 290.827L206.073 288.269L206.011 287.478L173.334 290.036L173.395 290.827Z" fill="white"/>
<path d="M345.408 172.267L331.285 201.845L330.569 201.503L344.692 171.925L345.408 172.267Z" fill="white"/>
</g>
<g opacity="0.2">
<path d="M95.3147 241.73L88.1671 240.403L88.312 239.622L95.4596 240.95L95.3147 241.73Z" fill="white"/>
<path d="M128.193 247.838L102.462 243.058L102.607 242.278L128.338 247.058L128.193 247.838Z" fill="white"/>
<path d="M439.113 305.6L136.771 249.432L136.916 248.652L439.258 304.82L439.113 305.6Z" fill="white"/>
<path d="M481.284 313.434L455.553 308.654L455.698 307.874L481.429 312.654L481.284 313.434Z" fill="white"/>
<path d="M495.579 316.09L488.431 314.762L488.576 313.982L495.724 315.31L495.579 316.09Z" fill="white"/>
</g>
<g opacity="0.2">
<path d="M340.534 3.41326L338.742 13.0593L337.961 12.9144L339.753 3.26831L340.534 3.41326Z" fill="white"/>
<path d="M336.95 22.7053L330.498 57.4311L329.718 57.2862L336.169 22.5603L336.95 22.7053Z" fill="white"/>
<path d="M326.377 79.6177L250.575 487.646L249.795 487.501L325.596 79.4727L326.377 79.6177Z" fill="white"/>
<path d="M248.425 499.221L241.973 533.947L241.193 533.802L247.644 499.077L248.425 499.221Z" fill="white"/>
<path d="M240.181 543.593L238.389 553.239L237.609 553.094L239.401 543.448L240.181 543.593Z" fill="white"/>
</g>
<path opacity="0.2" fill-rule="evenodd" clip-rule="evenodd" d="M303.79 190.15C304.322 190.239 304.854 190.333 305.387 190.432C305.919 190.531 306.45 190.635 306.979 190.743L306.82 191.52C306.296 191.413 305.77 191.311 305.242 191.213C304.714 191.115 304.186 191.021 303.659 190.933L303.79 190.15ZM309.344 191.258C310.399 191.502 311.445 191.763 312.482 192.043L312.276 192.809C311.247 192.532 310.21 192.273 309.165 192.031L309.344 191.258ZM298.187 189.387C299.255 189.499 300.326 189.63 301.397 189.781L301.287 190.567C300.224 190.417 299.163 190.287 298.104 190.176L298.187 189.387ZM314.811 192.702C315.847 193.011 316.874 193.337 317.892 193.68L317.639 194.432C316.63 194.092 315.611 193.769 314.584 193.463L314.811 192.702ZM292.549 188.972C293.623 189.017 294.699 189.082 295.777 189.166L295.715 189.957C294.646 189.874 293.58 189.81 292.516 189.765L292.549 188.972ZM320.18 194.485C321.193 194.857 322.197 195.246 323.191 195.652L322.891 196.387C321.906 195.984 320.911 195.599 319.907 195.23L320.18 194.485ZM286.896 188.909C287.97 188.888 289.046 188.885 290.125 188.902L290.113 189.695C289.043 189.679 287.976 189.681 286.912 189.703L286.896 188.909ZM281.246 189.201C282.317 189.112 283.392 189.042 284.471 188.991L284.508 189.784C283.439 189.834 282.374 189.904 281.312 189.992L281.246 189.201ZM325.425 196.599C326.413 197.034 327.391 197.486 328.359 197.954L328.013 198.668C327.054 198.204 326.085 197.757 325.105 197.326L325.425 196.599ZM275.628 189.848C276.692 189.691 277.761 189.554 278.835 189.435L278.922 190.224C277.858 190.341 276.798 190.478 275.744 190.633L275.628 189.848ZM330.525 199.038C331.485 199.534 332.433 200.047 333.37 200.575L332.98 201.266C332.052 200.742 331.112 200.234 330.161 199.743L330.525 199.038ZM270.063 190.846C271.115 190.623 272.173 190.418 273.236 190.233L273.373 191.014C272.319 191.199 271.271 191.401 270.228 191.622L270.063 190.846ZM335.464 201.793C336.389 202.348 337.303 202.919 338.205 203.505L337.773 204.171C336.879 203.59 335.973 203.024 335.056 202.474L335.464 201.793ZM264.57 192.193C265.606 191.904 266.649 191.633 267.698 191.381L267.883 192.153C266.844 192.403 265.81 192.671 264.783 192.957L264.57 192.193ZM340.221 204.854C341.109 205.466 341.985 206.093 342.848 206.735L342.374 207.372C341.519 206.736 340.651 206.114 339.77 205.508L340.221 204.854ZM259.172 193.881C260.189 193.528 261.213 193.192 262.244 192.875L262.477 193.633C261.456 193.948 260.441 194.28 259.433 194.631L259.172 193.881ZM344.774 208.207C345.622 208.873 346.457 209.554 347.279 210.249L346.767 210.855C345.952 210.166 345.124 209.491 344.284 208.831L344.774 208.207ZM253.892 195.904C254.885 195.488 255.886 195.089 256.895 194.707L257.176 195.45C256.176 195.828 255.183 196.223 254.199 196.636L253.892 195.904ZM349.108 211.838C349.913 212.556 350.704 213.288 351.481 214.034L350.931 214.606C350.161 213.868 349.377 213.142 348.579 212.43L349.108 211.838ZM248.748 198.253C249.713 197.776 250.687 197.315 251.669 196.872L251.996 197.595C251.022 198.034 250.057 198.491 249.1 198.964L248.748 198.253ZM353.207 215.735C353.965 216.502 354.709 217.281 355.437 218.073L354.853 218.611C354.131 217.826 353.394 217.053 352.643 216.293L353.207 215.735ZM243.761 200.919C244.694 200.382 245.637 199.862 246.59 199.358L246.961 200.059C246.017 200.559 245.082 201.075 244.156 201.607L243.761 200.919ZM357.055 219.879C357.763 220.692 358.457 221.517 359.135 222.353L358.518 222.853C357.846 222.024 357.159 221.206 356.457 220.401L357.055 219.879ZM238.949 203.891C239.848 203.297 240.757 202.718 241.676 202.156L242.09 202.833C241.179 203.39 240.278 203.964 239.387 204.553L238.949 203.891ZM360.636 224.256C361.292 225.111 361.933 225.977 362.558 226.854L361.911 227.315C361.292 226.445 360.657 225.586 360.007 224.739L360.636 224.256ZM234.333 207.157C235.192 206.508 236.064 205.874 236.946 205.255L237.401 205.905C236.527 206.518 235.663 207.147 234.811 207.79L234.333 207.157ZM363.937 228.847C364.539 229.741 365.124 230.646 365.693 231.561L365.019 231.98C364.455 231.073 363.875 230.176 363.279 229.29L363.937 228.847ZM229.929 210.705C230.747 210.003 231.577 209.316 232.419 208.644L232.914 209.264C232.079 209.93 231.257 210.611 230.446 211.307L229.929 210.705ZM366.946 233.636C367.49 234.565 368.018 235.505 368.528 236.454L367.83 236.83C367.323 235.889 366.8 234.958 366.261 234.037L366.946 233.636ZM225.757 214.522C226.529 213.77 227.314 213.032 228.112 212.309L228.645 212.897C227.854 213.614 227.076 214.345 226.31 215.091L225.757 214.522ZM369.649 238.603C370.134 239.565 370.601 240.535 371.052 241.514L370.331 241.846C369.885 240.876 369.421 239.914 368.94 238.961L369.649 238.603ZM221.831 218.594C222.555 217.795 223.292 217.009 224.043 216.237L224.612 216.79C223.868 217.555 223.137 218.334 222.42 219.127L221.831 218.594ZM372.035 243.73C372.459 244.72 372.865 245.719 373.253 246.725L372.512 247.01C372.128 246.013 371.725 245.024 371.306 244.042L372.035 243.73ZM218.171 222.904C218.843 222.061 219.529 221.23 220.23 220.413L220.832 220.929C220.138 221.739 219.458 222.562 218.792 223.399L218.171 222.904ZM374.094 248.997C374.455 250.011 374.797 251.033 375.121 252.062L374.364 252.3C374.043 251.281 373.704 250.268 373.347 249.262L374.094 248.997ZM214.791 227.438C215.408 226.553 216.04 225.681 216.687 224.821L217.321 225.299C216.68 226.15 216.053 227.015 215.442 227.892L214.791 227.438ZM375.817 254.384C376.112 255.418 376.389 256.459 376.647 257.507L375.877 257.697C375.621 256.659 375.347 255.627 375.054 254.601L375.817 254.384ZM211.704 232.177C212.264 231.255 212.84 230.344 213.431 229.446L214.094 229.882C213.508 230.772 212.937 231.675 212.383 232.589L211.704 232.177ZM377.196 259.869C377.425 260.92 377.635 261.977 377.826 263.039L377.045 263.179C376.855 262.127 376.647 261.08 376.42 260.038L377.196 259.869ZM208.925 237.104C209.426 236.147 209.943 235.201 210.476 234.266L211.165 234.659C210.637 235.585 210.125 236.523 209.629 237.472L208.925 237.104ZM378.222 265.429C378.384 266.493 378.527 267.562 378.65 268.635L377.861 268.725C377.739 267.662 377.598 266.603 377.438 265.548L378.222 265.429ZM206.467 242.195C206.905 241.208 207.361 240.232 207.833 239.266L208.546 239.614C208.078 240.571 207.627 241.539 207.192 242.517L206.467 242.195ZM378.893 271.045C378.987 272.115 379.061 273.19 379.116 274.269L378.323 274.309C378.269 273.24 378.195 272.175 378.103 271.114L378.893 271.045ZM204.337 247.434C204.712 246.421 205.104 245.419 205.512 244.426L206.246 244.728C205.841 245.712 205.453 246.706 205.081 247.709L204.337 247.434ZM379.205 276.694C379.23 277.767 379.236 278.844 379.222 279.923L378.429 279.913C378.442 278.843 378.437 277.776 378.412 276.712L379.205 276.694ZM202.543 252.799C202.853 251.764 203.181 250.737 203.526 249.72L204.278 249.975C203.936 250.983 203.611 252.001 203.303 253.027L202.543 252.799ZM379.158 282.348C379.114 283.421 379.052 284.497 378.969 285.575L378.178 285.515C378.26 284.446 378.322 283.38 378.365 282.316L379.158 282.348ZM201.092 258.265C201.337 257.211 201.599 256.165 201.88 255.127L202.646 255.335C202.368 256.363 202.107 257.399 201.865 258.444L201.092 258.265ZM378.752 287.986C378.641 289.055 378.511 290.125 378.361 291.197L377.575 291.087C377.724 290.025 377.853 288.963 377.963 287.904L378.752 287.986ZM200.265 262.222C200.364 261.689 200.468 261.159 200.576 260.63L201.353 260.789C201.246 261.313 201.144 261.839 201.045 262.367C200.947 262.895 200.854 263.423 200.766 263.95L199.983 263.819C200.072 263.287 200.166 262.755 200.265 262.222ZM377.993 293.59C377.904 294.122 377.81 294.654 377.711 295.187C377.612 295.72 377.508 296.25 377.4 296.779L376.623 296.62C376.73 296.096 376.833 295.57 376.931 295.042C377.029 294.514 377.122 293.986 377.21 293.459L377.993 293.59ZM199.224 269.423C199.335 268.354 199.465 267.284 199.615 266.212L200.401 266.322C200.252 267.385 200.123 268.446 200.013 269.505L199.224 269.423ZM376.884 299.144C376.64 300.199 376.377 301.244 376.096 302.282L375.33 302.075C375.608 301.047 375.869 300.01 376.111 298.965L376.884 299.144ZM198.819 275.061C198.862 273.988 198.924 272.912 199.007 271.834L199.798 271.894C199.716 272.963 199.654 274.029 199.612 275.093L198.819 275.061ZM375.433 304.61C375.123 305.645 374.795 306.672 374.45 307.689L373.698 307.434C374.04 306.426 374.365 305.409 374.673 304.382L375.433 304.61ZM198.771 280.715C198.746 279.642 198.74 278.565 198.754 277.486L199.548 277.496C199.534 278.566 199.539 279.633 199.564 280.697L198.771 280.715ZM373.639 309.975C373.264 310.988 372.872 311.991 372.464 312.983L371.73 312.681C372.135 311.697 372.524 310.703 372.895 309.7L373.639 309.975ZM199.083 286.364C198.989 285.294 198.915 284.219 198.86 283.14L199.653 283.1C199.707 284.169 199.781 285.234 199.873 286.295L199.083 286.364ZM371.509 315.214C371.071 316.201 370.615 317.178 370.144 318.143L369.431 317.795C369.898 316.838 370.349 315.87 370.784 314.892L371.509 315.214ZM199.754 291.98C199.592 290.916 199.449 289.848 199.326 288.775L200.115 288.684C200.237 289.747 200.378 290.806 200.538 291.861L199.754 291.98ZM369.051 320.305C368.55 321.262 368.033 322.208 367.501 323.143L366.811 322.75C367.339 321.824 367.852 320.886 368.347 319.938L369.051 320.305ZM200.78 297.54C200.552 296.489 200.341 295.432 200.15 294.37L200.931 294.23C201.121 295.282 201.329 296.329 201.556 297.371L200.78 297.54ZM366.272 325.232C365.712 326.154 365.137 327.065 364.546 327.963L363.883 327.527C364.468 326.637 365.039 325.734 365.593 324.82L366.272 325.232ZM202.159 303.025C201.864 301.991 201.587 300.95 201.329 299.902L202.099 299.712C202.355 300.75 202.629 301.782 202.922 302.808L202.159 303.025ZM363.185 329.971C362.568 330.856 361.936 331.728 361.289 332.588L360.655 332.111C361.296 331.259 361.923 330.394 362.534 329.517L363.185 329.971ZM203.882 308.412C203.522 307.398 203.179 306.376 202.855 305.347L203.612 305.109C203.933 306.129 204.273 307.141 204.63 308.147L203.882 308.412ZM359.805 334.505C359.133 335.348 358.447 336.179 357.746 336.997L357.144 336.48C357.838 335.67 358.518 334.847 359.184 334.01L359.805 334.505ZM205.941 313.679C205.517 312.689 205.111 311.691 204.723 310.685L205.464 310.399C205.848 311.396 206.251 312.385 206.67 313.367L205.941 313.679ZM356.145 338.815C355.421 339.614 354.684 340.4 353.933 341.172L353.364 340.619C354.108 339.854 354.839 339.075 355.556 338.282L356.145 338.815ZM208.327 318.806C207.842 317.844 207.375 316.874 206.924 315.895L207.645 315.563C208.092 316.534 208.555 317.495 209.036 318.448L208.327 318.806ZM352.219 342.887C351.447 343.639 350.662 344.377 349.864 345.1L349.331 344.512C350.122 343.795 350.9 343.064 351.666 342.319L352.219 342.887ZM211.03 323.773C210.486 322.844 209.958 321.904 209.448 320.956L210.146 320.579C210.653 321.52 211.176 322.451 211.715 323.372L211.03 323.773ZM348.047 346.704C347.229 347.406 346.399 348.093 345.558 348.765L345.062 348.145C345.897 347.479 346.719 346.798 347.53 346.102L348.047 346.704ZM214.039 328.562C213.437 327.668 212.852 326.763 212.283 325.848L212.957 325.429C213.521 326.336 214.101 327.233 214.697 328.119L214.039 328.562ZM343.643 350.252C342.784 350.901 341.912 351.535 341.03 352.154L340.575 351.504C341.449 350.891 342.313 350.263 343.165 349.619L343.643 350.252ZM217.34 333.153C216.684 332.298 216.043 331.432 215.418 330.555L216.065 330.094C216.684 330.964 217.319 331.823 217.97 332.67L217.34 333.153ZM339.027 353.518C338.128 354.113 337.219 354.691 336.3 355.253L335.886 354.576C336.797 354.019 337.698 353.446 338.589 352.856L339.027 353.518ZM220.921 337.53C220.213 336.717 219.52 335.893 218.841 335.056L219.458 334.556C220.13 335.385 220.817 336.203 221.519 337.008L220.921 337.53ZM334.215 356.49C333.282 357.027 332.339 357.547 331.386 358.051L331.015 357.35C331.959 356.85 332.894 356.334 333.82 355.802L334.215 356.49ZM224.769 341.674C224.011 340.907 223.268 340.128 222.539 339.336L223.123 338.798C223.845 339.584 224.582 340.356 225.333 341.116L224.769 341.674ZM329.228 359.156C328.263 359.633 327.289 360.094 326.307 360.537L325.98 359.814C326.954 359.375 327.919 358.918 328.876 358.445L329.228 359.156ZM228.868 345.571C228.064 344.853 227.273 344.121 226.495 343.375L227.045 342.803C227.815 343.541 228.599 344.267 229.397 344.979L228.868 345.571ZM324.084 361.505C323.091 361.921 322.09 362.32 321.081 362.702L320.801 361.96C321.801 361.582 322.793 361.186 323.777 360.773L324.084 361.505ZM233.202 349.202C232.354 348.536 231.519 347.855 230.697 347.16L231.209 346.554C232.024 347.243 232.852 347.918 233.692 348.578L233.202 349.202ZM318.804 363.528C317.787 363.881 316.763 364.217 315.732 364.534L315.499 363.776C316.52 363.461 317.535 363.129 318.543 362.778L318.804 363.528ZM237.756 352.555C236.867 351.943 235.992 351.316 235.128 350.674L235.602 350.038C236.457 350.674 237.325 351.295 238.206 351.902L237.756 352.555ZM313.406 365.217C312.37 365.505 311.327 365.776 310.278 366.028L310.093 365.256C311.132 365.007 312.166 364.738 313.193 364.452L313.406 365.217ZM242.512 355.616C241.587 355.061 240.673 354.49 239.771 353.904L240.204 353.239C241.097 353.819 242.003 354.385 242.92 354.936L242.512 355.616ZM307.913 366.563C306.861 366.786 305.803 366.991 304.74 367.176L304.603 366.395C305.657 366.211 306.705 366.008 307.748 365.787L307.913 366.563ZM247.451 358.371C246.491 357.875 245.543 357.363 244.606 356.834L244.996 356.143C245.925 356.667 246.865 357.175 247.815 357.667L247.451 358.371ZM302.348 367.561C301.284 367.718 300.215 367.855 299.141 367.974L299.054 367.185C300.118 367.068 301.178 366.931 302.233 366.776L302.348 367.561ZM252.551 360.81C251.563 360.375 250.585 359.923 249.617 359.455L249.963 358.741C250.922 359.205 251.891 359.652 252.871 360.083L252.551 360.81ZM296.73 368.208C295.659 368.297 294.584 368.367 293.505 368.418L293.468 367.625C294.537 367.575 295.602 367.505 296.664 367.417L296.73 368.208ZM257.796 362.924C256.783 362.552 255.779 362.163 254.785 361.757L255.085 361.023C256.07 361.425 257.065 361.81 258.07 362.179L257.796 362.924ZM291.08 368.5C290.007 368.522 288.93 368.524 287.851 368.507L287.863 367.714C288.933 367.731 290 367.728 291.064 367.706L291.08 368.5ZM263.165 364.707C262.129 364.398 261.102 364.072 260.084 363.729L260.337 362.977C261.346 363.317 262.365 363.64 263.392 363.946L263.165 364.707ZM285.427 368.437C284.353 368.392 283.278 368.327 282.2 368.243L282.261 367.452C283.33 367.535 284.396 367.599 285.46 367.644L285.427 368.437ZM268.632 366.152C267.578 365.907 266.531 365.646 265.494 365.366L265.7 364.6C266.729 364.877 267.766 365.136 268.811 365.378L268.632 366.152ZM279.789 368.022C278.721 367.91 277.651 367.779 276.579 367.628L276.69 366.842C277.752 366.992 278.813 367.122 279.872 367.233L279.789 368.022ZM272.589 366.977C272.057 366.878 271.526 366.774 270.997 366.666L271.156 365.889C271.68 365.996 272.206 366.098 272.734 366.196C273.262 366.295 273.79 366.388 274.318 366.476L274.186 367.259C273.654 367.17 273.122 367.076 272.589 366.977Z" fill="white"/>
<g opacity="0.2">
<path d="M223.114 324.28C228.761 293.883 258.182 273.852 288.833 279.546C319.485 285.24 339.748 314.502 334.101 344.898C328.454 375.295 299.033 395.327 268.382 389.632C267.862 389.536 267.345 389.432 266.831 389.322L266.665 390.098C267.186 390.21 267.71 390.315 268.237 390.412C299.313 396.186 329.154 375.877 334.882 345.043C340.61 314.21 320.054 284.539 288.978 278.766C257.902 272.992 228.062 293.301 222.333 324.135L223.114 324.28Z" fill="white"/>
<path d="M222.333 324.135C222.236 324.662 222.145 325.189 222.063 325.715L222.847 325.838C222.928 325.319 223.017 324.799 223.114 324.28L222.333 324.135Z" fill="white"/>
<path d="M221.741 328.091C221.619 329.156 221.528 330.219 221.468 331.278L222.26 331.323C222.32 330.279 222.409 329.231 222.529 328.181L221.741 328.091Z" fill="white"/>
<path d="M221.382 333.675C221.366 334.745 221.381 335.812 221.427 336.873L222.219 336.839C222.175 335.793 222.16 334.742 222.175 333.686L221.382 333.675Z" fill="white"/>
<path d="M221.58 339.266C221.671 340.332 221.792 341.392 221.943 342.444L222.729 342.331C222.58 341.294 222.46 340.249 222.37 339.199L221.58 339.266Z" fill="white"/>
<path d="M222.335 344.811C222.531 345.861 222.758 346.903 223.013 347.936L223.783 347.746C223.532 346.727 223.309 345.7 223.115 344.664L222.335 344.811Z" fill="white"/>
<path d="M223.638 350.252C223.938 351.277 224.267 352.291 224.623 353.295L225.371 353.029C225.019 352.04 224.695 351.039 224.399 350.029L223.638 350.252Z" fill="white"/>
<path d="M225.474 355.537C225.873 356.527 226.3 357.504 226.754 358.468L227.472 358.13C227.025 357.18 226.604 356.216 226.21 355.24L225.474 355.537Z" fill="white"/>
<path d="M227.821 360.616C228.316 361.561 228.836 362.492 229.383 363.407L230.064 363C229.525 362.098 229.012 361.18 228.524 360.248L227.821 360.616Z" fill="white"/>
<path d="M230.654 365.441C231.239 366.332 231.847 367.208 232.481 368.066L233.119 367.595C232.495 366.748 231.894 365.885 231.318 365.006L230.654 365.441Z" fill="white"/>
<path d="M233.945 369.966C234.612 370.796 235.304 371.608 236.018 372.401L236.607 371.87C235.903 371.088 235.221 370.287 234.563 369.468L233.945 369.966Z" fill="white"/>
<path d="M237.659 374.149C238.404 374.91 239.171 375.651 239.96 376.371L240.495 375.785C239.717 375.075 238.961 374.344 238.226 373.594L237.659 374.149Z" fill="white"/>
<path d="M241.764 377.951C242.579 378.635 243.415 379.298 244.27 379.938L244.745 379.302C243.902 378.671 243.078 378.018 242.274 377.343L241.764 377.951Z" fill="white"/>
<path d="M246.22 381.334C247.097 381.935 247.994 382.513 248.908 383.067L249.319 382.388C248.417 381.842 247.533 381.272 246.668 380.679L246.22 381.334Z" fill="white"/>
<path d="M250.985 384.266C251.916 384.777 252.865 385.265 253.83 385.727L254.173 385.011C253.221 384.555 252.286 384.075 251.367 383.57L250.985 384.266Z" fill="white"/>
<path d="M256.014 386.717C256.99 387.135 257.981 387.527 258.988 387.893L259.259 387.148C258.267 386.787 257.289 386.399 256.326 385.987L256.014 386.717Z" fill="white"/>
<path d="M261.258 388.666C262.269 388.986 263.293 389.281 264.331 389.548L264.529 388.78C263.505 388.516 262.495 388.226 261.498 387.909L261.258 388.666Z" fill="white"/>
</g>
<g opacity="0.2">
<path fill-rule="evenodd" clip-rule="evenodd" d="M289.313 276.963C319.964 282.658 349.386 262.626 355.033 232.23L355.813 232.375C350.085 263.208 320.244 283.517 289.168 277.744C258.092 271.97 237.537 242.299 243.265 211.466C248.993 180.632 278.833 160.324 309.909 166.097L309.764 166.877C279.113 161.183 249.692 181.214 244.045 211.611C238.398 242.007 258.662 271.269 289.313 276.963Z" fill="white"/>
<path fill-rule="evenodd" clip-rule="evenodd" d="M356.084 230.794C356.001 231.321 355.911 231.847 355.813 232.375L355.033 232.23C355.129 231.71 355.218 231.19 355.3 230.671L356.084 230.794ZM356.679 225.231C356.618 226.29 356.527 227.353 356.406 228.418L355.617 228.328C355.737 227.278 355.827 226.23 355.886 225.186L356.679 225.231ZM356.72 219.637C356.765 220.698 356.78 221.764 356.764 222.835L355.971 222.823C355.986 221.768 355.971 220.716 355.927 219.67L356.72 219.637ZM356.203 214.065C356.354 215.117 356.475 216.177 356.566 217.243L355.776 217.311C355.686 216.26 355.566 215.215 355.417 214.178L356.203 214.065ZM355.133 208.573C355.388 209.606 355.615 210.648 355.812 211.699L355.032 211.845C354.838 210.809 354.614 209.782 354.363 208.763L355.133 208.573ZM353.523 203.215C353.88 204.218 354.208 205.232 354.508 206.257L353.747 206.48C353.451 205.47 353.127 204.469 352.775 203.48L353.523 203.215ZM351.392 198.041C351.846 199.005 352.273 199.982 352.672 200.972L351.937 201.269C351.543 200.293 351.122 199.33 350.674 198.379L351.392 198.041ZM348.764 193.102C349.31 194.018 349.831 194.948 350.325 195.893L349.622 196.261C349.134 195.329 348.621 194.411 348.082 193.509L348.764 193.102ZM345.666 188.444C346.299 189.302 346.908 190.177 347.492 191.069L346.828 191.504C346.252 190.624 345.651 189.761 345.027 188.915L345.666 188.444ZM342.129 184.109C342.843 184.902 343.534 185.714 344.202 186.544L343.583 187.041C342.925 186.222 342.243 185.422 341.539 184.64L342.129 184.109ZM338.187 180.139C338.975 180.859 339.742 181.599 340.487 182.36L339.92 182.915C339.185 182.165 338.429 181.435 337.651 180.725L338.187 180.139ZM333.876 176.572C334.732 177.212 335.567 177.874 336.382 178.558L335.872 179.166C335.068 178.492 334.244 177.838 333.401 177.207L333.876 176.572ZM329.238 173.443C330.153 173.996 331.049 174.574 331.926 175.175L331.478 175.83C330.613 175.237 329.729 174.667 328.827 174.121L329.238 173.443ZM324.316 170.782C325.281 171.244 326.23 171.732 327.161 172.244L326.779 172.939C325.861 172.434 324.925 171.954 323.974 171.498L324.316 170.782ZM319.158 168.616C320.165 168.982 321.156 169.375 322.132 169.792L321.82 170.522C320.857 170.11 319.88 169.723 318.887 169.362L319.158 168.616ZM313.815 166.961C314.853 167.228 315.878 167.523 316.889 167.843L316.649 168.6C315.652 168.284 314.641 167.993 313.617 167.73L313.815 166.961ZM309.909 166.097C310.436 166.195 310.96 166.299 311.481 166.411L311.315 167.187C310.801 167.077 310.284 166.974 309.764 166.877L309.909 166.097Z" fill="white"/>
</g>
<path d="M354.788 290.929C348.083 327.019 313.188 350.804 276.849 344.053C240.509 337.302 216.485 302.572 223.19 266.481C229.895 230.39 264.789 206.606 301.129 213.357C337.469 220.108 361.492 254.838 354.788 290.929Z" fill="#420F6C"/>
<path fill-rule="evenodd" clip-rule="evenodd" d="M325.459 263.516C326.171 264.361 326.062 265.623 325.217 266.334L283.346 301.576C282.505 302.284 281.25 302.181 280.537 301.344L259.418 276.588C258.701 275.748 258.801 274.485 259.641 273.769L264.649 269.496C265.49 268.779 266.752 268.879 267.469 269.72L281.765 286.478C282.478 287.314 283.733 287.418 284.574 286.71L318.402 258.238C319.247 257.526 320.509 257.635 321.22 258.48L325.459 263.516Z" fill="#24034F"/>
<path d="M261.235 247.176C272.547 236.794 266.392 222.542 261.064 216.414L187 125.5L181.5 115L165.5 187.5L229.604 245.899C237.154 252.722 248.485 258.877 261.235 247.176Z" fill="#24034F"/>
<path opacity="0.1" d="M-55.756 -173.165C-55.756 -173.165 65.749 -55.5734 84.4301 -41.9202C103.111 -28.2671 231.35 1.77061 251.662 7.2132C271.974 12.6558 331.552 90.6729 338.512 100.558C342.952 106.864 342.568 107.584 341.526 111.473M173.733 90.4566C173.733 90.4566 220.862 63.6882 230.499 66.2704C238.434 68.3965 255.533 83.6688 266.997 97.0352" stroke="white"/>
<path opacity="0.1" d="M173.832 90.0883L189.513 59.6446" stroke="white"/>
<path opacity="0.1" d="M167.236 63.5119C170.754 79.0995 178.178 114.028 188.113 126.486C198.048 138.943 240.107 191.795 261.061 215.896C266.39 222.026 272.546 236.284 261.23 246.672C248.476 258.379 237.143 252.222 229.592 245.397L145.594 169.965C141.923 166.669 137.707 164.044 133.172 162.102C109.151 151.818 68.1109 132.184 53.2893 117.249C6.33439 69.9354 12.024 29.7939 -40.6684 -16.6844L-117.049 -91.2367" stroke="white"/>
<path opacity="0.1" d="M160.983 183.85C151.605 191.638 143.203 200.277 141.078 204.125C136.165 213.023 136.378 222.17 139.266 230.152C142.123 238.05 152.074 238.882 158.705 233.727V233.727" stroke="white"/>
<path opacity="0.1" d="M136.547 163.642C135.502 164.722 134.672 165.633 134.088 166.319C129.276 171.971 127.342 178.631 127.211 184.813C126.955 196.86 140.589 198.758 150.37 191.72C153.904 189.178 157.546 186.533 161.142 183.892" stroke="white"/>
<path opacity="0.1" d="M419.823 159.057C422.358 159.504 424.05 161.919 423.604 164.452C423.157 166.984 420.741 168.675 418.206 168.228C415.672 167.781 413.979 165.366 414.426 162.833C414.872 160.301 417.289 158.611 419.823 159.057Z" stroke="white" stroke-miterlimit="10"/>
<path opacity="0.3" d="M82.6147 32.2198L-95.9829 -146.674M82.6147 32.2198L240.361 34.3164L305.944 105.291M82.6147 32.2198L105.846 119.517L201.235 180.338" stroke="#872AB0" stroke-width="5"/>
<path d="M243.481 36.1129C242.564 37.7002 240.535 38.244 238.947 37.3276C237.36 36.4112 236.816 34.3816 237.733 32.7944C238.649 31.2071 240.679 30.6633 242.266 31.5797C243.853 32.4961 244.397 34.5257 243.481 36.1129Z" fill="#5F0E8E"/>
<path d="M109.443 121.288C108.526 122.875 106.497 123.419 104.909 122.503C103.322 121.586 102.778 119.557 103.695 117.97C104.611 116.382 106.641 115.838 108.228 116.755C109.815 117.671 110.359 119.701 109.443 121.288Z" fill="#5F0E8E"/>
<path fill-rule="evenodd" clip-rule="evenodd" d="M100.535 16.8667L89.3873 32.9242L97.562 50.6804L81.5044 39.533L63.7482 47.7077L74.8956 31.6502L66.7209 13.8939L82.7785 25.0414L100.535 16.8667ZM80.2774 49.7321L80.7729 44.0965L81.4256 44.1539L80.9302 49.7895L80.2774 49.7321ZM80.1935 50.6712L80.0284 52.5498L80.6811 52.6071L80.8463 50.7286L80.1935 50.6712ZM79.7834 55.3654L79.9485 53.4868L80.6013 53.5442L80.4361 55.4228L79.7834 55.3654ZM82.9031 19.8608L83.3986 14.2251L84.0514 14.2825L83.5559 19.9182L82.9031 19.8608ZM83.6476 11.4082L83.4824 13.2868L84.1352 13.3442L84.3003 11.4656L83.6476 11.4082ZM83.7318 10.4672L83.897 8.58862L84.5497 8.646L84.3846 10.5245L83.7318 10.4672ZM100.147 34.1962L94.5118 33.7007L94.5691 33.048L100.205 33.5434L100.147 34.1962ZM101.089 34.2795L102.967 34.4447L103.025 33.7919L101.146 33.6268L101.089 34.2795ZM105.781 34.6956L103.903 34.5304L103.96 33.8776L105.838 34.0428L105.781 34.6956ZM70.2812 31.5702L64.6455 31.0747L64.7029 30.4219L70.3385 30.9174L70.2812 31.5702ZM61.8215 30.8272L63.7 30.9923L63.7574 30.3396L61.8789 30.1744L61.8215 30.8272ZM60.8837 30.7448L59.0052 30.5797L59.0626 29.9269L60.9411 30.0921L60.8837 30.7448Z" fill="#5F0E8E"/>
<path fill-rule="evenodd" clip-rule="evenodd" d="M202.938 173.207L201.922 179.649L206.957 183.794L200.515 182.779L196.369 187.813L197.385 181.371L192.351 177.226L198.793 178.241L202.938 173.207ZM201.628 186.016L200.958 184.252L201.162 184.174L201.832 185.939L201.628 186.016ZM201.739 186.313L201.962 186.902L202.166 186.824L201.943 186.236L201.739 186.313ZM202.297 187.782L202.074 187.194L202.278 187.117L202.501 187.705L202.297 187.782ZM198.078 176.665L197.408 174.9L197.613 174.822L198.282 176.587L198.078 176.665ZM197.074 174.017L197.297 174.605L197.502 174.528L197.278 173.94L197.074 174.017ZM196.963 173.721L196.74 173.133L196.944 173.056L197.167 173.644L196.963 173.721ZM205.338 178.467L203.574 179.137L203.496 178.932L205.261 178.263L205.338 178.467ZM205.634 178.354L206.222 178.131L206.144 177.926L205.556 178.15L205.634 178.354ZM207.103 177.799L206.515 178.022L206.437 177.817L207.025 177.594L207.103 177.799ZM195.988 182.017L194.223 182.687L194.145 182.482L195.91 181.813L195.988 182.017ZM193.339 183.021L193.927 182.798L193.849 182.593L193.261 182.817L193.339 183.021ZM193.045 183.134L192.457 183.357L192.379 183.153L192.968 182.93L193.045 183.134Z" fill="#5F0E8E"/>
<path fill-rule="evenodd" clip-rule="evenodd" d="M294.015 92.8399L306.559 99.8758L318.989 92.641L311.953 105.185L319.188 117.615L306.644 110.579L294.214 117.814L301.25 105.27L294.015 92.8399ZM319.508 105.366L315.345 105.399L315.341 104.917L319.504 104.884L319.508 105.366ZM320.202 105.362L321.59 105.351L321.586 104.869L320.198 104.88L320.202 105.362ZM323.669 105.332L322.281 105.343L322.278 104.861L323.665 104.85L323.669 105.332ZM297.446 105.542L293.283 105.575L293.279 105.093L297.442 105.06L297.446 105.542ZM291.204 105.591L292.591 105.58L292.588 105.098L291.2 105.109L291.204 105.591ZM290.509 105.596L289.122 105.607L289.118 105.125L290.505 105.114L290.509 105.596ZM306.736 91.9075L306.769 96.0698L306.287 96.0736L306.254 91.9113L306.736 91.9075ZM306.73 91.2117L306.719 89.8243L306.237 89.8281L306.248 91.2156L306.73 91.2117ZM306.705 87.7465L306.716 89.1339L306.234 89.1377L306.223 87.7503L306.705 87.7465ZM306.911 113.965L306.944 118.127L306.462 118.131L306.429 113.969L306.911 113.965ZM306.96 120.212L306.949 118.825L306.467 118.828L306.478 120.216L306.96 120.212ZM306.965 120.904L306.976 122.292L306.494 122.296L306.483 120.908L306.965 120.904Z" fill="#5F0E8E"/>
<g opacity="0.2">
<path d="M470.949 485.387L470.981 492.528L477.149 496.126L470.008 496.158L466.41 502.326L466.378 495.185L460.21 491.587L467.351 491.555L470.949 485.387Z" fill="white"/>
<path fill-rule="evenodd" clip-rule="evenodd" d="M470.981 492.528L470.949 485.387L467.351 491.555L460.21 491.587L466.378 495.185L466.41 502.326L470.008 496.158L477.149 496.126L470.981 492.528ZM474.974 495.543L470.39 492.869L470.366 487.562L467.692 492.146L462.385 492.17L466.969 494.844L466.993 500.151L469.667 495.567L474.974 495.543Z" fill="white"/>
<path fill-rule="evenodd" clip-rule="evenodd" d="M471.626 499.554L470.593 497.764L471.106 497.468L472.139 499.258L471.626 499.554Z" fill="white"/>
<path fill-rule="evenodd" clip-rule="evenodd" d="M472.143 500.447L471.798 499.851L472.312 499.554L472.656 500.151L472.143 500.447Z" fill="white"/>
<path fill-rule="evenodd" clip-rule="evenodd" d="M472.66 501.343L472.315 500.747L472.829 500.45L473.173 501.047L472.66 501.343Z" fill="white"/>
<path fill-rule="evenodd" clip-rule="evenodd" d="M465.117 488.279L466.15 490.068L466.664 489.772L465.63 487.982L465.117 488.279Z" fill="white"/>
<path fill-rule="evenodd" clip-rule="evenodd" d="M464.6 487.385L464.944 487.981L465.458 487.685L465.113 487.088L464.6 487.385Z" fill="white"/>
<path fill-rule="evenodd" clip-rule="evenodd" d="M464.082 486.489L464.426 487.085L464.939 486.789L464.595 486.192L464.082 486.489Z" fill="white"/>
<path fill-rule="evenodd" clip-rule="evenodd" d="M474.553 490.806L472.764 491.84L472.467 491.327L474.257 490.293L474.553 490.806Z" fill="white"/>
<path fill-rule="evenodd" clip-rule="evenodd" d="M475.45 490.291L474.853 490.636L474.557 490.123L475.154 489.778L475.45 490.291Z" fill="white"/>
<path fill-rule="evenodd" clip-rule="evenodd" d="M476.345 489.774L475.748 490.118L475.452 489.605L476.048 489.26L476.345 489.774Z" fill="white"/>
<path fill-rule="evenodd" clip-rule="evenodd" d="M463.277 497.316L465.067 496.282L464.771 495.769L462.981 496.802L463.277 497.316Z" fill="white"/>
<path fill-rule="evenodd" clip-rule="evenodd" d="M462.382 497.832L462.979 497.488L462.683 496.975L462.086 497.319L462.382 497.832Z" fill="white"/>
<path fill-rule="evenodd" clip-rule="evenodd" d="M461.488 498.35L462.084 498.006L461.788 497.492L461.191 497.837L461.488 498.35Z" fill="white"/>
</g>
<path d="M476.901 248.363C476.572 249.592 475.309 250.321 474.08 249.992C472.851 249.663 472.122 248.4 472.451 247.171C472.78 245.942 474.043 245.213 475.272 245.542C476.501 245.872 477.23 247.135 476.901 248.363Z" fill="white"/>
<path d="M444.036 387.734C443.773 388.717 442.763 389.3 441.78 389.036C440.797 388.773 440.213 387.763 440.477 386.78C440.74 385.797 441.75 385.214 442.733 385.477C443.716 385.74 444.3 386.751 444.036 387.734Z" fill="white"/>
<path fill-rule="evenodd" clip-rule="evenodd" d="M233.928 497.089C234.869 497.341 235.837 496.783 236.089 495.842C236.341 494.901 235.783 493.933 234.842 493.681C233.901 493.429 232.933 493.988 232.681 494.929C232.429 495.869 232.988 496.837 233.928 497.089ZM233.67 498.055C235.144 498.45 236.66 497.575 237.055 496.1C237.45 494.626 236.575 493.11 235.1 492.715C233.626 492.32 232.11 493.195 231.715 494.67C231.32 496.144 232.195 497.66 233.67 498.055Z" fill="white"/>
<path opacity="0.2" fill-rule="evenodd" clip-rule="evenodd" d="M37.9285 217.089C38.8695 217.341 39.8367 216.783 40.0888 215.842C40.3409 214.901 39.7825 213.933 38.8415 213.681C37.9006 213.429 36.9334 213.988 36.6812 214.929C36.4291 215.869 36.9875 216.837 37.9285 217.089ZM37.6697 218.055C39.1441 218.45 40.6596 217.575 41.0547 216.1C41.4498 214.626 40.5748 213.11 39.1004 212.715C37.6259 212.32 36.1104 213.195 35.7153 214.67C35.3202 216.144 36.1952 217.66 37.6697 218.055Z" fill="white"/>
<path fill-rule="evenodd" clip-rule="evenodd" d="M362.928 166.089C363.869 166.341 364.837 165.783 365.089 164.842C365.341 163.901 364.783 162.933 363.842 162.681C362.901 162.429 361.933 162.988 361.681 163.929C361.429 164.869 361.988 165.837 362.928 166.089ZM362.67 167.055C364.144 167.45 365.66 166.575 366.055 165.1C366.45 163.626 365.575 162.11 364.1 161.715C362.626 161.32 361.11 162.195 360.715 163.67C360.32 165.144 361.195 166.66 362.67 167.055Z" fill="white"/>
</svg>

