<svg width="100%" height="100%" viewBox="0 0 151 143" fill="none" xmlns="http://www.w3.org/2000/svg">
    <path opacity="0.3" d="M87.8652 70.8545L118.365 71.8545M149.184 67.8545L118.365 71.8545M120.184 42.3545L118.365 71.8545M122.184 96.8545L118.365 71.8545" stroke="#5F0E8E" stroke-width="5"/>
    <circle cx="148.03" cy="67.5194" r="2.6649" fill="#8620B9"/>
    <path d="M125.817 93.8545L124.065 96.9216L125.817 99.9887L122.75 98.236L119.683 99.9887L121.436 96.9216L119.683 93.8545L122.75 95.6071L125.817 93.8545Z" fill="#8620B9"/>
    <path d="M119.684 38.5898L120.613 41.9979L124.021 42.9274L120.613 43.8568L119.684 47.2649L118.754 43.8568L115.346 42.9274L118.754 41.9979L119.684 38.5898Z" fill="#8620B9"/>
    <path d="M121.202 44.4453L121.925 45.1682" stroke="#8620B9" stroke-width="0.5" stroke-linejoin="round"/>
    <path d="M122.045 45.2891L122.286 45.53" stroke="#8620B9" stroke-width="0.5" stroke-linejoin="round"/>
    <path d="M122.406 45.6504L122.647 45.8914" stroke="#8620B9" stroke-width="0.5" stroke-linejoin="round"/>
    <path d="M118.094 41.3369L117.371 40.614" stroke="#8620B9" stroke-width="0.5" stroke-linejoin="round"/>
    <path d="M117.25 40.4932L117.009 40.2522" stroke="#8620B9" stroke-width="0.5" stroke-linejoin="round"/>
    <path d="M116.889 40.1318L116.648 39.8909" stroke="#8620B9" stroke-width="0.5" stroke-linejoin="round"/>
    <path d="M121.275 41.3369L121.998 40.614" stroke="#8620B9" stroke-width="0.5" stroke-linejoin="round"/>
    <path d="M122.117 40.4932L122.358 40.2522" stroke="#8620B9" stroke-width="0.5" stroke-linejoin="round"/>
    <path d="M122.479 40.1318L122.72 39.8909" stroke="#8620B9" stroke-width="0.5" stroke-linejoin="round"/>
    <path d="M118.166 44.4443L117.443 45.1673" stroke="#8620B9" stroke-width="0.5" stroke-linejoin="round"/>
    <path d="M117.322 45.2881L117.081 45.5291" stroke="#8620B9" stroke-width="0.5" stroke-linejoin="round"/>
    <path d="M116.961 45.6494L116.72 45.8904" stroke="#8620B9" stroke-width="0.5" stroke-linejoin="round"/>
    <path d="M87.5674 63.0117L89.8356 69.0578L96.1961 70.1732L90.15 72.4414L89.0346 78.8019L86.7664 72.7558L80.4059 71.6404L86.452 69.3722L87.5674 63.0117Z" fill="#8620B9"/>
    <path d="M91.3213 73.4131L92.7594 74.6067" stroke="#8620B9" stroke-width="0.5" stroke-linejoin="round"/>
    <path d="M92.998 74.8057L93.4774 75.2035" stroke="#8620B9" stroke-width="0.5" stroke-linejoin="round"/>
    <path d="M93.7178 75.4023L94.1971 75.8002" stroke="#8620B9" stroke-width="0.5" stroke-linejoin="round"/>
    <path d="M85.1367 68.2812L83.6986 67.0877" stroke="#8620B9" stroke-width="0.5" stroke-linejoin="round"/>
    <path d="M83.459 66.8887L82.9796 66.4908" stroke="#8620B9" stroke-width="0.5" stroke-linejoin="round"/>
    <path d="M82.7393 66.292L82.2599 65.8941" stroke="#8620B9" stroke-width="0.5" stroke-linejoin="round"/>
    <path d="M90.9258 67.7441L92.1194 66.306" stroke="#8620B9" stroke-width="0.5" stroke-linejoin="round"/>
    <path d="M92.3164 66.0664L92.7143 65.587" stroke="#8620B9" stroke-width="0.5" stroke-linejoin="round"/>
    <path d="M92.915 65.3467L93.3129 64.8673" stroke="#8620B9" stroke-width="0.5" stroke-linejoin="round"/>
    <path d="M85.793 73.9277L84.5994 75.3659" stroke="#8620B9" stroke-width="0.5" stroke-linejoin="round"/>
    <path d="M84.4014 75.6045L84.0035 76.0839" stroke="#8620B9" stroke-width="0.5" stroke-linejoin="round"/>
    <path d="M83.8027 76.3242L83.4049 76.8036" stroke="#8620B9" stroke-width="0.5" stroke-linejoin="round"/>
    <path fill-rule="evenodd" clip-rule="evenodd" d="M36.7092 106.02C56.0434 125.354 87.2299 125.502 106.366 106.366L107.073 107.073C87.5399 126.607 55.7202 126.445 36.002 106.727C16.2839 87.0085 16.1221 55.1888 35.6554 35.6555C55.1887 16.1222 87.0084 16.2839 106.727 36.0021L106.019 36.7092C86.6852 17.375 55.4988 17.2264 36.3625 36.3626C17.2263 55.4988 17.3749 86.6853 36.7092 106.02Z" fill="#23024D"/>
    <path fill-rule="evenodd" clip-rule="evenodd" d="M108.155 105.933C107.691 106.436 107.215 106.932 106.727 107.42L106.019 106.713C106.498 106.234 106.965 105.748 107.421 105.254L108.155 105.933ZM112.654 100.303C111.88 101.428 111.055 102.528 110.18 103.601L109.405 102.968C110.264 101.917 111.072 100.839 111.831 99.7364L112.654 100.303ZM116.304 94.0897C115.698 95.3157 115.039 96.5222 114.327 97.7059L113.47 97.1906C114.168 96.0306 114.813 94.8481 115.407 93.6466L116.304 94.0897ZM119.024 87.4172C118.6 88.7193 118.12 90.0077 117.587 91.2786L116.665 90.8916C117.188 89.6459 117.657 88.3833 118.074 87.107L119.024 87.4172ZM120.765 80.4247C120.529 81.7758 120.238 83.1192 119.892 84.4513L118.925 84.1999C119.264 82.8943 119.549 81.5774 119.779 80.253L120.765 80.4247ZM121.494 73.2561C121.452 74.6285 121.355 75.9996 121.202 77.3655L120.208 77.2542C120.358 75.9151 120.454 74.5711 120.495 73.2257L121.494 73.2561ZM121.202 66.0565C121.355 67.4225 121.452 68.7935 121.494 70.1659L120.495 70.1963C120.454 68.8509 120.358 67.5069 120.208 66.1679L121.202 66.0565ZM119.892 58.9708C120.238 60.3029 120.529 61.6463 120.765 62.9974L119.779 63.1691C119.549 61.8446 119.264 60.5278 118.925 59.2221L119.892 58.9708ZM117.587 52.1435C118.12 53.4144 118.6 54.7027 119.024 56.0049L118.074 56.3151C117.657 55.0388 117.188 53.7761 116.665 52.5305L117.587 52.1435ZM114.327 45.7162C115.039 46.8998 115.698 48.1063 116.304 49.3323L115.407 49.7755C114.813 48.5739 114.168 47.3915 113.47 46.2315L114.327 45.7162ZM110.18 39.8214C111.055 40.8939 111.88 41.9941 112.654 43.1187L111.831 43.6857C111.072 42.5835 110.264 41.5051 109.405 40.4537L110.18 39.8214ZM106.727 36.0021C107.215 36.4905 107.691 36.9865 108.155 37.4895L107.421 38.1677C106.965 37.6744 106.498 37.1882 106.019 36.7092L106.727 36.0021Z" fill="#23024D"/>
    <path fill-rule="evenodd" clip-rule="evenodd" d="M94.5234 94.5223C81.6013 107.444 60.76 107.542 47.9731 94.7551L47.266 95.4622C60.45 108.646 81.9245 108.535 95.2305 95.2294C108.537 81.9234 108.647 60.4489 95.4633 47.2649C82.2793 34.0808 60.8048 34.1916 47.4987 47.4977L48.2059 48.2048C61.128 35.2827 81.9692 35.185 94.7562 47.972C107.543 60.759 107.446 81.6002 94.5234 94.5223Z" fill="#23024D"/>
    <path fill-rule="evenodd" clip-rule="evenodd" d="M46.1846 94.3064C46.6073 94.7786 47.0455 95.2418 47.499 95.6953L48.2061 94.9882C47.7656 94.5477 47.3401 94.0979 46.9297 93.6394L46.1846 94.3064ZM42.2366 88.9164C42.8797 90.0047 43.5884 91.065 44.3628 92.0914L45.1611 91.4892C44.4094 90.4929 43.7216 89.4639 43.0976 88.4077L42.2366 88.9164ZM39.4223 82.8554C39.8405 84.0533 40.3275 85.2325 40.8835 86.3869L41.7844 85.953C41.245 84.8328 40.7723 83.6884 40.3664 82.5258L39.4223 82.8554ZM37.8498 76.3612C38.0267 77.621 38.2741 78.8728 38.5921 80.1103L39.5606 79.8614C39.252 78.6603 39.0118 77.4451 38.8401 76.2221L37.8498 76.3612ZM37.5703 69.6857C37.4993 70.9586 37.4993 72.2347 37.5703 73.5076L38.5688 73.4518C38.4998 72.2161 38.4998 70.9772 38.5688 69.7414L37.5703 69.6857ZM38.5921 63.0829C38.2741 64.3205 38.0267 65.5723 37.8498 66.8321L38.8401 66.9712C39.0118 65.7482 39.252 64.533 39.5606 63.3318L38.5921 63.0829ZM40.8835 56.8064C40.3275 57.9608 39.8405 59.14 39.4223 60.3378L40.3664 60.6675C40.7723 59.5049 41.245 58.3605 41.7844 57.2402L40.8835 56.8064ZM44.3628 51.1018C43.5884 52.1282 42.8797 53.1885 42.2366 54.2769L43.0976 54.7856C43.7216 53.7294 44.4094 52.7004 45.1611 51.7041L44.3628 51.1018ZM47.499 47.498C47.0455 47.9515 46.6073 48.4147 46.1847 48.8869L46.9297 49.5539C47.3401 49.0954 47.7656 48.6456 48.2061 48.2051L47.499 47.498Z" fill="#23024D"/>
</svg>
