<svg width="100%" height="100%" viewBox="0 0 152 107" fill="none" xmlns="http://www.w3.org/2000/svg">
    <path opacity="0.3" d="M142.001 32.0861L128.501 90.5L71.501 104L57.251 75.7351L43.001 47.4702L91.4908 6L142.001 32.0861Z" stroke="#5F0E8E" stroke-width="5"/>
    <circle cx="71.6649" cy="103.665" r="2.6649" fill="#8620B9"/>
    <path d="M128.001 81.4697L129.86 88.2855L136.676 90.1444L129.86 92.0033L128.001 98.8191L126.142 92.0033L119.326 90.1444L126.142 88.2855L128.001 81.4697Z" fill="#8620B9"/>
    <path d="M131.036 93.1816L132.482 94.6274" stroke="#8620B9" stroke-width="0.5" stroke-linejoin="round"/>
    <path d="M132.724 94.8672L133.206 95.3491" stroke="#8620B9" stroke-width="0.5" stroke-linejoin="round"/>
    <path d="M133.446 95.5898L133.928 96.0718" stroke="#8620B9" stroke-width="0.5" stroke-linejoin="round"/>
    <path d="M124.82 86.9639L123.375 85.5181" stroke="#8620B9" stroke-width="0.5" stroke-linejoin="round"/>
    <path d="M123.134 85.2773L122.652 84.7954" stroke="#8620B9" stroke-width="0.5" stroke-linejoin="round"/>
    <path d="M122.41 84.5537L121.928 84.0718" stroke="#8620B9" stroke-width="0.5" stroke-linejoin="round"/>
    <path d="M131.182 86.9639L132.627 85.5181" stroke="#8620B9" stroke-width="0.5" stroke-linejoin="round"/>
    <path d="M132.868 85.2773L133.35 84.7954" stroke="#8620B9" stroke-width="0.5" stroke-linejoin="round"/>
    <path d="M133.592 84.5547L134.074 84.0728" stroke="#8620B9" stroke-width="0.5" stroke-linejoin="round"/>
    <path d="M124.965 93.1807L123.519 94.6264" stroke="#8620B9" stroke-width="0.5" stroke-linejoin="round"/>
    <path d="M123.278 94.8672L122.796 95.3491" stroke="#8620B9" stroke-width="0.5" stroke-linejoin="round"/>
    <path d="M122.555 95.5908L122.073 96.0727" stroke="#8620B9" stroke-width="0.5" stroke-linejoin="round"/>
    <path d="M92.001 1.73535L92.9304 5.1434L96.3385 6.07287L92.9304 7.00234L92.001 10.4104L91.0715 7.00234L87.6635 6.07287L91.0715 5.1434L92.001 1.73535Z" fill="#8620B9"/>
    <path d="M93.5195 7.59082L94.2425 8.31374" stroke="#8620B9" stroke-width="0.5" stroke-linejoin="round"/>
    <path d="M94.3623 8.43457L94.6033 8.67554" stroke="#8620B9" stroke-width="0.5" stroke-linejoin="round"/>
    <path d="M94.7236 8.7959L94.9646 9.03687" stroke="#8620B9" stroke-width="0.5" stroke-linejoin="round"/>
    <path d="M90.4111 4.48242L89.6882 3.7595" stroke="#8620B9" stroke-width="0.5" stroke-linejoin="round"/>
    <path d="M89.5674 3.63867L89.3264 3.3977" stroke="#8620B9" stroke-width="0.5" stroke-linejoin="round"/>
    <path d="M89.2061 3.27734L88.9651 3.03637" stroke="#8620B9" stroke-width="0.5" stroke-linejoin="round"/>
    <path d="M93.5928 4.48242L94.3157 3.7595" stroke="#8620B9" stroke-width="0.5" stroke-linejoin="round"/>
    <path d="M94.4346 3.63867L94.6755 3.3977" stroke="#8620B9" stroke-width="0.5" stroke-linejoin="round"/>
    <path d="M94.7969 3.27734L95.0378 3.03637" stroke="#8620B9" stroke-width="0.5" stroke-linejoin="round"/>
    <path d="M90.4834 7.58984L89.7605 8.31276" stroke="#8620B9" stroke-width="0.5" stroke-linejoin="round"/>
    <path d="M89.6396 8.43359L89.3987 8.67457" stroke="#8620B9" stroke-width="0.5" stroke-linejoin="round"/>
    <path d="M89.2783 8.79492L89.0373 9.03589" stroke="#8620B9" stroke-width="0.5" stroke-linejoin="round"/>
    <path d="M44 41L45.296 45.752L50.048 47.048L45.296 48.344L44 53.096L42.704 48.344L37.952 47.048L42.704 45.752L44 41Z" fill="#8620B9"/>
    <path d="M141.896 24.8604L143.428 30.4804L149.048 32.0131L143.428 33.5458L141.896 39.1659L140.363 33.5458L134.743 32.0131L140.363 30.4804L141.896 24.8604Z" fill="#8620B9"/>
    <path d="M144.4 34.5166L145.593 35.7087" stroke="#8620B9" stroke-width="0.5" stroke-linejoin="round"/>
    <path d="M145.789 35.9072L146.186 36.3046" stroke="#8620B9" stroke-width="0.5" stroke-linejoin="round"/>
    <path d="M146.386 36.5029L146.783 36.9003" stroke="#8620B9" stroke-width="0.5" stroke-linejoin="round"/>
    <path d="M139.274 29.3906L138.082 28.1985" stroke="#8620B9" stroke-width="0.5" stroke-linejoin="round"/>
    <path d="M137.883 28L137.485 27.6026" stroke="#8620B9" stroke-width="0.5" stroke-linejoin="round"/>
    <path d="M137.286 27.4033L136.889 27.0059" stroke="#8620B9" stroke-width="0.5" stroke-linejoin="round"/>
    <path d="M144.519 29.3916L145.711 28.1995" stroke="#8620B9" stroke-width="0.5" stroke-linejoin="round"/>
    <path d="M145.905 27.999L146.303 27.6016" stroke="#8620B9" stroke-width="0.5" stroke-linejoin="round"/>
    <path d="M146.504 27.4033L146.901 27.0059" stroke="#8620B9" stroke-width="0.5" stroke-linejoin="round"/>
    <path d="M139.391 34.5156L138.198 35.7078" stroke="#8620B9" stroke-width="0.5" stroke-linejoin="round"/>
    <path d="M137.999 35.9072L137.602 36.3046" stroke="#8620B9" stroke-width="0.5" stroke-linejoin="round"/>
    <path d="M137.405 36.5029L137.008 36.9003" stroke="#8620B9" stroke-width="0.5" stroke-linejoin="round"/>
    <path d="M51 102.02C78.6142 102.02 101 79.8533 101 52.5098C101 25.1663 78.6142 3 51 3C23.3858 3 1 25.1663 1 52.5098" stroke="#23024D"/>
    <path d="M51 102.02C23.3858 102.02 1 79.6338 1 52.0195" stroke="#23024D" stroke-dasharray="4 3"/>
    <path d="M94 16.8621C74.1178 16.8621 58 32.8219 58 52.5092C58 72.1965 74.1178 88.1562 94 88.1562C113.882 88.1562 130 72.1965 130 52.5092" stroke="#23024D"/>
    <path d="M94 16.8623C113.882 16.8623 130 32.9801 130 52.8623" stroke="#23024D" stroke-dasharray="4 3"/>
</svg>
