<svg width="100%" height="100%" viewBox="0 0 605 708" fill="none" xmlns="http://www.w3.org/2000/svg">
    <g opacity="0.2">
        <path opacity="0.1" d="M138.619 413.081C137.195 413.081 136.041 411.927 136.041 410.504C136.041 409.08 137.195 407.926 138.619 407.926C140.042 407.926 141.196 409.08 141.196 410.504C141.196 411.927 140.042 413.081 138.619 413.081Z" fill="#23024D"/>
        <path opacity="0.1" d="M172.111 54.2275C170.687 54.2275 169.533 53.0735 169.533 51.6501C169.533 50.2267 170.687 49.0728 172.111 49.0728C173.534 49.0728 174.688 50.2267 174.688 51.6501C174.688 53.0735 173.534 54.2275 172.111 54.2275Z" fill="#23024D"/>
        <path opacity="0.1" d="M594.54 16.4613C593.116 16.4613 591.963 15.3074 591.963 13.884C591.963 12.4606 593.116 11.3066 594.54 11.3066C595.963 11.3066 597.117 12.4606 597.117 13.884C597.117 15.3074 595.963 16.4613 594.54 16.4613Z" fill="#23024D"/>
        <path d="M21.5475 103.449C19.7682 103.449 18.3258 102.006 18.3258 100.227C18.3258 98.4479 19.7682 97.0055 21.5475 97.0055C23.3268 97.0055 24.7692 98.4479 24.7692 100.227C24.7692 102.006 23.3268 103.449 21.5475 103.449Z" fill="#23024D"/>
        <path d="M87.7148 337.049C85.9355 337.049 84.4931 335.607 84.4931 333.828C84.4931 332.048 85.9355 330.606 87.7148 330.606C89.4941 330.606 90.9365 332.048 90.9365 333.828C90.9365 335.607 89.4941 337.049 87.7148 337.049Z" fill="#23024D"/>
        <path d="M433.725 1.9965C432.302 1.9965 431.148 0.842582 431.148 -0.580851C431.148 -2.00428 432.302 -3.1582 433.725 -3.1582C435.148 -3.1582 436.302 -2.00428 436.302 -0.580851C436.302 0.842582 435.148 1.9965 433.725 1.9965Z" fill="#23024D"/>
        <path fill-rule="evenodd" clip-rule="evenodd" d="M-5.6038 150.191C-5.6038 151.554 -4.49917 152.658 -3.13654 152.658C-1.77391 152.658 -0.669279 151.554 -0.669279 150.191C-0.669279 148.829 -1.77391 147.724 -3.13654 147.724C-4.49917 147.724 -5.6038 148.829 -5.6038 150.191ZM-7.00257 150.191C-7.00257 152.326 -5.27169 154.057 -3.13654 154.057C-1.00139 154.057 0.729492 152.326 0.729492 150.191C0.729492 148.056 -1.00139 146.325 -3.13654 146.325C-5.27169 146.325 -7.00257 148.056 -7.00257 150.191Z" fill="#23024D"/>
        <path fill-rule="evenodd" clip-rule="evenodd" d="M305.435 293.527C305.435 294.889 306.54 295.994 307.902 295.994C309.265 295.994 310.37 294.889 310.37 293.527C310.37 292.164 309.265 291.06 307.902 291.06C306.54 291.06 305.435 292.164 305.435 293.527ZM304.036 293.527C304.036 295.662 305.767 297.393 307.902 297.393C310.038 297.393 311.768 295.662 311.768 293.527C311.768 291.392 310.038 289.661 307.902 289.661C305.767 289.661 304.036 291.392 304.036 293.527Z" fill="#23024D"/>
        <path fill-rule="evenodd" clip-rule="evenodd" d="M262.073 82.3131C262.073 83.6757 263.178 84.7803 264.541 84.7803C265.903 84.7803 267.008 83.6757 267.008 82.3131C267.008 80.9504 265.903 79.8458 264.541 79.8458C263.178 79.8458 262.073 80.9504 262.073 82.3131ZM260.674 82.3131C260.674 84.4482 262.405 86.1791 264.541 86.1791C266.676 86.1791 268.407 84.4482 268.407 82.3131C268.407 80.1779 266.676 78.447 264.541 78.447C262.405 78.447 260.674 80.1779 260.674 82.3131Z" fill="#23024D"/>
        <path fill-rule="evenodd" clip-rule="evenodd" d="M145.973 459.981C145.973 461.344 147.078 462.449 148.441 462.449C149.803 462.449 150.908 461.344 150.908 459.981C150.908 458.619 149.803 457.514 148.441 457.514C147.078 457.514 145.973 458.619 145.973 459.981ZM144.575 459.981C144.575 462.117 146.306 463.847 148.441 463.847C150.576 463.847 152.307 462.117 152.307 459.981C152.307 457.846 150.576 456.115 148.441 456.115C146.306 456.115 144.575 457.846 144.575 459.981Z" fill="#23024D"/>
        <path d="M242.999 273.903C240.864 273.903 239.133 272.172 239.133 270.037C239.133 267.902 240.864 266.171 242.999 266.171C245.134 266.171 246.865 267.902 246.865 270.037C246.865 272.172 245.134 273.903 242.999 273.903Z" fill="#23024D"/>
        <path fill-rule="evenodd" clip-rule="evenodd" d="M240.532 270.037C240.532 271.4 241.636 272.504 242.999 272.504C244.362 272.504 245.466 271.4 245.466 270.037C245.466 268.675 244.362 267.57 242.999 267.57C241.636 267.57 240.532 268.675 240.532 270.037ZM239.133 270.037C239.133 272.172 240.864 273.903 242.999 273.903C245.134 273.903 246.865 272.172 246.865 270.037C246.865 267.902 245.134 266.171 242.999 266.171C240.864 266.171 239.133 267.902 239.133 270.037Z" fill="#1127E9"/>
        <path d="M331.435 220.89L284.194 233.548L284.5 234.692L331.741 222.033L331.435 220.89Z" fill="#23024D"/>
        <path d="M326.872 170.124L319.506 174.377L320.098 175.402L327.464 171.149L326.872 170.124Z" fill="#23024D"/>
        <path d="M89.0872 382.49L84.8344 389.856L85.8598 390.448L90.1126 383.082L89.0872 382.49Z" fill="#23024D"/>
        <path d="M81.2901 395.997L70.3037 415.026L71.3291 415.618L82.3156 396.589L81.2901 395.997Z" fill="#23024D"/>
        <path d="M55.4195 440.808L66.4059 421.779L67.4314 422.371L56.445 441.4L55.4195 440.808Z" fill="#23024D"/>
        <path d="M294.338 188.904L313.367 177.918L313.959 178.943L294.93 189.929L294.338 188.904Z" fill="#23024D"/>
        <path d="M287.586 192.806L268.557 203.793L269.149 204.818L288.178 193.832L287.586 192.806Z" fill="#23024D"/>
        <path d="M192.566 137L191.099 142.477L192.242 142.784L193.71 137.307L192.566 137Z" fill="#23024D"/>
        <path d="M193.851 132.209L197.703 117.832L198.847 118.138L194.994 132.516L193.851 132.209Z" fill="#23024D"/>
        <path d="M202.84 98.6597L198.987 113.037L200.131 113.344L203.983 98.9662L202.84 98.6597Z" fill="#23024D"/>
        <path d="M5.81911 355.234L10.7298 352.398L11.3219 353.424L6.41115 356.259L5.81911 355.234Z" fill="#23024D"/>
        <path d="M27.9175 342.475L15.0269 349.917L15.6189 350.942L28.5096 343.5L27.9175 342.475Z" fill="#23024D"/>
        <path d="M32.2145 339.993L45.1051 332.551L45.6971 333.576L32.8065 341.019L32.2145 339.993Z" fill="#23024D"/>
        <path d="M237.216 126.387L248.203 107.358L249.228 107.95L238.242 126.979L237.216 126.387Z" fill="#23024D"/>
        <path d="M233.317 133.138L222.331 152.167L223.356 152.759L234.343 133.73L233.317 133.138Z" fill="#23024D"/>
        <path d="M48.2298 376.912L63.7669 361.375L64.6042 362.212L49.067 377.749L48.2298 376.912Z" fill="#23024D"/>
        <path d="M42.7161 382.427L27.1789 397.964L28.0162 398.801L43.5534 383.264L42.7161 382.427Z" fill="#23024D"/>
        <path d="M260.773 164.37L252.754 172.389L253.591 173.226L261.61 165.207L260.773 164.37Z" fill="#23024D"/>
        <path d="M267.789 157.35L289.341 135.798L290.178 136.636L268.627 158.187L267.789 157.35Z" fill="#23024D"/>
        <path d="M313.959 111.551L296.859 128.286L297.697 129.123L314.796 112.388L313.959 111.551Z" fill="#23024D"/>
        <path d="M-54.8057 324.297L-43.8512 321.362L-43.5448 322.506L-54.4992 325.441L-54.8057 324.297Z" fill="#23024D"/>
        <path d="M-4.826 310.908L-34.2659 318.796L-33.9595 319.94L-4.51954 312.052L-4.826 310.908Z" fill="#23024D"/>
        <path d="M5.44329 308.157L34.1986 300.452L34.5051 301.596L5.74975 309.301L5.44329 308.157Z" fill="#23024D"/>
        <path d="M110.625 440.925L123.283 393.685L124.426 393.991L111.768 441.232L110.625 440.925Z" fill="#23024D"/>
        <path d="M84.8321 147.842L89.0849 155.208L90.1103 154.616L85.8575 147.25L84.8321 147.842Z" fill="#23024D"/>
        <path d="M81.2913 141.701L70.3048 122.672L71.3303 122.08L82.3167 141.109L81.2913 141.701Z" fill="#23024D"/>
        <path d="M55.4195 96.8922L66.4059 115.921L67.4314 115.329L56.445 96.3002L55.4195 96.8922Z" fill="#23024D"/>
        <path d="M326.872 367.576L319.506 363.323L320.098 362.298L327.464 366.55L326.872 367.576Z" fill="#23024D"/>
        <path d="M294.338 348.791L313.367 359.778L313.959 358.752L294.93 347.766L294.338 348.791Z" fill="#23024D"/>
        <path d="M287.586 344.895L268.557 333.908L269.149 332.883L288.178 343.869L287.586 344.895Z" fill="#23024D"/>
        <path d="M192.566 400.7L191.099 395.223L192.242 394.916L193.71 400.393L192.566 400.7Z" fill="#23024D"/>
        <path d="M193.851 405.49L197.703 419.867L198.847 419.561L194.994 405.183L193.851 405.49Z" fill="#23024D"/>
        <path d="M202.84 439.04L198.987 424.663L200.131 424.356L203.983 438.734L202.84 439.04Z" fill="#23024D"/>
        <path d="M5.81912 182.465L10.7299 185.3L11.3219 184.275L6.41116 181.44L5.81912 182.465Z" fill="#23024D"/>
        <path d="M27.9175 195.224L15.0269 187.782L15.619 186.756L28.5096 194.199L27.9175 195.224Z" fill="#23024D"/>
        <path d="M32.2145 197.705L45.1051 205.148L45.6971 204.122L32.8065 196.68L32.2145 197.705Z" fill="#23024D"/>
        <path d="M237.215 411.31L248.202 430.339L249.227 429.747L238.241 410.718L237.215 411.31Z" fill="#23024D"/>
        <path d="M233.317 404.56L222.331 385.531L223.356 384.939L234.343 403.968L233.317 404.56Z" fill="#23024D"/>
        <path d="M48.2298 160.785L63.7669 176.322L64.6042 175.485L49.067 159.947L48.2298 160.785Z" fill="#23024D"/>
        <path d="M42.7173 155.269L27.1801 139.731L28.0174 138.894L43.5545 154.431L42.7173 155.269Z" fill="#23024D"/>
        <path d="M260.773 373.325L252.754 365.306L253.591 364.469L261.61 372.488L260.773 373.325Z" fill="#23024D"/>
        <path d="M267.789 380.345L289.341 401.897L290.178 401.06L268.627 379.508L267.789 380.345Z" fill="#23024D"/>
        <path d="M310.322 423.121L296.859 409.41L297.697 408.572L311.159 422.284L310.322 423.121Z" fill="#23024D"/>
        <path d="M-54.8057 213.403L-43.8512 216.338L-43.5448 215.194L-54.4992 212.259L-54.8057 213.403Z" fill="#23024D"/>
        <path d="M-4.82599 226.792L-34.2659 218.903L-33.9594 217.76L-4.51954 225.648L-4.82599 226.792Z" fill="#23024D"/>
        <path d="M5.44329 229.543L34.1986 237.248L34.5051 236.104L5.74975 228.399L5.44329 229.543Z" fill="#23024D"/>
        <path d="M110.625 96.7744L123.283 144.015L124.426 143.709L111.768 96.468L110.625 96.7744Z" fill="#23024D"/>
        <path d="M331.434 316.808L284.194 304.15L284.5 303.006L331.741 315.664L331.434 316.808Z" fill="#23024D"/>
        <path d="M161.373 -31.1525L161.373 -42L162.557 -42L162.557 -31.1525L161.373 -31.1525Z" fill="#000636"/>
        <path d="M161.373 18.7451L161.373 -20.3059L162.557 -20.3059L162.557 18.7451L161.373 18.7451Z" fill="#000636"/>
        <path d="M161.373 490.612L161.373 31.763L162.557 31.763L162.557 490.612L161.373 490.612Z" fill="#000636"/>
        <path d="M161.373 554.613L161.373 515.562L162.557 515.562L162.557 554.613L161.373 554.613Z" fill="#000636"/>
        <path d="M161.373 576.307L161.373 565.46L162.557 565.46L162.557 576.307L161.373 576.307Z" fill="#000636"/>
        <path d="M514.441 263.637L499.802 263.637L499.802 262.453L514.441 262.453L514.441 263.637Z" fill="#000636"/>
        <path d="M485.163 263.637L432.461 263.637L432.461 262.453L485.163 262.453L485.163 263.637Z" fill="#000636"/>
        <path d="M398.79 263.637L-220.453 263.637L-220.453 262.453L398.79 262.453L398.79 263.637Z" fill="#000636"/>
        <path d="M-238.02 263.637L-290.721 263.637L-290.721 262.453L-238.02 262.453L-238.02 263.637Z" fill="#000636"/>
        <path d="M-305.361 263.637L-320 263.637L-320 262.453L-305.361 262.453L-305.361 263.637Z" fill="#000636"/>
        <path fill-rule="evenodd" clip-rule="evenodd" d="M293.858 260.626C293.872 261.431 293.879 262.238 293.879 263.046C293.879 263.854 293.872 264.661 293.858 265.466L292.674 265.445C292.688 264.647 292.695 263.847 292.695 263.046C292.695 262.245 292.688 261.445 292.674 260.647L293.858 260.626ZM293.747 269.076C293.676 270.69 293.577 272.296 293.45 273.894L292.27 273.8C292.396 272.216 292.494 270.624 292.564 269.025L293.747 269.076ZM293.45 252.198C293.577 253.796 293.676 255.402 293.747 257.016L292.564 257.068C292.494 255.468 292.396 253.876 292.27 252.292L293.45 252.198ZM293.117 277.489C292.947 279.094 292.749 280.69 292.523 282.277L291.351 282.11C291.574 280.537 291.771 278.955 291.94 277.365L293.117 277.489ZM292.523 243.815C292.749 245.402 292.947 246.998 293.117 248.603L291.94 248.728C291.771 247.137 291.574 245.555 291.351 243.982L292.523 243.815ZM291.965 285.852C291.696 287.44 291.398 289.019 291.074 290.587L289.915 290.347C290.236 288.793 290.531 287.228 290.798 285.654L291.965 285.852ZM291.074 235.505C291.398 237.074 291.696 238.652 291.965 240.24L290.798 240.438C290.531 238.864 290.236 237.299 289.915 235.745L291.074 235.505ZM289.106 227.296C289.528 228.843 289.924 230.401 290.293 231.969L289.14 232.24C288.775 230.685 288.383 229.141 287.964 227.608L289.106 227.296ZM290.293 294.123C289.924 295.691 289.528 297.249 289.106 298.796L287.964 298.484C288.383 296.951 288.775 295.407 289.14 293.852L290.293 294.123ZM286.626 219.23C287.146 220.749 287.639 222.28 288.106 223.822L286.973 224.165C286.51 222.636 286.021 221.119 285.506 219.614L286.626 219.23ZM288.106 302.27C287.639 303.812 287.146 305.343 286.626 306.862L285.506 306.479C286.021 304.973 286.51 303.456 286.972 301.927L288.106 302.27ZM283.645 211.339C284.259 212.821 284.847 214.317 285.41 215.826L284.3 216.24C283.743 214.744 283.16 213.261 282.551 211.792L283.645 211.339ZM285.41 310.266C284.847 311.775 284.259 313.271 283.645 314.754L282.551 314.301C283.16 312.831 283.743 311.348 284.3 309.852L285.41 310.266ZM280.173 203.647C280.879 205.089 281.56 206.544 282.215 208.014L281.134 208.497C280.484 207.04 279.809 205.597 279.109 204.168L280.173 203.647ZM282.215 318.078C281.56 319.548 280.879 321.003 280.173 322.445L279.109 321.924C279.809 320.495 280.484 319.052 281.134 317.596L282.215 318.078ZM276.224 196.189C277.02 197.584 277.791 198.994 278.538 200.42L277.489 200.97C276.749 199.556 275.984 198.158 275.196 196.775L276.224 196.189ZM278.538 325.672C277.791 327.098 277.02 328.508 276.224 329.903L275.196 329.317C275.984 327.934 276.749 326.536 277.489 325.122L278.538 325.672ZM271.818 188.994C272.699 190.337 273.557 191.697 274.392 193.073L273.379 193.687C272.552 192.323 271.702 190.975 270.828 189.643L271.818 188.994ZM274.392 333.019C273.557 334.395 272.699 335.755 271.818 337.099L270.828 336.449C271.701 335.117 272.552 333.769 273.379 332.405L274.392 333.019ZM266.97 182.088C267.933 183.373 268.874 184.676 269.793 185.997L268.82 186.673C267.91 185.364 266.977 184.072 266.022 182.798L266.97 182.088ZM269.793 340.095C268.874 341.416 267.933 342.719 266.97 344.004L266.022 343.294C266.977 342.02 267.91 340.728 268.82 339.419L269.793 340.095ZM261.699 175.497C262.741 176.72 263.762 177.962 264.761 179.223L263.833 179.958C262.843 178.709 261.831 177.478 260.798 176.265L261.699 175.497ZM264.761 346.869C263.762 348.13 262.741 349.372 261.699 350.595L260.798 349.827C261.831 348.614 262.843 347.383 263.833 346.134L264.761 346.869ZM256.028 169.249C257.145 170.405 258.242 171.581 259.317 172.777L258.437 173.568C257.371 172.383 256.284 171.218 255.177 170.072L256.028 169.249ZM259.317 353.315C258.242 354.511 257.145 355.687 256.028 356.843L255.177 356.02C256.284 354.874 257.371 353.709 258.437 352.524L259.317 353.315ZM249.979 163.367C251.166 164.451 252.333 165.556 253.481 166.682L252.652 167.527C251.514 166.411 250.357 165.316 249.18 164.241L249.979 163.367ZM253.481 359.41C252.333 360.536 251.166 361.641 249.979 362.725L249.18 361.851C250.357 360.776 251.514 359.681 252.652 358.565L253.481 359.41ZM243.574 157.874C244.826 158.882 246.061 159.912 247.276 160.964L246.501 161.859C245.296 160.817 244.073 159.796 242.831 158.796L243.574 157.874ZM247.276 365.128C246.061 366.18 244.826 367.21 243.574 368.218L242.831 367.296C244.073 366.297 245.296 365.275 246.501 364.233L247.276 365.128ZM236.837 152.793C238.15 153.72 239.447 154.671 240.725 155.644L240.008 156.586C238.741 155.622 237.456 154.679 236.154 153.76L236.837 152.793ZM240.725 370.448C239.447 371.421 238.15 372.372 236.837 373.299L236.154 372.332C237.456 371.413 238.741 370.47 240.008 369.506L240.725 370.448ZM229.793 148.144C231.163 148.988 232.517 149.855 233.854 150.746L233.198 151.732C231.872 150.848 230.531 149.988 229.173 149.152L229.793 148.144ZM233.854 375.346C232.517 376.237 231.163 377.104 229.793 377.948L229.173 376.94C230.531 376.104 231.872 375.244 233.198 374.361L233.854 375.346ZM222.473 143.949C223.893 144.705 225.299 145.485 226.689 146.29L226.096 147.315C224.718 146.517 223.325 145.744 221.917 144.995L222.473 143.949ZM226.689 379.802C225.299 380.607 223.893 381.387 222.473 382.143L221.917 381.097C223.325 380.349 224.718 379.575 226.096 378.777L226.689 379.802ZM214.901 140.226C216.367 140.89 217.819 141.579 219.256 142.294L218.729 143.355C217.304 142.646 215.865 141.962 214.412 141.304L214.901 140.226ZM219.256 383.798C217.819 384.513 216.367 385.202 214.901 385.866L214.412 384.788C215.865 384.13 217.304 383.446 218.729 382.737L219.256 383.798ZM207.106 136.989C208.612 137.559 210.105 138.155 211.584 138.777L211.125 139.869C209.659 139.252 208.18 138.661 206.687 138.097L207.106 136.989ZM211.584 387.315C210.105 387.937 208.612 388.533 207.106 389.103L206.687 387.995C208.18 387.431 209.659 386.84 211.125 386.223L211.584 387.315ZM199.122 134.255C200.662 134.728 202.191 135.229 203.708 135.756L203.319 136.874C201.816 136.352 200.301 135.856 198.774 135.387L199.122 134.255ZM203.708 390.336C202.191 390.863 200.662 391.364 199.122 391.837L198.774 390.705C200.301 390.236 201.816 389.74 203.319 389.218L203.708 390.336ZM190.983 132.036C192.551 132.41 194.107 132.812 195.653 133.241L195.336 134.382C193.804 133.957 192.262 133.559 190.708 133.188L190.983 132.036ZM195.653 392.851C194.107 393.28 192.551 393.682 190.983 394.056L190.708 392.904C192.262 392.533 193.804 392.135 195.336 391.71L195.653 392.851ZM182.718 130.339C184.305 130.613 185.883 130.915 187.45 131.244L187.207 132.403C185.653 132.076 184.09 131.777 182.516 131.506L182.718 130.339ZM187.45 394.848C185.883 395.177 184.305 395.479 182.718 395.753L182.516 394.586C184.09 394.315 185.653 394.016 187.207 393.689L187.45 394.848ZM174.357 129.17C175.961 129.343 177.557 129.544 179.143 129.773L178.974 130.945C177.401 130.718 175.82 130.518 174.23 130.347L174.357 129.17ZM179.143 396.319C177.556 396.548 175.961 396.749 174.357 396.922L174.23 395.745C175.82 395.574 177.401 395.374 178.974 395.147L179.143 396.319ZM165.944 128.53C167.557 128.602 169.163 128.703 170.761 128.831L170.666 130.012C169.082 129.884 167.49 129.784 165.891 129.713L165.944 128.53ZM170.761 397.261C169.163 397.389 167.557 397.49 165.944 397.562L165.891 396.379C167.49 396.308 169.082 396.208 170.666 396.08L170.761 397.261ZM159.913 128.396C160.721 128.396 161.528 128.403 162.333 128.418L162.312 129.602C161.514 129.587 160.714 129.58 159.913 129.58C159.112 129.58 158.312 129.587 157.514 129.602L157.493 128.418C158.298 128.403 159.105 128.396 159.913 128.396ZM162.333 397.674C161.528 397.689 160.721 397.696 159.913 397.696C159.105 397.696 158.298 397.689 157.493 397.674L157.514 396.49C158.312 396.505 159.112 396.512 159.913 396.512C160.714 396.512 161.514 396.505 162.312 396.49L162.333 397.674ZM149.065 128.831C150.663 128.703 152.269 128.602 153.882 128.53L153.935 129.713C152.336 129.784 150.744 129.884 149.16 130.012L149.065 128.831ZM153.882 397.562C152.269 397.49 150.663 397.389 149.065 397.261L149.16 396.08C150.744 396.208 152.336 396.308 153.935 396.379L153.882 397.562ZM140.683 129.773C142.27 129.544 143.865 129.343 145.469 129.17L145.596 130.347C144.006 130.518 142.425 130.718 140.852 130.945L140.683 129.773ZM145.469 396.922C143.865 396.749 142.27 396.548 140.683 396.319L140.852 395.147C142.425 395.374 144.006 395.574 145.596 395.745L145.469 396.922ZM132.376 131.244C133.944 130.915 135.521 130.613 137.109 130.339L137.31 131.506C135.737 131.777 134.173 132.076 132.619 132.403L132.376 131.244ZM137.109 395.753C135.521 395.479 133.944 395.177 132.376 394.848L132.619 393.689C134.173 394.016 135.737 394.315 137.31 394.586L137.109 395.753ZM124.174 133.241C125.719 132.812 127.276 132.41 128.843 132.036L129.118 133.188C127.564 133.559 126.022 133.957 124.49 134.382L124.174 133.241ZM128.843 394.056C127.276 393.682 125.719 393.28 124.174 392.851L124.49 391.71C126.022 392.135 127.564 392.533 129.118 392.904L128.843 394.056ZM116.118 135.756C117.635 135.229 119.164 134.728 120.704 134.255L121.052 135.387C119.525 135.856 118.01 136.352 116.507 136.874L116.118 135.756ZM120.704 391.837C119.164 391.364 117.635 390.863 116.118 390.336L116.507 389.218C118.01 389.74 119.525 390.236 121.052 390.705L120.704 391.837ZM108.242 138.777C109.721 138.155 111.214 137.559 112.72 136.989L113.139 138.097C111.647 138.661 110.167 139.252 108.701 139.869L108.242 138.777ZM112.72 389.103C111.214 388.533 109.721 387.937 108.242 387.315L108.701 386.223C110.167 386.84 111.647 387.431 113.139 387.995L112.72 389.103ZM100.57 142.294C102.007 141.579 103.459 140.89 104.925 140.226L105.414 141.304C103.961 141.962 102.522 142.646 101.097 143.355L100.57 142.294ZM104.925 385.866C103.459 385.202 102.007 384.513 100.57 383.798L101.097 382.737C102.522 383.446 103.961 384.13 105.414 384.788L104.925 385.866ZM93.1369 146.29C94.5269 145.485 95.9327 144.705 97.3536 143.949L97.9096 144.995C96.5013 145.743 95.108 146.517 93.7302 147.315L93.1369 146.29ZM97.3536 382.143C95.9327 381.387 94.5269 380.607 93.1369 379.802L93.7302 378.777C95.1079 379.575 96.5012 380.349 97.9095 381.097L97.3536 382.143ZM85.9719 150.746C87.3089 149.855 88.6627 148.988 90.0327 148.144L90.6535 149.152C89.2956 149.988 87.9538 150.848 86.6286 151.732L85.9719 150.746ZM90.0327 377.948C88.6627 377.104 87.3089 376.237 85.9719 375.346L86.6286 374.36C87.9538 375.244 89.2956 376.104 90.6535 376.94L90.0327 377.948ZM79.101 155.644C80.3794 154.671 81.6757 153.72 82.9893 152.793L83.6723 153.76C82.3703 154.679 81.0854 155.622 79.8183 156.586L79.101 155.644ZM82.9893 373.299C81.6757 372.372 80.3794 371.421 79.101 370.448L79.8182 369.506C81.0854 370.47 82.3702 371.413 83.6723 372.332L82.9893 373.299ZM72.5503 160.964C73.7656 159.912 74.9999 158.882 76.2526 157.874L76.9949 158.796C75.7532 159.796 74.5298 160.817 73.3251 161.859L72.5503 160.964ZM76.2526 368.218C74.9999 367.21 73.7656 366.18 72.5503 365.128L73.3251 364.233C74.5297 365.275 75.7532 366.296 76.9949 367.296L76.2526 368.218ZM66.3453 166.682C67.4928 165.556 68.6604 164.451 69.8474 163.367L70.6459 164.241C69.4694 165.316 68.312 166.411 67.1745 167.527L66.3453 166.682ZM69.8474 362.725C68.6604 361.641 67.4928 360.536 66.3453 359.41L67.1745 358.565C68.312 359.681 69.4693 360.776 70.6459 361.851L69.8474 362.725ZM60.5092 172.777C61.5845 171.581 62.6809 170.405 63.7977 169.249L64.6493 170.072C63.5422 171.218 62.4555 172.383 61.3896 173.568L60.5092 172.777ZM63.7977 356.843C62.6809 355.687 61.5845 354.511 60.5092 353.315L61.3896 352.524C62.4555 353.709 63.5422 354.874 64.6493 356.02L63.7977 356.843ZM55.0652 179.223C56.0639 177.962 57.0847 176.72 58.127 175.497L59.0282 176.265C57.9951 177.478 56.9832 178.709 55.9932 179.958L55.0652 179.223ZM58.127 350.595C57.0847 349.372 56.0639 348.13 55.0652 346.869L55.9932 346.134C56.9832 347.383 57.9951 348.614 59.0282 349.827L58.127 350.595ZM50.0336 185.997C50.9519 184.676 51.893 183.373 52.8566 182.088L53.804 182.798C52.8488 184.072 51.9159 185.364 51.0058 186.673L50.0336 185.997ZM52.8566 344.004C51.893 342.719 50.9518 341.416 50.0336 340.095L51.0058 339.419C51.9159 340.728 52.8488 342.02 53.8039 343.294L52.8566 344.004ZM45.4343 193.073C46.2688 191.697 47.127 190.337 48.0086 188.994L48.9985 189.643C48.1247 190.975 47.2739 192.323 46.4468 193.687L45.4343 193.073ZM48.0086 337.098C47.127 335.755 46.2687 334.395 45.4343 333.019L46.4468 332.405C47.2739 333.769 48.1246 335.117 48.9985 336.449L48.0086 337.098ZM41.2883 200.42C42.035 198.994 42.8063 197.584 43.6017 196.189L44.6304 196.775C43.8419 198.158 43.0773 199.556 42.3373 200.97L41.2883 200.42ZM43.6017 329.903C42.8063 328.508 42.0349 327.098 41.2883 325.672L42.3373 325.122C43.0773 326.536 43.8419 327.934 44.6303 329.317L43.6017 329.903ZM37.6107 208.014C38.2663 206.544 38.9474 205.089 39.6534 203.647L40.7167 204.168C40.017 205.597 39.3419 207.04 38.692 208.496L37.6107 208.014ZM39.6534 322.445C38.9474 321.003 38.2663 319.548 37.6106 318.078L38.692 317.596C39.3419 319.052 40.017 320.495 40.7167 321.924L39.6534 322.445ZM34.4164 215.826C34.9787 214.317 35.5671 212.821 36.1811 211.338L37.2751 211.792C36.6665 213.261 36.0832 214.744 35.526 216.24L34.4164 215.826ZM36.1811 314.754C35.5671 313.271 34.9787 311.775 34.4164 310.266L35.526 309.852C36.0832 311.348 36.6665 312.831 37.2751 314.3L36.1811 314.754ZM31.7203 223.822C32.1869 222.28 32.6803 220.749 33.2 219.23L34.3203 219.614C33.8052 221.119 33.3162 222.636 32.8537 224.165L31.7203 223.822ZM33.2 306.862C32.6803 305.343 32.1869 303.812 31.7203 302.27L32.8537 301.927C33.3162 303.456 33.8052 304.973 34.3203 306.479L33.2 306.862ZM29.5331 231.969C29.9017 230.401 30.2977 228.843 30.7204 227.296L31.8626 227.608C31.4436 229.141 31.0511 230.685 30.6857 232.24L29.5331 231.969ZM30.7204 298.796C30.2977 297.249 29.9017 295.691 29.5331 294.123L30.6857 293.852C31.0511 295.407 31.4436 296.951 31.8626 298.484L30.7204 298.796ZM27.861 240.24C28.1305 238.652 28.4277 237.074 28.752 235.505L29.9116 235.745C29.5901 237.299 29.2955 238.864 29.0283 240.438L27.861 240.24ZM28.752 290.587C28.4277 289.019 28.1305 287.44 27.861 285.852L29.0283 285.654C29.2955 287.228 29.5901 288.793 29.9116 290.347L28.752 290.587ZM26.709 248.603C26.8792 246.998 27.0775 245.402 27.3033 243.815L28.4756 243.982C28.2518 245.555 28.0552 247.137 27.8865 248.728L26.709 248.603ZM27.3033 282.277C27.0775 280.69 26.8792 279.094 26.709 277.489L27.8865 277.365C28.0552 278.955 28.2518 280.537 28.4756 282.11L27.3033 282.277ZM26.0792 257.016C26.15 255.402 26.249 253.796 26.3757 252.198L27.5561 252.292C27.4304 253.876 27.3323 255.468 27.2621 257.068L26.0792 257.016ZM26.3757 273.894C26.249 272.296 26.15 270.69 26.0792 269.076L27.2621 269.025C27.3323 270.624 27.4304 272.216 27.5561 273.8L26.3757 273.894ZM25.9473 263.046C25.9473 262.238 25.9543 261.431 25.9685 260.626L27.1523 260.647C27.1384 261.445 27.1313 262.245 27.1313 263.046C27.1313 263.847 27.1384 264.647 27.1523 265.445L25.9685 265.466C25.9543 264.661 25.9473 263.854 25.9473 263.046Z" fill="#23024D"/>
        <path d="M75.1002 178.828C121.231 178.828 158.636 216.53 158.636 263.048C158.636 309.566 121.231 347.268 75.1002 347.268C28.969 347.268 -8.43584 309.566 -8.43584 263.048C-8.4359 262.259 -8.42514 261.473 -8.40375 260.689L-9.58739 260.657C-9.60907 261.451 -9.61998 262.248 -9.61991 263.048C-9.61991 310.211 28.3061 348.452 75.1002 348.452C121.894 348.452 159.82 310.211 159.82 263.048C159.82 215.885 121.894 177.644 75.1002 177.644L75.1002 178.828Z" fill="#23024D"/>
        <path d="M75.1002 177.644C74.3003 177.644 73.5028 177.655 72.7082 177.678L72.7412 178.861C73.5249 178.839 74.3113 178.828 75.1002 178.828L75.1002 177.644Z" fill="#23024D"/>
        <path d="M69.1341 177.853C67.5386 177.965 65.9552 178.121 64.3852 178.321L64.5346 179.495C66.0826 179.298 67.6438 179.144 69.217 179.034L69.1341 177.853Z" fill="#23024D"/>
        <path d="M60.8458 178.848C59.2707 179.117 57.7104 179.43 56.1662 179.785L56.4317 180.939C57.9541 180.589 59.4923 180.28 61.0451 180.015L60.8458 178.848Z" fill="#23024D"/>
        <path d="M52.6966 180.662C51.1577 181.087 49.6364 181.553 48.1338 182.062L48.5132 183.183C49.9944 182.682 51.4943 182.222 53.0113 181.804L52.6966 180.662Z" fill="#23024D"/>
        <path d="M44.7688 183.281C43.2813 183.856 41.8141 184.472 40.3683 185.128L40.8575 186.206C42.2829 185.56 43.7294 184.952 45.1958 184.385L44.7688 183.281Z" fill="#23024D"/>
        <path d="M37.1413 186.676C35.7195 187.395 34.3206 188.154 32.946 188.95L33.5396 189.975C34.8949 189.189 36.2742 188.441 37.6759 187.732L37.1413 186.676Z" fill="#23024D"/>
        <path d="M29.8879 190.809C28.5451 191.665 27.2279 192.558 25.9376 193.486L26.6291 194.448C27.9014 193.532 29.2003 192.652 30.5243 191.808L29.8879 190.809Z" fill="#23024D"/>
        <path d="M23.077 195.637C21.8255 196.62 20.6021 197.638 19.4082 198.688L20.1905 199.577C21.3678 198.541 22.5743 197.538 23.8084 196.568L23.077 195.637Z" fill="#23024D"/>
        <path d="M16.7717 201.109C15.6228 202.208 14.5045 203.34 13.4182 204.503L14.2834 205.311C15.3547 204.165 16.4575 203.048 17.5905 201.964L16.7717 201.109Z" fill="#23024D"/>
        <path d="M11.03 207.168C9.99422 208.374 8.99133 209.61 8.02281 210.873L8.96254 211.593C9.91769 210.347 10.9067 209.129 11.9282 207.94L11.03 207.168Z" fill="#23024D"/>
        <path d="M5.90541 213.758C4.99231 215.058 4.11436 216.386 3.27298 217.738L4.27841 218.364C5.10815 217.03 5.97395 215.721 6.8744 214.439L5.90541 213.758Z" fill="#23024D"/>
        <path d="M1.44671 220.816C0.665113 222.198 -0.0793172 223.604 -0.785174 225.034L0.276472 225.558C0.972532 224.149 1.70666 222.762 2.47742 221.399L1.44671 220.816Z" fill="#23024D"/>
        <path d="M-2.30223 228.275C-2.9447 229.726 -3.54817 231.198 -4.11135 232.69L-3.00353 233.109C-2.44818 231.637 -1.85308 230.185 -1.21956 228.754L-2.30223 228.275Z" fill="#23024D"/>
        <path d="M-5.30408 236.064C-5.80112 237.57 -6.25769 239.094 -6.67252 240.636L-5.5291 240.944C-5.12004 239.423 -4.66982 237.92 -4.17971 236.435L-5.30408 236.064Z" fill="#23024D"/>
        <path d="M-7.52957 244.11C-7.8767 245.655 -8.18225 247.217 -8.44498 248.793L-7.27703 248.988C-7.01793 247.433 -6.7166 245.893 -6.37426 244.369L-7.52957 244.11Z" fill="#23024D"/>
        <path d="M-8.95961 252.334C-9.15461 253.904 -9.3073 255.487 -9.41651 257.083L-8.23522 257.164C-8.12748 255.59 -7.97689 254.028 -7.78458 252.48L-8.95961 252.334Z" fill="#23024D"/>
        <path fill-rule="evenodd" clip-rule="evenodd" d="M162.557 263.048C162.557 309.566 199.962 347.268 246.093 347.268L246.093 348.452C199.299 348.452 161.373 310.211 161.373 263.048C161.373 215.885 199.299 177.644 246.093 177.644C292.887 177.644 330.813 215.885 330.813 263.048L329.629 263.048C329.629 216.53 292.224 178.828 246.093 178.828C199.962 178.828 162.557 216.53 162.557 263.048Z" fill="#23024D"/>
        <path fill-rule="evenodd" clip-rule="evenodd" d="M248.485 348.419C247.69 348.441 246.893 348.452 246.093 348.452L246.093 347.268C246.882 347.268 247.668 347.257 248.452 347.235L248.485 348.419ZM256.808 347.776C255.238 347.976 253.655 348.132 252.059 348.244L251.976 347.063C253.549 346.952 255.111 346.798 256.659 346.601L256.808 347.776ZM265.027 346.311C263.483 346.667 261.923 346.98 260.347 347.249L260.148 346.081C261.701 345.816 263.239 345.508 264.761 345.157L265.027 346.311ZM273.059 344.035C271.557 344.543 270.035 345.01 268.497 345.434L268.182 344.293C269.699 343.874 271.199 343.414 272.68 342.913L273.059 344.035ZM280.825 340.969C279.379 341.625 277.912 342.241 276.424 342.816L275.997 341.711C277.464 341.144 278.91 340.537 280.336 339.89L280.825 340.969ZM288.247 337.146C286.873 337.943 285.474 338.701 284.052 339.421L283.517 338.364C284.919 337.655 286.298 336.907 287.654 336.122L288.247 337.146ZM295.256 332.61C293.965 333.538 292.648 334.431 291.305 335.287L290.669 334.289C291.993 333.445 293.292 332.564 294.564 331.649L295.256 332.61ZM301.785 327.408C300.591 328.459 299.368 329.476 298.116 330.459L297.385 329.528C298.619 328.559 299.825 327.555 301.003 326.519L301.785 327.408ZM307.775 321.594C306.689 322.756 305.57 323.888 304.421 324.988L303.603 324.133C304.736 323.048 305.839 321.932 306.91 320.785L307.775 321.594ZM313.17 315.223C312.202 316.487 311.199 317.722 310.163 318.928L309.265 318.157C310.287 316.967 311.276 315.749 312.231 314.503L313.17 315.223ZM317.92 308.358C317.079 309.711 316.201 311.038 315.288 312.338L314.319 311.658C315.219 310.376 316.085 309.067 316.915 307.733L317.92 308.358ZM321.978 301.063C321.273 302.492 320.528 303.899 319.747 305.281L318.716 304.698C319.487 303.335 320.221 301.948 320.917 300.539L321.978 301.063ZM325.305 293.406C324.741 294.898 324.138 296.371 323.495 297.822L322.413 297.343C323.046 295.912 323.641 294.46 324.197 292.988L325.305 293.406ZM327.866 285.461C327.451 287.002 326.994 288.527 326.497 290.032L325.373 289.661C325.863 288.176 326.313 286.673 326.722 285.153L327.866 285.461ZM329.638 277.303C329.375 278.88 329.07 280.441 328.723 281.987L327.567 281.727C327.91 280.203 328.211 278.663 328.47 277.109L329.638 277.303ZM330.61 269.014C330.501 270.609 330.348 272.193 330.153 273.763L328.978 273.617C329.17 272.068 329.321 270.506 329.428 268.933L330.61 269.014ZM330.813 263.048C330.813 263.848 330.802 264.645 330.781 265.44L329.597 265.408C329.618 264.624 329.629 263.837 329.629 263.048L330.813 263.048Z" fill="#23024D"/>
    </g>
    <ellipse cx="71.7816" cy="229.154" rx="52.4309" ry="21.8197" transform="rotate(110.95 71.7816 229.154)" fill="white" stroke="#25134D" stroke-miterlimit="10"/>
    <path d="M281.859 309.671C287.666 295.108 317.49 252.739 317.49 252.739C317.49 252.739 265.617 267.641 250.786 234.409C239.156 213.899 228.643 199.951 202.781 190.049C164.999 175.584 125.353 181.583 100.229 202.504C100.229 202.504 94.3372 208.403 89.0803 203.226C83.9801 198.204 87.4378 188.142 87.7111 187.542L87.7256 187.509C80.7143 191.815 69.803 207.067 62.6806 225.67L62.6238 225.818C55.5015 244.421 53.4728 265.626 55.8162 273.513L55.827 273.479C56.0243 272.85 60.1343 260.486 67.2846 260.154C74.6543 259.812 75.1003 268.137 75.1003 268.137C79.8284 300.488 105.331 331.43 143.112 345.895C168.974 355.797 186.114 352.436 208.468 344.938C241.7 330.108 270.358 375.843 270.358 375.843C270.358 375.843 276.456 324.389 281.859 309.671Z" fill="white"/>
    <path fill-rule="evenodd" clip-rule="evenodd" d="M136.143 253.918L131.967 240.888L119.026 245.041L117.195 239.383L135.814 233.407L139.991 246.439L160.539 239.85L164.073 250.877L177.272 246.645L179.101 252.303L160.225 258.356L156.691 247.329L136.143 253.918Z" fill="#26144E"/>
    <path fill-rule="evenodd" clip-rule="evenodd" d="M128.679 268.425L124.503 255.394L111.562 259.548L109.731 253.89L128.351 247.914L132.527 260.946L153.075 254.357L156.609 265.383L169.808 261.152L171.637 266.81L152.761 272.863L149.227 261.836L128.679 268.425Z" fill="#26144E"/>
    <path d="M50.8013 266.77C50.4333 265.788 50.1288 264.705 49.8877 263.531M49.3644 259.858C49.2277 258.303 49.1761 256.637 49.2096 254.878C49.378 246.032 51.6966 234.808 56.1523 223.17C59.8909 213.405 64.5551 204.862 69.3753 198.409M76.8102 190.249C74.9915 191.802 73.1383 193.722 71.293 195.962" stroke="#25134D" stroke-miterlimit="10"/>
    <path d="M62.4214 261.978C63.7527 260.962 65.363 260.243 67.2846 260.154C74.6543 259.812 75.1003 268.137 75.1003 268.137C79.8284 300.488 105.331 331.43 143.112 345.895C168.974 355.797 186.114 352.436 208.468 344.938C241.7 330.108 270.358 375.843 270.358 375.843C270.358 375.843 276.456 324.389 281.859 309.671C287.666 295.108 317.49 252.739 317.49 252.739C317.49 252.739 265.617 267.641 250.786 234.409C239.156 213.899 228.643 199.951 202.781 190.049C164.999 175.584 125.353 181.583 100.229 202.504C100.229 202.504 94.3372 208.403 89.0804 203.226C87.7953 201.961 87.0836 200.466 86.7423 198.929" stroke="#25134D" stroke-miterlimit="10"/>
    <path d="M87.2962 216.38C88.5354 214.63 89.8517 212.94 91.2402 211.312M74.349 255.429C74.364 254.833 74.3864 254.237 74.4163 253.641M74.7734 249.241C75.4282 243.422 76.8092 237.651 78.966 232.018L79.004 231.919L79.0418 231.82C80.3378 228.435 81.8753 225.201 83.6336 222.123" stroke="#25134D" stroke-miterlimit="10"/>
    <path d="M276.477 383.857C266.776 380.143 261.3 368.329 260.435 352.536C259.678 338.71 262.455 321.835 269.025 304.673C276.066 286.283 286.129 271.048 296.706 261.283C307.277 251.525 318.36 247.231 327.454 250.712C345.646 257.677 348.982 293.129 334.905 329.896C320.828 366.663 294.669 390.822 276.477 383.857Z" fill="white"/>
    <path d="M260.433 343.347C260.525 341.511 260.872 337.731 260.872 337.731M287.42 271.451C289.341 268.998 291.309 266.719 293.305 264.631M277.973 285.641C274.66 291.473 271.635 297.856 269.025 304.672C265.535 313.789 263.115 322.826 261.726 331.367" stroke="#25134D" stroke-miterlimit="10"/>
    <path opacity="0.3" d="M221.342 328.494C221.431 326.807 221.756 323.335 221.756 323.335M246.154 262.405C247.914 260.147 249.716 258.05 251.544 256.128M237.493 275.458C234.454 280.821 231.677 286.69 229.277 292.956C226.069 301.337 223.838 309.641 222.551 317.488" stroke="#25134D" stroke-miterlimit="10"/>
    <path opacity="0.3" d="M220.997 215.569C218.855 217.718 214.684 222.336 214.684 222.336M172.262 328.987C172.101 334.112 172.226 339.101 172.631 343.915M175.692 301.434C177.958 290.825 181.34 279.966 185.884 269.149C191.961 254.681 199.546 241.645 208.065 230.451" stroke="#25134D" stroke-miterlimit="10"/>
    <path opacity="0.1" d="M136.363 320.571C135.493 324.548 135.671 330.968 136.822 334.741" stroke="#25134D" stroke-miterlimit="10"/>
    <path opacity="0.1" d="M143.22 323.99C142.914 327.162 143.419 334.728 144.278 337.482" stroke="#25134D" stroke-miterlimit="10"/>
    <path opacity="0.1" d="M127.289 314.942C127.212 318.995 127.738 325.321 129.572 330.901" stroke="#25134D" stroke-miterlimit="10"/>
    <path opacity="0.1" d="M118.9 309.007C118.805 311.92 120.985 324.89 124.138 327.912" stroke="#25134D" stroke-miterlimit="10"/>
    <path opacity="0.1" d="M109.474 300.294C110.274 306.499 112.641 317.499 116.619 323.105" stroke="#25134D" stroke-miterlimit="10"/>
    <path opacity="0.1" d="M96.985 285.079C97.3116 289.854 103.718 311.928 106.866 315.629" stroke="#25134D" stroke-miterlimit="10"/>
    <path d="M296.706 261.283C307.277 251.525 318.36 247.231 327.454 250.712C345.646 257.677 348.982 293.129 334.905 329.896C320.828 366.663 294.669 390.822 276.477 383.857C266.776 380.143 261.3 368.329 260.435 352.536" stroke="#25134D" stroke-miterlimit="10"/>
    <ellipse cx="301.965" cy="317.284" rx="60.6927" ry="24.6796" transform="rotate(110.95 301.965 317.284)" fill="white" stroke="#25134D" stroke-miterlimit="10"/>
    <path fill-rule="evenodd" clip-rule="evenodd" d="M270.318 348.533C270.502 337.101 273.353 322.993 278.917 308.46C284.482 293.926 291.782 281.521 299.28 272.889C301.997 282.086 300.248 297.775 293.953 314.216C287.658 330.657 278.482 343.503 270.318 348.533Z" fill="#23024D"/>
    <path d="M270.318 348.533L269.818 348.525L269.804 349.438L270.58 348.959L270.318 348.533ZM299.28 272.889L299.759 272.748L299.501 271.873L298.902 272.562L299.28 272.889ZM270.818 348.541C271.001 337.179 273.836 323.129 279.384 308.638L278.451 308.281C272.87 322.858 270.003 337.024 269.818 348.525L270.818 348.541ZM279.384 308.638C284.932 294.148 292.205 281.797 299.657 273.217L298.902 272.562C291.359 281.246 284.032 293.704 278.451 308.281L279.384 308.638ZM298.8 273.031C301.471 282.072 299.766 297.637 293.486 314.038L294.42 314.395C300.73 297.914 302.522 282.099 299.759 272.748L298.8 273.031ZM293.486 314.038C287.207 330.438 278.082 343.162 270.056 348.108L270.58 348.959C278.882 343.844 288.11 330.877 294.42 314.395L293.486 314.038Z" fill="#25134D"/>
    <path d="M240.433 217.325C250.588 189.397 236.18 158.524 208.252 148.369C180.323 138.214 149.451 152.623 139.296 180.551C137.839 184.559 136.887 188.628 136.409 192.688C136.409 192.688 138.862 194.143 143.079 194.324C147.296 194.505 148.859 192.368 148.859 192.368C149.271 189.817 149.927 187.268 150.843 184.75C158.679 163.199 182.502 152.08 204.053 159.917C225.604 167.753 236.722 191.576 228.886 213.127C227.983 215.61 226.868 217.955 225.569 220.148C225.569 220.148 226.433 222.19 230.776 224.04C235.119 225.89 237.671 223.646 237.671 223.646C238.712 221.626 239.636 219.517 240.433 217.325Z" fill="white" stroke="#25134D" stroke-miterlimit="10"/>
    <mask id="mask0_1819_31729" style="mask-type:alpha" maskUnits="userSpaceOnUse" x="265" y="226" width="108" height="194">
        <ellipse cx="318.579" cy="322.897" rx="101.589" ry="41.3092" transform="rotate(110.95 318.579 322.897)" fill="white" stroke="#25134D" stroke-miterlimit="10"/>
    </mask>
    <g mask="url(#mask0_1819_31729)">
        <path d="M305.605 303.149L301.904 299.047C303.607 300.919 304.376 303.654 303.961 307.03C302.86 315.517 294.384 324.796 285.029 327.811C284.894 327.856 284.758 327.901 284.619 327.924C284.53 327.962 284.46 327.973 284.367 327.987C284.274 328.002 284.185 328.04 284.092 328.055C283.999 328.07 283.933 328.104 283.84 328.119C283.747 328.134 283.658 328.172 283.588 328.183C283.496 328.198 283.43 328.232 283.337 328.247C283.244 328.262 283.155 328.3 283.085 328.311C282.992 328.326 282.922 328.337 282.833 328.375C282.74 328.389 282.671 328.401 282.578 328.415C282.508 328.426 282.415 328.441 282.345 328.452C282.253 328.467 282.183 328.478 282.09 328.493C282.02 328.504 281.927 328.519 281.858 328.53C281.765 328.545 281.695 328.556 281.602 328.571C281.533 328.582 281.44 328.597 281.37 328.608C281.277 328.622 281.207 328.634 281.138 328.645C281.068 328.656 280.975 328.671 280.902 328.658C280.832 328.67 280.739 328.684 280.666 328.672C280.596 328.683 280.523 328.671 280.43 328.686C280.36 328.697 280.264 328.689 280.194 328.7C280.124 328.711 280.051 328.699 279.981 328.71C279.912 328.721 279.815 328.712 279.745 328.724C279.676 328.735 279.602 328.723 279.533 328.734C279.459 328.722 279.39 328.733 279.293 328.724C279.22 328.712 279.15 328.723 279.077 328.711C279.003 328.699 278.934 328.71 278.86 328.698C278.787 328.686 278.717 328.697 278.644 328.685C278.57 328.673 278.501 328.684 278.427 328.672C278.354 328.659 278.284 328.671 278.211 328.658C278.138 328.646 278.064 328.634 277.995 328.645C277.921 328.633 277.848 328.621 277.801 328.628C277.728 328.616 277.655 328.604 277.581 328.592C277.508 328.58 277.458 328.564 277.384 328.552C277.311 328.54 277.238 328.528 277.164 328.516C277.091 328.503 277.041 328.488 276.967 328.475C276.894 328.463 276.821 328.451 276.77 328.435C276.697 328.423 276.647 328.407 276.574 328.395C276.5 328.383 276.45 328.367 276.373 328.332C276.323 328.316 276.249 328.304 276.199 328.288C276.126 328.276 276.072 328.237 275.999 328.225C275.949 328.209 275.875 328.197 275.821 328.158C275.748 328.146 275.694 328.107 275.621 328.095C275.571 328.079 275.497 328.067 275.443 328.028C275.393 328.012 275.316 327.976 275.266 327.961C275.216 327.945 275.162 327.906 275.089 327.894C275.039 327.878 274.961 327.842 274.908 327.803C274.857 327.788 274.804 327.748 274.753 327.733C274.7 327.694 274.626 327.681 274.572 327.642C274.522 327.627 274.468 327.588 274.418 327.572C274.364 327.533 274.314 327.517 274.237 327.482C274.183 327.442 274.133 327.427 274.079 327.388C274.026 327.349 273.972 327.309 273.922 327.294C273.868 327.255 273.818 327.239 273.764 327.2C273.71 327.161 273.656 327.122 273.602 327.083C273.548 327.044 273.521 327.024 273.468 326.985C273.414 326.946 273.36 326.907 273.306 326.868C273.252 326.829 273.225 326.809 273.171 326.77C273.118 326.731 273.064 326.692 273.01 326.653C272.979 326.61 272.929 326.594 272.898 326.552C272.845 326.513 272.787 326.45 272.733 326.411C272.703 326.369 272.652 326.353 272.622 326.31C272.564 326.248 272.51 326.209 272.453 326.146C272.426 326.127 272.395 326.084 272.368 326.065C272.284 325.983 272.199 325.901 272.111 325.796L275.813 329.898C275.897 329.979 275.982 330.061 276.07 330.166C276.097 330.186 276.127 330.229 276.154 330.248C276.212 330.31 276.269 330.373 276.323 330.412C276.354 330.454 276.404 330.47 276.435 330.513C276.488 330.552 276.546 330.614 276.6 330.653C276.63 330.696 276.681 330.712 276.711 330.755C276.765 330.794 276.819 330.833 276.873 330.872C276.927 330.911 276.954 330.93 277.007 330.969C277.061 331.009 277.115 331.048 277.169 331.087C277.223 331.126 277.25 331.145 277.304 331.184C277.357 331.223 277.411 331.262 277.465 331.301C277.519 331.34 277.569 331.356 277.6 331.399C277.654 331.438 277.707 331.477 277.758 331.493C277.811 331.532 277.862 331.548 277.912 331.564C277.966 331.603 278.016 331.619 278.093 331.654C278.143 331.67 278.197 331.709 278.247 331.725C278.301 331.764 278.374 331.776 278.428 331.815C278.478 331.831 278.532 331.87 278.582 331.886C278.636 331.925 278.709 331.937 278.763 331.976C278.813 331.992 278.867 332.031 278.941 332.043C278.991 332.059 279.068 332.094 279.118 332.11C279.168 332.126 279.245 332.161 279.295 332.177C279.369 332.189 279.422 332.228 279.496 332.24C279.546 332.256 279.619 332.268 279.673 332.307C279.747 332.319 279.8 332.358 279.874 332.37C279.924 332.386 279.997 332.398 280.047 332.414C280.121 332.426 280.171 332.442 280.248 332.477C280.321 332.49 280.372 332.505 280.445 332.518C280.518 332.53 280.592 332.542 280.642 332.558C280.715 332.57 280.765 332.586 280.839 332.598C280.912 332.61 280.985 332.622 281.059 332.634C281.132 332.646 281.182 332.662 281.256 332.674C281.329 332.686 281.402 332.698 281.476 332.711C281.549 332.723 281.623 332.735 281.669 332.727C281.742 332.74 281.816 332.752 281.885 332.741C281.959 332.753 282.028 332.742 282.102 332.754C282.175 332.766 282.245 332.755 282.318 332.767C282.392 332.779 282.461 332.768 282.535 332.78C282.608 332.792 282.678 332.781 282.751 332.793C282.824 332.805 282.894 332.794 282.968 332.806C283.041 332.818 283.111 332.807 283.207 332.816C283.277 332.805 283.35 332.817 283.42 332.806C283.49 332.795 283.586 332.803 283.656 332.792C283.725 332.781 283.799 332.793 283.869 332.782C283.938 332.771 284.035 332.779 284.104 332.768C284.174 332.757 284.247 332.769 284.34 332.754C284.41 332.743 284.507 332.752 284.576 332.741C284.646 332.729 284.739 332.715 284.812 332.727C284.882 332.716 284.975 332.701 285.045 332.69C285.114 332.679 285.207 332.664 285.277 332.653C285.37 332.638 285.439 332.627 285.532 332.612C285.602 332.601 285.695 332.586 285.764 332.575C285.857 332.56 285.927 332.549 286.02 332.534C286.09 332.523 286.182 332.509 286.252 332.497C286.345 332.483 286.415 332.472 286.508 332.457C286.601 332.442 286.67 332.431 286.759 332.393C286.852 332.378 286.922 332.367 287.011 332.329C287.104 332.314 287.17 332.28 287.263 332.265C287.356 332.25 287.445 332.212 287.515 332.201C287.608 332.186 287.674 332.152 287.766 332.137C287.859 332.122 287.949 332.084 288.041 332.07C288.134 332.055 288.2 332.021 288.293 332.006C288.34 331.998 288.386 331.991 288.429 331.96C288.518 331.922 288.611 331.907 288.7 331.869C298.059 328.879 306.531 319.576 307.632 311.089C308.077 307.756 307.285 305.025 305.605 303.149Z" fill="#F8F8F9" stroke="#25134D" stroke-miterlimit="10"/>
        <path d="M295.335 321.641C303.547 314.244 306.476 304.109 301.878 299.004C297.279 293.899 286.894 295.758 278.683 303.156C270.471 310.553 267.541 320.688 272.14 325.793C276.738 330.898 287.123 329.039 295.335 321.641Z" fill="white" stroke="#25134D" stroke-miterlimit="10"/>
        <path d="M281.944 312.773L278.596 316.426L277.322 315.605L282.271 310.197L284.503 311.651L289.714 305.939L292.323 307.667L295.631 304.068L296.882 304.893L291.995 310.243L289.386 308.516L284.152 314.231L281.944 312.773Z" fill="#23024D"/>
        <path d="M291.753 312.164L295.038 308.569L296.288 309.393L291.425 314.74L288.793 313.016L283.583 318.728L281.351 317.273L278.007 320.949L276.733 320.128L281.702 314.693L283.914 316.175L289.124 310.463L291.753 312.164Z" fill="#23024D"/>
    </g>
    <path d="M552.058 311.236C563.843 310.081 561.427 322.302 546.692 338.49C531.956 354.679 510.47 368.718 498.701 369.826C486.916 370.981 489.332 358.76 504.067 342.572C518.786 326.431 540.273 312.392 552.058 311.236Z" fill="white" stroke="#25134D" stroke-miterlimit="10"/>
    <path d="M520.946 338.722L512.486 344.223L512.888 341.955L525.416 333.781L524.633 337.791L537.884 329.223L536.967 333.936L545.298 328.497L544.832 330.797L532.449 338.86L533.382 334.099L520.162 342.732L520.946 338.722Z" fill="#23024D"/>
    <path d="M529.109 342.528L537.423 337.137L537.021 339.406L524.638 347.469L525.571 342.708L512.351 351.34L513.087 347.314L504.628 352.816L505.077 350.563L517.606 342.389L516.822 346.399L530.026 337.815L529.109 342.528Z" fill="#23024D"/>
    <path d="M558.362 313.285L567.619 324.366C570.836 328.247 566.648 337.99 555.834 349.905C541.099 366.094 519.612 380.133 507.844 381.241C504.737 381.568 502.614 380.896 501.425 379.526L492.12 368.429C493.293 369.846 495.384 370.455 498.539 370.144C510.324 368.988 531.81 354.949 546.529 338.808C557.391 326.909 561.579 317.166 558.362 313.285Z" fill="white"/>
    <path d="M558.362 313.285L567.619 324.366C570.836 328.247 566.648 337.99 555.834 349.905C541.099 366.094 519.613 380.133 507.844 381.241C504.737 381.568 502.614 380.896 501.425 379.526L492.12 368.429C493.293 369.846 495.384 370.455 498.539 370.144C510.324 368.988 531.81 354.949 546.529 338.808C557.391 326.909 561.579 317.166 558.362 313.285Z" stroke="#25134D" stroke-miterlimit="10"/>
    <path d="M519.842 512.178C519.919 512.138 519.995 512.098 520.099 512.054C520.33 511.934 520.56 511.814 520.79 511.694C520.894 511.65 521.021 511.574 521.125 511.53C521.328 511.414 521.536 511.326 521.766 511.206C521.87 511.162 521.996 511.086 522.1 511.042C522.331 510.922 522.565 510.829 522.8 510.736C522.877 510.697 522.981 510.652 523.057 510.612C523.369 510.48 523.707 510.342 524.019 510.21C524.069 510.174 524.15 510.161 524.2 510.125C524.461 510.028 524.723 509.931 524.98 509.807C525.084 509.763 525.188 509.719 525.296 509.701C525.531 509.609 525.77 509.543 525.978 509.454C526.081 509.41 526.19 509.393 526.293 509.348C526.582 509.247 526.871 509.146 527.164 509.071C527.191 509.067 527.245 509.058 527.268 509.027C527.584 508.921 527.926 508.811 528.247 508.732C528.377 508.684 528.513 508.662 528.616 508.618C528.828 508.557 529.04 508.495 529.252 508.434C529.491 508.368 529.703 508.306 529.947 508.268C530.109 508.242 530.24 508.193 530.402 508.167C530.483 508.155 530.591 508.137 530.668 508.097C530.907 508.032 531.15 507.993 531.389 507.927C531.497 507.91 531.605 507.893 531.736 507.844C531.926 507.814 532.138 507.752 532.327 507.722C532.516 507.692 532.678 507.666 532.867 507.636C533.057 507.606 533.219 507.58 533.408 507.55C533.57 507.524 533.76 507.494 533.922 507.468C534.111 507.438 534.273 507.412 534.462 507.382C534.625 507.356 534.814 507.326 534.98 507.327C535.143 507.301 535.336 507.298 535.498 507.273C535.661 507.247 535.854 507.244 536.016 507.218C536.178 507.192 536.318 507.197 536.48 507.172C536.728 507.16 536.975 507.148 537.219 507.109C537.358 507.115 537.493 507.093 537.633 507.099C537.88 507.087 538.155 507.071 538.407 507.086C538.519 507.096 538.655 507.075 538.767 507.085C538.934 507.086 539.073 507.091 539.239 507.092C539.406 507.094 539.573 507.095 539.739 507.096C539.906 507.097 540.045 507.103 540.184 507.108C540.351 507.109 540.517 507.111 540.688 507.139C540.801 507.149 540.886 507.163 540.999 507.173C541.196 507.197 541.39 507.193 541.561 507.222C541.673 507.232 541.786 507.241 541.898 507.251C542.096 507.275 542.294 507.299 542.519 507.319C542.577 507.337 542.658 507.324 542.717 507.343C542.973 507.385 543.229 507.427 543.485 507.47C543.827 507.526 544.141 507.587 544.46 507.675C544.546 507.689 544.662 507.726 544.748 507.74C544.95 507.791 545.152 507.842 545.354 507.893C545.471 507.929 545.615 507.962 545.732 507.999C545.875 508.031 545.996 508.095 546.14 508.128C546.284 508.16 546.405 508.224 546.553 508.284C546.67 508.321 546.787 508.357 546.908 508.421C547.056 508.481 547.177 508.545 547.325 508.604C547.415 508.645 547.504 508.687 547.594 508.728C547.773 508.81 547.926 508.897 548.105 508.979C548.164 508.997 548.195 509.02 548.258 509.066C548.473 509.198 548.684 509.303 548.899 509.435C549.082 509.544 549.27 509.68 549.427 509.794C549.49 509.84 549.552 509.885 549.615 509.93C549.74 510.021 549.839 510.117 549.933 510.185C549.995 510.23 550.062 510.303 550.125 510.348C550.223 510.443 550.322 510.539 550.416 510.607C550.479 510.652 550.518 510.729 550.581 510.775C550.679 510.87 550.751 510.969 550.849 511.064C550.885 511.114 550.947 511.16 550.987 511.236C551.09 511.359 551.161 511.458 551.264 511.581C551.3 511.63 551.331 511.653 551.367 511.703C551.478 511.879 551.585 512.028 551.696 512.205C551.7 512.232 551.732 512.254 551.736 512.281C551.816 512.435 551.896 512.589 551.976 512.742C552.02 512.846 552.064 512.95 552.113 513.081C552.153 513.158 552.193 513.234 552.206 513.315L549.886 506.755C549.886 506.755 549.886 506.755 549.881 506.728C549.841 506.651 549.828 506.57 549.793 506.52C549.748 506.417 549.704 506.313 549.656 506.182C549.576 506.028 549.496 505.875 549.42 505.748C549.416 505.721 549.385 505.698 549.38 505.671C549.3 505.518 549.189 505.341 549.082 505.192C549.082 505.192 549.082 505.192 549.078 505.165C549.042 505.115 549.011 505.093 548.975 505.043C548.904 504.943 548.833 504.844 548.761 504.744C548.757 504.717 548.73 504.722 548.726 504.695C548.69 504.645 548.627 504.599 548.587 504.523C548.52 504.45 548.453 504.378 548.414 504.301C548.382 504.278 548.351 504.255 548.347 504.228C548.284 504.183 548.244 504.106 548.181 504.061C548.119 504.015 548.083 503.965 548.02 503.92C547.985 503.87 547.926 503.852 547.891 503.802C547.828 503.756 547.761 503.684 547.698 503.639C547.667 503.616 547.631 503.566 547.573 503.548C547.51 503.502 547.416 503.434 547.353 503.389C547.291 503.343 547.228 503.298 547.165 503.252C547.134 503.229 547.103 503.207 547.103 503.207C546.946 503.093 546.794 503.006 546.637 502.893C546.61 502.897 546.606 502.87 546.579 502.874C546.395 502.765 546.211 502.656 546 502.551C546 502.551 546 502.551 545.973 502.555C545.915 502.537 545.884 502.514 545.821 502.468C545.669 502.382 545.52 502.322 545.395 502.231C545.364 502.209 545.337 502.213 545.337 502.213C545.247 502.172 545.157 502.131 545.068 502.089C544.951 502.053 544.857 501.984 544.74 501.948C544.709 501.925 544.682 501.929 544.65 501.906C544.534 501.87 544.413 501.806 544.296 501.769C544.206 501.728 544.116 501.687 544 501.65C543.968 501.627 543.914 501.636 543.883 501.613C543.739 501.58 543.618 501.516 543.474 501.484C543.385 501.443 543.299 501.429 543.182 501.392C543.151 501.369 543.124 501.373 543.066 501.355C542.864 501.304 542.661 501.253 542.459 501.202C542.374 501.188 542.315 501.17 542.226 501.128C542.199 501.133 542.199 501.133 542.167 501.11C541.848 501.022 541.507 500.966 541.192 500.905C541.165 500.909 541.165 500.909 541.161 500.882C540.932 500.836 540.675 500.793 540.424 500.778C540.365 500.759 540.284 500.772 540.226 500.754C540.113 500.744 539.997 500.707 539.857 500.702C539.772 500.688 539.686 500.674 539.605 500.686C539.493 500.677 539.38 500.667 539.268 500.657C539.07 500.633 538.903 500.632 538.706 500.608C538.593 500.598 538.508 500.584 538.395 500.574C538.368 500.579 538.31 500.56 538.283 500.564C538.143 500.559 538.031 500.549 537.891 500.544C537.752 500.538 537.586 500.537 537.446 500.531C537.28 500.53 537.113 500.529 536.947 500.528C536.78 500.527 536.641 500.521 536.474 500.52C536.447 500.524 536.42 500.528 536.362 500.51C536.28 500.523 536.168 500.513 536.087 500.526C535.839 500.538 535.587 500.523 535.313 500.539C535.173 500.533 535.038 500.555 534.899 500.549C534.651 500.561 534.403 500.572 534.16 500.611C534.079 500.624 533.994 500.61 533.913 500.623C533.831 500.636 533.777 500.644 533.696 500.657C533.534 500.683 533.368 500.682 533.178 500.712C533.016 500.738 532.823 500.741 532.66 500.767C532.498 500.793 532.309 500.823 532.142 500.822C531.953 500.852 531.791 500.878 531.602 500.908C531.44 500.934 531.25 500.964 531.088 500.99C530.899 501.02 530.737 501.046 530.547 501.076C530.385 501.102 530.196 501.132 530.007 501.162C529.899 501.179 529.79 501.196 529.709 501.209C529.601 501.226 529.52 501.239 529.412 501.257C529.304 501.274 529.196 501.291 529.065 501.34C528.822 501.378 528.583 501.444 528.344 501.51C528.262 501.523 528.154 501.54 528.078 501.58C528.05 501.584 528.023 501.589 527.969 501.597C527.861 501.614 527.73 501.663 527.622 501.68C527.383 501.746 527.167 501.781 526.928 501.846C526.874 501.855 526.847 501.859 526.793 501.868C526.666 501.943 526.481 502.001 526.323 502.053C526.193 502.102 526.057 502.124 525.954 502.168C525.927 502.172 525.9 502.176 525.872 502.181C525.579 502.255 525.291 502.357 525.002 502.458L524.975 502.462C524.948 502.467 524.894 502.475 524.871 502.507C524.632 502.572 524.397 502.665 524.158 502.731C524.104 502.74 524.055 502.775 524 502.784C523.897 502.828 523.788 502.845 523.685 502.89C523.554 502.938 523.45 502.982 523.319 503.031C523.184 503.052 523.08 503.097 522.976 503.141C522.872 503.185 522.769 503.229 522.66 503.247C522.611 503.282 522.53 503.295 522.476 503.304C522.268 503.392 522.083 503.45 521.875 503.538C521.826 503.574 521.744 503.587 521.695 503.622C521.668 503.627 521.668 503.627 521.641 503.631C521.356 503.759 521.094 503.856 520.81 503.985C520.783 503.989 520.76 504.021 520.733 504.025C520.656 504.065 520.553 504.109 520.476 504.149C520.322 504.229 520.137 504.286 519.984 504.366C519.907 504.406 519.857 504.442 519.78 504.482C519.676 504.526 519.55 504.601 519.446 504.646C519.342 504.69 519.238 504.734 519.135 504.778C519.031 504.823 518.904 504.898 518.8 504.943C518.697 504.987 518.57 505.062 518.466 505.107C518.416 505.142 518.362 505.151 518.286 505.191C518.105 505.275 517.929 505.386 517.775 505.466C517.698 505.506 517.621 505.546 517.518 505.59C517.491 505.595 517.468 505.626 517.468 505.626C517.188 505.782 516.908 505.937 516.627 506.093C516.627 506.093 516.6 506.097 516.605 506.124C516.555 506.16 516.478 506.199 516.428 506.235C516.225 506.351 516.022 506.466 515.818 506.582C515.741 506.622 515.665 506.662 515.592 506.729C515.389 506.844 515.19 506.987 514.986 507.102C514.959 507.107 514.964 507.134 514.937 507.138C514.684 507.289 514.457 507.436 514.236 507.61C514.209 507.614 514.213 507.641 514.186 507.646C513.937 507.824 513.688 508.002 513.44 508.18C513.412 508.185 513.39 508.216 513.39 508.216C513.34 508.252 513.29 508.287 513.24 508.323C513.068 508.461 512.892 508.572 512.72 508.711C512.67 508.746 512.648 508.778 512.594 508.786C512.544 508.822 512.521 508.853 512.471 508.889C512.272 509.032 512.105 509.197 511.906 509.339C511.856 509.375 511.806 509.411 511.783 509.442C511.756 509.446 511.761 509.473 511.733 509.478C511.489 509.683 511.244 509.888 511 510.093C510.973 510.098 510.977 510.125 510.95 510.129C510.828 510.232 510.706 510.334 510.615 510.46C510.592 510.491 510.565 510.495 510.542 510.527C510.397 510.661 510.252 510.795 510.134 510.924C510.107 510.929 510.112 510.956 510.085 510.96C510.012 511.027 509.967 511.09 509.894 511.157C509.799 511.255 509.704 511.353 509.609 511.452C509.536 511.519 509.491 511.581 509.418 511.648C509.346 511.715 509.3 511.778 509.228 511.845C509.205 511.876 509.178 511.881 509.155 511.912C509.015 512.073 508.897 512.203 508.756 512.364C508.706 512.399 508.688 512.458 508.638 512.493C508.475 512.686 508.338 512.874 508.175 513.066L508.152 513.097C508.129 513.129 508.084 513.191 508.061 513.223C507.97 513.348 507.852 513.478 507.766 513.63C507.72 513.693 507.675 513.755 507.634 513.845C507.543 513.97 507.479 514.092 507.384 514.19C507.338 514.253 507.297 514.342 507.252 514.405C507.188 514.526 507.097 514.651 507.033 514.772C506.987 514.835 506.942 514.898 506.901 514.987C506.837 515.108 506.746 515.234 506.686 515.382C506.668 515.44 506.623 515.503 506.6 515.534C506.518 515.714 506.408 515.897 506.326 516.077C506.33 516.104 506.303 516.108 506.308 516.135C506.221 516.288 506.166 516.463 506.106 516.611C506.088 516.669 506.069 516.728 506.024 516.79C505.987 516.907 505.923 517.028 505.886 517.145C505.868 517.203 505.854 517.289 505.808 517.351C505.771 517.468 505.735 517.585 505.698 517.702C505.679 517.76 505.665 517.845 505.647 517.904C505.61 518.02 505.6 518.133 505.563 518.25C505.545 518.308 505.526 518.366 505.512 518.452C505.48 518.596 505.474 518.735 505.437 518.852C505.442 518.879 505.423 518.937 505.428 518.964C505.399 519.135 505.398 519.302 505.37 519.472C505.378 519.526 505.356 519.558 505.364 519.612C505.359 519.751 505.349 519.864 505.371 519.999C505.379 520.053 505.361 520.111 505.374 520.192C505.391 520.301 505.381 520.413 505.398 520.521C505.407 520.575 505.42 520.656 505.428 520.71C505.446 520.819 505.463 520.927 505.48 521.035C505.489 521.089 505.502 521.17 505.51 521.224C505.528 521.332 505.545 521.44 505.589 521.544C505.598 521.598 505.606 521.652 505.615 521.706C505.668 521.864 505.694 522.026 505.746 522.184L508.044 528.776C507.991 528.618 507.938 528.46 507.912 528.298C507.903 528.244 507.895 528.19 507.886 528.136C507.869 528.028 507.825 527.924 507.808 527.816C507.799 527.762 507.786 527.681 507.777 527.627C507.76 527.518 507.743 527.41 507.726 527.302C507.717 527.248 507.704 527.167 507.696 527.113C507.678 527.005 507.688 526.892 507.671 526.784C507.662 526.73 507.681 526.672 507.668 526.591C507.813 526.457 507.791 526.322 507.801 526.209C507.793 526.155 507.815 526.124 507.807 526.07C507.808 525.903 507.836 525.732 507.864 525.561C507.86 525.534 507.878 525.476 507.874 525.449C507.88 525.31 507.912 525.166 507.949 525.049C507.967 524.991 507.986 524.932 508 524.847C508.037 524.73 508.047 524.618 508.083 524.501C508.071 524.42 508.085 524.334 508.13 524.272C508.167 524.155 508.204 524.038 508.241 523.922C508.259 523.863 508.273 523.778 508.319 523.715C508.355 523.598 508.392 523.482 508.456 523.361C508.475 523.302 508.493 523.244 508.538 523.181C508.598 523.033 508.68 522.854 508.74 522.705C508.736 522.678 508.763 522.674 508.758 522.647C508.841 522.468 508.923 522.288 509.032 522.105C509.051 522.046 509.096 521.983 509.119 521.952C509.183 521.831 509.242 521.683 509.333 521.558C509.379 521.495 509.424 521.432 509.465 521.343C509.529 521.222 509.593 521.1 509.688 521.002C509.734 520.939 509.775 520.85 509.82 520.787C509.884 520.666 509.975 520.541 510.07 520.442C510.116 520.38 510.161 520.317 510.202 520.227C510.293 520.102 510.384 519.977 510.498 519.82C510.543 519.757 510.566 519.726 510.612 519.663C510.748 519.475 510.911 519.283 511.075 519.09C511.097 519.059 511.143 518.996 511.193 518.961C511.306 518.804 511.451 518.67 511.592 518.509C511.66 518.415 511.76 518.344 511.828 518.25C511.9 518.183 511.946 518.12 512.018 518.053C512.113 517.955 512.209 517.856 512.304 517.758C512.376 517.691 512.422 517.628 512.494 517.561C512.635 517.4 512.807 517.262 512.952 517.128C512.975 517.097 513.002 517.093 513.025 517.061C513.142 516.932 513.292 516.825 513.437 516.691C513.681 516.485 513.899 516.284 514.17 516.075C514.22 516.039 514.292 515.972 514.342 515.937C514.514 515.798 514.709 515.629 514.908 515.486C514.981 515.419 515.053 515.352 515.157 515.308C515.329 515.17 515.505 515.058 515.677 514.92C515.75 514.853 515.826 514.813 515.899 514.746C516.148 514.568 516.397 514.39 516.645 514.212C516.672 514.207 516.668 514.18 516.695 514.176C516.921 514.029 517.17 513.851 517.396 513.704C517.622 513.557 517.821 513.414 518.052 513.295C518.332 513.139 518.581 512.961 518.861 512.805C518.938 512.765 518.987 512.73 519.064 512.69C519.232 512.524 519.539 512.365 519.842 512.178Z" fill="white" stroke="#25134D" stroke-miterlimit="10"/>
    <path d="M517.917 513.317C528.264 506.929 542.125 505.192 548.903 509.462C555.682 513.733 552.793 522.398 542.445 528.786C532.098 535.174 518.237 536.91 511.459 532.64C504.68 528.37 507.569 519.705 517.917 513.317Z" fill="white" stroke="#25134D" stroke-miterlimit="10"/>
    <path d="M537.934 515.255L536.808 518.622L531.398 519.29L529.613 524.619L525.023 525.212L523.33 530.249L525.912 529.921L527.084 526.491L531.651 525.93L533.463 520.597L538.869 519.902L540.543 514.923L537.934 515.255Z" fill="#25134D"/>
    <path d="M528.072 523.646L529.856 518.317L535.266 517.649L536.94 512.67L534.359 512.998L533.228 516.338L527.795 517.037L526.007 522.339L521.416 522.932L519.724 527.969L522.332 527.637L523.477 524.211L528.072 523.646Z" fill="#25134D"/>
    <path d="M410.796 286.772C410.854 286.741 410.913 286.711 410.992 286.677C411.167 286.586 411.342 286.495 411.517 286.404C411.596 286.37 411.692 286.313 411.771 286.279C411.925 286.192 412.083 286.124 412.258 286.033C412.337 286 412.433 285.942 412.512 285.909C412.687 285.818 412.865 285.747 413.044 285.677C413.102 285.646 413.181 285.613 413.239 285.582C413.476 285.481 413.733 285.377 413.97 285.276C414.008 285.249 414.069 285.239 414.107 285.212C414.306 285.139 414.505 285.065 414.7 284.97C414.779 284.937 414.858 284.903 414.94 284.89C415.119 284.82 415.3 284.77 415.458 284.702C415.537 284.669 415.619 284.656 415.698 284.622C415.917 284.545 416.137 284.468 416.359 284.411C416.38 284.408 416.421 284.401 416.438 284.378C416.678 284.297 416.939 284.214 417.182 284.154C417.281 284.117 417.384 284.101 417.463 284.067C417.624 284.02 417.785 283.974 417.946 283.927C418.127 283.877 418.289 283.83 418.473 283.801C418.597 283.781 418.696 283.744 418.819 283.725C418.881 283.715 418.963 283.702 419.021 283.671C419.203 283.621 419.388 283.592 419.569 283.542C419.652 283.529 419.734 283.516 419.833 283.479C419.977 283.456 420.138 283.409 420.282 283.386C420.426 283.364 420.549 283.344 420.693 283.321C420.836 283.298 420.96 283.278 421.103 283.256C421.227 283.236 421.37 283.213 421.494 283.193C421.637 283.17 421.761 283.151 421.904 283.128C422.028 283.108 422.171 283.085 422.298 283.086C422.421 283.067 422.568 283.064 422.691 283.045C422.815 283.025 422.962 283.023 423.085 283.003C423.208 282.983 423.314 282.988 423.437 282.968C423.625 282.959 423.814 282.95 423.998 282.921C424.104 282.925 424.207 282.909 424.313 282.913C424.501 282.904 424.71 282.892 424.901 282.903C424.987 282.911 425.089 282.894 425.175 282.902C425.301 282.903 425.407 282.907 425.534 282.908C425.66 282.909 425.787 282.91 425.913 282.911C426.04 282.912 426.146 282.916 426.252 282.92C426.378 282.921 426.505 282.922 426.635 282.943C426.72 282.951 426.785 282.961 426.87 282.969C427.021 282.987 427.168 282.985 427.298 283.006C427.383 283.014 427.468 283.021 427.554 283.028C427.704 283.047 427.854 283.065 428.025 283.08C428.07 283.094 428.131 283.084 428.176 283.098C428.37 283.13 428.565 283.162 428.76 283.194C429.019 283.237 429.258 283.283 429.5 283.35C429.565 283.361 429.654 283.389 429.719 283.4C429.873 283.438 430.026 283.477 430.18 283.516C430.268 283.544 430.378 283.569 430.466 283.597C430.576 283.621 430.668 283.67 430.777 283.694C430.886 283.719 430.978 283.768 431.091 283.813C431.179 283.841 431.268 283.869 431.36 283.918C431.472 283.963 431.564 284.011 431.677 284.057C431.745 284.088 431.813 284.119 431.881 284.15C432.018 284.213 432.134 284.279 432.27 284.341C432.314 284.355 432.338 284.373 432.386 284.407C432.549 284.507 432.709 284.587 432.873 284.688C433.012 284.771 433.155 284.874 433.274 284.961C433.322 284.995 433.369 285.03 433.417 285.064C433.512 285.133 433.587 285.206 433.658 285.257C433.706 285.292 433.757 285.347 433.804 285.382C433.879 285.454 433.954 285.526 434.025 285.578C434.073 285.613 434.103 285.671 434.151 285.705C434.226 285.778 434.28 285.853 434.354 285.926C434.382 285.964 434.429 285.998 434.46 286.056C434.538 286.149 434.592 286.225 434.67 286.318C434.697 286.356 434.721 286.373 434.748 286.411C434.832 286.545 434.913 286.658 434.998 286.792C435.001 286.813 435.025 286.83 435.028 286.85C435.089 286.967 435.15 287.084 435.21 287.2C435.244 287.279 435.278 287.358 435.315 287.458C435.345 287.516 435.375 287.574 435.385 287.636L433.622 282.652C433.622 282.652 433.622 282.652 433.619 282.631C433.589 282.573 433.579 282.511 433.552 282.473C433.518 282.394 433.485 282.315 433.448 282.216C433.387 282.099 433.326 281.983 433.269 281.887C433.266 281.866 433.242 281.849 433.239 281.828C433.178 281.711 433.093 281.578 433.012 281.464C433.012 281.464 433.012 281.464 433.009 281.444C432.982 281.406 432.958 281.388 432.931 281.351C432.877 281.275 432.822 281.199 432.768 281.124C432.765 281.103 432.744 281.107 432.741 281.086C432.714 281.048 432.667 281.014 432.636 280.955C432.585 280.9 432.534 280.845 432.504 280.787C432.48 280.77 432.456 280.752 432.453 280.732C432.406 280.697 432.375 280.639 432.328 280.604C432.28 280.57 432.253 280.532 432.205 280.497C432.178 280.46 432.134 280.446 432.107 280.408C432.059 280.373 432.008 280.318 431.961 280.284C431.937 280.266 431.91 280.229 431.865 280.215C431.818 280.18 431.746 280.128 431.699 280.094C431.651 280.059 431.603 280.025 431.556 279.99C431.532 279.973 431.508 279.956 431.508 279.956C431.389 279.869 431.273 279.803 431.154 279.717C431.134 279.72 431.13 279.7 431.11 279.703C430.97 279.62 430.831 279.537 430.671 279.457C430.671 279.457 430.671 279.457 430.65 279.46C430.606 279.446 430.582 279.429 430.534 279.395C430.418 279.329 430.306 279.284 430.211 279.215C430.187 279.197 430.166 279.201 430.166 279.201C430.098 279.169 430.03 279.138 429.962 279.107C429.873 279.079 429.802 279.027 429.713 278.999C429.689 278.982 429.669 278.985 429.645 278.968C429.556 278.94 429.464 278.891 429.376 278.863C429.307 278.832 429.239 278.801 429.15 278.773C429.127 278.755 429.086 278.762 429.062 278.745C428.953 278.72 428.861 278.671 428.751 278.647C428.683 278.615 428.618 278.605 428.53 278.577C428.506 278.559 428.485 278.563 428.441 278.549C428.287 278.51 428.134 278.471 427.98 278.433C427.915 278.422 427.871 278.408 427.803 278.377C427.782 278.38 427.782 278.38 427.758 278.363C427.516 278.296 427.257 278.253 427.017 278.207C426.997 278.21 426.997 278.21 426.994 278.189C426.82 278.154 426.625 278.122 426.433 278.11C426.389 278.096 426.328 278.106 426.283 278.092C426.198 278.085 426.109 278.057 426.003 278.052C425.938 278.042 425.873 278.031 425.812 278.041C425.726 278.033 425.641 278.026 425.555 278.018C425.405 278 425.279 277.999 425.128 277.981C425.043 277.974 424.978 277.963 424.892 277.956C424.872 277.959 424.828 277.945 424.807 277.948C424.701 277.944 424.616 277.936 424.51 277.932C424.404 277.928 424.277 277.927 424.171 277.923C424.045 277.922 423.918 277.921 423.792 277.92C423.665 277.919 423.559 277.915 423.433 277.914C423.412 277.918 423.392 277.921 423.347 277.907C423.286 277.917 423.2 277.909 423.139 277.919C422.951 277.928 422.759 277.916 422.55 277.928C422.444 277.924 422.342 277.941 422.236 277.936C422.048 277.945 421.86 277.954 421.675 277.984C421.613 277.993 421.548 277.983 421.487 277.993C421.425 278.002 421.384 278.009 421.322 278.019C421.199 278.038 421.073 278.037 420.929 278.06C420.805 278.08 420.658 278.082 420.535 278.102C420.412 278.122 420.268 278.144 420.142 278.144C419.998 278.166 419.875 278.186 419.731 278.209C419.608 278.229 419.464 278.252 419.341 278.271C419.197 278.294 419.074 278.314 418.93 278.337C418.807 278.356 418.663 278.379 418.519 278.402C418.437 278.415 418.355 278.428 418.293 278.438C418.211 278.451 418.149 278.461 418.067 278.474C417.985 278.487 417.903 278.5 417.803 278.537C417.619 278.566 417.437 278.616 417.255 278.666C417.194 278.676 417.112 278.689 417.053 278.72C417.033 278.723 417.012 278.726 416.971 278.733C416.889 278.746 416.79 278.783 416.707 278.796C416.526 278.846 416.362 278.872 416.18 278.922C416.139 278.929 416.118 278.932 416.077 278.938C415.981 278.996 415.841 279.039 415.721 279.079C415.621 279.116 415.518 279.133 415.44 279.166C415.419 279.17 415.399 279.173 415.378 279.176C415.155 279.233 414.936 279.31 414.717 279.387L414.696 279.39C414.675 279.393 414.634 279.4 414.617 279.424C414.436 279.474 414.257 279.544 414.076 279.594C414.035 279.601 413.997 279.628 413.956 279.634C413.877 279.668 413.795 279.681 413.716 279.715C413.616 279.752 413.537 279.785 413.438 279.822C413.335 279.838 413.256 279.872 413.178 279.906C413.099 279.939 413.02 279.973 412.938 279.986C412.9 280.013 412.838 280.023 412.797 280.029C412.639 280.097 412.499 280.14 412.341 280.207C412.303 280.234 412.242 280.244 412.204 280.271C412.183 280.275 412.183 280.275 412.163 280.278C411.947 280.376 411.748 280.449 411.532 280.547C411.511 280.55 411.494 280.574 411.473 280.577C411.415 280.608 411.336 280.641 411.278 280.672C411.161 280.732 411.021 280.776 410.904 280.836C410.845 280.867 410.808 280.894 410.749 280.924C410.67 280.958 410.574 281.015 410.495 281.049C410.416 281.083 410.338 281.116 410.259 281.15C410.18 281.183 410.084 281.241 410.005 281.274C409.926 281.308 409.83 281.366 409.751 281.399C409.713 281.426 409.672 281.433 409.614 281.463C409.476 281.527 409.342 281.612 409.226 281.672C409.167 281.703 409.109 281.733 409.03 281.767C409.01 281.77 408.992 281.794 408.992 281.794C408.78 281.912 408.567 282.03 408.354 282.148C408.354 282.148 408.333 282.151 408.337 282.172C408.299 282.199 408.24 282.229 408.203 282.257C408.048 282.344 407.894 282.432 407.739 282.52C407.681 282.55 407.622 282.581 407.567 282.632C407.413 282.719 407.262 282.828 407.107 282.915C407.087 282.919 407.09 282.939 407.069 282.942C406.877 283.057 406.705 283.169 406.537 283.301C406.516 283.304 406.519 283.325 406.499 283.328C406.31 283.464 406.121 283.599 405.932 283.734C405.911 283.738 405.894 283.762 405.894 283.762C405.856 283.789 405.818 283.816 405.781 283.843C405.65 283.948 405.516 284.032 405.385 284.137C405.347 284.164 405.33 284.188 405.289 284.195C405.251 284.222 405.234 284.246 405.196 284.273C405.045 284.381 404.918 284.507 404.766 284.615C404.728 284.642 404.691 284.669 404.673 284.693C404.653 284.696 404.656 284.717 404.636 284.72C404.45 284.876 404.264 285.032 404.078 285.188C404.058 285.191 404.061 285.212 404.04 285.215C403.948 285.293 403.855 285.371 403.786 285.466C403.768 285.49 403.748 285.493 403.731 285.517C403.62 285.619 403.51 285.721 403.421 285.819C403.4 285.822 403.403 285.843 403.383 285.846C403.328 285.897 403.293 285.945 403.238 285.996C403.166 286.07 403.093 286.145 403.021 286.22C402.966 286.271 402.932 286.318 402.876 286.369C402.821 286.42 402.787 286.468 402.732 286.519C402.714 286.542 402.694 286.546 402.677 286.57C402.57 286.692 402.48 286.79 402.373 286.913C402.335 286.94 402.321 286.984 402.284 287.011C402.16 287.157 402.056 287.3 401.932 287.446L401.915 287.47C401.897 287.494 401.863 287.542 401.845 287.565C401.776 287.661 401.687 287.759 401.621 287.875C401.586 287.923 401.552 287.97 401.521 288.038C401.452 288.134 401.403 288.226 401.331 288.3C401.296 288.348 401.265 288.416 401.23 288.464C401.182 288.556 401.113 288.651 401.064 288.743C401.03 288.79 400.995 288.838 400.964 288.906C400.915 288.998 400.846 289.093 400.801 289.206C400.787 289.25 400.752 289.298 400.735 289.322C400.673 289.458 400.59 289.598 400.527 289.734C400.53 289.755 400.51 289.758 400.513 289.778C400.447 289.894 400.405 290.027 400.36 290.14C400.346 290.184 400.332 290.228 400.297 290.276C400.269 290.365 400.221 290.457 400.193 290.545C400.179 290.59 400.168 290.655 400.134 290.702C400.106 290.791 400.078 290.88 400.05 290.968C400.036 291.013 400.025 291.078 400.011 291.122C399.983 291.211 399.976 291.296 399.948 291.385C399.934 291.429 399.92 291.474 399.909 291.538C399.884 291.648 399.88 291.754 399.852 291.842C399.855 291.863 399.841 291.907 399.844 291.928C399.823 292.058 399.822 292.184 399.801 292.314C399.807 292.355 399.79 292.379 399.797 292.42C399.792 292.526 399.785 292.611 399.801 292.714C399.808 292.755 399.794 292.799 399.804 292.861C399.817 292.943 399.809 293.029 399.822 293.111C399.829 293.152 399.839 293.213 399.845 293.254C399.858 293.337 399.871 293.419 399.884 293.501C399.891 293.542 399.901 293.604 399.907 293.645C399.92 293.727 399.934 293.809 399.967 293.888C399.974 293.929 399.98 293.97 399.987 294.011C400.027 294.131 400.047 294.254 400.087 294.374L401.832 299.382C401.792 299.263 401.752 299.143 401.732 299.019C401.726 298.978 401.719 298.937 401.713 298.896C401.699 298.814 401.666 298.735 401.653 298.653C401.646 298.612 401.636 298.55 401.63 298.509C401.617 298.427 401.604 298.345 401.591 298.263C401.584 298.222 401.574 298.16 401.568 298.119C401.555 298.037 401.562 297.951 401.549 297.869C401.542 297.828 401.556 297.784 401.547 297.722C401.657 297.62 401.64 297.518 401.648 297.432C401.641 297.391 401.659 297.367 401.652 297.326C401.653 297.2 401.674 297.07 401.696 296.94C401.693 296.92 401.707 296.875 401.703 296.855C401.708 296.749 401.732 296.639 401.76 296.551C401.774 296.506 401.788 296.462 401.799 296.397C401.827 296.308 401.834 296.223 401.862 296.134C401.853 296.073 401.863 296.008 401.898 295.96C401.926 295.872 401.954 295.783 401.982 295.694C401.996 295.65 402.007 295.585 402.041 295.537C402.069 295.449 402.097 295.36 402.146 295.268C402.16 295.224 402.174 295.179 402.208 295.132C402.253 295.019 402.316 294.883 402.361 294.77C402.358 294.75 402.378 294.746 402.375 294.726C402.438 294.59 402.5 294.453 402.583 294.314C402.597 294.269 402.632 294.222 402.649 294.198C402.698 294.106 402.743 293.993 402.812 293.898C402.846 293.85 402.881 293.803 402.912 293.735C402.961 293.643 403.009 293.551 403.082 293.476C403.116 293.428 403.148 293.36 403.182 293.313C403.231 293.221 403.3 293.125 403.372 293.051C403.407 293.003 403.441 292.955 403.472 292.887C403.541 292.792 403.61 292.697 403.697 292.578C403.731 292.53 403.749 292.506 403.783 292.459C403.887 292.316 404.011 292.17 404.135 292.024C404.152 292 404.187 291.952 404.225 291.925C404.311 291.806 404.421 291.704 404.528 291.582C404.58 291.51 404.655 291.456 404.707 291.385C404.762 291.334 404.797 291.286 404.852 291.235C404.924 291.161 404.997 291.086 405.069 291.011C405.124 290.96 405.159 290.913 405.214 290.862C405.321 290.74 405.451 290.635 405.561 290.533C405.579 290.509 405.599 290.506 405.616 290.482C405.706 290.383 405.82 290.302 405.93 290.2C406.115 290.044 406.281 289.892 406.487 289.732C406.525 289.705 406.58 289.655 406.618 289.627C406.748 289.522 406.896 289.394 407.048 289.285C407.103 289.234 407.158 289.183 407.237 289.15C407.367 289.045 407.501 288.96 407.632 288.855C407.687 288.804 407.745 288.774 407.8 288.723C407.989 288.588 408.178 288.452 408.368 288.317C408.388 288.313 408.385 288.293 408.405 288.29C408.577 288.178 408.766 288.043 408.938 287.931C409.11 287.819 409.261 287.711 409.436 287.62C409.649 287.502 409.838 287.367 410.051 287.248C410.109 287.218 410.147 287.191 410.205 287.161C410.333 287.035 410.566 286.914 410.796 286.772Z" fill="white" stroke="#25134D" stroke-miterlimit="10"/>
    <path d="M409.333 287.637C417.195 282.784 427.726 281.464 432.876 284.709C438.026 287.953 435.831 294.537 427.97 299.39C420.108 304.244 409.577 305.563 404.427 302.319C399.277 299.074 401.472 292.491 409.333 287.637Z" fill="white" stroke="#25134D" stroke-miterlimit="10"/>
    <path d="M424.542 289.11L423.686 291.668L419.576 292.175L418.22 296.224L414.732 296.674L413.446 300.502L415.407 300.252L416.298 297.647L419.768 297.22L421.145 293.168L425.252 292.64L426.524 288.857L424.542 289.11Z" fill="#25134D"/>
    <path d="M417.049 295.485L418.405 291.436L422.515 290.928L423.787 287.146L421.826 287.395L420.966 289.932L416.839 290.464L415.48 294.492L411.992 294.942L410.706 298.769L412.688 298.517L413.558 295.914L417.049 295.485Z" fill="#25134D"/>
    <path d="M384.205 440.203L378.907 445.667C378.297 446.289 376.846 446.074 374.531 444.894C368.247 441.695 358.025 432.56 351.699 424.486C347.687 419.402 346.22 415.961 347.233 414.907L352.532 409.443C351.518 410.497 352.985 413.939 356.972 419.026C363.298 427.101 373.52 436.235 379.804 439.434C382.144 440.61 383.596 440.825 384.205 440.203Z" fill="white"/>
    <path d="M384.205 440.203L378.907 445.667C378.297 446.289 376.846 446.074 374.531 444.894C368.247 441.695 358.025 432.56 351.699 424.486C347.687 419.402 346.22 415.961 347.233 414.907L352.532 409.443C351.518 410.497 352.985 413.939 356.972 419.026C363.298 427.101 373.52 436.235 379.804 439.434C382.144 440.61 383.596 440.825 384.205 440.203Z" stroke="#25134D" stroke-miterlimit="10"/>
    <path d="M356.907 410.217C363.192 413.416 373.414 422.55 379.736 430.599C386.058 438.648 386.084 442.608 379.8 439.409C373.516 436.21 363.293 427.076 356.967 419.001C350.641 410.926 350.623 407.018 356.907 410.217Z" fill="white" stroke="#25134D" stroke-miterlimit="10"/>
    <path d="M369.346 421.729L369.352 423.25L365.346 419.688L365.362 422.101L361.97 419.097L361.992 421.377L363.893 423.096L363.909 421.545L367.275 424.552L367.284 422.136L371.265 425.702L371.247 423.447L369.346 421.729Z" fill="#25134D"/>
    <path d="M372.713 427.544L372.707 426.023L374.604 427.715L374.622 429.97L370.646 426.43L370.637 428.846L367.271 425.839L367.255 427.39L365.354 425.671L365.358 423.387L368.724 426.394L368.707 423.982L372.713 427.544Z" fill="#25134D"/>
</svg>
