<svg width="100%" height="100%" viewBox="0 0 264 217" fill="none" xmlns="http://www.w3.org/2000/svg">
    <path d="M73.3203 216.211H200.908V208.301H83.7207L127.54 157.211H117.634L73.3203 208.301V216.211Z" fill="#23024D"/>
    <path d="M177.419 94.2109C185.461 80.4885 189.482 68.1767 189.482 57.2754C189.482 39.209 184.209 25.1465 173.662 15.0879C163.115 5.0293 148.369 0 129.424 0C117.803 0 107.305 2.7832 97.9297 8.34961C88.5547 13.916 81.2305 21.582 75.957 31.3477C70.6836 41.1133 68.0469 51.709 68.0469 63.1348H75.957C75.957 52.7832 78.252 43.4082 82.8418 35.0098C87.5293 26.5137 93.9746 19.873 102.178 15.0879C110.381 10.3027 119.463 7.91016 129.424 7.91016C145.928 7.91016 158.721 12.2559 167.803 20.9473C176.885 29.541 181.426 41.6504 181.426 57.2754C181.426 66.3574 178.496 76.3184 172.637 87.1582C171.424 89.4399 170.075 91.7908 168.589 94.2109H177.419Z" fill="#23024D"/>
    <path d="M36.9141 136.492H16.3672L12.4609 148.211H0L21.1719 91.3359H32.0312L53.3203 148.211H40.8594L36.9141 136.492ZM19.5312 127H33.75L26.6016 105.711L19.5312 127Z" fill="#23024D"/>
    <path d="M69.8047 148.211H58.4766V105.945H69.8047V148.211ZM57.8125 95.0078C57.8125 93.3151 58.3724 91.9219 59.4922 90.8281C60.638 89.7344 62.1875 89.1875 64.1406 89.1875C66.0677 89.1875 67.6042 89.7344 68.75 90.8281C69.8958 91.9219 70.4688 93.3151 70.4688 95.0078C70.4688 96.7266 69.8828 98.1328 68.7109 99.2266C67.5651 100.32 66.0417 100.867 64.1406 100.867C62.2396 100.867 60.7031 100.32 59.5312 99.2266C58.3854 98.1328 57.8125 96.7266 57.8125 95.0078Z" fill="#23024D"/>
    <path d="M102.891 116.531C101.354 116.323 100 116.219 98.8281 116.219C94.5573 116.219 91.7578 117.664 90.4297 120.555V148.211H79.1406V105.945H89.8047L90.1172 110.984C92.3828 107.104 95.5208 105.164 99.5312 105.164C100.781 105.164 101.953 105.333 103.047 105.672L102.891 116.531Z" fill="#23024D"/>
    <path d="M105.82 126.766C105.82 120.177 107.292 114.93 110.234 111.023C113.203 107.117 117.253 105.164 122.383 105.164C126.497 105.164 129.896 106.701 132.578 109.773V88.2109H143.906V148.211H133.711L133.164 143.719C130.352 147.234 126.732 148.992 122.305 148.992C117.331 148.992 113.333 147.039 110.312 143.133C107.318 139.201 105.82 133.745 105.82 126.766ZM117.109 127.586C117.109 131.544 117.799 134.578 119.18 136.688C120.56 138.797 122.565 139.852 125.195 139.852C128.685 139.852 131.146 138.38 132.578 135.438V118.758C131.172 115.815 128.737 114.344 125.273 114.344C119.831 114.344 117.109 118.758 117.109 127.586Z" fill="#23024D"/>
    <path d="M176.406 116.531C174.87 116.323 173.516 116.219 172.344 116.219C168.073 116.219 165.273 117.664 163.945 120.555V148.211H152.656V105.945H163.32L163.633 110.984C165.898 107.104 169.036 105.164 173.047 105.164C174.297 105.164 175.469 105.333 176.562 105.672L176.406 116.531Z" fill="#23024D"/>
    <path d="M178.711 126.688C178.711 122.495 179.518 118.758 181.133 115.477C182.747 112.195 185.065 109.656 188.086 107.859C191.133 106.062 194.661 105.164 198.672 105.164C204.375 105.164 209.023 106.909 212.617 110.398C216.237 113.888 218.255 118.628 218.672 124.617L218.75 127.508C218.75 133.992 216.94 139.201 213.32 143.133C209.701 147.039 204.844 148.992 198.75 148.992C192.656 148.992 187.786 147.039 184.141 143.133C180.521 139.227 178.711 133.914 178.711 127.195V126.688ZM190 127.508C190 131.518 190.755 134.591 192.266 136.727C193.776 138.836 195.938 139.891 198.75 139.891C201.484 139.891 203.62 138.849 205.156 136.766C206.693 134.656 207.461 131.297 207.461 126.688C207.461 122.755 206.693 119.708 205.156 117.547C203.62 115.385 201.458 114.305 198.672 114.305C195.911 114.305 193.776 115.385 192.266 117.547C190.755 119.682 190 123.003 190 127.508Z" fill="#23024D"/>
    <path d="M263.75 127.469C263.75 133.979 262.266 139.201 259.297 143.133C256.354 147.039 252.37 148.992 247.344 148.992C243.073 148.992 239.622 147.508 236.992 144.539V164.461H225.703V105.945H236.172L236.562 110.086C239.297 106.805 242.865 105.164 247.266 105.164C252.474 105.164 256.523 107.091 259.414 110.945C262.305 114.799 263.75 120.112 263.75 126.883V127.469ZM252.461 126.648C252.461 122.716 251.758 119.682 250.352 117.547C248.971 115.411 246.953 114.344 244.297 114.344C240.755 114.344 238.32 115.698 236.992 118.406V135.711C238.372 138.497 240.833 139.891 244.375 139.891C249.766 139.891 252.461 135.477 252.461 126.648Z" fill="#23024D"/>
</svg>