<svg width="100%" height="100%" viewBox="0 0 48 48" fill="none" xmlns="http://www.w3.org/2000/svg">
<path d="M0 24C0 13.5964 0 8.39461 2.82246 4.85897C3.42327 4.10635 4.10635 3.42327 4.85897 2.82246C8.39461 0 13.5964 0 24 0C34.4036 0 39.6054 0 43.141 2.82246C43.8937 3.42327 44.5767 4.10635 45.1775 4.85897C48 8.39461 48 13.5964 48 24C48 34.4036 48 39.6054 45.1775 43.141C44.5767 43.8937 43.8937 44.5767 43.141 45.1775C39.6054 48 34.4036 48 24 48C13.5964 48 8.39461 48 4.85897 45.1775C4.10635 44.5767 3.42327 43.8937 2.82246 43.141C0 39.6054 0 34.4036 0 24Z" fill="#E8E8ED"/>
<path fill-rule="evenodd" clip-rule="evenodd" d="M28.4017 22.069L33.7534 27.4003L39.0677 22.1032L41.4002 24.4139L33.7541 32.0353L28.4017 26.7033L19.9619 35.1109L15.4332 30.5995L10.012 36.0001L7.68018 33.6887L15.4332 25.9652L19.9619 30.4766L28.4017 22.069Z" fill="white"/>
<path fill-rule="evenodd" clip-rule="evenodd" d="M28.4017 13.0801L33.7534 18.4114L39.0677 13.1143L41.4002 15.425L33.7541 23.0464L28.4017 17.7144L19.9619 26.122L15.4332 21.6106L10.012 27.0112L7.68018 24.6998L15.4332 16.9763L19.9619 21.4877L28.4017 13.0801Z" fill="white"/>
</svg>
