<svg width="100%" height="100%" viewBox="0 0 32 32" fill="none" xmlns="http://www.w3.org/2000/svg">
<g clip-path="url(#clip0_1501_29123)">
<path d="M16 32C24.8366 32 32 24.8366 32 16C32 7.16344 24.8366 0 16 0C7.16344 0 0 7.16344 0 16C0 24.8366 7.16344 32 16 32Z" fill="#000636"/>
<path d="M14.7891 18.7969C14.7995 18.1771 14.8698 17.6875 15 17.3281C15.1302 16.9688 15.3958 16.5703 15.7969 16.1328L16.8203 15.0781C17.2578 14.5833 17.4766 14.0521 17.4766 13.4844C17.4766 12.9375 17.3333 12.5104 17.0469 12.2031C16.7604 11.8906 16.3438 11.7344 15.7969 11.7344C15.2656 11.7344 14.8385 11.875 14.5156 12.1562C14.1927 12.4375 14.0312 12.8151 14.0312 13.2891H12.5859C12.5964 12.4453 12.8958 11.7656 13.4844 11.25C14.0781 10.7292 14.849 10.4688 15.7969 10.4688C16.7812 10.4688 17.5469 10.7344 18.0938 11.2656C18.6458 11.7917 18.9219 12.5156 18.9219 13.4375C18.9219 14.349 18.5 15.2474 17.6562 16.1328L16.8047 16.9766C16.4245 17.3984 16.2344 18.0052 16.2344 18.7969H14.7891ZM14.7266 21.2734C14.7266 21.0391 14.7969 20.8438 14.9375 20.6875C15.0833 20.526 15.2969 20.4453 15.5781 20.4453C15.8594 20.4453 16.0729 20.526 16.2188 20.6875C16.3646 20.8438 16.4375 21.0391 16.4375 21.2734C16.4375 21.5078 16.3646 21.7031 16.2188 21.8594C16.0729 22.0104 15.8594 22.0859 15.5781 22.0859C15.2969 22.0859 15.0833 22.0104 14.9375 21.8594C14.7969 21.7031 14.7266 21.5078 14.7266 21.2734Z" fill="white"/>
</g>
<defs>
<clipPath id="clip0_1501_29123">
<rect width="32" height="32" fill="white"/>
</clipPath>
</defs>
</svg>
