<svg width="127" height="32" viewBox="0 0 127 32" fill="none" xmlns="http://www.w3.org/2000/svg">
    <path d="M97.2978 28.7481C97.8601 26.6768 98.4047 24.6996 98.9303 22.7176C99.1269 21.9743 99.3388 21.2275 99.4394 20.4688C99.5483 19.6469 99.5235 18.7536 98.6427 18.3498C97.8151 17.9711 96.9675 18.1259 96.2193 18.7036C95.2769 19.4314 94.8294 20.4581 94.524 21.5575C93.906 23.7824 93.3105 26.0133 92.7185 28.2454C92.6238 28.6016 92.4735 28.7671 92.0745 28.7576C90.9143 28.7302 89.7518 28.7481 88.4957 28.7481C89.7944 23.967 91.073 19.2587 92.3551 14.5372C93.211 14.5372 94.0563 14.4288 94.8531 14.5789C95.3148 14.6658 95.6995 15.1684 96.1388 15.4984C96.7816 15.2423 97.531 14.8195 98.3325 14.6527C99.9816 14.3073 101.607 14.3216 102.815 15.8033C103.062 16.107 103.236 15.945 103.463 15.8092C105.269 14.7396 107.225 14.3561 109.301 14.53C110.898 14.6634 112.116 15.9212 112.468 17.5042C112.834 19.1526 112.457 20.688 112.057 22.2328C111.498 24.3911 110.88 26.535 110.279 28.7159C108.923 28.7159 107.57 28.7159 106.16 28.7159C106.603 27.0937 107.054 25.5047 107.467 23.9051C107.777 22.7033 108.069 21.4943 108.304 20.277C108.375 19.9114 108.31 19.473 108.173 19.1205C107.805 18.1759 106.829 17.8675 105.786 18.2986C104.381 18.8799 103.798 20.1055 103.416 21.4467C102.784 23.6681 102.195 25.9014 101.605 28.1347C101.49 28.5694 101.332 28.7886 100.815 28.7636C99.6738 28.7123 98.529 28.7481 97.2978 28.7481Z" fill="#25044F"/>
    <path d="M37.2683 15.3744C37.9904 15.1076 38.6463 14.7527 39.3412 14.63C40.9205 14.3501 42.488 14.3001 43.7097 15.6639C44.3455 16.3737 44.6699 17.2421 44.7184 18.1449C44.8711 20.9952 44.1122 23.6049 42.2737 25.806C40.4446 27.9964 38.0473 28.9421 35.2107 28.7647C33.9641 28.6872 32.7968 28.3847 31.8911 27.4616C30.9346 26.4885 30.5818 25.2545 30.8908 23.9658C31.6674 20.7248 32.5494 17.51 33.3946 14.2858C33.719 13.0458 34.0635 11.8119 34.3867 10.5708C34.4968 10.1503 34.6448 9.8692 35.1752 9.94066C35.7375 10.0169 36.3188 9.95138 36.8812 10.0228C37.9194 10.1563 38.4024 10.9852 38.1053 12.006C37.8247 12.972 37.5631 13.9439 37.3038 14.9158C37.2647 15.0588 37.2789 15.2136 37.2683 15.3744ZM36.9699 25.1962C37.4352 25.0199 37.9514 24.9234 38.3551 24.6542C39.7319 23.7383 40.769 20.9809 40.402 19.3741C40.2469 18.694 39.6964 18.2199 39.1151 18.1782C37.7489 18.0806 36.8539 18.7631 36.1909 19.8791C35.573 20.9201 35.3066 22.0755 35.1989 23.2535C35.1053 24.2897 35.895 25.3022 36.9699 25.1962Z" fill="#25044F"/>
    <path d="M119.575 15.3688C120.309 15.102 120.981 14.7423 121.694 14.6196C123.303 14.3445 124.893 14.3302 126.075 15.7738C126.646 16.4706 126.951 17.3031 126.984 18.1762C127.108 21.4088 126.169 24.2615 123.816 26.5543C121.601 28.7126 117.706 29.3951 115.168 28.1135C113.576 27.3095 112.986 25.904 113.224 24.3377C113.507 22.4749 114.01 20.643 114.485 18.8146C115.243 15.8965 116.055 12.9938 116.854 10.0494C117.711 10.0494 118.559 9.99699 119.397 10.0649C120.214 10.1304 120.653 11.1559 120.369 12.1386C120.096 13.0855 119.836 14.036 119.581 14.9877C119.546 15.1068 119.575 15.2437 119.575 15.3688ZM119.204 25.0798C119.93 25.0582 120.467 24.7975 120.91 24.4056C122.231 23.236 122.687 21.6339 122.757 19.9319C122.794 19.0314 122.275 18.2917 121.665 18.2179C120.811 18.1143 119.987 18.1905 119.309 18.8527C118.021 20.1105 117.589 21.7221 117.536 23.4313C117.502 24.5152 118.179 25.0786 119.204 25.0798Z" fill="#25044F"/>
    <path d="M59.19 28.7493C59.5463 27.4344 59.8802 26.1992 60.2141 24.9652C60.8936 22.4532 61.5696 19.9388 62.2539 17.428C62.8967 15.0697 63.5407 12.7113 64.2085 10.3601C64.2546 10.1957 64.495 9.9825 64.6548 9.97536C65.2822 9.94558 65.918 9.94677 66.5419 10.0135C67.534 10.1207 68.004 10.6793 67.8323 11.6739C67.6512 12.7196 67.3244 13.7404 67.064 14.7719C67.0178 14.9565 66.9894 15.1459 66.9302 15.4496C67.4854 15.2007 67.9246 14.9601 68.3911 14.8029C69.5951 14.3967 70.8405 14.3169 72.0422 14.729C73.2473 15.1435 73.9162 16.1035 74.2418 17.328C74.649 18.8597 74.391 20.351 74.0003 21.8327C73.4415 23.9504 72.8519 26.0599 72.2919 28.1764C72.1878 28.5719 72.0362 28.7732 71.5804 28.7601C70.4202 28.7267 69.2577 28.7493 67.9992 28.7493C68.3118 27.5809 68.616 26.4708 68.9037 25.3559C69.324 23.7337 69.7703 22.1162 70.1207 20.4784C70.2214 20.0103 70.116 19.4433 69.9443 18.9824C69.6472 18.1844 68.6089 17.9164 67.6452 18.2987C66.3738 18.8037 65.7309 19.8638 65.371 21.0894C64.682 23.4371 64.0534 25.8026 63.4342 28.1705C63.3253 28.5886 63.1891 28.7708 62.7369 28.7589C61.5956 28.7303 60.4532 28.7493 59.19 28.7493Z" fill="#25044F"/>
    <path d="M81.6305 14.7923C81.376 15.7571 81.1451 16.6265 80.9166 17.496C80.3993 19.4602 79.8405 21.4135 79.3823 23.3908C79.1018 24.5997 80.1649 25.611 81.3973 25.3954C82.8025 25.1488 83.7532 24.3663 84.1403 22.9501C84.8435 20.3809 85.5444 17.8129 86.2642 15.2485C86.3127 15.0769 86.5057 14.822 86.6383 14.8185C87.8755 14.7851 89.1138 14.7994 90.4433 14.7994C90.2385 15.5593 90.0597 16.2371 89.8715 16.9124C89.231 19.2112 88.6663 21.5339 87.9252 23.7993C87.0515 26.4721 85.0981 28.0455 82.4237 28.759C80.8515 29.1783 79.2912 29.2354 77.7143 28.759C76.0687 28.2623 75.105 27.0081 75.015 25.281C74.9381 23.7969 75.4649 22.4415 75.8141 21.0503C76.2948 19.1374 76.8619 17.2459 77.3626 15.3378C77.4668 14.9423 77.6243 14.778 78.041 14.7863C79.2 14.8078 80.359 14.7923 81.6305 14.7923Z" fill="#25044F"/>
    <path d="M60.7739 15.034C60.5371 17.1542 59.4823 18.1344 57.3785 18.2261C57.0293 19.4994 56.673 20.7906 56.319 22.0829C56.1 22.8809 55.8857 23.6813 55.6643 24.4782C55.4429 25.2738 55.5495 25.4144 56.3888 25.4156C56.8186 25.4168 57.2483 25.4156 57.7965 25.4156C57.6201 26.1219 57.4827 26.7472 57.304 27.3594C57.169 27.8204 57.1039 28.4326 56.7819 28.6708C56.4717 28.9007 55.8727 28.759 55.4015 28.7435C54.3609 28.7078 53.3179 28.6911 52.2843 28.5863C51.4355 28.5005 50.943 27.9871 51.0567 27.1498C51.2307 25.867 51.5326 24.5973 51.8605 23.3419C52.6975 20.1367 53.5748 16.9433 54.4414 13.7465C54.7302 12.6816 55.0167 11.6156 55.347 10.5627C55.4027 10.3864 55.6667 10.1744 55.8502 10.1577C56.4374 10.1077 57.0317 10.1505 57.6224 10.141C58.5825 10.1243 59.3023 10.9772 59.017 12.0539C58.8004 12.8734 58.6252 13.706 58.3777 14.5171C58.2404 14.9673 58.4133 15.0412 58.7874 15.0364C59.4361 15.0281 60.0837 15.034 60.7739 15.034Z" fill="#25044F"/>
    <path d="M48.2464 28.5684C46.8862 28.5684 45.5507 28.5684 44.1194 28.5684C44.2639 27.9883 44.3906 27.4464 44.5362 26.9092C45.353 23.8814 46.1723 20.8561 46.9951 17.8295C47.2176 17.0112 47.4378 16.1917 47.6971 15.3854C47.7445 15.2377 47.973 15.059 48.1257 15.0507C48.7934 15.0185 49.4658 15.0233 50.1347 15.0519C51.07 15.0924 51.7104 15.9583 51.4701 16.8778C50.9457 18.88 50.394 20.8751 49.8529 22.8738C49.3995 24.5472 48.9461 26.2219 48.4879 27.8942C48.424 28.1205 48.3293 28.3373 48.2464 28.5684Z" fill="#25044F"/>
    <path d="M51.1967 9.78481C52.3841 9.79672 53.0376 10.7806 52.6351 11.9121C52.2172 13.0841 51.4335 13.7904 50.1928 13.9429C48.9544 14.0954 48.1293 13.1627 48.4193 11.9502C48.7129 10.727 49.937 9.7729 51.1967 9.78481Z" fill="white"/>
    <path d="M1.59953 7.6008H6.11376L2.6038 16.2407C2.6038 16.2407 0.768964 16.2105 0.20793 14.5971C0.0507771 14.118 0.0375813 13.6029 0.169995 13.1163L1.59953 7.6008Z" fill="#D53127"/>
    <path d="M19.1072 7.78595L13.3671 7.68548L14.6588 3.39769C14.7778 3.00517 14.8039 2.59008 14.735 2.18561C14.6661 1.78113 14.5041 1.3985 14.2619 1.06831C14.0198 0.73812 13.7042 0.469534 13.3405 0.284032C12.9767 0.0985306 12.5749 0.00126006 12.1671 0L6.92815 0L0.938463 21.65C0.938463 21.65 -1.20784 30.9087 6.92815 31.7466C6.92815 31.7466 19.79 34.3928 23.9169 18.7526C23.9169 18.7526 26.0951 9.2929 19.1072 7.78595ZM15.1839 18.5235C15.1839 18.5235 14.9543 22.518 11.9595 23.2192C11.5173 23.3311 11.0501 23.2827 10.6398 23.0826C10.1706 22.8415 9.6854 22.3411 9.69738 21.2923C9.70522 20.9891 9.75357 20.6884 9.84113 20.3982L10.9472 16.241H13.966C13.966 16.241 15.3337 16.689 15.1839 18.5235Z" fill="#F47320"/>
    <path d="M24.1927 14.3924C23.6436 8.03708 19.1074 7.78592 19.1074 7.78592L13.3673 7.68546L10.9016 16.2912H13.9124C14.4654 16.3213 15.4737 17.2396 15.1462 18.8651" fill="url(#paint0_linear_2611_38619)"/>
    <defs>
        <linearGradient id="paint0_linear_2611_38619" x1="23.1385" y1="22.8937" x2="14.0112" y2="8.97617" gradientUnits="userSpaceOnUse">
            <stop offset="0.41" stop-color="#F47320"/>
            <stop offset="0.5" stop-color="#F16D21"/>
            <stop offset="0.62" stop-color="#E95C22"/>
            <stop offset="0.75" stop-color="#DC4125"/>
            <stop offset="0.81" stop-color="#D53127"/>
        </linearGradient>
    </defs>
</svg>
