<svg width="126" height="23" viewBox="0 0 126 23" fill="none" xmlns="http://www.w3.org/2000/svg">
  <path d="M86.8662 4.89267C88.3095 4.89267 89.7204 5.32058 90.9205 6.12229C92.1205 6.92401 93.0559 8.06351 93.6082 9.39671C94.1605 10.7299 94.305 12.1969 94.0235 13.6122C93.7419 15.0276 93.0469 16.3276 92.0263 17.348C91.0057 18.3684 89.7055 19.0633 88.2899 19.3448C86.8743 19.6263 85.407 19.4818 84.0736 18.9296C82.7401 18.3774 81.6004 17.4422 80.7986 16.2424C79.9967 15.0425 79.5687 13.6319 79.5687 12.1888C79.5751 10.2557 80.3459 8.4036 81.7131 7.03667C83.0803 5.66975 84.9327 4.89901 86.8662 4.89267V4.89267ZM48.9354 4.89267C50.3787 4.89267 51.7896 5.32058 52.9896 6.12229C54.1897 6.92401 55.125 8.06351 55.6773 9.39671C56.2297 10.7299 56.3742 12.1969 56.0926 13.6122C55.811 15.0276 55.116 16.3276 54.0955 17.348C53.0749 18.3684 51.7746 19.0633 50.359 19.3448C48.9435 19.6263 47.4762 19.4818 46.1427 18.9296C44.8093 18.3774 43.6696 17.4422 42.8677 16.2424C42.0659 15.0425 41.6379 13.6319 41.6379 12.1888C41.6442 10.2557 42.4151 8.4036 43.7823 7.03667C45.1494 5.66975 47.0019 4.89901 48.9354 4.89267V4.89267ZM34.5008 4.81249C35.6415 4.77752 36.7737 5.01968 37.8003 5.51821C38.8268 6.01674 39.7172 6.75677 40.3949 7.67483L40.5152 7.85924L38.751 9.62315C38.3184 8.90629 37.7061 8.31473 36.9748 7.90694C36.2434 7.49915 35.4183 7.28925 34.581 7.298C33.9519 7.29463 33.3286 7.41736 32.7477 7.65893C32.1669 7.90051 31.6404 8.25603 31.1994 8.70449C30.7583 9.15295 30.4116 9.68526 30.1798 10.2699C29.948 10.8546 29.8357 11.4799 29.8496 12.1087C29.8289 12.7392 29.9365 13.3674 30.1659 13.9551C30.3953 14.5429 30.7418 15.0779 31.1842 15.5277C31.6266 15.9776 32.1558 16.3329 32.7397 16.5721C33.3236 16.8113 33.95 16.9294 34.581 16.9193C35.3768 16.9113 36.1598 16.7171 36.8672 16.3523C37.5746 15.9876 38.1867 15.4623 38.6547 14.8187L38.751 14.6743L40.5152 16.3581C39.8365 17.3171 38.9338 18.0958 37.8857 18.6268C36.8376 19.1578 35.6756 19.4248 34.5008 19.4048C32.5592 19.4008 30.6971 18.6333 29.3167 17.2681C27.9363 15.903 27.1484 14.0497 27.1231 12.1087C27.1484 10.1676 27.9363 8.31432 29.3167 6.94917C30.6971 5.58402 32.5592 4.81654 34.5008 4.81249V4.81249ZM118.702 4.89267C119.662 4.88949 120.612 5.07604 121.499 5.44158C122.386 5.80712 123.191 6.34443 123.87 7.02258C124.548 7.70073 125.085 8.50631 125.451 9.39296C125.817 10.2796 126.003 11.2298 126 12.1888C126 12.6779 125.936 13.2311 126 13.3113L114.236 13.2311V13.3113C114.431 14.3709 114.999 15.3256 115.838 16.0022C116.676 16.6788 117.73 17.0326 118.807 16.9995C119.654 17.0016 120.493 16.8241 121.267 16.4786C122.041 16.1331 122.733 15.6275 123.297 14.9951L123.354 14.9389L125.038 16.6227C124.244 17.5162 123.268 18.2292 122.175 18.7133C121.082 19.1974 119.898 19.4414 118.702 19.4289C116.774 19.408 114.929 18.6326 113.565 17.2688C112.201 15.905 111.426 14.0613 111.405 12.1327C111.405 11.1783 111.594 10.2334 111.962 9.35263C112.33 8.47187 112.868 7.6728 113.547 7.00168C114.226 6.33055 115.031 5.80071 115.916 5.44282C116.801 5.08493 117.748 4.90612 118.702 4.91672V4.89267ZM61.1245 5.37373V19.0039H58.5584V5.37373H61.1245ZM71.3891 4.89267C74.7732 4.89267 77.2271 7.2098 77.3234 11.5394V19.0039H74.7572V11.7879C74.7572 8.66102 73.3137 7.298 71.0684 7.298C68.823 7.298 67.0588 9.05389 66.9786 11.6677V18.8837H64.4124V5.29356H66.9786V7.05746C67.5015 6.38589 68.1703 5.84201 68.9344 5.46697C69.6985 5.09192 70.5379 4.89554 71.3891 4.89267ZM103.306 4.89267C106.69 4.89267 109.144 7.2098 109.24 11.5394V19.0039H106.674V11.7879C106.674 8.66102 105.23 7.298 102.985 7.298C100.739 7.298 98.9752 9.05389 98.895 11.6677V18.8837H96.3289V5.29356H98.895V7.05746C99.4179 6.38589 100.087 5.84201 100.851 5.46697C101.615 5.09192 102.454 4.89554 103.306 4.89267ZM86.8662 7.298C86.2343 7.30844 85.6107 7.44324 85.0309 7.69469C84.4511 7.94615 83.9266 8.30933 83.4872 8.76351C83.0479 9.21768 82.7023 9.75395 82.4703 10.3417C82.2382 10.9294 82.1243 11.5571 82.1349 12.1888C82.1349 13.4434 82.6334 14.6467 83.5206 15.5338C84.4079 16.4209 85.6114 16.9193 86.8662 16.9193C88.121 16.9193 89.3245 16.4209 90.2118 15.5338C91.0991 14.6467 91.5975 13.4434 91.5975 12.1888C91.6082 11.5571 91.4942 10.9294 91.2622 10.3417C91.0301 9.75395 90.6846 9.21768 90.2452 8.76351C89.8058 8.30933 89.2813 7.94615 88.7015 7.69469C88.1217 7.44324 87.4981 7.30844 86.8662 7.298V7.298ZM48.9354 7.298C48.3035 7.30844 47.6798 7.44324 47.1001 7.69469C46.5203 7.94615 45.9957 8.30933 45.5564 8.76351C45.117 9.21768 44.7715 9.75395 44.5394 10.3417C44.3074 10.9294 44.1934 11.5571 44.204 12.1888C44.1934 12.8206 44.3074 13.4483 44.5394 14.036C44.7715 14.6237 45.117 15.16 45.5564 15.6142C45.9957 16.0683 46.5203 16.4315 47.1001 16.683C47.6798 16.9344 48.3035 17.0692 48.9354 17.0797C50.2054 17.04 51.41 16.5071 52.2934 15.5939C53.1768 14.6807 53.6694 13.4593 53.6667 12.1888C53.6773 11.5571 53.5633 10.9294 53.3313 10.3417C53.0993 9.75395 52.7537 9.21768 52.3143 8.76351C51.875 8.30933 51.3504 7.94615 50.7706 7.69469C50.1909 7.44324 49.5672 7.30844 48.9354 7.298V7.298ZM118.702 7.21782C117.621 7.20082 116.567 7.5614 115.722 8.2375C114.878 8.9136 114.295 9.86291 114.075 10.922V11.0663H123.378C123.214 9.95967 122.645 8.95322 121.781 8.24214C120.917 7.53107 119.82 7.16603 118.702 7.21782ZM59.8415 0.64325C60.2393 0.662686 60.6156 0.829423 60.8973 1.11101C61.1789 1.39259 61.3457 1.76888 61.3651 2.16663C61.3651 2.46792 61.2758 2.76245 61.1083 3.01297C60.9409 3.26349 60.703 3.45874 60.4246 3.57404C60.1461 3.68934 59.8398 3.71951 59.5442 3.66073C59.2487 3.60195 58.9772 3.45686 58.7641 3.24382C58.551 3.03077 58.4059 2.75933 58.3471 2.46382C58.2883 2.16832 58.3185 1.86202 58.4338 1.58365C58.5491 1.30529 58.7444 1.06738 58.995 0.899985C59.2455 0.732594 59.5401 0.64325 59.8415 0.64325V0.64325Z" fill="#25044F"/>
  <path d="M19.5084 11.4008L22.1652 7.75366C21.3019 5.1924 19.558 3.02177 17.2449 1.62916C14.9317 0.23656 12.1998 -0.287398 9.53675 0.150801C6.87365 0.588999 4.45265 1.96084 2.70582 4.02149C0.958991 6.08214 0 8.69751 0 11.4008C0 14.1042 0.958991 16.7195 2.70582 18.7802C4.45265 20.8408 6.87365 22.2127 9.53675 22.6509C12.1998 23.0891 14.9317 22.5651 17.2449 21.1725C19.558 19.7799 21.3019 17.6093 22.1652 15.048L19.5084 11.4008ZM17.2321 14.7668C16.0679 16.6593 13.7634 18.0242 11.3787 18.0242C10.2427 18.0234 9.12605 17.7295 8.13642 17.1708C7.14679 16.6121 6.31756 15.8074 5.72866 14.8344C5.13976 13.8613 4.81107 12.7527 4.77426 11.6154C4.73746 10.4781 4.99379 9.35051 5.51854 8.3413C6.04329 7.33208 6.81876 6.47531 7.77019 5.85358C8.72161 5.23185 9.8169 4.86613 10.9505 4.7917C12.084 4.71726 13.2176 4.93661 14.2419 5.4286C15.2662 5.92058 16.1467 6.66861 16.7985 7.60057L19.4 11.4008L17.2321 14.7668Z" fill="url(#paint0_linear_2611_38586)"/>
  <defs>
    <linearGradient id="paint0_linear_2611_38586" x1="8.81399" y1="0.511433" x2="13.8531" y2="22.0607" gradientUnits="userSpaceOnUse">
      <stop stop-color="#01AEFF"/>
      <stop offset="1" stop-color="#0157FF"/>
    </linearGradient>
  </defs>
</svg>
