<svg width="100%" height="100%" viewBox="0 0 112 92" fill="none" xmlns="http://www.w3.org/2000/svg">
    <path d="M76.5362 29.9489C76.5362 29.9489 72.4523 25.6254 63.1797 24.9996V26.3648C63.1797 26.3648 68.2655 26.0693 74.5611 32.2663C69.809 28.8475 63.0299 26.7059 55.4999 26.7059C47.97 26.7059 41.1909 28.8472 36.4388 32.2663C42.7344 26.0693 47.8202 26.3648 47.8202 26.3648V24.9996C38.5476 25.6254 34.4637 29.9489 34.4637 29.9489C27.398 39.05 26.9999 58.9601 26.9999 58.9601C33.6555 66.9808 42.018 65.9573 42.018 65.9573L45.0898 61.5204C41.1285 60.4488 38.2996 57.9885 36.5994 56.0727C41.3429 59.4253 48.0539 61.5204 55.4999 61.5204C62.946 61.5204 69.657 59.4256 74.4005 56.0727C72.7003 57.9882 69.8714 60.4488 65.9101 61.5204L68.9818 65.9573C68.9818 65.9573 77.3443 66.9814 83.9999 58.9601C84.0006 58.9598 83.6022 39.05 76.5362 29.9489ZM46.626 53.3284C43.9555 53.3284 41.7907 51.0284 41.7907 48.1907C41.7907 45.3534 43.9555 43.0531 46.626 43.0531C49.2965 43.0531 51.4614 45.3534 51.4614 48.1907C51.4614 51.0281 49.2965 53.3284 46.626 53.3284ZM64.3745 53.3284C61.704 53.3284 59.5392 51.0284 59.5392 48.1907C59.5392 45.3534 61.704 43.0531 64.3745 43.0531C67.045 43.0531 69.2099 45.3534 69.2099 48.1907C69.2099 51.0281 67.0454 53.3284 64.3745 53.3284Z" fill="#872AB0"/>
    <path fill-rule="evenodd" clip-rule="evenodd" d="M83.5815 72.8101C98.5422 72.8101 110.662 60.8022 110.662 46.0001H111.662C111.662 61.3638 99.0852 73.8101 83.5815 73.8101C68.0778 73.8101 55.5012 61.3638 55.5012 46.0001C55.5012 30.6365 68.0778 18.1902 83.5815 18.1902V19.1902C68.6208 19.1902 56.5012 31.1981 56.5012 46.0001C56.5012 60.8022 68.6208 72.8101 83.5815 72.8101Z" fill="#23024D"/>
    <path fill-rule="evenodd" clip-rule="evenodd" d="M111.584 44.1707C111.636 44.8641 111.662 45.5644 111.662 46.2708H110.662C110.662 45.5891 110.637 44.9133 110.587 44.2444L111.584 44.1707ZM110.093 36.9933C110.551 38.3034 110.915 39.6578 111.177 41.0484L110.194 41.2332C109.942 39.8925 109.591 38.5866 109.149 37.3236L110.093 36.9933ZM106.785 30.451C107.572 31.6034 108.275 32.8174 108.887 34.0844L107.986 34.519C107.397 33.2972 106.718 32.1265 105.959 31.0151L106.785 30.451ZM101.898 24.9864C102.96 25.9005 103.952 26.8927 104.866 27.954L104.108 28.6066C103.226 27.5829 102.269 26.6258 101.246 25.744L101.898 24.9864ZM95.7678 20.9655C97.0348 21.5768 98.2489 22.2804 99.4012 23.0675L98.8372 23.8933C97.7258 23.1341 96.555 22.4556 95.3333 21.8662L95.7678 20.9655ZM88.8039 18.6753C90.1944 18.9368 91.5488 19.3009 92.859 19.7593L92.5287 20.7032C91.2656 20.2613 89.9598 19.9102 88.619 19.658L88.8039 18.6753ZM83.5815 18.1904C84.2878 18.1904 84.9882 18.2165 85.6816 18.2678L85.6078 19.2651C84.9389 19.2156 84.2632 19.1904 83.5815 19.1904V18.1904Z" fill="#23024D"/>
    <path fill-rule="evenodd" clip-rule="evenodd" d="M28.5801 19.1902C13.6194 19.1902 1.49976 31.198 1.49976 46.0001H0.499756C0.499756 30.6365 13.0764 18.1902 28.5801 18.1902C44.0837 18.1902 56.6604 30.6365 56.6604 46.0001C56.6604 61.3637 44.0837 73.81 28.5801 73.81V72.81C43.5408 72.81 55.6604 60.8022 55.6604 46.0001C55.6604 31.198 43.5408 19.1902 28.5801 19.1902Z" fill="#23024D"/>
    <path fill-rule="evenodd" clip-rule="evenodd" d="M93.4029 24.5H95.4548V23.5H93.4029V24.5ZM86.2211 24.5H90.325V23.5H86.2211V24.5ZM79.0392 24.5H83.1431V23.5H79.0392V24.5ZM71.8574 24.5H75.9613V23.5H71.8574V24.5ZM64.6756 24.5H68.7795V23.5H64.6756V24.5ZM57.4938 24.5H61.5977V23.5H57.4938V24.5ZM50.312 24.5H54.4159V23.5H50.312V24.5ZM43.1301 24.5H47.234V23.5H43.1301V24.5ZM35.9483 24.5H40.0522V23.5H35.9483V24.5ZM28.7665 24.5H32.8704V23.5H28.7665V24.5ZM21.5847 24.5H25.6886V23.5H21.5847V24.5ZM16.4548 24.5H18.5068V23.5H16.4548V24.5Z" fill="#000633"/>
    <path fill-rule="evenodd" clip-rule="evenodd" d="M94.9548 67V24.5H95.9548V68H84.9773V74.6447L77.8038 68H15.9548V24.5H16.9548V67H78.1957L83.9773 72.3553V67H94.9548Z" fill="#000633"/>
    <path fill-rule="evenodd" clip-rule="evenodd" d="M0.577125 47.8296C0.525845 47.1362 0.499756 46.4358 0.499756 45.7295H1.49976C1.49976 46.4112 1.52493 47.0869 1.5744 47.7558L0.577125 47.8296ZM2.06866 55.007C1.61022 53.6968 1.24615 52.3424 0.98458 50.9519L1.96734 50.767C2.21955 52.1078 2.57057 53.4136 3.01254 54.6767L2.06866 55.007ZM5.37684 61.5492C4.5897 60.3969 3.88612 59.1828 3.27485 57.9158L4.17552 57.4813C4.76492 58.703 5.44341 59.8738 6.20258 60.9852L5.37684 61.5492ZM10.2633 67.0139C9.20198 66.0997 8.20981 65.1076 7.29567 64.0463L8.05335 63.3937C8.93513 64.4174 9.89218 65.3744 10.9159 66.2562L10.2633 67.0139ZM16.3938 71.0347C15.1267 70.4234 13.9127 69.7199 12.7603 68.9327L13.3244 68.107C14.4358 68.8661 15.6065 69.5446 16.8283 70.134L16.3938 71.0347ZM23.3577 73.325C21.9671 73.0634 20.6127 72.6993 19.3026 72.2409L19.6329 71.297C20.896 71.739 22.2018 72.09 23.5425 72.3422L23.3577 73.325ZM28.5801 73.8098C27.8737 73.8098 27.1734 73.7837 26.48 73.7324L26.5537 72.7352C27.2226 72.7846 27.8984 72.8098 28.5801 72.8098V73.8098Z" fill="#23024D"/>
    <path fill-rule="evenodd" clip-rule="evenodd" d="M56.2267 90.0686C31.5197 90.0686 11.499 70.2372 11.499 45.7843H10.499C10.499 70.7988 30.9767 91.0686 56.2267 91.0686C81.4768 91.0686 101.954 70.7988 101.954 45.7843C101.954 20.7698 81.4768 0.499969 56.2267 0.499969V1.49997C80.9338 1.49997 100.954 21.3314 100.954 45.7843C100.954 70.2372 80.9338 90.0686 56.2267 90.0686Z" fill="#23024D"/>
    <path fill-rule="evenodd" clip-rule="evenodd" d="M10.5443 44.1758C10.5142 44.8564 10.499 45.5408 10.499 46.2288H11.499C11.499 45.5555 11.5139 44.8858 11.5433 44.2199L10.5443 44.1758ZM11.4197 37.0543C11.1487 38.3851 10.9354 39.7368 10.7827 41.1068L11.7766 41.2176C11.9259 39.8775 12.1345 38.5554 12.3996 37.2538L11.4197 37.0543ZM13.4036 30.1563C12.9249 31.4311 12.5015 32.733 12.1363 34.0589L13.1004 34.3245C13.4576 33.0277 13.8716 31.7546 14.3398 30.5079L13.4036 30.1563ZM16.4488 23.6576C15.7743 24.8438 15.1513 26.063 14.5829 27.3124L15.4931 27.7265C16.0491 26.5046 16.6584 25.3121 17.3181 24.1519L16.4488 23.6576ZM20.474 17.717C19.6213 18.7849 18.8154 19.8919 18.0594 21.0348L18.8935 21.5865C19.6329 20.4685 20.4213 19.3856 21.2554 18.341L20.474 17.717ZM25.3755 12.476C24.3657 13.3995 23.3975 14.3677 22.474 15.3775L23.2119 16.0524C24.1153 15.0645 25.0625 14.1173 26.0504 13.2139L25.3755 12.476ZM31.0328 8.06144C29.8898 8.81739 28.7829 9.62329 27.715 10.476L28.3389 11.2575C29.3836 10.4233 30.4665 9.63495 31.5845 8.89551L31.0328 8.06144ZM37.3104 4.58494C36.061 5.15335 34.8417 5.77632 33.6556 6.45079L34.1499 7.32008C35.3101 6.66038 36.5026 6.05108 37.7245 5.49517L37.3104 4.58494ZM44.0569 2.13834C42.731 2.50353 41.4291 2.92693 40.1543 3.40561L40.5058 4.34178C41.7526 3.87365 43.0257 3.45959 44.3225 3.10245L44.0569 2.13834ZM51.1048 0.784725C49.7348 0.937439 48.3831 1.15069 47.0523 1.42175L47.2518 2.40163C48.5534 2.13653 49.8755 1.92795 51.2156 1.77857L51.1048 0.784725ZM56.2267 0.501038C55.5388 0.501038 54.8544 0.516235 54.1738 0.54631L54.2179 1.54533C54.8838 1.51591 55.5535 1.50104 56.2267 1.50104V0.501038Z" fill="#000633"/>
</svg>
