<svg width="18" height="12" viewBox="0 0 18 12" fill="none" xmlns="http://www.w3.org/2000/svg">
    <path d="M15.643 1.44856C15.643 1.44856 14.3534 0.183144 11.4252 0V0.399561C11.4252 0.399561 13.0312 0.313087 15.0193 2.12683C13.5187 1.12621 11.3779 0.499383 9 0.499383C6.62212 0.499383 4.48135 1.12611 2.9807 2.12683C4.96877 0.313087 6.57482 0.399561 6.57482 0.399561V0C3.64662 0.183144 2.35698 1.44856 2.35698 1.44856C0.125704 4.11231 0 9.93965 0 9.93965C2.10177 12.2872 4.74256 11.9876 4.74256 11.9876L5.71259 10.689C4.46165 10.3754 3.56832 9.65529 3.0314 9.09455C4.52935 10.0758 6.64862 10.689 9 10.689C11.3514 10.689 13.4706 10.0759 14.9686 9.09455C14.4317 9.6552 13.5384 10.3754 12.2874 10.689L13.2574 11.9876C13.2574 11.9876 15.8982 12.2873 18 9.93965C18.0002 9.93956 17.8744 4.11231 15.643 1.44856ZM6.19771 8.29135C5.35438 8.29135 4.67076 7.61818 4.67076 6.78764C4.67076 5.95719 5.35438 5.28393 6.19771 5.28393C7.04103 5.28393 7.72466 5.95719 7.72466 6.78764C7.72466 7.61809 7.04103 8.29135 6.19771 8.29135ZM11.8025 8.29135C10.9592 8.29135 10.2755 7.61818 10.2755 6.78764C10.2755 5.95719 10.9592 5.28393 11.8025 5.28393C12.6458 5.28393 13.3294 5.95719 13.3294 6.78764C13.3294 7.61809 12.6459 8.29135 11.8025 8.29135Z" fill="#23024D"/>
</svg>