<svg width="16" height="11" viewBox="0 0 16 11" fill="none" xmlns="http://www.w3.org/2000/svg">
    <path d="M10.8105 5.32313L15.9535 8.5744V1.93457L10.8105 5.32313Z" fill="#23024D"/>
    <path d="M0.699219 1.93457V8.5744L5.84213 5.32313L0.699219 1.93457Z" fill="#23024D"/>
    <path
            d="M14.9997 0H1.65141C1.17564 0 0.798071 0.354684 0.726562 0.811387L8.32556 5.81796L15.9246 0.811387C15.8531 0.354684 15.4755 0 14.9997 0Z"
            fill="#23024D"/>
    <path
            d="M9.94378 5.89353L8.59465 6.78215C8.51455 6.83459 8.42398 6.86033 8.33245 6.86033C8.24091 6.86033 8.15034 6.83459 8.07025 6.78215L6.72111 5.89258L0.735352 9.67873C0.808767 10.1316 1.18443 10.4834 1.65829 10.4834H15.0066C15.4805 10.4834 15.8561 10.1316 15.9295 9.67873L9.94378 5.89353Z"
            fill="#23024D"/>
</svg>