<svg width="100%" height="100%" viewBox="0 0 624 578" fill="none" xmlns="http://www.w3.org/2000/svg">
    <rect y="0.5" width="624" height="282" rx="10" fill="#FAFAFB"/>
    <g opacity="0.2">
        <path d="M-51.4881 126.605L-36.8258 181.361L-35.5009 181.006L-50.1633 126.25L-51.4881 126.605Z" fill="#D9BDE6"/>
        <path d="M-110.291 131.894L-105.365 140.432L-104.178 139.745L-109.104 131.207L-110.291 131.894Z" fill="#D9BDE6"/>
        <path d="M135.699 407.507L144.231 412.436L144.917 411.248L136.385 406.318L135.699 407.507Z" fill="#D9BDE6"/>
        <path d="M151.345 416.544L173.386 429.278L174.072 428.09L152.03 415.356L151.345 416.544Z" fill="#D9BDE6"/>
        <path d="M203.25 446.531L181.208 433.796L181.894 432.608L203.936 445.342L203.25 446.531Z" fill="#D9BDE6"/>
        <path d="M-88.538 169.603L-101.264 147.547L-100.076 146.861L-87.3502 168.917L-88.538 169.603Z" fill="#D9BDE6"/>
        <path d="M-84.0178 177.43L-71.2918 199.486L-70.104 198.8L-82.83 176.743L-84.0178 177.43Z" fill="#D9BDE6"/>
        <path d="M-148.66 287.565L-142.316 289.267L-141.961 287.941L-148.305 286.24L-148.66 287.565Z" fill="#D9BDE6"/>
        <path d="M-154.209 286.077L-170.864 281.611L-170.509 280.286L-153.854 284.751L-154.209 286.077Z" fill="#D9BDE6"/>
        <path d="M-193.071 275.658L-176.417 280.123L-176.062 278.797L-192.716 274.332L-193.071 275.658Z" fill="#D9BDE6"/>
        <path d="M104.127 504.022L100.843 498.33L102.03 497.644L105.315 503.335L104.127 504.022Z" fill="#D9BDE6"/>
        <path d="M89.3475 478.408L97.9682 493.349L99.156 492.663L90.5352 477.721L89.3475 478.408Z" fill="#D9BDE6"/>
        <path d="M86.4735 473.427L77.8527 458.486L79.0405 457.8L87.6613 472.741L86.4735 473.427Z" fill="#D9BDE6"/>
        <path d="M-160.954 235.812L-182.996 223.078L-182.31 221.889L-160.268 234.624L-160.954 235.812Z" fill="#D9BDE6"/>
        <path d="M-153.134 240.331L-131.092 253.065L-130.406 251.877L-152.448 239.143L-153.134 240.331Z" fill="#D9BDE6"/>
        <path d="M129.237 454.864L111.24 436.855L112.21 435.885L130.207 453.894L129.237 454.864Z" fill="#D9BDE6"/>
        <path d="M135.625 461.255L153.622 479.264L154.592 478.293L136.595 460.284L135.625 461.255Z" fill="#D9BDE6"/>
        <path d="M-116.957 208.508L-107.668 217.803L-106.698 216.832L-115.987 207.537L-116.957 208.508Z" fill="#D9BDE6"/>
        <path d="M-125.088 200.375L-150.052 175.395L-149.082 174.425L-124.118 199.405L-125.088 200.375Z" fill="#D9BDE6"/>
        <path d="M-183.137 142.281L-158.754 166.681L-157.784 165.71L-182.168 141.311L-183.137 142.281Z" fill="#D9BDE6"/>
        <path d="M68.292 574.291L64.8921 561.594L66.2169 561.239L69.6169 573.936L68.292 574.291Z" fill="#D9BDE6"/>
        <path d="M52.7831 516.36L61.9205 550.484L63.2453 550.129L54.1079 516.005L52.7831 516.36Z" fill="#D9BDE6"/>
        <path d="M49.5966 504.457L40.6717 471.127L41.9966 470.772L50.9215 504.102L49.5966 504.457Z" fill="#D9BDE6"/>
        <path d="M203.386 382.543L148.666 367.871L149.021 366.545L203.741 381.217L203.386 382.543Z" fill="#D9BDE6"/>
        <path d="M-136.101 412.439L-127.569 407.509L-128.254 406.321L-136.787 411.25L-136.101 412.439Z" fill="#D9BDE6"/>
        <path d="M-143.214 416.543L-165.256 429.277L-165.942 428.089L-143.9 415.354L-143.214 416.543Z" fill="#D9BDE6"/>
        <path d="M-195.118 446.531L-173.076 433.796L-173.762 432.608L-195.804 445.342L-195.118 446.531Z" fill="#D9BDE6"/>
        <path d="M118.423 131.894L113.497 140.432L112.309 139.745L117.235 131.207L118.423 131.894Z" fill="#D9BDE6"/>
        <path d="M96.6642 169.603L109.39 147.547L108.202 146.861L95.4764 168.917L96.6642 169.603Z" fill="#D9BDE6"/>
        <path d="M92.1507 177.43L79.4248 199.486L78.237 198.8L90.9629 176.743L92.1507 177.43Z" fill="#D9BDE6"/>
        <path d="M156.792 287.565L150.447 289.267L150.092 287.941L156.437 286.24L156.792 287.565Z" fill="#D9BDE6"/>
        <path d="M162.34 286.077L178.994 281.611L178.639 280.286L161.985 284.751L162.34 286.077Z" fill="#D9BDE6"/>
        <path d="M201.202 275.658L184.548 280.123L184.193 278.797L200.847 274.332L201.202 275.658Z" fill="#D9BDE6"/>
        <path d="M-95.9965 504.022L-92.7124 498.33L-93.9002 497.644L-97.1843 503.335L-95.9965 504.022Z" fill="#D9BDE6"/>
        <path d="M-81.2172 478.408L-89.838 493.349L-91.0258 492.663L-82.405 477.721L-81.2172 478.408Z" fill="#D9BDE6"/>
        <path d="M-78.3432 473.427L-69.7224 458.486L-70.9102 457.8L-79.531 472.741L-78.3432 473.427Z" fill="#D9BDE6"/>
        <path d="M169.082 235.813L191.123 223.079L190.438 221.891L168.396 234.625L169.082 235.813Z" fill="#D9BDE6"/>
        <path d="M161.263 240.331L139.221 253.065L138.535 251.877L160.577 239.143L161.263 240.331Z" fill="#D9BDE6"/>
        <path d="M-121.11 454.864L-103.112 436.855L-104.082 435.885L-122.079 453.894L-121.11 454.864Z" fill="#D9BDE6"/>
        <path d="M-127.499 461.254L-145.496 479.262L-146.466 478.292L-128.469 460.283L-127.499 461.254Z" fill="#D9BDE6"/>
        <path d="M125.083 208.508L115.794 217.803L114.824 216.832L124.113 207.537L125.083 208.508Z" fill="#D9BDE6"/>
        <path d="M133.214 200.375L158.178 175.395L157.208 174.425L132.245 199.405L133.214 200.375Z" fill="#D9BDE6"/>
        <path d="M191.264 142.281L166.88 166.681L165.911 165.71L190.294 141.311L191.264 142.281Z" fill="#D9BDE6"/>
        <path d="M-60.1604 574.291L-56.7605 561.594L-58.0853 561.239L-61.4852 573.936L-60.1604 574.291Z" fill="#D9BDE6"/>
        <path d="M-44.6515 516.36L-53.7889 550.484L-55.1137 550.129L-45.9763 516.005L-44.6515 516.36Z" fill="#D9BDE6"/>
        <path d="M-41.465 504.457L-32.5401 471.127L-33.865 470.772L-42.7899 504.102L-41.465 504.457Z" fill="#D9BDE6"/>
        <path d="M-195.255 382.543L-140.534 367.871L-140.889 366.545L-195.61 381.217L-195.255 382.543Z" fill="#D9BDE6"/>
        <path d="M59.617 126.605L44.9547 181.361L43.6299 181.006L58.2922 126.25L59.617 126.605Z" fill="#D9BDE6"/>
        <path d="M-238.175 329.955H-248V328.834H-238.175V329.955Z" fill="#D9BDE6"/>
        <path d="M-192.983 329.955H-228.352V328.834H-192.983V329.955Z" fill="#D9BDE6"/>
        <path d="M234.386 329.955H94.4582H-45.4699L-181.193 329.955V328.834L-45.4699 328.834H94.4582H234.386V329.955Z" fill="#D9BDE6"/>
        <path d="M292.352 329.955L256.983 329.955V328.834L292.352 328.834V329.955Z" fill="#D9BDE6"/>
        <path d="M312 329.955H302.175V328.834H312V329.955Z" fill="#D9BDE6"/>
        <path d="M5.17606 83.5L5.17606 92.1639H4.0657L4.0657 83.5H5.17606Z" fill="#D9BDE6"/>
        <path d="M5.17606 100.828L5.17606 132.018H4.0657L4.0657 100.828H5.17606Z" fill="#D9BDE6"/>
        <path d="M5.17603 151.946L5.17606 518.43H4.0657L4.06567 151.946H5.17603Z" fill="#D9BDE6"/>
        <path d="M5.17606 528.827L5.17606 560.017H4.0657L4.0657 528.827H5.17606Z" fill="#D9BDE6"/>
        <path d="M5.17606 568.681L5.17606 577.345H4.0657L4.0657 568.681H5.17606Z" fill="#D9BDE6"/>
        <path fill-rule="evenodd" clip-rule="evenodd" d="M2.30302 199.99C3.09251 199.976 3.88368 199.969 4.67648 199.969C5.46928 199.969 6.26044 199.976 7.04993 199.99L7.02957 201.151C6.24687 201.137 5.46248 201.131 4.67648 201.131C3.89047 201.131 3.10609 201.137 2.32339 201.151L2.30302 199.99ZM10.591 200.099C12.1733 200.168 13.7484 200.265 15.3158 200.389L15.224 201.547C13.6702 201.424 12.1088 201.328 10.5402 201.259L10.591 200.099ZM-5.96284 200.389C-4.39545 200.265 -2.82038 200.168 -1.23809 200.099L-1.18721 201.259C-2.75583 201.328 -4.31725 201.424 -5.87101 201.547L-5.96284 200.389ZM18.8425 200.716C20.4161 200.883 21.9815 201.078 23.5381 201.299L23.3745 202.449C21.8315 202.229 20.2799 202.037 18.72 201.871L18.8425 200.716ZM-14.1852 201.299C-12.6285 201.078 -11.0632 200.883 -9.48956 200.716L-9.36703 201.871C-10.9269 202.037 -12.4786 202.229 -14.0216 202.449L-14.1852 201.299ZM27.0447 201.846C28.6021 202.111 30.1502 202.402 31.6885 202.72L31.4533 203.857C29.9285 203.542 28.394 203.253 26.8503 202.991L27.0447 201.846ZM-22.3355 202.72C-20.7972 202.402 -19.2491 202.111 -17.6917 201.846L-17.4974 202.991C-19.0411 203.253 -20.5756 203.542 -22.1003 203.857L-22.3355 202.72ZM-30.3869 204.651C-28.8699 204.236 -27.342 203.848 -25.8036 203.486L-25.5379 204.617C-27.0627 204.975 -28.5771 205.36 -30.0808 205.771L-30.3869 204.651ZM35.1566 203.486C36.6949 203.848 38.2229 204.236 39.7399 204.651L39.4337 205.771C37.9301 205.36 36.4156 204.975 34.8909 204.617L35.1566 203.486ZM-38.2979 207.083C-36.8084 206.573 -35.3069 206.089 -33.794 205.631L-33.4577 206.743C-34.9573 207.197 -36.4456 207.676 -37.9218 208.181L-38.2979 207.083ZM43.1469 205.631C44.6599 206.089 46.1614 206.573 47.6508 207.083L47.2748 208.181C45.7985 207.676 44.3103 207.197 42.8107 206.743L43.1469 205.631ZM-46.0379 210.007C-44.5837 209.404 -43.1164 208.827 -41.6365 208.276L-41.231 209.364C-42.6978 209.911 -44.1522 210.483 -45.5936 211.079L-46.0379 210.007ZM50.9894 208.276C52.4694 208.827 53.9367 209.404 55.3909 210.007L54.9466 211.079C53.5052 210.483 52.0508 209.911 50.5839 209.364L50.9894 208.276ZM-53.5814 213.412C-52.1678 212.72 -50.74 212.052 -49.2985 211.409L-48.8253 212.469C-50.2542 213.107 -51.6694 213.769 -53.0706 214.455L-53.5814 213.412ZM58.6514 211.409C60.093 212.052 61.5208 212.72 62.9344 213.412L62.4235 214.455C61.0224 213.769 59.6072 213.107 58.1783 212.469L58.6514 211.409ZM-60.8968 217.285C-59.5285 216.504 -58.1449 215.748 -56.7465 215.016L-56.2077 216.044C-57.5938 216.77 -58.9653 217.52 -60.3215 218.293L-60.8968 217.285ZM66.0994 215.016C67.4979 215.748 68.8815 216.504 70.2497 217.285L69.6745 218.293C68.3183 217.52 66.9468 216.77 65.5607 216.044L66.0994 215.016ZM-67.9537 221.607C-66.6364 220.742 -65.3026 219.9 -63.9529 219.082L-63.3508 220.075C-64.6886 220.886 -66.0107 221.721 -67.3165 222.578L-67.9537 221.607ZM73.3059 219.082C74.6556 219.9 75.9894 220.742 77.3067 221.607L76.6695 222.578C75.3637 221.721 74.0416 220.886 72.7037 220.075L73.3059 219.082ZM-74.7267 226.362C-73.4662 225.417 -72.1882 224.494 -70.8931 223.593L-70.2301 224.546C-71.5138 225.439 -72.7806 226.354 -74.0301 227.291L-74.7267 226.362ZM80.2461 223.593C81.5411 224.494 82.8192 225.417 84.0797 226.362L83.3831 227.291C82.1336 226.354 80.8668 225.439 79.5831 224.546L80.2461 223.593ZM-81.1907 231.531C-79.9912 230.509 -78.773 229.507 -77.5368 228.528L-76.8156 229.438C-78.0409 230.409 -79.2484 231.402 -80.4374 232.415L-81.1907 231.531ZM86.8898 228.528C88.126 229.507 89.3441 230.509 90.5436 231.531L89.7904 232.415C88.6014 231.402 87.3939 230.409 86.1685 229.438L86.8898 228.528ZM-87.319 237.093C-86.1852 235.997 -85.0318 234.922 -83.8592 233.867L-83.0826 234.731C-84.2449 235.776 -85.3882 236.842 -86.512 237.928L-87.319 237.093ZM93.2122 233.867C94.3848 234.922 95.5382 235.997 96.6719 237.093L95.865 237.928C94.7412 236.842 93.5979 235.776 92.4356 234.731L93.2122 233.867ZM-93.0883 243.026C-92.025 241.862 -90.941 240.717 -89.8368 239.591L-89.0078 240.405C-90.1023 241.52 -91.1768 242.655 -92.2309 243.809L-93.0883 243.026ZM99.1898 239.591C100.294 240.717 101.378 241.862 102.441 243.026L101.584 243.809C100.53 242.655 99.4553 241.52 98.3608 240.405L99.1898 239.591ZM-98.4757 249.308C-97.487 248.08 -96.4767 246.869 -95.4452 245.677L-94.567 246.437C-95.5895 247.619 -96.5909 248.819 -97.5709 250.036L-98.4757 249.308ZM104.798 245.677C105.83 246.869 106.84 248.08 107.829 249.308L106.924 250.036C105.944 248.819 104.942 247.619 103.92 246.437L104.798 245.677ZM-103.459 255.916C-102.549 254.627 -101.617 253.356 -100.662 252.102L-99.7384 252.806C-100.685 254.048 -101.609 255.309 -102.511 256.586L-103.459 255.916ZM110.015 252.102C110.97 253.356 111.902 254.627 112.812 255.916L111.864 256.586C110.962 255.309 110.038 254.048 109.091 252.806L110.015 252.102ZM-108.019 262.824C-107.191 261.48 -106.34 260.152 -105.466 258.841L-104.5 259.485C-105.366 260.785 -106.21 262.101 -107.03 263.433L-108.019 262.824ZM114.819 258.841C115.693 260.152 116.544 261.48 117.372 262.824L116.383 263.433C115.563 262.101 114.719 260.785 113.853 259.485L114.819 258.841ZM-112.133 270.004C-111.392 268.61 -110.626 267.232 -109.837 265.868L-108.832 266.45C-109.614 267.802 -110.373 269.168 -111.108 270.549L-112.133 270.004ZM119.19 265.868C119.979 267.232 120.745 268.611 121.486 270.004L120.461 270.549C119.726 269.168 118.967 267.802 118.185 266.45L119.19 265.868ZM-115.785 277.43C-115.134 275.993 -114.457 274.568 -113.756 273.159L-112.716 273.676C-113.411 275.073 -114.082 276.485 -114.727 277.909L-115.785 277.43ZM123.109 273.159C123.81 274.569 124.487 275.993 125.138 277.43L124.08 277.91C123.435 276.485 122.764 275.073 122.069 273.676L123.109 273.159ZM-118.959 285.075C-118.401 283.598 -117.816 282.134 -117.206 280.683L-116.135 281.133C-116.74 282.571 -117.319 284.023 -117.873 285.486L-118.959 285.075ZM126.559 280.683C127.169 282.134 127.753 283.598 128.312 285.075L127.226 285.486C126.672 284.023 126.093 282.572 125.488 281.134L126.559 280.683ZM-121.641 292.906C-121.177 291.395 -120.686 289.896 -120.169 288.409L-119.072 288.79C-119.584 290.264 -120.071 291.75 -120.531 293.247L-121.641 292.906ZM129.522 288.409C130.039 289.896 130.53 291.395 130.994 292.906L129.884 293.247C129.424 291.75 128.937 290.264 128.425 288.79L129.522 288.409ZM-123.817 300.888C-123.45 299.351 -123.056 297.825 -122.635 296.309L-121.516 296.62C-121.933 298.122 -122.324 299.635 -122.687 301.158L-123.817 300.888ZM131.988 296.309C132.409 297.825 132.803 299.351 133.17 300.888L132.04 301.158C131.677 299.635 131.286 298.122 130.869 296.62L131.988 296.309ZM-125.481 308.996C-125.213 307.439 -124.917 305.891 -124.594 304.354L-123.458 304.592C-123.778 306.116 -124.071 307.65 -124.337 309.193L-125.481 308.996ZM133.947 304.354C134.27 305.891 134.566 307.439 134.834 308.996L133.69 309.193C133.424 307.65 133.131 306.116 132.811 304.592L133.947 304.354ZM-126.629 317.196C-126.459 315.622 -126.262 314.058 -126.037 312.501L-124.887 312.667C-125.11 314.21 -125.306 315.761 -125.474 317.32L-126.629 317.196ZM135.39 312.501C135.615 314.058 135.812 315.622 135.981 317.196L134.827 317.32C134.659 315.761 134.463 314.21 134.24 312.667L135.39 312.501ZM-127.256 325.447C-127.185 323.865 -127.087 322.29 -126.96 320.722L-125.803 320.816C-125.928 322.369 -126.026 323.93 -126.096 325.499L-127.256 325.447ZM136.313 320.723C136.44 322.29 136.538 323.865 136.609 325.447L135.449 325.499C135.379 323.931 135.281 322.369 135.156 320.816L136.313 320.723ZM-127.387 331.362C-127.387 330.569 -127.38 329.778 -127.366 328.988L-126.205 329.009C-126.219 329.792 -126.226 330.576 -126.226 331.362C-126.226 332.148 -126.219 332.932 -126.205 333.715L-127.366 333.736C-127.38 332.946 -127.387 332.155 -127.387 331.362ZM136.719 328.989C136.733 329.778 136.74 330.569 136.74 331.362C136.74 332.155 136.733 332.946 136.719 333.736L135.558 333.715C135.572 332.932 135.579 332.148 135.579 331.362C135.579 330.576 135.572 329.792 135.558 329.009L136.719 328.989ZM-126.96 342.002C-127.087 340.434 -127.185 338.859 -127.256 337.277L-126.096 337.225C-126.026 338.794 -125.928 340.355 -125.803 341.908L-126.96 342.002ZM136.609 337.277C136.538 338.859 136.44 340.434 136.313 342.002L135.156 341.908C135.281 340.355 135.379 338.794 135.449 337.225L136.609 337.277ZM-126.037 350.223C-126.262 348.667 -126.459 347.102 -126.629 345.528L-125.474 345.404C-125.306 346.963 -125.11 348.514 -124.887 350.057L-126.037 350.223ZM135.981 345.529C135.812 347.102 135.615 348.667 135.39 350.223L134.24 350.057C134.463 348.514 134.659 346.963 134.827 345.404L135.981 345.529ZM-124.594 358.37C-124.917 356.833 -125.213 355.285 -125.481 353.729L-124.337 353.531C-124.071 355.074 -123.778 356.608 -123.458 358.132L-124.594 358.37ZM134.834 353.729C134.566 355.285 134.27 356.833 133.947 358.37L132.811 358.132C133.131 356.608 133.424 355.074 133.69 353.531L134.834 353.729ZM-122.635 366.415C-123.056 364.899 -123.45 363.373 -123.817 361.836L-122.687 361.566C-122.324 363.089 -121.933 364.602 -121.516 366.105L-122.635 366.415ZM133.17 361.836C132.803 363.373 132.409 364.899 131.988 366.415L130.869 366.105C131.286 364.602 131.677 363.089 132.04 361.566L133.17 361.836ZM-120.169 374.316C-120.686 372.828 -121.177 371.329 -121.641 369.818L-120.531 369.477C-120.071 370.974 -119.584 372.46 -119.072 373.934L-120.169 374.316ZM130.994 369.818C130.53 371.329 130.039 372.828 129.522 374.316L128.425 373.934C128.937 372.46 129.424 370.974 129.884 369.477L130.994 369.818ZM-117.206 382.041C-117.816 380.59 -118.401 379.126 -118.959 377.649L-117.873 377.238C-117.319 378.702 -116.74 380.153 -116.135 381.591L-117.206 382.041ZM128.312 377.649C127.753 379.126 127.169 380.59 126.559 382.041L125.488 381.591C126.093 380.153 126.672 378.702 127.226 377.238L128.312 377.649ZM-113.756 389.565C-114.457 388.156 -115.134 386.732 -115.785 385.294L-114.727 384.815C-114.082 386.24 -113.411 387.651 -112.716 389.048L-113.756 389.565ZM125.138 385.294C124.487 386.732 123.81 388.156 123.109 389.565L122.069 389.048C122.764 387.651 123.435 386.24 124.08 384.815L125.138 385.294ZM-109.837 396.856C-110.626 395.492 -111.392 394.114 -112.133 392.72L-111.108 392.175C-110.373 393.556 -109.614 394.923 -108.832 396.274L-109.837 396.856ZM121.486 392.72C120.745 394.114 119.979 395.492 119.19 396.856L118.185 396.274C118.967 394.923 119.726 393.556 120.461 392.175L121.486 392.72ZM-105.466 403.883C-106.34 402.572 -107.191 401.244 -108.019 399.9L-107.03 399.291C-106.21 400.623 -105.366 401.939 -104.5 403.239L-105.466 403.883ZM117.372 399.9C116.544 401.244 115.693 402.572 114.819 403.883L113.853 403.239C114.719 401.939 115.563 400.623 116.383 399.291L117.372 399.9ZM-100.662 410.622C-101.617 409.368 -102.549 408.097 -103.459 406.808L-102.511 406.139C-101.609 407.416 -100.685 408.676 -99.7384 409.919L-100.662 410.622ZM112.812 406.808C111.902 408.097 110.97 409.368 110.015 410.622L109.091 409.919C110.038 408.676 110.962 407.416 111.864 406.139L112.812 406.808ZM-95.4452 417.047C-96.4767 415.855 -97.4871 414.644 -98.4757 413.416L-97.5709 412.688C-96.591 413.906 -95.5895 415.106 -94.5671 416.287L-95.4452 417.047ZM107.829 413.416C106.84 414.644 105.83 415.855 104.798 417.047L103.92 416.287C104.942 415.106 105.944 413.906 106.924 412.688L107.829 413.416ZM-89.8368 423.133C-90.941 422.007 -92.025 420.862 -93.0884 419.698L-92.2309 418.915C-91.1769 420.069 -90.1023 421.204 -89.0078 422.319L-89.8368 423.133ZM102.441 419.698C101.378 420.862 100.294 422.007 99.1897 423.133L98.3607 422.319C99.4552 421.204 100.53 420.069 101.584 418.915L102.441 419.698ZM-83.8593 428.857C-85.0318 427.802 -86.1852 426.727 -87.319 425.631L-86.512 424.796C-85.3882 425.882 -84.2449 426.948 -83.0826 427.993L-83.8593 428.857ZM96.6719 425.631C95.5382 426.727 94.3847 427.802 93.2122 428.857L92.4356 427.993C93.5978 426.948 94.7412 425.882 95.865 424.796L96.6719 425.631ZM-77.5368 434.196C-78.773 433.217 -79.9912 432.215 -81.1907 431.193L-80.4374 430.309C-79.2484 431.323 -78.0409 432.315 -76.8156 433.286L-77.5368 434.196ZM90.5436 431.193C89.3441 432.215 88.126 433.217 86.8898 434.196L86.1685 433.286C87.3939 432.315 88.6013 431.323 89.7903 430.309L90.5436 431.193ZM-70.8931 439.131C-72.1882 438.231 -73.4662 437.307 -74.7267 436.362L-74.0301 435.433C-72.7806 436.37 -71.5138 437.285 -70.2301 438.178L-70.8931 439.131ZM84.0797 436.362C82.8192 437.307 81.5411 438.231 80.2461 439.131L79.5831 438.178C80.8667 437.285 82.1336 436.37 83.383 435.433L84.0797 436.362ZM-63.9529 443.642C-65.3026 442.824 -66.6364 441.982 -67.9538 441.117L-67.3165 440.146C-66.0107 441.003 -64.6886 441.838 -63.3508 442.649L-63.9529 443.642ZM77.3067 441.117C75.9894 441.982 74.6556 442.824 73.3058 443.642L72.7037 442.649C74.0416 441.838 75.3637 441.003 76.6694 440.146L77.3067 441.117ZM-56.7465 447.709C-58.1449 446.976 -59.5285 446.22 -60.8968 445.44L-60.3215 444.431C-58.9653 445.204 -57.5939 445.954 -56.2077 446.68L-56.7465 447.709ZM70.2497 445.44C68.8815 446.22 67.4978 446.976 66.0994 447.709L65.5607 446.68C66.9468 445.954 68.3182 445.204 69.6744 444.431L70.2497 445.44ZM-49.2985 451.316C-50.74 450.672 -52.1679 450.004 -53.5814 449.312L-53.0706 448.269C-51.6694 448.955 -50.2542 449.618 -48.8254 450.255L-49.2985 451.316ZM62.9344 449.312C61.5208 450.004 60.093 450.672 58.6514 451.316L58.1783 450.255C59.6071 449.618 61.0224 448.955 62.4235 448.269L62.9344 449.312ZM-41.6365 454.448C-43.1164 453.897 -44.5838 453.32 -46.038 452.718L-45.5936 451.645C-44.1522 452.242 -42.6978 452.814 -41.231 453.36L-41.6365 454.448ZM55.3909 452.718C53.9367 453.32 52.4694 453.897 50.9894 454.448L50.5839 453.36C52.0508 452.814 53.5052 452.242 54.9466 451.645L55.3909 452.718ZM-33.794 457.093C-35.3069 456.635 -36.8084 456.151 -38.2979 455.641L-37.9218 454.543C-36.4456 455.048 -34.9573 455.528 -33.4577 455.981L-33.794 457.093ZM47.6508 455.641C46.1614 456.151 44.6599 456.635 43.1469 457.093L42.8107 455.981C44.3103 455.528 45.7985 455.048 47.2748 454.543L47.6508 455.641ZM-25.8036 459.238C-27.342 458.876 -28.8699 458.488 -30.3869 458.073L-30.0808 456.953C-28.5771 457.364 -27.0627 457.749 -25.5379 458.107L-25.8036 459.238ZM39.7399 458.073C38.2229 458.488 36.6949 458.876 35.1566 459.238L34.8908 458.107C36.4156 457.749 37.9301 457.364 39.4337 456.953L39.7399 458.073ZM-17.6917 460.878C-19.2491 460.614 -20.7972 460.322 -22.3355 460.004L-22.1003 458.867C-20.5756 459.182 -19.0411 459.471 -17.4974 459.733L-17.6917 460.878ZM31.6884 460.004C30.1502 460.322 28.6021 460.614 27.0447 460.878L26.8504 459.733C28.394 459.471 29.9285 459.182 31.4533 458.867L31.6884 460.004ZM-9.48956 462.008C-11.0632 461.841 -12.6285 461.646 -14.1852 461.425L-14.0216 460.275C-12.4786 460.495 -10.9269 460.687 -9.36702 460.853L-9.48956 462.008ZM23.5381 461.425C21.9815 461.646 20.4161 461.841 18.8425 462.008L18.72 460.853C20.2799 460.687 21.8316 460.495 23.3745 460.275L23.5381 461.425ZM-1.23809 462.625C-2.82038 462.556 -4.39545 462.459 -5.96284 462.335L-5.87102 461.177C-4.31725 461.3 -2.75582 461.396 -1.1872 461.465L-1.23809 462.625ZM15.3158 462.335C13.7484 462.459 12.1733 462.556 10.591 462.625L10.5402 461.465C12.1088 461.396 13.6702 461.3 15.224 461.177L15.3158 462.335ZM4.67648 462.755C3.88368 462.755 3.09251 462.748 2.30302 462.734L2.32339 461.573C3.10609 461.587 3.89047 461.594 4.67648 461.594C5.46248 461.594 6.24687 461.587 7.02957 461.573L7.04993 462.734C6.26044 462.748 5.46928 462.755 4.67648 462.755Z" fill="#D9BDE6"/>
        <path d="M-77.9244 412.324C-77.9244 367.079 -40.9464 330.392 4.67812 330.392C50.3027 330.392 87.2806 367.079 87.2806 412.324C87.2806 457.569 50.3027 494.255 4.67812 494.255C3.90421 494.255 3.13279 494.245 2.36402 494.224L2.33235 495.385C3.11168 495.406 3.89365 495.417 4.67812 495.417C50.9352 495.417 88.4419 458.219 88.4419 412.324C88.4419 366.428 50.9352 329.231 4.67812 329.231C-41.5789 329.231 -79.0857 366.428 -79.0857 412.324H-77.9244Z" fill="#D9BDE6"/>
        <path d="M-79.0857 412.324C-79.0857 413.108 -79.0747 413.89 -79.0529 414.67L-77.8921 414.637C-77.9135 413.869 -77.9244 413.098 -77.9244 412.324H-79.0857Z" fill="#D9BDE6"/>
        <path d="M-78.8812 418.175C-78.7714 419.74 -78.618 421.293 -78.4221 422.833L-77.27 422.686C-77.4632 421.168 -77.6145 419.637 -77.7227 418.094L-78.8812 418.175Z" fill="#D9BDE6"/>
        <path d="M-77.905 426.304C-77.6412 427.849 -77.3344 429.38 -76.9858 430.894L-75.854 430.634C-76.1977 429.141 -76.5002 427.632 -76.7603 426.109L-77.905 426.304Z" fill="#D9BDE6"/>
        <path d="M-76.1255 434.297C-75.7094 435.806 -75.2514 437.299 -74.753 438.772L-73.6529 438.4C-74.1443 436.947 -74.5957 435.476 -75.006 433.988L-76.1255 434.297Z" fill="#D9BDE6"/>
        <path d="M-73.5574 442.073C-72.9933 443.532 -72.389 444.971 -71.7457 446.389L-70.6881 445.909C-71.3223 444.511 -71.9181 443.092 -72.4742 441.654L-73.5574 442.073Z" fill="#D9BDE6"/>
        <path d="M-70.2277 449.554C-69.522 450.948 -68.778 452.32 -67.9969 453.668L-66.992 453.086C-67.7622 451.757 -68.4958 450.404 -69.1915 449.029L-70.2277 449.554Z" fill="#D9BDE6"/>
        <path d="M-66.1733 456.668C-65.3339 457.985 -64.4583 459.277 -63.5477 460.542L-62.605 459.864C-63.5029 458.616 -64.3663 457.342 -65.1939 456.044L-66.1733 456.668Z" fill="#D9BDE6"/>
        <path d="M-61.4382 463.348C-60.4742 464.575 -59.4762 465.775 -58.4457 466.946L-57.5739 466.179C-58.5901 465.024 -59.5742 463.841 -60.5248 462.63L-61.4382 463.348Z" fill="#D9BDE6"/>
        <path d="M-56.072 469.532C-54.9933 470.659 -53.8831 471.756 -52.7428 472.821L-51.9499 471.973C-53.0745 470.922 -54.1693 469.84 -55.2331 468.729L-56.072 469.532Z" fill="#D9BDE6"/>
        <path d="M-50.1285 475.163C-48.9459 476.179 -47.7342 477.163 -46.495 478.113L-45.7885 477.191C-47.0106 476.254 -48.2055 475.284 -49.3718 474.282L-50.1285 475.163Z" fill="#D9BDE6"/>
        <path d="M-43.6653 480.19C-42.39 481.085 -41.0884 481.946 -39.7617 482.771L-39.1483 481.785C-40.4566 480.972 -41.7402 480.122 -42.9979 479.239L-43.6653 480.19Z" fill="#D9BDE6"/>
        <path d="M-36.7433 484.563C-35.3876 485.329 -34.0082 486.059 -32.6065 486.752L-32.0922 485.71C-33.4745 485.028 -34.8347 484.308 -36.1717 483.552L-36.7433 484.563Z" fill="#D9BDE6"/>
        <path d="M-29.4277 488.24C-28.0045 488.87 -26.5604 489.462 -25.0966 490.014L-24.6866 488.927C-26.13 488.383 -27.5541 487.799 -28.9575 487.178L-29.4277 488.24Z" fill="#D9BDE6"/>
        <path d="M-21.7877 491.184C-20.3109 491.671 -18.8158 492.119 -17.3038 492.526L-17.002 491.404C-18.4931 491.003 -19.9674 490.562 -21.4237 490.081L-21.7877 491.184Z" fill="#D9BDE6"/>
        <path d="M-13.8966 493.367C-12.3807 493.707 -10.8491 494.007 -9.30327 494.264L-9.11232 493.119C-10.6368 492.865 -12.1472 492.569 -13.6421 492.233L-13.8966 493.367Z" fill="#D9BDE6"/>
        <path d="M-5.83073 494.769C-4.29058 494.96 -2.73746 495.11 -1.17258 495.217L-1.09327 494.059C-2.63681 493.953 -4.16865 493.805 -5.68761 493.617L-5.83073 494.769Z" fill="#D9BDE6"/>
        <path fill-rule="evenodd" clip-rule="evenodd" d="M4.67812 329.047C50.3026 329.047 87.2806 292.361 87.2806 247.116H88.4419C88.4419 293.011 50.9352 330.209 4.67812 330.209C-41.5789 330.209 -79.0857 293.011 -79.0857 247.116C-79.0857 201.22 -41.5789 164.023 4.67812 164.023V165.184C-40.9464 165.184 -77.9244 201.87 -77.9244 247.116C-77.9244 292.361 -40.9464 329.047 4.67812 329.047Z" fill="#D9BDE6"/>
        <path fill-rule="evenodd" clip-rule="evenodd" d="M88.4092 244.77C88.431 245.549 88.4419 246.331 88.4419 247.116H87.2806C87.2806 246.342 87.2698 245.571 87.2483 244.802L88.4092 244.77ZM87.7783 236.606C87.9742 238.146 88.1277 239.699 88.2374 241.264L87.0789 241.345C86.9707 239.802 86.8194 238.271 86.6263 236.753L87.7783 236.606ZM86.342 228.545C86.6906 230.06 86.9974 231.59 87.2613 233.135L86.1165 233.331C85.8564 231.808 85.5539 230.299 85.2103 228.806L86.342 228.545ZM84.1092 220.667C84.6077 222.141 85.0656 223.633 85.4818 225.142L84.3622 225.451C83.952 223.963 83.5005 222.492 83.0091 221.039L84.1092 220.667ZM81.1019 213.051C81.7452 214.469 82.3496 215.908 82.9136 217.367L81.8305 217.786C81.2744 216.347 80.6785 214.929 80.0444 213.531L81.1019 213.051ZM77.3531 205.771C78.1342 207.119 78.8783 208.491 79.584 209.886L78.5477 210.41C77.852 209.035 77.1184 207.683 76.3483 206.353L77.3531 205.771ZM72.904 198.897C73.8145 200.163 74.6901 201.455 75.5295 202.772L74.5502 203.396C73.7225 202.097 72.8591 200.823 71.9613 199.576L72.904 198.897ZM67.8019 192.493C68.8324 193.664 69.8304 194.864 70.7944 196.092L69.8811 196.809C68.9305 195.599 67.9464 194.415 66.9301 193.261L67.8019 192.493ZM62.099 186.618C63.2393 187.684 64.3495 188.781 65.4282 189.907L64.5893 190.711C63.5256 189.599 62.4307 188.518 61.3062 187.467L62.099 186.618ZM55.8512 181.327C57.0904 182.277 58.3021 183.26 59.4848 184.276L58.728 185.157C57.5617 184.155 56.3668 183.185 55.1447 182.248L55.8512 181.327ZM49.118 176.668C50.4446 177.493 51.7462 178.354 53.0215 179.25L52.3541 180.2C51.0964 179.317 49.8128 178.468 48.5046 177.654L49.118 176.668ZM41.9627 172.688C43.3644 173.38 44.7438 174.11 46.0995 174.877L45.5279 175.888C44.191 175.132 42.8307 174.412 41.4484 173.729L41.9627 172.688ZM34.4528 169.425C35.9166 169.978 37.3607 170.57 38.7839 171.2L38.3138 172.262C36.9104 171.64 35.4863 171.057 34.0428 170.512L34.4528 169.425ZM26.66 166.914C28.1721 167.32 29.6671 167.768 31.1439 168.256L30.7799 169.358C29.3236 168.878 27.8493 168.436 26.3583 168.035L26.66 166.914ZM18.6595 165.175C20.2054 165.433 21.7369 165.732 23.2528 166.073L22.9984 167.206C21.5034 166.87 19.9931 166.575 18.4686 166.321L18.6595 165.175ZM10.5288 164.222C12.0937 164.329 13.6468 164.479 15.187 164.67L15.0438 165.823C13.5249 165.634 11.993 165.486 10.4495 165.381L10.5288 164.222ZM4.67812 164.023C5.46259 164.023 6.24456 164.033 7.02388 164.055L6.99221 165.216C6.22344 165.195 5.45203 165.184 4.67812 165.184V164.023Z" fill="#D9BDE6"/>
    </g>
    <g opacity="0.2">
        <path d="M596.512 -220.395L611.174 -165.639L612.499 -165.994L597.837 -220.75L596.512 -220.395Z" fill="#D9BDE6"/>
        <path d="M537.709 -215.106L542.635 -206.568L543.822 -207.255L538.896 -215.793L537.709 -215.106Z" fill="#D9BDE6"/>
        <path d="M783.699 60.5067L792.231 65.4361L792.917 64.2475L784.385 59.3182L783.699 60.5067Z" fill="#D9BDE6"/>
        <path d="M799.345 69.5442L821.386 82.2785L822.072 81.0899L800.03 68.3556L799.345 69.5442Z" fill="#D9BDE6"/>
        <path d="M851.25 99.5305L829.208 86.7963L829.894 85.6077L851.936 98.3419L851.25 99.5305Z" fill="#D9BDE6"/>
        <path d="M559.462 -177.397L546.736 -199.453L547.924 -200.139L560.65 -178.083L559.462 -177.397Z" fill="#D9BDE6"/>
        <path d="M563.982 -169.57L576.708 -147.514L577.896 -148.2L565.17 -170.257L563.982 -169.57Z" fill="#D9BDE6"/>
        <path d="M499.34 -59.4346L505.684 -57.7335L506.039 -59.0592L499.695 -60.7603L499.34 -59.4346Z" fill="#D9BDE6"/>
        <path d="M493.791 -60.9233L477.136 -65.3887L477.491 -66.7144L494.146 -62.249L493.791 -60.9233Z" fill="#D9BDE6"/>
        <path d="M454.929 -71.3422L471.583 -66.8769L471.938 -68.2025L455.284 -72.6679L454.929 -71.3422Z" fill="#D9BDE6"/>
        <path d="M752.127 157.022L748.843 151.33L750.03 150.644L753.315 156.335L752.127 157.022Z" fill="#D9BDE6"/>
        <path d="M737.347 131.408L745.968 146.349L747.156 145.663L738.535 130.721L737.347 131.408Z" fill="#D9BDE6"/>
        <path d="M734.473 126.427L725.853 111.486L727.04 110.8L735.661 125.741L734.473 126.427Z" fill="#D9BDE6"/>
        <path d="M487.046 -111.188L465.004 -123.922L465.69 -125.111L487.732 -112.376L487.046 -111.188Z" fill="#D9BDE6"/>
        <path d="M494.866 -106.669L516.908 -93.9345L517.594 -95.1231L495.552 -107.857L494.866 -106.669Z" fill="#D9BDE6"/>
        <path d="M777.237 107.864L759.24 89.8551L760.21 88.8847L778.207 106.894L777.237 107.864Z" fill="#D9BDE6"/>
        <path d="M783.625 114.255L801.622 132.264L802.592 131.293L784.595 113.284L783.625 114.255Z" fill="#D9BDE6"/>
        <path d="M531.043 -138.492L540.332 -129.197L541.302 -130.168L532.013 -139.463L531.043 -138.492Z" fill="#D9BDE6"/>
        <path d="M522.912 -146.625L497.948 -171.605L498.918 -172.575L523.882 -147.595L522.912 -146.625Z" fill="#D9BDE6"/>
        <path d="M464.863 -204.719L489.246 -180.319L490.216 -181.29L465.832 -205.689L464.863 -204.719Z" fill="#D9BDE6"/>
        <path d="M716.292 227.291L712.892 214.594L714.217 214.239L717.617 226.936L716.292 227.291Z" fill="#D9BDE6"/>
        <path d="M700.783 169.36L709.921 203.484L711.245 203.129L702.108 169.005L700.783 169.36Z" fill="#D9BDE6"/>
        <path d="M697.597 157.457L688.672 124.127L689.997 123.772L698.921 157.102L697.597 157.457Z" fill="#D9BDE6"/>
        <path d="M851.386 35.543L796.666 20.8711L797.021 19.5454L851.741 34.2173L851.386 35.543Z" fill="#D9BDE6"/>
        <path d="M511.899 65.4388L520.431 60.5094L519.746 59.3208L511.213 64.2502L511.899 65.4388Z" fill="#D9BDE6"/>
        <path d="M504.786 69.5429L482.744 82.2771L482.058 81.0885L504.1 68.3543L504.786 69.5429Z" fill="#D9BDE6"/>
        <path d="M452.882 99.5305L474.924 86.7963L474.238 85.6077L452.196 98.3419L452.882 99.5305Z" fill="#D9BDE6"/>
        <path d="M766.423 -215.106L761.497 -206.568L760.309 -207.255L765.235 -215.793L766.423 -215.106Z" fill="#D9BDE6"/>
        <path d="M744.664 -177.397L757.39 -199.453L756.202 -200.139L743.476 -178.083L744.664 -177.397Z" fill="#D9BDE6"/>
        <path d="M740.151 -169.57L727.425 -147.514L726.237 -148.2L738.963 -170.257L740.151 -169.57Z" fill="#D9BDE6"/>
        <path d="M804.792 -59.4346L798.447 -57.7335L798.092 -59.0592L804.437 -60.7603L804.792 -59.4346Z" fill="#D9BDE6"/>
        <path d="M810.34 -60.9233L826.994 -65.3887L826.639 -66.7144L809.985 -62.249L810.34 -60.9233Z" fill="#D9BDE6"/>
        <path d="M849.202 -71.3422L832.548 -66.8769L832.193 -68.2025L848.847 -72.6679L849.202 -71.3422Z" fill="#D9BDE6"/>
        <path d="M552.003 157.022L555.288 151.33L554.1 150.644L550.816 156.335L552.003 157.022Z" fill="#D9BDE6"/>
        <path d="M566.783 131.408L558.162 146.349L556.974 145.663L565.595 130.721L566.783 131.408Z" fill="#D9BDE6"/>
        <path d="M569.657 126.427L578.278 111.486L577.09 110.8L568.469 125.741L569.657 126.427Z" fill="#D9BDE6"/>
        <path d="M817.082 -111.187L839.123 -123.921L838.438 -125.109L816.396 -112.375L817.082 -111.187Z" fill="#D9BDE6"/>
        <path d="M809.263 -106.669L787.221 -93.9345L786.535 -95.1231L808.577 -107.857L809.263 -106.669Z" fill="#D9BDE6"/>
        <path d="M526.89 107.864L544.888 89.8551L543.918 88.8847L525.921 106.894L526.89 107.864Z" fill="#D9BDE6"/>
        <path d="M520.501 114.254L502.504 132.262L501.534 131.292L519.531 113.283L520.501 114.254Z" fill="#D9BDE6"/>
        <path d="M773.083 -138.492L763.794 -129.197L762.824 -130.168L772.113 -139.463L773.083 -138.492Z" fill="#D9BDE6"/>
        <path d="M781.214 -146.625L806.178 -171.605L805.208 -172.575L780.245 -147.595L781.214 -146.625Z" fill="#D9BDE6"/>
        <path d="M839.264 -204.719L814.88 -180.319L813.911 -181.29L838.294 -205.689L839.264 -204.719Z" fill="#D9BDE6"/>
        <path d="M587.84 227.291L591.24 214.594L589.915 214.239L586.515 226.936L587.84 227.291Z" fill="#D9BDE6"/>
        <path d="M603.349 169.36L594.211 203.484L592.886 203.129L602.024 169.005L603.349 169.36Z" fill="#D9BDE6"/>
        <path d="M606.535 157.457L615.46 124.127L614.135 123.772L605.21 157.102L606.535 157.457Z" fill="#D9BDE6"/>
        <path d="M452.745 35.543L507.466 20.8711L507.111 19.5454L452.39 34.2173L452.745 35.543Z" fill="#D9BDE6"/>
        <path d="M707.617 -220.395L692.955 -165.639L691.63 -165.994L706.292 -220.75L707.617 -220.395Z" fill="#D9BDE6"/>
        <path fill-rule="evenodd" clip-rule="evenodd" d="M650.303 -147.01C651.093 -147.024 651.884 -147.031 652.676 -147.031C653.469 -147.031 654.26 -147.024 655.05 -147.01L655.03 -145.849C654.247 -145.863 653.462 -145.869 652.676 -145.869C651.89 -145.869 651.106 -145.863 650.323 -145.849L650.303 -147.01ZM658.591 -146.901C660.173 -146.832 661.748 -146.735 663.316 -146.611L663.224 -145.453C661.67 -145.576 660.109 -145.672 658.54 -145.741L658.591 -146.901ZM642.037 -146.611C643.605 -146.735 645.18 -146.832 646.762 -146.901L646.813 -145.741C645.244 -145.672 643.683 -145.576 642.129 -145.453L642.037 -146.611ZM666.843 -146.284C668.416 -146.117 669.981 -145.922 671.538 -145.701L671.375 -144.551C669.832 -144.771 668.28 -144.963 666.72 -145.129L666.843 -146.284ZM633.815 -145.701C635.371 -145.922 636.937 -146.117 638.51 -146.284L638.633 -145.129C637.073 -144.963 635.521 -144.771 633.978 -144.551L633.815 -145.701ZM675.045 -145.154C676.602 -144.889 678.15 -144.598 679.688 -144.28L679.453 -143.143C677.929 -143.458 676.394 -143.747 674.85 -144.009L675.045 -145.154ZM625.665 -144.28C627.203 -144.598 628.751 -144.889 630.308 -145.154L630.503 -144.009C628.959 -143.747 627.424 -143.458 625.9 -143.143L625.665 -144.28ZM617.613 -142.349C619.13 -142.764 620.658 -143.152 622.196 -143.514L622.462 -142.383C620.937 -142.025 619.423 -141.64 617.919 -141.229L617.613 -142.349ZM683.157 -143.514C684.695 -143.152 686.223 -142.764 687.74 -142.349L687.434 -141.229C685.93 -141.64 684.416 -142.025 682.891 -142.383L683.157 -143.514ZM609.702 -139.917C611.192 -140.427 612.693 -140.911 614.206 -141.369L614.542 -140.257C613.043 -139.803 611.554 -139.324 610.078 -138.819L609.702 -139.917ZM691.147 -141.369C692.66 -140.911 694.161 -140.427 695.651 -139.917L695.275 -138.819C693.799 -139.324 692.31 -139.803 690.811 -140.257L691.147 -141.369ZM601.962 -136.993C603.416 -137.596 604.884 -138.173 606.364 -138.724L606.769 -137.636C605.302 -137.089 603.848 -136.517 602.406 -135.921L601.962 -136.993ZM698.989 -138.724C700.469 -138.173 701.937 -137.596 703.391 -136.993L702.947 -135.921C701.505 -136.517 700.051 -137.089 698.584 -137.636L698.989 -138.724ZM594.419 -133.588C595.832 -134.28 597.26 -134.948 598.702 -135.591L599.175 -134.531C597.746 -133.893 596.331 -133.231 594.929 -132.545L594.419 -133.588ZM706.651 -135.591C708.093 -134.948 709.521 -134.28 710.934 -133.588L710.424 -132.545C709.022 -133.231 707.607 -133.893 706.178 -134.531L706.651 -135.591ZM587.103 -129.715C588.471 -130.496 589.855 -131.252 591.254 -131.984L591.792 -130.956C590.406 -130.23 589.035 -129.48 587.679 -128.707L587.103 -129.715ZM714.099 -131.984C715.498 -131.252 716.881 -130.496 718.25 -129.715L717.674 -128.707C716.318 -129.48 714.947 -130.23 713.561 -130.956L714.099 -131.984ZM580.046 -125.393C581.364 -126.258 582.697 -127.1 584.047 -127.918L584.649 -126.925C583.311 -126.114 581.989 -125.279 580.684 -124.422L580.046 -125.393ZM721.306 -127.918C722.656 -127.1 723.989 -126.258 725.307 -125.393L724.669 -124.422C723.364 -125.279 722.042 -126.114 720.704 -126.925L721.306 -127.918ZM573.273 -120.638C574.534 -121.583 575.812 -122.506 577.107 -123.407L577.77 -122.454C576.486 -121.561 575.219 -120.646 573.97 -119.709L573.273 -120.638ZM728.246 -123.407C729.541 -122.506 730.819 -121.583 732.08 -120.638L731.383 -119.709C730.134 -120.646 728.867 -121.561 727.583 -122.454L728.246 -123.407ZM566.809 -115.469C568.009 -116.491 569.227 -117.493 570.463 -118.472L571.184 -117.562C569.959 -116.591 568.752 -115.598 567.563 -114.585L566.809 -115.469ZM734.89 -118.472C736.126 -117.493 737.344 -116.491 738.544 -115.469L737.79 -114.585C736.601 -115.598 735.394 -116.591 734.169 -117.562L734.89 -118.472ZM560.681 -109.907C561.815 -111.003 562.968 -112.078 564.141 -113.133L564.917 -112.269C563.755 -111.224 562.612 -110.158 561.488 -109.072L560.681 -109.907ZM741.212 -113.133C742.385 -112.078 743.538 -111.003 744.672 -109.907L743.865 -109.072C742.741 -110.158 741.598 -111.224 740.436 -112.269L741.212 -113.133ZM554.912 -103.974C555.975 -105.138 557.059 -106.283 558.163 -107.409L558.992 -106.595C557.898 -105.48 556.823 -104.345 555.769 -103.191L554.912 -103.974ZM747.19 -107.409C748.294 -106.283 749.378 -105.138 750.441 -103.974L749.584 -103.191C748.53 -104.345 747.455 -105.48 746.361 -106.595L747.19 -107.409ZM549.524 -97.6916C550.513 -98.9203 551.523 -100.131 552.555 -101.323L553.433 -100.563C552.411 -99.3814 551.409 -98.1814 550.429 -96.9636L549.524 -97.6916ZM752.798 -101.323C753.83 -100.131 754.84 -98.9202 755.829 -97.6916L754.924 -96.9635C753.944 -98.1814 752.942 -99.3814 751.92 -100.563L752.798 -101.323ZM544.541 -91.0843C545.451 -92.3727 546.383 -93.6441 547.338 -94.8979L548.262 -94.1945C547.315 -92.9517 546.391 -91.6915 545.489 -90.4144L544.541 -91.0843ZM758.015 -94.8979C758.97 -93.6441 759.902 -92.3727 760.812 -91.0843L759.864 -90.4144C758.962 -91.6915 758.038 -92.9517 757.091 -94.1945L758.015 -94.8979ZM539.981 -84.1762C540.809 -85.5199 541.66 -86.8477 542.534 -88.159L543.5 -87.5149C542.634 -86.2152 541.79 -84.8991 540.97 -83.5673L539.981 -84.1762ZM762.819 -88.159C763.693 -86.8477 764.544 -85.5199 765.372 -84.1761L764.383 -83.5673C763.563 -84.8991 762.719 -86.2152 761.853 -87.5149L762.819 -88.159ZM535.867 -76.9959C536.608 -78.3895 537.374 -79.7683 538.163 -81.1316L539.168 -80.5497C538.386 -79.1984 537.627 -77.8319 536.892 -76.4506L535.867 -76.9959ZM767.19 -81.1316C767.979 -79.7683 768.745 -78.3895 769.486 -76.9958L768.461 -76.4506C767.726 -77.8319 766.967 -79.1984 766.185 -80.5497L767.19 -81.1316ZM532.215 -69.5697C532.866 -71.0075 533.543 -72.4315 534.244 -73.8412L535.284 -73.324C534.589 -71.9268 533.918 -70.5155 533.273 -69.0905L532.215 -69.5697ZM771.109 -73.8412C771.81 -72.4315 772.487 -71.0075 773.138 -69.5697L772.08 -69.0905C771.435 -70.5155 770.764 -71.9268 770.069 -73.324L771.109 -73.8412ZM529.041 -61.9249C529.599 -63.4016 530.184 -64.8658 530.794 -66.3167L531.865 -65.8665C531.26 -64.4285 530.681 -62.9775 530.127 -61.5138L529.041 -61.9249ZM774.559 -66.3167C775.169 -64.8658 775.753 -63.4016 776.312 -61.9248L775.226 -61.5138C774.672 -62.9774 774.093 -64.4285 773.488 -65.8665L774.559 -66.3167ZM526.359 -54.0937C526.823 -55.6047 527.314 -57.1041 527.831 -58.5914L528.928 -58.2102C528.416 -56.7362 527.929 -55.2502 527.469 -53.7527L526.359 -54.0937ZM777.522 -58.5914C778.039 -57.1041 778.53 -55.6047 778.994 -54.0937L777.884 -53.7527C777.424 -55.2502 776.937 -56.7362 776.425 -58.2102L777.522 -58.5914ZM524.183 -46.1115C524.55 -47.6487 524.944 -49.1753 525.365 -50.691L526.484 -50.3805C526.067 -48.8783 525.676 -47.3653 525.313 -45.8419L524.183 -46.1115ZM779.988 -50.691C780.409 -49.1753 780.803 -47.6486 781.17 -46.1115L780.04 -45.8419C779.677 -47.3653 779.286 -48.8783 778.869 -50.3804L779.988 -50.691ZM522.519 -38.0044C522.787 -39.5612 523.083 -41.1087 523.406 -42.6464L524.542 -42.4077C524.222 -40.8838 523.929 -39.3501 523.663 -37.8071L522.519 -38.0044ZM781.947 -42.6463C782.27 -41.1087 782.566 -39.5612 782.834 -38.0044L781.69 -37.8071C781.424 -39.3501 781.131 -40.8838 780.811 -42.4077L781.947 -42.6463ZM521.371 -29.8044C521.541 -31.3776 521.738 -32.9425 521.963 -34.4986L523.113 -34.3325C522.89 -32.7903 522.694 -31.2392 522.526 -29.6799L521.371 -29.8044ZM783.39 -34.4986C783.615 -32.9425 783.812 -31.3775 783.981 -29.8043L782.827 -29.6799C782.659 -31.2392 782.463 -32.7902 782.24 -34.3325L783.39 -34.4986ZM520.744 -21.5527C520.815 -23.1351 520.913 -24.7102 521.04 -26.2775L522.197 -26.1843C522.072 -24.6308 521.974 -23.0695 521.904 -21.5011L520.744 -21.5527ZM784.313 -26.2775C784.44 -24.7101 784.538 -23.135 784.609 -21.5527L783.449 -21.501C783.379 -23.0695 783.281 -24.6307 783.156 -26.1842L784.313 -26.2775ZM520.613 -15.6379C520.613 -16.4308 520.62 -17.222 520.634 -18.0115L521.795 -17.9909C521.781 -17.2082 521.774 -16.4239 521.774 -15.6379C521.774 -14.852 521.781 -14.0677 521.795 -13.285L520.634 -13.2644C520.62 -14.0539 520.613 -14.8451 520.613 -15.6379ZM784.719 -18.0115C784.733 -17.222 784.74 -16.4308 784.74 -15.6379C784.74 -14.8451 784.733 -14.0539 784.719 -13.2643L783.558 -13.285C783.572 -14.0676 783.579 -14.852 783.579 -15.6379C783.579 -16.4239 783.572 -17.2082 783.558 -17.9908L784.719 -18.0115ZM521.04 -4.99837C520.913 -6.56572 520.815 -8.14082 520.744 -9.72318L521.904 -9.77483C521.974 -8.20638 522.072 -6.64514 522.197 -5.09161L521.04 -4.99837ZM784.609 -9.72314C784.538 -8.14079 784.44 -6.5657 784.313 -4.99834L783.156 -5.09158C783.281 -6.64511 783.379 -8.20633 783.449 -9.77481L784.609 -9.72314ZM521.963 3.22272C521.738 1.66661 521.541 0.101685 521.371 -1.47153L522.526 -1.59595C522.694 -0.0366669 522.89 1.51436 523.113 3.05666L521.963 3.22272ZM783.981 -1.47148C783.812 0.10173 783.615 1.66664 783.39 3.22275L782.24 3.05667C782.463 1.51439 782.659 -0.0366364 782.827 -1.59592L783.981 -1.47148ZM523.406 11.3705C523.083 9.83286 522.787 8.28537 522.519 6.72852L523.663 6.53125C523.929 8.07422 524.222 9.60791 524.542 11.1318L523.406 11.3705ZM782.834 6.72856C782.566 8.28539 782.27 9.83287 781.947 11.3705L780.811 11.1318C781.131 9.60793 781.424 8.07425 781.69 6.53128L782.834 6.72856ZM525.365 19.4152C524.944 17.8995 524.55 16.3728 524.183 14.8357L525.313 14.566C525.676 16.0894 526.067 17.6024 526.484 19.1046L525.365 19.4152ZM781.17 14.8357C780.803 16.3728 780.409 17.8995 779.988 19.4152L778.869 19.1046C779.286 17.6025 779.677 16.0894 780.04 14.566L781.17 14.8357ZM527.831 27.3155C527.314 25.8282 526.823 24.3288 526.359 22.8179L527.469 22.4769C527.929 23.9743 528.416 25.4603 528.928 26.9343L527.831 27.3155ZM778.994 22.8179C778.53 24.3289 778.039 25.8283 777.522 27.3156L776.425 26.9343C776.937 25.4603 777.424 23.9743 777.884 22.4769L778.994 22.8179ZM530.794 35.0408C530.184 33.5899 529.599 32.1258 529.041 30.649L530.127 30.238C530.681 31.7016 531.26 33.1526 531.865 34.5906L530.794 35.0408ZM776.312 30.649C775.753 32.1258 775.169 33.5899 774.559 35.0409L773.488 34.5907C774.093 33.1527 774.672 31.7016 775.226 30.238L776.312 30.649ZM534.244 42.5653C533.543 41.1556 532.866 39.7316 532.215 38.2938L533.273 37.8146C533.918 39.2396 534.589 40.651 535.284 42.0481L534.244 42.5653ZM773.138 38.2939C772.487 39.7316 771.81 41.1557 771.109 42.5654L770.069 42.0481C770.764 40.651 771.435 39.2396 772.08 37.8147L773.138 38.2939ZM538.163 49.8557C537.374 48.4924 536.608 47.1136 535.867 45.72L536.892 45.1747C537.627 46.556 538.386 47.9225 539.168 49.2738L538.163 49.8557ZM769.486 45.72C768.745 47.1136 767.979 48.4924 767.19 49.8558L766.185 49.2738C766.967 47.9226 767.726 46.556 768.461 45.1748L769.486 45.72ZM542.534 56.8831C541.66 55.5718 540.809 54.244 539.981 52.9003L540.97 52.2914C541.79 53.6233 542.634 54.9393 543.5 56.239L542.534 56.8831ZM765.372 52.9003C764.544 54.244 763.693 55.5718 762.819 56.8831L761.853 56.239C762.719 54.9393 763.563 53.6233 764.383 52.2914L765.372 52.9003ZM547.338 63.6221C546.383 62.3682 545.451 61.0968 544.541 59.8084L545.489 59.1385C546.391 60.4156 547.315 61.6758 548.262 62.9186L547.338 63.6221ZM760.812 59.8084C759.902 61.0968 758.97 62.3683 758.015 63.6221L757.091 62.9186C758.038 61.6758 758.962 60.4156 759.864 59.1386L760.812 59.8084ZM552.555 70.047C551.523 68.855 550.513 67.6444 549.524 66.4157L550.429 65.6877C551.409 66.9055 552.411 68.1055 553.433 69.287L552.555 70.047ZM755.829 66.4157C754.84 67.6444 753.83 68.855 752.798 70.047L751.92 69.287C752.942 68.1055 753.944 66.9056 754.924 65.6877L755.829 66.4157ZM558.163 76.1328C557.059 75.0073 555.975 73.8621 554.912 72.6979L555.769 71.9147C556.823 73.0687 557.898 74.2038 558.992 75.3195L558.163 76.1328ZM750.441 72.6979C749.378 73.8621 748.294 75.0073 747.19 76.1328L746.361 75.3195C747.455 74.2038 748.53 73.0687 749.584 71.9147L750.441 72.6979ZM564.141 81.8568C562.968 80.8021 561.815 79.7268 560.681 78.6314L561.488 77.7962C562.612 78.882 563.755 79.9479 564.917 80.9933L564.141 81.8568ZM744.672 78.6314C743.538 79.7268 742.385 80.8021 741.212 81.8568L740.436 80.9933C741.598 79.9479 742.741 78.882 743.865 77.7962L744.672 78.6314ZM570.463 87.1963C569.227 86.2167 568.009 85.2155 566.809 84.1933L567.563 83.3093C568.752 84.3226 569.959 85.315 571.184 86.286L570.463 87.1963ZM738.544 84.1933C737.344 85.2155 736.126 86.2167 734.89 87.1963L734.169 86.2861C735.394 85.315 736.601 84.3226 737.79 83.3094L738.544 84.1933ZM577.107 92.1311C575.812 91.2306 574.534 90.3075 573.273 89.3624L573.97 88.4333C575.219 89.37 576.486 90.285 577.77 91.1777L577.107 92.1311ZM732.08 89.3624C730.819 90.3075 729.541 91.2306 728.246 92.1311L727.583 91.1777C728.867 90.285 730.134 89.37 731.383 88.4333L732.08 89.3624ZM584.047 96.6421C582.697 95.8237 581.364 94.9819 580.046 94.1173L580.683 93.1464C581.989 94.0035 583.311 94.8379 584.649 95.6491L584.047 96.6421ZM725.307 94.1173C723.989 94.9819 722.656 95.8237 721.306 96.6421L720.704 95.6491C722.042 94.8379 723.364 94.0035 724.669 93.1464L725.307 94.1173ZM591.254 100.709C589.855 99.9762 588.471 99.2197 587.103 98.4395L587.678 97.4307C589.035 98.204 590.406 98.9538 591.792 99.6797L591.254 100.709ZM718.25 98.4395C716.881 99.2197 715.498 99.9762 714.099 100.709L713.561 99.6797C714.947 98.9539 716.318 98.204 717.674 97.4307L718.25 98.4395ZM598.702 104.316C597.26 103.672 595.832 103.004 594.419 102.312L594.929 101.269C596.331 101.955 597.746 102.618 599.175 103.255L598.702 104.316ZM710.934 102.312C709.521 103.004 708.093 103.672 706.651 104.316L706.178 103.255C707.607 102.618 709.022 101.955 710.424 101.269L710.934 102.312ZM606.364 107.448C604.884 106.897 603.416 106.32 601.962 105.718L602.406 104.645C603.848 105.242 605.302 105.814 606.769 106.36L606.364 107.448ZM703.391 105.718C701.937 106.32 700.469 106.897 698.989 107.448L698.584 106.36C700.051 105.814 701.505 105.242 702.947 104.645L703.391 105.718ZM614.206 110.093C612.693 109.635 611.192 109.151 609.702 108.641L610.078 107.543C611.554 108.048 613.043 108.528 614.542 108.981L614.206 110.093ZM695.651 108.641C694.161 109.151 692.66 109.635 691.147 110.093L690.811 108.981C692.31 108.528 693.799 108.048 695.275 107.543L695.651 108.641ZM622.196 112.238C620.658 111.876 619.13 111.488 617.613 111.073L617.919 109.953C619.423 110.364 620.937 110.749 622.462 111.107L622.196 112.238ZM687.74 111.073C686.223 111.488 684.695 111.876 683.157 112.238L682.891 111.107C684.416 110.749 685.93 110.364 687.434 109.953L687.74 111.073ZM630.308 113.878C628.751 113.614 627.203 113.322 625.665 113.004L625.9 111.867C627.424 112.182 628.959 112.471 630.503 112.733L630.308 113.878ZM679.688 113.004C678.15 113.322 676.602 113.614 675.045 113.878L674.85 112.733C676.394 112.471 677.929 112.182 679.453 111.867L679.688 113.004ZM638.51 115.008C636.937 114.841 635.371 114.646 633.815 114.425L633.978 113.275C635.521 113.495 637.073 113.687 638.633 113.853L638.51 115.008ZM671.538 114.425C669.981 114.646 668.416 114.841 666.843 115.008L666.72 113.853C668.28 113.687 669.832 113.495 671.375 113.275L671.538 114.425ZM646.762 115.625C645.18 115.556 643.605 115.459 642.037 115.335L642.129 114.177C643.683 114.3 645.244 114.396 646.813 114.465L646.762 115.625ZM663.316 115.335C661.748 115.459 660.173 115.556 658.591 115.625L658.54 114.465C660.109 114.396 661.67 114.3 663.224 114.177L663.316 115.335ZM652.676 115.755C651.884 115.755 651.093 115.748 650.303 115.734L650.323 114.573C651.106 114.587 651.89 114.594 652.676 114.594C653.462 114.594 654.247 114.587 655.03 114.573L655.05 115.734C654.26 115.748 653.469 115.755 652.676 115.755Z" fill="#D9BDE6"/>
        <path d="M570.076 65.3237C570.076 20.0786 607.054 -16.6079 652.678 -16.6079C698.303 -16.6079 735.281 20.0786 735.281 65.3237C735.281 110.569 698.303 147.255 652.678 147.255C651.904 147.255 651.133 147.245 650.364 147.224L650.332 148.385C651.112 148.406 651.894 148.417 652.678 148.417C698.935 148.417 736.442 111.219 736.442 65.3237C736.442 19.4283 698.935 -17.7692 652.678 -17.7692C606.421 -17.7692 568.914 19.4283 568.914 65.3237H570.076Z" fill="#D9BDE6"/>
        <path d="M568.914 65.3237C568.914 66.1083 568.925 66.8904 568.947 67.6698L570.108 67.6374C570.086 66.8688 570.076 66.0975 570.076 65.3237H568.914Z" fill="#D9BDE6"/>
        <path d="M569.119 71.1752C569.229 72.7401 569.382 74.2931 569.578 75.833L570.73 75.6864C570.537 74.1682 570.386 72.637 570.277 71.0939L569.119 71.1752Z" fill="#D9BDE6"/>
        <path d="M570.095 79.3044C570.359 80.8492 570.666 82.3795 571.014 83.8941L572.146 83.6336C571.802 82.1405 571.5 80.6319 571.24 79.1089L570.095 79.3044Z" fill="#D9BDE6"/>
        <path d="M571.874 87.2971C572.291 88.8064 572.749 90.2985 573.247 91.7722L574.347 91.4001C573.856 89.9473 573.404 88.4763 572.994 86.9884L571.874 87.2971Z" fill="#D9BDE6"/>
        <path d="M574.443 95.0726C575.007 96.5315 575.611 97.9706 576.254 99.3885L577.312 98.9087C576.678 97.5108 576.082 96.092 575.526 94.6538L574.443 95.0726Z" fill="#D9BDE6"/>
        <path d="M577.772 102.554C578.478 103.948 579.222 105.32 580.003 106.668L581.008 106.086C580.238 104.757 579.504 103.404 578.808 102.029L577.772 102.554Z" fill="#D9BDE6"/>
        <path d="M581.827 109.668C582.666 110.985 583.542 112.277 584.452 113.542L585.395 112.864C584.497 111.616 583.634 110.342 582.806 109.044L581.827 109.668Z" fill="#D9BDE6"/>
        <path d="M586.562 116.348C587.526 117.575 588.524 118.775 589.554 119.946L590.426 119.179C589.41 118.024 588.426 116.841 587.475 115.63L586.562 116.348Z" fill="#D9BDE6"/>
        <path d="M591.928 122.532C593.007 123.659 594.117 124.756 595.257 125.821L596.05 124.973C594.926 123.922 593.831 122.84 592.767 121.729L591.928 122.532Z" fill="#D9BDE6"/>
        <path d="M597.871 128.163C599.054 129.179 600.266 130.163 601.505 131.113L602.212 130.191C600.989 129.254 599.795 128.284 598.628 127.282L597.871 128.163Z" fill="#D9BDE6"/>
        <path d="M604.335 133.19C605.61 134.085 606.912 134.946 608.238 135.771L608.852 134.785C607.543 133.972 606.26 133.122 605.002 132.239L604.335 133.19Z" fill="#D9BDE6"/>
        <path d="M611.257 137.563C612.612 138.329 613.992 139.059 615.394 139.752L615.908 138.71C614.526 138.028 613.165 137.308 611.828 136.552L611.257 137.563Z" fill="#D9BDE6"/>
        <path d="M618.572 141.24C619.995 141.87 621.44 142.462 622.903 143.014L623.313 141.927C621.87 141.383 620.446 140.799 619.042 140.178L618.572 141.24Z" fill="#D9BDE6"/>
        <path d="M626.212 144.184C627.689 144.671 629.184 145.119 630.696 145.526L630.998 144.404C629.507 144.003 628.033 143.562 626.576 143.081L626.212 144.184Z" fill="#D9BDE6"/>
        <path d="M634.103 146.367C635.619 146.707 637.151 147.007 638.697 147.264L638.888 146.119C637.363 145.865 635.853 145.569 634.358 145.233L634.103 146.367Z" fill="#D9BDE6"/>
        <path d="M642.169 147.769C643.709 147.96 645.263 148.11 646.827 148.217L646.907 147.059C645.363 146.953 643.831 146.805 642.312 146.617L642.169 147.769Z" fill="#D9BDE6"/>
    </g>
    <rect x="236" y="65.5" width="152" height="152" rx="76" fill="white"/>
    <rect x="274" y="103.5" width="76" height="76" rx="22.8" fill="url(#paint0_linear_6834_19678)"/>
    <g clip-path="url(#clip0_6834_19678)">
        <path d="M312.154 158.981C302.982 158.981 296.575 153.353 296.575 145.295C296.575 137.669 305.285 125.125 315.12 122.501C312.89 124.725 309.826 128.079 308.118 131.74C305.695 136.931 305.466 144.854 305.677 145.785L306.019 147.288L307.473 146.726C309.042 146.12 310.557 145.246 311.973 144.128C312.501 143.709 313.02 143.254 313.513 142.775C313.851 142.446 314.178 142.105 314.494 141.755C317.613 138.295 319.611 133.815 319.934 129.785C324.374 132.749 327.735 139.219 327.735 145.295C327.735 153.353 321.328 158.981 312.154 158.981Z" fill="white"/>
    </g>
    <defs>
        <linearGradient id="paint0_linear_6834_19678" x1="312" y1="103.5" x2="312" y2="179.5" gradientUnits="userSpaceOnUse">
            <stop stop-color="#5CB3CB"/>
            <stop offset="1" stop-color="#4594AF"/>
        </linearGradient>
        <clipPath id="clip0_6834_19678">
            <rect width="36.48" height="36.48" fill="white" transform="translate(293.001 122.5)"/>
        </clipPath>
    </defs>
</svg>
