<svg width="16" height="16" viewBox="0 0 16 16" fill="none" xmlns="http://www.w3.org/2000/svg">
    <path d="M5.99741 1.11036C4.0048 1.536 2.37152 2.59384 1.24783 4.19624C-0.718644 7.01922 -0.326656 10.8061 2.18206 13.2223C2.93337 13.9484 4.07667 14.6494 4.93904 14.9186C5.25916 15.0187 5.29836 15.0187 5.44209 14.9248C5.59889 14.8247 5.60542 14.7996 5.60542 14.0798V13.3412L5.0305 13.3725C4.35759 13.4038 3.83494 13.2911 3.52135 13.0345C3.41029 12.9469 3.1947 12.6464 3.04444 12.371C2.79618 11.9078 2.61325 11.695 2.10367 11.2631C1.9338 11.1191 1.92727 11.1129 2.04487 11.0315C2.32579 10.8312 2.89417 11.0252 3.25349 11.4383C3.88067 12.1707 4.1224 12.3647 4.48172 12.4398C4.80184 12.5024 5.09584 12.4774 5.54009 12.3522C5.59889 12.3334 5.67728 12.202 5.71648 12.0518C5.75568 11.9078 5.86021 11.6887 5.94514 11.5698L6.10194 11.3507L5.57275 11.2506C4.46212 11.0315 3.77614 10.6497 3.32536 9.99868C2.90724 9.39778 2.77004 8.87825 2.76351 7.90805C2.76351 6.99418 2.86804 6.61862 3.27963 6.10535C3.46255 5.88001 3.48215 5.81116 3.42989 5.67971C3.33189 5.45437 3.35802 4.50295 3.46255 4.21502C3.54749 4.0022 3.59322 3.96464 3.76961 3.94586C4.0636 3.91457 4.61238 4.09609 5.1677 4.39654L5.64462 4.65943L6.06274 4.56554C6.65725 4.4341 8.44079 4.44035 8.97651 4.56554L9.38156 4.66569L9.76049 4.44661C10.2635 4.15868 10.9038 3.93334 11.2239 3.93334C11.4787 3.93334 11.4787 3.9396 11.5832 4.25883C11.6943 4.62814 11.7139 5.29789 11.6159 5.61712C11.5636 5.8049 11.5767 5.86123 11.7204 6.04276C12.4325 6.94411 12.5109 8.4401 11.9099 9.66694C11.5048 10.4744 10.649 11.0377 9.49916 11.2443L8.95038 11.3444L9.1529 11.6887L9.36197 12.0392L9.38156 13.4351L9.4077 14.8309L9.57102 14.9311C9.72129 15.025 9.75395 15.025 10.0675 14.9186C10.5902 14.7496 11.4852 14.2864 11.9752 13.9296C14.889 11.8389 15.8298 8.08957 14.2161 4.9724C13.2688 3.1384 11.4787 1.73004 9.4273 1.20426C8.53226 0.978918 6.84671 0.928843 5.99741 1.11036Z" fill="#23024D"/>
</svg>
