<svg width="16" height="16" viewBox="0 0 16 16" fill="none" xmlns="http://www.w3.org/2000/svg">
    <path d="M4.5 11C5.32843 11 6 10.3284 6 9.5C6 8.67157 5.32843 8 4.5 8C3.67157 8 3 8.67157 3 9.5C3 10.3284 3.67157 11 4.5 11Z" stroke="black" stroke-linecap="round" stroke-linejoin="round"/>
    <path d="M4.5 2.5L4.5 8M4.5 13.5L4.5 11.5" stroke="black" stroke-linecap="square" stroke-linejoin="round"/>
    <path d="M11.5 8.5C12.3284 8.5 13 7.82843 13 7C13 6.17157 12.3284 5.5 11.5 5.5C10.6716 5.5 10 6.17157 10 7C10 7.82843 10.6716 8.5 11.5 8.5Z" stroke="black" stroke-linecap="round" stroke-linejoin="round"/>
    <path d="M11.5 2.5V5.5M11.5 13.5V8.5" stroke="black" stroke-linecap="square" stroke-linejoin="round"/>
</svg>
