<svg width="102" height="24" viewBox="0 0 102 24" fill="none" xmlns="http://www.w3.org/2000/svg">
    <path d="M90.9698 12C90.9698 14.2749 92.6534 15.8673 94.7433 15.8673C96.7752 15.8673 98.5748 14.3886 98.5748 12C98.5748 9.72512 96.7752 8.18957 94.7433 8.18957C92.5953 8.1327 90.9698 9.61137 90.9698 12ZM102 0V18.4834H98.9231L98.749 16.6635C97.704 18.2559 96.0785 18.7678 94.453 18.7678C90.5634 18.7678 87.6027 16.2654 87.6027 11.9431C87.6027 7.45024 90.5054 5.11848 94.3369 5.11848C95.7302 5.11848 97.9362 5.85782 98.6909 7.22275V0H102ZM82.8423 18.5403H86.0933V5.45972H82.8423V18.5403ZM71.2316 5.45972V12.2844C71.2316 14.218 72.3346 15.7536 74.4246 15.7536C76.3984 15.7536 77.7917 14.1043 77.7917 12.1137V5.45972H81.0427V18.4834H78.0819L77.9078 16.7204C76.5725 18.0284 75.2954 18.654 73.4377 18.654C70.3028 18.654 67.9226 16.3223 67.9226 12.2275V5.40284H71.2316V5.45972ZM62.7558 12C62.7558 10.0095 61.3625 8.30332 58.9823 8.30332C56.6022 8.30332 55.2089 9.95261 55.2089 12C55.2089 14.1043 56.7183 15.6967 58.9823 15.6967C61.2464 15.6967 62.7558 13.9905 62.7558 12ZM63.1041 24V17.0047C62.1753 18.4265 60.0854 18.8246 58.6921 18.8246C54.4542 18.8246 52.074 15.8104 52.074 12C52.074 8.1327 54.7444 5.17536 58.8662 5.17536C60.3176 5.17536 62.1172 5.80095 63.1622 7.27962L63.3364 5.45972H66.4132V23.9431L63.1041 24ZM85.2225 3.18483H83.7131C83.2487 3.18483 82.9004 2.78673 82.9004 2.38862V0.853081C82.9004 0.398104 83.3067 0.0568723 83.7131 0.0568723H85.2225C85.6869 0.0568723 86.0353 0.454976 86.0353 0.853081V2.33175C86.0933 2.78673 85.745 3.18483 85.2225 3.18483ZM49.8099 3.18483H48.3005C47.8361 3.18483 47.4878 2.78673 47.4878 2.38862V0.853081C47.4878 0.398104 47.8941 0.0568723 48.3005 0.0568723H49.8099C50.2743 0.0568723 50.6226 0.454976 50.6226 0.853081V2.33175C50.6807 2.78673 50.3324 3.18483 49.8099 3.18483ZM47.4297 5.45972H50.6807V18.5972H47.4297V5.45972ZM37.5026 0V13.9905C37.5026 14.1611 37.5606 14.3318 37.6187 14.4455C37.6767 14.6161 37.7928 14.7299 37.9089 14.8436C38.025 14.9573 38.1411 15.0711 38.3153 15.128C38.4895 15.1848 38.6636 15.2417 38.7797 15.2417H45.9203V18.4834H37.4445C35.5287 18.4834 34.0193 16.9479 34.0193 15.0711V0H37.5026Z" fill="#25044F"/>
    <path d="M6.67615 16.3223V8.36019C6.67615 7.62085 6.09562 7.05213 5.39898 7.05213H0.812749C0.348321 7.05213 0 7.45024 0 7.84834V23.0332C0 23.4882 0.406374 23.8294 0.812749 23.8294H16.5452C17.0097 23.8294 17.358 23.4313 17.358 23.0332V18.8815C17.358 18.7109 17.2999 18.5403 17.2419 18.4265C17.1838 18.2559 17.0677 18.1422 16.9516 18.0284C16.8355 17.9147 16.7194 17.8009 16.5452 17.7441C16.3711 17.6872 16.1969 17.6303 16.0808 17.6303H8.01138C7.25669 17.6872 6.67615 17.1185 6.67615 16.3223ZM7.4889 0C7.02447 0 6.67615 0.398104 6.67615 0.796208V4.32227C6.67615 4.49289 6.73421 4.66351 6.79226 4.77725C6.85031 4.94787 6.96642 5.06161 7.08253 5.17536C7.19863 5.2891 7.31474 5.40284 7.4889 5.45972C7.66306 5.51659 7.83722 5.57346 7.95333 5.57346H10.5077C10.6818 5.57346 10.856 5.63033 10.9721 5.6872C11.1463 5.74407 11.2624 5.85782 11.3785 5.97156C11.4946 6.08531 11.6107 6.19905 11.6688 6.36967C11.7268 6.54028 11.7849 6.7109 11.7849 6.82464V10.7488C11.7849 11.4313 12.3654 12 13.062 12H16.9516C17.6483 12 18.2288 12.5687 18.2288 13.2512V15.7536C18.2288 15.9242 18.2869 16.0948 18.3449 16.2085C18.403 16.3791 18.5191 16.4929 18.6352 16.6066C18.7513 16.7204 18.8674 16.8341 19.0415 16.891C19.2157 16.9479 19.3899 17.0047 19.506 17.0047H23.1053C23.5697 17.0047 23.918 16.6066 23.918 16.2085V0.853081C23.918 0.398104 23.5117 0.0568723 23.1053 0.0568723H7.4889V0Z" fill="#0157FF"/>
</svg>
