<svg width="100%" height="100%" viewBox="0 0 624 282" preserveAspectRatio="xMaxYMax meet" fill="none" xmlns="http://www.w3.org/2000/svg">
    <rect width="624" height="282" rx="10" fill="#FAFAFB"/>
    <g clip-path="url(#clip0_7355_28877)">
        <rect width="624" height="282" fill="#FAFAFB"/>
        <g opacity="0.3">
            <path opacity="0.1" d="M403.291 137.127C403.291 137.997 402.586 138.702 401.717 138.702C400.847 138.702 400.142 137.997 400.142 137.127C400.142 136.258 400.847 135.553 401.717 135.553C402.586 135.553 403.291 136.258 403.291 137.127Z" fill="#23024D"/>
            <path opacity="0.1" d="M184.044 116.665C184.044 117.534 183.339 118.239 182.47 118.239C181.6 118.239 180.895 117.534 180.895 116.665C180.895 115.795 181.6 115.09 182.47 115.09C183.339 115.09 184.044 115.795 184.044 116.665Z" fill="#23024D"/>
            <path d="M214.116 208.654C214.116 209.741 213.235 210.623 212.148 210.623C211.061 210.623 210.18 209.741 210.18 208.654C210.18 207.567 211.061 206.686 212.148 206.686C213.235 206.686 214.116 207.567 214.116 208.654Z" fill="#23024D"/>
            <path d="M356.839 168.229C356.839 169.316 355.958 170.197 354.871 170.197C353.784 170.197 352.903 169.316 352.903 168.229C352.903 167.142 353.784 166.261 354.871 166.261C355.958 166.261 356.839 167.142 356.839 168.229Z" fill="#23024D"/>
            <path fill-rule="evenodd" clip-rule="evenodd" d="M242.283 261.956C241.432 261.956 240.742 262.646 240.742 263.497C240.742 264.348 241.432 265.038 242.283 265.038C243.134 265.038 243.824 264.348 243.824 263.497C243.824 262.646 243.134 261.956 242.283 261.956ZM239.887 263.497C239.887 262.174 240.96 261.102 242.283 261.102C243.606 261.102 244.678 262.174 244.678 263.497C244.678 264.82 243.606 265.893 242.283 265.893C240.96 265.893 239.887 264.82 239.887 263.497Z" fill="#23024D"/>
            <path fill-rule="evenodd" clip-rule="evenodd" d="M242.675 225.243C243.507 225.243 244.182 224.569 244.182 223.736C244.182 222.904 243.507 222.229 242.675 222.229C241.842 222.229 241.167 222.904 241.167 223.736C241.167 224.569 241.842 225.243 242.675 225.243ZM242.675 226.098C243.979 226.098 245.037 225.041 245.037 223.736C245.037 222.432 243.979 221.374 242.675 221.374C241.37 221.374 240.313 222.432 240.313 223.736C240.313 225.041 241.37 226.098 242.675 226.098Z" fill="#23024D"/>
            <path fill-rule="evenodd" clip-rule="evenodd" d="M330.249 35.2083C331.081 35.2083 331.756 34.5334 331.756 33.7009C331.756 32.8684 331.081 32.1935 330.249 32.1935C329.416 32.1935 328.741 32.8684 328.741 33.7009C328.741 34.5334 329.416 35.2083 330.249 35.2083ZM330.249 36.0629C331.553 36.0629 332.611 35.0054 332.611 33.7009C332.611 32.3964 331.553 31.3389 330.249 31.3389C328.944 31.3389 327.887 32.3964 327.887 33.7009C327.887 35.0054 328.944 36.0629 330.249 36.0629Z" fill="#23024D"/>
            <path fill-rule="evenodd" clip-rule="evenodd" d="M201.203 61.702C202.035 61.702 202.71 61.0271 202.71 60.1945C202.71 59.362 202.035 58.6871 201.203 58.6871C200.37 58.6871 199.695 59.362 199.695 60.1945C199.695 61.0271 200.37 61.702 201.203 61.702ZM201.203 62.5566C202.507 62.5566 203.565 61.499 203.565 60.1945C203.565 58.89 202.507 57.8325 201.203 57.8325C199.898 57.8325 198.841 58.89 198.841 60.1945C198.841 61.499 199.898 62.5566 201.203 62.5566Z" fill="#23024D"/>
            <path fill-rule="evenodd" clip-rule="evenodd" d="M431.946 132.635C432.779 132.635 433.454 131.96 433.454 131.127C433.454 130.295 432.779 129.62 431.946 129.62C431.114 129.62 430.439 130.295 430.439 131.127C430.439 131.96 431.114 132.635 431.946 132.635ZM431.946 133.489C433.251 133.489 434.309 132.432 434.309 131.127C434.309 129.823 433.251 128.765 431.946 128.765C430.642 128.765 429.584 129.823 429.584 131.127C429.584 132.432 430.642 133.489 431.946 133.489Z" fill="#23024D"/>
            <path d="M318.259 73.3547C318.259 74.6592 317.201 75.7167 315.897 75.7167C314.592 75.7167 313.535 74.6592 313.535 73.3547C313.535 72.0502 314.592 70.9927 315.897 70.9927C317.201 70.9927 318.259 72.0502 318.259 73.3547Z" fill="#23024D"/>
            <path fill-rule="evenodd" clip-rule="evenodd" d="M315.897 74.8621C316.729 74.8621 317.404 74.1872 317.404 73.3547C317.404 72.5222 316.729 71.8473 315.897 71.8473C315.064 71.8473 314.39 72.5222 314.39 73.3547C314.39 74.1872 315.064 74.8621 315.897 74.8621ZM315.897 75.7167C317.201 75.7167 318.259 74.6592 318.259 73.3547C318.259 72.0502 317.201 70.9927 315.897 70.9927C314.592 70.9927 313.535 72.0502 313.535 73.3547C313.535 74.6592 314.592 75.7167 315.897 75.7167Z" fill="#23024D"/>
            <path d="M280.74 17.5288L289.876 51.6249L290.702 51.4037L281.566 17.3076L280.74 17.5288Z" fill="#23024D"/>
            <path d="M244.1 20.822L247.17 26.1385L247.91 25.7112L244.84 20.3947L244.1 20.822Z" fill="#23024D"/>
            <path d="M397.376 192.443L402.692 195.512L403.119 194.772L397.803 191.703L397.376 192.443Z" fill="#23024D"/>
            <path d="M407.124 198.071L420.859 206L421.286 205.26L407.552 197.33L407.124 198.071Z" fill="#23024D"/>
            <path d="M439.466 216.743L425.732 208.813L426.159 208.073L439.893 216.003L439.466 216.743Z" fill="#23024D"/>
            <path d="M257.655 44.3032L249.725 30.569L250.465 30.1417L258.395 43.8759L257.655 44.3032Z" fill="#23024D"/>
            <path d="M260.471 49.1767L268.401 62.9109L269.141 62.4836L261.211 48.7494L260.471 49.1767Z" fill="#23024D"/>
            <path d="M220.193 117.757L224.146 118.816L224.367 117.991L220.414 116.931L220.193 117.757Z" fill="#23024D"/>
            <path d="M216.735 116.83L206.358 114.049L206.579 113.224L216.956 116.004L216.735 116.83Z" fill="#23024D"/>
            <path d="M192.521 110.342L202.898 113.123L203.119 112.297L192.742 109.517L192.521 110.342Z" fill="#23024D"/>
            <path d="M377.703 252.542L375.657 248.997L376.397 248.57L378.443 252.114L377.703 252.542Z" fill="#23024D"/>
            <path d="M368.494 236.592L373.866 245.896L374.606 245.469L369.234 236.165L368.494 236.592Z" fill="#23024D"/>
            <path d="M366.703 233.491L361.332 224.187L362.072 223.76L367.444 233.064L366.703 233.491Z" fill="#23024D"/>
            <path d="M212.533 85.5308L198.799 77.6013L199.226 76.8612L212.96 84.7907L212.533 85.5308Z" fill="#23024D"/>
            <path d="M217.405 88.3448L231.14 96.2743L231.567 95.5341L217.833 87.6047L217.405 88.3448Z" fill="#23024D"/>
            <path d="M393.349 221.932L382.135 210.718L382.74 210.114L393.954 221.328L393.349 221.932Z" fill="#23024D"/>
            <path d="M397.33 225.911L408.544 237.125L409.148 236.521L397.934 225.307L397.33 225.911Z" fill="#23024D"/>
            <path d="M239.947 68.5288L245.735 74.3167L246.339 73.7124L240.551 67.9245L239.947 68.5288Z" fill="#23024D"/>
            <path d="M234.88 63.4647L219.326 47.9099L219.93 47.3056L235.485 62.8604L234.88 63.4647Z" fill="#23024D"/>
            <path d="M201.825 30.1417L213.903 42.4835L214.508 41.8792L202.43 29.5374L201.825 30.1417Z" fill="#23024D"/>
            <path d="M355.375 296.298L353.256 288.391L354.082 288.17L356.2 296.076L355.375 296.298Z" fill="#23024D"/>
            <path d="M345.711 260.225L351.405 281.473L352.23 281.252L346.537 260.004L345.711 260.225Z" fill="#23024D"/>
            <path d="M343.726 252.813L338.165 232.059L338.99 231.838L344.551 252.592L343.726 252.813Z" fill="#23024D"/>
            <path d="M439.551 176.898L405.455 167.762L405.676 166.937L439.772 176.073L439.551 176.898Z" fill="#23024D"/>
            <path d="M228.018 195.514L233.335 192.445L232.908 191.705L227.591 194.774L228.018 195.514Z" fill="#23024D"/>
            <path d="M223.586 198.07L209.852 205.999L209.425 205.259L223.159 197.33L223.586 198.07Z" fill="#23024D"/>
            <path d="M191.245 216.743L204.979 208.813L204.552 208.073L190.818 216.003L191.245 216.743Z" fill="#23024D"/>
            <path d="M386.611 20.822L383.542 26.1385L382.802 25.7112L385.871 20.3947L386.611 20.822Z" fill="#23024D"/>
            <path d="M373.053 44.3032L380.983 30.569L380.243 30.1417L372.313 43.8759L373.053 44.3032Z" fill="#23024D"/>
            <path d="M370.241 49.1767L362.311 62.9109L361.571 62.4836L369.501 48.7494L370.241 49.1767Z" fill="#23024D"/>
            <path d="M410.518 117.757L406.565 118.816L406.344 117.991L410.297 116.931L410.518 117.757Z" fill="#23024D"/>
            <path d="M413.975 116.83L424.352 114.049L424.131 113.224L413.754 116.004L413.975 116.83Z" fill="#23024D"/>
            <path d="M438.191 110.342L427.813 113.123L427.592 112.297L437.969 109.517L438.191 110.342Z" fill="#23024D"/>
            <path d="M253.007 252.542L255.054 248.997L254.314 248.57L252.267 252.114L253.007 252.542Z" fill="#23024D"/>
            <path d="M262.216 236.592L256.845 245.896L256.105 245.469L261.476 236.165L262.216 236.592Z" fill="#23024D"/>
            <path d="M264.007 233.491L269.379 224.187L268.639 223.76L263.267 233.064L264.007 233.491Z" fill="#23024D"/>
            <path d="M418.176 85.5316L431.91 77.6021L431.483 76.862L417.749 84.7915L418.176 85.5316Z" fill="#23024D"/>
            <path d="M413.304 88.3448L399.57 96.2742L399.143 95.5341L412.877 87.6047L413.304 88.3448Z" fill="#23024D"/>
            <path d="M237.36 221.932L248.573 210.718L247.969 210.114L236.755 221.328L237.36 221.932Z" fill="#23024D"/>
            <path d="M233.378 225.91L222.164 237.124L221.56 236.52L232.774 225.306L233.378 225.91Z" fill="#23024D"/>
            <path d="M390.761 68.5288L384.973 74.3166L384.369 73.7124L390.157 67.9245L390.761 68.5288Z" fill="#23024D"/>
            <path d="M395.828 63.4647L411.382 47.9098L410.778 47.3055L395.223 62.8604L395.828 63.4647Z" fill="#23024D"/>
            <path d="M426.701 32.767L416.805 42.4835L416.2 41.8792L426.096 32.1627L426.701 32.767Z" fill="#23024D"/>
            <path d="M275.337 296.298L277.455 288.391L276.63 288.17L274.511 296.076L275.337 296.298Z" fill="#23024D"/>
            <path d="M285 260.225L279.307 281.473L278.481 281.252L284.175 260.004L285 260.225Z" fill="#23024D"/>
            <path d="M286.986 252.813L292.547 232.059L291.721 231.838L286.16 252.592L286.986 252.813Z" fill="#23024D"/>
            <path d="M191.16 176.898L225.256 167.762L225.035 166.937L190.939 176.073L191.16 176.898Z" fill="#23024D"/>
            <path d="M349.969 17.5288L340.833 51.6249L340.008 51.4037L349.144 17.3076L349.969 17.5288Z" fill="#23024D"/>
            <path d="M98.8292 141.259L91 141.259L91 140.405L98.8292 140.405L98.8292 141.259Z" fill="#23024D"/>
            <path d="M134.843 141.259L106.658 141.259L106.658 140.405L134.843 140.405L134.843 141.259Z" fill="#23024D"/>
            <path d="M475.413 141.259L144.238 141.259L144.238 140.405L475.413 140.405L475.413 141.259Z" fill="#23024D"/>
            <path d="M521.605 141.259L493.42 141.259L493.42 140.405L521.605 140.405L521.605 141.259Z" fill="#23024D"/>
            <path d="M537.263 141.259L529.434 141.259L529.434 140.405L537.263 140.405L537.263 141.259Z" fill="#23024D"/>
            <path d="M311.593 -114.557L311.593 -103.991L310.739 -103.991L310.739 -114.557L311.593 -114.557Z" fill="#23024D"/>
            <path d="M311.593 -93.4249L311.593 -55.3876L310.739 -55.3876L310.739 -93.4249L311.593 -93.4249Z" fill="#23024D"/>
            <path d="M311.593 -31.0853L311.593 415.853L310.739 415.853L310.739 -31.0853L311.593 -31.0853Z" fill="#23024D"/>
            <path d="M311.593 428.532L311.593 466.57L310.739 466.57L310.739 428.532L311.593 428.532Z" fill="#23024D"/>
            <path d="M311.593 477.135L311.593 487.701L310.739 487.701L310.739 477.135L311.593 477.135Z" fill="#23024D"/>
            <path fill-rule="evenodd" clip-rule="evenodd" d="M309.42 44.6501C310.001 44.6399 310.583 44.6348 311.166 44.6348C311.75 44.6348 312.332 44.6399 312.913 44.6501L312.898 45.5045C312.322 45.4944 311.745 45.4894 311.166 45.4894C310.588 45.4894 310.011 45.4944 309.435 45.5045L309.42 44.6501ZM315.519 44.73C316.683 44.7811 317.842 44.8525 318.996 44.944L318.928 45.7959C317.785 45.7052 316.636 45.6344 315.481 45.5838L315.519 44.73ZM303.337 44.944C304.491 44.8525 305.65 44.7811 306.814 44.73L306.851 45.5838C305.697 45.6344 304.548 45.7052 303.405 45.7959L303.337 44.944ZM321.591 45.1845C322.749 45.3074 323.901 45.4505 325.046 45.6135L324.926 46.4596C323.791 46.298 322.649 46.1562 321.501 46.0344L321.591 45.1845ZM297.286 45.6135C298.432 45.4505 299.584 45.3074 300.742 45.1846L300.832 46.0344C299.684 46.1562 298.542 46.298 297.407 46.4596L297.286 45.6135ZM327.627 46.016C328.773 46.2105 329.912 46.425 331.044 46.6591L330.871 47.496C329.749 47.264 328.62 47.0514 327.484 46.8586L327.627 46.016ZM291.289 46.6591C292.421 46.425 293.56 46.2105 294.706 46.016L294.849 46.8586C293.713 47.0514 292.584 47.264 291.462 47.496L291.289 46.6591ZM285.364 48.0798C286.48 47.7747 287.605 47.4889 288.737 47.2228L288.932 48.0548C287.81 48.3185 286.696 48.6018 285.589 48.9042L285.364 48.0798ZM333.596 47.2228C334.728 47.4889 335.853 47.7747 336.969 48.0798L336.744 48.9042C335.637 48.6018 334.523 48.3185 333.401 48.0548L333.596 47.2228ZM279.542 49.8695C280.638 49.4944 281.743 49.1382 282.857 48.8015L283.104 49.6195C282.001 49.9533 280.905 50.3062 279.819 50.678L279.542 49.8695ZM339.476 48.8015C340.59 49.1382 341.694 49.4944 342.79 49.8694L342.514 50.678C341.427 50.3062 340.332 49.9533 339.229 49.6195L339.476 48.8015ZM273.846 52.0211C274.917 51.5779 275.996 51.1532 277.085 50.7474L277.384 51.5482C276.304 51.9504 275.234 52.3714 274.173 52.8106L273.846 52.0211ZM345.247 50.7474C346.336 51.1532 347.416 51.5779 348.486 52.0211L348.159 52.8106C347.099 52.3714 346.028 51.9504 344.949 51.5482L345.247 50.7474ZM268.295 54.5272C269.336 54.0176 270.386 53.526 271.447 53.0528L271.795 53.8333C270.744 54.3023 269.702 54.7896 268.671 55.2946L268.295 54.5272ZM350.886 53.0528C351.946 53.526 352.997 54.0176 354.037 54.5272L353.661 55.2946C352.63 54.7896 351.589 54.3023 350.538 53.8333L350.886 53.0528ZM262.912 57.3769C263.919 56.8028 264.937 56.2461 265.966 55.7072L266.363 56.4642C265.343 56.9984 264.333 57.5502 263.335 58.1193L262.912 57.3769ZM356.367 55.7072C357.396 56.2461 358.414 56.8028 359.421 57.3769L358.997 58.1193C357.999 57.5502 356.99 56.9984 355.97 56.4643L356.367 55.7072ZM257.719 60.5575C258.688 59.9213 259.67 59.3018 260.663 58.6996L261.106 59.4303C260.122 60.0273 259.149 60.6413 258.188 61.272L257.719 60.5575ZM361.67 58.6996C362.663 59.3018 363.644 59.9213 364.614 60.5575L364.145 61.272C363.184 60.6413 362.211 60.0273 361.227 59.4303L361.67 58.6996ZM252.735 64.0566C253.662 63.3611 254.603 62.6818 255.556 62.0191L256.044 62.7207C255.099 63.3777 254.167 64.051 253.248 64.7403L252.735 64.0566ZM366.777 62.0191C367.73 62.6818 368.67 63.3611 369.598 64.0566L369.085 64.7403C368.166 64.051 367.234 63.3777 366.289 62.7207L366.777 62.0191ZM247.978 67.8605C248.861 67.1082 249.757 66.3715 250.667 65.6506L251.198 66.3204C250.296 67.035 249.407 67.7653 248.533 68.5109L247.978 67.8605ZM371.666 65.6506C372.576 66.3715 373.472 67.1082 374.355 67.8605L373.8 68.5109C372.925 67.7653 372.037 67.035 371.135 66.3204L371.666 65.6506ZM243.468 71.9534C244.303 71.1473 245.152 70.356 246.014 69.5799L246.586 70.2153C245.731 70.9846 244.889 71.7689 244.062 72.568L243.468 71.9534ZM376.318 69.5799C377.181 70.356 378.03 71.1473 378.864 71.9534L378.271 72.568C377.444 71.7689 376.602 70.9846 375.747 70.2153L376.318 69.5799ZM239.223 76.3197C240.005 75.463 240.803 74.6203 241.616 73.7921L242.226 74.3906C241.42 75.2115 240.63 76.0468 239.854 76.896L239.223 76.3197ZM380.717 73.7921C381.53 74.6203 382.327 75.463 383.11 76.3197L382.479 76.896C381.703 76.0468 380.913 75.2115 380.107 74.3906L380.717 73.7921ZM235.258 80.9427C235.986 80.0385 236.729 79.1476 237.488 78.2705L238.135 78.8297C237.382 79.6992 236.645 80.5822 235.924 81.4784L235.258 80.9427ZM384.844 78.2705C385.603 79.1477 386.347 80.0385 387.074 80.9427L386.409 81.4784C385.687 80.5822 384.95 79.6992 384.198 78.8297L384.844 78.2705ZM231.591 85.8049C232.261 84.8567 232.947 83.9211 233.649 82.9985L234.329 83.5161C233.633 84.4307 232.953 85.3581 232.289 86.2978L231.591 85.8049ZM388.684 82.9985C389.386 83.9211 390.072 84.8567 390.742 85.8049L390.044 86.2978C389.38 85.3581 388.7 84.4307 388.004 83.5161L388.684 82.9985ZM228.236 90.8885C228.845 89.8996 229.471 88.9225 230.114 87.9576L230.825 88.4315C230.188 89.388 229.567 90.3564 228.964 91.3365L228.236 90.8885ZM392.219 87.9576C392.862 88.9225 393.488 89.8996 394.097 90.8885L393.369 91.3365C392.766 90.3564 392.145 89.388 391.508 88.4315L392.219 87.9576ZM225.208 96.1723C225.754 95.1467 226.317 94.1321 226.898 93.1289L227.637 93.5571C227.062 94.5515 226.503 95.5571 225.963 96.5735L225.208 96.1723ZM395.435 93.1289C396.016 94.1321 396.579 95.1468 397.125 96.1723L396.37 96.5736C395.83 95.5571 395.271 94.5515 394.695 93.5571L395.435 93.1289ZM222.521 101.637C223 100.579 223.498 99.5311 224.014 98.4938L224.779 98.8744C224.268 99.9025 223.774 100.941 223.299 101.99L222.521 101.637ZM398.319 98.4938C398.835 99.5311 399.333 100.579 399.812 101.637L399.034 101.99C398.559 100.941 398.065 99.9025 397.554 98.8744L398.319 98.4938ZM220.185 107.263C220.596 106.176 221.026 105.099 221.475 104.031L222.263 104.362C221.818 105.42 221.392 106.488 220.984 107.565L220.185 107.263ZM400.857 104.031C401.306 105.099 401.737 106.176 402.148 107.263L401.349 107.565C400.941 106.488 400.515 105.42 400.07 104.362L400.857 104.031ZM218.212 113.026C218.553 111.914 218.914 110.81 219.295 109.716L220.102 109.996C219.725 111.081 219.367 112.175 219.029 113.277L218.212 113.026ZM403.038 109.716C403.418 110.81 403.78 111.914 404.121 113.026L403.304 113.277C402.966 112.175 402.608 111.081 402.231 109.996L403.038 109.716ZM216.61 118.9C216.88 117.768 217.17 116.645 217.48 115.53L218.303 115.758C217.996 116.864 217.709 117.977 217.441 119.098L216.61 118.9ZM404.853 115.53C405.163 116.645 405.453 117.768 405.723 118.9L404.891 119.098C404.624 117.977 404.336 116.864 404.03 115.758L404.853 115.53ZM215.385 124.865C215.583 123.72 215.801 122.581 216.038 121.45L216.875 121.625C216.639 122.747 216.423 123.875 216.228 125.011L215.385 124.865ZM406.295 121.45C406.532 122.581 406.75 123.72 406.947 124.865L406.105 125.011C405.91 123.875 405.694 122.747 405.458 121.625L406.295 121.45ZM214.541 130.9C214.666 129.742 214.811 128.59 214.977 127.445L215.823 127.568C215.659 128.702 215.515 129.844 215.391 130.991L214.541 130.9ZM407.356 127.445C407.522 128.59 407.667 129.742 407.792 130.9L406.942 130.991C406.818 129.844 406.674 128.703 406.51 127.568L407.356 127.445ZM214.08 136.972C214.131 135.808 214.204 134.648 214.297 133.495L215.149 133.564C215.057 134.707 214.985 135.856 214.933 137.01L214.08 136.972ZM408.036 133.495C408.129 134.649 408.201 135.808 408.253 136.972L407.399 137.01C407.348 135.856 407.276 134.707 407.184 133.564L408.036 133.495ZM213.983 141.325C213.983 140.741 213.988 140.159 213.998 139.578L214.853 139.593C214.843 140.169 214.838 140.746 214.838 141.325C214.838 141.903 214.843 142.48 214.853 143.056L213.998 143.071C213.988 142.49 213.983 141.908 213.983 141.325ZM408.334 139.578C408.345 140.159 408.35 140.741 408.35 141.325C408.35 141.908 408.345 142.49 408.334 143.071L407.48 143.056C407.49 142.48 407.495 141.903 407.495 141.325C407.495 140.746 407.49 140.169 407.48 139.593L408.334 139.578ZM214.297 149.154C214.204 148.001 214.131 146.842 214.08 145.677L214.933 145.639C214.985 146.793 215.057 147.942 215.149 149.085L214.297 149.154ZM408.253 145.677C408.201 146.842 408.129 148.001 408.036 149.154L407.184 149.085C407.276 147.942 407.348 146.793 407.399 145.639L408.253 145.677ZM214.977 155.204C214.811 154.059 214.666 152.907 214.541 151.749L215.391 151.658C215.515 152.805 215.659 153.947 215.823 155.082L214.977 155.204ZM407.792 151.749C407.667 152.907 407.522 154.059 407.356 155.204L406.51 155.082C406.674 153.947 406.818 152.805 406.942 151.658L407.792 151.749ZM216.038 161.2C215.801 160.068 215.583 158.929 215.385 157.784L216.228 157.639C216.423 158.774 216.639 159.903 216.875 161.024L216.038 161.2ZM406.947 157.784C406.75 158.929 406.532 160.068 406.295 161.2L405.458 161.024C405.694 159.903 405.91 158.774 406.105 157.639L406.947 157.784ZM217.48 167.12C217.17 166.004 216.88 164.881 216.61 163.75L217.441 163.551C217.709 164.672 217.996 165.786 218.303 166.891L217.48 167.12ZM405.723 163.75C405.453 164.881 405.163 166.004 404.853 167.12L404.03 166.891C404.336 165.786 404.624 164.672 404.891 163.551L405.723 163.75ZM219.295 172.933C218.914 171.839 218.553 170.735 218.212 169.624L219.029 169.373C219.367 170.475 219.725 171.568 220.102 172.653L219.295 172.933ZM404.121 169.624C403.78 170.735 403.418 171.839 403.038 172.933L402.231 172.653C402.608 171.568 402.966 170.475 403.304 169.373L404.121 169.624ZM221.475 178.618C221.026 177.551 220.596 176.473 220.185 175.386L220.984 175.084C221.392 176.161 221.818 177.229 222.263 178.287L221.475 178.618ZM402.148 175.386C401.737 176.473 401.306 177.551 400.857 178.618L400.07 178.287C400.515 177.229 400.941 176.161 401.349 175.084L402.148 175.386ZM224.014 184.155C223.498 183.118 223 182.07 222.521 181.012L223.299 180.659C223.774 181.708 224.268 182.747 224.779 183.775L224.014 184.155ZM399.812 181.012C399.333 182.07 398.835 183.118 398.319 184.155L397.554 183.775C398.065 182.747 398.559 181.708 399.034 180.659L399.812 181.012ZM226.898 189.52C226.317 188.517 225.754 187.502 225.208 186.477L225.963 186.076C226.503 187.092 227.062 188.098 227.637 189.092L226.898 189.52ZM397.125 186.477C396.579 187.502 396.016 188.517 395.435 189.52L394.695 189.092C395.271 188.098 395.83 187.092 396.37 186.076L397.125 186.477ZM230.114 194.692C229.471 193.727 228.845 192.75 228.236 191.761L228.964 191.313C229.567 192.293 230.188 193.261 230.825 194.218L230.114 194.692ZM394.097 191.761C393.488 192.75 392.862 193.727 392.219 194.692L391.508 194.218C392.145 193.261 392.766 192.293 393.369 191.313L394.097 191.761ZM233.649 199.651C232.947 198.728 232.261 197.792 231.591 196.844L232.289 196.351C232.953 197.291 233.633 198.218 234.329 199.133L233.649 199.651ZM390.742 196.844C390.072 197.792 389.386 198.728 388.684 199.651L388.004 199.133C388.7 198.218 389.38 197.291 390.044 196.351L390.742 196.844ZM237.488 204.379C236.729 203.502 235.986 202.611 235.258 201.707L235.924 201.171C236.645 202.067 237.382 202.95 238.135 203.819L237.488 204.379ZM387.074 201.707C386.347 202.611 385.603 203.502 384.844 204.379L384.198 203.819C384.95 202.95 385.687 202.067 386.409 201.171L387.074 201.707ZM241.616 208.857C240.803 208.029 240.005 207.186 239.223 206.329L239.854 205.753C240.63 206.602 241.42 207.438 242.226 208.259L241.616 208.857ZM383.11 206.329C382.327 207.186 381.53 208.029 380.717 208.857L380.107 208.259C380.913 207.438 381.703 206.602 382.479 205.753L383.11 206.329ZM246.014 213.069C245.152 212.293 244.303 211.502 243.468 210.696L244.062 210.081C244.889 210.88 245.731 211.665 246.586 212.434L246.014 213.069ZM378.864 210.696C378.03 211.502 377.181 212.293 376.318 213.069L375.747 212.434C376.602 211.665 377.444 210.88 378.271 210.081L378.864 210.696ZM250.667 216.999C249.757 216.278 248.861 215.541 247.978 214.789L248.533 214.138C249.407 214.884 250.296 215.614 251.198 216.329L250.667 216.999ZM374.355 214.789C373.472 215.541 372.576 216.278 371.666 216.999L371.135 216.329C372.037 215.614 372.925 214.884 373.8 214.138L374.355 214.789ZM255.556 220.63C254.603 219.967 253.662 219.288 252.735 218.593L253.248 217.909C254.167 218.598 255.099 219.272 256.044 219.928L255.556 220.63ZM369.598 218.593C368.67 219.288 367.73 219.967 366.777 220.63L366.289 219.928C367.234 219.272 368.166 218.598 369.085 217.909L369.598 218.593ZM260.663 223.95C259.67 223.347 258.688 222.728 257.719 222.092L258.188 221.377C259.149 222.008 260.122 222.622 261.106 223.219L260.663 223.95ZM364.614 222.092C363.644 222.728 362.663 223.347 361.67 223.95L361.227 223.219C362.211 222.622 363.184 222.008 364.145 221.377L364.614 222.092ZM265.966 226.942C264.937 226.403 263.919 225.846 262.912 225.272L263.335 224.53C264.333 225.099 265.343 225.651 266.363 226.185L265.966 226.942ZM359.421 225.272C358.414 225.846 357.396 226.403 356.367 226.942L355.97 226.185C356.99 225.651 357.999 225.099 358.997 224.53L359.421 225.272ZM271.447 229.596C270.386 229.123 269.336 228.632 268.295 228.122L268.671 227.355C269.702 227.86 270.744 228.347 271.795 228.816L271.447 229.596ZM354.037 228.122C352.997 228.632 351.946 229.123 350.886 229.596L350.538 228.816C351.589 228.347 352.63 227.86 353.662 227.355L354.037 228.122ZM277.085 231.902C275.996 231.496 274.917 231.071 273.846 230.628L274.173 229.839C275.234 230.278 276.304 230.699 277.384 231.101L277.085 231.902ZM348.486 230.628C347.416 231.071 346.336 231.496 345.247 231.902L344.949 231.101C346.028 230.699 347.099 230.278 348.159 229.839L348.486 230.628ZM282.857 233.848C281.743 233.511 280.638 233.155 279.542 232.78L279.819 231.971C280.905 232.343 282.001 232.696 283.104 233.03L282.857 233.848ZM342.791 232.78C341.694 233.155 340.59 233.511 339.476 233.848L339.229 233.03C340.332 232.696 341.427 232.343 342.514 231.971L342.791 232.78ZM288.737 235.426C287.605 235.16 286.48 234.874 285.364 234.569L285.589 233.745C286.696 234.047 287.81 234.331 288.932 234.594L288.737 235.426ZM336.969 234.569C335.853 234.874 334.728 235.16 333.596 235.426L333.401 234.594C334.523 234.331 335.637 234.047 336.744 233.745L336.969 234.569ZM294.706 236.633C293.56 236.439 292.421 236.224 291.289 235.99L291.462 235.153C292.584 235.385 293.713 235.598 294.849 235.791L294.706 236.633ZM331.044 235.99C329.912 236.224 328.773 236.439 327.627 236.633L327.484 235.791C328.62 235.598 329.749 235.385 330.871 235.153L331.044 235.99ZM300.742 237.465C299.584 237.342 298.432 237.199 297.286 237.036L297.407 236.19C298.542 236.351 299.684 236.493 300.832 236.615L300.742 237.465ZM325.046 237.036C323.901 237.199 322.749 237.342 321.591 237.465L321.501 236.615C322.649 236.493 323.791 236.351 324.926 236.19L325.046 237.036ZM306.814 237.919C305.65 237.868 304.491 237.797 303.337 237.705L303.405 236.853C304.548 236.944 305.697 237.015 306.851 237.065L306.814 237.919ZM318.996 237.705C317.842 237.797 316.683 237.868 315.519 237.919L315.481 237.065C316.636 237.015 317.785 236.944 318.928 236.853L318.996 237.705ZM311.166 238.014C310.583 238.014 310.001 238.009 309.42 237.999L309.435 237.145C310.011 237.155 310.588 237.16 311.166 237.16C311.745 237.16 312.322 237.155 312.898 237.145L312.913 237.999C312.332 238.009 311.75 238.014 311.166 238.014Z" fill="#23024D"/>
            <path d="M250.382 201.69C250.382 168.395 277.594 141.398 311.168 141.398C344.743 141.398 371.954 168.395 371.954 201.69C371.954 234.985 344.743 261.982 311.168 261.982C310.599 261.982 310.031 261.974 309.465 261.959L309.442 262.813C310.016 262.829 310.591 262.837 311.168 262.836C345.208 262.836 372.809 235.463 372.809 201.69C372.809 167.916 345.208 140.543 311.168 140.543C277.128 140.543 249.528 167.916 249.528 201.69L250.382 201.69Z" fill="#23024D"/>
            <path d="M249.528 201.69C249.528 202.267 249.536 202.843 249.552 203.416L250.406 203.392C250.39 202.827 250.382 202.259 250.382 201.69L249.528 201.69Z" fill="#23024D"/>
            <path d="M249.678 205.996C249.759 207.147 249.872 208.29 250.016 209.423L250.864 209.315C250.722 208.198 250.61 207.071 250.531 205.936L249.678 205.996Z" fill="#23024D"/>
            <path d="M250.397 211.978C250.591 213.115 250.817 214.241 251.073 215.355L251.906 215.164C251.653 214.065 251.43 212.955 251.239 211.834L250.397 211.978Z" fill="#23024D"/>
            <path d="M251.706 217.86C252.012 218.97 252.349 220.068 252.716 221.153L253.526 220.879C253.164 219.81 252.832 218.727 252.53 217.632L251.706 217.86Z" fill="#23024D"/>
            <path d="M253.596 223.581C254.011 224.655 254.456 225.714 254.929 226.757L255.707 226.404C255.241 225.376 254.802 224.332 254.393 223.273L253.596 223.581Z" fill="#23024D"/>
            <path d="M256.046 229.087C256.566 230.113 257.113 231.122 257.688 232.115L258.427 231.686C257.861 230.708 257.321 229.712 256.809 228.701L256.046 229.087Z" fill="#23024D"/>
            <path d="M259.03 234.322C259.648 235.291 260.292 236.242 260.962 237.173L261.656 236.674C260.995 235.755 260.36 234.818 259.751 233.862L259.03 234.322Z" fill="#23024D"/>
            <path d="M262.514 239.237C263.224 240.141 263.958 241.024 264.716 241.885L265.358 241.321C264.61 240.471 263.886 239.6 263.186 238.71L262.514 239.237Z" fill="#23024D"/>
            <path d="M266.463 243.788C267.257 244.618 268.074 245.425 268.913 246.209L269.497 245.584C268.669 244.811 267.863 244.015 267.081 243.197L266.463 243.788Z" fill="#23024D"/>
            <path d="M270.837 247.932C271.707 248.68 272.599 249.404 273.511 250.103L274.031 249.425C273.131 248.735 272.252 248.021 271.394 247.284L270.837 247.932Z" fill="#23024D"/>
            <path d="M275.593 251.631C276.532 252.29 277.489 252.924 278.466 253.531L278.917 252.805C277.954 252.206 277.01 251.582 276.084 250.932L275.593 251.631Z" fill="#23024D"/>
            <path d="M280.687 254.849C281.685 255.413 282.7 255.951 283.731 256.46L284.11 255.694C283.092 255.191 282.091 254.662 281.108 254.105L280.687 254.849Z" fill="#23024D"/>
            <path d="M286.07 257.555C287.118 258.019 288.18 258.454 289.258 258.861L289.559 258.061C288.497 257.66 287.449 257.231 286.416 256.774L286.07 257.555Z" fill="#23024D"/>
            <path d="M291.692 259.722C292.779 260.08 293.879 260.41 294.992 260.709L295.214 259.884C294.117 259.589 293.032 259.264 291.96 258.91L291.692 259.722Z" fill="#23024D"/>
            <path d="M297.499 261.328C298.615 261.578 299.742 261.799 300.88 261.988L301.02 261.145C299.898 260.958 298.787 260.741 297.687 260.494L297.499 261.328Z" fill="#23024D"/>
            <path d="M303.435 262.36C304.568 262.501 305.711 262.611 306.863 262.69L306.921 261.837C305.785 261.759 304.658 261.651 303.54 261.512L303.435 262.36Z" fill="#23024D"/>
            <path fill-rule="evenodd" clip-rule="evenodd" d="M311.169 140.263C344.744 140.263 371.955 113.266 371.955 79.9705L372.81 79.9705C372.81 113.744 345.209 141.117 311.169 141.117C277.129 141.117 249.529 113.744 249.529 79.9705C249.529 46.1968 277.129 18.8237 311.169 18.8237L311.169 19.6783C277.595 19.6783 250.383 46.6753 250.383 79.9705C250.383 113.266 277.595 140.263 311.169 140.263Z" fill="#23024D"/>
            <path fill-rule="evenodd" clip-rule="evenodd" d="M372.786 78.244C372.802 78.8176 372.81 79.3931 372.81 79.9705L371.955 79.9705C371.955 79.4011 371.947 78.8335 371.931 78.2679L372.786 78.244ZM372.321 72.2369C372.465 73.3701 372.578 74.5129 372.659 75.6645L371.807 75.7243C371.727 74.5888 371.616 73.462 371.474 72.3448L372.321 72.2369ZM371.264 66.3049C371.521 67.4194 371.747 68.5456 371.941 69.6823L371.098 69.8262C370.907 68.7055 370.684 67.5953 370.432 66.4965L371.264 66.3049ZM369.621 60.5075C369.988 61.592 370.325 62.69 370.631 63.8007L369.807 64.0278C369.506 62.9329 369.173 61.8504 368.812 60.7813L369.621 60.5075ZM367.408 54.9028C367.882 55.9462 368.326 57.0052 368.741 58.0788L367.944 58.387C367.535 57.3286 367.097 56.2846 366.63 55.2558L367.408 54.9028ZM364.65 49.5457C365.224 50.5378 365.772 51.5475 366.291 52.5736L365.529 52.9595C365.017 51.9478 364.477 50.9523 363.91 49.9741L364.65 49.5457ZM361.375 44.4874C362.046 45.4186 362.69 46.3693 363.308 47.3385L362.587 47.7978C361.978 46.8422 361.342 45.9048 360.682 44.9865L361.375 44.4874ZM357.621 39.7748C358.379 40.6365 359.114 41.5195 359.823 42.4228L359.151 42.9506C358.451 42.0599 357.727 41.1892 356.979 40.3394L357.621 39.7748ZM353.424 35.4515C354.263 36.2356 355.08 37.0427 355.874 37.8719L355.257 38.4629C354.474 37.6451 353.668 36.8492 352.841 36.0759L353.424 35.4515ZM348.827 31.5574C349.739 32.2564 350.63 32.9802 351.501 33.7278L350.944 34.3761C350.085 33.6388 349.206 32.925 348.307 32.2356L348.827 31.5574ZM343.872 28.1292C344.848 28.7365 345.806 29.3701 346.744 30.0291L346.253 30.7285C345.328 30.0786 344.383 29.4537 343.42 28.8549L343.872 28.1292ZM338.606 25.2002C339.638 25.7097 340.653 26.247 341.651 26.8111L341.23 27.555C340.246 26.9987 339.245 26.4689 338.228 25.9665L338.606 25.2002ZM333.08 22.7996C334.157 23.206 335.22 23.6416 336.267 24.1053L335.921 24.8867C334.888 24.4295 333.84 24 332.778 23.5991L333.08 22.7996ZM327.345 20.951C328.458 21.2504 329.558 21.58 330.645 21.9387L330.377 22.7502C329.305 22.3965 328.221 22.0715 327.123 21.7763L327.345 20.951ZM321.458 19.6718C322.595 19.8614 323.722 20.0819 324.838 20.3325L324.651 21.1663C323.551 20.9192 322.439 20.7017 321.317 20.5147L321.458 19.6718ZM315.475 18.9706C316.626 19.0494 317.769 19.1596 318.903 19.3003L318.797 20.1484C317.679 20.0096 316.552 19.9009 315.416 19.8232L315.475 18.9706ZM311.169 18.8237C311.746 18.8237 312.322 18.8316 312.895 18.8472L312.872 19.7015C312.306 19.6861 311.739 19.6783 311.169 19.6783L311.169 18.8237Z" fill="#23024D"/>
        </g>
        <path d="M288.186 192.549C288.287 189.507 289.767 187.027 292.16 184.97C292.939 184.297 293.429 184.598 294.074 185.07C299.347 188.899 304.622 192.714 309.902 196.513C316.862 201.561 323.826 206.603 330.794 211.636C333.577 213.632 335.664 216.04 336.053 219.565C336.465 223.251 334.384 226.498 331.746 228.511C331.067 229.028 330.633 228.394 330.176 228.066C322.084 222.228 313.998 216.379 305.917 210.519C301.732 207.489 297.514 204.481 293.34 201.428C290.379 199.293 288.253 196.591 288.186 192.549Z" fill="#23024D"/>
        <path d="M317.755 234.66C313.434 234.622 309.235 233.222 305.75 230.658C300.156 226.471 294.474 222.446 288.835 218.343C285.727 216.109 285.816 213.318 289.041 211.253C292.933 208.735 299.111 208.908 303.081 211.766C311.138 217.578 319.156 223.445 327.185 229.262L327.636 229.591C329.954 231.266 329.96 231.266 327.302 232.578C324.321 233.999 321.054 234.711 317.755 234.66Z" fill="#23024D"/>
        <path d="M306.383 178.63C310.751 178.568 315.02 179.929 318.541 182.508C324.177 186.652 329.89 190.702 335.569 194.812C338.589 197.028 338.423 199.92 335.197 201.836C333.014 203.055 330.531 203.636 328.032 203.513C325.533 203.389 323.12 202.567 321.068 201.138C312.669 195.059 304.266 188.997 295.856 182.951C294.646 182.082 294.646 181.916 295.906 181.229C299.095 179.423 302.718 178.524 306.383 178.63Z" fill="#23024D"/>
        <path d="M287 70.8182C287 60.533 287 55.3904 290.195 52.1952C293.39 49 298.533 49 308.818 49H313.182C323.467 49 328.61 49 331.805 52.1952C335 55.3904 335 60.533 335 70.8182V75.1818C335 85.467 335 90.6096 331.805 93.8048C328.61 97 323.467 97 313.182 97H308.818C298.533 97 293.39 97 290.195 93.8048C287 90.6096 287 85.467 287 75.1818V70.8182Z" fill="#23024D"/>
        <path fill-rule="evenodd" clip-rule="evenodd" d="M315.418 71.0755L320.786 76.4042L326.115 71.1097L328.455 73.4192L320.786 81.037L315.418 75.7075L306.954 84.1112L302.412 79.6019L296.975 84.9999L294.636 82.6897L302.412 74.9698L306.954 79.4791L315.418 71.0755Z" fill="white"/>
        <path fill-rule="evenodd" clip-rule="evenodd" d="M315.418 62.0908L320.786 67.4196L326.115 62.125L328.455 64.4346L320.786 72.0524L315.418 66.7229L306.954 75.1265L302.412 70.6173L296.975 76.0153L294.636 73.705L302.412 65.9852L306.954 70.4944L315.418 62.0908Z" fill="white"/>
        <g opacity="0.3">
            <path d="M477.216 65.3047C477.216 66.9503 475.882 68.2842 474.237 68.2842C472.591 68.2842 471.257 66.9503 471.257 65.3047C471.257 63.6592 472.591 62.3252 474.237 62.3252C475.882 62.3252 477.216 63.6592 477.216 65.3047Z" fill="#23024D"/>
            <path fill-rule="evenodd" clip-rule="evenodd" d="M519.852 145.987C518.564 145.987 517.519 147.032 517.519 148.32C517.519 149.608 518.564 150.653 519.852 150.653C521.14 150.653 522.185 149.608 522.185 148.32C522.185 147.032 521.14 145.987 519.852 145.987ZM516.226 148.32C516.226 146.317 517.849 144.694 519.852 144.694C521.855 144.694 523.478 146.317 523.478 148.32C523.478 150.323 521.855 151.947 519.852 151.947C517.849 151.947 516.226 150.323 516.226 148.32Z" fill="#23024D"/>
            <path fill-rule="evenodd" clip-rule="evenodd" d="M520.445 90.4153C521.705 90.4153 522.727 89.3937 522.727 88.1335C522.727 86.8733 521.705 85.8517 520.445 85.8517C519.185 85.8517 518.163 86.8733 518.163 88.1335C518.163 89.3937 519.185 90.4153 520.445 90.4153ZM520.445 91.709C522.42 91.709 524.02 90.1082 524.02 88.1335C524.02 86.1589 522.42 84.5581 520.445 84.5581C518.47 84.5581 516.87 86.1589 516.87 88.1335C516.87 90.1082 518.47 91.709 520.445 91.709Z" fill="#23024D"/>
            <path d="M578.066 -224.006L591.895 -172.394L593.144 -172.729L579.315 -224.34L578.066 -224.006Z" fill="#23024D"/>
            <path d="M522.603 -219.021L527.249 -210.973L528.37 -211.62L523.723 -219.667L522.603 -219.021Z" fill="#23024D"/>
            <path d="M754.618 40.7645L762.666 45.4107L763.312 44.2904L755.265 39.6441L754.618 40.7645Z" fill="#23024D"/>
            <path d="M769.375 49.2829L790.164 61.2858L790.811 60.1655L770.022 48.1626L769.375 49.2829Z" fill="#23024D"/>
            <path d="M818.331 77.5471L797.541 65.5442L798.188 64.4239L818.978 76.4268L818.331 77.5471Z" fill="#23024D"/>
            <path d="M543.121 -183.477L531.118 -204.266L532.238 -204.913L544.241 -184.124L543.121 -183.477Z" fill="#23024D"/>
            <path d="M547.384 -176.1L559.387 -155.31L560.507 -155.957L548.504 -176.746L547.384 -176.1Z" fill="#23024D"/>
            <path d="M486.414 -72.2888L492.398 -70.6854L492.733 -71.9349L486.749 -73.5383L486.414 -72.2888Z" fill="#23024D"/>
            <path d="M481.18 -73.6921L465.472 -77.901L465.807 -79.1505L481.515 -74.9416L481.18 -73.6921Z" fill="#23024D"/>
            <path d="M444.527 -83.5126L460.234 -79.3037L460.569 -80.5532L444.861 -84.7621L444.527 -83.5126Z" fill="#23024D"/>
            <path d="M724.84 131.737L721.742 126.372L722.862 125.725L725.96 131.09L724.84 131.737Z" fill="#23024D"/>
            <path d="M710.9 107.594L719.031 121.677L720.151 121.03L712.02 106.947L710.9 107.594Z" fill="#23024D"/>
            <path d="M708.189 102.899L700.058 88.8159L701.178 88.1691L709.31 102.252L708.189 102.899Z" fill="#23024D"/>
            <path d="M474.819 -121.07L454.029 -133.073L454.676 -134.193L475.466 -122.19L474.819 -121.07Z" fill="#23024D"/>
            <path d="M482.195 -116.81L502.984 -104.807L503.631 -105.928L482.841 -117.931L482.195 -116.81Z" fill="#23024D"/>
            <path d="M748.523 85.4021L731.549 68.4274L732.463 67.5127L749.438 84.4874L748.523 85.4021Z" fill="#23024D"/>
            <path d="M754.548 91.4259L771.523 108.401L772.438 107.486L755.463 90.5112L754.548 91.4259Z" fill="#23024D"/>
            <path d="M516.316 -146.806L525.077 -138.045L525.992 -138.96L517.231 -147.721L516.316 -146.806Z" fill="#23024D"/>
            <path d="M508.647 -154.472L485.101 -178.017L486.016 -178.932L509.562 -155.386L508.647 -154.472Z" fill="#23024D"/>
            <path d="M458.611 -204.913L476.894 -186.231L477.808 -187.146L459.526 -205.828L458.611 -204.913Z" fill="#23024D"/>
            <path d="M691.041 197.971L687.834 186.003L689.083 185.668L692.29 197.636L691.041 197.971Z" fill="#23024D"/>
            <path d="M676.413 143.367L685.031 175.531L686.281 175.196L677.662 143.032L676.413 143.367Z" fill="#23024D"/>
            <path d="M673.407 132.147L664.99 100.732L666.239 100.397L674.657 131.813L673.407 132.147Z" fill="#23024D"/>
            <path d="M818.46 17.2344L766.848 3.40505L767.183 2.15549L818.795 15.9848L818.46 17.2344Z" fill="#23024D"/>
            <path d="M498.26 45.4133L506.307 40.767L505.661 39.6467L497.613 44.293L498.26 45.4133Z" fill="#23024D"/>
            <path d="M491.551 49.2817L470.761 61.2846L470.114 60.1643L490.904 48.1614L491.551 49.2817Z" fill="#23024D"/>
            <path d="M442.596 77.5471L463.385 65.5442L462.738 64.4239L441.949 76.4268L442.596 77.5471Z" fill="#23024D"/>
            <path d="M738.324 -219.021L733.677 -210.973L732.557 -211.62L737.203 -219.667L738.324 -219.021Z" fill="#23024D"/>
            <path d="M717.801 -183.477L729.804 -204.266L728.684 -204.913L716.681 -184.124L717.801 -183.477Z" fill="#23024D"/>
            <path d="M713.544 -176.1L701.541 -155.31L700.421 -155.957L712.424 -176.746L713.544 -176.1Z" fill="#23024D"/>
            <path d="M774.512 -72.2888L768.528 -70.6854L768.194 -71.9349L774.177 -73.5384L774.512 -72.2888Z" fill="#23024D"/>
            <path d="M779.745 -73.6921L795.453 -77.901L795.118 -79.1505L779.41 -74.9416L779.745 -73.6921Z" fill="#23024D"/>
            <path d="M816.4 -83.5126L800.692 -79.3037L800.357 -80.5532L816.065 -84.7622L816.4 -83.5126Z" fill="#23024D"/>
            <path d="M536.086 131.737L539.183 126.372L538.063 125.725L534.965 131.09L536.086 131.737Z" fill="#23024D"/>
            <path d="M550.026 107.594L541.894 121.677L540.774 121.03L548.905 106.947L550.026 107.594Z" fill="#23024D"/>
            <path d="M552.736 102.899L560.867 88.8159L559.747 88.1691L551.616 102.252L552.736 102.899Z" fill="#23024D"/>
            <path d="M786.104 -121.069L806.894 -133.072L806.247 -134.192L785.457 -122.189L786.104 -121.069Z" fill="#23024D"/>
            <path d="M778.73 -116.81L757.94 -104.807L757.293 -105.928L778.083 -117.931L778.73 -116.81Z" fill="#23024D"/>
            <path d="M512.399 85.4021L529.374 68.4274L528.459 67.5127L511.485 84.4874L512.399 85.4021Z" fill="#23024D"/>
            <path d="M506.373 91.4247L489.398 108.399L488.484 107.485L505.458 90.5099L506.373 91.4247Z" fill="#23024D"/>
            <path d="M744.605 -146.806L735.844 -138.045L734.929 -138.96L743.691 -147.721L744.605 -146.806Z" fill="#23024D"/>
            <path d="M752.275 -154.472L775.82 -178.017L774.905 -178.932L751.36 -155.386L752.275 -154.472Z" fill="#23024D"/>
            <path d="M799.008 -200.939L784.028 -186.231L783.113 -187.146L798.093 -201.854L799.008 -200.939Z" fill="#23024D"/>
            <path d="M569.886 197.971L573.093 186.003L571.843 185.668L568.636 197.636L569.886 197.971Z" fill="#23024D"/>
            <path d="M584.514 143.367L575.896 175.531L574.646 175.196L583.264 143.032L584.514 143.367Z" fill="#23024D"/>
            <path d="M587.519 132.147L595.937 100.732L594.688 100.397L586.27 131.813L587.519 132.147Z" fill="#23024D"/>
            <path d="M442.467 17.2344L494.079 3.40506L493.744 2.1555L442.132 15.9848L442.467 17.2344Z" fill="#23024D"/>
            <path d="M682.858 -224.006L669.029 -172.394L667.78 -172.729L681.609 -224.34L682.858 -224.006Z" fill="#23024D"/>
            <path d="M624.768 -423.945L624.768 -407.951L623.475 -407.951L623.475 -423.945L624.768 -423.945Z" fill="#23024D"/>
            <path d="M624.768 -391.957L624.768 -334.38L623.475 -334.38L623.475 -391.957L624.768 -391.957Z" fill="#23024D"/>
            <path d="M624.768 -297.593L624.768 378.944L623.475 378.944L623.475 -297.593L624.768 -297.593Z" fill="#23024D"/>
            <path d="M624.768 398.136L624.768 455.714L623.475 455.714L623.475 398.136L624.768 398.136Z" fill="#23024D"/>
            <path d="M624.768 471.708L624.768 487.701L623.475 487.701L623.475 471.708L624.768 471.708Z" fill="#23024D"/>
            <path fill-rule="evenodd" clip-rule="evenodd" d="M621.478 -182.951C622.357 -182.967 623.239 -182.975 624.122 -182.975C625.005 -182.975 625.886 -182.967 626.766 -182.951L626.743 -181.658C625.871 -181.673 624.997 -181.681 624.122 -181.681C623.246 -181.681 622.373 -181.673 621.501 -181.658L621.478 -182.951ZM630.71 -182.83C632.473 -182.753 634.227 -182.645 635.973 -182.507L635.871 -181.217C634.14 -181.354 632.401 -181.461 630.654 -181.538L630.71 -182.83ZM612.271 -182.507C614.017 -182.645 615.771 -182.753 617.534 -182.83L617.59 -181.538C615.843 -181.461 614.104 -181.354 612.373 -181.217L612.271 -182.507ZM639.902 -182.142C641.655 -181.956 643.398 -181.74 645.132 -181.493L644.95 -180.212C643.231 -180.457 641.503 -180.672 639.765 -180.856L639.902 -182.142ZM603.112 -181.493C604.846 -181.74 606.589 -181.956 608.342 -182.142L608.479 -180.856C606.741 -180.672 605.013 -180.457 603.294 -180.212L603.112 -181.493ZM649.038 -180.884C650.773 -180.589 652.497 -180.265 654.211 -179.91L653.949 -178.643C652.251 -178.995 650.541 -179.317 648.822 -179.608L649.038 -180.884ZM594.033 -179.91C595.746 -180.265 597.471 -180.589 599.206 -180.884L599.422 -179.608C597.702 -179.317 595.993 -178.995 594.295 -178.643L594.033 -179.91ZM585.064 -177.76C586.754 -178.222 588.456 -178.654 590.17 -179.057L590.466 -177.798C588.767 -177.398 587.08 -176.97 585.405 -176.512L585.064 -177.76ZM658.074 -179.057C659.788 -178.654 661.49 -178.222 663.18 -177.76L662.839 -176.512C661.164 -176.97 659.477 -177.398 657.778 -177.798L658.074 -179.057ZM576.252 -175.051C577.911 -175.619 579.584 -176.158 581.269 -176.667L581.644 -175.429C579.973 -174.924 578.315 -174.39 576.671 -173.827L576.252 -175.051ZM666.975 -176.667C668.66 -176.158 670.333 -175.619 671.992 -175.051L671.573 -173.827C669.928 -174.39 668.271 -174.924 666.6 -175.429L666.975 -176.667ZM567.63 -171.794C569.25 -172.465 570.885 -173.108 572.533 -173.722L572.985 -172.51C571.351 -171.901 569.731 -171.264 568.125 -170.599L567.63 -171.794ZM675.711 -173.722C677.359 -173.108 678.994 -172.465 680.614 -171.794L680.119 -170.599C678.513 -171.264 676.893 -171.901 675.259 -172.51L675.711 -173.722ZM559.227 -168C560.802 -168.772 562.393 -169.516 563.998 -170.232L564.525 -169.051C562.934 -168.341 561.357 -167.603 559.796 -166.839L559.227 -168ZM684.246 -170.232C685.851 -169.516 687.442 -168.772 689.016 -168L688.447 -166.839C686.887 -167.603 685.31 -168.341 683.719 -169.051L684.246 -170.232ZM551.079 -163.687C552.603 -164.556 554.144 -165.398 555.702 -166.214L556.302 -165.068C554.758 -164.26 553.23 -163.424 551.72 -162.563L551.079 -163.687ZM692.542 -166.214C694.1 -165.398 695.641 -164.556 697.165 -163.687L696.524 -162.563C695.014 -163.424 693.486 -164.26 691.942 -165.068L692.542 -166.214ZM543.218 -158.872C544.685 -159.835 546.171 -160.773 547.675 -161.685L548.345 -160.578C546.855 -159.675 545.382 -158.745 543.928 -157.791L543.218 -158.872ZM700.569 -161.685C702.073 -160.773 703.559 -159.835 705.026 -158.872L704.316 -157.791C702.862 -158.745 701.389 -159.675 699.899 -160.578L700.569 -161.685ZM535.673 -153.576C537.077 -154.628 538.501 -155.657 539.944 -156.66L540.682 -155.598C539.252 -154.603 537.841 -153.584 536.449 -152.541L535.673 -153.576ZM708.3 -156.66C709.743 -155.657 711.166 -154.628 712.57 -153.576L711.794 -152.541C710.403 -153.584 708.992 -154.603 707.562 -155.598L708.3 -156.66ZM528.473 -147.818C529.809 -148.956 531.166 -150.071 532.543 -151.163L533.347 -150.149C531.982 -149.067 530.637 -147.962 529.312 -146.833L528.473 -147.818ZM715.701 -151.163C717.078 -150.071 718.435 -148.956 719.771 -147.818L718.932 -146.833C717.607 -147.962 716.262 -149.067 714.897 -150.149L715.701 -151.163ZM521.647 -141.622C522.91 -142.842 524.194 -144.04 525.5 -145.215L526.366 -144.253C525.071 -143.089 523.797 -141.901 522.545 -140.692L521.647 -141.622ZM722.743 -145.215C724.049 -144.04 725.334 -142.842 726.597 -141.622L725.698 -140.692C724.447 -141.901 723.173 -143.089 721.878 -144.253L722.743 -145.215ZM515.22 -135.013C516.404 -136.31 517.612 -137.585 518.842 -138.839L519.765 -137.933C518.546 -136.69 517.349 -135.426 516.175 -134.14L515.22 -135.013ZM729.402 -138.839C730.632 -137.585 731.839 -136.31 733.024 -135.013L732.069 -134.14C730.895 -135.426 729.698 -136.69 728.478 -137.933L729.402 -138.839ZM509.219 -128.015C510.32 -129.383 511.446 -130.732 512.595 -132.06L513.573 -131.213C512.434 -129.897 511.318 -128.56 510.227 -127.204L509.219 -128.015ZM735.649 -132.06C736.798 -130.732 737.924 -129.383 739.025 -128.015L738.017 -127.204C736.925 -128.56 735.81 -129.897 734.671 -131.213L735.649 -132.06ZM503.668 -120.655C504.681 -122.09 505.72 -123.506 506.783 -124.903L507.812 -124.119C506.758 -122.735 505.729 -121.331 504.724 -119.909L503.668 -120.655ZM741.461 -124.903C742.524 -123.506 743.563 -122.09 744.576 -120.655L743.519 -119.909C742.515 -121.331 741.485 -122.735 740.431 -124.119L741.461 -124.903ZM498.589 -112.96C499.51 -114.457 500.458 -115.936 501.432 -117.396L502.508 -116.679C501.543 -115.231 500.604 -113.765 499.69 -112.282L498.589 -112.96ZM746.812 -117.396C747.785 -115.936 748.733 -114.457 749.655 -112.96L748.553 -112.282C747.64 -113.765 746.7 -115.231 745.736 -116.679L746.812 -117.396ZM494.006 -104.962C494.831 -106.514 495.684 -108.05 496.563 -109.568L497.683 -108.92C496.811 -107.415 495.966 -105.893 495.148 -104.354L494.006 -104.962ZM751.68 -109.568C752.56 -108.05 753.412 -106.514 754.238 -104.962L753.096 -104.354C752.278 -105.893 751.432 -107.415 750.561 -108.92L751.68 -109.568ZM489.938 -96.6894C490.663 -98.291 491.417 -99.8772 492.198 -101.448L493.356 -100.871C492.582 -99.3151 491.835 -97.7429 491.116 -96.1556L489.938 -96.6894ZM756.046 -101.447C756.827 -99.8772 757.581 -98.291 758.306 -96.6894L757.128 -96.1556C756.409 -97.7429 755.662 -99.315 754.888 -100.871L756.046 -101.447ZM486.402 -88.1737C487.024 -89.8187 487.676 -91.4496 488.355 -93.0659L489.548 -92.5644C488.874 -90.9626 488.229 -89.3462 487.612 -87.7159L486.402 -88.1737ZM759.888 -93.0658C760.568 -91.4496 761.219 -89.8187 761.842 -88.1737L760.632 -87.7158C760.015 -89.3462 759.37 -90.9625 758.696 -92.5644L759.888 -93.0658ZM483.415 -79.4505C483.932 -81.1336 484.479 -82.8038 485.054 -84.4605L486.276 -84.0359C485.706 -82.394 485.164 -80.7387 484.652 -79.0706L483.415 -79.4505ZM763.189 -84.4605C763.765 -82.8038 764.312 -81.1336 764.829 -79.4505L763.592 -79.0706C763.08 -80.7387 762.538 -82.3939 761.967 -84.0359L763.189 -84.4605ZM480.991 -70.559C481.4 -72.2712 481.839 -73.9718 482.307 -75.6602L483.554 -75.3142C483.089 -73.6409 482.654 -71.9556 482.249 -70.2586L480.991 -70.559ZM765.937 -75.6601C766.405 -73.9718 766.844 -72.2712 767.253 -70.5589L765.995 -70.2586C765.59 -71.9555 765.155 -73.6409 764.69 -75.3142L765.937 -75.6601ZM479.137 -61.5283C479.436 -63.2625 479.765 -64.9863 480.125 -66.6991L481.391 -66.4332C481.035 -64.7357 480.708 -63.0273 480.412 -61.3086L479.137 -61.5283ZM768.119 -66.699C768.478 -64.9862 768.808 -63.2625 769.107 -61.5283L767.832 -61.3085C767.536 -63.0273 767.209 -64.7357 766.853 -66.4332L768.119 -66.699ZM477.859 -52.3941C478.048 -54.1466 478.268 -55.8898 478.518 -57.6231L479.799 -57.4381C479.55 -55.7202 479.332 -53.9925 479.145 -52.2556L477.859 -52.3941ZM769.726 -57.6231C769.976 -55.8897 770.196 -54.1465 770.385 -52.3941L769.099 -52.2555C768.911 -53.9924 768.693 -55.7201 768.445 -57.4381L769.726 -57.6231ZM477.16 -43.2025C477.239 -44.9651 477.349 -46.7196 477.489 -48.4655L478.779 -48.3617C478.639 -46.6312 478.53 -44.8921 478.453 -43.1449L477.16 -43.2025ZM770.755 -48.4655C770.895 -46.7196 771.005 -44.9651 771.083 -43.2025L769.791 -43.1449C769.713 -44.8921 769.604 -46.6311 769.465 -48.3616L770.755 -48.4655ZM477.014 -36.6139C477.014 -37.4971 477.022 -38.3784 477.037 -39.2579L478.331 -39.2349C478.315 -38.3631 478.308 -37.4894 478.308 -36.6139C478.308 -35.7384 478.315 -34.8648 478.331 -33.993L477.037 -33.97C477.022 -34.8494 477.014 -35.7307 477.014 -36.6139ZM771.206 -39.2579C771.222 -38.3784 771.23 -37.4971 771.23 -36.6139C771.23 -35.7308 771.222 -34.8494 771.206 -33.9699L769.913 -33.9929C769.928 -34.8648 769.936 -35.7384 769.936 -36.6139C769.936 -37.4894 769.928 -38.3631 769.913 -39.2348L771.206 -39.2579ZM477.489 -24.7623C477.349 -26.5082 477.239 -28.2628 477.16 -30.0254L478.453 -30.0829C478.53 -28.3358 478.639 -26.5967 478.779 -24.8662L477.489 -24.7623ZM771.083 -30.0253C771.005 -28.2627 770.895 -26.5082 770.755 -24.7623L769.465 -24.8662C769.604 -26.5967 769.713 -28.3357 769.791 -30.0829L771.083 -30.0253ZM478.518 -15.6047C478.268 -17.3381 478.048 -19.0813 477.859 -20.8337L479.145 -20.9723C479.332 -19.2354 479.55 -17.5077 479.799 -15.7897L478.518 -15.6047ZM770.385 -20.8337C770.196 -19.0813 769.976 -17.3381 769.726 -15.6047L768.445 -15.7897C768.693 -17.5077 768.911 -19.2354 769.099 -20.9723L770.385 -20.8337ZM480.125 -6.52879C479.765 -8.24158 479.436 -9.96535 479.137 -11.6996L480.412 -11.9193C480.708 -10.2006 481.035 -8.49216 481.391 -6.79466L480.125 -6.52879ZM769.107 -11.6995C768.808 -9.96532 768.478 -8.24157 768.119 -6.52879L766.853 -6.79464C767.209 -8.49213 767.536 -10.2005 767.832 -11.9193L769.107 -11.6995ZM482.307 2.43231C481.838 0.743942 481.4 -0.956635 480.991 -2.66887L482.249 -2.96922C482.654 -1.27229 483.089 0.413101 483.554 2.08636L482.307 2.43231ZM767.253 -2.66886C766.844 -0.956627 766.405 0.743965 765.937 2.43234L764.69 2.08639C765.155 0.413109 765.59 -1.27227 765.995 -2.96922L767.253 -2.66886ZM485.054 11.2327C484.479 9.57594 483.932 7.90573 483.415 6.22264L484.652 5.84277C485.164 7.51083 485.706 9.16612 486.276 10.808L485.054 11.2327ZM764.829 6.22265C764.312 7.90575 763.765 9.57597 763.189 11.2327L761.967 10.808C762.538 9.16613 763.08 7.51084 763.592 5.84278L764.829 6.22265ZM488.355 19.838C487.676 18.2218 487.024 16.5909 486.402 14.9458L487.612 14.488C488.229 16.1184 488.874 17.7347 489.548 19.3365L488.355 19.838ZM761.842 14.9458C761.219 16.5909 760.568 18.2218 759.888 19.838L758.696 19.3365C759.37 17.7347 760.015 16.1184 760.632 14.488L761.842 14.9458ZM492.198 28.2197C491.417 26.6494 490.663 25.0631 489.938 23.4616L491.116 22.9278C491.835 24.5151 492.582 26.0872 493.356 27.6435L492.198 28.2197ZM758.306 23.4616C757.581 25.0632 756.827 26.6494 756.046 28.2197L754.888 27.6435C755.662 26.0872 756.409 24.5151 757.128 22.9278L758.306 23.4616ZM496.563 36.3406C495.684 34.8219 494.831 33.2861 494.006 31.7337L495.148 31.1263C495.966 32.665 496.811 34.1872 497.683 35.6924L496.563 36.3406ZM754.238 31.7337C753.412 33.2861 752.56 34.822 751.68 36.3406L750.561 35.6924C751.432 34.1872 752.278 32.665 753.096 31.1264L754.238 31.7337ZM501.432 44.1685C500.458 42.7078 499.51 41.2288 498.589 39.7319L499.69 39.0537C500.604 40.5373 501.543 42.0032 502.508 43.451L501.432 44.1685ZM749.655 39.732C748.733 41.2288 747.785 42.7078 746.812 44.1685L745.736 43.451C746.7 42.0033 747.64 40.5373 748.553 39.0537L749.655 39.732ZM506.783 51.6751C505.72 50.2785 504.681 48.8622 503.668 47.4271L504.724 46.6809C505.729 48.1034 506.758 49.5071 507.812 50.8915L506.783 51.6751ZM744.576 47.4271C743.563 48.8622 742.524 50.2785 741.461 51.6751L740.431 50.8915C741.485 49.5071 742.515 48.1034 743.519 46.6809L744.576 47.4271ZM512.595 58.8319C511.446 57.5041 510.32 56.1556 509.219 54.787L510.227 53.976C511.318 55.3326 512.434 56.6693 513.573 57.9854L512.595 58.8319ZM739.025 54.787C737.924 56.1556 736.798 57.5042 735.649 58.8319L734.671 57.9854C735.81 56.6693 736.925 55.3327 738.017 53.9761L739.025 54.787ZM518.842 65.611C517.612 64.3573 516.404 63.0817 515.22 61.7849L516.175 60.9124C517.349 62.1979 518.546 63.4623 519.765 64.705L518.842 65.611ZM733.024 61.7849C731.839 63.0817 730.632 64.3573 729.402 65.611L728.478 64.705C729.698 63.4623 730.895 62.1979 732.069 60.9125L733.024 61.7849ZM525.5 71.987C524.194 70.8122 522.91 69.6144 521.647 68.3943L522.545 67.4639C523.797 68.6734 525.071 69.8607 526.366 71.0252L525.5 71.987ZM726.597 68.3943C725.334 69.6144 724.049 70.8122 722.743 71.987L721.878 71.0252C723.173 69.8607 724.446 68.6734 725.698 67.4639L726.597 68.3943ZM532.543 77.9348C531.166 76.8436 529.809 75.7284 528.473 74.5897L529.312 73.6051C530.637 74.7338 531.982 75.8393 533.347 76.9209L532.543 77.9348ZM719.771 74.5897C718.435 75.7284 717.078 76.8436 715.701 77.9348L714.897 76.9209C716.262 75.8393 717.607 74.7338 718.932 73.6051L719.771 74.5897ZM539.944 83.4319C538.501 82.4287 537.077 81.4005 535.673 80.3477L536.449 79.3127C537.841 80.3562 539.252 81.3754 540.682 82.3698L539.944 83.4319ZM712.57 80.3477C711.166 81.4004 709.743 82.4287 708.3 83.4318L707.562 82.3698C708.992 81.3754 710.403 80.3562 711.794 79.3127L712.57 80.3477ZM547.674 88.4567C546.171 87.5451 544.685 86.6074 543.218 85.6443L543.928 84.5628C545.382 85.5175 546.855 86.4469 548.345 87.3505L547.674 88.4567ZM705.026 85.6443C703.559 86.6074 702.073 87.5451 700.569 88.4567L699.899 87.3505C701.389 86.4469 702.862 85.5175 704.316 84.5628L705.026 85.6443ZM555.702 92.9863C554.144 92.1706 552.603 91.3279 551.079 90.4589L551.72 89.3351C553.23 90.1965 554.758 91.0318 556.302 91.8403L555.702 92.9863ZM697.165 90.4589C695.641 91.3279 694.1 92.1706 692.542 92.9864L691.942 91.8403C693.486 91.0318 695.014 90.1965 696.524 89.3351L697.165 90.4589ZM563.998 97.0042C562.393 96.288 560.802 95.5438 559.227 94.7725L559.796 93.6108C561.357 94.3753 562.934 95.1129 564.525 95.8228L563.998 97.0042ZM689.016 94.7725C687.442 95.5438 685.851 96.288 684.246 97.0042L683.719 95.8228C685.31 95.1128 686.887 94.3753 688.447 93.6108L689.016 94.7725ZM572.533 100.494C570.885 99.8798 569.25 99.2369 567.63 98.5661L568.125 97.3709C569.731 98.0358 571.351 98.673 572.985 99.2818L572.533 100.494ZM680.614 98.5661C678.994 99.2369 677.359 99.8798 675.711 100.494L675.259 99.2818C676.893 98.673 678.513 98.0358 680.119 97.3709L680.614 98.5661ZM581.269 103.44C579.584 102.93 577.911 102.391 576.252 101.823L576.671 100.599C578.315 101.162 579.973 101.696 581.644 102.201L581.269 103.44ZM671.992 101.823C670.333 102.391 668.66 102.93 666.975 103.44L666.6 102.201C668.271 101.696 669.928 101.162 671.573 100.599L671.992 101.823ZM590.17 105.829C588.456 105.426 586.754 104.994 585.064 104.532L585.405 103.284C587.08 103.742 588.767 104.171 590.466 104.57L590.17 105.829ZM663.18 104.532C661.49 104.994 659.788 105.426 658.074 105.829L657.778 104.57C659.477 104.171 661.164 103.742 662.839 103.284L663.18 104.532ZM599.206 107.656C597.471 107.362 595.746 107.037 594.033 106.682L594.295 105.416C595.993 105.767 597.703 106.089 599.422 106.381L599.206 107.656ZM654.211 106.682C652.497 107.037 650.773 107.362 649.038 107.656L648.822 106.381C650.541 106.089 652.251 105.767 653.949 105.416L654.211 106.682ZM608.342 108.915C606.589 108.729 604.846 108.512 603.112 108.265L603.294 106.984C605.013 107.229 606.741 107.444 608.479 107.628L608.342 108.915ZM645.132 108.265C643.398 108.512 641.655 108.729 639.902 108.915L639.765 107.628C641.503 107.444 643.231 107.229 644.95 106.984L645.132 108.265ZM617.534 109.603C615.771 109.525 614.017 109.417 612.271 109.279L612.373 107.989C614.104 108.126 615.843 108.234 617.59 108.31L617.534 109.603ZM635.973 109.279C634.227 109.417 632.473 109.525 630.71 109.603L630.654 108.31C632.401 108.234 634.14 108.126 635.871 107.989L635.973 109.279ZM624.122 109.747C623.239 109.747 622.358 109.739 621.478 109.724L621.501 108.43C622.373 108.445 623.246 108.453 624.122 108.453C624.997 108.453 625.871 108.445 626.743 108.43L626.766 109.724C625.886 109.739 625.005 109.747 624.122 109.747Z" fill="#23024D"/>
            <path d="M532.112 54.7618C532.112 4.36243 573.303 -36.5032 624.125 -36.5033C674.947 -36.5033 716.137 4.36242 716.137 54.7618C716.137 105.161 674.947 146.027 624.125 146.027C623.263 146.027 622.403 146.015 621.547 145.992L621.512 147.285C622.38 147.309 623.251 147.321 624.125 147.32C675.651 147.32 717.431 105.885 717.431 54.7618C717.431 3.63812 675.651 -37.7969 624.125 -37.7969C572.598 -37.7969 530.819 3.63812 530.819 54.7618L532.112 54.7618Z" fill="#23024D"/>
            <path d="M530.819 54.7618C530.819 55.6357 530.831 56.507 530.855 57.3752L532.148 57.339C532.125 56.4829 532.112 55.6237 532.112 54.7618L530.819 54.7618Z" fill="#23024D"/>
            <path d="M531.047 61.2798C531.169 63.023 531.34 64.7529 531.558 66.4682L532.841 66.3049C532.626 64.6138 532.458 62.9081 532.337 61.1893L531.047 61.2798Z" fill="#23024D"/>
            <path d="M532.134 70.3351C532.428 72.0559 532.77 73.7605 533.158 75.4476L534.419 75.1575C534.036 73.4943 533.699 71.8138 533.409 70.1173L532.134 70.3351Z" fill="#23024D"/>
            <path d="M534.116 79.2383C534.58 80.9195 535.09 82.5816 535.645 84.2232L536.871 83.8088C536.323 82.1904 535.82 80.5518 535.363 78.8944L534.116 79.2383Z" fill="#23024D"/>
            <path d="M536.977 87.8995C537.605 89.5246 538.278 91.1277 538.995 92.7071L540.173 92.1727C539.467 90.6155 538.803 89.0351 538.183 87.433L536.977 87.8995Z" fill="#23024D"/>
            <path d="M540.686 96.2328C541.472 97.7861 542.301 99.3144 543.171 100.816L544.29 100.168C543.432 98.687 542.615 97.1801 541.84 95.6487L540.686 96.2328Z" fill="#23024D"/>
            <path d="M545.202 104.157C546.137 105.624 547.113 107.063 548.127 108.473L549.177 107.718C548.177 106.328 547.215 104.909 546.293 103.462L545.202 104.157Z" fill="#23024D"/>
            <path d="M550.477 111.598C551.551 112.966 552.662 114.302 553.81 115.607L554.781 114.752C553.649 113.466 552.553 112.148 551.494 110.799L550.477 111.598Z" fill="#23024D"/>
            <path d="M556.454 118.487C557.656 119.742 558.892 120.964 560.163 122.151L561.046 121.206C559.793 120.035 558.574 118.83 557.389 117.592L556.454 118.487Z" fill="#23024D"/>
            <path d="M563.075 124.76C564.392 125.892 565.742 126.987 567.122 128.045L567.909 127.019C566.548 125.975 565.217 124.895 563.918 123.779L563.075 124.76Z" fill="#23024D"/>
            <path d="M570.274 130.359C571.695 131.356 573.145 132.315 574.622 133.235L575.306 132.136C573.848 131.23 572.419 130.284 571.018 129.3L570.274 130.359Z" fill="#23024D"/>
            <path d="M577.985 135.23C579.495 136.084 581.031 136.897 582.593 137.668L583.166 136.508C581.626 135.748 580.111 134.946 578.622 134.104L577.985 135.23Z" fill="#23024D"/>
            <path d="M586.134 139.326C587.719 140.028 589.328 140.687 590.958 141.302L591.415 140.092C589.807 139.485 588.221 138.835 586.657 138.143L586.134 139.326Z" fill="#23024D"/>
            <path d="M594.644 142.605C596.289 143.148 597.954 143.647 599.639 144.1L599.975 142.851C598.314 142.404 596.672 141.912 595.05 141.377L594.644 142.605Z" fill="#23024D"/>
            <path d="M603.434 145.037C605.123 145.416 606.829 145.75 608.551 146.037L608.763 144.761C607.065 144.478 605.383 144.149 603.718 143.775L603.434 145.037Z" fill="#23024D"/>
            <path d="M612.419 146.599C614.134 146.812 615.864 146.979 617.608 147.098L617.696 145.808C615.977 145.69 614.27 145.525 612.578 145.315L612.419 146.599Z" fill="#23024D"/>
        </g>
        <g opacity="0.3">
            <path opacity="0.1" d="M110.572 284.033C110.572 285.349 109.505 286.416 108.189 286.416C106.872 286.416 105.805 285.349 105.805 284.033C105.805 282.716 106.872 281.649 108.189 281.649C109.505 281.649 110.572 282.716 110.572 284.033Z" fill="#23024D"/>
            <path fill-rule="evenodd" clip-rule="evenodd" d="M0.00730887 129.756C1.26751 129.756 2.28911 128.735 2.28911 127.474C2.28911 126.214 1.26751 125.193 0.00730875 125.193C-1.25289 125.193 -2.27449 126.214 -2.27449 127.474C-2.27449 128.735 -1.25289 129.756 0.00730887 129.756ZM0.00730891 131.05C1.98196 131.05 3.58273 129.449 3.58273 127.474C3.58273 125.5 1.98196 123.899 0.00730872 123.899C-1.96734 123.899 -3.56812 125.5 -3.56812 127.474C-3.56812 129.449 -1.96734 131.05 0.00730891 131.05Z" fill="#23024D"/>
            <path fill-rule="evenodd" clip-rule="evenodd" d="M153.949 277.231C155.209 277.231 156.231 276.21 156.231 274.949C156.231 273.689 155.209 272.668 153.949 272.668C152.689 272.668 151.667 273.689 151.667 274.949C151.667 276.21 152.689 277.231 153.949 277.231ZM153.949 278.525C155.923 278.525 157.524 276.924 157.524 274.949C157.524 272.975 155.923 271.374 153.949 271.374C151.974 271.374 150.373 272.975 150.373 274.949C150.373 276.924 151.974 278.525 153.949 278.525Z" fill="#23024D"/>
            <path d="M-74.9344 102.994L-61.1051 154.606L-59.8555 154.271L-73.6848 102.66L-74.9344 102.994Z" fill="#23024D"/>
            <path d="M-130.397 107.979L-125.751 116.027L-124.63 115.38L-129.277 107.333L-130.397 107.979Z" fill="#23024D"/>
            <path d="M101.618 367.764L109.666 372.411L110.312 371.29L102.265 366.644L101.618 367.764Z" fill="#23024D"/>
            <path d="M116.375 376.283L137.164 388.286L137.811 387.166L117.022 375.163L116.375 376.283Z" fill="#23024D"/>
            <path d="M165.331 404.547L144.541 392.544L145.188 391.424L165.978 403.427L165.331 404.547Z" fill="#23024D"/>
            <path d="M-109.879 143.523L-121.882 122.734L-120.762 122.087L-108.759 142.876L-109.879 143.523Z" fill="#23024D"/>
            <path d="M-105.616 150.9L-93.613 171.69L-92.4927 171.043L-104.496 150.254L-105.616 150.9Z" fill="#23024D"/>
            <path d="M-166.586 254.711L-160.602 256.315L-160.267 255.065L-166.251 253.462L-166.586 254.711Z" fill="#23024D"/>
            <path d="M-171.82 253.308L-187.528 249.099L-187.193 247.849L-171.485 252.058L-171.82 253.308Z" fill="#23024D"/>
            <path d="M-208.473 243.487L-192.766 247.696L-192.431 246.447L-208.139 242.238L-208.473 243.487Z" fill="#23024D"/>
            <path d="M71.8396 458.737L68.742 453.372L69.8623 452.725L72.9599 458.09L71.8396 458.737Z" fill="#23024D"/>
            <path d="M57.8999 434.594L66.0309 448.677L67.1512 448.03L59.0202 433.947L57.8999 434.594Z" fill="#23024D"/>
            <path d="M55.1892 429.899L47.0582 415.816L48.1785 415.169L56.3095 429.252L55.1892 429.899Z" fill="#23024D"/>
            <path d="M-178.181 205.93L-198.971 193.927L-198.324 192.807L-177.534 204.81L-178.181 205.93Z" fill="#23024D"/>
            <path d="M-170.805 210.19L-150.016 222.193L-149.369 221.072L-170.159 209.069L-170.805 210.19Z" fill="#23024D"/>
            <path d="M95.5234 412.402L78.5487 395.427L79.4634 394.513L96.4381 411.487L95.5234 412.402Z" fill="#23024D"/>
            <path d="M101.548 418.426L118.523 435.401L119.438 434.486L102.463 417.511L101.548 418.426Z" fill="#23024D"/>
            <path d="M-136.684 180.194L-127.923 188.955L-127.008 188.04L-135.769 179.279L-136.684 180.194Z" fill="#23024D"/>
            <path d="M-144.353 172.528L-167.899 148.983L-166.984 148.068L-143.438 171.614L-144.353 172.528Z" fill="#23024D"/>
            <path d="M-194.389 122.087L-176.106 140.769L-175.192 139.854L-193.474 121.172L-194.389 122.087Z" fill="#23024D"/>
            <path d="M38.0407 524.971L34.8339 513.003L36.0834 512.668L39.2902 524.636L38.0407 524.971Z" fill="#23024D"/>
            <path d="M23.4129 470.367L32.0311 502.531L33.2807 502.196L24.6624 470.032L23.4129 470.367Z" fill="#23024D"/>
            <path d="M20.4074 459.147L11.9896 427.732L13.2391 427.397L21.657 458.813L20.4074 459.147Z" fill="#23024D"/>
            <path d="M165.46 344.234L113.848 330.405L114.183 329.155L165.795 342.985L165.46 344.234Z" fill="#23024D"/>
            <path d="M-154.74 372.413L-146.693 367.767L-147.339 366.647L-155.387 371.293L-154.74 372.413Z" fill="#23024D"/>
            <path d="M-161.449 376.282L-182.239 388.285L-182.886 387.164L-162.096 375.161L-161.449 376.282Z" fill="#23024D"/>
            <path d="M-210.404 404.547L-189.615 392.544L-190.262 391.424L-211.051 403.427L-210.404 404.547Z" fill="#23024D"/>
            <path d="M85.3236 107.979L80.6774 116.027L79.557 115.38L84.2033 107.333L85.3236 107.979Z" fill="#23024D"/>
            <path d="M64.801 143.523L76.8039 122.734L75.6836 122.087L63.6807 142.876L64.801 143.523Z" fill="#23024D"/>
            <path d="M60.5439 150.9L48.5409 171.69L47.4206 171.043L59.4236 150.254L60.5439 150.9Z" fill="#23024D"/>
            <path d="M121.512 254.711L115.528 256.315L115.194 255.065L121.177 253.462L121.512 254.711Z" fill="#23024D"/>
            <path d="M126.745 253.308L142.453 249.099L142.118 247.849L126.41 252.058L126.745 253.308Z" fill="#23024D"/>
            <path d="M163.4 243.487L147.692 247.696L147.357 246.447L163.065 242.238L163.4 243.487Z" fill="#23024D"/>
            <path d="M-116.914 458.737L-113.817 453.372L-114.937 452.725L-118.035 458.09L-116.914 458.737Z" fill="#23024D"/>
            <path d="M-102.974 434.594L-111.106 448.677L-112.226 448.03L-104.095 433.947L-102.974 434.594Z" fill="#23024D"/>
            <path d="M-100.264 429.899L-92.1328 415.816L-93.2531 415.169L-101.384 429.252L-100.264 429.899Z" fill="#23024D"/>
            <path d="M133.104 205.931L153.894 193.928L153.247 192.808L132.457 204.811L133.104 205.931Z" fill="#23024D"/>
            <path d="M125.73 210.19L104.94 222.193L104.293 221.072L125.083 209.069L125.73 210.19Z" fill="#23024D"/>
            <path d="M-140.601 412.402L-123.626 395.427L-124.541 394.513L-141.515 411.487L-140.601 412.402Z" fill="#23024D"/>
            <path d="M-146.627 418.425L-163.602 435.399L-164.516 434.485L-147.542 417.51L-146.627 418.425Z" fill="#23024D"/>
            <path d="M91.6052 180.194L82.8441 188.955L81.9294 188.04L90.6905 179.279L91.6052 180.194Z" fill="#23024D"/>
            <path d="M99.2747 172.528L122.82 148.983L121.905 148.068L98.36 171.614L99.2747 172.528Z" fill="#23024D"/>
            <path d="M146.008 126.061L131.028 140.769L130.113 139.854L145.093 125.146L146.008 126.061Z" fill="#23024D"/>
            <path d="M-83.114 524.971L-79.9072 513.003L-81.1568 512.668L-84.3636 524.636L-83.114 524.971Z" fill="#23024D"/>
            <path d="M-68.4862 470.367L-77.1045 502.531L-78.354 502.196L-69.7358 470.032L-68.4862 470.367Z" fill="#23024D"/>
            <path d="M-65.4808 459.147L-57.0629 427.732L-58.3125 427.397L-66.7303 458.813L-65.4808 459.147Z" fill="#23024D"/>
            <path d="M-210.533 344.234L-158.921 330.405L-159.256 329.156L-210.868 342.985L-210.533 344.234Z" fill="#23024D"/>
            <path d="M29.8585 102.994L16.0292 154.606L14.7796 154.271L28.609 102.66L29.8585 102.994Z" fill="#23024D"/>
            <path fill-rule="evenodd" clip-rule="evenodd" d="M-31.5219 144.049C-30.6425 144.033 -29.7612 144.025 -28.8781 144.025C-27.995 144.025 -27.1137 144.033 -26.2343 144.049L-26.257 145.342C-27.1288 145.327 -28.0026 145.319 -28.8781 145.319C-29.7536 145.319 -30.6274 145.327 -31.4993 145.342L-31.5219 144.049ZM-22.2898 144.17C-20.5272 144.247 -18.7727 144.355 -17.0268 144.493L-17.1291 145.783C-18.8598 145.646 -20.5991 145.539 -22.3465 145.462L-22.2898 144.17ZM-40.7294 144.493C-38.9835 144.355 -37.229 144.247 -35.4664 144.17L-35.4098 145.462C-37.1571 145.539 -38.8964 145.646 -40.6271 145.783L-40.7294 144.493ZM-13.0983 144.858C-11.3454 145.044 -9.60175 145.26 -7.8678 145.507L-8.05003 146.788C-9.76878 146.543 -11.4972 146.328 -13.2348 146.144L-13.0983 144.858ZM-49.8884 145.507C-48.1545 145.26 -46.4108 145.044 -44.6579 144.858L-44.5214 146.144C-46.259 146.328 -47.9874 146.543 -49.7062 146.788L-49.8884 145.507ZM-3.96178 146.116C-2.22699 146.411 -0.502533 146.735 1.211 147.09L0.94902 148.357C-0.74942 148.005 -2.45871 147.683 -4.17827 147.392L-3.96178 146.116ZM-58.9672 147.09C-57.2537 146.735 -55.5292 146.411 -53.7944 146.116L-53.5779 147.392C-55.2975 147.683 -57.0068 148.005 -58.7052 148.357L-58.9672 147.09ZM-67.9358 149.24C-66.246 148.778 -64.544 148.346 -62.8304 147.943L-62.5344 149.202C-64.2329 149.602 -65.9199 150.03 -67.5948 150.488L-67.9358 149.24ZM5.07419 147.943C6.7878 148.346 8.48978 148.778 10.1796 149.24L9.83859 150.488C8.16367 150.03 6.47667 149.602 4.7782 149.202L5.07419 147.943ZM-76.7479 151.949C-75.0888 151.381 -73.4163 150.842 -71.731 150.333L-71.3564 151.571C-73.0269 152.076 -74.6846 152.61 -76.3291 153.173L-76.7479 151.949ZM13.9748 150.333C15.6601 150.842 17.3326 151.381 18.9917 151.949L18.5729 153.173C16.9284 152.61 15.2707 152.076 13.6002 151.571L13.9748 150.333ZM-85.3698 155.206C-83.7499 154.535 -82.1154 153.892 -80.4669 153.278L-80.0152 154.49C-81.6492 155.099 -83.2692 155.736 -84.8748 156.401L-85.3698 155.206ZM22.7107 153.278C24.3592 153.892 25.9937 154.535 27.6136 155.206L27.1186 156.401C25.513 155.736 23.893 155.099 22.259 154.49L22.7107 153.278ZM-93.7726 159C-92.198 158.228 -90.6075 157.484 -89.0017 156.768L-88.4747 157.949C-90.0663 158.659 -91.6428 159.397 -93.2035 160.161L-93.7726 159ZM31.2455 156.768C32.8513 157.484 34.4418 158.228 36.0164 159L35.4473 160.161C33.8866 159.397 32.3101 158.659 30.7185 157.949L31.2455 156.768ZM-101.921 163.313C-100.397 162.444 -98.8559 161.602 -97.2981 160.786L-96.698 161.932C-98.2421 162.74 -99.7697 163.576 -101.28 164.437L-101.921 163.313ZM39.542 160.786C41.0997 161.602 42.6409 162.444 44.1651 163.313L43.5243 164.437C42.0136 163.576 40.4859 162.74 38.9419 161.932L39.542 160.786ZM-109.782 168.128C-108.315 167.165 -106.829 166.227 -105.325 165.315L-104.655 166.422C-106.145 167.325 -107.618 168.255 -109.072 169.209L-109.782 168.128ZM47.5693 165.315C49.0728 166.227 50.5585 167.165 52.0259 168.128L51.3161 169.209C49.8616 168.255 48.3889 167.325 46.8986 166.422L47.5693 165.315ZM-117.327 173.424C-115.923 172.372 -114.499 171.343 -113.056 170.34L-112.318 171.402C-113.748 172.397 -115.159 173.416 -116.551 174.459L-117.327 173.424ZM55.3002 170.34C56.7428 171.343 58.1664 172.372 59.5705 173.424L58.7945 174.459C57.4027 173.416 55.9915 172.397 54.5616 171.402L55.3002 170.34ZM-124.527 179.182C-123.191 178.044 -121.834 176.929 -120.457 175.837L-119.653 176.851C-121.018 177.933 -122.363 179.038 -123.688 180.167L-124.527 179.182ZM62.7007 175.837C64.0777 176.929 65.4346 178.044 66.7708 179.182L65.9317 180.167C64.6073 179.038 63.2622 177.933 61.8973 176.851L62.7007 175.837ZM-131.353 185.378C-130.09 184.158 -128.806 182.96 -127.5 181.785L-126.634 182.747C-127.929 183.911 -129.203 185.099 -130.455 186.308L-131.353 185.378ZM69.7433 181.785C71.0495 182.96 72.3343 184.158 73.5972 185.378L72.6983 186.308C71.4465 185.099 70.1729 183.911 68.8783 182.747L69.7433 181.785ZM-137.78 191.987C-136.596 190.69 -135.388 189.415 -134.158 188.161L-133.235 189.067C-134.454 190.31 -135.651 191.574 -136.825 192.86L-137.78 191.987ZM76.4019 188.161C77.6318 189.415 78.8394 190.69 80.0238 191.987L79.0686 192.86C77.8946 191.574 76.6976 190.31 75.4784 189.067L76.4019 188.161ZM-143.781 198.985C-142.68 197.617 -141.554 196.268 -140.405 194.94L-139.427 195.787C-140.566 197.103 -141.682 198.44 -142.773 199.796L-143.781 198.985ZM82.6492 194.94C83.7982 196.268 84.9236 197.617 86.0249 198.985L85.017 199.796C83.9254 198.44 82.8099 197.103 81.671 195.787L82.6492 194.94ZM-149.332 206.345C-148.319 204.91 -147.28 203.494 -146.217 202.097L-145.188 202.881C-146.242 204.265 -147.271 205.669 -148.276 207.091L-149.332 206.345ZM88.4607 202.097C89.524 203.494 90.5627 204.91 91.5761 206.345L90.5194 207.091C89.5149 205.669 88.4854 204.265 87.4314 202.881L88.4607 202.097ZM-154.411 214.04C-153.49 212.543 -152.542 211.064 -151.568 209.604L-150.492 210.321C-151.457 211.769 -152.396 213.235 -153.31 214.718L-154.411 214.04ZM93.812 209.604C94.7855 211.064 95.7334 212.543 96.655 214.04L95.5534 214.718C94.64 213.235 93.7005 211.769 92.7355 210.321L93.812 209.604ZM-158.994 222.038C-158.169 220.486 -157.316 218.95 -156.437 217.432L-155.317 218.08C-156.189 219.585 -157.034 221.107 -157.852 222.646L-158.994 222.038ZM98.6804 217.432C99.5597 218.95 100.412 220.486 101.238 222.038L100.096 222.646C99.2776 221.107 98.4324 219.585 97.5609 218.08L98.6804 217.432ZM-163.062 230.311C-162.337 228.709 -161.583 227.123 -160.802 225.552L-159.644 226.129C-160.418 227.685 -161.165 229.257 -161.884 230.844L-163.062 230.311ZM103.046 225.553C103.827 227.123 104.581 228.709 105.306 230.311L104.128 230.844C103.409 229.257 102.662 227.685 101.888 226.129L103.046 225.553ZM-166.598 238.826C-165.976 237.181 -165.324 235.55 -164.645 233.934L-163.452 234.436C-164.126 236.037 -164.771 237.654 -165.388 239.284L-166.598 238.826ZM106.888 233.934C107.568 235.55 108.219 237.181 108.842 238.826L107.632 239.284C107.015 237.654 106.37 236.037 105.696 234.436L106.888 233.934ZM-169.585 247.55C-169.068 245.866 -168.521 244.196 -167.946 242.539L-166.724 242.964C-167.294 244.606 -167.836 246.261 -168.348 247.929L-169.585 247.55ZM110.189 242.539C110.765 244.196 111.312 245.866 111.829 247.55L110.592 247.929C110.08 246.261 109.538 244.606 108.967 242.964L110.189 242.539ZM-172.009 256.441C-171.6 254.729 -171.161 253.028 -170.693 251.34L-169.446 251.686C-169.911 253.359 -170.346 255.044 -170.751 256.741L-172.009 256.441ZM112.937 251.34C113.405 253.028 113.844 254.729 114.253 256.441L112.995 256.741C112.59 255.044 112.155 253.359 111.69 251.686L112.937 251.34ZM-173.863 265.472C-173.564 263.738 -173.235 262.014 -172.875 260.301L-171.609 260.567C-171.965 262.264 -172.292 263.973 -172.588 265.691L-173.863 265.472ZM115.119 260.301C115.478 262.014 115.808 263.738 116.107 265.472L114.832 265.691C114.536 263.973 114.209 262.264 113.853 260.567L115.119 260.301ZM-175.141 274.606C-174.952 272.853 -174.732 271.11 -174.482 269.377L-173.201 269.562C-173.45 271.28 -173.668 273.008 -173.855 274.744L-175.141 274.606ZM116.726 269.377C116.976 271.11 117.196 272.853 117.385 274.606L116.099 274.744C115.911 273.008 115.693 271.28 115.445 269.562L116.726 269.377ZM-175.84 283.798C-175.761 282.035 -175.651 280.28 -175.511 278.534L-174.221 278.638C-174.361 280.369 -174.47 282.108 -174.547 283.855L-175.84 283.798ZM117.755 278.535C117.895 280.28 118.005 282.035 118.083 283.798L116.791 283.855C116.713 282.108 116.604 280.369 116.465 278.638L117.755 278.535ZM-175.986 290.386C-175.986 289.503 -175.978 288.622 -175.963 287.742L-174.669 287.765C-174.685 288.637 -174.692 289.511 -174.692 290.386C-174.692 291.262 -174.685 292.135 -174.669 293.007L-175.963 293.03C-175.978 292.151 -175.986 291.269 -175.986 290.386ZM118.206 287.742C118.222 288.622 118.23 289.503 118.23 290.386C118.23 291.269 118.222 292.151 118.206 293.03L116.913 293.007C116.928 292.135 116.936 291.262 116.936 290.386C116.936 289.511 116.928 288.637 116.913 287.765L118.206 287.742ZM-175.511 302.238C-175.651 300.492 -175.761 298.737 -175.84 296.975L-174.547 296.917C-174.47 298.664 -174.361 300.403 -174.221 302.134L-175.511 302.238ZM118.083 296.975C118.005 298.737 117.895 300.492 117.755 302.238L116.465 302.134C116.604 300.403 116.713 298.664 116.791 296.917L118.083 296.975ZM-174.482 311.395C-174.732 309.662 -174.952 307.919 -175.141 306.166L-173.855 306.028C-173.668 307.765 -173.45 309.492 -173.201 311.21L-174.482 311.395ZM117.385 306.166C117.196 307.919 116.976 309.662 116.726 311.395L115.445 311.21C115.693 309.492 115.911 307.765 116.099 306.028L117.385 306.166ZM-172.875 320.471C-173.235 318.758 -173.564 317.035 -173.863 315.3L-172.588 315.081C-172.292 316.799 -171.965 318.508 -171.609 320.205L-172.875 320.471ZM116.107 315.3C115.808 317.035 115.478 318.758 115.119 320.471L113.853 320.205C114.209 318.508 114.536 316.799 114.832 315.081L116.107 315.3ZM-170.693 329.432C-171.162 327.744 -171.6 326.043 -172.009 324.331L-170.751 324.031C-170.346 325.728 -169.911 327.413 -169.446 329.086L-170.693 329.432ZM114.253 324.331C113.844 326.043 113.405 327.744 112.937 329.432L111.69 329.086C112.155 327.413 112.59 325.728 112.995 324.031L114.253 324.331ZM-167.946 338.233C-168.521 336.576 -169.068 334.906 -169.585 333.223L-168.348 332.843C-167.836 334.511 -167.294 336.166 -166.724 337.808L-167.946 338.233ZM111.829 333.223C111.312 334.906 110.765 336.576 110.189 338.233L108.967 337.808C109.538 336.166 110.08 334.511 110.592 332.843L111.829 333.223ZM-164.645 346.838C-165.324 345.222 -165.976 343.591 -166.598 341.946L-165.388 341.488C-164.771 343.118 -164.126 344.735 -163.452 346.337L-164.645 346.838ZM108.842 341.946C108.219 343.591 107.568 345.222 106.888 346.838L105.696 346.337C106.37 344.735 107.015 343.118 107.632 341.488L108.842 341.946ZM-160.802 355.22C-161.583 353.649 -162.337 352.063 -163.062 350.462L-161.884 349.928C-161.165 351.515 -160.418 353.087 -159.644 354.644L-160.802 355.22ZM105.306 350.462C104.581 352.063 103.827 353.649 103.046 355.22L101.888 354.644C102.662 353.087 103.409 351.515 104.128 349.928L105.306 350.462ZM-156.437 363.341C-157.316 361.822 -158.169 360.286 -158.994 358.734L-157.852 358.126C-157.034 359.665 -156.189 361.187 -155.317 362.692L-156.437 363.341ZM101.238 358.734C100.412 360.286 99.5597 361.822 98.6804 363.341L97.5609 362.692C98.4324 361.187 99.2776 359.665 100.096 358.126L101.238 358.734ZM-151.568 371.168C-152.542 369.708 -153.49 368.229 -154.411 366.732L-153.31 366.054C-152.396 367.537 -151.457 369.003 -150.492 370.451L-151.568 371.168ZM96.655 366.732C95.7334 368.229 94.7855 369.708 93.812 371.168L92.7355 370.451C93.7004 369.003 94.64 367.537 95.5534 366.054L96.655 366.732ZM-146.217 378.675C-147.28 377.278 -148.319 375.862 -149.332 374.427L-148.276 373.681C-147.271 375.103 -146.242 376.507 -145.188 377.891L-146.217 378.675ZM91.5761 374.427C90.5627 375.862 89.524 377.278 88.4607 378.675L87.4314 377.892C88.4854 376.507 89.5149 375.103 90.5194 373.681L91.5761 374.427ZM-140.405 385.832C-141.554 384.504 -142.68 383.156 -143.781 381.787L-142.773 380.976C-141.682 382.333 -140.566 383.669 -139.427 384.985L-140.405 385.832ZM86.0248 381.787C84.9236 383.156 83.7982 384.504 82.6492 385.832L81.671 384.985C82.8099 383.669 83.9254 382.333 85.017 380.976L86.0248 381.787ZM-134.158 392.611C-135.388 391.357 -136.596 390.082 -137.78 388.785L-136.825 387.912C-135.651 389.198 -134.454 390.462 -133.235 391.705L-134.158 392.611ZM80.0238 388.785C78.8393 390.082 77.6318 391.357 76.4018 392.611L75.4784 391.705C76.6976 390.462 77.8946 389.198 79.0686 387.912L80.0238 388.785ZM-127.5 398.987C-128.806 397.812 -130.09 396.614 -131.353 395.394L-130.455 394.464C-129.203 395.673 -127.929 396.861 -126.634 398.025L-127.5 398.987ZM73.5972 395.394C72.3343 396.614 71.0495 397.812 69.7433 398.987L68.8782 398.025C70.1729 396.861 71.4465 395.673 72.6983 394.464L73.5972 395.394ZM-120.457 404.935C-121.834 403.844 -123.191 402.728 -124.527 401.59L-123.688 400.605C-122.363 401.734 -121.018 402.839 -119.653 403.921L-120.457 404.935ZM66.7708 401.59C65.4346 402.728 64.0777 403.844 62.7007 404.935L61.8973 403.921C63.2622 402.839 64.6072 401.734 65.9317 400.605L66.7708 401.59ZM-113.056 410.432C-114.499 409.429 -115.923 408.4 -117.327 407.348L-116.551 406.313C-115.159 407.356 -113.748 408.375 -112.318 409.37L-113.056 410.432ZM59.5705 407.348C58.1664 408.4 56.7427 409.429 55.3002 410.432L54.5616 409.37C55.9915 408.375 57.4027 407.356 58.7945 406.313L59.5705 407.348ZM-105.326 415.457C-106.829 414.545 -108.315 413.607 -109.782 412.644L-109.072 411.563C-107.618 412.517 -106.145 413.447 -104.655 414.351L-105.326 415.457ZM52.0259 412.644C50.5585 413.607 49.0728 414.545 47.5693 415.457L46.8986 414.351C48.3889 413.447 49.8616 412.517 51.3161 411.563L52.0259 412.644ZM-97.2982 419.986C-98.8559 419.171 -100.397 418.328 -101.921 417.459L-101.28 416.335C-99.7698 417.197 -98.2421 418.032 -96.6981 418.84L-97.2982 419.986ZM44.165 417.459C42.6409 418.328 41.0997 419.171 39.542 419.986L38.9418 418.84C40.4859 418.032 42.0135 417.197 43.5242 416.335L44.165 417.459ZM-89.0017 424.004C-90.6075 423.288 -92.198 422.544 -93.7726 421.773L-93.2035 420.611C-91.6428 421.375 -90.0663 422.113 -88.4747 422.823L-89.0017 424.004ZM36.0164 421.773C34.4417 422.544 32.8513 423.288 31.2455 424.004L30.7185 422.823C32.3101 422.113 33.8866 421.375 35.4473 420.611L36.0164 421.773ZM-80.4669 427.494C-82.1154 426.88 -83.7499 426.237 -85.3698 425.566L-84.8748 424.371C-83.2692 425.036 -81.6492 425.673 -80.0152 426.282L-80.4669 427.494ZM27.6136 425.566C25.9937 426.237 24.3592 426.88 22.7107 427.494L22.259 426.282C23.893 425.673 25.513 425.036 27.1186 424.371L27.6136 425.566ZM-71.731 430.44C-73.4163 429.93 -75.0888 429.391 -76.7479 428.823L-76.3291 427.599C-74.6846 428.162 -73.0269 428.696 -71.3564 429.201L-71.731 430.44ZM18.9917 428.823C17.3326 429.391 15.6601 429.93 13.9748 430.44L13.6002 429.201C15.2707 428.696 16.9284 428.162 18.5729 427.599L18.9917 428.823ZM-62.8304 432.829C-64.544 432.426 -66.246 431.994 -67.9358 431.532L-67.5948 430.284C-65.9199 430.742 -64.2329 431.171 -62.5344 431.57L-62.8304 432.829ZM10.1796 431.532C8.48978 431.994 6.78777 432.426 5.0742 432.829L4.77819 431.57C6.47668 431.171 8.16366 430.742 9.83858 430.284L10.1796 431.532ZM-53.7944 434.656C-55.5292 434.362 -57.2537 434.037 -58.9672 433.682L-58.7052 432.416C-57.0068 432.767 -55.2975 433.089 -53.5779 433.381L-53.7944 434.656ZM1.21099 433.682C-0.502525 434.037 -2.22698 434.362 -3.96177 434.656L-4.17825 433.381C-2.4587 433.089 -0.749413 432.767 0.949028 432.416L1.21099 433.682ZM-44.6579 435.915C-46.4108 435.729 -48.1544 435.512 -49.8884 435.265L-49.7062 433.984C-47.9874 434.229 -46.259 434.444 -44.5214 434.628L-44.6579 435.915ZM-7.86778 435.265C-9.60174 435.512 -11.3454 435.729 -13.0983 435.915L-13.2348 434.628C-11.4972 434.444 -9.76876 434.229 -8.05001 433.984L-7.86778 435.265ZM-35.4664 436.603C-37.229 436.525 -38.9835 436.417 -40.7294 436.279L-40.6271 434.989C-38.8964 435.126 -37.1571 435.234 -35.4098 435.31L-35.4664 436.603ZM-17.0268 436.279C-18.7727 436.417 -20.5272 436.525 -22.2898 436.603L-22.3464 435.31C-20.5991 435.234 -18.8598 435.126 -17.1291 434.989L-17.0268 436.279ZM-28.8781 436.747C-29.7612 436.747 -30.6425 436.739 -31.5219 436.724L-31.4992 435.43C-30.6274 435.445 -29.7536 435.453 -28.8781 435.453C-28.0026 435.453 -27.1288 435.445 -26.257 435.43L-26.2343 436.724C-27.1137 436.739 -27.995 436.747 -28.8781 436.747Z" fill="#23024D"/>
            <path fill-rule="evenodd" clip-rule="evenodd" d="M-28.8738 288.779C21.9482 288.779 63.1386 247.914 63.1386 197.514L64.4322 197.514C64.4322 248.638 22.6527 290.073 -28.8738 290.073C-80.4002 290.073 -122.18 248.638 -122.18 197.514C-122.18 146.391 -80.4003 104.956 -28.8738 104.956L-28.8738 106.249C-79.6957 106.249 -120.886 147.115 -120.886 197.514C-120.886 247.914 -79.6957 288.779 -28.8738 288.779Z" fill="#23024D"/>
            <path fill-rule="evenodd" clip-rule="evenodd" d="M64.3957 194.901C64.42 195.769 64.4322 196.64 64.4322 197.514L63.1386 197.514C63.1386 196.652 63.1265 195.793 63.1026 194.937L64.3957 194.901ZM63.693 185.808C63.9112 187.523 64.0821 189.253 64.2044 190.996L62.9139 191.087C62.7934 189.368 62.6248 187.662 62.4097 185.971L63.693 185.808ZM62.0931 176.828C62.4813 178.516 62.8231 180.22 63.117 181.941L61.8419 182.159C61.5521 180.462 61.2151 178.782 60.8324 177.119L62.0931 176.828ZM59.6059 168.053C60.1611 169.694 60.6713 171.357 61.1348 173.038L59.8877 173.382C59.4307 171.724 58.9279 170.086 58.3805 168.467L59.6059 168.053ZM56.256 159.569C56.9726 161.148 57.6458 162.751 58.2741 164.377L57.0675 164.843C56.4481 163.241 55.7844 161.661 55.078 160.103L56.256 159.569ZM52.0802 151.46C52.9502 152.962 53.7791 154.49 54.5651 156.043L53.4109 156.627C52.6359 155.096 51.8187 153.589 50.9608 152.108L52.0802 151.46ZM47.1242 143.803C48.1384 145.213 49.1138 146.652 50.0488 148.119L48.9579 148.814C48.036 147.368 47.0742 145.949 46.0741 144.558L47.1242 143.803ZM41.4409 136.67C42.5888 137.974 43.7005 139.31 44.7743 140.678L43.7569 141.477C42.698 140.128 41.6018 138.81 40.4698 137.524L41.4409 136.67ZM35.0884 130.125C36.3586 131.312 37.5953 132.534 38.7968 133.789L37.8624 134.684C36.6774 133.446 35.4579 132.241 34.2052 131.07L35.0884 130.125ZM28.1288 124.231C29.5092 125.289 30.8589 126.384 32.1763 127.516L31.3334 128.497C30.0342 127.381 28.7031 126.301 27.3418 125.257L28.1288 124.231ZM20.6286 119.041C22.1063 119.961 23.5562 120.92 24.9767 121.917L24.2333 122.976C22.8324 121.992 21.4026 121.046 19.9453 120.14L20.6286 119.041ZM12.6582 114.608C14.2196 115.379 15.7561 116.192 17.2662 117.046L16.6295 118.172C15.1403 117.33 13.625 116.528 12.0853 115.768L12.6582 114.608ZM4.29279 110.974C5.92334 111.589 7.53198 112.248 9.11726 112.95L8.59355 114.133C7.03027 113.441 5.44398 112.791 3.83609 112.184L4.29279 110.974ZM-4.38775 108.176C-2.70345 108.629 -1.03806 109.128 0.606972 109.671L0.20147 110.899C-1.4207 110.364 -3.06296 109.872 -4.72388 109.425L-4.38775 108.176ZM-13.2997 106.239C-11.5777 106.526 -9.87169 106.86 -8.18305 107.239L-8.46654 108.502C-10.1318 108.128 -11.8142 107.798 -13.5124 107.515L-13.2997 106.239ZM-22.3566 105.178C-20.6134 105.297 -18.8834 105.464 -17.1678 105.677L-17.3272 106.961C-19.0192 106.751 -20.7255 106.586 -22.4449 106.468L-22.3566 105.178ZM-28.8738 104.956C-27.9999 104.956 -27.1289 104.967 -26.2608 104.991L-26.2961 106.284C-27.1524 106.261 -28.0117 106.249 -28.8738 106.249L-28.8738 104.956Z" fill="#23024D"/>
        </g>
        <rect x="275" y="129" width="69" height="25" rx="6" fill="#8620B9"/>
        <path d="M306.246 144.629V146H301.951V144.629H306.246ZM302.52 137.469V146H300.762V137.469H302.52ZM311.523 137.469V146H309.771V137.469H311.523ZM318.646 144.219L320.655 137.469H322.613L319.642 146H318.353L318.646 144.219ZM316.794 137.469L318.798 144.219L319.103 146H317.802L314.849 137.469H316.794ZM331.534 144.629V146H326.993V144.629H331.534ZM327.567 137.469V146H325.809V137.469H327.567ZM330.942 140.943V142.279H326.993V140.943H330.942ZM331.528 137.469V138.846H326.993V137.469H331.528Z" fill="#FAFAFB"/>
        <circle opacity="0.2" cx="290" cy="141" r="5" fill="#FAFAFB"/>
        <circle cx="290" cy="141" r="2" fill="#FAFAFB"/>
    </g>
    <defs>
        <clipPath id="clip0_7355_28877">
            <rect width="624" height="282" fill="white"/>
        </clipPath>
    </defs>
</svg>
