<svg width="40" height="40" viewBox="0 0 40 40" fill="none" xmlns="http://www.w3.org/2000/svg">
    <rect width="40" height="40" rx="10" fill="#23024D"/>
    <path d="M20.0786 29.2C15.2512 29.2 11.879 26.2382 11.879 21.9971C11.879 17.9833 16.463 11.3815 21.6395 10C20.4659 11.1709 18.8534 12.936 17.9541 14.8631C16.6789 17.5948 16.5582 21.765 16.6697 22.255L16.8495 23.0458L17.6148 22.7504C18.4408 22.4314 19.2378 21.9714 19.9834 21.3828C20.2613 21.1625 20.5343 20.9228 20.7938 20.6705C20.9716 20.4975 21.1437 20.3182 21.3102 20.134C22.9515 18.3126 24.0032 15.9548 24.1731 13.8339C26.5099 15.394 28.279 18.7991 28.279 21.9971C28.279 26.2382 24.9067 29.2 20.0786 29.2Z" fill="white"/>
</svg>
