<svg width="1673" height="934" viewBox="0 0 1673 934" fill="none" xmlns="http://www.w3.org/2000/svg">
  <path d="M712.562 0.244141L714.3 6.61624L720.672 8.35408L714.3 10.0919L712.562 16.464L710.825 10.0919L704.453 8.35408L710.825 6.61624L712.562 0.244141Z" fill="#E6E6EB"/>
  <path d="M1557 28.5C1557 25.4624 1554.54 23 1551.5 23C1548.46 23 1546 25.4624 1546 28.5C1546 31.5376 1548.46 34 1551.5 34C1554.54 34 1557 31.5376 1557 28.5Z" fill="#E6E6EB"/>
  <path d="M144.562 131.657L147.593 142.769L158.705 145.799L147.593 148.83L144.562 159.941L141.532 148.83L130.42 145.799L141.532 142.769L144.562 131.657Z" fill="#E6E6EB"/>
  <path d="M151.693 153.282L149.336 150.925L149.689 150.572L152.046 152.929L151.693 153.282Z" fill="#E6E6EB"/>
  <path d="M152.085 153.675L152.871 154.461L153.225 154.107L152.439 153.322L152.085 153.675Z" fill="#E6E6EB"/>
  <path d="M154.05 155.639L153.264 154.854L153.617 154.5L154.403 155.286L154.05 155.639Z" fill="#E6E6EB"/>
  <path d="M139.2 140.79L136.843 138.433L137.197 138.08L139.554 140.437L139.2 140.79Z" fill="#E6E6EB"/>
  <path d="M135.665 137.255L136.451 138.04L136.804 137.687L136.018 136.901L135.665 137.255Z" fill="#E6E6EB"/>
  <path d="M135.272 136.862L134.486 136.076L134.84 135.723L135.626 136.508L135.272 136.862Z" fill="#E6E6EB"/>
  <path d="M152.281 138.433L149.924 140.79L149.571 140.437L151.928 138.08L152.281 138.433Z" fill="#E6E6EB"/>
  <path d="M152.674 138.041L153.46 137.255L153.106 136.901L152.321 137.687L152.674 138.041Z" fill="#E6E6EB"/>
  <path d="M154.639 136.076L153.853 136.862L153.499 136.508L154.285 135.723L154.639 136.076Z" fill="#E6E6EB"/>
  <path d="M139.789 150.926L137.432 153.283L137.079 152.929L139.436 150.572L139.789 150.926Z" fill="#E6E6EB"/>
  <path d="M136.254 154.461L137.039 153.675L136.686 153.322L135.9 154.108L136.254 154.461Z" fill="#E6E6EB"/>
  <path d="M135.861 154.854L135.075 155.64L134.722 155.286L135.507 154.5L135.861 154.854Z" fill="#E6E6EB"/>
  <path d="M1627.56 886.657L1630.59 897.769L1641.7 900.799L1630.59 903.83L1627.56 914.941L1624.53 903.83L1613.42 900.799L1624.53 897.769L1627.56 886.657Z" fill="#E6E6EB"/>
  <path d="M1632.34 905.925L1634.69 908.282L1635.05 907.929L1632.69 905.572L1632.34 905.925Z" fill="#E6E6EB"/>
  <path d="M1635.87 909.461L1635.09 908.675L1635.44 908.322L1636.22 909.107L1635.87 909.461Z" fill="#E6E6EB"/>
  <path d="M1636.26 909.854L1637.05 910.639L1637.4 910.286L1636.62 909.5L1636.26 909.854Z" fill="#E6E6EB"/>
  <path d="M1619.84 893.433L1622.2 895.79L1622.55 895.437L1620.2 893.08L1619.84 893.433Z" fill="#E6E6EB"/>
  <path d="M1619.45 893.04L1618.66 892.255L1619.02 891.901L1619.8 892.687L1619.45 893.04Z" fill="#E6E6EB"/>
  <path d="M1617.49 891.076L1618.27 891.862L1618.63 891.508L1617.84 890.723L1617.49 891.076Z" fill="#E6E6EB"/>
  <path d="M1632.92 895.79L1635.28 893.433L1634.93 893.08L1632.57 895.437L1632.92 895.79Z" fill="#E6E6EB"/>
  <path d="M1636.46 892.255L1635.67 893.041L1635.32 892.687L1636.11 891.901L1636.46 892.255Z" fill="#E6E6EB"/>
  <path d="M1636.85 891.862L1637.64 891.076L1637.29 890.723L1636.5 891.508L1636.85 891.862Z" fill="#E6E6EB"/>
  <path d="M1620.43 908.283L1622.79 905.926L1622.44 905.572L1620.08 907.929L1620.43 908.283Z" fill="#E6E6EB"/>
  <path d="M1620.04 908.675L1619.25 909.461L1618.9 909.108L1619.69 908.322L1620.04 908.675Z" fill="#E6E6EB"/>
  <path d="M1618.08 910.64L1618.86 909.854L1618.51 909.5L1617.72 910.286L1618.08 910.64Z" fill="#E6E6EB"/>
  <path d="M5.5 922.264C8.53757 922.264 11 924.726 11 927.764C11 930.801 8.53757 933.264 5.5 933.264C2.46243 933.264 0 930.801 0 927.764C0 924.726 2.46243 922.264 5.5 922.264Z" fill="#E6E6EB"/>
  <path d="M56.7358 870.606C55.4638 870.606 54.4326 869.575 54.4326 868.303C54.4326 867.031 55.4638 866 56.7358 866C58.0079 866 59.0391 867.031 59.0391 868.303C59.0391 869.575 58.0079 870.606 56.7358 870.606Z" fill="#E6E6EB"/>
  <path d="M546.562 818.657L549.593 829.769L560.705 832.799L549.593 835.83L546.562 846.941L543.532 835.83L532.42 832.799L543.532 829.769L546.562 818.657Z" fill="#E6E6EB"/>
  <path d="M551.336 837.925L553.693 840.282L554.046 839.929L551.689 837.572L551.336 837.925Z" fill="#E6E6EB"/>
  <path d="M554.871 841.461L554.085 840.675L554.439 840.322L555.225 841.107L554.871 841.461Z" fill="#E6E6EB"/>
  <path d="M555.264 841.854L556.05 842.639L556.403 842.286L555.617 841.5L555.264 841.854Z" fill="#E6E6EB"/>
  <path d="M538.843 825.433L541.2 827.79L541.554 827.437L539.197 825.08L538.843 825.433Z" fill="#E6E6EB"/>
  <path d="M538.451 825.04L537.665 824.255L538.018 823.901L538.804 824.687L538.451 825.04Z" fill="#E6E6EB"/>
  <path d="M536.486 823.076L537.272 823.862L537.626 823.508L536.84 822.723L536.486 823.076Z" fill="#E6E6EB"/>
  <path d="M551.924 827.79L554.281 825.433L553.928 825.08L551.571 827.437L551.924 827.79Z" fill="#E6E6EB"/>
  <path d="M555.46 824.255L554.674 825.041L554.321 824.687L555.106 823.901L555.46 824.255Z" fill="#E6E6EB"/>
  <path d="M555.853 823.862L556.639 823.076L556.285 822.723L555.499 823.508L555.853 823.862Z" fill="#E6E6EB"/>
  <path d="M539.432 840.283L541.789 837.926L541.436 837.572L539.079 839.929L539.432 840.283Z" fill="#E6E6EB"/>
  <path d="M539.039 840.675L538.254 841.461L537.9 841.108L538.686 840.322L539.039 840.675Z" fill="#E6E6EB"/>
  <path d="M537.075 842.64L537.861 841.854L537.507 841.5L536.722 842.286L537.075 842.64Z" fill="#E6E6EB"/>
  <path d="M1184.59 364.769L1181.56 353.657L1178.53 364.769L1167.42 367.799L1178.53 370.83L1181.56 381.941L1184.59 370.83L1195.71 367.799L1184.59 364.769Z" fill="#E6E6EB"/>
  <path d="M1188.69 375.282L1186.34 372.925L1186.69 372.572L1189.05 374.929L1188.69 375.282Z" fill="#E6E6EB"/>
  <path d="M1189.09 375.675L1189.87 376.461L1190.23 376.107L1189.44 375.322L1189.09 375.675Z" fill="#E6E6EB"/>
  <path d="M1191.05 377.639L1190.26 376.854L1190.62 376.5L1191.4 377.286L1191.05 377.639Z" fill="#E6E6EB"/>
  <path d="M1176.2 362.79L1173.84 360.433L1174.2 360.08L1176.55 362.437L1176.2 362.79Z" fill="#E6E6EB"/>
  <path d="M1172.67 359.255L1173.45 360.04L1173.81 359.687L1173.02 358.901L1172.67 359.255Z" fill="#E6E6EB"/>
  <path d="M1172.27 358.862L1171.49 358.076L1171.84 357.723L1172.63 358.508L1172.27 358.862Z" fill="#E6E6EB"/>
  <path d="M1189.28 360.433L1186.93 362.79L1186.57 362.437L1188.93 360.08L1189.28 360.433Z" fill="#E6E6EB"/>
  <path d="M1189.68 360.041L1190.46 359.255L1190.11 358.901L1189.32 359.687L1189.68 360.041Z" fill="#E6E6EB"/>
  <path d="M1191.64 358.076L1190.85 358.862L1190.5 358.508L1191.29 357.723L1191.64 358.076Z" fill="#E6E6EB"/>
  <path d="M1176.79 372.926L1174.43 375.283L1174.08 374.929L1176.44 372.572L1176.79 372.926Z" fill="#E6E6EB"/>
  <path d="M1173.25 376.461L1174.04 375.675L1173.69 375.322L1172.9 376.108L1173.25 376.461Z" fill="#E6E6EB"/>
  <path d="M1172.86 376.854L1172.08 377.64L1171.72 377.286L1172.51 376.5L1172.86 376.854Z" fill="#E6E6EB"/>
  <path d="M715.224 11.3693L716.575 12.7209L716.929 12.3674L715.577 11.0157L715.224 11.3693Z" fill="#E6E6EB"/>
  <path d="M717.251 13.3973L716.801 12.9467L717.154 12.5932L717.605 13.0437L717.251 13.3973Z" fill="#E6E6EB"/>
  <path d="M717.476 13.6225L717.927 14.0731L718.28 13.7195L717.83 13.269L717.476 13.6225Z" fill="#E6E6EB"/>
  <path d="M708.06 4.20594L709.411 5.55759L709.765 5.20404L708.413 3.85238L708.06 4.20594Z" fill="#E6E6EB"/>
  <path d="M707.834 3.98072L707.384 3.53017L707.737 3.17662L708.188 3.62717L707.834 3.98072Z" fill="#E6E6EB"/>
  <path d="M706.707 2.8543L707.158 3.30485L707.511 2.95129L707.061 2.50074L706.707 2.8543Z" fill="#E6E6EB"/>
  <path d="M715.713 5.55686L717.064 4.2052L716.711 3.85165L715.359 5.2033L715.713 5.55686Z" fill="#E6E6EB"/>
  <path d="M717.741 3.53005L717.29 3.9806L716.937 3.62704L717.387 3.17649L717.741 3.53005Z" fill="#E6E6EB"/>
  <path d="M717.966 3.30473L718.416 2.85417L718.063 2.50062L717.612 2.95117L717.966 3.30473Z" fill="#E6E6EB"/>
  <path d="M708.55 12.7206L709.901 11.369L709.548 11.0154L708.196 12.3671L708.55 12.7206Z" fill="#E6E6EB"/>
  <path d="M708.324 12.9459L707.874 13.3965L707.52 13.0429L707.971 12.5924L708.324 12.9459Z" fill="#E6E6EB"/>
  <path d="M707.197 14.0723L707.648 13.6218L707.294 13.2682L706.844 13.7188L707.197 14.0723Z" fill="#E6E6EB"/>
  <path d="M1665.96 267.616L1664.22 261.244L1662.48 267.616L1656.11 269.354L1662.48 271.092L1664.22 277.464L1665.96 271.092L1672.33 269.354L1665.96 267.616Z" fill="#E6E6EB"/>
  <path d="M1668.23 273.721L1666.88 272.369L1667.23 272.016L1668.59 273.367L1668.23 273.721Z" fill="#E6E6EB"/>
  <path d="M1668.46 273.947L1668.91 274.397L1669.26 274.044L1668.81 273.593L1668.46 273.947Z" fill="#E6E6EB"/>
  <path d="M1669.58 275.073L1669.13 274.623L1669.49 274.269L1669.94 274.72L1669.58 275.073Z" fill="#E6E6EB"/>
  <path d="M1661.07 266.558L1659.72 265.206L1660.07 264.852L1661.42 266.204L1661.07 266.558Z" fill="#E6E6EB"/>
  <path d="M1659.04 264.53L1659.49 264.981L1659.85 264.627L1659.39 264.177L1659.04 264.53Z" fill="#E6E6EB"/>
  <path d="M1658.82 264.305L1658.36 263.854L1658.72 263.501L1659.17 263.951L1658.82 264.305Z" fill="#E6E6EB"/>
  <path d="M1668.72 265.205L1667.37 266.557L1667.02 266.203L1668.37 264.852L1668.72 265.205Z" fill="#E6E6EB"/>
  <path d="M1668.95 264.981L1669.4 264.53L1669.04 264.176L1668.59 264.627L1668.95 264.981Z" fill="#E6E6EB"/>
  <path d="M1670.07 263.854L1669.62 264.305L1669.27 263.951L1669.72 263.501L1670.07 263.854Z" fill="#E6E6EB"/>
  <path d="M1661.56 272.369L1660.21 273.721L1659.85 273.367L1661.21 272.015L1661.56 272.369Z" fill="#E6E6EB"/>
  <path d="M1659.53 274.396L1659.98 273.946L1659.63 273.592L1659.18 274.043L1659.53 274.396Z" fill="#E6E6EB"/>
  <path d="M1659.31 274.622L1658.85 275.072L1658.5 274.719L1658.95 274.268L1659.31 274.622Z" fill="#E6E6EB"/>
</svg>
