<svg width="100%" height="100%" viewBox="0 0 739 905" fill="none" xmlns="http://www.w3.org/2000/svg">
<rect width="739" height="905" rx="10" fill="#FAFAFB"/>
<circle opacity="0.1" cx="472.391" cy="447.787" r="1.84258" fill="#23024D"/>
<circle opacity="0.1" cx="215.843" cy="423.843" r="1.84258" fill="#23024D"/>
<circle opacity="0.1" cx="188.843" cy="121.843" r="1.84258" fill="#23024D"/>
<path d="M65.4746 105.82L68.1634 115.679L68.2386 115.955L68.5142 116.03L78.3732 118.719L68.5142 121.408L68.2386 121.483L68.1634 121.758L65.4746 131.617L62.7858 121.758L62.7106 121.483L62.435 121.408L52.576 118.719L62.435 116.03L62.7106 115.955L62.7858 115.679L65.4746 105.82Z" fill="#23024D" stroke="black"/>
<path d="M70.6543 123.897L73.1208 126.364" stroke="black"/>
<path d="M73.5312 126.775L74.3534 127.598" stroke="black"/>
<path d="M74.7656 128.008L75.5878 128.83" stroke="black"/>
<path d="M60.0488 113.292L57.5823 110.826" stroke="black"/>
<path d="M57.1719 110.414L56.3497 109.592" stroke="black"/>
<path d="M55.9355 109.182L55.1134 108.359" stroke="black"/>
<path d="M70.8965 113.292L73.363 110.826" stroke="black"/>
<path d="M73.7773 110.415L74.5995 109.593" stroke="black"/>
<path d="M75.0098 109.182L75.8319 108.359" stroke="black"/>
<path d="M60.291 123.897L57.8245 126.364" stroke="black"/>
<path d="M57.4121 126.775L56.5899 127.598" stroke="black"/>
<path d="M56.1797 128.009L55.3575 128.831" stroke="black"/>
<circle cx="250.571" cy="531.483" r="2.30323" fill="#23024D"/>
<circle cx="679.5" cy="727.5" r="5.5" transform="rotate(-180 679.5 727.5)" fill="#23024D"/>
<circle cx="628.264" cy="668.04" r="2.30323" fill="#23024D"/>
<circle cx="417.575" cy="484.178" r="2.30323" fill="#23024D"/>
<circle cx="285.831" cy="595.655" r="2.30323" stroke="#23024D"/>
<circle cx="178.501" cy="236.812" r="1.84258" fill="#23024D"/>
<circle cx="286.291" cy="549.13" r="2.26388" stroke="#23024D"/>
<circle cx="388.764" cy="326.764" r="2.26388" stroke="#23024D"/>
<circle cx="237.764" cy="357.764" r="2.26388" stroke="#23024D"/>
<circle cx="507.764" cy="440.764" r="2.26388" stroke="#23024D"/>
<circle cx="371.971" cy="373.163" r="2.26388" fill="#23024D" stroke="#1127E9"/>
<path d="M568.16 50.1768L564.236 35.7867L549.846 31.8622L564.236 27.9376L568.16 13.5475L572.085 27.9376L586.475 31.8622L572.085 35.7867L568.16 50.1768Z" fill="#5F0E8E"/>
<path d="M561.752 25.4512L558.7 22.3987" stroke="#5F0E8E" stroke-width="0.5" stroke-linejoin="round"/>
<path d="M558.191 21.8896L557.174 20.8722" stroke="#5F0E8E" stroke-width="0.5" stroke-linejoin="round"/>
<path d="M556.666 20.3643L555.649 19.3468" stroke="#5F0E8E" stroke-width="0.5" stroke-linejoin="round"/>
<path d="M574.879 38.5771L577.931 41.6296" stroke="#5F0E8E" stroke-width="0.5" stroke-linejoin="round"/>
<path d="M578.438 42.1387L579.455 43.1561" stroke="#5F0E8E" stroke-width="0.5" stroke-linejoin="round"/>
<path d="M579.965 43.6641L580.982 44.6815" stroke="#5F0E8E" stroke-width="0.5" stroke-linejoin="round"/>
<path d="M561.447 38.5771L558.395 41.6296" stroke="#5F0E8E" stroke-width="0.5" stroke-linejoin="round"/>
<path d="M557.887 42.1387L556.869 43.1561" stroke="#5F0E8E" stroke-width="0.5" stroke-linejoin="round"/>
<path d="M556.359 43.665L555.342 44.6825" stroke="#5F0E8E" stroke-width="0.5" stroke-linejoin="round"/>
<path d="M574.57 25.4521L577.623 22.3997" stroke="#5F0E8E" stroke-width="0.5" stroke-linejoin="round"/>
<path d="M578.135 21.8906L579.152 20.8731" stroke="#5F0E8E" stroke-width="0.5" stroke-linejoin="round"/>
<path d="M579.66 20.3643L580.678 19.3468" stroke="#5F0E8E" stroke-width="0.5" stroke-linejoin="round"/>
<path d="M555.207 228.945L553.379 222.243L546.677 220.415L553.379 218.587L555.207 211.885L557.035 218.587L563.737 220.415L557.035 222.243L555.207 228.945Z" fill="#5F0E8E"/>
<path d="M552.223 217.427L550.801 216.005" stroke="#5F0E8E" stroke-width="0.5" stroke-linejoin="round"/>
<path d="M550.561 215.771L550.087 215.298" stroke="#5F0E8E" stroke-width="0.5" stroke-linejoin="round"/>
<path d="M549.85 215.061L549.376 214.587" stroke="#5F0E8E" stroke-width="0.5" stroke-linejoin="round"/>
<path d="M558.334 223.543L559.756 224.965" stroke="#5F0E8E" stroke-width="0.5" stroke-linejoin="round"/>
<path d="M559.99 225.202L560.464 225.676" stroke="#5F0E8E" stroke-width="0.5" stroke-linejoin="round"/>
<path d="M560.703 225.913L561.177 226.387" stroke="#5F0E8E" stroke-width="0.5" stroke-linejoin="round"/>
<path d="M552.082 223.542L550.66 224.964" stroke="#5F0E8E" stroke-width="0.5" stroke-linejoin="round"/>
<path d="M550.424 225.2L549.95 225.674" stroke="#5F0E8E" stroke-width="0.5" stroke-linejoin="round"/>
<path d="M549.711 225.912L549.237 226.386" stroke="#5F0E8E" stroke-width="0.5" stroke-linejoin="round"/>
<path d="M558.193 217.429L559.615 216.007" stroke="#5F0E8E" stroke-width="0.5" stroke-linejoin="round"/>
<path d="M559.85 215.771L560.324 215.297" stroke="#5F0E8E" stroke-width="0.5" stroke-linejoin="round"/>
<path d="M560.562 215.06L561.036 214.586" stroke="#5F0E8E" stroke-width="0.5" stroke-linejoin="round"/>
<path d="M586.172 145.492L584.777 140.378L579.663 138.983L584.777 137.588L586.172 132.474L587.567 137.588L592.681 138.983L587.567 140.378L586.172 145.492Z" fill="#5F0E8E"/>
<path d="M583.895 136.704L582.81 135.619" stroke="#1127E9" stroke-width="0.5" stroke-linejoin="round"/>
<path d="M582.629 135.439L582.267 135.078" stroke="#1127E9" stroke-width="0.5" stroke-linejoin="round"/>
<path d="M582.084 134.897L581.722 134.536" stroke="#1127E9" stroke-width="0.5" stroke-linejoin="round"/>
<path d="M588.559 141.37L589.643 142.455" stroke="#1127E9" stroke-width="0.5" stroke-linejoin="round"/>
<path d="M589.824 142.636L590.186 142.997" stroke="#1127E9" stroke-width="0.5" stroke-linejoin="round"/>
<path d="M590.365 143.179L590.727 143.54" stroke="#1127E9" stroke-width="0.5" stroke-linejoin="round"/>
<path d="M583.785 141.369L582.7 142.454" stroke="#1127E9" stroke-width="0.5" stroke-linejoin="round"/>
<path d="M582.521 142.635L582.16 142.996" stroke="#1127E9" stroke-width="0.5" stroke-linejoin="round"/>
<path d="M581.979 143.177L581.617 143.538" stroke="#1127E9" stroke-width="0.5" stroke-linejoin="round"/>
<path d="M588.451 136.704L589.536 135.619" stroke="#1127E9" stroke-width="0.5" stroke-linejoin="round"/>
<path d="M589.715 135.438L590.076 135.077" stroke="#1127E9" stroke-width="0.5" stroke-linejoin="round"/>
<path d="M590.258 134.896L590.619 134.535" stroke="#1127E9" stroke-width="0.5" stroke-linejoin="round"/>
<path d="M368.564 179.753L366.784 173.226L360.257 171.446L366.784 169.666L368.564 163.139L370.345 169.666L376.872 171.446L370.345 173.226L368.564 179.753Z" fill="#5F0E8E"/>
<path d="M365.654 168.539L364.27 167.155" stroke="#5F0E8E" stroke-width="0.5" stroke-linejoin="round"/>
<path d="M364.041 166.923L363.58 166.461" stroke="#5F0E8E" stroke-width="0.5" stroke-linejoin="round"/>
<path d="M363.35 166.231L362.888 165.77" stroke="#5F0E8E" stroke-width="0.5" stroke-linejoin="round"/>
<path d="M371.609 174.492L372.994 175.877" stroke="#5F0E8E" stroke-width="0.5" stroke-linejoin="round"/>
<path d="M373.223 176.107L373.684 176.569" stroke="#5F0E8E" stroke-width="0.5" stroke-linejoin="round"/>
<path d="M373.918 176.8L374.379 177.261" stroke="#5F0E8E" stroke-width="0.5" stroke-linejoin="round"/>
<path d="M365.516 174.492L364.131 175.877" stroke="#5F0E8E" stroke-width="0.5" stroke-linejoin="round"/>
<path d="M363.9 176.107L363.439 176.569" stroke="#5F0E8E" stroke-width="0.5" stroke-linejoin="round"/>
<path d="M363.209 176.8L362.747 177.261" stroke="#5F0E8E" stroke-width="0.5" stroke-linejoin="round"/>
<path d="M371.469 168.539L372.853 167.155" stroke="#5F0E8E" stroke-width="0.5" stroke-linejoin="round"/>
<path d="M373.086 166.923L373.547 166.461" stroke="#5F0E8E" stroke-width="0.5" stroke-linejoin="round"/>
<path d="M373.775 166.231L374.237 165.77" stroke="#5F0E8E" stroke-width="0.5" stroke-linejoin="round"/>
<path d="M386.904 72.4707L385.071 65.7499L378.351 63.9169L385.071 62.084L386.904 55.3632L388.737 62.084L395.458 63.9169L388.737 65.7499L386.904 72.4707Z" fill="#5F0E8E"/>
<path d="M383.91 60.9238L382.485 59.4982" stroke="#5F0E8E" stroke-width="0.5" stroke-linejoin="round"/>
<path d="M382.246 59.2598L381.771 58.7846" stroke="#5F0E8E" stroke-width="0.5" stroke-linejoin="round"/>
<path d="M381.533 58.5479L381.058 58.0726" stroke="#5F0E8E" stroke-width="0.5" stroke-linejoin="round"/>
<path d="M390.041 67.0537L391.467 68.4793" stroke="#5F0E8E" stroke-width="0.5" stroke-linejoin="round"/>
<path d="M391.701 68.7178L392.176 69.193" stroke="#5F0E8E" stroke-width="0.5" stroke-linejoin="round"/>
<path d="M392.418 69.4297L392.893 69.9049" stroke="#5F0E8E" stroke-width="0.5" stroke-linejoin="round"/>
<path d="M383.771 67.0518L382.346 68.4774" stroke="#5F0E8E" stroke-width="0.5" stroke-linejoin="round"/>
<path d="M382.107 68.7158L381.632 69.191" stroke="#5F0E8E" stroke-width="0.5" stroke-linejoin="round"/>
<path d="M381.396 69.4277L380.921 69.9029" stroke="#5F0E8E" stroke-width="0.5" stroke-linejoin="round"/>
<path d="M389.9 60.9229L391.326 59.4972" stroke="#5F0E8E" stroke-width="0.5" stroke-linejoin="round"/>
<path d="M391.564 59.2588L392.04 58.7836" stroke="#5F0E8E" stroke-width="0.5" stroke-linejoin="round"/>
<path d="M392.277 58.5459L392.753 58.0707" stroke="#5F0E8E" stroke-width="0.5" stroke-linejoin="round"/>
<path opacity="0.3" d="M666.203 -116.84L567.732 32.0637M567.732 32.0637L586.301 138.825L554.79 221.425M567.732 32.0637L371.352 168.044L387.429 63.6005L567.732 32.0637Z" stroke="#B83FC3" stroke-width="5"/>
<circle cx="457.246" cy="108.834" r="3.44165" transform="rotate(-180 457.246 108.834)" fill="#5F0E8E"/>
<circle cx="443.48" cy="53.7673" r="3.44165" transform="rotate(-180 443.48 53.7673)" fill="#5F0E8E"/>
<path d="M332.734 225.381C373.122 211.723 413.061 193.162 431.909 187.378C455.468 180.146 520.877 163.305 530.763 187.378C540.649 211.45 522.621 230.764 514.928 241.852C507.235 252.94 484.193 277.84 490.567 300.183C493.332 309.873 497.779 313.52 502.908 317.055C505.632 318.933 510.269 314.078 513.674 309.318C520.208 300.183 538.302 278.286 550.187 269.331C558.013 263.434 605.32 184.325 614.135 160.703C629.185 120.37 622.281 118.044 627.116 97.3909C635.13 63.1637 669.588 14.7955 688.019 -9.9509L737.988 -80.5627M338.819 86.3686C350.198 73.8346 352.383 72.1298 363.153 63.6453C376.616 53.0397 426.793 28.7536 446.827 22.3265C460.308 18.0016 498.093 7.75084 517.192 -21.4006C523.802 -31.4888 552.634 -74.33 568.447 -97.1483L623.748 -180.678" stroke="#23024D"/>
<path d="M339.333 85.7928C330.199 95.6024 311.262 116.335 308.586 120.789C305.24 126.357 299.824 140.196 297.753 145.923C296.096 150.504 292.283 190.464 290.584 209.871L318.144 256.798C321.278 257.647 328.277 257.816 331.208 251.708C341.666 229.913 325.632 213.105 321.012 197.622C322.977 194.493 327.13 186.836 328.022 181.236C328.914 175.637 330.518 165.011 331.208 160.397L352.715 132.559" stroke="#23024D"/>
<path d="M298.812 224.6C298.285 230.283 297.231 242.582 297.231 246.314C297.231 250.978 301.659 286.686 290.272 297.623C283.391 304.233 275.617 301.859 271.927 300.84C270.715 288.777 268.385 261.658 268.764 249.692C269.239 234.733 268.764 196.934 268.764 191.144C268.764 185.353 275.09 160.905 281.732 151.415C288.374 141.925 303.24 130.666 303.24 130.666" stroke="#23024D"/>
<path d="M268.902 235.936C261.731 247.745 239.248 270.114 228.693 276.145C219.423 281.443 198.537 282.309 198.537 272.647C198.537 262.985 218.444 251.552 230.967 236.898C234.336 232.955 254.025 208.844 268.902 190.702" stroke="#23024D"/>
<path d="M216.948 279.513C216.894 280.367 221.077 281.273 224.061 281.273C239.752 281.273 254.617 262.173 268.682 252.623M305.092 234.428L297.553 237.946" stroke="#23024D"/>
<path d="M605.842 69.6846C605.842 69.6846 586.608 48.5548 558.409 35.3286C530.211 22.1024 508.043 17.9087 508.043 17.9087" stroke="#23024D"/>
<path d="M494.307 149.075C507.38 141.362 528.223 121.945 507.009 105.987C485.796 90.0278 450.536 93.1664 435.557 96.7305" stroke="#23024D"/>
<path d="M345.811 161.732L328.552 177.84" stroke="#23024D"/>
<path d="M350.924 139.957C351.342 138.225 352.334 134.112 352.961 131.514C353.744 128.267 356.409 124.37 355.625 120.311M346.848 155.22C346.065 155.869 344.968 157.818 346.848 160.416C348.729 163.013 350.349 165.07 350.924 165.774M384.93 187.044C382.579 186.557 375.997 183.472 373.02 180.712C370.042 177.951 365.497 172.918 362.05 172.106" stroke="#23024D"/>
<path d="M374.576 181.291C374.576 181.291 358.717 189.543 350.587 194.809C342.456 200.074 326.704 210.806 326.704 210.806" stroke="#23024D"/>
<path d="M181.359 844.626L185.284 859.016L199.674 862.941L185.284 866.865L181.359 881.255L177.435 866.865L163.045 862.941L177.435 859.016L181.359 844.626Z" fill="#5F0E8E"/>
<path d="M187.77 869.351L190.822 872.403" stroke="#5F0E8E" stroke-width="0.5" stroke-linejoin="round"/>
<path d="M191.33 872.911L192.348 873.929" stroke="#5F0E8E" stroke-width="0.5" stroke-linejoin="round"/>
<path d="M192.855 874.438L193.873 875.455" stroke="#5F0E8E" stroke-width="0.5" stroke-linejoin="round"/>
<path d="M174.643 856.225L171.59 853.172" stroke="#5F0E8E" stroke-width="0.5" stroke-linejoin="round"/>
<path d="M171.082 852.664L170.065 851.647" stroke="#5F0E8E" stroke-width="0.5" stroke-linejoin="round"/>
<path d="M169.557 851.138L168.539 850.12" stroke="#5F0E8E" stroke-width="0.5" stroke-linejoin="round"/>
<path d="M188.074 856.227L191.127 853.174" stroke="#5F0E8E" stroke-width="0.5" stroke-linejoin="round"/>
<path d="M191.637 852.665L192.654 851.648" stroke="#5F0E8E" stroke-width="0.5" stroke-linejoin="round"/>
<path d="M193.162 851.139L194.18 850.121" stroke="#5F0E8E" stroke-width="0.5" stroke-linejoin="round"/>
<path d="M174.951 869.351L171.899 872.403" stroke="#5F0E8E" stroke-width="0.5" stroke-linejoin="round"/>
<path d="M171.387 872.913L170.369 873.931" stroke="#5F0E8E" stroke-width="0.5" stroke-linejoin="round"/>
<path d="M169.861 874.438L168.844 875.456" stroke="#5F0E8E" stroke-width="0.5" stroke-linejoin="round"/>
<path d="M194.314 665.857L196.142 672.56L202.845 674.387L196.142 676.215L194.314 682.918L192.487 676.215L185.784 674.387L192.487 672.56L194.314 665.857Z" fill="#5F0E8E"/>
<path d="M197.297 677.376L198.719 678.798" stroke="#5F0E8E" stroke-width="0.5" stroke-linejoin="round"/>
<path d="M198.959 679.031L199.433 679.505" stroke="#5F0E8E" stroke-width="0.5" stroke-linejoin="round"/>
<path d="M199.67 679.742L200.144 680.216" stroke="#5F0E8E" stroke-width="0.5" stroke-linejoin="round"/>
<path d="M191.189 671.259L189.768 669.837" stroke="#5F0E8E" stroke-width="0.5" stroke-linejoin="round"/>
<path d="M189.531 669.601L189.057 669.127" stroke="#5F0E8E" stroke-width="0.5" stroke-linejoin="round"/>
<path d="M188.818 668.89L188.344 668.416" stroke="#5F0E8E" stroke-width="0.5" stroke-linejoin="round"/>
<path d="M197.441 671.26L198.863 669.838" stroke="#5F0E8E" stroke-width="0.5" stroke-linejoin="round"/>
<path d="M199.1 669.602L199.574 669.128" stroke="#5F0E8E" stroke-width="0.5" stroke-linejoin="round"/>
<path d="M199.814 668.89L200.288 668.416" stroke="#5F0E8E" stroke-width="0.5" stroke-linejoin="round"/>
<path d="M191.33 677.372L189.908 678.794" stroke="#5F0E8E" stroke-width="0.5" stroke-linejoin="round"/>
<path d="M189.674 679.03L189.2 679.504" stroke="#5F0E8E" stroke-width="0.5" stroke-linejoin="round"/>
<path d="M188.961 679.742L188.487 680.216" stroke="#5F0E8E" stroke-width="0.5" stroke-linejoin="round"/>
<path d="M163.35 749.311L164.744 754.425L169.859 755.82L164.744 757.214L163.35 762.329L161.955 757.214L156.841 755.82L161.955 754.425L163.35 749.311Z" fill="#5F0E8E"/>
<path d="M165.631 758.099L166.716 759.183" stroke="#5F0E8E" stroke-width="0.5" stroke-linejoin="round"/>
<path d="M166.895 759.363L167.256 759.725" stroke="#5F0E8E" stroke-width="0.5" stroke-linejoin="round"/>
<path d="M167.439 759.905L167.801 760.267" stroke="#5F0E8E" stroke-width="0.5" stroke-linejoin="round"/>
<path d="M160.965 753.433L159.88 752.348" stroke="#5F0E8E" stroke-width="0.5" stroke-linejoin="round"/>
<path d="M159.701 752.167L159.34 751.805" stroke="#5F0E8E" stroke-width="0.5" stroke-linejoin="round"/>
<path d="M159.158 751.624L158.797 751.262" stroke="#5F0E8E" stroke-width="0.5" stroke-linejoin="round"/>
<path d="M165.734 753.434L166.819 752.349" stroke="#5F0E8E" stroke-width="0.5" stroke-linejoin="round"/>
<path d="M167 752.168L167.362 751.806" stroke="#5F0E8E" stroke-width="0.5" stroke-linejoin="round"/>
<path d="M167.541 751.625L167.903 751.263" stroke="#5F0E8E" stroke-width="0.5" stroke-linejoin="round"/>
<path d="M161.07 758.099L159.985 759.183" stroke="#5F0E8E" stroke-width="0.5" stroke-linejoin="round"/>
<path d="M159.805 759.364L159.443 759.726" stroke="#5F0E8E" stroke-width="0.5" stroke-linejoin="round"/>
<path d="M159.262 759.906L158.9 760.268" stroke="#5F0E8E" stroke-width="0.5" stroke-linejoin="round"/>
<path d="M380.959 715.05L382.739 721.577L389.266 723.357L382.739 725.137L380.959 731.664L379.179 725.137L372.652 723.357L379.179 721.577L380.959 715.05Z" fill="#5F0E8E"/>
<path d="M383.869 726.264L385.254 727.648" stroke="#5F0E8E" stroke-width="0.5" stroke-linejoin="round"/>
<path d="M385.482 727.879L385.944 728.34" stroke="#5F0E8E" stroke-width="0.5" stroke-linejoin="round"/>
<path d="M386.174 728.571L386.635 729.033" stroke="#5F0E8E" stroke-width="0.5" stroke-linejoin="round"/>
<path d="M377.916 720.311L376.531 718.926" stroke="#5F0E8E" stroke-width="0.5" stroke-linejoin="round"/>
<path d="M376.301 718.695L375.839 718.234" stroke="#5F0E8E" stroke-width="0.5" stroke-linejoin="round"/>
<path d="M375.605 718.004L375.144 717.542" stroke="#5F0E8E" stroke-width="0.5" stroke-linejoin="round"/>
<path d="M384.008 720.311L385.392 718.926" stroke="#5F0E8E" stroke-width="0.5" stroke-linejoin="round"/>
<path d="M385.623 718.695L386.085 718.234" stroke="#5F0E8E" stroke-width="0.5" stroke-linejoin="round"/>
<path d="M386.316 718.003L386.778 717.541" stroke="#5F0E8E" stroke-width="0.5" stroke-linejoin="round"/>
<path d="M378.053 726.264L376.668 727.648" stroke="#5F0E8E" stroke-width="0.5" stroke-linejoin="round"/>
<path d="M376.436 727.88L375.974 728.341" stroke="#5F0E8E" stroke-width="0.5" stroke-linejoin="round"/>
<path d="M375.746 728.571L375.285 729.033" stroke="#5F0E8E" stroke-width="0.5" stroke-linejoin="round"/>
<path d="M362.615 822.332L364.448 829.053L371.169 830.886L364.448 832.719L362.615 839.44L360.782 832.719L354.061 830.886L360.782 829.053L362.615 822.332Z" fill="#5F0E8E"/>
<path d="M365.609 833.879L367.035 835.305" stroke="#5F0E8E" stroke-width="0.5" stroke-linejoin="round"/>
<path d="M367.271 835.543L367.747 836.018" stroke="#5F0E8E" stroke-width="0.5" stroke-linejoin="round"/>
<path d="M367.984 836.255L368.46 836.73" stroke="#5F0E8E" stroke-width="0.5" stroke-linejoin="round"/>
<path d="M359.479 827.749L358.053 826.323" stroke="#5F0E8E" stroke-width="0.5" stroke-linejoin="round"/>
<path d="M357.818 826.085L357.343 825.61" stroke="#5F0E8E" stroke-width="0.5" stroke-linejoin="round"/>
<path d="M357.104 825.373L356.628 824.898" stroke="#5F0E8E" stroke-width="0.5" stroke-linejoin="round"/>
<path d="M365.752 827.75L367.178 826.324" stroke="#5F0E8E" stroke-width="0.5" stroke-linejoin="round"/>
<path d="M367.416 826.086L367.891 825.611" stroke="#5F0E8E" stroke-width="0.5" stroke-linejoin="round"/>
<path d="M368.127 825.373L368.602 824.898" stroke="#5F0E8E" stroke-width="0.5" stroke-linejoin="round"/>
<path d="M359.623 833.879L358.197 835.305" stroke="#5F0E8E" stroke-width="0.5" stroke-linejoin="round"/>
<path d="M357.957 835.543L357.482 836.018" stroke="#5F0E8E" stroke-width="0.5" stroke-linejoin="round"/>
<path d="M357.246 836.256L356.771 836.731" stroke="#5F0E8E" stroke-width="0.5" stroke-linejoin="round"/>
<path opacity="0.3" d="M83.3164 1011.64L181.788 862.739M181.788 862.739L163.219 755.978L194.73 673.378M181.788 862.739L378.167 726.759L362.09 831.202L181.788 862.739Z" stroke="#B83FC3" stroke-width="5"/>
<circle cx="292.278" cy="785.968" r="3.44165" fill="#5F0E8E"/>
<circle cx="306.041" cy="841.034" r="3.44165" fill="#5F0E8E"/>
<path d="M416.791 669.411C376.403 683.069 336.464 701.63 317.616 707.414C294.057 714.645 228.649 731.487 218.762 707.414C208.876 683.342 226.904 664.028 234.597 652.94C242.29 641.852 265.332 616.952 258.958 594.609C256.194 584.919 251.746 581.272 246.617 577.737C243.893 575.859 239.256 580.714 235.851 585.474C229.317 594.609 211.223 616.506 199.338 625.461C191.512 631.358 144.205 710.467 135.391 734.089C120.34 774.422 127.244 776.748 122.409 797.401C114.395 831.628 79.9376 879.996 61.5067 904.743L11.5371 975.355M410.706 808.423C399.327 820.957 397.142 822.662 386.372 831.147C372.909 841.752 322.732 866.038 302.698 872.465C289.217 876.79 251.432 887.041 232.333 916.192C225.723 926.281 196.891 969.122 181.078 991.94L125.777 1075.47" stroke="#23024D"/>
<path d="M410.193 808.998C419.326 799.189 438.263 778.456 440.94 774.002C444.285 768.434 449.702 754.595 451.773 748.868C453.429 744.287 457.242 704.327 458.942 684.92L431.381 637.993C428.248 637.145 421.249 636.975 418.317 643.083C407.859 664.878 423.893 681.686 428.513 697.169C426.548 700.298 422.396 707.955 421.504 713.555C420.612 719.154 419.008 729.78 418.317 734.394L396.811 762.232" stroke="#23024D"/>
<path d="M450.711 670.192C451.238 664.509 452.293 652.21 452.293 648.478C452.293 643.814 447.865 608.106 459.251 597.169C466.133 590.559 473.906 592.933 477.596 593.952C478.809 606.015 481.139 633.133 480.759 645.1C480.285 660.059 480.759 697.858 480.759 703.648C480.759 709.439 474.433 733.887 467.791 743.377C461.149 752.867 446.283 764.126 446.283 764.126" stroke="#23024D"/>
<path d="M480.623 658.855C487.794 647.046 510.277 624.678 520.832 618.647C530.103 613.349 550.989 612.483 550.989 622.145C550.989 631.807 531.081 643.24 518.558 657.894C515.189 661.837 495.5 685.947 480.623 704.09" stroke="#23024D"/>
<path d="M532.577 615.279C532.631 614.425 528.449 613.519 525.464 613.519C509.773 613.519 494.909 632.619 480.844 642.169M444.434 660.364L451.973 656.846" stroke="#23024D"/>
<path d="M143.684 825.106C143.684 825.106 162.917 846.236 191.116 859.462C219.315 872.689 241.482 876.882 241.482 876.882" stroke="#23024D"/>
<path d="M255.22 745.717C242.147 753.43 221.304 772.847 242.518 788.805C263.731 804.764 298.991 801.626 313.97 798.061" stroke="#23024D"/>
<path d="M403.715 733.06L420.973 716.952" stroke="#23024D"/>
<path d="M398.6 754.835C398.182 756.567 397.189 760.68 396.563 763.278C395.779 766.525 393.115 770.422 393.898 774.481M402.675 739.572C403.459 738.923 404.555 736.974 402.675 734.376C400.794 731.779 399.175 729.722 398.6 729.018M364.594 707.748C366.944 708.235 373.526 711.32 376.504 714.08C379.481 716.841 384.026 721.874 387.474 722.686" stroke="#23024D"/>
<path d="M374.951 713.501C374.951 713.501 390.81 705.249 398.94 699.983C407.071 694.718 422.823 683.986 422.823 683.986" stroke="#23024D"/>
<path d="M467.564 512.076L473.785 515.668" stroke="#23024D"/>
<path d="M478.971 518.661L495.042 527.94" stroke="#23024D"/>
<path d="M500.744 531.231L516.815 540.51" stroke="#23024D"/>
<path d="M288.395 311.439L291.986 317.66" stroke="#23024D"/>
<path d="M294.977 322.846L304.255 338.917" stroke="#23024D"/>
<path d="M307.551 344.619L316.829 360.69" stroke="#23024D"/>
<path d="M264.742 425.873L260.116 424.634" stroke="#23024D"/>
<path d="M256.07 423.549L243.928 420.295" stroke="#23024D"/>
<path d="M239.879 419.211L227.736 415.957" stroke="#23024D"/>
<path d="M444.729 582.582L442.334 578.435" stroke="#23024D"/>
<path d="M440.238 574.807L433.953 563.92" stroke="#23024D"/>
<path d="M431.857 560.291L425.572 549.404" stroke="#23024D"/>
<path d="M235.203 377.696L251.274 386.975" stroke="#23024D"/>
<path d="M256.975 390.268L273.045 399.546" stroke="#23024D"/>
<path d="M449.836 533.539L462.958 546.661" stroke="#23024D"/>
<path d="M467.615 551.317L480.737 564.439" stroke="#23024D"/>
<path d="M290.229 373.932L283.456 367.159" stroke="#23024D"/>
<path d="M277.527 361.233L259.326 343.032" stroke="#23024D"/>
<path d="M252.98 336.684L235.203 318.906" stroke="#23024D"/>
<path d="M418.65 633.903L416.171 624.652" stroke="#23024D"/>
<path d="M414.004 616.557L407.342 591.693" stroke="#23024D"/>
<path d="M405.02 583.021L398.512 558.735" stroke="#23024D"/>
<path d="M476.898 483.146L516.795 493.837" stroke="#23024D"/>
<path d="M331.318 307.707L342.009 347.604" stroke="#23024D"/>
<path d="M275.115 512.078L268.894 515.67" stroke="#23024D"/>
<path d="M263.707 518.66L247.636 527.939" stroke="#23024D"/>
<path d="M241.936 531.231L225.865 540.51" stroke="#23024D"/>
<path d="M454.285 311.44L450.693 317.661" stroke="#23024D"/>
<path d="M447.697 322.845L438.419 338.916" stroke="#23024D"/>
<path d="M435.129 344.619L425.85 360.69" stroke="#23024D"/>
<path d="M477.938 425.873L482.563 424.634" stroke="#23024D"/>
<path d="M486.609 423.549L498.752 420.295" stroke="#23024D"/>
<path d="M502.801 419.211L514.943 415.957" stroke="#23024D"/>
<path d="M297.951 582.582L300.346 578.435" stroke="#23024D"/>
<path d="M302.441 574.807L308.727 563.92" stroke="#23024D"/>
<path d="M310.822 560.291L317.108 549.404" stroke="#23024D"/>
<path d="M507.475 377.697L491.404 386.976" stroke="#23024D"/>
<path d="M485.703 390.268L469.632 399.546" stroke="#23024D"/>
<path d="M292.842 533.54L279.72 546.662" stroke="#23024D"/>
<path d="M275.062 551.317L261.941 564.439" stroke="#23024D"/>
<path d="M452.447 373.932L459.22 367.159" stroke="#23024D"/>
<path d="M465.148 361.233L483.35 343.032" stroke="#23024D"/>
<path d="M489.695 336.684L507.473 318.906" stroke="#23024D"/>
<path d="M324.029 633.903L326.508 624.652" stroke="#23024D"/>
<path d="M328.676 616.557L335.338 591.693" stroke="#23024D"/>
<path d="M337.66 583.021L344.167 558.735" stroke="#23024D"/>
<path d="M265.781 483.146L225.884 493.837" stroke="#23024D"/>
<path d="M411.359 307.707L400.669 347.604" stroke="#23024D"/>
<path d="M171.111 450.962H558.629" stroke="#000636"/>
<path d="M579.699 450.962H612.679" stroke="#000636"/>
<path d="M160.117 450.962H127.137" stroke="#000636"/>
<path d="M621.84 450.962H631.001" stroke="#000636"/>
<path d="M117.977 450.962H108.815" stroke="#000636"/>
<path d="M366.439 720.405L366.439 197.428" stroke="#000636"/>
<path d="M366.439 168.992L366.439 124.483" stroke="#000636"/>
<path d="M366.439 735.242L366.439 779.751" stroke="#000636"/>
<path d="M366.439 112.12L366.439 99.7566" stroke="#000636"/>
<path d="M366.439 792.114L366.439 804.478" stroke="#000636"/>
<ellipse cx="366.439" cy="452.695" rx="84.3355" ry="83.7578" fill="#8620B9"/>
<path d="M366.442 595.372C406.001 595.372 438.069 563.562 438.069 524.322C438.069 485.083 406.001 453.272 366.442 453.272C326.883 453.272 294.814 485.083 294.814 524.322" stroke="#23024D"/>
<path d="M366.441 308.862C326.882 308.862 294.814 340.672 294.814 379.912C294.814 419.152 326.882 450.962 366.441 450.962C406 450.962 438.068 419.152 438.068 379.912" stroke="#23024D"/>
<path d="M366.442 595.372C326.883 595.372 294.814 563.562 294.814 524.322" stroke="#23024D" stroke-dasharray="4 3"/>
<path d="M366.441 308.862C406 308.862 438.068 340.672 438.068 379.912" stroke="#23024D" stroke-dasharray="4 3"/>
<path fill-rule="evenodd" clip-rule="evenodd" d="M377.553 445.595L392.955 460.913L408.249 445.694L414.962 452.332L392.957 474.229L377.553 458.91L353.264 483.066L340.231 470.104L324.629 485.621L317.918 478.98L340.231 456.79L353.264 469.751L377.553 445.595Z" stroke="white"/>
<path fill-rule="evenodd" clip-rule="evenodd" d="M377.553 419.77L392.955 435.087L408.249 419.868L414.962 426.507L392.957 448.403L377.553 433.084L353.264 457.24L340.231 444.278L324.629 459.795L317.918 453.154L340.231 430.964L353.264 443.925L377.553 419.77Z" stroke="white"/>
</svg>
