<svg width="132" height="35" viewBox="0 0 132 35" fill="none" xmlns="http://www.w3.org/2000/svg">
    <g clip-path="url(#clip0_2611_38649)">
        <path d="M19.1286 10.1613L16.2611 8.50161C15.9928 8.3676 15.6966 8.29779 15.3962 8.29779C15.0959 8.29779 14.7997 8.3676 14.5314 8.50161L11.6638 10.1613C11.0493 10.5226 11.0379 11.1097 11.6638 11.4597L14.5314 13.1419C14.798 13.2814 15.0948 13.3542 15.3962 13.3542C15.6976 13.3542 15.9944 13.2814 16.2611 13.1419L19.1286 11.4597C19.2639 11.4122 19.381 11.3242 19.4638 11.208C19.5466 11.0917 19.591 10.9528 19.591 10.8105C19.591 10.6681 19.5466 10.5293 19.4638 10.413C19.381 10.2968 19.2639 10.2088 19.1286 10.1613V10.1613Z" fill="#3D3AC0"/>
        <path d="M30.3145 8.1065L16.4545 0.203275C16.1862 0.0692566 15.89 -0.000549316 15.5897 -0.000549316C15.2893 -0.000549316 14.9931 0.0692566 14.7248 0.203275L0.864828 8.1065C0.614407 8.27171 0.40599 8.49227 0.255937 8.75085C0.105883 9.00943 0.0182789 9.299 0 9.59682L0 25.4033C0.0182789 25.7011 0.105883 25.9907 0.255937 26.2493C0.40599 26.5078 0.614407 26.7284 0.864828 26.8936L14.7248 34.7968C14.9931 34.9308 15.2893 35.0006 15.5897 35.0006C15.89 35.0006 16.1862 34.9308 16.4545 34.7968L30.3145 26.8936C30.5649 26.7284 30.7733 26.5078 30.9234 26.2493C31.0734 25.9907 31.161 25.7011 31.1793 25.4033V9.59682C31.161 9.299 31.0734 9.00943 30.9234 8.75085C30.7733 8.49227 30.5649 8.27171 30.3145 8.1065V8.1065ZM24.1469 11.7759L16.261 16.3823C15.9944 16.5217 15.6976 16.5946 15.3962 16.5946C15.0948 16.5946 14.798 16.5217 14.5314 16.3823L9.52448 13.4694C8.91 13.0968 8.38655 13.3904 8.38655 14.1017V22.9194C8.40812 23.059 8.38732 23.2018 8.32681 23.3296C8.2663 23.4574 8.16881 23.5645 8.04677 23.6371C7.92473 23.7098 7.78365 23.7447 7.64151 23.7375C7.49937 23.7304 7.3626 23.6814 7.24862 23.5968L6.39517 23.1565C6.1378 23.0022 5.92236 22.7878 5.76765 22.532C5.61295 22.2762 5.52366 21.9867 5.50759 21.6888V12.1146C5.52587 11.8167 5.61347 11.5272 5.76352 11.2686C5.91358 11.01 6.12199 10.7895 6.37241 10.6242L14.52 5.92747C14.7883 5.79345 15.0845 5.72364 15.3848 5.72364C15.6852 5.72364 15.9814 5.79345 16.2497 5.92747L24.1355 10.4436C24.2842 10.481 24.4163 10.5662 24.511 10.6859C24.6057 10.8057 24.6578 10.9532 24.6591 11.1054C24.6604 11.2576 24.6109 11.4059 24.5182 11.5272C24.4255 11.6485 24.295 11.736 24.1469 11.7759V11.7759Z" fill="#3D3AC0"/>
        <path d="M47.5428 28.6774C47.5388 28.6443 47.5426 28.6108 47.554 28.5794C47.5653 28.5481 47.5839 28.5197 47.6082 28.4967C47.6325 28.4737 47.6618 28.4567 47.6939 28.4469C47.726 28.4371 47.76 28.4348 47.7931 28.4403H48.2597C48.292 28.4388 48.3243 28.4438 48.3546 28.455C48.3849 28.4663 48.4126 28.4835 48.4361 28.5057C48.4595 28.5278 48.4781 28.5545 48.4908 28.584C48.5035 28.6135 48.5101 28.6453 48.51 28.6774V31.1387C48.5063 31.1856 48.4908 31.2308 48.465 31.2703C48.4391 31.3097 48.4038 31.3421 48.3621 31.3645V31.3645C47.7668 31.8034 47.0664 32.0807 46.3302 32.1692C45.5939 32.2577 44.8471 32.1542 44.1634 31.8691C43.4797 31.5839 42.8827 31.1268 42.4313 30.543C41.9799 29.9591 41.6897 29.2686 41.5892 28.5395C41.4887 27.8105 41.5815 27.068 41.8584 26.3854C42.1353 25.7027 42.5868 25.1034 43.1682 24.6467C43.7497 24.1899 44.4411 23.8913 45.1743 23.7805C45.9075 23.6696 46.6571 23.7503 47.3493 24.0145C47.7362 24.1613 48.4873 24.5 48.4873 24.7823C48.4987 24.8191 48.4987 24.8584 48.4873 24.8952L48.2483 25.3016C48.2301 25.3375 48.2026 25.368 48.1686 25.3898C48.1346 25.4116 48.0953 25.4241 48.0549 25.4258C47.9795 25.4235 47.9072 25.3956 47.85 25.3468C47.2737 24.9328 46.5815 24.7078 45.87 24.7032C45.4242 24.6771 44.9776 24.7417 44.5579 24.8931C44.1381 25.0444 43.7539 25.2792 43.4289 25.5832C43.1039 25.8872 42.845 26.2539 42.668 26.6607C42.491 27.0676 42.3998 27.5061 42.3998 27.9492C42.3998 28.3923 42.491 28.8308 42.668 29.2377C42.845 29.6445 43.1039 30.0112 43.4289 30.3152C43.7539 30.6192 44.1381 30.854 44.5579 31.0054C44.9776 31.1567 45.4242 31.2213 45.87 31.1952C46.4875 31.207 47.0942 31.0338 47.6111 30.6984L47.5428 28.6774Z" fill="#25044F"/>
        <path d="M56.1455 31.1274C56.1784 31.1256 56.2112 31.1309 56.2418 31.1429C56.2724 31.1549 56.3 31.1734 56.3227 31.197C56.3454 31.2206 56.3627 31.2488 56.3734 31.2797C56.384 31.3105 56.3878 31.3433 56.3845 31.3758V31.8161C56.386 31.8482 56.381 31.8803 56.3697 31.9103C56.3584 31.9404 56.341 31.9679 56.3187 31.9911C56.2963 32.0144 56.2694 32.0328 56.2397 32.0455C56.2099 32.0581 56.1779 32.0646 56.1455 32.0645H51.4117C51.3775 32.0705 51.3424 32.0682 51.3093 32.0578C51.2761 32.0474 51.246 32.0293 51.2215 32.0049C51.1969 31.9806 51.1786 31.9507 51.1682 31.9178C51.1577 31.8849 51.1554 31.8501 51.1614 31.8161V24.1048C51.1596 24.0708 51.1652 24.0367 51.1779 24.005C51.1906 23.9733 51.21 23.9447 51.2349 23.9211C51.2597 23.8975 51.2894 23.8795 51.3219 23.8684C51.3544 23.8572 51.3889 23.8532 51.4231 23.8565H51.8783C51.9111 23.8547 51.944 23.8599 51.9746 23.8719C52.0052 23.884 52.0328 23.9024 52.0555 23.926C52.0782 23.9496 52.0955 23.9778 52.1061 24.0087C52.1168 24.0396 52.1206 24.0724 52.1173 24.1048V31.1274H56.1455Z" fill="#25044F"/>
        <path d="M66.2845 27.9887C66.2732 28.8214 66.0141 29.6321 65.5397 30.3191C65.0653 31.006 64.3968 31.5384 63.6182 31.8494C62.8396 32.1603 61.9858 32.2359 61.164 32.0667C60.3422 31.8974 59.5892 31.4909 58.9997 30.8982C58.4102 30.3054 58.0105 29.553 57.8508 28.7355C57.6912 27.918 57.7787 27.0719 58.1024 26.3036C58.4262 25.5353 58.9716 24.8791 59.6702 24.4176C60.3688 23.956 61.1893 23.7097 62.0286 23.7097C62.5928 23.7081 63.1515 23.8181 63.6723 24.0333C64.1931 24.2485 64.6654 24.5645 65.0617 24.963C65.458 25.3614 65.7702 25.8341 65.9801 26.3537C66.1901 26.8732 66.2935 27.429 66.2845 27.9887V27.9887ZM62.0286 31.229C62.6795 31.2313 63.3165 31.0418 63.8588 30.6846C64.4011 30.3275 64.8243 29.8186 65.075 29.2226C65.3257 28.6266 65.3924 27.9702 65.2668 27.3365C65.1412 26.7028 64.8289 26.1204 64.3694 25.6629C63.91 25.2055 63.324 24.8936 62.6858 24.7668C62.0475 24.6399 61.3857 24.7039 60.7841 24.9505C60.1826 25.1972 59.6683 25.6154 59.3064 26.1522C58.9445 26.689 58.7514 27.3203 58.7514 27.9661C58.7499 28.3941 58.8335 28.8181 58.9976 29.2139C59.1616 29.6097 59.4028 29.9695 59.7072 30.2727C60.0117 30.5758 60.3735 30.8163 60.7718 30.9804C61.1702 31.1445 61.5973 31.229 62.0286 31.229V31.229Z" fill="#25044F"/>
        <path d="M73.8289 27.6726C74.2734 27.9323 74.6208 28.3284 74.8186 28.8012C75.0163 29.2739 75.0538 29.7976 74.9254 30.2933C74.797 30.7891 74.5096 31.2299 74.1065 31.5494C73.7035 31.8689 73.2067 32.0497 72.691 32.0645H69.061C69.0268 32.0678 68.9922 32.0637 68.9598 32.0526C68.9273 32.0414 68.8976 32.0235 68.8727 31.9999C68.8479 31.9763 68.8285 31.9477 68.8158 31.916C68.8031 31.8843 68.7975 31.8502 68.7993 31.8161V24.1274C68.7939 24.0916 68.7968 24.055 68.8078 24.0204C68.8189 23.9859 68.8378 23.9543 68.8631 23.9282C68.8883 23.902 68.9193 23.8819 68.9536 23.8695C68.988 23.8571 69.0247 23.8526 69.061 23.8565H72.3496C72.6434 23.8395 72.9375 23.8825 73.2138 23.9828C73.4902 24.0831 73.7428 24.2386 73.9561 24.4397C74.1695 24.6407 74.3389 24.8831 74.4541 25.1518C74.5692 25.4204 74.6276 25.7097 74.6255 26.0016C74.619 26.3201 74.5447 26.6337 74.4074 26.9217C74.2702 27.2097 74.073 27.4656 73.8289 27.6726ZM72.3382 24.8387H69.7551V27.379H72.3382C72.5168 27.3752 72.6926 27.3349 72.8547 27.2605C73.0168 27.1861 73.1616 27.0794 73.2802 26.9469C73.3988 26.8144 73.4885 26.659 73.5438 26.4906C73.599 26.3221 73.6186 26.1441 73.6014 25.9678C73.6023 25.8084 73.5693 25.6507 73.5045 25.505C73.4396 25.3592 73.3444 25.2287 73.2251 25.1221C73.1058 25.0154 72.9651 24.9351 72.8122 24.8862C72.6594 24.8374 72.4979 24.8212 72.3382 24.8387ZM69.7551 28.2823V31.1274H72.7138C73.094 31.1274 73.4587 30.9776 73.7276 30.7108C73.9965 30.444 74.1476 30.0821 74.1476 29.7048C74.1476 29.3276 73.9965 28.9657 73.7276 28.6989C73.4587 28.4321 73.094 28.2823 72.7138 28.2823H69.7551Z" fill="#25044F"/>
        <path d="M77.8573 31.8387C77.8393 31.9053 77.7992 31.9638 77.7434 32.0048C77.6876 32.0458 77.6194 32.0669 77.55 32.0645H77.0607C76.9128 32.0645 76.8331 32.0645 76.8331 31.8839C76.8261 31.8352 76.8261 31.7858 76.8331 31.7371C80.0535 24.071 80.0649 24.071 80.0649 24.0597C80.0803 24.0001 80.1158 23.9475 80.1655 23.9105C80.2151 23.8736 80.2759 23.8545 80.338 23.8565H80.668C80.73 23.8545 80.7908 23.8736 80.8405 23.9105C80.8901 23.9475 80.9256 24.0001 80.9411 24.0597L84.2069 31.7484C84.2124 31.7934 84.2124 31.8389 84.2069 31.8839C84.2069 32.0081 84.1045 32.0645 83.9566 32.0645H83.4787C83.4131 32.0633 83.3495 32.0421 83.2965 32.0037C83.2436 31.9653 83.2039 31.9116 83.1828 31.85L82.5342 30.2694H78.5173L77.8573 31.8387ZM78.8814 29.3323H82.1473L80.52 25.2903L78.8814 29.3323Z" fill="#25044F"/>
        <path d="M91.5352 31.1274C91.568 31.1256 91.6009 31.1309 91.6315 31.1429C91.6621 31.1549 91.6897 31.1734 91.7124 31.197C91.7351 31.2206 91.7524 31.2488 91.763 31.2797C91.7737 31.3105 91.7775 31.3433 91.7742 31.3758V31.8161C91.7757 31.8482 91.7707 31.8803 91.7593 31.9103C91.748 31.9404 91.7307 31.9679 91.7083 31.9911C91.686 32.0144 91.6591 32.0328 91.6293 32.0455C91.5996 32.0581 91.5676 32.0646 91.5352 32.0645H86.8014C86.7672 32.0705 86.732 32.0682 86.6989 32.0578C86.6658 32.0474 86.6357 32.0293 86.6111 32.0049C86.5866 31.9806 86.5683 31.9507 86.5578 31.9178C86.5474 31.8849 86.545 31.8501 86.551 31.8161V24.1048C86.5493 24.0708 86.5549 24.0367 86.5676 24.005C86.5802 23.9733 86.5997 23.9447 86.6245 23.9211C86.6494 23.8975 86.679 23.8795 86.7115 23.8684C86.744 23.8572 86.7786 23.8532 86.8128 23.8565H87.268C87.3008 23.8547 87.3336 23.8599 87.3642 23.8719C87.3948 23.884 87.4224 23.9024 87.4451 23.926C87.4678 23.9496 87.4851 23.9778 87.4958 24.0087C87.5065 24.0396 87.5103 24.0724 87.5069 24.1048V31.1274H91.5352Z" fill="#25044F"/>
        <path d="M41.3752 3.48871C41.3684 3.42971 41.3748 3.36996 41.3938 3.31366C41.4128 3.25736 41.444 3.20587 41.4852 3.16282C41.5264 3.11978 41.5767 3.08621 41.6324 3.06449C41.6881 3.04277 41.7479 3.03342 41.8076 3.0371H48.4076C49.6995 3.07842 50.9229 3.6229 51.8132 4.55266C52.7034 5.48242 53.1888 6.72264 53.1641 8.00484C53.1948 9.27074 52.7186 10.4971 51.8399 11.4155C50.9612 12.3338 49.7516 12.8694 48.4759 12.9048H45.3238V17.7484C45.3238 18.0532 45.1645 18.2 44.8459 18.2H41.8076C41.5004 18.2 41.3752 18.0532 41.3752 17.7484V3.48871ZM45.3238 6.26613V9.65322H47.5997C47.8178 9.65052 48.0332 9.60401 48.2327 9.5165C48.4323 9.42899 48.6119 9.30228 48.7608 9.14403C48.9096 8.98578 49.0247 8.79926 49.0989 8.59571C49.1731 8.39216 49.2051 8.1758 49.1928 7.95968C49.2082 7.52319 49.0497 7.09825 48.7514 6.777C48.4532 6.45575 48.0394 6.26408 47.5997 6.24355L45.3238 6.26613Z" fill="#25044F"/>
        <path d="M56.8169 3.48873C56.8121 3.43013 56.8198 3.37117 56.8395 3.31572C56.8592 3.26027 56.8905 3.20958 56.9313 3.16695C56.9721 3.12432 57.0215 3.09072 57.0763 3.06835C57.1311 3.04598 57.1901 3.03533 57.2493 3.03712H64.0769C65.402 3.07846 66.6573 3.63603 67.571 4.58908C68.4847 5.54213 68.9832 6.81393 68.9586 8.12905C68.9189 8.97858 68.6687 9.80529 68.23 10.5359C67.7913 11.2666 67.1778 11.8786 66.4438 12.3178L69.4138 17.7484C69.4469 17.7919 69.4667 17.8439 69.4707 17.8983C69.4747 17.9526 69.4627 18.007 69.4362 18.0547C69.4097 18.1025 69.3699 18.1416 69.3215 18.1674C69.2731 18.1932 69.2182 18.2045 69.1634 18.2H65.4424C65.1465 18.2 65.0441 18.121 64.8848 17.771L62.4269 13.1532H60.7883V17.7484C60.7956 17.8094 60.7889 17.8714 60.7686 17.9295C60.7483 17.9876 60.715 18.0403 60.6712 18.0838C60.6273 18.1273 60.5741 18.1603 60.5156 18.1805C60.457 18.2006 60.3946 18.2073 60.3331 18.2H57.2493C56.9534 18.2 56.8169 18.0532 56.8169 17.7484V3.48873ZM60.7883 6.18712V9.87905H63.0641C63.5451 9.86726 64.0024 9.66937 64.3383 9.32763C64.6743 8.98589 64.8622 8.52738 64.8621 8.05002C64.8538 7.56624 64.6595 7.10389 64.3189 6.75759C63.9783 6.41128 63.5172 6.20721 63.03 6.18712H60.7883Z" fill="#25044F"/>
        <path d="M80.0763 2.81129C81.6337 2.80906 83.1568 3.26509 84.453 4.12173C85.7492 4.97836 86.7603 6.19713 87.3583 7.62389C87.9564 9.05066 88.1146 10.6213 87.813 12.1373C87.5114 13.6533 86.7634 15.0465 85.6638 16.1408C84.5641 17.235 83.1621 17.9811 81.635 18.2848C80.108 18.5884 78.5244 18.436 77.0847 17.8467C75.645 17.2574 74.4137 16.2578 73.5466 14.9742C72.6794 13.6906 72.2154 12.1807 72.2131 10.6355C72.2116 9.60948 72.4138 8.59323 72.8082 7.64475C73.2025 6.69628 73.7813 5.83416 74.5115 5.10762C75.2416 4.38107 76.1089 3.80433 77.0637 3.41033C78.0185 3.01632 79.0422 2.81277 80.0763 2.81129V2.81129ZM80.0763 14.6661C80.6025 14.6651 81.1232 14.5585 81.6069 14.3527C82.0906 14.1469 82.5273 13.8462 82.8909 13.4686C83.2544 13.091 83.5372 12.6444 83.7223 12.1556C83.9074 11.6668 83.991 11.1459 83.968 10.6242C83.968 9.60011 83.558 8.61798 82.8281 7.89385C82.0983 7.16971 81.1084 6.7629 80.0763 6.7629C79.0441 6.7629 78.0542 7.16971 77.3244 7.89385C76.5945 8.61798 76.1845 9.60011 76.1845 10.6242C76.1599 11.1468 76.2423 11.6689 76.4267 12.1591C76.6111 12.6492 76.8937 13.0972 77.2574 13.476C77.6211 13.8548 78.0584 14.1565 78.5428 14.363C79.0273 14.5695 79.549 14.6765 80.0763 14.6774V14.6661Z" fill="#25044F"/>
        <path d="M92.0814 3.51128C92.0749 3.4503 92.0816 3.38864 92.1011 3.33045C92.1206 3.27226 92.1525 3.2189 92.1945 3.17396C92.2366 3.12902 92.2879 3.09355 92.3449 3.06994C92.4019 3.04633 92.4634 3.03513 92.5252 3.03708H99.0569C99.6367 3.03856 100.211 3.15334 100.746 3.37486C101.281 3.59637 101.767 3.9203 102.176 4.32812C102.585 4.73595 102.908 5.21971 103.129 5.75176C103.349 6.28381 103.462 6.85375 103.461 7.42902C103.479 8.38333 103.152 9.31246 102.539 10.0484C103.036 10.5063 103.435 11.0596 103.711 11.6748C103.987 12.2899 104.134 12.9542 104.143 13.6274C104.138 14.8286 103.658 15.9799 102.807 16.8345C101.957 17.6892 100.802 18.1793 99.5917 18.2H92.5252C92.4662 18.207 92.4064 18.2008 92.3501 18.1819C92.2939 18.163 92.2426 18.1318 92.2 18.0906C92.1575 18.0495 92.1247 17.9995 92.1042 17.9441C92.0837 17.8888 92.0759 17.8296 92.0814 17.771V3.51128ZM97.9645 6.04031H96.0755V9.03225H97.9304C98.1344 9.04802 98.3396 9.02129 98.5326 8.95376C98.7256 8.88623 98.9023 8.77939 99.0512 8.64011C99.2002 8.50083 99.3181 8.33219 99.3975 8.14501C99.4768 7.95783 99.5159 7.75625 99.5121 7.55321C99.5153 7.35175 99.4772 7.15174 99.4003 6.96528C99.3233 6.77881 99.2091 6.60976 99.0644 6.46835C98.9198 6.32694 98.7477 6.21609 98.5587 6.14252C98.3696 6.06895 98.1675 6.03418 97.9645 6.04031V6.04031ZM98.4766 11.7645H96.0755V15.1516H98.4766C98.9153 15.1282 99.3274 14.9357 99.625 14.6151C99.9226 14.2945 100.082 13.8712 100.07 13.4355C100.062 13.0099 99.8947 12.6025 99.5999 12.2933C99.3051 11.9841 98.9044 11.7954 98.4766 11.7645V11.7645Z" fill="#25044F"/>
        <path d="M108.923 3.4887C108.923 3.18386 109.059 3.03709 109.355 3.03709H112.439C112.501 3.02982 112.563 3.03651 112.621 3.05664C112.68 3.07676 112.733 3.10981 112.777 3.15329C112.821 3.19676 112.854 3.24954 112.874 3.30764C112.895 3.36574 112.901 3.42764 112.894 3.4887V17.7484C112.901 17.8094 112.895 17.8713 112.874 17.9294C112.854 17.9875 112.821 18.0403 112.777 18.0838C112.733 18.1273 112.68 18.1603 112.621 18.1804C112.563 18.2006 112.501 18.2072 112.439 18.2H109.355C109.059 18.2 108.923 18.0532 108.923 17.7484V3.4887Z" fill="#25044F"/>
        <path d="M118.015 3.48873C118.005 3.42723 118.01 3.36431 118.03 3.30511C118.049 3.24592 118.082 3.19211 118.127 3.14809C118.171 3.10406 118.225 3.07107 118.285 3.05178C118.345 3.0325 118.408 3.02747 118.47 3.03712H129.633C129.694 3.02943 129.756 3.03593 129.814 3.05608C129.873 3.07624 129.925 3.10951 129.968 3.15328C130.011 3.19706 130.044 3.25013 130.062 3.30834C130.081 3.36655 130.086 3.4283 130.077 3.48873V6.08551C130.084 6.14552 130.077 6.20633 130.058 6.26351C130.038 6.32069 130.006 6.3728 129.963 6.41606C129.921 6.45932 129.869 6.49263 129.812 6.51357C129.755 6.53451 129.694 6.54256 129.633 6.53712H125.98V17.7484C125.988 17.8105 125.981 17.8736 125.96 17.9326C125.939 17.9917 125.905 18.0452 125.86 18.0889C125.815 18.1326 125.76 18.1654 125.7 18.1846C125.64 18.2039 125.576 18.2092 125.514 18.2H122.544C122.482 18.2073 122.42 18.2006 122.361 18.1805C122.303 18.1603 122.25 18.1273 122.206 18.0838C122.162 18.0403 122.129 17.9876 122.108 17.9295C122.088 17.8714 122.081 17.8095 122.089 17.7484V6.53712H118.47C118.408 6.54438 118.346 6.5377 118.288 6.51757C118.229 6.49744 118.176 6.4644 118.132 6.42092C118.088 6.37744 118.055 6.32467 118.035 6.26657C118.014 6.20847 118.007 6.14656 118.015 6.08551V3.48873Z" fill="#25044F"/>
    </g>
    <defs>
        <clipPath id="clip0_2611_38649">
            <rect width="132" height="35" fill="white"/>
        </clipPath>
    </defs>
</svg>
