<svg width="18" height="16" viewBox="0 0 18 16" fill="none" xmlns="http://www.w3.org/2000/svg">
    <path d="M17.9998 8.11976C17.9859 7.73929 17.8622 7.37097 17.6438 7.0592C17.4253 6.74743 17.1214 6.50552 16.7686 6.36265C16.4158 6.21977 16.0292 6.18203 15.6554 6.25397C15.2817 6.32591 14.9367 6.50446 14.6621 6.76809C13.1249 5.72286 11.3179 5.14541 9.45964 5.10553L10.338 0.888319L13.2297 1.49657C13.2641 1.81622 13.4113 2.11314 13.6448 2.33404C13.8783 2.55495 14.1829 2.68536 14.5038 2.70188C14.8248 2.7184 15.1412 2.61994 15.3961 2.42418C15.651 2.22841 15.8279 1.94816 15.8949 1.63373C15.9619 1.3193 15.9146 0.991282 15.7616 0.708554C15.6086 0.425827 15.3599 0.206904 15.0601 0.0910852C14.7603 -0.0247339 14.429 -0.0298659 14.1257 0.0766104C13.8225 0.183087 13.5671 0.394199 13.4054 0.672051L10.0947 0.00973303C10.0406 -0.00214853 9.98464 -0.0031625 9.9301 0.00674984C9.87556 0.0166622 9.82353 0.0373037 9.77702 0.0674781C9.73052 0.0976525 9.69046 0.13676 9.65917 0.182533C9.62789 0.228307 9.606 0.279835 9.59477 0.334134L8.59482 5.02443C6.71367 5.0528 4.88185 5.63069 3.3248 6.68699C3.11649 6.49093 2.86805 6.34253 2.5967 6.25206C2.32535 6.16159 2.03758 6.13123 1.75333 6.16306C1.46908 6.1949 1.19515 6.28819 0.950528 6.43645C0.705903 6.58471 0.496431 6.7844 0.33663 7.02169C0.176828 7.25898 0.070518 7.52819 0.0250674 7.81066C-0.0203832 8.09313 -0.00388753 8.38211 0.0734112 8.65757C0.15071 8.93303 0.286963 9.18839 0.472728 9.40594C0.658493 9.62349 0.889327 9.79804 1.14923 9.91748C1.13402 10.1154 1.13402 10.3143 1.14923 10.5122C1.14923 13.54 4.67609 16 9.02723 16C13.3784 16 16.9052 13.54 16.9052 10.5122C16.9204 10.3143 16.9204 10.1154 16.9052 9.91748C17.2387 9.7517 17.5184 9.4949 17.7121 9.17677C17.9058 8.85865 18.0055 8.49219 17.9998 8.11976ZM4.48691 9.47143C4.48691 9.20409 4.56616 8.94276 4.71464 8.72048C4.86312 8.4982 5.07417 8.32495 5.32108 8.22265C5.568 8.12034 5.83969 8.09358 6.10182 8.14573C6.36394 8.19788 6.60472 8.32662 6.7937 8.51565C6.98268 8.70469 7.11138 8.94553 7.16352 9.20773C7.21566 9.46993 7.1889 9.74171 7.08662 9.98869C6.98434 10.2357 6.81115 10.4468 6.58893 10.5953C6.36671 10.7438 6.10545 10.8231 5.8382 10.8231C5.66074 10.8231 5.48503 10.7881 5.32108 10.7202C5.15714 10.6523 5.00817 10.5527 4.88269 10.4272C4.75721 10.3017 4.65768 10.1527 4.58977 9.98869C4.52186 9.8247 4.48691 9.64893 4.48691 9.47143ZM12.3379 13.1885C11.3792 13.9112 10.1996 14.279 9.0002 14.2293C7.80078 14.279 6.62123 13.9112 5.66253 13.1885C5.60507 13.1185 5.5757 13.0296 5.58014 12.9391C5.58459 12.8486 5.62252 12.763 5.68657 12.6989C5.75061 12.6349 5.83619 12.5969 5.92666 12.5925C6.01712 12.588 6.106 12.6174 6.17602 12.6749C6.98845 13.271 7.98014 13.5714 8.98669 13.5264C9.99448 13.5813 10.9908 13.2904 11.8109 12.7019C11.8826 12.632 11.9791 12.5935 12.0792 12.5947C12.1287 12.5954 12.1777 12.6057 12.2232 12.6253C12.2688 12.6448 12.31 12.6732 12.3446 12.7087C12.3792 12.7442 12.4065 12.7862 12.4249 12.8322C12.4433 12.8782 12.4524 12.9275 12.4518 12.977C12.4512 13.0266 12.4408 13.0756 12.4212 13.1211C12.4017 13.1667 12.3734 13.208 12.3379 13.2426V13.1885ZM12.0946 10.8772C11.8274 10.8772 11.5661 10.7979 11.3439 10.6494C11.1217 10.5008 10.9485 10.2897 10.8462 10.0428C10.7439 9.79577 10.7172 9.524 10.7693 9.2618C10.8215 8.9996 10.9502 8.75875 11.1391 8.56972C11.3281 8.38069 11.5689 8.25195 11.831 8.1998C12.0931 8.14764 12.3648 8.17441 12.6118 8.27671C12.8587 8.37902 13.0697 8.55227 13.2182 8.77455C13.3667 8.99683 13.4459 9.25816 13.4459 9.5255C13.4533 9.70864 13.4233 9.89137 13.3578 10.0626C13.2924 10.2338 13.1928 10.3898 13.0651 10.5213C12.9375 10.6528 12.7844 10.757 12.6152 10.8274C12.4461 10.8979 12.2644 10.9332 12.0811 10.9312L12.0946 10.8772Z" fill="#23024D"/>
</svg>