<svg width="100%" height="100%" viewBox="0 0 92 92" fill="none" xmlns="http://www.w3.org/2000/svg">
    <path d="M51.3331 42.7149L72.1837 19H67.2445L49.1323 39.5871L34.6768 19H18L39.8643 50.1343L18 75H22.9392L42.0539 53.2547L57.3232 75H74M24.7219 22.6444H32.3099L67.2408 71.5346H59.6509" fill="#872AB0"/>
    <path fill-rule="evenodd" clip-rule="evenodd" d="M46.2287 90.0684C21.5216 90.0684 1.50098 70.237 1.50098 45.784H0.500977C0.500977 70.7985 20.9786 91.0684 46.2287 91.0684C71.4788 91.0684 91.9564 70.7985 91.9564 45.784C91.9564 20.7696 71.4788 0.499725 46.2287 0.499725V1.49973C70.9358 1.49973 90.9564 21.3311 90.9564 45.784C90.9564 70.237 70.9358 90.0684 46.2287 90.0684Z" fill="#23024D"/>
    <path fill-rule="evenodd" clip-rule="evenodd" d="M0.546247 44.1755C0.516172 44.8561 0.500977 45.5406 0.500977 46.2285H1.50098C1.50098 45.5553 1.51585 44.8856 1.54527 44.2197L0.546247 44.1755ZM1.42168 37.054C1.15063 38.3848 0.937378 39.7366 0.784665 41.1066L1.77851 41.2174C1.92789 39.8773 2.13647 38.5551 2.40156 37.2536L1.42168 37.054ZM3.40554 30.1561C2.92686 31.4309 2.50347 32.7327 2.13828 34.0587L3.10239 34.3242C3.45952 33.0275 3.87359 31.7543 4.34172 30.5076L3.40554 30.1561ZM6.45073 23.6574C5.77626 24.8435 5.15329 26.0628 4.58488 27.3121L5.4951 27.7263C6.05102 26.5044 6.66031 25.3119 7.32002 24.1517L6.45073 23.6574ZM10.476 17.7167C9.62323 18.7846 8.81732 19.8916 8.06137 21.0346L8.89544 21.5862C9.63489 20.4682 10.4232 19.3854 11.2574 18.3407L10.476 17.7167ZM15.3774 12.4757C14.3676 13.3992 13.3994 14.3675 12.4759 15.3773L13.2138 16.0521C14.1173 15.0643 15.0645 14.1171 16.0523 13.2137L15.3774 12.4757ZM21.0347 8.06119C19.8918 8.81715 18.7848 9.62305 17.7169 10.4758L18.3409 11.2572C19.3856 10.423 20.4684 9.63471 21.5864 8.89526L21.0347 8.06119ZM27.3123 4.5847C26.063 5.15311 24.8437 5.77608 23.6576 6.45055L24.1519 7.31984C25.312 6.66013 26.5045 6.05084 27.7264 5.49492L27.3123 4.5847ZM34.0589 2.1381C32.7329 2.50329 31.4311 2.92668 30.1563 3.40536L30.5078 4.34154C31.7545 3.87341 33.0277 3.45934 34.3244 3.10221L34.0589 2.1381ZM41.1068 0.784481C39.7368 0.937195 38.385 1.15044 37.0542 1.4215L37.2538 2.40138C38.5553 2.13629 39.8775 1.92771 41.2176 1.77833L41.1068 0.784481ZM46.2287 0.500793C45.5408 0.500793 44.8563 0.515991 44.1757 0.546066L44.2199 1.54509C44.8858 1.51566 45.5555 1.50079 46.2287 1.50079V0.500793Z" fill="#23024D"/>
    <path fill-rule="evenodd" clip-rule="evenodd" d="M81.0898 74.2866L79.9648 72.6729L80.7852 72.101L81.9102 73.7147L81.0898 74.2866ZM77.7148 69.4456L75.4648 66.2182L76.2852 65.6463L78.5352 68.8737L77.7148 69.4456ZM73.2148 62.9909L70.9648 59.7636L71.7852 59.1917L74.0352 62.419L73.2148 62.9909ZM68.7148 56.5362L66.4648 53.3089L67.2852 52.737L69.5352 55.9643L68.7148 56.5362ZM64.2148 50.0815L61.9648 46.8542L62.7852 46.2823L65.0352 49.5096L64.2148 50.0815ZM59.7148 43.6269L57.4648 40.3995L58.2852 39.8276L60.5352 43.055L59.7148 43.6269ZM55.2148 37.1722L52.9648 33.9448L53.7852 33.3729L56.0352 36.6003L55.2148 37.1722ZM50.7148 30.7175L48.4648 27.4902L49.2852 26.9183L51.5352 30.1456L50.7148 30.7175ZM46.2148 24.2628L43.9648 21.0355L44.7852 20.4636L47.0352 23.6909L46.2148 24.2628ZM41.7148 17.8081L39.4648 14.5808L40.2851 14.0089L42.5352 17.2362L41.7148 17.8081ZM37.2148 11.3535L34.9648 8.12611L35.7851 7.55421L38.0352 10.7815L37.2148 11.3535ZM32.7148 4.89877L31.5898 3.2851L32.4101 2.7132L33.5351 4.32687L32.7148 4.89877Z" fill="#23024D"/>
    <path fill-rule="evenodd" clip-rule="evenodd" d="M9.90965 18.713L58.9095 88.7134L58.0903 89.2868L9.09042 19.2864L9.90965 18.713Z" fill="#23024D"/>
    <path fill-rule="evenodd" clip-rule="evenodd" d="M45.7737 20C30.707 20 18.5015 32.0929 18.5015 47H17.5015C17.5015 31.5314 30.1641 19 45.7737 19C61.3834 19 74.046 31.5314 74.046 47C74.046 62.4686 61.3834 75 45.7737 75V74C60.8405 74 73.046 61.9071 73.046 47C73.046 32.0929 60.8405 20 45.7737 20Z" fill="#23024D"/>
    <path fill-rule="evenodd" clip-rule="evenodd" d="M17.5789 48.8429C17.5272 48.1448 17.501 47.4397 17.501 46.7285H18.501C18.501 47.415 18.5263 48.0956 18.5762 48.7692L17.5789 48.8429ZM19.0806 56.0694C18.619 54.7503 18.2525 53.3866 17.9891 51.9866L18.9719 51.8017C19.2259 53.152 19.5794 54.4671 20.0245 55.7391L19.0806 56.0694ZM22.4114 62.6564C21.6189 61.4962 20.9105 60.2738 20.295 58.9981L21.1957 58.5636C21.7893 59.794 22.4726 60.9731 23.2371 62.0923L22.4114 62.6564ZM27.3312 68.1584C26.2627 67.238 25.2637 66.2391 24.3433 65.1705L25.101 64.5179C25.9891 65.5489 26.9529 66.5127 27.9839 67.4007L27.3312 68.1584ZM33.5036 72.2067C32.2279 71.5913 31.0056 70.8829 29.8454 70.0904L30.4094 69.2646C31.5287 70.0292 32.7078 70.7125 33.9381 71.3061L33.5036 72.2067ZM40.5152 74.5127C39.1151 74.2493 37.7514 73.8827 36.4324 73.4212L36.7626 72.4773C38.0347 72.9224 39.3498 73.2759 40.7 73.5299L40.5152 74.5127ZM45.7733 75.0008C45.0621 75.0008 44.357 74.9745 43.6588 74.9229L43.7326 73.9256C44.4062 73.9754 45.0867 74.0008 45.7733 74.0008V75.0008Z" fill="#23024D"/>
</svg>
