<svg width="106" height="25" viewBox="0 0 106 25" fill="none" xmlns="http://www.w3.org/2000/svg">
    <g clip-path="url(#clip0_2611_38589)">
        <path d="M70.8359 7.49843H62.7111L65.0562 0H57.84L50.0281 25H65.0448C66.7376 25 68.3868 24.443 69.7563 23.4086C71.1258 22.3742 72.1451 20.9156 72.6682 19.2419L74.6325 12.9704C74.83 12.3452 74.8824 11.6804 74.7854 11.0301C74.6885 10.3799 74.4449 9.76274 74.0747 9.2291C73.7044 8.69545 73.2179 8.26046 72.655 7.95967C72.0921 7.65888 71.4688 7.50083 70.8359 7.49843ZM67.4804 12.7548L65.8554 17.9523C65.5942 18.7896 65.0847 19.5193 64.3999 20.0368C63.7152 20.5544 62.8904 20.8332 62.0438 20.8333H58.545L61.4104 11.6651H66.7188C66.8453 11.6648 66.97 11.6956 67.0828 11.7552C67.1955 11.8147 67.2931 11.9012 67.3674 12.0076C67.4418 12.114 67.4908 12.2372 67.5104 12.3671C67.5301 12.4969 67.5198 12.6298 67.4804 12.7548Z" fill="#25044F"/>
        <path d="M83.4924 0L81.9278 5.00157H89.1439L90.7048 0H83.4924Z" fill="#25044F"/>
        <path d="M75.6768 24.9999H82.8929L88.3597 7.49832H81.1473L75.6768 24.9999Z" fill="#25044F"/>
        <path d="M99.1801 11.6651H104.032L105.333 7.49843H100.481L102.826 0H95.6098L89.5021 19.5437C89.307 20.1695 89.2571 20.8344 89.3564 21.4841C89.4558 22.1338 89.7015 22.7498 90.0736 23.2819C90.4456 23.8139 90.9335 24.247 91.4973 24.5456C92.061 24.8442 92.6848 24.9999 93.3175 25H101.325L102.63 20.8333H97.4119C97.2862 20.8331 97.1624 20.8019 97.0506 20.7423C96.9387 20.6827 96.8421 20.5964 96.7685 20.4904C96.6949 20.3845 96.6466 20.2619 96.6273 20.1328C96.6081 20.0037 96.6186 19.8717 96.6579 19.7476L99.1801 11.6651Z" fill="#25044F"/>
        <path d="M20.9351 8.72525L28.8261 -6.10352e-05H20.3733L13.8622 20.8333H8.4482C8.32265 20.8315 8.19924 20.7992 8.08788 20.7389C7.97653 20.6786 7.88032 20.592 7.807 20.486C7.73367 20.3801 7.68527 20.2577 7.66567 20.1288C7.64607 19.9998 7.65583 19.8679 7.69416 19.7436L13.8584 -6.10352e-05H6.64227L0.534558 19.5515C0.339432 20.1763 0.28927 20.8401 0.388172 21.4889C0.487074 22.1376 0.732233 22.7528 1.10361 23.2842C1.47499 23.8155 1.96204 24.248 2.52496 24.5462C3.08787 24.8444 3.71067 24.9999 4.34245 24.9999H19.7739L25.2406 7.49837L20.9351 8.72525Z" fill="#25044F"/>
        <path d="M47.6269 0H31.038L33.5113 8.7253L29.971 7.50235L24.4816 25H31.6978L34.303 16.6667H42.1035C43.7956 16.6659 45.444 16.1084 46.8127 15.0741C48.1814 14.0398 49.2002 12.5817 49.7231 10.9086L51.431 5.44842C51.6252 4.82402 51.6747 4.16078 51.5757 3.5127C51.4766 2.86461 51.2317 2.25002 50.8609 1.71897C50.4901 1.18792 50.004 0.755426 49.442 0.456713C48.88 0.158 48.2581 0.00151459 47.6269 0V0ZM44.2789 5.25243L42.9141 9.62292C42.6523 10.4594 42.1424 11.1883 41.4577 11.7051C40.773 12.2219 39.9486 12.5002 39.1025 12.5H35.6037L38.2089 4.16667H43.5211C43.6471 4.1663 43.7714 4.19705 43.8837 4.2564C43.996 4.31574 44.0932 4.40197 44.1672 4.50799C44.2412 4.61401 44.2899 4.73679 44.3093 4.86621C44.3288 4.99564 44.3183 5.12801 44.2789 5.25243Z" fill="#25044F"/>
    </g>
    <defs>
        <clipPath id="clip0_2611_38589">
            <rect width="105" height="25" fill="white" transform="translate(0.333313)"/>
        </clipPath>
    </defs>
</svg>
