<svg width="124" height="29" viewBox="0 0 124 29" fill="none" xmlns="http://www.w3.org/2000/svg">
    <path d="M51.7144 19.436L56.0649 5H60.4683L53.7842 24.1953H49.6577L43 5H47.3901L51.7144 19.436Z" fill="#25044F"/>
    <path d="M72.1226 20.2402H65.188L63.8696 24.1953H59.6641L66.8096 5H70.4746L77.6597 24.1953H73.4541L72.1226 20.2402ZM66.2559 17.0366H71.0547L68.6421 9.85156L66.2559 17.0366Z" fill="#25044F"/>
    <path d="M93.7437 5V17.6431C93.7437 19.7437 93.0845 21.4048 91.7661 22.6265C90.4565 23.8481 88.6636 24.459 86.3872 24.459C84.146 24.459 82.3662 23.8657 81.0479 22.6792C79.7295 21.4927 79.0571 19.8623 79.0308 17.7881V5H82.9858V17.6694C82.9858 18.9263 83.2847 19.8447 83.8823 20.4248C84.4888 20.9961 85.3237 21.2817 86.3872 21.2817C88.6108 21.2817 89.7402 20.1128 89.7754 17.7749V5H93.7437Z" fill="#25044F"/>
    <path d="M100.942 21.0181H109.34V24.1953H96.9868V5H100.942V21.0181Z" fill="#25044F"/>
    <path d="M123.354 8.20361H117.474V24.1953H113.519V8.20361H107.718V5H123.354V8.20361Z" fill="#25044F"/>
    <path d="M6.31729 9.06569C7.25245 7.05838 8.92915 5.21973 10.1496 4C4.76676 5.43907 0 12.3159 0 16.497C0 20.9148 3.50667 24 8.52647 24C13.547 24 17.0537 20.9148 17.0537 16.497C17.0537 13.1657 15.2142 9.61873 12.7842 7.99363C12.6074 10.2029 11.5139 12.659 9.8071 14.5563C9.634 14.7481 9.45503 14.9349 9.2702 15.1151C9.00029 15.3779 8.71644 15.6276 8.42746 15.8571C7.65219 16.4702 6.82338 16.9494 5.96449 17.2817L5.1687 17.5893L4.98166 16.7656C4.86577 16.2552 4.99119 11.9113 6.31729 9.06569Z" fill="#25044F"/>
    <path d="M31.5 0V29" stroke="#25044F"/>
</svg>
