<svg width="95" height="20" viewBox="0 0 95 20" fill="none" xmlns="http://www.w3.org/2000/svg">
    <path fill-rule="evenodd" clip-rule="evenodd" d="M88.0261 13.3687L90.2766 19.475H95L92.4399 12.8396L92.9268 12.5115C94.2786 11.6 94.9349 9.989 94.9349 7.58832C94.9349 1.67284 92.3119 1.67284 89.2743 1.67284H80.8255V19.475H85.2901V13.3687H88.0261ZM90.3487 7.77847C90.3487 5.7596 89.0071 5.68999 88.3606 5.68759L85.1678 5.6875V9.86943H88.2941C88.9096 9.86943 90.3487 9.86943 90.3487 7.77847Z" fill="#25044F"/>
    <path d="M62.9432 2.4164C61.7506 1.90926 59.3326 1.33828 56.8724 1.33828C52.4235 1.33828 50.4398 3.06719 50.4398 6.94437C50.4398 11.1991 52.8197 11.8702 55.0166 12.1402L55.3082 12.174L55.5963 12.2049L55.7386 12.2196C56.3586 12.2834 56.8951 12.3387 57.3184 12.4801C58.344 12.8182 58.4973 13.5945 58.4973 14.0276C58.4973 14.529 58.2648 15.3706 56.7097 15.3706C55.8119 15.3706 53.2908 15.1159 51.6456 14.6211L50.0984 18.3735C51.363 18.8893 54.1239 19.58 56.8455 19.58C61.3089 19.58 63.3871 17.7909 63.3871 13.9478C63.3871 9.47544 60.5463 8.83568 58.1888 8.56863L57.8908 8.5363C57.7925 8.52602 57.6953 8.51615 57.5995 8.50642C57.0852 8.45418 56.6414 8.40847 56.2674 8.31416C55.2672 8.0312 55.0573 7.39855 55.0573 6.91753C55.0573 6.40966 55.2933 5.76105 56.425 5.55863C56.6959 5.51292 57.022 5.4897 57.3968 5.4897C58.5648 5.4897 60.3059 5.72985 61.6089 6.14267L62.9432 2.4164Z" fill="#25044F"/>
    <path d="M78.7506 5.90468V1.67284H65.462V5.90468H69.822V19.475H74.3905V5.90468H78.7506Z" fill="#25044F"/>
    <path fill-rule="evenodd" clip-rule="evenodd" d="M33.065 19.4699H41.5516L42.3143 19.475C44.8724 19.475 47.2395 18.9191 47.2395 14.8871C47.2395 13.5625 46.8897 11.8645 45.2264 11.2968L44.1534 10.7467L45.0074 9.94499C46.1471 9.02081 46.7008 7.81644 46.7008 6.26147C46.7008 4.31776 46.1522 3.03638 45.0239 2.34471C44.0587 1.75279 42.8407 1.67284 41.7764 1.67284L41.0137 1.67871H33.065V19.4699ZM40.2544 8.78368L37.4068 8.78294V5.68841L40.253 5.68767C40.7507 5.68767 42.0728 5.68767 42.0728 7.23531C42.0728 8.03259 41.6965 8.40594 41.3812 8.57904C41.035 8.76754 40.6508 8.78368 40.2544 8.78368ZM42.0732 14.2626C42.0732 12.7134 40.7503 12.7134 40.2519 12.7134L37.4072 12.7142V15.8095L40.2519 15.8102C40.6491 15.8102 41.034 15.7948 41.3794 15.6063C41.6961 15.4332 42.0732 15.0606 42.0732 14.2626Z" fill="#25044F"/>
    <path d="M19.6769 5.06569C20.612 3.05838 22.2887 1.21973 23.5092 0C18.1264 1.43907 13.3596 8.3159 13.3596 12.497C13.3596 16.9148 16.8663 20 21.8861 20C26.9066 20 30.4133 16.9148 30.4133 12.497C30.4133 9.16573 28.5738 5.61873 26.1438 3.99363C25.967 6.2029 24.8734 8.65902 23.1667 10.5563C22.9936 10.7481 22.8146 10.9349 22.6298 11.1151C22.3599 11.3779 22.076 11.6276 21.787 11.8571C21.0118 12.4702 20.183 12.9494 19.3241 13.2817L18.5283 13.5893L18.3412 12.7656C18.2254 12.2552 18.3508 7.91125 19.6769 5.06569Z" fill="#25044F"/>
    <path d="M4.50996 15.2425V1.67284H0V19.475H10.4094V15.2425H4.50996Z" fill="#25044F"/>
</svg>
