<svg width="100%" height="100%" viewBox="0 0 100 100" fill="none" xmlns="http://www.w3.org/2000/svg">
<path d="M50.3782 25.0828C36.6198 25.0828 25.4664 36.1268 25.4664 49.7504C25.4664 63.3739 36.6198 74.418 50.3782 74.418C64.1366 74.418 75.29 63.3739 75.29 49.7504" stroke="#23024D"/>
<path d="M50.3782 25.0833C64.1366 25.0833 75.29 36.2367 75.29 49.9951" stroke="#23024D" stroke-dasharray="4 3"/>
<path d="M49.5998 84.5211C68.7087 84.5211 84.1995 69.1821 84.1995 50.2606C84.1995 31.339 68.7087 16 49.5998 16C30.4908 16 15 31.339 15 50.2606" stroke="#23024D"/>
<path d="M49.5998 84.5216C30.4908 84.5216 15 69.0308 15 49.9219" stroke="#23024D" stroke-dasharray="4 3"/>
<path d="M17.1816 81.9199L17.6745 83.7269L19.4814 84.2197L17.6745 84.7125L17.1816 86.5195L16.6888 84.7125L14.8818 84.2197L16.6888 83.7269L17.1816 81.9199Z" fill="#8620B9"/>
<path d="M17.9863 85.0254L18.3696 85.4087" stroke="#8620B9" stroke-width="0.5" stroke-linejoin="round"/>
<path d="M18.4336 85.4727L18.5614 85.6004" stroke="#8620B9" stroke-width="0.5" stroke-linejoin="round"/>
<path d="M18.625 85.6641L18.7528 85.7918" stroke="#8620B9" stroke-width="0.5" stroke-linejoin="round"/>
<path d="M16.3379 83.377L15.9546 82.9937" stroke="#8620B9" stroke-width="0.5" stroke-linejoin="round"/>
<path d="M15.8906 82.9297L15.7629 82.8019" stroke="#8620B9" stroke-width="0.5" stroke-linejoin="round"/>
<path d="M15.6992 82.7383L15.5715 82.6105" stroke="#8620B9" stroke-width="0.5" stroke-linejoin="round"/>
<path d="M18.0244 83.376L18.4077 82.9927" stroke="#8620B9" stroke-width="0.5" stroke-linejoin="round"/>
<path d="M18.4717 82.9287L18.5994 82.8009" stroke="#8620B9" stroke-width="0.5" stroke-linejoin="round"/>
<path d="M18.6631 82.7373L18.7909 82.6095" stroke="#8620B9" stroke-width="0.5" stroke-linejoin="round"/>
<path d="M16.376 85.0244L15.9927 85.4077" stroke="#8620B9" stroke-width="0.5" stroke-linejoin="round"/>
<path d="M15.9287 85.4717L15.8009 85.5994" stroke="#8620B9" stroke-width="0.5" stroke-linejoin="round"/>
<path d="M15.7373 85.6631L15.6095 85.7909" stroke="#8620B9" stroke-width="0.5" stroke-linejoin="round"/>
<path d="M68.3623 7.83887L69.3479 11.4527L72.9617 12.4383L69.3479 13.4239L68.3623 17.0377L67.3767 13.4239L63.7629 12.4383L67.3767 11.4527L68.3623 7.83887Z" fill="#8620B9"/>
<path d="M69.9717 14.0488L70.7382 14.8154" stroke="#8620B9" stroke-width="0.5" stroke-linejoin="round"/>
<path d="M70.8662 14.9424L71.1217 15.1979" stroke="#8620B9" stroke-width="0.5" stroke-linejoin="round"/>
<path d="M71.25 15.3252L71.5055 15.5807" stroke="#8620B9" stroke-width="0.5" stroke-linejoin="round"/>
<path d="M66.6768 10.752L65.9102 9.98538" stroke="#8620B9" stroke-width="0.5" stroke-linejoin="round"/>
<path d="M65.7822 9.85742L65.5267 9.6019" stroke="#8620B9" stroke-width="0.5" stroke-linejoin="round"/>
<path d="M65.3984 9.47461L65.1429 9.21909" stroke="#8620B9" stroke-width="0.5" stroke-linejoin="round"/>
<path d="M70.0498 10.7529L70.8164 9.98636" stroke="#8620B9" stroke-width="0.5" stroke-linejoin="round"/>
<path d="M70.9443 9.8584L71.1999 9.60288" stroke="#8620B9" stroke-width="0.5" stroke-linejoin="round"/>
<path d="M71.3271 9.47559L71.5827 9.22006" stroke="#8620B9" stroke-width="0.5" stroke-linejoin="round"/>
<path d="M66.7529 14.0498L65.9864 14.8164" stroke="#8620B9" stroke-width="0.5" stroke-linejoin="round"/>
<path d="M65.8584 14.9434L65.6029 15.1989" stroke="#8620B9" stroke-width="0.5" stroke-linejoin="round"/>
<path d="M65.4756 15.3271L65.2201 15.5827" stroke="#8620B9" stroke-width="0.5" stroke-linejoin="round"/>
<path d="M68.3115 83.999L70.3842 86.0533L73.2063 85.3106L71.152 87.3832L71.8948 90.2054L69.8221 88.1511L67 88.8938L69.0543 86.8211L68.3115 83.999Z" fill="#8620B9"/>
<path d="M30 70L70 30" stroke="#8620B9" stroke-width="5"/>
<rect x="29" y="25" width="13" height="20" rx="4" stroke="#8620B9" stroke-width="5"/>
<rect x="58" y="54" width="13" height="20" rx="4" stroke="#8620B9" stroke-width="5"/>
</svg>
