<svg width="525" height="359" viewBox="0 0 525 359" fill="none" xmlns="http://www.w3.org/2000/svg">
<path opacity="0.3" fill-rule="evenodd" clip-rule="evenodd" d="M106.105 194.313L157.518 123.24L153.467 120.31L101.248 192.496L91.58 300.121L-41.3314 417.806L-38.0168 421.55L94.8322 303.919L277.868 320.187L315.649 227.5L314.999 223.119L309.499 223.119L96.821 297.662L106.105 194.313ZM105.538 299.851L309.499 228.5L274.737 314.889L105.538 299.851Z" fill="#8029B0"/>
<path d="M223.898 256.666C223.406 258.502 221.519 259.592 219.682 259.1C217.846 258.608 216.757 256.721 217.249 254.885C217.741 253.049 219.628 251.959 221.464 252.451C223.3 252.943 224.39 254.83 223.898 256.666Z" fill="#B748FF"/>
<path d="M222.942 313.419C222.45 315.255 220.562 316.345 218.726 315.853C216.89 315.361 215.801 313.474 216.293 311.638C216.785 309.802 218.672 308.712 220.508 309.204C222.344 309.696 223.434 311.583 222.942 313.419Z" fill="#B748FF"/>
<path fill-rule="evenodd" clip-rule="evenodd" d="M218.274 47.9051C220.521 46.0575 223.045 44.288 225.254 43.2925C226.36 42.7938 227.351 42.506 228.168 42.4782C228.972 42.4508 229.566 42.6729 229.977 43.1556C231.99 45.5186 233.8 47.8289 235.133 50.7829C236.464 53.7322 237.331 57.3506 237.411 62.3309C237.595 73.7377 230.636 83.9417 222.245 92.4326C216.381 98.3662 209.896 103.392 204.742 107.386C202.513 109.113 200.533 110.648 198.96 111.979C197.751 113.003 196.365 114.106 194.867 115.298C190.045 119.136 184.064 123.896 179.094 129.892C172.558 137.778 167.711 147.863 169.393 160.945C170.254 167.637 175.273 172.628 182.518 176.337C189.769 180.05 199.352 182.535 209.562 184.179C229.987 187.468 253.067 187.41 265.393 186.966C274.314 186.645 288.064 184.918 304.35 182.873C306.1 182.653 307.88 182.429 309.686 182.204C328.142 179.896 349.388 177.341 370.454 175.963C370.497 176.878 370.562 177.791 370.647 178.7C371.026 182.787 371.785 186.821 372.539 190.717L372.103 190.869C371.593 191.047 370.855 191.304 369.94 191.622C368.109 192.258 365.572 193.137 362.748 194.11C357.097 196.054 350.299 198.371 345.696 199.86C341.107 201.345 334.455 203.053 328.94 204.392C326.185 205.061 323.717 205.637 321.938 206.046C321.123 206.233 320.452 206.386 319.965 206.495C318.849 205.084 317.379 203.597 315.927 202.291C313.992 200.549 312.026 199.071 310.891 198.5L310.441 199.394C311.451 199.902 313.336 201.304 315.258 203.034C316.686 204.319 318.098 205.753 319.157 207.086C319.164 207.117 319.171 207.149 319.179 207.184C319.287 207.672 319.288 207.672 319.288 207.672L319.486 207.628C319.509 207.623 319.533 207.617 319.56 207.611C319.761 207.885 319.945 208.153 320.108 208.412C320.507 209.046 320.949 209.789 321.421 210.584L321.422 210.585C322.196 211.886 323.053 213.328 323.94 214.659C325.369 216.804 326.981 218.834 328.664 219.738L329.137 218.857C327.699 218.085 326.207 216.258 324.773 214.105C323.892 212.783 323.071 211.402 322.313 210.125L322.312 210.124C321.835 209.322 321.383 208.56 320.955 207.88C320.85 207.713 320.738 207.544 320.619 207.373C321.046 207.276 321.565 207.158 322.162 207.021C323.944 206.611 326.416 206.034 329.176 205.364C334.692 204.025 341.376 202.309 346.003 200.811C350.617 199.319 357.423 197 363.073 195.055C365.899 194.083 368.437 193.203 370.268 192.567C371.183 192.249 371.922 191.991 372.432 191.814L372.732 191.709C372.786 191.993 372.841 192.275 372.896 192.557C373.742 196.947 374.503 201.135 374.637 205.061C373.262 206.353 371.161 208.502 369.106 210.959C366.971 213.512 364.859 216.429 363.676 219.082C363.283 219.961 362.834 220.974 362.348 222.073L341.666 233.081L342.136 233.964L361.695 223.553C359.44 228.67 356.678 234.999 355.254 238.271L329.251 258.088L331.766 253.47L330.887 252.992L326.734 260.62C326.353 261.321 325.847 262.04 325.283 262.803C325.14 262.997 324.993 263.194 324.843 263.395L324.837 263.403C324.407 263.979 323.959 264.579 323.536 265.196C322.389 266.869 321.358 268.759 321.202 270.955L322.199 271.027C322.336 269.099 323.244 267.39 324.36 265.761C324.771 265.162 325.201 264.587 325.628 264.016C325.782 263.809 325.936 263.603 326.088 263.397C326.654 262.63 327.195 261.864 327.612 261.098L328.081 260.237L356.068 238.908L356.12 238.789C357.98 234.511 362.279 224.664 364.589 219.489C365.716 216.964 367.756 214.131 369.873 211.6C371.984 209.076 374.145 206.882 375.484 205.638L375.65 205.484L375.644 205.258C375.529 201.174 374.739 196.833 373.877 192.368C373.81 192.016 373.741 191.663 373.673 191.31L373.656 191.223C372.858 187.106 372.04 182.884 371.643 178.608C370.777 169.281 371.92 159.752 379.673 150.716C381.762 148.282 384.388 147.53 386.853 147.583C389.23 147.633 391.439 148.434 392.803 149.187L407.181 201.295C403.848 210.448 398.708 224.339 394.047 236.459C391.704 242.553 389.483 248.197 387.674 252.565C386.77 254.749 385.97 256.612 385.311 258.05C384.645 259.502 384.138 260.487 383.82 260.943C380.332 265.946 371.545 277.871 366.914 282.343C366.013 283.213 363.869 284.812 360.94 286.854C358.024 288.887 354.366 291.335 350.467 293.895C342.96 298.823 334.569 304.157 328.887 307.719L328.879 307.706C314.745 316.803 312.17 317.908 299.763 323.234L299.566 323.318C291.748 326.674 274.174 330.973 255.883 334.566C237.604 338.156 218.692 341.023 208.223 341.533C207.327 341.576 206.33 341.618 205.241 341.663C197.75 341.973 185.915 342.464 172.949 345.107C158.098 348.135 141.716 353.996 128.629 365.685C119.637 373.715 80.7024 407.631 59.525 425.577L59.517 425.584L-15.5189 491.955L-14.8564 492.704L60.1715 426.34L60.1755 426.336C81.3594 408.385 120.296 374.467 129.295 366.43C142.2 354.904 158.391 349.096 173.149 346.087C186.03 343.461 197.782 342.973 205.276 342.662L205.282 342.662C206.372 342.617 207.372 342.575 208.271 342.532C218.817 342.018 237.788 339.138 256.076 335.547C274.353 331.957 292.03 327.641 299.96 324.237L300.114 324.171C312.408 318.894 315.132 317.725 328.766 308.968L328.769 308.973C334.452 305.416 343.21 299.855 351.016 294.731C354.918 292.169 358.585 289.715 361.512 287.674C364.425 285.643 366.64 283.998 367.608 283.063C369.574 281.164 372.258 277.969 374.972 274.526L374.98 274.547C375.169 275.011 375.169 275.01 375.169 275.01L375.182 275.005L375.22 274.99L375.368 274.929L375.47 274.886C375.533 274.86 375.605 274.83 375.686 274.796C375.761 274.764 375.844 274.73 375.934 274.692C376.426 274.484 377.138 274.179 378.02 273.79C379.783 273.013 382.226 271.899 384.948 270.551C390.381 267.86 396.963 264.219 401.447 260.455C405.95 256.675 411.312 249.258 415.72 242.13C417.93 238.558 419.909 235.041 421.431 232.065C422.8 229.388 423.815 227.118 424.285 225.632C429.401 221.963 434.949 217.978 440.408 214.057L440.618 213.907L440.702 213.846C455.448 203.255 469.485 193.173 472.57 191.054C478.612 186.904 485.56 183.488 492.018 180.314L492.026 180.31L492.027 180.309C494.02 179.33 495.966 178.373 497.824 177.425C501.75 175.422 505.289 173.453 508.006 171.389C510.716 169.331 512.679 167.128 513.348 164.634C514.03 162.086 513.13 159.873 511.313 158.081C509.513 156.306 506.793 154.914 503.717 153.917C501.666 153.253 499.434 152.757 497.173 152.442C497.052 152.265 496.884 152.096 496.701 151.939C496.298 151.596 495.723 151.232 495.071 150.881C493.762 150.177 492.054 149.479 490.572 149.082C482.811 147.003 474.052 149.711 465.322 153.553C461.973 155.027 458.605 156.679 455.284 158.308L455.283 158.309C454.265 158.808 453.252 159.305 452.245 159.794C448.243 161.738 444.336 163.559 440.604 164.919C443.936 152.111 448.003 129.161 449.764 118.356L449.819 118.018L449.524 117.845C449.438 117.794 449.35 117.742 449.259 117.688C445.866 115.688 438.88 111.569 430.477 116.197C426.896 118.17 423.936 121.925 421.489 126.44C419.037 130.964 417.071 136.31 415.505 141.539C413.939 146.77 412.77 151.901 411.917 156.001C411.536 157.836 411.219 159.454 410.96 160.782L410.959 160.786L410.958 160.789L410.957 160.794C410.634 162.448 410.399 163.651 410.234 164.266C409.83 165.772 408.854 168.698 407.71 171.981L400.482 173.258L393.657 148.525L393.481 148.422C392.019 147.573 389.556 146.64 386.875 146.583C384.177 146.526 381.238 147.357 378.914 150.065C371.97 158.158 370.186 166.648 370.417 174.963C349.309 176.343 328.026 178.903 309.562 181.211C307.76 181.437 305.985 181.66 304.24 181.879C287.933 183.926 274.23 185.647 265.357 185.967C253.055 186.41 230.051 186.465 209.721 183.192C199.552 181.555 190.089 179.09 182.974 175.447C175.852 171.801 171.184 167.03 170.385 160.817C168.748 148.088 173.448 138.272 179.864 130.531C184.76 124.623 190.62 119.959 195.433 116.128L195.436 116.126C196.951 114.92 198.362 113.796 199.606 112.743C201.128 111.455 203.073 109.947 205.278 108.238C210.448 104.23 217.045 99.1166 222.956 93.1355C231.397 84.5947 238.602 74.139 238.411 62.3148C238.329 57.2199 237.44 53.4636 236.044 50.3715C234.651 47.2841 232.765 44.8862 230.739 42.5072C230.077 41.7304 229.15 41.4441 228.134 41.4787C227.131 41.5129 226.003 41.8575 224.842 42.3809C222.516 43.4296 219.912 45.2633 217.639 47.1326C213.317 50.6857 205.376 56.5755 196.791 62.2736C188.2 67.9761 179 73.4623 172.15 76.2294C171.53 76.4802 170.702 76.9719 169.709 77.6524C168.709 78.3379 167.515 79.2331 166.156 80.3101C163.439 82.4644 160.044 85.3592 156.185 88.7886C148.468 95.6483 138.882 104.661 129.125 114.199C109.624 133.261 89.3915 154.468 82.047 164.779C69.5411 182.335 64.7891 192.149 61.9123 199.93C61.046 202.273 60.354 204.416 59.6744 206.521C58.0918 211.422 56.5769 216.114 53.0878 222.627C44.8281 238.046 29.2776 255.198 12.733 270.907C-3.8021 286.607 -21.2908 300.829 -33.3906 310.392L-33.4001 310.4L-99.9426 365.673L-99.3037 366.442L-32.7705 311.177L-32.7663 311.174C-20.6584 301.604 -3.1443 287.361 13.4215 271.632C29.9798 255.91 45.6299 238.667 53.9693 223.099C57.5024 216.504 59.0573 211.69 60.6516 206.754C61.3264 204.665 62.0083 202.554 62.8502 200.276C65.6881 192.601 70.391 182.866 82.8615 165.359C90.1454 155.133 110.311 133.988 129.824 114.914C139.574 105.383 149.148 96.3821 156.85 89.536C160.701 86.1126 164.081 83.2315 166.778 81.0938C168.126 80.0247 169.3 79.1449 170.274 78.4772C171.256 77.8044 172.01 77.3647 172.525 77.1566C179.474 74.3492 188.745 68.8146 197.344 63.1068C205.95 57.3946 213.92 51.4846 218.274 47.9051ZM494.597 151.762C494.897 151.923 495.17 152.082 495.408 152.234C491.472 151.853 487.572 152.031 484.514 152.836C478.567 154.401 468.702 159.151 459.104 164.681C450.221 169.799 441.498 175.624 436.254 180.282C437.502 175.737 438.647 171.688 439.566 168.645C439.803 167.862 440.046 167.008 440.293 166.093C444.277 164.691 448.448 162.751 452.682 160.694C453.697 160.201 454.715 159.701 455.736 159.2C459.054 157.573 462.396 155.933 465.724 154.468C474.448 150.629 482.918 148.066 490.313 150.048C491.715 150.423 493.351 151.091 494.597 151.762ZM400.749 174.226L407.331 173.063C405.986 176.894 404.481 181.04 403.423 183.914L400.749 174.226ZM435.758 182.097C432.525 193.951 428.736 208.567 426.404 217.561L426.403 217.565L426.359 217.734L426.353 217.759C425.646 220.485 425.077 222.679 424.703 224.101C429.566 220.613 434.781 216.867 439.918 213.178L439.919 213.177L440.096 213.05L440.11 213.04C454.859 202.447 468.911 192.354 472.004 190.229C478.111 186.034 485.153 182.573 491.623 179.393C493.607 178.418 495.537 177.47 497.369 176.534C501.289 174.534 504.759 172.599 507.402 170.592C510.052 168.58 511.8 166.546 512.382 164.375C512.95 162.256 512.238 160.398 510.611 158.793C508.967 157.172 506.411 155.841 503.409 154.869C497.402 152.922 489.82 152.474 484.769 153.803C478.96 155.332 469.193 160.022 459.603 165.547C450.028 171.064 440.708 177.367 435.758 182.097ZM423.426 225.018C423.435 224.986 423.443 224.955 423.451 224.924C423.779 223.703 424.482 220.991 425.426 217.349L425.43 217.334C428.798 204.343 435.227 179.547 438.609 168.356C442.029 157.039 446.736 130.666 448.722 118.533C445.315 116.526 438.813 112.747 430.959 117.073C427.626 118.909 424.78 122.466 422.368 126.916C419.962 131.356 418.019 136.63 416.463 141.826C414.909 147.019 413.746 152.118 412.896 156.205C412.528 157.978 412.216 159.571 411.956 160.898L411.956 160.901L411.955 160.905L411.954 160.908L411.953 160.913C411.62 162.618 411.372 163.883 411.2 164.525C410.227 168.157 406.014 179.792 404.038 185.134L403.727 185.019L408.23 201.337L408.176 201.487C404.843 210.642 399.669 224.624 394.98 236.818C392.636 242.915 390.411 248.568 388.598 252.947C387.692 255.137 386.887 257.012 386.22 258.467C385.559 259.908 385.018 260.973 384.64 261.515C382.72 264.269 379.167 269.161 375.575 273.758C376.061 273.552 376.757 273.254 377.616 272.875C379.369 272.102 381.799 270.994 384.504 269.654C389.926 266.969 396.417 263.372 400.804 259.689C405.174 256.021 410.466 248.726 414.87 241.604C417.066 238.052 419.032 234.56 420.541 231.61C422.005 228.745 423.022 226.426 423.413 225.062L423.397 225.039L423.426 225.018Z" fill="#B748FF" fill-opacity="0.7"/>
<path d="M66.4861 255.35C66.4637 255.361 66.4638 255.361 66.4638 255.361L66.4663 255.366L66.4739 255.381L66.5034 255.437C66.5294 255.487 66.5683 255.561 66.6197 255.657C66.7226 255.85 66.8762 256.135 67.0799 256.503C67.4872 257.241 68.095 258.316 68.8985 259.668C70.5053 262.371 72.8953 266.183 76.031 270.623C82.301 279.502 91.5599 290.903 103.51 300.976C115.44 311.032 126.496 318.511 134.571 323.478C138.609 325.962 141.903 327.817 144.188 329.052C145.33 329.67 146.221 330.133 146.827 330.441C147.13 330.596 147.361 330.711 147.518 330.789C147.596 330.827 147.655 330.857 147.695 330.876L147.741 330.898L147.752 330.904L147.756 330.906C147.756 330.906 147.757 330.906 147.974 330.456L148.123 330.146C148.191 330.005 148.19 330.005 148.19 330.005L148.177 329.998L148.134 329.978L148.052 329.937L147.961 329.893C147.875 329.85 147.763 329.794 147.629 329.726C147.526 329.675 147.41 329.616 147.281 329.55C146.682 329.245 145.798 328.786 144.663 328.173C142.393 326.945 139.116 325.099 135.095 322.626C127.054 317.68 116.039 310.229 104.154 300.211C92.2895 290.21 83.0863 278.88 76.8479 270.046C73.7294 265.63 71.3535 261.841 69.7581 259.157C68.9604 257.815 68.3579 256.749 67.9553 256.02C67.754 255.655 67.6027 255.375 67.5019 255.186C67.4647 255.116 67.4343 255.059 67.4109 255.015L67.3888 254.973L67.3609 254.919L67.3521 254.902C67.3521 254.902 67.352 254.902 66.9078 255.132L66.582 255.3L66.4861 255.35Z" fill="#B748FF" fill-opacity="0.7"/>
<path d="M171.496 219.824C177.659 213.266 187.706 208.877 195.057 206.832L195.325 207.796C188.051 209.819 178.207 214.143 172.225 220.508C169.242 223.683 167.245 227.336 166.969 231.443C166.693 235.546 168.127 240.183 172.163 245.339C180.256 255.68 192.957 262.389 205.6 266.566C218.237 270.74 230.753 272.365 238.405 272.581L238.376 273.581C230.637 273.362 218.023 271.723 205.286 267.515C192.557 263.31 179.642 256.519 171.375 245.955C167.23 240.658 165.674 235.785 165.971 231.376C166.268 226.972 168.407 223.111 171.496 219.824Z" fill="#B748FF" fill-opacity="0.7"/>
<path d="M338.464 228.088C338.842 228.926 339.878 231.341 341.025 234.346C341.637 235.95 341.542 237.236 341.119 238.199C340.703 239.146 339.987 239.738 339.422 239.997L339.004 239.088C339.364 238.923 339.893 238.503 340.204 237.797C340.507 237.105 340.622 236.095 340.091 234.702C338.95 231.715 337.921 229.318 337.552 228.499L338.464 228.088Z" fill="#B748FF" fill-opacity="0.7"/>
<path d="M316.757 213.701L316.796 222.532L324.425 226.982L315.593 227.021L311.143 234.65L311.104 225.819L303.475 221.369L312.307 221.329L316.757 213.701Z" fill="#B748FF"/>
<path fill-rule="evenodd" clip-rule="evenodd" d="M317.635 231.201L316.357 228.987L316.922 228.661L318.2 230.875L317.635 231.201Z" fill="#B748FF"/>
<path fill-rule="evenodd" clip-rule="evenodd" d="M318.27 232.307L317.844 231.57L318.409 231.243L318.835 231.981L318.27 232.307Z" fill="#B748FF"/>
<path fill-rule="evenodd" clip-rule="evenodd" d="M318.91 233.414L318.484 232.676L319.049 232.35L319.475 233.088L318.91 233.414Z" fill="#B748FF"/>
<path fill-rule="evenodd" clip-rule="evenodd" d="M309.582 217.255L310.86 219.469L311.425 219.143L310.147 216.929L309.582 217.255Z" fill="#B748FF"/>
<path fill-rule="evenodd" clip-rule="evenodd" d="M308.945 216.149L309.371 216.886L309.937 216.56L309.511 215.822L308.945 216.149Z" fill="#B748FF"/>
<path fill-rule="evenodd" clip-rule="evenodd" d="M308.302 215.042L308.728 215.779L309.293 215.453L308.867 214.715L308.302 215.042Z" fill="#B748FF"/>
<path fill-rule="evenodd" clip-rule="evenodd" d="M321.2 220.369L318.987 221.647L318.66 221.082L320.874 219.804L321.2 220.369Z" fill="#B748FF"/>
<path fill-rule="evenodd" clip-rule="evenodd" d="M322.304 219.73L321.567 220.156L321.24 219.59L321.978 219.164L322.304 219.73Z" fill="#B748FF"/>
<path fill-rule="evenodd" clip-rule="evenodd" d="M323.413 219.09L322.675 219.516L322.349 218.951L323.086 218.525L323.413 219.09Z" fill="#B748FF"/>
<path fill-rule="evenodd" clip-rule="evenodd" d="M307.253 228.419L309.467 227.141L309.141 226.576L306.927 227.854L307.253 228.419Z" fill="#B748FF"/>
<path fill-rule="evenodd" clip-rule="evenodd" d="M306.146 229.058L306.884 228.632L306.558 228.067L305.82 228.493L306.146 229.058Z" fill="#B748FF"/>
<path fill-rule="evenodd" clip-rule="evenodd" d="M305.042 229.697L305.779 229.271L305.453 228.706L304.715 229.132L305.042 229.697Z" fill="#B748FF"/>
<path d="M157.037 114.403L157.068 121.35L163.069 124.85L156.122 124.881L152.622 130.882L152.591 123.935L146.59 120.435L153.537 120.404L157.037 114.403Z" fill="#B748FF"/>
<path fill-rule="evenodd" clip-rule="evenodd" d="M157.727 128.167L156.721 126.426L157.154 126.176L158.16 127.917L157.727 128.167Z" fill="#B748FF"/>
<path fill-rule="evenodd" clip-rule="evenodd" d="M158.232 129.036L157.897 128.456L158.33 128.206L158.665 128.786L158.232 129.036Z" fill="#B748FF"/>
<path fill-rule="evenodd" clip-rule="evenodd" d="M158.737 129.907L158.402 129.326L158.835 129.076L159.17 129.657L158.737 129.907Z" fill="#B748FF"/>
<path fill-rule="evenodd" clip-rule="evenodd" d="M151.398 117.196L152.403 118.937L152.836 118.687L151.831 116.946L151.398 117.196Z" fill="#B748FF"/>
<path fill-rule="evenodd" clip-rule="evenodd" d="M150.896 116.325L151.231 116.906L151.664 116.656L151.329 116.075L150.896 116.325Z" fill="#B748FF"/>
<path fill-rule="evenodd" clip-rule="evenodd" d="M150.392 115.455L150.727 116.035L151.16 115.785L150.825 115.205L150.392 115.455Z" fill="#B748FF"/>
<path fill-rule="evenodd" clip-rule="evenodd" d="M160.524 119.643L158.783 120.648L158.533 120.215L160.274 119.21L160.524 119.643Z" fill="#B748FF"/>
<path fill-rule="evenodd" clip-rule="evenodd" d="M161.395 119.14L160.814 119.475L160.564 119.042L161.145 118.707L161.395 119.14Z" fill="#B748FF"/>
<path fill-rule="evenodd" clip-rule="evenodd" d="M162.267 118.637L161.687 118.973L161.437 118.54L162.017 118.204L162.267 118.637Z" fill="#B748FF"/>
<path fill-rule="evenodd" clip-rule="evenodd" d="M149.557 125.976L151.298 124.971L151.048 124.538L149.307 125.543L149.557 125.976Z" fill="#B748FF"/>
<path fill-rule="evenodd" clip-rule="evenodd" d="M148.688 126.479L149.269 126.143L149.019 125.71L148.438 126.046L148.688 126.479Z" fill="#B748FF"/>
<path fill-rule="evenodd" clip-rule="evenodd" d="M147.816 126.981L148.396 126.646L148.146 126.213L147.566 126.548L147.816 126.981Z" fill="#B748FF"/>
<path d="M105.527 186.999L105.551 192.299L110.13 194.97L104.829 194.994L102.158 199.573L102.134 194.272L97.5555 191.601L102.856 191.577L105.527 186.999Z" fill="#B748FF"/>
<path fill-rule="evenodd" clip-rule="evenodd" d="M106.005 197.53L105.238 196.202L105.671 195.952L106.438 197.28L106.005 197.53Z" fill="#1127E9"/>
<path fill-rule="evenodd" clip-rule="evenodd" d="M106.388 198.194L106.132 197.751L106.565 197.501L106.821 197.944L106.388 198.194Z" fill="#1127E9"/>
<path fill-rule="evenodd" clip-rule="evenodd" d="M106.773 198.858L106.517 198.415L106.95 198.165L107.206 198.608L106.773 198.858Z" fill="#1127E9"/>
<path fill-rule="evenodd" clip-rule="evenodd" d="M101.171 189.159L101.938 190.488L102.371 190.238L101.604 188.909L101.171 189.159Z" fill="#1127E9"/>
<path fill-rule="evenodd" clip-rule="evenodd" d="M100.789 188.495L101.045 188.938L101.478 188.688L101.222 188.245L100.789 188.495Z" fill="#1127E9"/>
<path fill-rule="evenodd" clip-rule="evenodd" d="M100.406 187.831L100.662 188.273L101.095 188.023L100.839 187.581L100.406 187.831Z" fill="#1127E9"/>
<path fill-rule="evenodd" clip-rule="evenodd" d="M108.219 191.047L106.891 191.814L106.641 191.381L107.969 190.614L108.219 191.047Z" fill="#1127E9"/>
<path fill-rule="evenodd" clip-rule="evenodd" d="M108.881 190.664L108.438 190.919L108.188 190.486L108.631 190.231L108.881 190.664Z" fill="#1127E9"/>
<path fill-rule="evenodd" clip-rule="evenodd" d="M109.546 190.28L109.104 190.536L108.854 190.103L109.296 189.847L109.546 190.28Z" fill="#1127E9"/>
<path fill-rule="evenodd" clip-rule="evenodd" d="M99.8471 195.88L101.176 195.113L100.926 194.68L99.5971 195.447L99.8471 195.88Z" fill="#1127E9"/>
<path fill-rule="evenodd" clip-rule="evenodd" d="M99.1841 196.264L99.627 196.008L99.377 195.575L98.9341 195.831L99.1841 196.264Z" fill="#1127E9"/>
<path fill-rule="evenodd" clip-rule="evenodd" d="M98.52 196.647L98.9629 196.392L98.7129 195.958L98.27 196.214L98.52 196.647Z" fill="#1127E9"/>
<path d="M98.2568 283.727L98.3232 298.643L111.207 306.158L96.2917 306.224L88.7765 319.108L88.7101 304.193L75.8261 296.677L90.7416 296.611L98.2568 283.727Z" fill="#B748FF"/>
<path fill-rule="evenodd" clip-rule="evenodd" d="M99.9891 313.132L97.8307 309.394L98.2637 309.144L100.422 312.882L99.9891 313.132Z" fill="#B748FF"/>
<path fill-rule="evenodd" clip-rule="evenodd" d="M101.067 315.002L100.347 313.755L100.78 313.505L101.5 314.752L101.067 315.002Z" fill="#B748FF"/>
<path fill-rule="evenodd" clip-rule="evenodd" d="M102.147 316.87L101.427 315.624L101.86 315.374L102.58 316.62L102.147 316.87Z" fill="#B748FF"/>
<path fill-rule="evenodd" clip-rule="evenodd" d="M86.3891 289.58L88.5475 293.318L88.9805 293.068L86.8221 289.33L86.3891 289.58Z" fill="#B748FF"/>
<path fill-rule="evenodd" clip-rule="evenodd" d="M85.3114 287.711L86.0309 288.957L86.4639 288.707L85.7444 287.461L85.3114 287.711Z" fill="#B748FF"/>
<path fill-rule="evenodd" clip-rule="evenodd" d="M84.2313 285.842L84.9508 287.088L85.3838 286.838L84.6643 285.592L84.2313 285.842Z" fill="#B748FF"/>
<path fill-rule="evenodd" clip-rule="evenodd" d="M105.602 294.727L101.863 296.886L101.613 296.453L105.352 294.294L105.602 294.727Z" fill="#B748FF"/>
<path fill-rule="evenodd" clip-rule="evenodd" d="M107.471 293.648L106.225 294.368L105.975 293.935L107.221 293.215L107.471 293.648Z" fill="#B748FF"/>
<path fill-rule="evenodd" clip-rule="evenodd" d="M109.34 292.569L108.094 293.288L107.844 292.855L109.09 292.136L109.34 292.569Z" fill="#B748FF"/>
<path fill-rule="evenodd" clip-rule="evenodd" d="M82.0516 308.325L85.79 306.167L85.54 305.734L81.8016 307.892L82.0516 308.325Z" fill="#B748FF"/>
<path fill-rule="evenodd" clip-rule="evenodd" d="M80.1796 309.404L81.4258 308.685L81.1758 308.252L79.9296 308.971L80.1796 309.404Z" fill="#B748FF"/>
<path fill-rule="evenodd" clip-rule="evenodd" d="M78.3105 310.484L79.5566 309.765L79.3066 309.332L78.0605 310.051L78.3105 310.484Z" fill="#B748FF"/>
<path d="M279.105 309.105L279.136 316.072L285.154 319.582L278.188 319.613L274.678 325.63L274.647 318.664L268.629 315.154L275.595 315.123L279.105 309.105Z" fill="#B748FF"/>
<path fill-rule="evenodd" clip-rule="evenodd" d="M279.802 322.905L278.794 321.159L279.227 320.909L280.235 322.655L279.802 322.905Z" fill="#B748FF"/>
<path fill-rule="evenodd" clip-rule="evenodd" d="M280.306 323.779L279.97 323.197L280.403 322.947L280.739 323.529L280.306 323.779Z" fill="#B748FF"/>
<path fill-rule="evenodd" clip-rule="evenodd" d="M280.81 324.652L280.474 324.07L280.907 323.82L281.243 324.402L280.81 324.652Z" fill="#B748FF"/>
<path fill-rule="evenodd" clip-rule="evenodd" d="M273.45 311.905L274.458 313.651L274.891 313.401L273.883 311.655L273.45 311.905Z" fill="#B748FF"/>
<path fill-rule="evenodd" clip-rule="evenodd" d="M272.948 311.033L273.284 311.615L273.717 311.365L273.381 310.783L272.948 311.033Z" fill="#B748FF"/>
<path fill-rule="evenodd" clip-rule="evenodd" d="M272.441 310.16L272.777 310.742L273.21 310.492L272.874 309.91L272.441 310.16Z" fill="#B748FF"/>
<path fill-rule="evenodd" clip-rule="evenodd" d="M282.602 314.359L280.856 315.367L280.606 314.934L282.352 313.926L282.602 314.359Z" fill="#B748FF"/>
<path fill-rule="evenodd" clip-rule="evenodd" d="M283.475 313.854L282.893 314.19L282.643 313.757L283.225 313.421L283.475 313.854Z" fill="#B748FF"/>
<path fill-rule="evenodd" clip-rule="evenodd" d="M284.347 313.35L283.765 313.686L283.515 313.253L284.097 312.917L284.347 313.35Z" fill="#B748FF"/>
<path fill-rule="evenodd" clip-rule="evenodd" d="M271.604 320.709L273.35 319.701L273.1 319.268L271.354 320.276L271.604 320.709Z" fill="#B748FF"/>
<path fill-rule="evenodd" clip-rule="evenodd" d="M270.729 321.213L271.311 320.877L271.061 320.444L270.479 320.78L270.729 321.213Z" fill="#B748FF"/>
<path fill-rule="evenodd" clip-rule="evenodd" d="M269.856 321.717L270.438 321.381L270.188 320.948L269.606 321.284L269.856 321.717Z" fill="#B748FF"/>
</svg>
