<svg width="525" height="366" viewBox="0 0 525 366" fill="none" xmlns="http://www.w3.org/2000/svg">
<path opacity="0.3" fill-rule="evenodd" clip-rule="evenodd" d="M418.895 171.687L367.482 242.76L371.533 245.69L423.752 173.504L433.42 65.8792L566.331 -51.8063L563.017 -55.5498L430.168 62.0805L247.132 45.8135L209.351 138.5L210.001 142.881L215.501 142.881L428.179 68.3383L418.895 171.687ZM419.462 66.1487L215.501 137.5L250.263 51.1115L419.462 66.1487Z" fill="#8029B0"/>
<path d="M301.102 109.334C301.594 107.498 303.481 106.408 305.318 106.9C307.154 107.392 308.243 109.279 307.751 111.115C307.259 112.951 305.372 114.041 303.536 113.549C301.7 113.057 300.61 111.17 301.102 109.334Z" fill="#B748FF"/>
<path d="M302.058 52.5806C302.55 50.7446 304.438 49.655 306.274 50.147C308.11 50.639 309.199 52.5261 308.707 54.3621C308.215 56.1981 306.328 57.2877 304.492 56.7958C302.656 56.3038 301.566 54.4166 302.058 52.5806Z" fill="#B748FF"/>
<path fill-rule="evenodd" clip-rule="evenodd" d="M306.726 318.095C304.479 319.943 301.955 321.712 299.746 322.707C298.64 323.206 297.649 323.494 296.832 323.522C296.028 323.549 295.434 323.327 295.023 322.844C293.01 320.481 291.2 318.171 289.867 315.217C288.536 312.268 287.669 308.649 287.589 303.669C287.405 292.262 294.364 282.058 302.755 273.567C308.619 267.634 315.104 262.608 320.258 258.614C322.487 256.887 324.467 255.352 326.04 254.021C327.249 252.997 328.635 251.894 330.133 250.702C334.955 246.864 340.936 242.104 345.906 236.108C352.442 228.222 357.289 218.137 355.607 205.055C354.746 198.363 349.727 193.372 342.482 189.663C335.231 185.95 325.648 183.465 315.438 181.821C295.013 178.532 271.933 178.59 259.607 179.034C250.686 179.355 236.936 181.082 220.65 183.127C218.9 183.347 217.12 183.571 215.314 183.796C196.858 186.104 175.612 188.659 154.546 190.037C154.503 189.122 154.438 188.209 154.353 187.3C153.974 183.213 153.215 179.179 152.461 175.283L152.897 175.131C153.407 174.953 154.145 174.696 155.06 174.378C156.891 173.742 159.428 172.863 162.252 171.89C167.903 169.946 174.701 167.629 179.304 166.14C183.893 164.655 190.545 162.947 196.06 161.608C198.815 160.939 201.283 160.363 203.062 159.954C203.877 159.767 204.548 159.614 205.035 159.505C206.151 160.916 207.621 162.403 209.073 163.709C211.008 165.451 212.974 166.929 214.109 167.5L214.559 166.606C213.549 166.098 211.664 164.696 209.742 162.966C208.314 161.681 206.902 160.247 205.843 158.914C205.836 158.883 205.829 158.851 205.821 158.816C205.713 158.328 205.712 158.328 205.712 158.328L205.514 158.372C205.491 158.377 205.467 158.383 205.44 158.389C205.239 158.115 205.055 157.847 204.892 157.588C204.493 156.954 204.051 156.211 203.579 155.416L203.578 155.415C202.804 154.114 201.947 152.672 201.06 151.341C199.631 149.196 198.019 147.166 196.336 146.262L195.863 147.143C197.301 147.915 198.793 149.742 200.227 151.895C201.108 153.217 201.929 154.598 202.687 155.875L202.688 155.876C203.165 156.678 203.617 157.44 204.045 158.12C204.15 158.287 204.262 158.456 204.381 158.627C203.954 158.724 203.435 158.842 202.838 158.979C201.056 159.389 198.584 159.966 195.824 160.636C190.308 161.975 183.624 163.691 178.997 165.189C174.383 166.681 167.577 169 161.927 170.945C159.101 171.917 156.563 172.797 154.732 173.433C153.817 173.751 153.078 174.009 152.568 174.186L152.268 174.291C152.214 174.007 152.159 173.725 152.104 173.443C151.258 169.053 150.497 164.865 150.363 160.939C151.738 159.647 153.839 157.498 155.894 155.041C158.029 152.488 160.141 149.571 161.324 146.918C161.717 146.039 162.166 145.026 162.652 143.927L183.334 132.919L182.864 132.036L163.305 142.447C165.56 137.33 168.322 131.001 169.746 127.729L195.749 107.912L193.234 112.53L194.113 113.008L198.266 105.38C198.647 104.679 199.153 103.96 199.717 103.197C199.86 103.003 200.007 102.806 200.157 102.605L200.163 102.597C200.593 102.021 201.041 101.421 201.464 100.804C202.611 99.1309 203.642 97.2411 203.798 95.0445L202.801 94.9735C202.664 96.9006 201.756 98.6099 200.64 100.239C200.229 100.838 199.799 101.413 199.372 101.984C199.218 102.191 199.064 102.397 198.912 102.603C198.346 103.37 197.805 104.136 197.388 104.902L196.919 105.763L168.932 127.092L168.88 127.211C167.02 131.489 162.721 141.336 160.411 146.511C159.284 149.036 157.244 151.869 155.127 154.4C153.016 156.924 150.855 159.118 149.516 160.362L149.35 160.516L149.356 160.742C149.471 164.826 150.261 169.167 151.123 173.632C151.19 173.984 151.259 174.337 151.327 174.69L151.344 174.777C152.142 178.894 152.96 183.116 153.357 187.392C154.223 196.719 153.08 206.248 145.327 215.284C143.238 217.718 140.612 218.47 138.147 218.417C135.77 218.367 133.561 217.566 132.197 216.813L117.819 164.705C121.152 155.552 126.292 141.661 130.953 129.541C133.296 123.447 135.517 117.803 137.326 113.435C138.23 111.251 139.03 109.388 139.689 107.95C140.355 106.498 140.862 105.513 141.18 105.057C144.668 100.054 153.455 88.1291 158.086 83.6567C158.987 82.7873 161.131 81.1884 164.06 79.1459C166.976 77.1131 170.634 74.6647 174.533 72.1051C182.04 67.1773 190.431 61.8434 196.113 58.281L196.121 58.2936C210.255 49.1969 212.83 48.0919 225.237 42.7663L225.434 42.6818C233.252 39.3261 250.826 35.0266 269.117 31.4344C287.396 27.8444 306.308 24.9768 316.777 24.4672C317.673 24.4236 318.67 24.3823 319.759 24.3371C327.25 24.0266 339.085 23.536 352.051 20.8925C366.902 17.8647 383.284 12.0043 396.371 0.315489C405.363 -7.715 444.298 -41.6313 465.475 -59.5769L465.483 -59.5838L540.519 -125.955L539.856 -126.704L464.828 -60.3398L464.825 -60.3364C443.641 -42.3852 404.704 -8.46696 395.705 -0.430334C382.8 11.0957 366.609 16.9037 351.851 19.9127C338.97 22.5388 327.218 23.0266 319.724 23.3376L319.718 23.3379C318.628 23.3831 317.628 23.4246 316.729 23.4684C306.183 23.9817 287.212 26.8615 268.924 30.4531C250.647 34.0425 232.97 38.3588 225.04 41.7629L224.886 41.8286C212.592 47.1057 209.868 48.2751 196.234 57.032L196.231 57.0271C190.548 60.584 181.79 66.1452 173.984 71.2691C170.082 73.8309 166.415 76.2851 163.488 78.3256C160.575 80.3565 158.36 82.0019 157.392 82.9373C155.426 84.8358 152.742 88.0313 150.028 91.4737L150.02 91.4526C149.831 90.9895 149.831 90.9896 149.831 90.9896L149.818 90.9949L149.78 91.0104L149.632 91.0714L149.53 91.1137C149.467 91.1398 149.395 91.17 149.314 91.2041C149.239 91.2356 149.156 91.2704 149.066 91.3085C148.574 91.5161 147.862 91.8208 146.98 92.2096C145.217 92.9871 142.774 94.1015 140.052 95.4495C134.619 98.1402 128.037 101.781 123.553 105.545C119.05 109.325 113.688 116.742 109.28 123.87C107.07 127.442 105.091 130.959 103.569 133.935C102.2 136.612 101.185 138.882 100.715 140.368C95.5986 144.037 90.0515 148.022 84.5919 151.943L84.3823 152.093L84.298 152.154C69.5519 162.745 55.5146 172.827 52.4297 174.946C46.3885 179.096 39.4401 182.512 32.9823 185.686L32.9742 185.69L32.9727 185.691C30.9801 186.67 29.0343 187.627 27.1762 188.575C23.2499 190.578 19.7114 192.547 16.9937 194.611C14.2841 196.669 12.3206 198.872 11.6522 201.366C10.9695 203.914 11.8698 206.127 13.6868 207.919C15.4868 209.694 18.2073 211.086 21.2827 212.083C23.3336 212.747 25.5662 213.243 27.8268 213.558C27.9476 213.735 28.1155 213.904 28.2994 214.061C28.7017 214.404 29.277 214.768 29.9291 215.119C31.2379 215.823 32.9459 216.521 34.4279 216.918C42.1889 218.997 50.948 216.289 59.6784 212.447C63.027 210.973 66.3946 209.321 69.716 207.692L69.717 207.691C70.7347 207.192 71.748 206.695 72.755 206.206C76.7567 204.262 80.6641 202.441 84.3961 201.081C81.0644 213.889 76.9975 236.839 75.2357 247.644L75.1806 247.982L75.4759 248.155C75.5618 248.206 75.6503 248.258 75.7414 248.312C79.1344 250.312 86.1201 254.431 94.523 249.803C98.1042 247.83 101.064 244.075 103.511 239.56C105.963 235.036 107.929 229.69 109.495 224.461C111.061 219.23 112.23 214.099 113.083 209.999C113.464 208.164 113.781 206.546 114.04 205.218L114.041 205.214L114.042 205.211L114.043 205.206C114.366 203.552 114.601 202.349 114.766 201.734C115.17 200.228 116.146 197.302 117.29 194.019L124.518 192.742L131.343 217.475L131.519 217.578C132.981 218.427 135.444 219.36 138.125 219.417C140.823 219.474 143.762 218.643 146.086 215.935C153.03 207.842 154.814 199.352 154.583 191.037C175.691 189.657 196.974 187.097 215.438 184.789C217.24 184.563 219.015 184.34 220.76 184.121C237.067 182.074 250.77 180.353 259.643 180.033C271.945 179.59 294.949 179.535 315.279 182.808C325.448 184.445 334.911 186.91 342.026 190.553C349.148 194.199 353.816 198.97 354.615 205.183C356.252 217.912 351.552 227.728 345.136 235.469C340.24 241.377 334.38 246.041 329.567 249.872L329.564 249.874C328.049 251.08 326.638 252.204 325.394 253.257C323.872 254.545 321.927 256.053 319.722 257.762C314.552 261.77 307.955 266.883 302.044 272.864C293.603 281.405 286.398 291.861 286.589 303.685C286.671 308.78 287.56 312.536 288.956 315.628C290.349 318.716 292.235 321.114 294.261 323.493C294.923 324.27 295.85 324.556 296.866 324.521C297.869 324.487 298.997 324.143 300.158 323.619C302.484 322.57 305.088 320.737 307.361 318.867C311.683 315.314 319.624 309.424 328.209 303.726C336.8 298.024 346 292.538 352.85 289.771C353.47 289.52 354.298 289.028 355.291 288.348C356.291 287.662 357.485 286.767 358.844 285.69C361.561 283.536 364.956 280.641 368.815 277.211C376.532 270.352 386.118 261.339 395.875 251.801C415.376 232.739 435.608 211.532 442.953 201.221C455.459 183.665 460.211 173.851 463.088 166.07C463.954 163.727 464.646 161.584 465.326 159.479C466.908 154.578 468.423 149.886 471.912 143.373C480.172 127.954 495.722 110.802 512.267 95.0934C528.802 79.3935 546.291 65.1708 558.391 55.6075L558.4 55.5999L624.943 0.327203L624.304 -0.442035L557.771 54.823L557.766 54.8263C545.658 64.396 528.144 78.6391 511.578 94.3682C495.02 110.09 479.37 127.333 471.031 142.901C467.498 149.496 465.943 154.31 464.348 159.246C463.674 161.335 462.992 163.446 462.15 165.724C459.312 173.399 454.609 183.134 442.138 200.641C434.855 210.867 414.689 232.012 395.176 251.086C385.426 260.617 375.852 269.618 368.15 276.464C364.299 279.887 360.919 282.768 358.222 284.906C356.874 285.975 355.7 286.855 354.726 287.523C353.744 288.196 352.99 288.635 352.475 288.843C345.526 291.651 336.255 297.185 327.656 302.893C319.05 308.605 311.08 314.515 306.726 318.095ZM30.4029 214.238C30.1028 214.077 29.8305 213.918 29.5925 213.766C33.5283 214.147 37.4282 213.969 40.486 213.164C46.4332 211.599 56.298 206.849 65.896 201.319C74.7786 196.201 83.5015 190.376 88.7459 185.718C87.4983 190.263 86.3533 194.312 85.4337 197.355C85.1971 198.138 84.9545 198.992 84.7071 199.907C80.7233 201.309 76.5524 203.249 72.3181 205.306C71.303 205.799 70.2845 206.299 69.2637 206.8C65.9458 208.427 62.6037 210.067 59.2755 211.532C50.5518 215.371 42.0821 217.934 34.6867 215.952C33.2855 215.577 31.6493 214.909 30.4029 214.238ZM124.251 191.774L117.669 192.937C119.014 189.106 120.519 184.96 121.577 182.086L124.251 191.774ZM89.2425 183.903C92.4746 172.049 96.2642 157.433 98.5959 148.439L98.597 148.435L98.6407 148.266L98.6472 148.241C99.3541 145.515 99.9231 143.321 100.297 141.899C95.4344 145.387 90.2186 149.133 85.082 152.822L85.0812 152.823L84.9038 152.95L84.8901 152.96C70.1407 163.553 56.0892 173.646 52.996 175.771C46.8885 179.966 39.8466 183.427 33.3771 186.607C31.3933 187.582 29.4634 188.53 27.6307 189.466C23.7114 191.466 20.2408 193.401 17.5984 195.408C14.9478 197.42 13.2 199.454 12.6181 201.625C12.0503 203.744 12.7621 205.602 14.3891 207.207C16.0331 208.828 18.5887 210.159 21.5909 211.131C27.5982 213.078 35.1799 213.526 40.2314 212.197C46.0404 210.668 55.8068 205.978 65.3968 200.453C74.9723 194.936 84.2918 188.633 89.2425 183.903ZM101.574 140.982C101.565 141.014 101.557 141.045 101.549 141.076C101.221 142.297 100.518 145.009 99.5741 148.651L99.57 148.666C96.202 161.657 89.7734 186.453 86.391 197.644C82.9706 208.961 78.2636 235.334 76.2778 247.467C79.6847 249.474 86.1871 253.253 94.0405 248.927C97.374 247.091 100.22 243.534 102.632 239.084C105.038 234.644 106.981 229.37 108.537 224.174C110.091 218.981 111.254 213.882 112.104 209.795C112.472 208.022 112.784 206.429 113.044 205.102L113.044 205.099L113.045 205.095L113.046 205.092L113.047 205.087C113.38 203.382 113.628 202.117 113.8 201.475C114.773 197.843 118.986 186.208 120.962 180.866L121.273 180.981L116.77 164.663L116.824 164.513C120.157 155.358 125.331 141.376 130.02 129.182C132.364 123.085 134.589 117.432 136.402 113.053C137.308 110.863 138.113 108.988 138.78 107.533C139.441 106.092 139.982 105.027 140.36 104.485C142.28 101.731 145.833 96.8386 149.425 92.2422C148.939 92.4477 148.243 92.7459 147.384 93.1246C145.631 93.8976 143.201 95.0056 140.496 96.3456C135.074 99.0306 128.583 102.628 124.196 106.311C119.826 109.979 114.534 117.274 110.13 124.396C107.934 127.948 105.968 131.44 104.459 134.39C102.995 137.255 101.978 139.574 101.587 140.938L101.603 140.961L101.574 140.982Z" fill="#B748FF" fill-opacity="0.7"/>
<path d="M458.514 110.65C458.536 110.639 458.536 110.639 458.536 110.639L458.534 110.634L458.526 110.619L458.497 110.563C458.471 110.513 458.432 110.439 458.38 110.343C458.277 110.15 458.124 109.865 457.92 109.497C457.513 108.759 456.905 107.684 456.102 106.332C454.495 103.629 452.105 99.8171 448.969 95.3768C442.699 86.4983 433.44 75.0972 421.49 65.0244C409.56 54.9684 398.504 47.4886 390.429 42.5219C386.391 40.0385 383.097 38.183 380.812 36.9477C379.67 36.3301 378.779 35.8674 378.173 35.5588C377.87 35.4045 377.639 35.2887 377.482 35.2112C377.404 35.1725 377.345 35.1434 377.305 35.1239L377.259 35.1018L377.248 35.0961L377.244 35.0942C377.244 35.0942 377.243 35.094 377.026 35.5445L376.877 35.8541C376.809 35.995 376.81 35.9953 376.81 35.9953L376.823 36.0016L376.866 36.0225L376.948 36.0626L377.039 36.1074C377.125 36.1505 377.237 36.2059 377.371 36.2737C377.474 36.3252 377.59 36.3839 377.719 36.4498C378.318 36.7549 379.202 37.2138 380.337 37.8274C382.607 39.0547 385.884 40.9009 389.905 43.3738C397.946 48.3197 408.961 55.771 420.846 65.789C432.71 75.7901 441.914 87.1198 448.152 95.9537C451.271 100.37 453.646 104.159 455.242 106.843C456.04 108.185 456.642 109.251 457.045 109.98C457.246 110.345 457.397 110.625 457.498 110.814C457.535 110.884 457.566 110.941 457.589 110.985L457.611 111.027L457.639 111.081L457.648 111.098C457.648 111.098 457.648 111.098 458.092 110.868L458.418 110.7L458.514 110.65Z" fill="#B748FF" fill-opacity="0.7"/>
<path d="M353.504 146.176C347.341 152.734 337.294 157.123 329.943 159.168L329.675 158.204C336.949 156.181 346.793 151.857 352.775 145.492C355.758 142.317 357.755 138.664 358.031 134.557C358.307 130.454 356.873 125.817 352.837 120.661C344.744 110.32 332.043 103.611 319.4 99.4342C306.763 95.2598 294.247 93.6349 286.595 93.4191L286.624 92.4195C294.363 92.6378 306.977 94.277 319.714 98.4847C332.443 102.69 345.358 109.481 353.625 120.045C357.77 125.342 359.326 130.215 359.029 134.624C358.732 139.028 356.593 142.889 353.504 146.176Z" fill="#B748FF" fill-opacity="0.7"/>
<path d="M186.536 137.912C186.158 137.074 185.122 134.659 183.975 131.654C183.363 130.05 183.458 128.764 183.881 127.801C184.297 126.854 185.013 126.262 185.578 126.003L185.996 126.912C185.636 127.077 185.107 127.497 184.796 128.203C184.493 128.895 184.378 129.905 184.909 131.298C186.05 134.285 187.079 136.682 187.448 137.501L186.536 137.912Z" fill="#B748FF" fill-opacity="0.7"/>
<path d="M208.243 152.299L208.204 143.468L200.575 139.018L209.407 138.979L213.857 131.35L213.896 140.181L221.525 144.631L212.693 144.671L208.243 152.299Z" fill="#B748FF"/>
<path fill-rule="evenodd" clip-rule="evenodd" d="M207.365 134.799L208.643 137.013L208.078 137.339L206.8 135.125L207.365 134.799Z" fill="#B748FF"/>
<path fill-rule="evenodd" clip-rule="evenodd" d="M206.73 133.693L207.156 134.43L206.591 134.757L206.165 134.019L206.73 133.693Z" fill="#B748FF"/>
<path fill-rule="evenodd" clip-rule="evenodd" d="M206.09 132.586L206.516 133.324L205.951 133.65L205.525 132.912L206.09 132.586Z" fill="#B748FF"/>
<path fill-rule="evenodd" clip-rule="evenodd" d="M215.418 148.745L214.14 146.531L213.575 146.857L214.853 149.071L215.418 148.745Z" fill="#B748FF"/>
<path fill-rule="evenodd" clip-rule="evenodd" d="M216.055 149.851L215.629 149.114L215.063 149.44L215.489 150.178L216.055 149.851Z" fill="#B748FF"/>
<path fill-rule="evenodd" clip-rule="evenodd" d="M216.698 150.958L216.272 150.221L215.707 150.547L216.133 151.285L216.698 150.958Z" fill="#B748FF"/>
<path fill-rule="evenodd" clip-rule="evenodd" d="M203.8 145.631L206.013 144.353L206.34 144.918L204.126 146.196L203.8 145.631Z" fill="#B748FF"/>
<path fill-rule="evenodd" clip-rule="evenodd" d="M202.696 146.27L203.433 145.844L203.76 146.41L203.022 146.836L202.696 146.27Z" fill="#B748FF"/>
<path fill-rule="evenodd" clip-rule="evenodd" d="M201.587 146.91L202.325 146.484L202.651 147.049L201.914 147.475L201.587 146.91Z" fill="#B748FF"/>
<path fill-rule="evenodd" clip-rule="evenodd" d="M217.747 137.581L215.533 138.859L215.859 139.424L218.073 138.146L217.747 137.581Z" fill="#B748FF"/>
<path fill-rule="evenodd" clip-rule="evenodd" d="M218.854 136.942L218.116 137.368L218.442 137.933L219.18 137.507L218.854 136.942Z" fill="#B748FF"/>
<path fill-rule="evenodd" clip-rule="evenodd" d="M219.958 136.303L219.221 136.729L219.547 137.294L220.285 136.868L219.958 136.303Z" fill="#B748FF"/>
<path d="M367.963 251.597L367.932 244.65L361.931 241.15L368.878 241.119L372.378 235.118L372.409 242.065L378.41 245.565L371.463 245.596L367.963 251.597Z" fill="#B748FF"/>
<path fill-rule="evenodd" clip-rule="evenodd" d="M367.273 237.833L368.279 239.574L367.846 239.824L366.84 238.083L367.273 237.833Z" fill="#B748FF"/>
<path fill-rule="evenodd" clip-rule="evenodd" d="M366.768 236.964L367.103 237.544L366.67 237.794L366.335 237.214L366.768 236.964Z" fill="#B748FF"/>
<path fill-rule="evenodd" clip-rule="evenodd" d="M366.263 236.093L366.598 236.674L366.165 236.924L365.83 236.343L366.263 236.093Z" fill="#B748FF"/>
<path fill-rule="evenodd" clip-rule="evenodd" d="M373.602 248.804L372.597 247.063L372.164 247.313L373.169 249.054L373.602 248.804Z" fill="#B748FF"/>
<path fill-rule="evenodd" clip-rule="evenodd" d="M374.104 249.675L373.769 249.094L373.336 249.344L373.671 249.925L374.104 249.675Z" fill="#B748FF"/>
<path fill-rule="evenodd" clip-rule="evenodd" d="M374.608 250.545L374.273 249.965L373.84 250.215L374.175 250.795L374.608 250.545Z" fill="#B748FF"/>
<path fill-rule="evenodd" clip-rule="evenodd" d="M364.476 246.357L366.217 245.352L366.467 245.785L364.726 246.79L364.476 246.357Z" fill="#B748FF"/>
<path fill-rule="evenodd" clip-rule="evenodd" d="M363.605 246.86L364.186 246.525L364.436 246.958L363.855 247.293L363.605 246.86Z" fill="#B748FF"/>
<path fill-rule="evenodd" clip-rule="evenodd" d="M362.733 247.363L363.313 247.027L363.563 247.46L362.983 247.796L362.733 247.363Z" fill="#B748FF"/>
<path fill-rule="evenodd" clip-rule="evenodd" d="M375.443 240.024L373.702 241.029L373.952 241.462L375.693 240.457L375.443 240.024Z" fill="#B748FF"/>
<path fill-rule="evenodd" clip-rule="evenodd" d="M376.312 239.521L375.731 239.857L375.981 240.29L376.562 239.954L376.312 239.521Z" fill="#B748FF"/>
<path fill-rule="evenodd" clip-rule="evenodd" d="M377.184 239.019L376.604 239.354L376.854 239.787L377.434 239.452L377.184 239.019Z" fill="#B748FF"/>
<path d="M419.473 179.001L419.449 173.701L414.87 171.03L420.171 171.006L422.842 166.427L422.866 171.728L427.445 174.399L422.144 174.423L419.473 179.001Z" fill="#B748FF"/>
<path fill-rule="evenodd" clip-rule="evenodd" d="M418.995 168.47L419.762 169.798L419.329 170.048L418.562 168.72L418.995 168.47Z" fill="#1127E9"/>
<path fill-rule="evenodd" clip-rule="evenodd" d="M418.612 167.806L418.868 168.249L418.435 168.499L418.179 168.056L418.612 167.806Z" fill="#1127E9"/>
<path fill-rule="evenodd" clip-rule="evenodd" d="M418.227 167.142L418.483 167.585L418.05 167.835L417.794 167.392L418.227 167.142Z" fill="#1127E9"/>
<path fill-rule="evenodd" clip-rule="evenodd" d="M423.829 176.841L423.062 175.512L422.629 175.762L423.396 177.091L423.829 176.841Z" fill="#1127E9"/>
<path fill-rule="evenodd" clip-rule="evenodd" d="M424.211 177.505L423.955 177.062L423.522 177.312L423.778 177.755L424.211 177.505Z" fill="#1127E9"/>
<path fill-rule="evenodd" clip-rule="evenodd" d="M424.594 178.169L424.338 177.727L423.905 177.977L424.161 178.419L424.594 178.169Z" fill="#1127E9"/>
<path fill-rule="evenodd" clip-rule="evenodd" d="M416.781 174.953L418.109 174.186L418.359 174.619L417.031 175.386L416.781 174.953Z" fill="#1127E9"/>
<path fill-rule="evenodd" clip-rule="evenodd" d="M416.119 175.336L416.562 175.081L416.812 175.514L416.369 175.769L416.119 175.336Z" fill="#1127E9"/>
<path fill-rule="evenodd" clip-rule="evenodd" d="M415.454 175.72L415.896 175.464L416.146 175.897L415.704 176.153L415.454 175.72Z" fill="#1127E9"/>
<path fill-rule="evenodd" clip-rule="evenodd" d="M425.153 170.12L423.824 170.887L424.074 171.32L425.403 170.553L425.153 170.12Z" fill="#1127E9"/>
<path fill-rule="evenodd" clip-rule="evenodd" d="M425.816 169.736L425.373 169.992L425.623 170.425L426.066 170.169L425.816 169.736Z" fill="#1127E9"/>
<path fill-rule="evenodd" clip-rule="evenodd" d="M426.48 169.353L426.037 169.608L426.287 170.042L426.73 169.786L426.48 169.353Z" fill="#1127E9"/>
<path d="M426.743 82.2729L426.677 67.3575L413.793 59.8422L428.708 59.7758L436.224 46.8918L436.29 61.8073L449.174 69.3226L434.258 69.389L426.743 82.2729Z" fill="#B748FF"/>
<path fill-rule="evenodd" clip-rule="evenodd" d="M425.011 52.8675L427.169 56.606L426.736 56.856L424.578 53.1175L425.011 52.8675Z" fill="#B748FF"/>
<path fill-rule="evenodd" clip-rule="evenodd" d="M423.933 50.9985L424.653 52.2446L424.22 52.4946L423.5 51.2485L423.933 50.9985Z" fill="#B748FF"/>
<path fill-rule="evenodd" clip-rule="evenodd" d="M422.853 49.1298L423.573 50.376L423.14 50.626L422.42 49.3798L422.853 49.1298Z" fill="#B748FF"/>
<path fill-rule="evenodd" clip-rule="evenodd" d="M438.611 76.4201L436.453 72.6816L436.02 72.9316L438.178 76.6701L438.611 76.4201Z" fill="#B748FF"/>
<path fill-rule="evenodd" clip-rule="evenodd" d="M439.689 78.2891L438.969 77.043L438.536 77.293L439.256 78.5391L439.689 78.2891Z" fill="#B748FF"/>
<path fill-rule="evenodd" clip-rule="evenodd" d="M440.769 80.1583L440.049 78.9121L439.616 79.1621L440.336 80.4083L440.769 80.1583Z" fill="#B748FF"/>
<path fill-rule="evenodd" clip-rule="evenodd" d="M419.398 71.2727L423.137 69.1144L423.387 69.5474L419.648 71.7058L419.398 71.2727Z" fill="#B748FF"/>
<path fill-rule="evenodd" clip-rule="evenodd" d="M417.529 72.3519L418.775 71.6324L419.025 72.0654L417.779 72.7849L417.529 72.3519Z" fill="#B748FF"/>
<path fill-rule="evenodd" clip-rule="evenodd" d="M415.66 73.431L416.906 72.7115L417.156 73.1445L415.91 73.864L415.66 73.431Z" fill="#B748FF"/>
<path fill-rule="evenodd" clip-rule="evenodd" d="M442.948 57.6747L439.21 59.8331L439.46 60.2661L443.198 58.1077L442.948 57.6747Z" fill="#B748FF"/>
<path fill-rule="evenodd" clip-rule="evenodd" d="M444.82 56.5956L443.574 57.315L443.824 57.748L445.07 57.0286L444.82 56.5956Z" fill="#B748FF"/>
<path fill-rule="evenodd" clip-rule="evenodd" d="M446.69 55.516L445.443 56.2354L445.693 56.6685L446.94 55.949L446.69 55.516Z" fill="#B748FF"/>
<path d="M245.895 56.8945L245.864 49.9283L239.846 46.4183L246.812 46.3873L250.322 40.3699L250.353 47.3361L256.371 50.8461L249.405 50.8771L245.895 56.8945Z" fill="#B748FF"/>
<path fill-rule="evenodd" clip-rule="evenodd" d="M245.198 43.0948L246.206 44.8408L245.773 45.0908L244.765 43.3448L245.198 43.0948Z" fill="#B748FF"/>
<path fill-rule="evenodd" clip-rule="evenodd" d="M244.694 42.2212L245.03 42.8032L244.597 43.0532L244.261 42.4712L244.694 42.2212Z" fill="#B748FF"/>
<path fill-rule="evenodd" clip-rule="evenodd" d="M244.19 41.3482L244.526 41.9302L244.093 42.1802L243.757 41.5982L244.19 41.3482Z" fill="#B748FF"/>
<path fill-rule="evenodd" clip-rule="evenodd" d="M251.55 54.0947L250.542 52.3486L250.109 52.5986L251.117 54.3447L251.55 54.0947Z" fill="#B748FF"/>
<path fill-rule="evenodd" clip-rule="evenodd" d="M252.052 54.9673L251.716 54.3853L251.283 54.6353L251.619 55.2173L252.052 54.9673Z" fill="#B748FF"/>
<path fill-rule="evenodd" clip-rule="evenodd" d="M252.559 55.8403L252.223 55.2583L251.79 55.5083L252.126 56.0903L252.559 55.8403Z" fill="#B748FF"/>
<path fill-rule="evenodd" clip-rule="evenodd" d="M242.398 51.6415L244.144 50.6334L244.394 51.0664L242.648 52.0745L242.398 51.6415Z" fill="#B748FF"/>
<path fill-rule="evenodd" clip-rule="evenodd" d="M241.525 52.1462L242.107 51.8102L242.357 52.2432L241.775 52.5792L241.525 52.1462Z" fill="#B748FF"/>
<path fill-rule="evenodd" clip-rule="evenodd" d="M240.653 52.6501L241.235 52.3141L241.485 52.7471L240.903 53.0831L240.653 52.6501Z" fill="#B748FF"/>
<path fill-rule="evenodd" clip-rule="evenodd" d="M253.396 45.2908L251.65 46.2989L251.9 46.7319L253.646 45.7239L253.396 45.2908Z" fill="#B748FF"/>
<path fill-rule="evenodd" clip-rule="evenodd" d="M254.271 44.7871L253.689 45.1231L253.939 45.5562L254.521 45.2201L254.271 44.7871Z" fill="#B748FF"/>
<path fill-rule="evenodd" clip-rule="evenodd" d="M255.144 44.2827L254.562 44.6187L254.812 45.0518L255.394 44.7157L255.144 44.2827Z" fill="#B748FF"/>
</svg>
