<svg width="214" height="165" viewBox="0 0 214 165" fill="none" xmlns="http://www.w3.org/2000/svg">
<path d="M128.642 -36.9791L88.7447 -26.2887L89.0035 -25.3228L128.9 -36.0131L128.642 -36.9791Z" fill="#B748FF" fill-opacity="0.7"/>
<path d="M124.788 -79.8528L118.567 -76.2611L119.067 -75.3951L125.288 -78.9868L124.788 -79.8528Z" fill="#B748FF" fill-opacity="0.7"/>
<path d="M-76.0311 99.4995L-79.6228 105.721L-78.7567 106.221L-75.165 99.9995L-76.0311 99.4995Z" fill="#B748FF" fill-opacity="0.7"/>
<path d="M-82.616 110.907L-91.8945 126.978L-91.0285 127.478L-81.75 111.407L-82.616 110.907Z" fill="#B748FF" fill-opacity="0.7"/>
<path d="M-104.465 148.751L-95.1864 132.68L-94.3203 133.18L-103.599 149.251L-104.465 148.751Z" fill="#B748FF" fill-opacity="0.7"/>
<path d="M97.312 -63.9923L113.383 -73.2708L113.883 -72.4047L97.812 -63.1262L97.312 -63.9923Z" fill="#B748FF" fill-opacity="0.7"/>
<path d="M91.6094 -60.6966L75.5385 -51.418L76.0385 -50.552L92.1094 -59.8305L91.6094 -60.6966Z" fill="#B748FF" fill-opacity="0.7"/>
<path d="M11.3614 -107.827L10.122 -103.202L11.0879 -102.943L12.3274 -107.569L11.3614 -107.827Z" fill="#B748FF" fill-opacity="0.7"/>
<path d="M12.4462 -111.874L15.6998 -124.016L16.6657 -123.757L13.4121 -111.615L12.4462 -111.874Z" fill="#B748FF" fill-opacity="0.7"/>
<path d="M20.0377 -140.207L16.7841 -128.065L17.75 -127.806L21.0036 -139.949L20.0377 -140.207Z" fill="#B748FF" fill-opacity="0.7"/>
<path d="M-146.355 76.4802L-142.207 74.0857L-141.707 74.9518L-145.855 77.3462L-146.355 76.4802Z" fill="#B748FF" fill-opacity="0.7"/>
<path d="M-127.691 65.7045L-138.578 71.99L-138.078 72.856L-127.191 66.5705L-127.691 65.7045Z" fill="#B748FF" fill-opacity="0.7"/>
<path d="M-124.063 63.6091L-113.176 57.3237L-112.676 58.1897L-123.563 64.4751L-124.063 63.6091Z" fill="#B748FF" fill-opacity="0.7"/>
<path d="M49.0703 -116.791L58.3488 -132.862L59.2148 -132.362L49.9363 -116.291L49.0703 -116.791Z" fill="#B748FF" fill-opacity="0.7"/>
<path d="M45.7775 -111.089L36.499 -95.0185L37.365 -94.5185L46.6436 -110.589L45.7775 -111.089Z" fill="#B748FF" fill-opacity="0.7"/>
<path d="M-110.537 94.7883L-97.4151 81.6665L-96.708 82.3736L-109.83 95.4954L-110.537 94.7883Z" fill="#B748FF" fill-opacity="0.7"/>
<path d="M-115.193 99.4458L-128.315 112.568L-127.608 113.275L-114.486 100.153L-115.193 99.4458Z" fill="#B748FF" fill-opacity="0.7"/>
<path d="M68.9648 -84.7125L62.1923 -77.94L62.8994 -77.2329L69.6719 -84.0054L68.9648 -84.7125Z" fill="#B748FF" fill-opacity="0.7"/>
<path d="M74.8905 -90.6411L93.0917 -108.842L93.7988 -108.135L75.5977 -89.934L74.8905 -90.6411Z" fill="#B748FF" fill-opacity="0.7"/>
<path d="M117.219 -132.965L99.4413 -115.187L100.148 -114.48L117.926 -132.258L117.219 -132.965Z" fill="#B748FF" fill-opacity="0.7"/>
<path d="M-197.555 50.353L-188.303 47.874L-188.044 48.84L-197.296 51.3189L-197.555 50.353Z" fill="#B748FF" fill-opacity="0.7"/>
<path d="M-155.345 39.0454L-180.208 45.7074L-179.949 46.6734L-155.086 40.0113L-155.345 39.0454Z" fill="#B748FF" fill-opacity="0.7"/>
<path d="M-146.672 36.7221L-122.387 30.2149L-122.128 31.1809L-146.413 37.688L-146.672 36.7221Z" fill="#B748FF" fill-opacity="0.7"/>
<path d="M-57.8418 148.851L-47.1515 108.954L-46.1856 109.212L-56.8759 149.109L-57.8418 148.851Z" fill="#B748FF" fill-opacity="0.7"/>
<path d="M-79.6247 -98.6706L-76.033 -92.4497L-75.167 -92.9497L-78.7587 -99.1706L-79.6247 -98.6706Z" fill="#B748FF" fill-opacity="0.7"/>
<path d="M-82.6151 -103.857L-91.8936 -119.928L-91.0275 -120.428L-81.749 -104.357L-82.6151 -103.857Z" fill="#B748FF" fill-opacity="0.7"/>
<path d="M-104.465 -141.7L-95.1863 -125.629L-94.3203 -126.129L-103.599 -142.2L-104.465 -141.7Z" fill="#B748FF" fill-opacity="0.7"/>
<path d="M124.788 86.9037L118.567 83.312L119.067 82.446L125.288 86.0376L124.788 86.9037Z" fill="#B748FF" fill-opacity="0.7"/>
<path d="M97.312 71.0392L113.383 80.3177L113.883 79.4517L97.812 70.1732L97.312 71.0392Z" fill="#B748FF" fill-opacity="0.7"/>
<path d="M91.6094 67.7484L75.5385 58.4699L76.0385 57.6039L92.1094 66.8824L91.6094 67.7484Z" fill="#B748FF" fill-opacity="0.7"/>
<path d="M11.3614 114.878L10.122 110.253L11.0879 109.994L12.3273 114.619L11.3614 114.878Z" fill="#B748FF" fill-opacity="0.7"/>
<path d="M12.4462 118.923L15.6998 131.066L16.6657 130.807L13.4121 118.665L12.4462 118.923Z" fill="#B748FF" fill-opacity="0.7"/>
<path d="M20.0376 147.258L16.7841 135.116L17.75 134.857L21.0036 147L20.0376 147.258Z" fill="#B748FF" fill-opacity="0.7"/>
<path d="M-146.354 -69.4303L-142.207 -67.0359L-141.707 -67.9019L-145.854 -70.2964L-146.354 -69.4303Z" fill="#B748FF" fill-opacity="0.7"/>
<path d="M-127.691 -58.6547L-138.578 -64.9401L-138.078 -65.8061L-127.191 -59.5207L-127.691 -58.6547Z" fill="#B748FF" fill-opacity="0.7"/>
<path d="M-124.063 -56.5592L-113.176 -50.2738L-112.676 -51.1398L-123.563 -57.4253L-124.063 -56.5592Z" fill="#B748FF" fill-opacity="0.7"/>
<path d="M49.0693 123.839L58.3478 139.91L59.2139 139.41L49.9354 123.339L49.0693 123.839Z" fill="#B748FF" fill-opacity="0.7"/>
<path d="M45.7775 118.138L36.499 102.067L37.365 101.567L46.6435 117.638L45.7775 118.138Z" fill="#B748FF" fill-opacity="0.7"/>
<path d="M-110.537 -87.7403L-97.4151 -74.6185L-96.708 -75.3256L-109.83 -88.4474L-110.537 -87.7403Z" fill="#B748FF" fill-opacity="0.7"/>
<path d="M-115.192 -92.3988L-128.314 -105.521L-127.607 -106.228L-114.485 -93.1059L-115.192 -92.3988Z" fill="#B748FF" fill-opacity="0.7"/>
<path d="M68.9648 91.7595L62.1923 84.9869L62.8994 84.2798L69.6719 91.0524L68.9648 91.7595Z" fill="#B748FF" fill-opacity="0.7"/>
<path d="M74.8905 97.6881L93.0917 115.889L93.7988 115.182L75.5976 96.981L74.8905 97.6881Z" fill="#B748FF" fill-opacity="0.7"/>
<path d="M117.219 140.012L99.4413 122.234L100.148 121.527L117.926 139.305L117.219 140.012Z" fill="#B748FF" fill-opacity="0.7"/>
<path d="M-197.555 -43.3021L-188.303 -40.8232L-188.044 -41.7891L-197.296 -44.268L-197.555 -43.3021Z" fill="#B748FF" fill-opacity="0.7"/>
<path d="M-155.345 -31.9945L-180.208 -38.6566L-179.949 -39.6225L-155.086 -32.9604L-155.345 -31.9945Z" fill="#B748FF" fill-opacity="0.7"/>
<path d="M-146.672 -29.6712L-122.387 -23.1641L-122.128 -24.13L-146.413 -30.6372L-146.672 -29.6712Z" fill="#B748FF" fill-opacity="0.7"/>
<path d="M-57.8418 -141.8L-47.1515 -101.903L-46.1855 -102.162L-56.8759 -142.058L-57.8418 -141.8Z" fill="#B748FF" fill-opacity="0.7"/>
<path d="M128.642 44.028L88.7447 33.3376L89.0035 32.3717L128.9 43.0621L128.642 44.028Z" fill="#B748FF" fill-opacity="0.7"/>
<path fill-rule="evenodd" clip-rule="evenodd" d="M96.9049 -3.41902C96.9169 -2.73921 96.9228 -2.05795 96.9228 -1.37529C96.9228 -0.692627 96.9169 -0.0113678 96.9049 0.668442L95.9051 0.650909C95.9169 -0.0230561 95.9228 -0.698479 95.9228 -1.37529C95.9228 -2.0521 95.9169 -2.72752 95.9051 -3.40149L96.9049 -3.41902ZM96.8114 3.71763C96.7516 5.08011 96.668 6.43638 96.561 7.78603L95.5641 7.70695C95.6702 6.36904 95.7531 5.02452 95.8124 3.67381L96.8114 3.71763ZM96.561 -10.5366C96.668 -9.18696 96.7516 -7.83069 96.8114 -6.46821L95.8124 -6.4244C95.7531 -7.77511 95.6702 -9.11962 95.5641 -10.4575L96.561 -10.5366ZM96.2795 10.8228C96.1357 12.1778 95.9683 13.5257 95.7776 14.8661L94.7876 14.7252C94.9766 13.3966 95.1426 12.0605 95.2851 10.7173L96.2795 10.8228ZM95.7776 -17.6167C95.9683 -16.2763 96.1357 -14.9284 96.2795 -13.5734L95.2851 -13.4679C95.1426 -14.8111 94.9766 -16.1472 94.7876 -17.4758L95.7776 -17.6167ZM95.3066 17.8855C95.079 19.2266 94.828 20.5596 94.5541 21.8842L93.5748 21.6817C93.8463 20.3688 94.0951 19.0474 94.3207 17.7182L95.3066 17.8855ZM94.5541 -24.6348C94.828 -23.3102 95.079 -21.9772 95.3066 -20.6361L94.3207 -20.4688C94.0951 -21.798 93.8463 -23.1193 93.5748 -24.4323L94.5541 -24.6348ZM92.8917 -31.5677C93.2487 -30.2614 93.5831 -28.9457 93.8945 -27.6211L92.921 -27.3923C92.6124 -28.7053 92.2809 -30.0093 91.9271 -31.3041L92.8917 -31.5677ZM93.8945 24.8705C93.5831 26.1952 93.2487 27.5108 92.8917 28.8171L91.9271 28.5535C92.2809 27.2588 92.6124 25.9547 92.921 24.6417L93.8945 24.8705ZM90.7976 -38.3797C91.2365 -37.0971 91.6532 -35.8042 92.0473 -34.5014L91.0901 -34.2119C90.6995 -35.5032 90.2865 -36.7847 89.8514 -38.0559L90.7976 -38.3797ZM92.0473 31.7509C91.6532 33.0537 91.2365 34.3466 90.7976 35.6291L89.8514 35.3053C90.2865 34.0341 90.6995 32.7526 91.0901 31.4613L92.0473 31.7509ZM88.2799 -45.0445C88.7985 -43.7923 89.2954 -42.5288 89.7703 -41.2545L88.8332 -40.9053C88.3626 -42.1684 87.87 -43.4207 87.356 -44.6619L88.2799 -45.0445ZM89.7703 38.5039C89.2954 39.7782 88.7985 41.0417 88.2799 42.2939L87.356 41.9113C87.87 40.6702 88.3626 39.4178 88.8332 38.1547L89.7703 38.5039ZM85.3474 -51.54C85.9437 -50.3228 86.5189 -49.0934 87.0726 -47.8521L86.1594 -47.4447C85.6105 -48.675 85.0404 -49.8937 84.4494 -51.1001L85.3474 -51.54ZM87.0726 45.1015C86.5189 46.3428 85.9437 47.5723 85.3474 48.7895L84.4494 48.3496C85.0404 47.1431 85.6105 45.9245 86.1593 44.6941L87.0726 45.1015ZM82.0129 -57.8391C82.6847 -56.661 83.3361 -55.4696 83.9667 -54.2654L83.0808 -53.8015C82.4558 -54.9951 81.8101 -56.176 81.1442 -57.3438L82.0129 -57.8391ZM83.9667 51.5148C83.3361 52.719 82.6847 53.9104 82.0129 55.0886L81.1442 54.5932C81.8101 53.4254 82.4558 52.2445 83.0808 51.0509L83.9667 51.5148ZM78.2911 -63.9158C79.0356 -62.7814 79.7605 -61.6329 80.4652 -60.4707L79.6101 -59.9522C78.9116 -61.1042 78.1931 -62.2427 77.4551 -63.367L78.2911 -63.9158ZM80.4652 57.7201C79.7605 58.8824 79.0356 60.0309 78.2911 61.1652L77.4551 60.6165C78.1931 59.4921 78.9116 58.3537 79.6101 57.2017L80.4652 57.7201ZM74.1968 -69.7479C75.0105 -68.6625 75.8054 -67.5619 76.5809 -66.4468L75.7599 -65.8759C74.9912 -66.9812 74.2033 -68.0721 73.3967 -69.148L74.1968 -69.7479ZM76.5809 63.6962C75.8054 64.8114 75.0105 65.9119 74.1968 66.9973L73.3967 66.3974C74.2033 65.3215 74.9912 64.2307 75.7599 63.1253L76.5809 63.6962ZM69.7457 -75.3138C70.6259 -74.281 71.488 -73.232 72.3315 -72.1676L71.5478 -71.5465C70.7117 -72.6016 69.8571 -73.6414 68.9846 -74.6652L69.7457 -75.3138ZM72.3315 69.417C71.488 70.4815 70.6259 71.5304 69.7457 72.5632L68.9846 71.9146C69.8571 70.8908 70.7116 69.8511 71.5478 68.7959L72.3315 69.417ZM64.9565 -80.5908C65.8997 -79.6145 66.8256 -78.6213 67.7338 -77.6117L66.9903 -76.9429C66.0901 -77.9438 65.1723 -78.9283 64.2373 -79.8959L64.9565 -80.5908ZM67.7338 74.8611C66.8256 75.8708 65.8997 76.864 64.9565 77.8402L64.2373 77.1454C65.1723 76.1777 66.0901 75.1932 66.9903 74.1924L67.7338 74.8611ZM59.8473 -85.5587C60.8498 -84.6431 61.8358 -83.7096 62.805 -82.7588L62.1047 -82.045C61.144 -82.9875 60.1666 -83.9127 59.1729 -84.8203L59.8473 -85.5587ZM62.805 80.0083C61.8358 80.9591 60.8498 81.8925 59.8473 82.8081L59.1729 82.0697C60.1666 81.1622 61.144 80.2369 62.1046 79.2944L62.805 80.0083ZM54.4378 -90.1976C55.4958 -89.3463 56.5382 -88.4763 57.5646 -87.5881L56.9103 -86.832C55.8929 -87.7124 54.8596 -88.5747 53.8109 -89.4185L54.4378 -90.1976ZM57.5646 84.8376C56.5382 85.7258 55.4958 86.5957 54.4378 87.4471L53.8109 86.668C54.8596 85.8241 55.8929 84.9618 56.9102 84.0814L57.5646 84.8376ZM48.7484 -94.4889C49.8578 -93.7055 50.9526 -92.9025 52.0323 -92.0806L51.4265 -91.2849C50.3564 -92.0997 49.2712 -92.8955 48.1716 -93.672L48.7484 -94.4889ZM52.0322 89.33C50.9526 90.152 49.8578 90.9549 48.7484 91.7383L48.1716 90.9214C49.2712 90.1449 50.3564 89.3491 51.4265 88.5344L52.0322 89.33ZM42.7999 -98.4149C43.957 -97.7025 45.1003 -96.9698 46.2295 -96.2172L45.6749 -95.3851C44.5557 -96.131 43.4225 -96.8573 42.2756 -97.5634L42.7999 -98.4149ZM46.2294 93.4666C45.1003 94.2192 43.957 94.9519 42.7999 95.6644L42.2756 94.8128C43.4225 94.1067 44.5557 93.3804 45.6748 92.6345L46.2294 93.4666ZM36.6171 -101.958C37.8172 -101.32 39.0044 -100.66 40.1784 -99.9806L39.6773 -99.1152C38.5137 -99.7889 37.337 -100.442 36.1476 -101.075L36.6171 -101.958ZM40.1783 97.23C39.0044 97.9098 37.8171 98.569 36.6171 99.2071L36.1476 98.3241C37.337 97.6917 38.5137 97.0384 39.6772 96.3646L40.1783 97.23ZM30.2226 -105.102C31.4607 -104.542 32.6869 -103.959 33.9007 -103.355L33.4554 -102.46C32.2523 -103.058 31.037 -103.636 29.81 -104.191L30.2226 -105.102ZM33.9007 100.605C32.6868 101.208 31.4606 101.791 30.2226 102.352L29.81 101.441C31.037 100.885 32.2523 100.308 33.4553 99.7093L33.9007 100.605ZM23.6398 -107.836C24.9114 -107.355 26.1722 -106.851 27.4215 -106.326L27.0339 -105.404C25.7956 -105.924 24.5462 -106.424 23.2859 -106.9L23.6398 -107.836ZM27.4215 103.575C26.1721 104.1 24.9114 104.604 23.6397 105.085L23.2858 104.15C24.5461 103.673 25.7956 103.174 27.0338 102.653L27.4215 103.575ZM16.8966 -110.145C18.1976 -109.745 19.4887 -109.322 20.7694 -108.877L20.4412 -107.933C19.1719 -108.374 17.8924 -108.793 16.6029 -109.189L16.8966 -110.145ZM20.7694 106.127C19.4887 106.572 18.1976 106.994 16.8965 107.394L16.6029 106.438C17.8923 106.042 19.1719 105.623 20.4411 105.182L20.7694 106.127ZM10.0232 -112.019C11.3468 -111.703 12.6614 -111.363 13.9666 -111.001L13.6991 -110.037C12.4057 -110.396 11.1028 -110.733 9.79105 -111.046L10.0232 -112.019ZM13.9665 108.25C12.6614 108.613 11.3468 108.952 10.0232 109.268L9.79104 108.295C11.1028 107.982 12.4056 107.646 13.6991 107.287L13.9665 108.25ZM3.04236 -113.452C4.38292 -113.221 5.71543 -112.966 7.03945 -112.688L6.83392 -111.709C5.52173 -111.985 4.2011 -112.237 2.87248 -112.466L3.04236 -113.452ZM7.03942 109.937C5.7154 110.215 4.38289 110.47 3.04233 110.701L2.87246 109.716C4.20107 109.487 5.5217 109.234 6.8339 108.959L7.03942 109.937ZM-4.01854 -114.439C-2.66388 -114.294 -1.31636 -114.123 0.0235824 -113.93L-0.119423 -112.94C-1.44746 -113.132 -2.78301 -113.301 -4.12568 -113.445L-4.01854 -114.439ZM0.0235421 111.179C-1.3164 111.373 -2.66393 111.543 -4.01859 111.689L-4.12572 110.695C-2.78305 110.55 -1.4475 110.381 -0.119463 110.19L0.0235421 111.179ZM-11.1239 -114.98C-9.76135 -114.919 -8.40507 -114.834 -7.05544 -114.725L-7.13573 -113.729C-8.47344 -113.836 -9.81779 -113.92 -11.1684 -113.981L-11.1239 -114.98ZM-7.05548 111.975C-8.4051 112.083 -9.76139 112.168 -11.1239 112.229L-11.1684 111.23C-9.81783 111.17 -8.47348 111.086 -7.13577 110.978L-7.05548 111.975ZM-16.217 -115.093C-15.5343 -115.093 -14.853 -115.087 -14.1731 -115.075L-14.1909 -114.075C-14.8648 -114.087 -15.5402 -114.093 -16.217 -114.093C-16.8938 -114.093 -17.5691 -114.087 -18.243 -114.075L-18.2608 -115.075C-17.581 -115.087 -16.8997 -115.093 -16.217 -115.093ZM-14.1732 112.324C-14.853 112.336 -15.5343 112.342 -16.217 112.342C-16.8997 112.342 -17.581 112.336 -18.2609 112.324L-18.2431 111.324C-17.5691 111.336 -16.8938 111.342 -16.217 111.342C-15.5402 111.342 -14.8649 111.336 -14.191 111.324L-14.1732 112.324ZM-25.3785 -114.725C-24.0289 -114.834 -22.6726 -114.919 -21.3101 -114.98L-21.2656 -113.981C-22.6162 -113.92 -23.9605 -113.836 -25.2982 -113.729L-25.3785 -114.725ZM-21.3101 112.229C-22.6726 112.168 -24.0289 112.083 -25.3785 111.975L-25.2983 110.978C-23.9605 111.086 -22.6162 111.17 -21.2656 111.23L-21.3101 112.229ZM-32.4575 -113.93C-31.1176 -114.124 -29.7701 -114.294 -28.4154 -114.439L-28.3083 -113.445C-29.6509 -113.301 -30.9865 -113.132 -32.3145 -112.94L-32.4575 -113.93ZM-28.4154 111.689C-29.7701 111.543 -31.1176 111.373 -32.4576 111.179L-32.3146 110.19C-30.9865 110.381 -29.651 110.55 -28.3083 110.695L-28.4154 111.689ZM-39.4734 -112.688C-38.1494 -112.966 -36.8169 -113.221 -35.4763 -113.452L-35.3064 -112.466C-36.6351 -112.237 -37.9557 -111.985 -39.2679 -111.709L-39.4734 -112.688ZM-35.4763 110.701C-36.8169 110.47 -38.1494 110.215 -39.4734 109.937L-39.2679 108.959C-37.9557 109.234 -36.6351 109.487 -35.3065 109.716L-35.4763 110.701ZM-46.4005 -111.001C-45.0954 -111.363 -43.7808 -111.703 -42.4572 -112.019L-42.225 -111.046C-43.5368 -110.733 -44.8396 -110.396 -46.1331 -110.037L-46.4005 -111.001ZM-42.4572 109.268C-43.7808 108.952 -45.0954 108.613 -46.4006 108.25L-46.1331 107.287C-44.8397 107.646 -43.5368 107.982 -42.225 108.295L-42.4572 109.268ZM-53.2034 -108.877C-51.9227 -109.322 -50.6316 -109.745 -49.3305 -110.145L-49.0369 -109.189C-50.3263 -108.793 -51.6059 -108.374 -52.8751 -107.933L-53.2034 -108.877ZM-49.3305 107.394C-50.6316 106.994 -51.9227 106.572 -53.2034 106.127L-52.8751 105.182C-51.6059 105.623 -50.3263 106.042 -49.0369 106.438L-49.3305 107.394ZM-59.8555 -106.326C-58.6061 -106.851 -57.3454 -107.355 -56.0737 -107.836L-55.7198 -106.9C-56.9801 -106.424 -58.2296 -105.924 -59.4678 -105.404L-59.8555 -106.326ZM-56.0738 105.085C-57.3454 104.604 -58.6061 104.1 -59.8555 103.575L-59.4679 102.653C-58.2296 103.174 -56.9801 103.673 -55.7199 104.15L-56.0738 105.085ZM-66.3347 -103.355C-65.1208 -103.959 -63.8946 -104.542 -62.6566 -105.102L-62.244 -104.191C-63.471 -103.636 -64.6862 -103.058 -65.8893 -102.46L-66.3347 -103.355ZM-62.6566 102.352C-63.8946 101.791 -65.1208 101.208 -66.3347 100.605L-65.8893 99.7092C-64.6863 100.308 -63.471 100.885 -62.244 101.441L-62.6566 102.352ZM-72.6123 -99.9806C-71.4384 -100.66 -70.2511 -101.32 -69.0511 -101.958L-68.5816 -101.075C-69.771 -100.442 -70.9477 -99.7889 -72.1112 -99.1152L-72.6123 -99.9806ZM-69.0511 99.2071C-70.2512 98.5689 -71.4384 97.9098 -72.6123 97.23L-72.1113 96.3646C-70.9477 97.0383 -69.771 97.6917 -68.5816 98.3241L-69.0511 99.2071ZM-78.6634 -96.2172C-77.5343 -96.9698 -76.391 -97.7025 -75.2339 -98.4149L-74.7096 -97.5634C-75.8564 -96.8573 -76.9897 -96.131 -78.1088 -95.3851L-78.6634 -96.2172ZM-75.2339 95.6643C-76.391 94.9519 -77.5343 94.2192 -78.6634 93.4666L-78.1089 92.6345C-76.9897 93.3804 -75.8565 94.1067 -74.7096 94.8128L-75.2339 95.6643ZM-84.4662 -92.0806C-83.3866 -92.9026 -82.2918 -93.7055 -81.1824 -94.4889L-80.6056 -93.672C-81.7052 -92.8955 -82.7903 -92.0997 -83.8605 -91.2849L-84.4662 -92.0806ZM-81.1824 91.7383C-82.2918 90.9549 -83.3866 90.152 -84.4662 89.33L-83.8605 88.5344C-82.7904 89.3491 -81.7052 90.1449 -80.6056 90.9214L-81.1824 91.7383ZM-89.9986 -87.5882C-88.9722 -88.4764 -87.9298 -89.3463 -86.8718 -90.1976L-86.2449 -89.4185C-87.2936 -88.5747 -88.3268 -87.7124 -89.3442 -86.832L-89.9986 -87.5882ZM-86.8718 87.447C-87.9298 86.5957 -88.9722 85.7257 -89.9986 84.8376L-89.3442 84.0814C-88.3269 84.9618 -87.2936 85.8241 -86.2449 86.6679L-86.8718 87.447ZM-95.2389 -82.7589C-94.2698 -83.7096 -93.2837 -84.6431 -92.2813 -85.5587L-91.6069 -84.8203C-92.6006 -83.9128 -93.578 -82.9875 -94.5386 -82.045L-95.2389 -82.7589ZM-92.2813 82.8081C-93.2838 81.8925 -94.2698 80.959 -95.239 80.0082L-94.5386 79.2944C-93.578 80.2369 -92.6006 81.1621 -91.6069 82.0697L-92.2813 82.8081ZM-100.168 -77.6117C-99.2596 -78.6214 -98.3337 -79.6146 -97.3905 -80.5908L-96.6713 -79.896C-97.6062 -78.9283 -98.5241 -77.9438 -99.4243 -76.943L-100.168 -77.6117ZM-97.3905 77.8402C-98.3337 76.8639 -99.2596 75.8707 -100.168 74.8611L-99.4243 74.1923C-98.5241 75.1932 -97.6063 76.1777 -96.6713 77.1453L-97.3905 77.8402ZM-104.766 -72.1676C-103.922 -73.2321 -103.06 -74.281 -102.18 -75.3138L-101.419 -74.6652C-102.291 -73.6414 -103.146 -72.6017 -103.982 -71.5465L-104.766 -72.1676ZM-102.18 72.5632C-103.06 71.5304 -103.922 70.4815 -104.766 69.417L-103.982 68.7959C-103.146 69.8511 -102.291 70.8908 -101.419 71.9146L-102.18 72.5632ZM-109.015 -66.4468C-108.239 -67.562 -107.445 -68.6625 -106.631 -69.7479L-105.831 -69.148C-106.637 -68.0721 -107.425 -66.9813 -108.194 -65.8759L-109.015 -66.4468ZM-106.631 66.9973C-107.445 65.9119 -108.239 64.8114 -109.015 63.6962L-108.194 63.1253C-107.425 64.2307 -106.637 65.3215 -105.831 66.3974L-106.631 66.9973ZM-112.899 -60.4707C-112.194 -61.6329 -111.47 -62.7815 -110.725 -63.9158L-109.889 -63.3671C-110.627 -62.2427 -111.346 -61.1043 -112.044 -59.9522L-112.899 -60.4707ZM-110.725 61.1652C-111.47 60.0308 -112.194 58.8823 -112.899 57.7201L-112.044 57.2016C-111.346 58.3536 -110.627 59.4921 -109.889 60.6164L-110.725 61.1652ZM-116.401 -54.2654C-115.77 -55.4696 -115.119 -56.661 -114.447 -57.8392L-113.578 -57.3438C-114.244 -56.176 -114.89 -54.9951 -115.515 -53.8015L-116.401 -54.2654ZM-114.447 55.0885C-115.119 53.9104 -115.77 52.719 -116.401 51.5148L-115.515 51.0509C-114.89 52.2445 -114.244 53.4254 -113.578 54.5932L-114.447 55.0885ZM-119.507 -47.8521C-118.953 -49.0934 -118.378 -50.3229 -117.781 -51.5401L-116.883 -51.1002C-117.474 -49.8937 -118.044 -48.675 -118.593 -47.4447L-119.507 -47.8521ZM-117.781 48.7894C-118.378 47.5722 -118.953 46.3428 -119.507 45.1015L-118.593 44.6941C-118.045 45.9244 -117.474 47.1431 -116.883 48.3496L-117.781 48.7894ZM-122.204 -41.2545C-121.729 -42.5288 -121.232 -43.7923 -120.714 -45.0445L-119.79 -44.6619C-120.304 -43.4208 -120.797 -42.1684 -121.267 -40.9053L-122.204 -41.2545ZM-120.714 42.2939C-121.232 41.0417 -121.729 39.7782 -122.204 38.5039L-121.267 38.1547C-120.797 39.4178 -120.304 40.6702 -119.79 41.9113L-120.714 42.2939ZM-124.481 -34.5014C-124.087 -35.8042 -123.67 -37.0971 -123.232 -38.3797L-122.285 -38.0559C-122.72 -36.7847 -123.133 -35.5032 -123.524 -34.2119L-124.481 -34.5014ZM-123.232 35.6291C-123.67 34.3465 -124.087 33.0536 -124.481 31.7508L-123.524 31.4613C-123.133 32.7526 -122.72 34.0341 -122.285 35.3053L-123.232 35.6291ZM-126.328 -27.6211C-126.017 -28.9458 -125.683 -30.2614 -125.326 -31.5677L-124.361 -31.3041C-124.715 -30.0093 -125.046 -28.7053 -125.355 -27.3923L-126.328 -27.6211ZM-125.326 28.8171C-125.683 27.5108 -126.017 26.1952 -126.328 24.8705L-125.355 24.6417C-125.046 25.9547 -124.715 27.2587 -124.361 28.5535L-125.326 28.8171ZM-127.741 -20.6361C-127.513 -21.9772 -127.262 -23.3102 -126.988 -24.6348L-126.009 -24.4323C-126.28 -23.1193 -126.529 -21.798 -126.755 -20.4688L-127.741 -20.6361ZM-126.988 21.8842C-127.262 20.5596 -127.513 19.2266 -127.741 17.8855L-126.755 17.7182C-126.529 19.0474 -126.28 20.3687 -126.009 21.6817L-126.988 21.8842ZM-128.714 -13.5734C-128.57 -14.9284 -128.402 -16.2763 -128.212 -17.6167L-127.222 -17.4758C-127.411 -16.1472 -127.577 -14.8111 -127.719 -13.4679L-128.714 -13.5734ZM-128.212 14.8661C-128.402 13.5257 -128.57 12.1778 -128.714 10.8228L-127.719 10.7173C-127.577 12.0605 -127.411 13.3966 -127.222 14.7252L-128.212 14.8661ZM-129.245 -6.46822C-129.186 -7.8307 -129.102 -9.18697 -128.995 -10.5366L-127.998 -10.4575C-128.104 -9.11963 -128.187 -7.77511 -128.246 -6.4244L-129.245 -6.46822ZM-128.995 7.78601C-129.102 6.43637 -129.186 5.0801 -129.245 3.71762L-128.246 3.67381C-128.187 5.02452 -128.104 6.36903 -127.998 7.70694L-128.995 7.78601ZM-129.357 -1.3753C-129.357 -2.05796 -129.351 -2.73922 -129.339 -3.41903L-128.339 -3.4015C-128.351 -2.72753 -128.357 -2.05211 -128.357 -1.3753C-128.357 -0.698489 -128.351 -0.0230659 -128.339 0.6509L-129.339 0.668432C-129.351 -0.0113777 -129.357 -0.692637 -129.357 -1.3753Z" fill="#B748FF" fill-opacity="0.7"/>
<path fill-rule="evenodd" clip-rule="evenodd" d="M-13.9843 -1.37359C-13.9843 37.9128 17.6057 69.7538 56.5655 69.7538L56.5655 70.7538C17.0458 70.7538 -14.9843 38.4574 -14.9843 -1.37359C-14.9843 -41.2046 17.0459 -73.501 56.5655 -73.501C96.0851 -73.501 128.115 -41.2046 128.115 -1.37359L127.115 -1.37359C127.115 -40.66 95.5252 -72.501 56.5655 -72.501C17.6058 -72.501 -13.9843 -40.66 -13.9843 -1.37359Z" fill="#B748FF" fill-opacity="0.7"/>
<path fill-rule="evenodd" clip-rule="evenodd" d="M58.5856 70.7256C57.9145 70.7444 57.2411 70.7538 56.5655 70.7538L56.5655 69.7538C57.2318 69.7538 57.8959 69.7445 58.5577 69.726L58.5856 70.7256ZM65.6147 70.1824C64.2888 70.3511 62.9515 70.4832 61.604 70.5777L61.5341 69.5802C62.8627 69.487 64.1812 69.3567 65.4885 69.1904L65.6147 70.1824ZM72.556 68.9456C71.2519 69.2458 69.9341 69.51 68.6039 69.7372L68.4356 68.7514C69.747 68.5274 71.0461 68.267 72.3318 67.9711L72.556 68.9456ZM79.3398 67.023C78.0708 67.4522 76.7859 67.8465 75.4863 68.2049L75.2205 67.2408C76.5017 66.8876 77.7683 66.4988 79.0193 66.0757L79.3398 67.023ZM85.898 64.4335C84.677 64.9874 83.4378 65.5078 82.1816 65.9935L81.821 65.0608C83.0594 64.5819 84.2811 64.0689 85.4849 63.5228L85.898 64.4335ZM92.1665 61.2054C91.0056 61.878 89.8241 62.5187 88.6234 63.1264L88.1719 62.2341C89.3557 61.635 90.5205 61.0033 91.6652 60.3402L92.1665 61.2054ZM98.0854 57.3744C96.9957 58.1584 95.8832 58.9124 94.7492 59.6351L94.2117 58.7919C95.3299 58.0792 96.4268 57.3357 97.5014 56.5626L98.0854 57.3744ZM103.6 52.9811C102.591 53.8684 101.558 54.7278 100.501 55.5578L99.8836 54.7714C100.926 53.9528 101.945 53.1055 102.939 52.2304L103.6 52.9811ZM108.659 48.0704C107.741 49.0523 106.797 50.0083 105.826 50.9371L105.135 50.2148C106.092 49.2988 107.023 48.3561 107.928 47.3877L108.659 48.0704ZM113.215 42.6906C112.397 43.7576 111.55 44.801 110.675 45.8194L109.917 45.1678C110.78 44.1634 111.615 43.1345 112.422 42.0822L113.215 42.6906ZM117.227 36.8927C116.516 38.035 115.775 39.1558 115.003 40.254L114.185 39.6793C114.946 38.5963 115.677 37.491 116.377 36.3645L117.227 36.8927ZM120.654 30.7314C120.058 31.9384 119.429 33.1262 118.769 34.2936L117.898 33.8014C118.549 32.6502 119.169 31.4789 119.757 30.2886L120.654 30.7314ZM123.463 24.2648C122.987 25.5253 122.478 26.7688 121.935 27.9942L121.021 27.5894C121.556 26.381 122.058 25.1547 122.527 23.9118L123.463 24.2648ZM125.626 17.5546C125.276 18.8566 124.89 20.144 124.47 21.4156L123.521 21.1022C123.935 19.8482 124.315 18.5787 124.66 17.2948L125.626 17.5546ZM127.123 10.6655C126.901 11.9966 126.643 13.3154 126.35 14.6208L125.374 14.4016C125.663 13.1143 125.918 11.8138 126.137 10.5011L127.123 10.6655ZM127.943 3.66433C127.851 5.01183 127.722 6.34918 127.558 7.67537L126.565 7.55214C126.728 6.24419 126.855 4.92516 126.946 3.59604L127.943 3.66433ZM128.115 -1.37359C128.115 -0.698097 128.106 -0.0247574 128.088 0.646301L127.088 0.619034C127.106 -0.0429383 127.115 -0.707192 127.115 -1.37359L128.115 -1.37359Z" fill="#B748FF" fill-opacity="0.7"/>
</svg>
