<svg width="214" height="165" viewBox="0 0 214 165" fill="none" xmlns="http://www.w3.org/2000/svg">
<path d="M85.3594 201.979L125.256 191.289L124.997 190.323L85.1006 201.013L85.3594 201.979Z" fill="#B748FF" fill-opacity="0.7"/>
<path d="M89.2129 244.853L95.4339 241.261L94.9339 240.395L88.7129 243.987L89.2129 244.853Z" fill="#B748FF" fill-opacity="0.7"/>
<path d="M290.032 65.5005L293.624 59.2795L292.758 58.7795L289.166 65.0005L290.032 65.5005Z" fill="#B748FF" fill-opacity="0.7"/>
<path d="M296.617 54.0932L305.896 38.0224L305.029 37.5224L295.751 53.5932L296.617 54.0932Z" fill="#B748FF" fill-opacity="0.7"/>
<path d="M318.466 16.2489L309.187 32.3198L308.321 31.8198L317.6 15.7489L318.466 16.2489Z" fill="#B748FF" fill-opacity="0.7"/>
<path d="M116.689 228.992L100.618 238.271L100.118 237.405L116.189 228.126L116.689 228.992Z" fill="#B748FF" fill-opacity="0.7"/>
<path d="M122.392 225.697L138.462 216.418L137.962 215.552L121.892 224.831L122.392 225.697Z" fill="#B748FF" fill-opacity="0.7"/>
<path d="M202.64 272.827L203.879 268.202L202.913 267.943L201.674 272.569L202.64 272.827Z" fill="#B748FF" fill-opacity="0.7"/>
<path d="M201.555 276.874L198.301 289.016L197.335 288.757L200.589 276.615L201.555 276.874Z" fill="#B748FF" fill-opacity="0.7"/>
<path d="M193.963 305.207L197.217 293.065L196.251 292.806L192.997 304.949L193.963 305.207Z" fill="#B748FF" fill-opacity="0.7"/>
<path d="M360.355 88.5198L356.208 90.9143L355.708 90.0482L359.855 87.6538L360.355 88.5198Z" fill="#B748FF" fill-opacity="0.7"/>
<path d="M341.692 99.2955L352.579 93.01L352.079 92.144L341.192 98.4295L341.692 99.2955Z" fill="#B748FF" fill-opacity="0.7"/>
<path d="M338.063 101.391L327.177 107.676L326.677 106.81L337.563 100.525L338.063 101.391Z" fill="#B748FF" fill-opacity="0.7"/>
<path d="M164.931 281.791L155.652 297.862L154.786 297.362L164.065 281.291L164.931 281.791Z" fill="#B748FF" fill-opacity="0.7"/>
<path d="M168.223 276.089L177.502 260.018L176.636 259.518L167.357 275.589L168.223 276.089Z" fill="#B748FF" fill-opacity="0.7"/>
<path d="M324.538 70.2117L311.416 83.3335L310.709 82.6264L323.831 69.5046L324.538 70.2117Z" fill="#B748FF" fill-opacity="0.7"/>
<path d="M329.194 65.5542L342.316 52.4324L341.609 51.7253L328.487 64.8471L329.194 65.5542Z" fill="#B748FF" fill-opacity="0.7"/>
<path d="M145.036 249.713L151.809 242.94L151.102 242.233L144.329 249.005L145.036 249.713Z" fill="#B748FF" fill-opacity="0.7"/>
<path d="M139.11 255.641L120.909 273.842L120.202 273.135L138.403 254.934L139.11 255.641Z" fill="#B748FF" fill-opacity="0.7"/>
<path d="M96.7817 297.965L114.56 280.187L113.853 279.48L96.0746 297.258L96.7817 297.965Z" fill="#B748FF" fill-opacity="0.7"/>
<path d="M411.556 114.647L402.304 117.126L402.045 116.16L411.297 113.681L411.556 114.647Z" fill="#B748FF" fill-opacity="0.7"/>
<path d="M369.346 125.955L394.209 119.293L393.95 118.327L369.087 124.989L369.346 125.955Z" fill="#B748FF" fill-opacity="0.7"/>
<path d="M360.673 128.278L336.388 134.785L336.129 133.819L360.414 127.312L360.673 128.278Z" fill="#B748FF" fill-opacity="0.7"/>
<path d="M271.843 16.1495L261.152 56.0464L260.187 55.7876L270.877 15.8907L271.843 16.1495Z" fill="#B748FF" fill-opacity="0.7"/>
<path d="M293.626 263.671L290.034 257.45L289.168 257.95L292.76 264.171L293.626 263.671Z" fill="#B748FF" fill-opacity="0.7"/>
<path d="M296.616 268.857L305.895 284.928L305.029 285.428L295.75 269.357L296.616 268.857Z" fill="#B748FF" fill-opacity="0.7"/>
<path d="M318.466 306.7L309.187 290.629L308.321 291.129L317.6 307.2L318.466 306.7Z" fill="#B748FF" fill-opacity="0.7"/>
<path d="M89.2129 78.0963L95.4339 81.688L94.9339 82.554L88.7129 78.9624L89.2129 78.0963Z" fill="#B748FF" fill-opacity="0.7"/>
<path d="M116.689 93.9608L100.618 84.6823L100.118 85.5483L116.189 94.8268L116.689 93.9608Z" fill="#B748FF" fill-opacity="0.7"/>
<path d="M122.392 97.2516L138.462 106.53L137.962 107.396L121.892 98.1176L122.392 97.2516Z" fill="#B748FF" fill-opacity="0.7"/>
<path d="M202.64 50.1218L203.879 54.7475L202.913 55.0063L201.674 50.3806L202.64 50.1218Z" fill="#B748FF" fill-opacity="0.7"/>
<path d="M201.555 46.0766L198.301 33.934L197.335 34.1928L200.589 46.3354L201.555 46.0766Z" fill="#B748FF" fill-opacity="0.7"/>
<path d="M193.963 17.7416L197.217 29.8842L196.251 30.143L192.997 18.0005L193.963 17.7416Z" fill="#B748FF" fill-opacity="0.7"/>
<path d="M360.355 234.43L356.208 232.036L355.708 232.902L359.855 235.296L360.355 234.43Z" fill="#B748FF" fill-opacity="0.7"/>
<path d="M341.692 223.655L352.579 229.94L352.079 230.806L341.192 224.521L341.692 223.655Z" fill="#B748FF" fill-opacity="0.7"/>
<path d="M338.063 221.559L327.177 215.274L326.677 216.14L337.563 222.425L338.063 221.559Z" fill="#B748FF" fill-opacity="0.7"/>
<path d="M164.932 41.1611L155.653 25.0903L154.787 25.5903L164.066 41.6611L164.932 41.1611Z" fill="#B748FF" fill-opacity="0.7"/>
<path d="M168.223 46.8618L177.502 62.9326L176.636 63.4326L167.357 47.3618L168.223 46.8618Z" fill="#B748FF" fill-opacity="0.7"/>
<path d="M324.538 252.74L311.416 239.619L310.709 240.326L323.831 253.447L324.538 252.74Z" fill="#B748FF" fill-opacity="0.7"/>
<path d="M329.193 257.399L342.315 270.521L341.608 271.228L328.486 258.106L329.193 257.399Z" fill="#B748FF" fill-opacity="0.7"/>
<path d="M145.036 73.2405L151.809 80.0131L151.102 80.7202L144.329 73.9476L145.036 73.2405Z" fill="#B748FF" fill-opacity="0.7"/>
<path d="M139.11 67.3119L120.909 49.1107L120.202 49.8178L138.403 68.019L139.11 67.3119Z" fill="#B748FF" fill-opacity="0.7"/>
<path d="M96.7817 24.9881L114.56 42.766L113.853 43.4731L96.0746 25.6952L96.7817 24.9881Z" fill="#B748FF" fill-opacity="0.7"/>
<path d="M411.556 208.302L402.304 205.823L402.045 206.789L411.297 209.268L411.556 208.302Z" fill="#B748FF" fill-opacity="0.7"/>
<path d="M369.346 196.994L394.209 203.657L393.95 204.623L369.087 197.96L369.346 196.994Z" fill="#B748FF" fill-opacity="0.7"/>
<path d="M360.673 194.671L336.388 188.164L336.129 189.13L360.414 195.637L360.673 194.671Z" fill="#B748FF" fill-opacity="0.7"/>
<path d="M271.843 306.8L261.152 266.903L260.187 267.162L270.877 307.058L271.843 306.8Z" fill="#B748FF" fill-opacity="0.7"/>
<path d="M85.3594 120.972L125.256 131.662L124.998 132.628L85.1006 121.938L85.3594 120.972Z" fill="#B748FF" fill-opacity="0.7"/>
<path fill-rule="evenodd" clip-rule="evenodd" d="M117.096 168.419C117.084 167.739 117.078 167.058 117.078 166.375C117.078 165.693 117.084 165.011 117.096 164.332L118.096 164.349C118.084 165.023 118.078 165.698 118.078 166.375C118.078 167.052 118.084 167.728 118.096 168.401L117.096 168.419ZM117.19 161.282C117.249 159.92 117.333 158.564 117.44 157.214L118.437 157.293C118.331 158.631 118.248 159.975 118.189 161.326L117.19 161.282ZM117.44 175.537C117.333 174.187 117.249 172.831 117.19 171.468L118.189 171.424C118.248 172.775 118.331 174.12 118.437 175.458L117.44 175.537ZM117.721 154.177C117.865 152.822 118.033 151.474 118.223 150.134L119.213 150.275C119.024 151.603 118.858 152.94 118.716 154.283L117.721 154.177ZM118.223 182.617C118.033 181.276 117.865 179.928 117.721 178.573L118.716 178.468C118.858 179.811 119.024 181.147 119.213 182.476L118.223 182.617ZM118.694 147.114C118.922 145.773 119.173 144.44 119.447 143.116L120.426 143.318C120.155 144.631 119.906 145.953 119.68 147.282L118.694 147.114ZM119.447 189.635C119.173 188.31 118.922 186.977 118.694 185.636L119.68 185.469C119.906 186.798 120.155 188.119 120.426 189.432L119.447 189.635ZM121.109 196.568C120.752 195.261 120.418 193.946 120.107 192.621L121.08 192.392C121.389 193.705 121.72 195.009 122.074 196.304L121.109 196.568ZM120.107 140.129C120.418 138.805 120.752 137.489 121.109 136.183L122.074 136.446C121.72 137.741 121.389 139.045 121.08 140.358L120.107 140.129ZM123.203 203.38C122.765 202.097 122.348 200.804 121.954 199.501L122.911 199.212C123.301 200.503 123.715 201.785 124.15 203.056L123.203 203.38ZM121.954 133.249C122.348 131.946 122.765 130.653 123.203 129.371L124.15 129.695C123.715 130.966 123.301 132.247 122.911 133.539L121.954 133.249ZM125.721 210.044C125.202 208.792 124.706 207.529 124.231 206.254L125.168 205.905C125.638 207.168 126.131 208.421 126.645 209.662L125.721 210.044ZM124.231 126.496C124.706 125.222 125.202 123.958 125.721 122.706L126.645 123.089C126.131 124.33 125.638 125.582 125.168 126.845L124.231 126.496ZM128.654 216.54C128.057 215.323 127.482 214.093 126.928 212.852L127.842 212.445C128.39 213.675 128.961 214.894 129.552 216.1L128.654 216.54ZM126.928 119.898C127.482 118.657 128.057 117.428 128.654 116.211L129.552 116.65C128.961 117.857 128.39 119.076 127.842 120.306L126.928 119.898ZM131.988 222.839C131.316 221.661 130.665 220.47 130.034 219.265L130.92 218.801C131.545 219.995 132.191 221.176 132.857 222.344L131.988 222.839ZM130.034 113.485C130.665 112.281 131.316 111.09 131.988 109.911L132.857 110.407C132.191 111.575 131.545 112.756 130.92 113.949L130.034 113.485ZM135.71 228.916C134.965 227.781 134.24 226.633 133.536 225.471L134.391 224.952C135.089 226.104 135.808 227.243 136.546 228.367L135.71 228.916ZM133.536 107.28C134.241 106.118 134.965 104.969 135.71 103.835L136.546 104.384C135.808 105.508 135.089 106.646 134.391 107.798L133.536 107.28ZM139.804 234.748C138.99 233.662 138.196 232.562 137.42 231.447L138.241 230.876C139.01 231.981 139.798 233.072 140.604 234.148L139.804 234.748ZM137.42 101.304C138.196 100.189 138.99 99.0881 139.804 98.0027L140.604 98.6026C139.798 99.6785 139.01 100.769 138.241 101.875L137.42 101.304ZM144.255 240.314C143.375 239.281 142.513 238.232 141.669 237.168L142.453 236.547C143.289 237.602 144.144 238.641 145.016 239.665L144.255 240.314ZM141.669 95.583C142.513 94.5185 143.375 93.4696 144.255 92.4368L145.016 93.0854C144.144 94.1092 143.289 95.1489 142.453 96.2041L141.669 95.583ZM149.044 245.591C148.101 244.615 147.175 243.621 146.267 242.612L147.011 241.943C147.911 242.944 148.829 243.928 149.764 244.896L149.044 245.591ZM146.267 90.1389C147.175 89.1292 148.101 88.136 149.044 87.1598L149.764 87.8546C148.829 88.8223 147.911 89.8068 147.011 90.8076L146.267 90.1389ZM154.154 250.559C153.151 249.643 152.165 248.71 151.196 247.759L151.896 247.045C152.857 247.987 153.834 248.913 154.828 249.82L154.154 250.559ZM151.196 84.9917C152.165 84.0409 153.151 83.1075 154.154 82.1919L154.828 82.9303C153.834 83.8378 152.857 84.7631 151.896 85.7056L151.196 84.9917ZM159.563 255.198C158.505 254.346 157.463 253.476 156.436 252.588L157.091 251.832C158.108 252.712 159.141 253.575 160.19 254.419L159.563 255.198ZM156.436 80.1624C157.463 79.2742 158.505 78.4043 159.563 77.5529L160.19 78.332C159.141 79.1759 158.108 80.0382 157.091 80.9186L156.436 80.1624ZM165.253 259.489C164.143 258.705 163.048 257.903 161.969 257.081L162.574 256.285C163.645 257.1 164.73 257.896 165.829 258.672L165.253 259.489ZM161.969 75.67C163.048 74.848 164.143 74.0451 165.253 73.2617L165.829 74.0786C164.73 74.8551 163.645 75.6509 162.574 76.4656L161.969 75.67ZM171.201 263.415C170.044 262.703 168.901 261.97 167.772 261.217L168.326 260.385C169.445 261.131 170.578 261.857 171.725 262.563L171.201 263.415ZM167.772 71.5334C168.901 70.7808 170.044 70.0481 171.201 69.3356L171.725 70.1872C170.579 70.8933 169.445 71.6196 168.326 72.3655L167.772 71.5334ZM177.384 266.958C176.184 266.32 174.997 265.66 173.823 264.981L174.324 264.115C175.487 264.789 176.664 265.442 177.853 266.075L177.384 266.958ZM173.823 67.77C174.997 67.0902 176.184 66.431 177.384 65.7929L177.853 66.6759C176.664 67.3083 175.487 67.9616 174.324 68.6354L173.823 67.77ZM183.778 270.102C182.54 269.542 181.314 268.959 180.1 268.355L180.546 267.46C181.749 268.058 182.964 268.636 184.191 269.191L183.778 270.102ZM180.1 64.3954C181.314 63.7916 182.54 63.209 183.778 62.6482L184.191 63.5591C182.964 64.1149 181.749 64.6923 180.546 65.2907L180.1 64.3954ZM190.361 272.836C189.09 272.355 187.829 271.851 186.579 271.326L186.967 270.404C188.205 270.924 189.455 271.424 190.715 271.9L190.361 272.836ZM186.579 61.425C187.829 60.8996 189.09 60.3961 190.361 59.9149L190.715 60.8502C189.455 61.327 188.205 61.8261 186.967 62.3468L186.579 61.425ZM197.104 275.145C195.803 274.745 194.512 274.322 193.232 273.877L193.56 272.933C194.829 273.374 196.109 273.793 197.398 274.189L197.104 275.145ZM193.232 58.8733C194.512 58.4282 195.803 58.0056 197.104 57.606L197.398 58.5619C196.109 58.958 194.829 59.3768 193.56 59.8179L193.232 58.8733ZM203.978 277.019C202.654 276.703 201.34 276.363 200.034 276.001L200.302 275.037C201.595 275.396 202.898 275.733 204.21 276.046L203.978 277.019ZM200.034 56.7495C201.34 56.3873 202.654 56.048 203.978 55.7321L204.21 56.7047C202.898 57.0178 201.595 57.3541 200.302 57.7131L200.034 56.7495ZM210.959 278.452C209.618 278.221 208.286 277.966 206.962 277.688L207.167 276.709C208.479 276.985 209.8 277.237 211.128 277.466L210.959 278.452ZM206.962 55.0628C208.286 54.7847 209.618 54.5299 210.959 54.2988L211.129 55.2843C209.8 55.5133 208.479 55.7659 207.167 56.0414L206.962 55.0628ZM218.02 279.439C216.665 279.294 215.317 279.123 213.977 278.93L214.12 277.94C215.448 278.132 216.784 278.301 218.127 278.445L218.02 279.439ZM213.977 53.8207C215.317 53.6271 216.665 53.4571 218.02 53.3111L218.127 54.3054C216.784 54.45 215.448 54.6185 214.12 54.8104L213.977 53.8207ZM225.125 279.98C223.762 279.919 222.406 279.834 221.056 279.725L221.137 278.729C222.474 278.836 223.819 278.92 225.169 278.981L225.125 279.98ZM221.056 53.0253C222.406 52.9166 223.762 52.8317 225.125 52.771L225.169 53.77C223.819 53.8301 222.474 53.9143 221.137 54.022L221.056 53.0253ZM230.218 280.093C229.535 280.093 228.854 280.087 228.174 280.075L228.192 279.075C228.866 279.087 229.541 279.093 230.218 279.093C230.895 279.093 231.57 279.087 232.244 279.075L232.262 280.075C231.582 280.087 230.901 280.093 230.218 280.093ZM228.174 52.676C228.854 52.6639 229.535 52.6578 230.218 52.6578C230.901 52.6578 231.582 52.6639 232.262 52.676L232.244 53.6758C231.57 53.6638 230.895 53.6578 230.218 53.6578C229.541 53.6578 228.866 53.6638 228.192 53.6758L228.174 52.676ZM239.379 279.725C238.03 279.834 236.674 279.919 235.311 279.98L235.267 278.981C236.617 278.92 237.961 278.836 239.299 278.729L239.379 279.725ZM235.311 52.771C236.674 52.8317 238.03 52.9166 239.38 53.0253L239.299 54.022C237.962 53.9143 236.617 53.8301 235.267 53.77L235.311 52.771ZM246.458 278.93C245.119 279.124 243.771 279.294 242.416 279.439L242.309 278.445C243.652 278.301 244.987 278.132 246.316 277.94L246.458 278.93ZM242.416 53.3111C243.771 53.4571 245.119 53.6271 246.459 53.8207L246.316 54.8104C244.988 54.6185 243.652 54.45 242.309 54.3054L242.416 53.3111ZM253.474 277.688C252.15 277.966 250.818 278.221 249.477 278.452L249.307 277.466C250.636 277.237 251.957 276.985 253.269 276.709L253.474 277.688ZM249.477 54.2989C250.818 54.5299 252.15 54.7847 253.474 55.0628L253.269 56.0414C251.957 55.7659 250.636 55.5133 249.307 55.2843L249.477 54.2989ZM260.402 276.001C259.096 276.363 257.782 276.703 256.458 277.019L256.226 276.046C257.538 275.733 258.841 275.396 260.134 275.037L260.402 276.001ZM256.458 55.7321C257.782 56.048 259.096 56.3873 260.402 56.7495L260.134 57.7131C258.841 57.3541 257.538 57.0178 256.226 56.7047L256.458 55.7321ZM267.204 273.877C265.924 274.322 264.633 274.745 263.331 275.145L263.038 274.189C264.327 273.793 265.607 273.374 266.876 272.933L267.204 273.877ZM263.332 57.606C264.633 58.0056 265.924 58.4282 267.204 58.8733L266.876 59.8179C265.607 59.3768 264.327 58.958 263.038 58.5619L263.332 57.606ZM273.856 271.326C272.607 271.851 271.346 272.355 270.075 272.836L269.721 271.9C270.981 271.424 272.231 270.924 273.469 270.404L273.856 271.326ZM270.075 59.9149C271.346 60.3961 272.607 60.8996 273.857 61.425L273.469 62.3469C272.231 61.8261 270.981 61.3271 269.721 60.8502L270.075 59.9149ZM280.336 268.355C279.122 268.959 277.896 269.542 276.658 270.102L276.245 269.191C277.472 268.636 278.687 268.058 279.89 267.46L280.336 268.355ZM276.658 62.6482C277.896 63.2091 279.122 63.7916 280.336 64.3954L279.89 65.2908C278.687 64.6923 277.472 64.115 276.245 63.5591L276.658 62.6482ZM286.613 264.981C285.439 265.66 284.252 266.32 283.052 266.958L282.583 266.075C283.772 265.442 284.949 264.789 286.112 264.115L286.613 264.981ZM283.052 65.7929C284.252 66.4311 285.439 67.0902 286.613 67.77L286.112 68.6354C284.949 67.9617 283.772 67.3083 282.583 66.6759L283.052 65.7929ZM292.664 261.217C291.535 261.97 290.392 262.703 289.235 263.415L288.711 262.563C289.857 261.857 290.991 261.131 292.11 260.385L292.664 261.217ZM289.235 69.3357C290.392 70.0481 291.535 70.7808 292.664 71.5334L292.11 72.3655C290.991 71.6196 289.857 70.8933 288.711 70.1872L289.235 69.3357ZM298.467 257.081C297.388 257.903 296.293 258.705 295.183 259.489L294.607 258.672C295.706 257.896 296.791 257.1 297.861 256.285L298.467 257.081ZM295.183 73.2617C296.293 74.0451 297.388 74.848 298.467 75.67L297.861 76.4656C296.791 75.6509 295.706 74.8551 294.607 74.0786L295.183 73.2617ZM304 252.588C302.973 253.476 301.931 254.346 300.873 255.198L300.246 254.419C301.295 253.575 302.328 252.712 303.345 251.832L304 252.588ZM300.873 77.553C301.931 78.4043 302.973 79.2743 304 80.1624L303.345 80.9186C302.328 80.0382 301.295 79.1759 300.246 78.3321L300.873 77.553ZM309.24 247.759C308.271 248.71 307.285 249.643 306.282 250.559L305.608 249.82C306.602 248.913 307.579 247.987 308.54 247.045L309.24 247.759ZM306.282 82.1919C307.285 83.1075 308.271 84.041 309.24 84.9918L308.54 85.7056C307.579 84.7631 306.602 83.8379 305.608 82.9303L306.282 82.1919ZM314.169 242.612C313.261 243.621 312.335 244.615 311.391 245.591L310.672 244.896C311.607 243.928 312.525 242.944 313.425 241.943L314.169 242.612ZM311.391 87.1598C312.335 88.1361 313.261 89.1293 314.169 90.1389L313.425 90.8077C312.525 89.8068 311.607 88.8223 310.672 87.8547L311.391 87.1598ZM318.766 237.168C317.923 238.232 317.061 239.281 316.181 240.314L315.42 239.665C316.292 238.641 317.147 237.602 317.983 236.547L318.766 237.168ZM316.181 92.4368C317.061 93.4696 317.923 94.5185 318.766 95.583L317.983 96.2041C317.147 95.1489 316.292 94.1092 315.42 93.0854L316.181 92.4368ZM323.016 231.447C322.24 232.562 321.445 233.662 320.632 234.748L319.832 234.148C320.638 233.072 321.426 231.981 322.195 230.876L323.016 231.447ZM320.632 98.0027C321.446 99.0881 322.24 100.189 323.016 101.304L322.195 101.875C321.426 100.769 320.638 99.6785 319.832 98.6026L320.632 98.0027ZM326.9 225.471C326.195 226.633 325.471 227.781 324.726 228.916L323.89 228.367C324.628 227.243 325.347 226.104 326.045 224.952L326.9 225.471ZM324.726 103.835C325.471 104.969 326.195 106.118 326.9 107.28L326.045 107.798C325.347 106.646 324.628 105.508 323.89 104.384L324.726 103.835ZM330.402 219.265C329.771 220.47 329.12 221.661 328.448 222.839L327.579 222.344C328.245 221.176 328.891 219.995 329.516 218.802L330.402 219.265ZM328.448 109.911C329.12 111.09 329.771 112.281 330.402 113.485L329.516 113.949C328.891 112.756 328.245 111.575 327.579 110.407L328.448 109.911ZM333.508 212.852C332.954 214.093 332.379 215.323 331.782 216.54L330.884 216.1C331.475 214.894 332.045 213.675 332.594 212.445L333.508 212.852ZM331.782 116.211C332.379 117.428 332.954 118.657 333.508 119.899L332.594 120.306C332.045 119.076 331.475 117.857 330.884 116.65L331.782 116.211ZM336.205 206.254C335.73 207.529 335.233 208.792 334.715 210.045L333.791 209.662C334.305 208.421 334.798 207.168 335.268 205.905L336.205 206.254ZM334.715 122.706C335.233 123.958 335.73 125.222 336.205 126.496L335.268 126.845C334.798 125.582 334.305 124.33 333.791 123.089L334.715 122.706ZM338.482 199.501C338.088 200.804 337.671 202.097 337.233 203.38L336.286 203.056C336.721 201.785 337.134 200.503 337.525 199.212L338.482 199.501ZM337.233 129.371C337.671 130.653 338.088 131.946 338.482 133.249L337.525 133.539C337.134 132.247 336.721 130.966 336.286 129.695L337.233 129.371ZM340.329 192.621C340.018 193.946 339.684 195.261 339.327 196.568L338.362 196.304C338.716 195.009 339.047 193.705 339.356 192.392L340.329 192.621ZM339.327 136.183C339.684 137.489 340.018 138.805 340.329 140.129L339.356 140.358C339.047 139.045 338.716 137.741 338.362 136.447L339.327 136.183ZM341.742 185.636C341.514 186.977 341.263 188.31 340.989 189.635L340.01 189.432C340.281 188.119 340.53 186.798 340.756 185.469L341.742 185.636ZM340.989 143.116C341.263 144.44 341.514 145.773 341.742 147.114L340.756 147.282C340.53 145.953 340.281 144.631 340.01 143.318L340.989 143.116ZM342.714 178.573C342.571 179.928 342.403 181.276 342.213 182.617L341.223 182.476C341.412 181.147 341.578 179.811 341.72 178.468L342.714 178.573ZM342.213 150.134C342.403 151.474 342.571 152.822 342.714 154.177L341.72 154.283C341.578 152.94 341.412 151.603 341.223 150.275L342.213 150.134ZM343.246 171.468C343.187 172.831 343.103 174.187 342.996 175.537L341.999 175.458C342.105 174.12 342.188 172.775 342.247 171.424L343.246 171.468ZM342.996 157.214C343.103 158.564 343.187 159.92 343.246 161.282L342.247 161.326C342.188 159.975 342.105 158.631 341.999 157.293L342.996 157.214ZM343.358 166.375C343.358 167.058 343.352 167.739 343.34 168.419L342.34 168.401C342.352 167.728 342.358 167.052 342.358 166.375C342.358 165.698 342.352 165.023 342.34 164.349L343.34 164.332C343.352 165.011 343.358 165.693 343.358 166.375Z" fill="#B748FF" fill-opacity="0.7"/>
<path fill-rule="evenodd" clip-rule="evenodd" d="M227.985 166.374C227.985 127.087 196.395 95.2462 157.435 95.2462L157.435 94.2462C196.955 94.2462 228.985 126.543 228.985 166.374C228.985 206.205 196.955 238.501 157.435 238.501C117.916 238.501 85.8857 206.205 85.8857 166.374L86.8857 166.374C86.8857 205.66 118.476 237.501 157.435 237.501C196.395 237.501 227.985 205.66 227.985 166.374Z" fill="#B748FF" fill-opacity="0.7"/>
<path fill-rule="evenodd" clip-rule="evenodd" d="M155.415 94.2744C156.086 94.2556 156.76 94.2462 157.435 94.2462L157.435 95.2462C156.769 95.2462 156.105 95.2555 155.443 95.274L155.415 94.2744ZM148.386 94.8176C149.712 94.6489 151.049 94.5168 152.397 94.4223L152.467 95.4198C151.138 95.513 149.82 95.6433 148.512 95.8096L148.386 94.8176ZM141.445 96.0544C142.749 95.7542 144.067 95.49 145.397 95.2628L145.565 96.2486C144.254 96.4726 142.955 96.733 141.669 97.0289L141.445 96.0544ZM134.661 97.977C135.93 97.5478 137.215 97.1535 138.515 96.7951L138.781 97.7592C137.499 98.1124 136.233 98.5012 134.982 98.9243L134.661 97.977ZM128.103 100.567C129.324 100.013 130.563 99.4922 131.819 99.0065L132.18 99.9392C130.942 100.418 129.72 100.931 128.516 101.477L128.103 100.567ZM121.835 103.795C122.995 103.122 124.177 102.481 125.378 101.874L125.829 102.766C124.645 103.365 123.48 103.997 122.336 104.66L121.835 103.795ZM115.916 107.626C117.005 106.842 118.118 106.088 119.252 105.365L119.789 106.208C118.671 106.921 117.574 107.664 116.5 108.437L115.916 107.626ZM110.401 112.019C111.41 111.132 112.443 110.272 113.5 109.442L114.117 110.229C113.075 111.047 112.056 111.895 111.062 112.77L110.401 112.019ZM105.342 116.93C106.26 115.948 107.204 114.992 108.175 114.063L108.866 114.785C107.909 115.701 106.978 116.644 106.073 117.612L105.342 116.93ZM100.786 122.309C101.604 121.242 102.451 120.199 103.326 119.181L104.084 119.832C103.221 120.837 102.386 121.865 101.579 122.918L100.786 122.309ZM96.7744 128.107C97.485 126.965 98.2264 125.844 98.9976 124.746L99.8159 125.321C99.0554 126.404 98.3242 127.509 97.6235 128.635L96.7744 128.107ZM93.3471 134.269C93.9432 133.062 94.5719 131.874 95.232 130.706L96.1025 131.199C95.4515 132.35 94.8316 133.521 94.2437 134.711L93.3471 134.269ZM90.538 140.735C91.0136 139.475 91.5233 138.231 92.0659 137.006L92.9802 137.411C92.4452 138.619 91.9426 139.845 91.4736 141.088L90.538 140.735ZM88.375 147.445C88.7253 146.143 89.1109 144.856 89.5307 143.584L90.4803 143.898C90.0663 145.152 89.6861 146.421 89.3406 147.705L88.375 147.445ZM86.878 154.334C87.0999 153.003 87.358 151.685 87.6512 150.379L88.6269 150.598C88.3377 151.886 88.0833 153.186 87.8644 154.499L86.878 154.334ZM86.0576 161.336C86.1498 159.988 86.2787 158.651 86.4434 157.325L87.4358 157.448C87.2734 158.756 87.1462 160.075 87.0552 161.404L86.0576 161.336ZM85.8857 166.374C85.8857 165.698 85.8949 165.025 85.9132 164.354L86.9129 164.381C86.8948 165.043 86.8857 165.707 86.8857 166.374L85.8857 166.374Z" fill="#B748FF" fill-opacity="0.7"/>
</svg>
