<svg width="100%" height="100%" viewBox="0 0 548 547" fill="none" xmlns="http://www.w3.org/2000/svg">
<path d="M275.5 152.181C317.75 152.181 352 118.378 352 76.6807C352 34.9832 317.75 1.18066 275.5 1.18066C233.25 1.18066 199 34.9832 199 76.6807" stroke="#23024D"/>
<path d="M275 152.181C233.026 152.181 199 118.154 199 76.1807" stroke="#23024D" stroke-dasharray="4 3"/>
<path d="M241.583 74.8057V86.1807H239.247V74.8057H241.583ZM245.083 74.8057V76.6416H235.802V74.8057H245.083ZM248.019 74.8057H252.261C253.131 74.8057 253.878 74.9359 254.503 75.1963C255.133 75.4567 255.618 75.8421 255.956 76.3525C256.295 76.863 256.464 77.4906 256.464 78.2354C256.464 78.8447 256.36 79.3682 256.152 79.8057C255.948 80.238 255.659 80.5999 255.284 80.8916C254.915 81.1781 254.48 81.4072 253.98 81.5791L253.238 81.9697H249.55L249.534 80.1416H252.277C252.688 80.1416 253.029 80.0687 253.3 79.9229C253.571 79.777 253.774 79.5739 253.909 79.3135C254.05 79.0531 254.12 78.751 254.12 78.4072C254.12 78.0426 254.053 77.7275 253.917 77.4619C253.782 77.1963 253.576 76.9932 253.3 76.8525C253.024 76.7119 252.678 76.6416 252.261 76.6416H250.363V86.1807H248.019V74.8057ZM254.378 86.1807L251.784 81.1104L254.261 81.0947L256.886 86.0713V86.1807H254.378ZM264.494 76.751L261.4 86.1807H258.908L263.134 74.8057H264.72L264.494 76.751ZM267.064 86.1807L263.963 76.751L263.713 74.8057H265.314L269.564 86.1807H267.064ZM266.923 81.9463V83.7822H260.916V81.9463H266.923ZM275.711 86.1807H273.234L273.25 84.3525H275.711C276.326 84.3525 276.844 84.2145 277.266 83.9385C277.688 83.6572 278.005 83.2484 278.219 82.7119C278.438 82.1755 278.547 81.527 278.547 80.7666V80.2119C278.547 79.6286 278.484 79.1156 278.359 78.6729C278.24 78.2301 278.06 77.8577 277.82 77.5557C277.581 77.2536 277.286 77.027 276.938 76.876C276.589 76.7197 276.188 76.6416 275.734 76.6416H273.188V74.8057H275.734C276.495 74.8057 277.19 74.9359 277.82 75.1963C278.456 75.4515 279.005 75.8187 279.469 76.2979C279.932 76.777 280.289 77.3499 280.539 78.0166C280.794 78.6781 280.922 79.415 280.922 80.2275V80.7666C280.922 81.5739 280.794 82.3109 280.539 82.9775C280.289 83.6442 279.932 84.2171 279.469 84.6963C279.01 85.1702 278.461 85.5374 277.82 85.7979C277.185 86.0531 276.482 86.1807 275.711 86.1807ZM274.562 74.8057V86.1807H272.219V74.8057H274.562ZM291.858 84.3525V86.1807H285.803V84.3525H291.858ZM286.569 74.8057V86.1807H284.225V74.8057H286.569ZM291.069 79.4385V81.2197H285.803V79.4385H291.069ZM291.85 74.8057V76.6416H285.803V74.8057H291.85ZM294.825 74.8057H299.067C299.937 74.8057 300.684 74.9359 301.309 75.1963C301.94 75.4567 302.424 75.8421 302.763 76.3525C303.101 76.863 303.27 77.4906 303.27 78.2354C303.27 78.8447 303.166 79.3682 302.958 79.8057C302.755 80.238 302.466 80.5999 302.091 80.8916C301.721 81.1781 301.286 81.4072 300.786 81.5791L300.044 81.9697H296.356L296.341 80.1416H299.083C299.494 80.1416 299.835 80.0687 300.106 79.9229C300.377 79.777 300.58 79.5739 300.716 79.3135C300.856 79.0531 300.927 78.751 300.927 78.4072C300.927 78.0426 300.859 77.7275 300.723 77.4619C300.588 77.1963 300.382 76.9932 300.106 76.8525C299.83 76.7119 299.484 76.6416 299.067 76.6416H297.169V86.1807H294.825V74.8057ZM301.184 86.1807L298.591 81.1104L301.067 81.0947L303.692 86.0713V86.1807H301.184ZM312.597 83.2041C312.597 83.001 312.566 82.8187 312.503 82.6572C312.446 82.4906 312.336 82.3395 312.175 82.2041C312.014 82.0635 311.787 81.9255 311.495 81.79C311.204 81.6546 310.826 81.514 310.363 81.3682C309.847 81.2015 309.357 81.014 308.894 80.8057C308.435 80.5973 308.029 80.3551 307.675 80.0791C307.326 79.7979 307.05 79.4723 306.847 79.1025C306.649 78.7327 306.55 78.3031 306.55 77.8135C306.55 77.3395 306.654 76.9098 306.863 76.5244C307.071 76.1338 307.363 75.8005 307.738 75.5244C308.113 75.2432 308.555 75.027 309.066 74.876C309.581 74.7249 310.146 74.6494 310.761 74.6494C311.599 74.6494 312.331 74.8005 312.956 75.1025C313.581 75.4046 314.066 75.8187 314.409 76.3447C314.758 76.8708 314.933 77.4723 314.933 78.1494H312.605C312.605 77.8161 312.534 77.5244 312.394 77.2744C312.258 77.0192 312.05 76.8187 311.769 76.6729C311.493 76.527 311.144 76.4541 310.722 76.4541C310.316 76.4541 309.977 76.5166 309.706 76.6416C309.435 76.7614 309.232 76.9255 309.097 77.1338C308.961 77.3369 308.894 77.5661 308.894 77.8213C308.894 78.014 308.941 78.1885 309.034 78.3447C309.133 78.501 309.279 78.6468 309.472 78.7822C309.665 78.9176 309.902 79.0452 310.183 79.165C310.464 79.2848 310.79 79.402 311.159 79.5166C311.779 79.7041 312.323 79.915 312.792 80.1494C313.266 80.3838 313.662 80.6468 313.98 80.9385C314.297 81.2301 314.537 81.5609 314.698 81.9307C314.86 82.3005 314.941 82.7197 314.941 83.1885C314.941 83.6833 314.844 84.126 314.652 84.5166C314.459 84.9072 314.18 85.238 313.816 85.5088C313.451 85.7796 313.016 85.9854 312.511 86.126C312.006 86.2666 311.441 86.3369 310.816 86.3369C310.253 86.3369 309.698 86.264 309.152 86.1182C308.605 85.9671 308.107 85.7406 307.659 85.4385C307.217 85.1364 306.863 84.751 306.597 84.2822C306.331 83.8135 306.198 83.2588 306.198 82.6182H308.55C308.55 82.9723 308.605 83.2718 308.714 83.5166C308.823 83.7614 308.977 83.9593 309.175 84.1104C309.378 84.2614 309.618 84.3708 309.894 84.4385C310.175 84.5062 310.482 84.54 310.816 84.54C311.222 84.54 311.555 84.4827 311.816 84.3682C312.081 84.2536 312.277 84.0947 312.402 83.8916C312.532 83.6885 312.597 83.4593 312.597 83.2041Z" fill="#23024D"/>
<path d="M332.197 74.3926L331.547 76.7768L329.163 77.427L331.547 78.0773L332.197 80.4615L332.848 78.0773L335.232 77.427L332.848 76.7768L332.197 74.3926Z" fill="#8620B9"/>
<path d="M331.135 78.4902L330.629 78.996" stroke="#8620B9" stroke-width="0.5" stroke-linejoin="round"/>
<path d="M330.545 79.0811L330.376 79.2496" stroke="#8620B9" stroke-width="0.5" stroke-linejoin="round"/>
<path d="M330.292 79.333L330.123 79.5016" stroke="#8620B9" stroke-width="0.5" stroke-linejoin="round"/>
<path d="M333.31 76.3145L333.815 75.8087" stroke="#8620B9" stroke-width="0.5" stroke-linejoin="round"/>
<path d="M333.898 75.7236L334.067 75.5551" stroke="#8620B9" stroke-width="0.5" stroke-linejoin="round"/>
<path d="M334.151 75.4717L334.32 75.3031" stroke="#8620B9" stroke-width="0.5" stroke-linejoin="round"/>
<path d="M331.086 76.3135L330.58 75.8077" stroke="#8620B9" stroke-width="0.5" stroke-linejoin="round"/>
<path d="M330.496 75.7246L330.328 75.556" stroke="#8620B9" stroke-width="0.5" stroke-linejoin="round"/>
<path d="M330.242 75.4717L330.074 75.3031" stroke="#8620B9" stroke-width="0.5" stroke-linejoin="round"/>
<path d="M333.261 78.4902L333.766 78.996" stroke="#8620B9" stroke-width="0.5" stroke-linejoin="round"/>
<path d="M333.851 79.0801L334.019 79.2487" stroke="#8620B9" stroke-width="0.5" stroke-linejoin="round"/>
<path d="M334.103 79.333L334.271 79.5016" stroke="#8620B9" stroke-width="0.5" stroke-linejoin="round"/>
<path d="M244.594 45.7559L243.293 50.5241L238.525 51.8245L243.293 53.1249L244.594 57.8932L245.894 53.1249L250.662 51.8245L245.894 50.5241L244.594 45.7559Z" fill="#8620B9"/>
<path d="M242.471 53.9492L241.459 54.9607" stroke="#8620B9" stroke-width="0.5" stroke-linejoin="round"/>
<path d="M241.29 55.1279L240.953 55.4651" stroke="#8620B9" stroke-width="0.5" stroke-linejoin="round"/>
<path d="M240.783 55.6338L240.446 55.9709" stroke="#8620B9" stroke-width="0.5" stroke-linejoin="round"/>
<path d="M246.816 49.5996L247.828 48.5882" stroke="#8620B9" stroke-width="0.5" stroke-linejoin="round"/>
<path d="M247.997 48.4199L248.334 48.0828" stroke="#8620B9" stroke-width="0.5" stroke-linejoin="round"/>
<path d="M248.504 47.9141L248.841 47.5769" stroke="#8620B9" stroke-width="0.5" stroke-linejoin="round"/>
<path d="M242.37 49.6016L241.359 48.5901" stroke="#8620B9" stroke-width="0.5" stroke-linejoin="round"/>
<path d="M241.189 48.4209L240.852 48.0838" stroke="#8620B9" stroke-width="0.5" stroke-linejoin="round"/>
<path d="M240.684 47.916L240.346 47.5789" stroke="#8620B9" stroke-width="0.5" stroke-linejoin="round"/>
<path d="M246.718 53.9502L247.729 54.9616" stroke="#8620B9" stroke-width="0.5" stroke-linejoin="round"/>
<path d="M247.897 55.1299L248.235 55.467" stroke="#8620B9" stroke-width="0.5" stroke-linejoin="round"/>
<path d="M248.403 55.6348L248.74 55.9719" stroke="#8620B9" stroke-width="0.5" stroke-linejoin="round"/>
<path d="M249.821 117.546L247.087 120.256L243.363 119.276L246.073 122.011L245.093 125.735L247.828 123.024L251.552 124.004L248.841 121.27L249.821 117.546Z" fill="#8620B9"/>
<path d="M99.5 452.181C141.75 452.181 176 418.378 176 376.681C176 334.983 141.75 301.181 99.5 301.181C57.2502 301.181 23 334.983 23 376.681" stroke="#23024D"/>
<path d="M99 452.181C57.0264 452.181 23 418.154 23 376.181" stroke="#23024D" stroke-dasharray="4 3"/>
<path d="M63.9172 370.353V372.181H58.1906V370.353H63.9172ZM58.9484 360.806V372.181H56.6047V360.806H58.9484ZM69.3531 360.806V372.181H67.0172V360.806H69.3531ZM79.3281 370.493L82.4062 372.931L80.9297 374.212L77.8984 371.774L79.3281 370.493ZM82.4844 366.228V366.767C82.4844 367.631 82.3672 368.407 82.1328 369.095C81.9036 369.782 81.5729 370.368 81.1406 370.853C80.7083 371.332 80.1979 371.699 79.6094 371.954C79.0208 372.209 78.3672 372.337 77.6484 372.337C76.9349 372.337 76.2812 372.209 75.6875 371.954C75.0938 371.699 74.5807 371.332 74.1484 370.853C73.7161 370.368 73.3802 369.782 73.1406 369.095C72.9062 368.407 72.7891 367.631 72.7891 366.767V366.228C72.7891 365.358 72.9062 364.582 73.1406 363.899C73.3802 363.212 73.7135 362.626 74.1406 362.142C74.5677 361.657 75.0781 361.287 75.6719 361.032C76.2656 360.777 76.9193 360.649 77.6328 360.649C78.3516 360.649 79.0052 360.777 79.5938 361.032C80.1875 361.287 80.7005 361.657 81.1328 362.142C81.5651 362.626 81.8984 363.212 82.1328 363.899C82.3672 364.582 82.4844 365.358 82.4844 366.228ZM80.1172 366.767V366.212C80.1172 365.608 80.0599 365.076 79.9453 364.618C79.8359 364.16 79.6745 363.774 79.4609 363.462C79.2526 363.149 78.9948 362.915 78.6875 362.759C78.3802 362.597 78.0286 362.517 77.6328 362.517C77.237 362.517 76.8854 362.597 76.5781 362.759C76.2708 362.915 76.013 363.149 75.8047 363.462C75.5964 363.774 75.4375 364.16 75.3281 364.618C75.2188 365.076 75.1641 365.608 75.1641 366.212V366.767C75.1641 367.366 75.2188 367.897 75.3281 368.36C75.4375 368.819 75.5964 369.207 75.8047 369.524C76.0182 369.837 76.2786 370.074 76.5859 370.235C76.8984 370.397 77.2526 370.478 77.6484 370.478C78.0443 370.478 78.3932 370.397 78.6953 370.235C79.0026 370.074 79.2604 369.837 79.4688 369.524C79.6823 369.207 79.8438 368.819 79.9531 368.36C80.0625 367.897 80.1172 367.366 80.1172 366.767ZM92.0609 360.806H94.3969V368.321C94.3969 369.196 94.2094 369.933 93.8344 370.532C93.4646 371.131 92.9516 371.582 92.2953 371.884C91.6443 372.186 90.8943 372.337 90.0453 372.337C89.1964 372.337 88.4411 372.186 87.7797 371.884C87.1234 371.582 86.6078 371.131 86.2328 370.532C85.863 369.933 85.6781 369.196 85.6781 368.321V360.806H88.0219V368.321C88.0219 368.832 88.1026 369.248 88.2641 369.571C88.4255 369.894 88.6573 370.131 88.9594 370.282C89.2667 370.433 89.6286 370.509 90.0453 370.509C90.4724 370.509 90.8344 370.433 91.1312 370.282C91.4333 370.131 91.6625 369.894 91.8187 369.571C91.9802 369.248 92.0609 368.832 92.0609 368.321V360.806ZM100.419 360.806V372.181H98.0828V360.806H100.419ZM107.706 372.181H105.23L105.245 370.353H107.706C108.321 370.353 108.839 370.215 109.261 369.938C109.683 369.657 110.001 369.248 110.214 368.712C110.433 368.175 110.542 367.527 110.542 366.767V366.212C110.542 365.629 110.48 365.116 110.355 364.673C110.235 364.23 110.055 363.858 109.816 363.556C109.576 363.254 109.282 363.027 108.933 362.876C108.584 362.72 108.183 362.642 107.73 362.642H105.183V360.806H107.73C108.49 360.806 109.185 360.936 109.816 361.196C110.451 361.451 111.001 361.819 111.464 362.298C111.928 362.777 112.284 363.35 112.534 364.017C112.79 364.678 112.917 365.415 112.917 366.228V366.767C112.917 367.574 112.79 368.311 112.534 368.978C112.284 369.644 111.928 370.217 111.464 370.696C111.006 371.17 110.456 371.537 109.816 371.798C109.18 372.053 108.477 372.181 107.706 372.181ZM106.558 360.806V372.181H104.214V360.806H106.558ZM118.712 360.806V372.181H116.377V360.806H118.712ZM127.359 360.806V372.181H125.023V360.806H127.359ZM130.859 360.806V362.642H121.578V360.806H130.859ZM135.483 360.806L137.858 365.993L140.233 360.806H142.788L139.045 368.04V372.181H136.67V368.04L132.92 360.806H135.483ZM56.0062 389.126H53.1078V387.298H56.0062C56.4542 387.298 56.8187 387.225 57.1 387.079C57.3812 386.928 57.587 386.72 57.7172 386.454C57.8474 386.188 57.9125 385.889 57.9125 385.556C57.9125 385.217 57.8474 384.902 57.7172 384.61C57.587 384.319 57.3812 384.084 57.1 383.907C56.8187 383.73 56.4542 383.642 56.0062 383.642H53.9203V393.181H51.5766V381.806H56.0062C56.8969 381.806 57.6599 381.967 58.2953 382.29C58.9359 382.608 59.4255 383.048 59.7641 383.61C60.1026 384.173 60.2719 384.816 60.2719 385.54C60.2719 386.274 60.1026 386.91 59.7641 387.446C59.4255 387.983 58.9359 388.397 58.2953 388.688C57.6599 388.98 56.8969 389.126 56.0062 389.126ZM63.4891 381.806H67.7312C68.601 381.806 69.3484 381.936 69.9734 382.196C70.6036 382.457 71.088 382.842 71.4266 383.353C71.7651 383.863 71.9344 384.491 71.9344 385.235C71.9344 385.845 71.8302 386.368 71.6219 386.806C71.4187 387.238 71.1297 387.6 70.7547 387.892C70.3849 388.178 69.95 388.407 69.45 388.579L68.7078 388.97H65.0203L65.0047 387.142H67.7469C68.1583 387.142 68.4995 387.069 68.7703 386.923C69.0411 386.777 69.2443 386.574 69.3797 386.313C69.5203 386.053 69.5906 385.751 69.5906 385.407C69.5906 385.043 69.5229 384.728 69.3875 384.462C69.2521 384.196 69.0464 383.993 68.7703 383.853C68.4943 383.712 68.1479 383.642 67.7312 383.642H65.8328V393.181H63.4891V381.806ZM69.8484 393.181L67.2547 388.11L69.7312 388.095L72.3562 393.071V393.181H69.8484ZM84.6828 387.228V387.767C84.6828 388.631 84.5656 389.407 84.3312 390.095C84.0969 390.782 83.7661 391.368 83.3391 391.853C82.912 392.332 82.4016 392.699 81.8078 392.954C81.2193 393.209 80.5656 393.337 79.8469 393.337C79.1333 393.337 78.4797 393.209 77.8859 392.954C77.2974 392.699 76.787 392.332 76.3547 391.853C75.9224 391.368 75.5865 390.782 75.3469 390.095C75.1125 389.407 74.9953 388.631 74.9953 387.767V387.228C74.9953 386.358 75.1125 385.582 75.3469 384.899C75.5812 384.212 75.912 383.626 76.3391 383.142C76.7714 382.657 77.2818 382.287 77.8703 382.032C78.4641 381.777 79.1177 381.649 79.8312 381.649C80.55 381.649 81.2036 381.777 81.7922 382.032C82.3859 382.287 82.8964 382.657 83.3234 383.142C83.7557 383.626 84.0891 384.212 84.3234 384.899C84.563 385.582 84.6828 386.358 84.6828 387.228ZM82.3156 387.767V387.212C82.3156 386.608 82.2609 386.076 82.1516 385.618C82.0422 385.16 81.8807 384.774 81.6672 384.462C81.4536 384.149 81.1932 383.915 80.8859 383.759C80.5786 383.597 80.2271 383.517 79.8312 383.517C79.4354 383.517 79.0839 383.597 78.7766 383.759C78.4745 383.915 78.2167 384.149 78.0031 384.462C77.7948 384.774 77.6359 385.16 77.5266 385.618C77.4172 386.076 77.3625 386.608 77.3625 387.212V387.767C77.3625 388.366 77.4172 388.897 77.5266 389.36C77.6359 389.819 77.7974 390.207 78.0109 390.524C78.2245 390.837 78.4849 391.074 78.7922 391.235C79.0995 391.397 79.451 391.478 79.8469 391.478C80.2427 391.478 80.5943 391.397 80.9016 391.235C81.2089 391.074 81.4667 390.837 81.675 390.524C81.8833 390.207 82.0422 389.819 82.1516 389.36C82.2609 388.897 82.3156 388.366 82.3156 387.767ZM91.9 390.806L94.5797 381.806H97.1891L93.2281 393.181H91.5094L91.9 390.806ZM89.4312 381.806L92.1031 390.806L92.5094 393.181H90.775L86.8375 381.806H89.4312ZM102.344 381.806V393.181H100.008V381.806H102.344ZM109.631 393.181H107.155L107.17 391.353H109.631C110.246 391.353 110.764 391.215 111.186 390.938C111.608 390.657 111.926 390.248 112.139 389.712C112.358 389.175 112.467 388.527 112.467 387.767V387.212C112.467 386.629 112.405 386.116 112.28 385.673C112.16 385.23 111.98 384.858 111.741 384.556C111.501 384.254 111.207 384.027 110.858 383.876C110.509 383.72 110.108 383.642 109.655 383.642H107.108V381.806H109.655C110.415 381.806 111.11 381.936 111.741 382.196C112.376 382.451 112.926 382.819 113.389 383.298C113.853 383.777 114.209 384.35 114.459 385.017C114.715 385.678 114.842 386.415 114.842 387.228V387.767C114.842 388.574 114.715 389.311 114.459 389.978C114.209 390.644 113.853 391.217 113.389 391.696C112.931 392.17 112.381 392.537 111.741 392.798C111.105 393.053 110.402 393.181 109.631 393.181ZM108.483 381.806V393.181H106.139V381.806H108.483ZM125.778 391.353V393.181H119.723V391.353H125.778ZM120.489 381.806V393.181H118.145V381.806H120.489ZM124.989 386.438V388.22H119.723V386.438H124.989ZM125.77 381.806V383.642H119.723V381.806H125.77ZM128.745 381.806H132.987C133.857 381.806 134.605 381.936 135.23 382.196C135.86 382.457 136.344 382.842 136.683 383.353C137.021 383.863 137.191 384.491 137.191 385.235C137.191 385.845 137.086 386.368 136.878 386.806C136.675 387.238 136.386 387.6 136.011 387.892C135.641 388.178 135.206 388.407 134.706 388.579L133.964 388.97H130.277L130.261 387.142H133.003C133.415 387.142 133.756 387.069 134.027 386.923C134.297 386.777 134.501 386.574 134.636 386.313C134.777 386.053 134.847 385.751 134.847 385.407C134.847 385.043 134.779 384.728 134.644 384.462C134.508 384.196 134.303 383.993 134.027 383.853C133.751 383.712 133.404 383.642 132.987 383.642H131.089V393.181H128.745V381.806ZM135.105 393.181L132.511 388.11L134.987 388.095L137.612 393.071V393.181H135.105ZM146.517 390.204C146.517 390.001 146.486 389.819 146.423 389.657C146.366 389.491 146.257 389.34 146.095 389.204C145.934 389.063 145.707 388.925 145.416 388.79C145.124 388.655 144.746 388.514 144.283 388.368C143.767 388.201 143.278 388.014 142.814 387.806C142.356 387.597 141.949 387.355 141.595 387.079C141.246 386.798 140.97 386.472 140.767 386.103C140.569 385.733 140.47 385.303 140.47 384.813C140.47 384.34 140.574 383.91 140.783 383.524C140.991 383.134 141.283 382.8 141.658 382.524C142.033 382.243 142.476 382.027 142.986 381.876C143.502 381.725 144.067 381.649 144.681 381.649C145.52 381.649 146.252 381.8 146.877 382.103C147.502 382.405 147.986 382.819 148.33 383.345C148.679 383.871 148.853 384.472 148.853 385.149H146.525C146.525 384.816 146.455 384.524 146.314 384.274C146.179 384.019 145.97 383.819 145.689 383.673C145.413 383.527 145.064 383.454 144.642 383.454C144.236 383.454 143.897 383.517 143.627 383.642C143.356 383.761 143.153 383.925 143.017 384.134C142.882 384.337 142.814 384.566 142.814 384.821C142.814 385.014 142.861 385.188 142.955 385.345C143.054 385.501 143.199 385.647 143.392 385.782C143.585 385.918 143.822 386.045 144.103 386.165C144.384 386.285 144.71 386.402 145.08 386.517C145.699 386.704 146.244 386.915 146.713 387.149C147.186 387.384 147.582 387.647 147.9 387.938C148.218 388.23 148.457 388.561 148.619 388.931C148.78 389.3 148.861 389.72 148.861 390.188C148.861 390.683 148.765 391.126 148.572 391.517C148.379 391.907 148.101 392.238 147.736 392.509C147.371 392.78 146.936 392.985 146.431 393.126C145.926 393.267 145.361 393.337 144.736 393.337C144.173 393.337 143.619 393.264 143.072 393.118C142.525 392.967 142.028 392.741 141.58 392.438C141.137 392.136 140.783 391.751 140.517 391.282C140.252 390.813 140.119 390.259 140.119 389.618H142.47C142.47 389.972 142.525 390.272 142.634 390.517C142.744 390.761 142.897 390.959 143.095 391.11C143.298 391.261 143.538 391.371 143.814 391.438C144.095 391.506 144.403 391.54 144.736 391.54C145.142 391.54 145.476 391.483 145.736 391.368C146.002 391.254 146.197 391.095 146.322 390.892C146.452 390.688 146.517 390.459 146.517 390.204Z" fill="#23024D"/>
<path d="M127.011 414.239L129.307 414.844L130.994 413.172L130.389 415.468L132.061 417.155L129.765 416.551L128.078 418.222L128.682 415.926L127.011 414.239Z" fill="#8620B9"/>
<path d="M130.932 415.324L131.595 415.146" stroke="#8620B9" stroke-width="0.5" stroke-linejoin="round"/>
<path d="M131.707 415.117L131.928 415.058" stroke="#8620B9" stroke-width="0.5" stroke-linejoin="round"/>
<path d="M132.038 415.028L132.259 414.969" stroke="#8620B9" stroke-width="0.5" stroke-linejoin="round"/>
<path d="M128.076 416.089L127.412 416.267" stroke="#8620B9" stroke-width="0.5" stroke-linejoin="round"/>
<path d="M127.302 416.296L127.08 416.355" stroke="#8620B9" stroke-width="0.5" stroke-linejoin="round"/>
<path d="M126.971 416.385L126.749 416.444" stroke="#8620B9" stroke-width="0.5" stroke-linejoin="round"/>
<path d="M129.145 414.237L128.967 413.573" stroke="#8620B9" stroke-width="0.5" stroke-linejoin="round"/>
<path d="M128.938 413.463L128.878 413.242" stroke="#8620B9" stroke-width="0.5" stroke-linejoin="round"/>
<path d="M128.849 413.131L128.789 412.91" stroke="#8620B9" stroke-width="0.5" stroke-linejoin="round"/>
<path d="M129.909 417.093L130.087 417.757" stroke="#8620B9" stroke-width="0.5" stroke-linejoin="round"/>
<path d="M130.117 417.867L130.176 418.088" stroke="#8620B9" stroke-width="0.5" stroke-linejoin="round"/>
<path d="M130.206 418.198L130.265 418.42" stroke="#8620B9" stroke-width="0.5" stroke-linejoin="round"/>
<path d="M94.0205 331.298L98.6133 332.507L101.986 329.163L100.778 333.756L104.121 337.129L99.528 335.921L96.1549 339.264L97.3637 334.671L94.0205 331.298Z" fill="#8620B9"/>
<path d="M101.859 333.468L103.187 333.112" stroke="#8620B9" stroke-width="0.5" stroke-linejoin="round"/>
<path d="M103.407 333.052L103.85 332.933" stroke="#8620B9" stroke-width="0.5" stroke-linejoin="round"/>
<path d="M104.071 332.873L104.514 332.754" stroke="#8620B9" stroke-width="0.5" stroke-linejoin="round"/>
<path d="M96.1504 334.995L94.8228 335.351" stroke="#8620B9" stroke-width="0.5" stroke-linejoin="round"/>
<path d="M94.6016 335.41L94.159 335.529" stroke="#8620B9" stroke-width="0.5" stroke-linejoin="round"/>
<path d="M93.9375 335.589L93.495 335.707" stroke="#8620B9" stroke-width="0.5" stroke-linejoin="round"/>
<path d="M98.2891 331.295L97.9333 329.967" stroke="#8620B9" stroke-width="0.5" stroke-linejoin="round"/>
<path d="M97.874 329.745L97.7554 329.303" stroke="#8620B9" stroke-width="0.5" stroke-linejoin="round"/>
<path d="M97.6963 329.082L97.5777 328.639" stroke="#8620B9" stroke-width="0.5" stroke-linejoin="round"/>
<path d="M99.8184 337.002L100.174 338.33" stroke="#8620B9" stroke-width="0.5" stroke-linejoin="round"/>
<path d="M100.233 338.551L100.352 338.993" stroke="#8620B9" stroke-width="0.5" stroke-linejoin="round"/>
<path d="M100.411 339.214L100.53 339.656" stroke="#8620B9" stroke-width="0.5" stroke-linejoin="round"/>
<path d="M61.832 407.554L65.4015 406.58L66.375 403.011L67.3486 406.58L70.9181 407.554L67.3486 408.527L66.375 412.097L65.4015 408.527L61.832 407.554Z" fill="#8620B9"/>
<path d="M450.5 452.181C492.75 452.181 527 418.378 527 376.681C527 334.983 492.75 301.181 450.5 301.181C408.25 301.181 374 334.983 374 376.681" stroke="#23024D"/>
<path d="M450 452.181C408.026 452.181 374 418.154 374 376.181" stroke="#23024D" stroke-dasharray="4 3"/>
<path d="M422.18 383.806L424.859 374.806H427.469L423.508 386.181H421.789L422.18 383.806ZM419.711 374.806L422.383 383.806L422.789 386.181H421.055L417.117 374.806H419.711ZM439.366 380.228V380.767C439.366 381.631 439.248 382.407 439.014 383.095C438.78 383.782 438.449 384.368 438.022 384.853C437.595 385.332 437.084 385.699 436.491 385.954C435.902 386.209 435.248 386.337 434.53 386.337C433.816 386.337 433.163 386.209 432.569 385.954C431.98 385.699 431.47 385.332 431.038 384.853C430.605 384.368 430.269 383.782 430.03 383.095C429.795 382.407 429.678 381.631 429.678 380.767V380.228C429.678 379.358 429.795 378.582 430.03 377.899C430.264 377.212 430.595 376.626 431.022 376.142C431.454 375.657 431.965 375.287 432.553 375.032C433.147 374.777 433.801 374.649 434.514 374.649C435.233 374.649 435.886 374.777 436.475 375.032C437.069 375.287 437.579 375.657 438.006 376.142C438.439 376.626 438.772 377.212 439.006 377.899C439.246 378.582 439.366 379.358 439.366 380.228ZM436.998 380.767V380.212C436.998 379.608 436.944 379.076 436.834 378.618C436.725 378.16 436.564 377.774 436.35 377.462C436.136 377.149 435.876 376.915 435.569 376.759C435.261 376.597 434.91 376.517 434.514 376.517C434.118 376.517 433.767 376.597 433.459 376.759C433.157 376.915 432.899 377.149 432.686 377.462C432.478 377.774 432.319 378.16 432.209 378.618C432.1 379.076 432.045 379.608 432.045 380.212V380.767C432.045 381.366 432.1 381.897 432.209 382.36C432.319 382.819 432.48 383.207 432.694 383.524C432.907 383.837 433.168 384.074 433.475 384.235C433.782 384.397 434.134 384.478 434.53 384.478C434.926 384.478 435.277 384.397 435.584 384.235C435.892 384.074 436.149 383.837 436.358 383.524C436.566 383.207 436.725 382.819 436.834 382.36C436.944 381.897 436.998 381.366 436.998 380.767ZM447.208 374.806V386.181H444.872V374.806H447.208ZM450.708 374.806V376.642H441.427V374.806H450.708ZM461.277 384.353V386.181H455.222V384.353H461.277ZM455.987 374.806V386.181H453.644V374.806H455.987ZM460.487 379.438V381.22H455.222V379.438H460.487ZM461.269 374.806V376.642H455.222V374.806H461.269ZM464.244 374.806H468.486C469.356 374.806 470.103 374.936 470.728 375.196C471.358 375.457 471.843 375.842 472.181 376.353C472.52 376.863 472.689 377.491 472.689 378.235C472.689 378.845 472.585 379.368 472.377 379.806C472.173 380.238 471.884 380.6 471.509 380.892C471.14 381.178 470.705 381.407 470.205 381.579L469.463 381.97H465.775L465.759 380.142H468.502C468.913 380.142 469.254 380.069 469.525 379.923C469.796 379.777 469.999 379.574 470.134 379.313C470.275 379.053 470.345 378.751 470.345 378.407C470.345 378.043 470.278 377.728 470.142 377.462C470.007 377.196 469.801 376.993 469.525 376.853C469.249 376.712 468.903 376.642 468.486 376.642H466.588V386.181H464.244V374.806ZM470.603 386.181L468.009 381.11L470.486 381.095L473.111 386.071V386.181H470.603ZM482.016 383.204C482.016 383.001 481.984 382.819 481.922 382.657C481.865 382.491 481.755 382.34 481.594 382.204C481.432 382.063 481.206 381.925 480.914 381.79C480.622 381.655 480.245 381.514 479.781 381.368C479.266 381.201 478.776 381.014 478.312 380.806C477.854 380.597 477.448 380.355 477.094 380.079C476.745 379.798 476.469 379.472 476.266 379.103C476.068 378.733 475.969 378.303 475.969 377.813C475.969 377.34 476.073 376.91 476.281 376.524C476.49 376.134 476.781 375.8 477.156 375.524C477.531 375.243 477.974 375.027 478.484 374.876C479 374.725 479.565 374.649 480.18 374.649C481.018 374.649 481.75 374.8 482.375 375.103C483 375.405 483.484 375.819 483.828 376.345C484.177 376.871 484.352 377.472 484.352 378.149H482.023C482.023 377.816 481.953 377.524 481.812 377.274C481.677 377.019 481.469 376.819 481.188 376.673C480.911 376.527 480.562 376.454 480.141 376.454C479.734 376.454 479.396 376.517 479.125 376.642C478.854 376.761 478.651 376.925 478.516 377.134C478.38 377.337 478.312 377.566 478.312 377.821C478.312 378.014 478.359 378.188 478.453 378.345C478.552 378.501 478.698 378.647 478.891 378.782C479.083 378.918 479.32 379.045 479.602 379.165C479.883 379.285 480.208 379.402 480.578 379.517C481.198 379.704 481.742 379.915 482.211 380.149C482.685 380.384 483.081 380.647 483.398 380.938C483.716 381.23 483.956 381.561 484.117 381.931C484.279 382.3 484.359 382.72 484.359 383.188C484.359 383.683 484.263 384.126 484.07 384.517C483.878 384.907 483.599 385.238 483.234 385.509C482.87 385.78 482.435 385.985 481.93 386.126C481.424 386.267 480.859 386.337 480.234 386.337C479.672 386.337 479.117 386.264 478.57 386.118C478.023 385.967 477.526 385.741 477.078 385.438C476.635 385.136 476.281 384.751 476.016 384.282C475.75 383.813 475.617 383.259 475.617 382.618H477.969C477.969 382.972 478.023 383.272 478.133 383.517C478.242 383.761 478.396 383.959 478.594 384.11C478.797 384.261 479.036 384.371 479.312 384.438C479.594 384.506 479.901 384.54 480.234 384.54C480.641 384.54 480.974 384.483 481.234 384.368C481.5 384.254 481.695 384.095 481.82 383.892C481.951 383.688 482.016 383.459 482.016 383.204Z" fill="#23024D"/>
<path d="M421.034 413.346L421.659 415.637L423.95 416.262L421.659 416.886L421.034 419.177L420.409 416.886L418.118 416.262L420.409 415.637L421.034 413.346Z" fill="#23024D"/>
<path d="M422.055 417.282L422.541 417.768" stroke="#23024D" stroke-width="0.5" stroke-linejoin="round"/>
<path d="M422.622 417.85L422.784 418.012" stroke="#23024D" stroke-width="0.5" stroke-linejoin="round"/>
<path d="M422.864 418.093L423.026 418.255" stroke="#23024D" stroke-width="0.5" stroke-linejoin="round"/>
<path d="M419.965 415.193L419.479 414.707" stroke="#23024D" stroke-width="0.5" stroke-linejoin="round"/>
<path d="M419.397 414.626L419.235 414.464" stroke="#23024D" stroke-width="0.5" stroke-linejoin="round"/>
<path d="M419.155 414.383L418.993 414.221" stroke="#23024D" stroke-width="0.5" stroke-linejoin="round"/>
<path d="M422.103 415.192L422.589 414.706" stroke="#23024D" stroke-width="0.5" stroke-linejoin="round"/>
<path d="M422.67 414.625L422.832 414.463" stroke="#23024D" stroke-width="0.5" stroke-linejoin="round"/>
<path d="M422.912 414.383L423.074 414.221" stroke="#23024D" stroke-width="0.5" stroke-linejoin="round"/>
<path d="M420.013 417.282L419.527 417.768" stroke="#23024D" stroke-width="0.5" stroke-linejoin="round"/>
<path d="M419.445 417.85L419.283 418.012" stroke="#23024D" stroke-width="0.5" stroke-linejoin="round"/>
<path d="M419.203 418.092L419.041 418.254" stroke="#23024D" stroke-width="0.5" stroke-linejoin="round"/>
<path d="M490.934 394.812L492.183 399.393L496.765 400.643L492.183 401.892L490.934 406.474L489.684 401.892L485.102 400.643L489.684 399.393L490.934 394.812Z" fill="#23024D"/>
<path d="M492.975 402.685L493.947 403.656" stroke="#23024D" stroke-width="0.5" stroke-linejoin="round"/>
<path d="M494.108 403.817L494.432 404.141" stroke="#23024D" stroke-width="0.5" stroke-linejoin="round"/>
<path d="M494.596 404.303L494.92 404.627" stroke="#23024D" stroke-width="0.5" stroke-linejoin="round"/>
<path d="M488.797 398.504L487.825 397.532" stroke="#23024D" stroke-width="0.5" stroke-linejoin="round"/>
<path d="M487.663 397.369L487.339 397.045" stroke="#23024D" stroke-width="0.5" stroke-linejoin="round"/>
<path d="M487.177 396.884L486.853 396.56" stroke="#23024D" stroke-width="0.5" stroke-linejoin="round"/>
<path d="M493.072 398.506L494.044 397.534" stroke="#23024D" stroke-width="0.5" stroke-linejoin="round"/>
<path d="M494.206 397.372L494.53 397.048" stroke="#23024D" stroke-width="0.5" stroke-linejoin="round"/>
<path d="M494.691 396.887L495.015 396.563" stroke="#23024D" stroke-width="0.5" stroke-linejoin="round"/>
<path d="M488.894 402.685L487.922 403.656" stroke="#23024D" stroke-width="0.5" stroke-linejoin="round"/>
<path d="M487.759 403.819L487.435 404.143" stroke="#23024D" stroke-width="0.5" stroke-linejoin="round"/>
<path d="M487.273 404.305L486.949 404.629" stroke="#23024D" stroke-width="0.5" stroke-linejoin="round"/>
<path d="M427.663 346.181L430.291 348.785L433.869 347.844L431.264 350.471L432.206 354.049L429.578 351.445L426 352.387L428.605 349.759L427.663 346.181Z" fill="#23024D"/>
<path opacity="0.3" d="M376.151 96.2451C432.763 128.993 472.242 188.189 477.641 256.98L460.328 276.333L440.862 258.919C436.146 202.979 403.935 154.848 357.718 128.112L376.151 96.2451Z" fill="url(#paint0_linear_10925_30795)"/>
<path opacity="0.3" d="M203.938 124C151.539 154.368 114.997 209.261 110 273.053L126.025 291L144.042 274.851C148.408 222.976 178.221 178.344 221 153.551L203.938 124Z" fill="url(#paint1_linear_10925_30795)"/>
<path opacity="0.3" d="M70.7405 293.027C64.486 227.926 89.7107 161.394 142.552 117.019L168.363 119.859L165.506 145.82C122.726 182.172 102.28 236.357 107.386 289.506L70.7405 293.027Z" fill="url(#paint2_linear_10925_30795)"/>
<path opacity="0.3" d="M380.804 447.533C324.95 481.558 254.079 487.88 191.098 459.687L182.395 435.222L207.003 426.469C258.375 449.109 316.052 443.871 361.65 416.093L380.804 447.533Z" fill="url(#paint3_linear_10925_30795)"/>
<path d="M435.823 173.233L427.317 178.401L426.252 176.648L434.759 171.481L435.823 173.233ZM434.248 178.83L432.881 179.66L430.531 175.792L431.898 174.962L434.248 178.83ZM438.13 177.031L436.757 177.865L434.159 173.588L435.532 172.754L438.13 177.031ZM435.511 189.547L434.104 190.308L431.585 185.647L432.992 184.886L435.511 189.547ZM440.659 181.504L431.903 186.236L430.928 184.432L439.684 179.699L440.659 181.504ZM438.966 186.895L437.594 187.636L435.403 183.583L436.775 182.842L438.966 186.895ZM442.857 185.569L441.443 186.333L438.927 181.678L440.341 180.914L442.857 185.569ZM439.589 197.972L438.142 198.654L435.883 193.862L437.33 193.18L439.589 197.972ZM445.172 190.224L436.169 194.468L435.294 192.613L444.298 188.369L445.172 190.224ZM443.184 195.514L441.774 196.179L439.81 192.011L441.22 191.347L443.184 195.514ZM447.142 194.404L445.689 195.089L443.433 190.303L444.886 189.618L447.142 194.404ZM443.602 204.806C443.766 204.738 443.903 204.651 444.012 204.546C444.128 204.444 444.213 204.305 444.269 204.129C444.328 203.952 444.364 203.722 444.375 203.441C444.387 203.16 444.374 202.808 444.336 202.384C444.298 201.911 444.285 201.453 444.298 201.008C444.313 200.568 444.372 200.159 444.477 199.78C444.587 199.403 444.757 199.071 444.988 198.783C445.22 198.499 445.535 198.275 445.93 198.111C446.313 197.952 446.695 197.892 447.077 197.931C447.462 197.968 447.83 198.092 448.178 198.303C448.531 198.511 448.855 198.797 449.148 199.158C449.443 199.524 449.694 199.956 449.9 200.453C450.181 201.13 450.304 201.772 450.27 202.379C450.235 202.985 450.063 203.515 449.753 203.97C449.445 204.428 449.018 204.771 448.47 204.998L447.69 203.117C447.959 203.005 448.171 202.85 448.326 202.653C448.487 202.458 448.579 202.222 448.602 201.946C448.628 201.674 448.57 201.367 448.428 201.026C448.292 200.698 448.128 200.445 447.936 200.268C447.748 200.09 447.548 199.981 447.334 199.941C447.124 199.9 446.916 199.922 446.71 200.007C446.554 200.072 446.429 200.168 446.334 200.297C446.241 200.429 446.172 200.596 446.127 200.797C446.083 200.998 446.059 201.232 446.056 201.5C446.054 201.767 446.068 202.07 446.1 202.407C446.156 202.971 446.168 203.481 446.136 203.939C446.106 204.401 446.026 204.809 445.897 205.163C445.768 205.518 445.581 205.822 445.336 206.077C445.091 206.331 444.779 206.537 444.401 206.695C444.001 206.86 443.611 206.931 443.23 206.906C442.85 206.882 442.489 206.767 442.148 206.564C441.807 206.36 441.495 206.077 441.212 205.716C440.929 205.355 440.682 204.922 440.473 204.417C440.284 203.962 440.157 203.49 440.091 202.999C440.03 202.506 440.046 202.028 440.14 201.565C440.236 201.106 440.428 200.69 440.718 200.318C441.008 199.946 441.412 199.653 441.929 199.438L442.718 201.339C442.432 201.457 442.208 201.602 442.047 201.773C441.886 201.943 441.777 202.134 441.722 202.344C441.668 202.559 441.66 202.789 441.698 203.035C441.737 203.285 441.813 203.545 441.925 203.814C442.061 204.143 442.219 204.393 442.399 204.565C442.581 204.741 442.775 204.846 442.981 204.878C443.189 204.915 443.396 204.891 443.602 204.806Z" fill="#23024D"/>
<path d="M134.648 222.287L143.853 226.072L143.074 227.968L133.868 224.184L134.648 222.287ZM140.088 220.237L141.567 220.845L139.847 225.031L138.367 224.422L140.088 220.237ZM136.337 218.177L137.823 218.788L135.921 223.416L134.435 222.806L136.337 218.177ZM148.002 212.871L149.446 213.559L147.166 218.341L145.722 217.653L148.002 212.871ZM138.47 213.453L147.454 217.737L146.572 219.588L137.588 215.304L138.47 213.453ZM143.824 211.643L145.231 212.314L143.248 216.473L141.841 215.802L143.824 211.643ZM140.459 209.282L141.909 209.973L139.632 214.749L138.182 214.057L140.459 209.282ZM152.43 204.619L153.831 205.39L151.275 210.031L149.874 209.26L152.43 204.619ZM142.88 204.643L151.599 209.444L150.609 211.241L141.891 206.44L142.88 204.643ZM148.33 203.15L149.695 203.901L147.473 207.937L146.108 207.186L148.33 203.15ZM145.109 200.595L146.516 201.37L143.964 206.005L142.557 205.23L145.109 200.595ZM155.625 197.362C155.474 197.269 155.324 197.209 155.175 197.181C155.025 197.147 154.862 197.159 154.687 197.217C154.508 197.273 154.301 197.378 154.066 197.533C153.831 197.688 153.553 197.904 153.232 198.182C152.871 198.49 152.506 198.768 152.138 199.018C151.772 199.263 151.405 199.454 151.037 199.591C150.667 199.722 150.298 199.778 149.929 199.759C149.563 199.737 149.197 199.613 148.833 199.388C148.48 199.17 148.208 198.895 148.017 198.563C147.821 198.228 147.707 197.858 147.674 197.452C147.637 197.043 147.679 196.614 147.801 196.165C147.926 195.711 148.129 195.256 148.412 194.798C148.797 194.174 149.246 193.698 149.758 193.372C150.27 193.045 150.801 192.875 151.351 192.861C151.903 192.843 152.431 192.989 152.935 193.3L151.865 195.034C151.617 194.881 151.368 194.799 151.117 194.789C150.864 194.772 150.619 194.835 150.382 194.978C150.146 195.116 149.932 195.343 149.738 195.657C149.551 195.959 149.442 196.24 149.411 196.499C149.375 196.756 149.404 196.983 149.497 197.179C149.586 197.373 149.726 197.529 149.916 197.646C150.059 197.735 150.211 197.78 150.37 197.782C150.532 197.78 150.707 197.739 150.897 197.657C151.086 197.576 151.29 197.458 151.509 197.304C151.727 197.15 151.964 196.961 152.219 196.738C152.644 196.363 153.051 196.055 153.441 195.813C153.833 195.568 154.211 195.394 154.574 195.292C154.937 195.189 155.293 195.163 155.643 195.212C155.993 195.262 156.342 195.395 156.691 195.61C157.059 195.837 157.345 196.113 157.547 196.436C157.749 196.759 157.867 197.118 157.902 197.514C157.936 197.91 157.889 198.328 157.762 198.769C157.634 199.21 157.427 199.663 157.14 200.128C156.881 200.547 156.572 200.927 156.212 201.267C155.848 201.605 155.451 201.871 155.02 202.066C154.592 202.257 154.142 202.343 153.671 202.326C153.2 202.308 152.726 202.152 152.249 201.858L153.329 200.107C153.593 200.269 153.841 200.366 154.074 200.397C154.306 200.428 154.524 200.405 154.728 200.327C154.934 200.245 155.125 200.117 155.302 199.942C155.482 199.764 155.649 199.551 155.802 199.303C155.988 199 156.099 198.726 156.133 198.479C156.17 198.229 156.141 198.01 156.048 197.824C155.956 197.633 155.815 197.48 155.625 197.362Z" fill="#23024D"/>
<path d="M234.045 449.729L237.686 450.45C238.433 450.598 239.052 450.836 239.544 451.166C240.041 451.497 240.391 451.91 240.595 452.405C240.799 452.901 240.838 453.469 240.711 454.108C240.608 454.631 240.429 455.062 240.176 455.403C239.929 455.739 239.619 456.001 239.247 456.187C238.881 456.37 238.469 456.493 238.011 456.556L237.307 456.765L234.142 456.139L234.439 454.567L236.793 455.033C237.146 455.103 237.452 455.098 237.709 455.019C237.966 454.94 238.175 454.8 238.335 454.599C238.5 454.4 238.612 454.152 238.67 453.857C238.732 453.544 238.728 453.262 238.657 453.011C238.585 452.76 238.443 452.551 238.23 452.383C238.017 452.216 237.732 452.097 237.374 452.026L235.745 451.703L234.124 459.891L232.113 459.493L234.045 449.729ZM237.571 460.573L236.206 455.781L238.335 456.188L239.742 460.905L239.724 460.999L237.571 460.573ZM249.131 460.864L248.895 462.447L243.655 461.667L243.89 460.085L249.131 460.864ZM245.782 451.921L244.318 461.766L242.289 461.464L243.754 451.619L245.782 451.921ZM249.08 456.51L248.851 458.051L244.294 457.373L244.523 455.832L249.08 456.51ZM250.353 452.601L250.117 454.19L244.883 453.411L245.12 451.822L250.353 452.601ZM253.995 461.41L256.697 453.24L257.8 453.336L257.931 454.747L255.084 463.09L253.899 462.987L253.995 461.41ZM253.707 452.979L254.615 461.464L254.342 463.025L253.02 462.91L251.685 452.803L253.707 452.979ZM259.065 461.817L261.403 453.65L263.425 453.826L260.369 463.55L259.047 463.435L259.065 461.817ZM258.42 453.39L259.679 461.94L259.49 463.474L258.305 463.371L256.931 454.653L257.324 453.294L258.42 453.39ZM269.028 455.738L266.105 463.915L263.925 463.857L267.884 454.005L269.272 454.042L269.028 455.738ZM271.059 464.046L268.564 455.726L268.39 454.019L269.791 454.056L273.246 464.103L271.059 464.046ZM271.034 460.339L270.991 461.944L265.736 461.806L265.779 460.2L271.034 460.339ZM275.263 454.166L278.973 454.053C279.734 454.03 280.391 454.124 280.945 454.335C281.503 454.546 281.937 454.87 282.246 455.307C282.556 455.745 282.721 456.289 282.74 456.941C282.757 457.474 282.679 457.934 282.509 458.322C282.343 458.706 282.099 459.03 281.779 459.295C281.463 459.556 281.089 459.768 280.656 459.931L280.018 460.292L276.793 460.39L276.73 458.792L279.129 458.719C279.488 458.708 279.785 458.635 280.018 458.501C280.251 458.366 280.423 458.183 280.535 457.951C280.651 457.72 280.704 457.454 280.695 457.153C280.685 456.834 280.618 456.561 280.492 456.332C280.367 456.103 280.181 455.931 279.936 455.815C279.691 455.7 279.386 455.647 279.022 455.658L277.362 455.709L277.615 464.052L275.565 464.114L275.263 454.166ZM281.127 463.945L278.724 459.58L280.889 459.5L283.318 463.783L283.32 463.878L281.127 463.945ZM288.969 463.492L286.81 463.676L286.688 462.081L288.834 461.898C289.37 461.853 289.811 461.694 290.159 461.422C290.506 461.146 290.753 460.766 290.899 460.282C291.05 459.798 291.097 459.225 291.041 458.562L291 458.078C290.957 457.57 290.864 457.127 290.723 456.75C290.585 456.373 290.401 456.062 290.17 455.816C289.939 455.571 289.665 455.395 289.35 455.289C289.034 455.179 288.679 455.14 288.283 455.174L286.063 455.362L285.927 453.762L288.148 453.573C288.81 453.517 289.426 453.579 289.995 453.759C290.568 453.935 291.074 454.214 291.514 454.598C291.954 454.981 292.307 455.454 292.574 456.017C292.846 456.575 293.012 457.208 293.072 457.916L293.112 458.386C293.172 459.09 293.115 459.742 292.942 460.342C292.773 460.942 292.504 461.468 292.136 461.92C291.771 462.367 291.319 462.728 290.78 463.002C290.245 463.272 289.641 463.435 288.969 463.492ZM287.126 453.66L287.968 463.577L285.925 463.751L285.082 453.834L287.126 453.66ZM301.17 459.539C301.146 459.363 301.097 459.209 301.024 459.076C300.955 458.938 300.842 458.82 300.686 458.722C300.529 458.619 300.317 458.526 300.048 458.443C299.779 458.36 299.435 458.282 299.016 458.21C298.549 458.127 298.103 458.022 297.676 457.896C297.254 457.769 296.874 457.607 296.534 457.409C296.198 457.207 295.921 456.957 295.701 456.66C295.486 456.363 295.349 456.002 295.292 455.578C295.236 455.167 295.275 454.782 295.411 454.423C295.545 454.06 295.759 453.737 296.052 453.453C296.344 453.165 296.702 452.925 297.127 452.734C297.556 452.543 298.037 452.411 298.57 452.338C299.297 452.239 299.949 452.284 300.527 452.472C301.104 452.661 301.573 452.963 301.933 453.378C302.297 453.793 302.52 454.294 302.599 454.881L300.581 455.156C300.542 454.867 300.446 454.622 300.295 454.422C300.147 454.216 299.943 454.067 299.682 453.974C299.426 453.88 299.114 453.858 298.749 453.908C298.396 453.955 298.11 454.049 297.89 454.19C297.669 454.326 297.513 454.492 297.42 454.688C297.326 454.88 297.295 455.087 297.325 455.308C297.347 455.475 297.409 455.621 297.508 455.746C297.612 455.869 297.756 455.979 297.939 456.073C298.122 456.168 298.343 456.251 298.601 456.321C298.859 456.392 299.155 456.455 299.489 456.511C300.048 456.601 300.545 456.72 300.979 456.868C301.418 457.015 301.792 457.196 302.102 457.412C302.411 457.627 302.658 457.886 302.842 458.187C303.025 458.489 303.145 458.843 303.2 459.249C303.258 459.678 303.227 460.074 303.106 460.435C302.985 460.796 302.782 461.116 302.498 461.394C302.214 461.671 301.861 461.901 301.439 462.083C301.018 462.264 300.536 462.392 299.994 462.465C299.507 462.531 299.017 462.534 298.526 462.472C298.034 462.405 297.576 462.267 297.152 462.058C296.732 461.848 296.38 461.556 296.094 461.181C295.809 460.806 295.628 460.34 295.553 459.785L297.592 459.508C297.634 459.815 297.716 460.068 297.84 460.267C297.964 460.467 298.12 460.62 298.31 460.728C298.503 460.835 298.724 460.902 298.971 460.928C299.223 460.953 299.494 460.946 299.783 460.907C300.135 460.859 300.417 460.77 300.629 460.64C300.846 460.51 300.997 460.349 301.081 460.158C301.17 459.967 301.2 459.76 301.17 459.539Z" fill="#23024D"/>
<path d="M101.74 216.997L103.269 217.469L101.79 222.257L100.262 221.785L101.74 216.997ZM92.4758 218.686L101.986 221.623L101.381 223.582L91.8707 220.646L92.4758 218.686ZM95.4086 209.642L104.791 212.965L104.108 214.892L94.7262 211.569L95.4086 209.642ZM106.604 204.284L109.594 202.592L110.146 204.211L107.172 205.865L106.604 204.284ZM104.186 200.321L104.623 200.498C105.324 200.783 105.914 201.134 106.394 201.55C106.876 201.962 107.242 202.423 107.492 202.933C107.739 203.442 107.868 203.976 107.881 204.537C107.894 205.099 107.782 205.67 107.546 206.253C107.311 206.832 106.992 207.319 106.59 207.717C106.187 208.114 105.72 208.409 105.19 208.602C104.655 208.792 104.069 208.872 103.433 208.84C102.798 208.803 102.131 208.643 101.43 208.358L100.993 208.18C100.288 207.894 99.6971 207.543 99.2212 207.129C98.7427 206.708 98.3775 206.245 98.1255 205.739C97.8735 205.233 97.7419 204.698 97.7305 204.132C97.7192 203.567 97.831 202.995 98.066 202.417C98.3027 201.834 98.6214 201.346 99.0221 200.953C99.4246 200.556 99.8933 200.262 100.428 200.071C100.963 199.88 101.548 199.803 102.183 199.839C102.813 199.874 103.481 200.034 104.186 200.321ZM103.843 202.417L103.393 202.235C102.904 202.036 102.454 201.907 102.045 201.849C101.637 201.787 101.272 201.791 100.948 201.861C100.626 201.927 100.351 202.059 100.123 202.256C99.8912 202.452 99.71 202.711 99.5796 203.032C99.4493 203.352 99.3989 203.664 99.4286 203.966C99.4541 204.267 99.5592 204.553 99.7439 204.825C99.9286 205.097 100.189 205.352 100.524 205.592C100.86 205.832 101.272 206.051 101.762 206.25L102.212 206.433C102.697 206.63 103.146 206.76 103.558 206.824C103.965 206.887 104.332 206.886 104.658 206.822C104.982 206.751 105.26 206.618 105.492 206.422C105.726 206.222 105.908 205.962 106.038 205.641C106.169 205.32 106.218 205.01 106.187 204.712C106.157 204.41 106.05 204.123 105.865 203.851C105.678 203.573 105.417 203.315 105.081 203.075C104.741 202.834 104.329 202.615 103.843 202.417ZM103.533 190.384L104.414 188.54L110.348 191.375C111.039 191.705 111.55 192.131 111.881 192.653C112.215 193.17 112.377 193.745 112.368 194.377C112.361 195.005 112.197 195.655 111.877 196.325C111.557 196.995 111.153 197.534 110.665 197.943C110.179 198.347 109.628 198.584 109.014 198.654C108.402 198.72 107.75 198.588 107.059 198.258L101.125 195.423L102.009 193.573L107.943 196.408C108.346 196.6 108.706 196.694 109.022 196.688C109.337 196.682 109.612 196.589 109.845 196.407C110.08 196.222 110.276 195.964 110.434 195.635C110.595 195.298 110.672 194.984 110.664 194.692C110.659 194.397 110.558 194.127 110.362 193.881C110.168 193.632 109.87 193.411 109.467 193.219L103.533 190.384ZM107.032 183.428L115.797 188.144L114.828 189.944L106.063 185.228L107.032 183.428ZM118.949 182.603L117.85 184.471L116.478 183.648L117.57 181.792C117.843 181.329 117.969 180.877 117.948 180.436C117.923 179.993 117.755 179.572 117.446 179.173C117.138 178.77 116.698 178.4 116.124 178.062L115.706 177.816C115.266 177.557 114.851 177.377 114.462 177.275C114.075 177.169 113.714 177.139 113.38 177.186C113.046 177.232 112.745 177.354 112.476 177.55C112.203 177.744 111.966 178.011 111.765 178.353L110.635 180.274L109.251 179.459L110.381 177.538C110.718 176.965 111.125 176.498 111.601 176.139C112.075 175.773 112.596 175.521 113.163 175.384C113.73 175.247 114.32 175.232 114.934 175.34C115.546 175.441 116.159 175.672 116.771 176.032L117.178 176.271C117.787 176.629 118.286 177.053 118.675 177.541C119.067 178.025 119.341 178.549 119.497 179.111C119.651 179.667 119.684 180.244 119.596 180.843C119.507 181.435 119.291 182.022 118.949 182.603ZM109.861 178.422L118.439 183.469L117.399 185.237L108.821 180.19L109.861 178.422ZM115.659 168.905L123.966 174.388L122.84 176.094L114.533 170.611L115.659 168.905ZM120.204 162.397L128.299 168.188L127.11 169.85L119.015 164.059L120.204 162.397ZM121.986 159.906L123.292 160.841L118.567 167.446L117.261 166.511L121.986 159.906ZM124.769 156.255L129.61 157.475L127.37 153.013L128.769 151.27L131.657 157.785L134.483 160.052L133.183 161.673L130.357 159.406L123.366 158.004L124.769 156.255Z" fill="#23024D"/>
<path fill-rule="evenodd" clip-rule="evenodd" d="M282.089 267.182L293.992 279.045L305.812 267.258L311 272.4L293.994 289.358L282.089 277.494L263.317 296.202L253.244 286.164L241.186 298.181L236 293.038L253.244 275.852L263.317 285.89L282.089 267.182Z" fill="#BDB3CA"/>
<path fill-rule="evenodd" clip-rule="evenodd" d="M282.089 247.181L293.992 259.044L305.812 247.257L311 252.398L293.994 269.357L282.089 257.493L263.317 276.201L253.244 266.162L241.186 278.179L236 273.036L253.244 255.85L263.317 265.889L282.089 247.181Z" fill="#BDB3CA"/>
<defs>
<linearGradient id="paint0_linear_10925_30795" x1="375.465" y1="133.107" x2="462.113" y2="276.773" gradientUnits="userSpaceOnUse">
<stop stop-color="#8620B9" stop-opacity="0"/>
<stop offset="1" stop-color="#8620B9"/>
</linearGradient>
<linearGradient id="paint1_linear_10925_30795" x1="204.574" y1="158.183" x2="124.153" y2="291.275" gradientUnits="userSpaceOnUse">
<stop stop-color="#8620B9" stop-opacity="0"/>
<stop offset="1" stop-color="#8620B9"/>
</linearGradient>
<linearGradient id="paint2_linear_10925_30795" x1="101.135" y1="272.161" x2="167.683" y2="118.151" gradientUnits="userSpaceOnUse">
<stop stop-color="#8620B9" stop-opacity="0"/>
<stop offset="1" stop-color="#8620B9"/>
</linearGradient>
<linearGradient id="paint3_linear_10925_30795" x1="348.769" y1="429.283" x2="181.154" y2="436.579" gradientUnits="userSpaceOnUse">
<stop stop-color="#8620B9" stop-opacity="0"/>
<stop offset="1" stop-color="#8620B9"/>
</linearGradient>
</defs>
</svg>
