<svg width="100%" height="100%" viewBox="0 0 538 488" fill="none" xmlns="http://www.w3.org/2000/svg">
<g clip-path="url(#clip0_11310_51496)">
<path d="M274.566 151C316.816 151 351.066 117.197 351.066 75.5C351.066 33.8025 316.816 0 274.566 0C232.317 0 198.066 33.8025 198.066 75.5" stroke="#23024D"/>
<path d="M274.066 151C232.093 151 198.066 116.974 198.066 75" stroke="#23024D" stroke-dasharray="4 3"/>
<path d="M311.663 82.0234C311.663 81.8203 311.632 81.638 311.569 81.4766C311.512 81.3099 311.403 81.1589 311.241 81.0234C311.08 80.8828 310.853 80.7448 310.562 80.6094C310.27 80.474 309.892 80.3333 309.429 80.1875C308.913 80.0208 308.424 79.8333 307.96 79.625C307.502 79.4167 307.095 79.1745 306.741 78.8984C306.392 78.6172 306.116 78.2917 305.913 77.9219C305.715 77.5521 305.616 77.1224 305.616 76.6328C305.616 76.1589 305.72 75.7292 305.929 75.3438C306.137 74.9531 306.429 74.6198 306.804 74.3438C307.179 74.0625 307.621 73.8464 308.132 73.6953C308.647 73.5443 309.213 73.4688 309.827 73.4688C310.666 73.4688 311.397 73.6198 312.022 73.9219C312.647 74.224 313.132 74.638 313.476 75.1641C313.825 75.6901 313.999 76.2917 313.999 76.9688H311.671C311.671 76.6354 311.601 76.3438 311.46 76.0938C311.325 75.8385 311.116 75.638 310.835 75.4922C310.559 75.3464 310.21 75.2734 309.788 75.2734C309.382 75.2734 309.043 75.3359 308.772 75.4609C308.502 75.5807 308.299 75.7448 308.163 75.9531C308.028 76.1562 307.96 76.3854 307.96 76.6406C307.96 76.8333 308.007 77.0078 308.101 77.1641C308.2 77.3203 308.345 77.4661 308.538 77.6016C308.731 77.737 308.968 77.8646 309.249 77.9844C309.53 78.1042 309.856 78.2214 310.226 78.3359C310.845 78.5234 311.39 78.7344 311.858 78.9688C312.332 79.2031 312.728 79.4661 313.046 79.7578C313.364 80.0495 313.603 80.3802 313.765 80.75C313.926 81.1198 314.007 81.5391 314.007 82.0078C314.007 82.5026 313.91 82.9453 313.718 83.3359C313.525 83.7266 313.246 84.0573 312.882 84.3281C312.517 84.599 312.082 84.8047 311.577 84.9453C311.072 85.0859 310.507 85.1562 309.882 85.1562C309.319 85.1562 308.765 85.0833 308.218 84.9375C307.671 84.7865 307.174 84.5599 306.726 84.2578C306.283 83.9557 305.929 83.5703 305.663 83.1016C305.397 82.6328 305.265 82.0781 305.265 81.4375H307.616C307.616 81.7917 307.671 82.0911 307.78 82.3359C307.89 82.5807 308.043 82.7786 308.241 82.9297C308.444 83.0807 308.684 83.1901 308.96 83.2578C309.241 83.3255 309.549 83.3594 309.882 83.3594C310.288 83.3594 310.621 83.3021 310.882 83.1875C311.147 83.0729 311.343 82.9141 311.468 82.7109C311.598 82.5078 311.663 82.2786 311.663 82.0234Z" fill="#23024D"/>
<path d="M293.892 73.625H298.134C299.004 73.625 299.751 73.7552 300.376 74.0156C301.006 74.276 301.491 74.6615 301.829 75.1719C302.168 75.6823 302.337 76.3099 302.337 77.0547C302.337 77.6641 302.233 78.1875 302.024 78.625C301.821 79.0573 301.532 79.4193 301.157 79.7109C300.787 79.9974 300.353 80.2266 299.853 80.3984L299.11 80.7891H295.423L295.407 78.9609H298.149C298.561 78.9609 298.902 78.888 299.173 78.7422C299.444 78.5964 299.647 78.3932 299.782 78.1328C299.923 77.8724 299.993 77.5703 299.993 77.2266C299.993 76.862 299.925 76.5469 299.79 76.2812C299.655 76.0156 299.449 75.8125 299.173 75.6719C298.897 75.5312 298.55 75.4609 298.134 75.4609H296.235V85H293.892V73.625ZM300.251 85L297.657 79.9297L300.134 79.9141L302.759 84.8906V85H300.251Z" fill="#23024D"/>
<path d="M290.924 83.1719V85H284.869V83.1719H290.924ZM285.635 73.625V85H283.291V73.625H285.635ZM290.135 78.2578V80.0391H284.869V78.2578H290.135ZM290.916 73.625V75.4609H284.869V73.625H290.916Z" fill="#23024D"/>
<path d="M274.777 85H272.301L272.316 83.1719H274.777C275.392 83.1719 275.91 83.0339 276.332 82.7578C276.754 82.4766 277.072 82.0677 277.285 81.5312C277.504 80.9948 277.613 80.3464 277.613 79.5859V79.0312C277.613 78.4479 277.551 77.9349 277.426 77.4922C277.306 77.0495 277.126 76.6771 276.887 76.375C276.647 76.0729 276.353 75.8464 276.004 75.6953C275.655 75.5391 275.254 75.4609 274.801 75.4609H272.254V73.625H274.801C275.561 73.625 276.257 73.7552 276.887 74.0156C277.522 74.2708 278.072 74.638 278.535 75.1172C278.999 75.5964 279.355 76.1693 279.605 76.8359C279.861 77.4974 279.988 78.2344 279.988 79.0469V79.5859C279.988 80.3932 279.861 81.1302 279.605 81.7969C279.355 82.4635 278.999 83.0365 278.535 83.5156C278.077 83.9896 277.527 84.3568 276.887 84.6172C276.251 84.8724 275.548 85 274.777 85ZM273.629 73.625V85H271.285V73.625H273.629Z" fill="#23024D"/>
<path d="M263.561 75.5703L260.467 85H257.975L262.201 73.625H263.787L263.561 75.5703ZM266.131 85L263.029 75.5703L262.779 73.625H264.381L268.631 85H266.131ZM265.99 80.7656V82.6016H259.982V80.7656H265.99Z" fill="#23024D"/>
<path d="M247.085 73.625H251.327C252.197 73.625 252.944 73.7552 253.569 74.0156C254.2 74.276 254.684 74.6615 255.022 75.1719C255.361 75.6823 255.53 76.3099 255.53 77.0547C255.53 77.6641 255.426 78.1875 255.218 78.625C255.015 79.0573 254.726 79.4193 254.351 79.7109C253.981 79.9974 253.546 80.2266 253.046 80.3984L252.304 80.7891H248.616L248.601 78.9609H251.343C251.754 78.9609 252.095 78.888 252.366 78.7422C252.637 78.5964 252.84 78.3932 252.976 78.1328C253.116 77.8724 253.187 77.5703 253.187 77.2266C253.187 76.862 253.119 76.5469 252.983 76.2812C252.848 76.0156 252.642 75.8125 252.366 75.6719C252.09 75.5312 251.744 75.4609 251.327 75.4609H249.429V85H247.085V73.625ZM253.444 85L250.851 79.9297L253.327 79.9141L255.952 84.8906V85H253.444Z" fill="#23024D"/>
<path d="M240.649 73.625V85H238.313V73.625H240.649ZM244.149 73.625V75.4609H234.868V73.625H244.149Z" fill="#23024D"/>
<path d="M331.264 73.2119L330.613 75.5961L328.229 76.2464L330.613 76.8966L331.264 79.2808L331.914 76.8966L334.298 76.2464L331.914 75.5961L331.264 73.2119Z" fill="#8620B9"/>
<path d="M330.201 77.3096L329.695 77.8153" stroke="#8620B9" stroke-width="0.5" stroke-linejoin="round"/>
<path d="M329.611 77.9004L329.443 78.069" stroke="#8620B9" stroke-width="0.5" stroke-linejoin="round"/>
<path d="M329.358 78.1523L329.19 78.3209" stroke="#8620B9" stroke-width="0.5" stroke-linejoin="round"/>
<path d="M332.376 75.1338L332.882 74.628" stroke="#8620B9" stroke-width="0.5" stroke-linejoin="round"/>
<path d="M332.965 74.543L333.133 74.3744" stroke="#8620B9" stroke-width="0.5" stroke-linejoin="round"/>
<path d="M333.218 74.291L333.386 74.1224" stroke="#8620B9" stroke-width="0.5" stroke-linejoin="round"/>
<path d="M330.152 75.1328L329.647 74.6271" stroke="#8620B9" stroke-width="0.5" stroke-linejoin="round"/>
<path d="M329.562 74.5439L329.394 74.3754" stroke="#8620B9" stroke-width="0.5" stroke-linejoin="round"/>
<path d="M329.309 74.291L329.14 74.1224" stroke="#8620B9" stroke-width="0.5" stroke-linejoin="round"/>
<path d="M332.327 77.3096L332.833 77.8153" stroke="#8620B9" stroke-width="0.5" stroke-linejoin="round"/>
<path d="M332.917 77.8994L333.086 78.068" stroke="#8620B9" stroke-width="0.5" stroke-linejoin="round"/>
<path d="M333.169 78.1523L333.338 78.3209" stroke="#8620B9" stroke-width="0.5" stroke-linejoin="round"/>
<path d="M243.66 44.5752L242.36 49.3434L237.592 50.6438L242.36 51.9443L243.66 56.7125L244.961 51.9443L249.729 50.6439L244.961 49.3434L243.66 44.5752Z" fill="#8620B9"/>
<path d="M241.536 52.7695L240.525 53.781" stroke="#8620B9" stroke-width="0.5" stroke-linejoin="round"/>
<path d="M240.356 53.9482L240.019 54.2854" stroke="#8620B9" stroke-width="0.5" stroke-linejoin="round"/>
<path d="M239.85 54.4531L239.512 54.7903" stroke="#8620B9" stroke-width="0.5" stroke-linejoin="round"/>
<path d="M245.883 48.4189L246.894 47.4075" stroke="#8620B9" stroke-width="0.5" stroke-linejoin="round"/>
<path d="M247.063 47.2393L247.401 46.9021" stroke="#8620B9" stroke-width="0.5" stroke-linejoin="round"/>
<path d="M247.569 46.7334L247.906 46.3963" stroke="#8620B9" stroke-width="0.5" stroke-linejoin="round"/>
<path d="M241.437 48.4209L240.425 47.4095" stroke="#8620B9" stroke-width="0.5" stroke-linejoin="round"/>
<path d="M240.256 47.2402L239.919 46.9031" stroke="#8620B9" stroke-width="0.5" stroke-linejoin="round"/>
<path d="M239.75 46.7354L239.413 46.3982" stroke="#8620B9" stroke-width="0.5" stroke-linejoin="round"/>
<path d="M245.784 52.7686L246.796 53.78" stroke="#8620B9" stroke-width="0.5" stroke-linejoin="round"/>
<path d="M246.964 53.9492L247.301 54.2864" stroke="#8620B9" stroke-width="0.5" stroke-linejoin="round"/>
<path d="M247.469 54.4541L247.806 54.7912" stroke="#8620B9" stroke-width="0.5" stroke-linejoin="round"/>
<path d="M248.888 116.365L246.153 119.076L242.429 118.096L245.14 120.831L244.16 124.554L246.895 121.844L250.618 122.824L247.908 120.089L248.888 116.365Z" fill="#8620B9"/>
<path d="M98.5664 451C140.816 451 175.066 417.197 175.066 375.5C175.066 333.803 140.816 300 98.5664 300C56.3166 300 22.0664 333.803 22.0664 375.5" stroke="#23024D"/>
<path d="M98.0664 451C56.0928 451 22.0664 416.974 22.0664 375" stroke="#23024D" stroke-dasharray="4 3"/>
<path d="M145.584 389.023C145.584 388.82 145.553 388.638 145.49 388.477C145.433 388.31 145.324 388.159 145.162 388.023C145.001 387.883 144.774 387.745 144.482 387.609C144.191 387.474 143.813 387.333 143.35 387.188C142.834 387.021 142.344 386.833 141.881 386.625C141.423 386.417 141.016 386.174 140.662 385.898C140.313 385.617 140.037 385.292 139.834 384.922C139.636 384.552 139.537 384.122 139.537 383.633C139.537 383.159 139.641 382.729 139.85 382.344C140.058 381.953 140.35 381.62 140.725 381.344C141.1 381.062 141.542 380.846 142.053 380.695C142.568 380.544 143.133 380.469 143.748 380.469C144.587 380.469 145.318 380.62 145.943 380.922C146.568 381.224 147.053 381.638 147.396 382.164C147.745 382.69 147.92 383.292 147.92 383.969H145.592C145.592 383.635 145.521 383.344 145.381 383.094C145.245 382.839 145.037 382.638 144.756 382.492C144.48 382.346 144.131 382.273 143.709 382.273C143.303 382.273 142.964 382.336 142.693 382.461C142.423 382.581 142.219 382.745 142.084 382.953C141.949 383.156 141.881 383.385 141.881 383.641C141.881 383.833 141.928 384.008 142.021 384.164C142.12 384.32 142.266 384.466 142.459 384.602C142.652 384.737 142.889 384.865 143.17 384.984C143.451 385.104 143.777 385.221 144.146 385.336C144.766 385.523 145.311 385.734 145.779 385.969C146.253 386.203 146.649 386.466 146.967 386.758C147.285 387.049 147.524 387.38 147.686 387.75C147.847 388.12 147.928 388.539 147.928 389.008C147.928 389.503 147.831 389.945 147.639 390.336C147.446 390.727 147.167 391.057 146.803 391.328C146.438 391.599 146.003 391.805 145.498 391.945C144.993 392.086 144.428 392.156 143.803 392.156C143.24 392.156 142.686 392.083 142.139 391.938C141.592 391.786 141.094 391.56 140.646 391.258C140.204 390.956 139.85 390.57 139.584 390.102C139.318 389.633 139.186 389.078 139.186 388.438H141.537C141.537 388.792 141.592 389.091 141.701 389.336C141.811 389.581 141.964 389.779 142.162 389.93C142.365 390.081 142.605 390.19 142.881 390.258C143.162 390.326 143.469 390.359 143.803 390.359C144.209 390.359 144.542 390.302 144.803 390.188C145.068 390.073 145.264 389.914 145.389 389.711C145.519 389.508 145.584 389.279 145.584 389.023Z" fill="#23024D"/>
<path d="M127.812 380.625H132.054C132.924 380.625 133.671 380.755 134.296 381.016C134.926 381.276 135.41 381.661 135.749 382.172C136.088 382.682 136.257 383.31 136.257 384.055C136.257 384.664 136.153 385.188 135.944 385.625C135.741 386.057 135.452 386.419 135.077 386.711C134.707 386.997 134.272 387.227 133.772 387.398L133.03 387.789H129.343L129.327 385.961H132.069C132.481 385.961 132.822 385.888 133.093 385.742C133.364 385.596 133.567 385.393 133.702 385.133C133.843 384.872 133.913 384.57 133.913 384.227C133.913 383.862 133.845 383.547 133.71 383.281C133.575 383.016 133.369 382.812 133.093 382.672C132.817 382.531 132.47 382.461 132.054 382.461H130.155V392H127.812V380.625ZM134.171 392L131.577 386.93L134.054 386.914L136.679 391.891V392H134.171Z" fill="#23024D"/>
<path d="M124.845 390.172V392H118.79V390.172H124.845ZM119.556 380.625V392H117.212V380.625H119.556ZM124.056 385.258V387.039H118.79V385.258H124.056ZM124.837 380.625V382.461H118.79V380.625H124.837Z" fill="#23024D"/>
<path d="M108.697 392H106.221L106.236 390.172H108.697C109.312 390.172 109.83 390.034 110.252 389.758C110.674 389.477 110.992 389.068 111.205 388.531C111.424 387.995 111.533 387.346 111.533 386.586V386.031C111.533 385.448 111.471 384.935 111.346 384.492C111.226 384.049 111.046 383.677 110.807 383.375C110.567 383.073 110.273 382.846 109.924 382.695C109.575 382.539 109.174 382.461 108.721 382.461H106.174V380.625H108.721C109.481 380.625 110.176 380.755 110.807 381.016C111.442 381.271 111.992 381.638 112.455 382.117C112.919 382.596 113.275 383.169 113.525 383.836C113.781 384.497 113.908 385.234 113.908 386.047V386.586C113.908 387.393 113.781 388.13 113.525 388.797C113.275 389.464 112.919 390.036 112.455 390.516C111.997 390.99 111.447 391.357 110.807 391.617C110.171 391.872 109.468 392 108.697 392ZM107.549 380.625V392H105.205V380.625H107.549Z" fill="#23024D"/>
<path d="M101.41 380.625V392H99.0742V380.625H101.41Z" fill="#23024D"/>
<path d="M90.9668 389.625L93.6465 380.625H96.2559L92.2949 392H90.5762L90.9668 389.625ZM88.498 380.625L91.1699 389.625L91.5762 392H89.8418L85.9043 380.625H88.498Z" fill="#23024D"/>
<path d="M83.749 386.047V386.586C83.749 387.451 83.6318 388.227 83.3975 388.914C83.1631 389.602 82.8324 390.188 82.4053 390.672C81.9782 391.151 81.4678 391.518 80.874 391.773C80.2855 392.029 79.6318 392.156 78.9131 392.156C78.1995 392.156 77.5459 392.029 76.9521 391.773C76.3636 391.518 75.8532 391.151 75.4209 390.672C74.9886 390.188 74.6527 389.602 74.4131 388.914C74.1787 388.227 74.0615 387.451 74.0615 386.586V386.047C74.0615 385.177 74.1787 384.401 74.4131 383.719C74.6475 383.031 74.9782 382.445 75.4053 381.961C75.8376 381.477 76.348 381.107 76.9365 380.852C77.5303 380.596 78.1839 380.469 78.8975 380.469C79.6162 380.469 80.2699 380.596 80.8584 380.852C81.4521 381.107 81.9626 381.477 82.3896 381.961C82.8219 382.445 83.1553 383.031 83.3896 383.719C83.6292 384.401 83.749 385.177 83.749 386.047ZM81.3818 386.586V386.031C81.3818 385.427 81.3271 384.896 81.2178 384.438C81.1084 383.979 80.9469 383.594 80.7334 383.281C80.5199 382.969 80.2594 382.734 79.9521 382.578C79.6449 382.417 79.2933 382.336 78.8975 382.336C78.5016 382.336 78.1501 382.417 77.8428 382.578C77.5407 382.734 77.2829 382.969 77.0693 383.281C76.861 383.594 76.7021 383.979 76.5928 384.438C76.4834 384.896 76.4287 385.427 76.4287 386.031V386.586C76.4287 387.185 76.4834 387.716 76.5928 388.18C76.7021 388.638 76.8636 389.026 77.0771 389.344C77.2907 389.656 77.5511 389.893 77.8584 390.055C78.1657 390.216 78.5173 390.297 78.9131 390.297C79.3089 390.297 79.6605 390.216 79.9678 390.055C80.2751 389.893 80.5329 389.656 80.7412 389.344C80.9495 389.026 81.1084 388.638 81.2178 388.18C81.3271 387.716 81.3818 387.185 81.3818 386.586Z" fill="#23024D"/>
<path d="M62.5557 380.625H66.7979C67.6676 380.625 68.415 380.755 69.04 381.016C69.6702 381.276 70.1546 381.661 70.4932 382.172C70.8317 382.682 71.001 383.31 71.001 384.055C71.001 384.664 70.8968 385.188 70.6885 385.625C70.4853 386.057 70.1963 386.419 69.8213 386.711C69.4515 386.997 69.0166 387.227 68.5166 387.398L67.7744 387.789H64.0869L64.0713 385.961H66.8135C67.2249 385.961 67.5661 385.888 67.8369 385.742C68.1077 385.596 68.3109 385.393 68.4463 385.133C68.5869 384.872 68.6572 384.57 68.6572 384.227C68.6572 383.862 68.5895 383.547 68.4541 383.281C68.3187 383.016 68.113 382.812 67.8369 382.672C67.5609 382.531 67.2145 382.461 66.7979 382.461H64.8994V392H62.5557V380.625ZM68.915 392L66.3213 386.93L68.7979 386.914L71.4228 391.891V392H68.915Z" fill="#23024D"/>
<path d="M55.0723 387.945H52.1738V386.117H55.0723C55.5202 386.117 55.8848 386.044 56.166 385.898C56.4473 385.747 56.653 385.539 56.7832 385.273C56.9134 385.008 56.9785 384.708 56.9785 384.375C56.9785 384.036 56.9134 383.721 56.7832 383.43C56.653 383.138 56.4473 382.904 56.166 382.727C55.8848 382.549 55.5202 382.461 55.0723 382.461H52.9863V392H50.6426V380.625H55.0723C55.9629 380.625 56.7259 380.786 57.3613 381.109C58.002 381.427 58.4915 381.867 58.8301 382.43C59.1686 382.992 59.3379 383.635 59.3379 384.359C59.3379 385.094 59.1686 385.729 58.8301 386.266C58.4915 386.802 58.002 387.216 57.3613 387.508C56.7259 387.799 55.9629 387.945 55.0723 387.945Z" fill="#23024D"/>
<path d="M134.549 359.625L136.924 364.812L139.299 359.625H141.854L138.111 366.859V371H135.736V366.859L131.986 359.625H134.549Z" fill="#23024D"/>
<path d="M126.426 359.625V371H124.09V359.625H126.426ZM129.926 359.625V361.461H120.645V359.625H129.926Z" fill="#23024D"/>
<path d="M117.779 359.625V371H115.443V359.625H117.779Z" fill="#23024D"/>
<path d="M106.772 371H104.296L104.312 369.172H106.772C107.387 369.172 107.905 369.034 108.327 368.758C108.749 368.477 109.067 368.068 109.28 367.531C109.499 366.995 109.608 366.346 109.608 365.586V365.031C109.608 364.448 109.546 363.935 109.421 363.492C109.301 363.049 109.121 362.677 108.882 362.375C108.642 362.073 108.348 361.846 107.999 361.695C107.65 361.539 107.249 361.461 106.796 361.461H104.249V359.625H106.796C107.556 359.625 108.252 359.755 108.882 360.016C109.517 360.271 110.067 360.638 110.53 361.117C110.994 361.596 111.351 362.169 111.601 362.836C111.856 363.497 111.983 364.234 111.983 365.047V365.586C111.983 366.393 111.856 367.13 111.601 367.797C111.351 368.464 110.994 369.036 110.53 369.516C110.072 369.99 109.522 370.357 108.882 370.617C108.246 370.872 107.543 371 106.772 371ZM105.624 359.625V371H103.28V359.625H105.624Z" fill="#23024D"/>
<path d="M99.4854 359.625V371H97.1494V359.625H99.4854Z" fill="#23024D"/>
<path d="M91.127 359.625H93.4629V367.141C93.4629 368.016 93.2754 368.753 92.9004 369.352C92.5306 369.951 92.0176 370.401 91.3613 370.703C90.7103 371.005 89.9603 371.156 89.1113 371.156C88.2624 371.156 87.5072 371.005 86.8457 370.703C86.1895 370.401 85.6738 369.951 85.2988 369.352C84.929 368.753 84.7441 368.016 84.7441 367.141V359.625H87.0879V367.141C87.0879 367.651 87.1686 368.068 87.3301 368.391C87.4915 368.714 87.7233 368.951 88.0254 369.102C88.3327 369.253 88.6947 369.328 89.1113 369.328C89.5384 369.328 89.9004 369.253 90.1973 369.102C90.4993 368.951 90.7285 368.714 90.8848 368.391C91.0462 368.068 91.127 367.651 91.127 367.141V359.625Z" fill="#23024D"/>
<path d="M78.3945 369.312L81.4727 371.75L79.9961 373.031L76.9648 370.594L78.3945 369.312ZM81.5508 365.047V365.586C81.5508 366.451 81.4336 367.227 81.1992 367.914C80.9701 368.602 80.6393 369.188 80.207 369.672C79.7747 370.151 79.2643 370.518 78.6758 370.773C78.0872 371.029 77.4336 371.156 76.7148 371.156C76.0013 371.156 75.3477 371.029 74.7539 370.773C74.1602 370.518 73.6471 370.151 73.2148 369.672C72.7826 369.188 72.4466 368.602 72.207 367.914C71.9727 367.227 71.8555 366.451 71.8555 365.586V365.047C71.8555 364.177 71.9727 363.401 72.207 362.719C72.4466 362.031 72.7799 361.445 73.207 360.961C73.6341 360.477 74.1445 360.107 74.7383 359.852C75.332 359.596 75.9857 359.469 76.6992 359.469C77.418 359.469 78.0716 359.596 78.6602 359.852C79.2539 360.107 79.7669 360.477 80.1992 360.961C80.6315 361.445 80.9648 362.031 81.1992 362.719C81.4336 363.401 81.5508 364.177 81.5508 365.047ZM79.1836 365.586V365.031C79.1836 364.427 79.1263 363.896 79.0117 363.438C78.9023 362.979 78.7409 362.594 78.5273 362.281C78.319 361.969 78.0612 361.734 77.7539 361.578C77.4466 361.417 77.0951 361.336 76.6992 361.336C76.3034 361.336 75.9518 361.417 75.6445 361.578C75.3372 361.734 75.0794 361.969 74.8711 362.281C74.6628 362.594 74.5039 362.979 74.3945 363.438C74.2852 363.896 74.2305 364.427 74.2305 365.031V365.586C74.2305 366.185 74.2852 366.716 74.3945 367.18C74.5039 367.638 74.6628 368.026 74.8711 368.344C75.0846 368.656 75.3451 368.893 75.6523 369.055C75.9648 369.216 76.319 369.297 76.7148 369.297C77.1107 369.297 77.4596 369.216 77.7617 369.055C78.069 368.893 78.3268 368.656 78.5352 368.344C78.7487 368.026 78.9102 367.638 79.0195 367.18C79.1289 366.716 79.1836 366.185 79.1836 365.586Z" fill="#23024D"/>
<path d="M68.4199 359.625V371H66.084V359.625H68.4199Z" fill="#23024D"/>
<path d="M62.9834 369.172V371H57.2568V369.172H62.9834ZM58.0146 359.625V371H55.6709V359.625H58.0146Z" fill="#23024D"/>
<path d="M126.077 413.06L128.374 413.664L130.06 411.992L129.456 414.289L131.127 415.975L128.831 415.371L127.144 417.043L127.749 414.746L126.077 413.06Z" fill="#8620B9"/>
<path d="M129.999 414.145L130.663 413.967" stroke="#8620B9" stroke-width="0.5" stroke-linejoin="round"/>
<path d="M130.773 413.938L130.995 413.878" stroke="#8620B9" stroke-width="0.5" stroke-linejoin="round"/>
<path d="M131.104 413.849L131.326 413.789" stroke="#8620B9" stroke-width="0.5" stroke-linejoin="round"/>
<path d="M127.144 414.909L126.48 415.087" stroke="#8620B9" stroke-width="0.5" stroke-linejoin="round"/>
<path d="M126.368 415.117L126.147 415.176" stroke="#8620B9" stroke-width="0.5" stroke-linejoin="round"/>
<path d="M126.037 415.206L125.816 415.265" stroke="#8620B9" stroke-width="0.5" stroke-linejoin="round"/>
<path d="M128.211 413.058L128.033 412.394" stroke="#8620B9" stroke-width="0.5" stroke-linejoin="round"/>
<path d="M128.004 412.283L127.945 412.062" stroke="#8620B9" stroke-width="0.5" stroke-linejoin="round"/>
<path d="M127.915 411.951L127.856 411.73" stroke="#8620B9" stroke-width="0.5" stroke-linejoin="round"/>
<path d="M128.976 415.912L129.153 416.576" stroke="#8620B9" stroke-width="0.5" stroke-linejoin="round"/>
<path d="M129.184 416.688L129.243 416.909" stroke="#8620B9" stroke-width="0.5" stroke-linejoin="round"/>
<path d="M129.272 417.019L129.332 417.24" stroke="#8620B9" stroke-width="0.5" stroke-linejoin="round"/>
<path d="M93.0869 330.118L97.6797 331.327L101.053 327.984L99.844 332.576L103.187 335.95L98.5944 334.741L95.2213 338.084L96.4301 333.491L93.0869 330.118Z" fill="#8620B9"/>
<path d="M100.926 332.287L102.253 331.931" stroke="#8620B9" stroke-width="0.5" stroke-linejoin="round"/>
<path d="M102.474 331.871L102.916 331.753" stroke="#8620B9" stroke-width="0.5" stroke-linejoin="round"/>
<path d="M103.137 331.692L103.579 331.574" stroke="#8620B9" stroke-width="0.5" stroke-linejoin="round"/>
<path d="M95.2158 333.814L93.8882 334.17" stroke="#8620B9" stroke-width="0.5" stroke-linejoin="round"/>
<path d="M93.667 334.229L93.2244 334.348" stroke="#8620B9" stroke-width="0.5" stroke-linejoin="round"/>
<path d="M93.0029 334.408L92.5604 334.527" stroke="#8620B9" stroke-width="0.5" stroke-linejoin="round"/>
<path d="M97.3564 330.114L97.0007 328.787" stroke="#8620B9" stroke-width="0.5" stroke-linejoin="round"/>
<path d="M96.9414 328.564L96.8228 328.122" stroke="#8620B9" stroke-width="0.5" stroke-linejoin="round"/>
<path d="M96.7637 327.901L96.6451 327.459" stroke="#8620B9" stroke-width="0.5" stroke-linejoin="round"/>
<path d="M98.8857 335.821L99.2415 337.149" stroke="#8620B9" stroke-width="0.5" stroke-linejoin="round"/>
<path d="M99.3008 337.37L99.4194 337.813" stroke="#8620B9" stroke-width="0.5" stroke-linejoin="round"/>
<path d="M99.4785 338.033L99.5971 338.476" stroke="#8620B9" stroke-width="0.5" stroke-linejoin="round"/>
<path d="M60.8994 406.374L64.4689 405.401L65.4424 401.831L66.4159 405.401L69.9854 406.374L66.4159 407.348L65.4424 410.917L64.4689 407.348L60.8994 406.374Z" fill="#8620B9"/>
<path d="M449.566 451C491.816 451 526.066 417.197 526.066 375.5C526.066 333.803 491.816 300 449.566 300C407.317 300 373.066 333.803 373.066 375.5" stroke="#23024D"/>
<path d="M449.066 451C407.093 451 373.066 416.974 373.066 375" stroke="#23024D" stroke-dasharray="4 3"/>
<path d="M477.082 382.023C477.082 381.82 477.051 381.638 476.988 381.477C476.931 381.31 476.822 381.159 476.66 381.023C476.499 380.883 476.272 380.745 475.98 380.609C475.689 380.474 475.311 380.333 474.848 380.188C474.332 380.021 473.842 379.833 473.379 379.625C472.921 379.417 472.514 379.174 472.16 378.898C471.811 378.617 471.535 378.292 471.332 377.922C471.134 377.552 471.035 377.122 471.035 376.633C471.035 376.159 471.139 375.729 471.348 375.344C471.556 374.953 471.848 374.62 472.223 374.344C472.598 374.062 473.04 373.846 473.551 373.695C474.066 373.544 474.632 373.469 475.246 373.469C476.085 373.469 476.816 373.62 477.441 373.922C478.066 374.224 478.551 374.638 478.895 375.164C479.243 375.69 479.418 376.292 479.418 376.969H477.09C477.09 376.635 477.02 376.344 476.879 376.094C476.743 375.839 476.535 375.638 476.254 375.492C475.978 375.346 475.629 375.273 475.207 375.273C474.801 375.273 474.462 375.336 474.191 375.461C473.921 375.581 473.717 375.745 473.582 375.953C473.447 376.156 473.379 376.385 473.379 376.641C473.379 376.833 473.426 377.008 473.52 377.164C473.618 377.32 473.764 377.466 473.957 377.602C474.15 377.737 474.387 377.865 474.668 377.984C474.949 378.104 475.275 378.221 475.645 378.336C476.264 378.523 476.809 378.734 477.277 378.969C477.751 379.203 478.147 379.466 478.465 379.758C478.783 380.049 479.022 380.38 479.184 380.75C479.345 381.12 479.426 381.539 479.426 382.008C479.426 382.503 479.329 382.945 479.137 383.336C478.944 383.727 478.665 384.057 478.301 384.328C477.936 384.599 477.501 384.805 476.996 384.945C476.491 385.086 475.926 385.156 475.301 385.156C474.738 385.156 474.184 385.083 473.637 384.938C473.09 384.786 472.592 384.56 472.145 384.258C471.702 383.956 471.348 383.57 471.082 383.102C470.816 382.633 470.684 382.078 470.684 381.438H473.035C473.035 381.792 473.09 382.091 473.199 382.336C473.309 382.581 473.462 382.779 473.66 382.93C473.863 383.081 474.103 383.19 474.379 383.258C474.66 383.326 474.967 383.359 475.301 383.359C475.707 383.359 476.04 383.302 476.301 383.188C476.566 383.073 476.762 382.914 476.887 382.711C477.017 382.508 477.082 382.279 477.082 382.023Z" fill="#23024D"/>
<path d="M459.311 373.625H463.553C464.423 373.625 465.17 373.755 465.795 374.016C466.425 374.276 466.91 374.661 467.248 375.172C467.587 375.682 467.756 376.31 467.756 377.055C467.756 377.664 467.652 378.188 467.443 378.625C467.24 379.057 466.951 379.419 466.576 379.711C466.206 379.997 465.771 380.227 465.271 380.398L464.529 380.789H460.842L460.826 378.961H463.568C463.98 378.961 464.321 378.888 464.592 378.742C464.863 378.596 465.066 378.393 465.201 378.133C465.342 377.872 465.412 377.57 465.412 377.227C465.412 376.862 465.344 376.547 465.209 376.281C465.074 376.016 464.868 375.812 464.592 375.672C464.316 375.531 463.969 375.461 463.553 375.461H461.654V385H459.311V373.625ZM465.67 385L463.076 379.93L465.553 379.914L468.178 384.891V385H465.67Z" fill="#23024D"/>
<path d="M456.343 383.172V385H450.288V383.172H456.343ZM451.054 373.625V385H448.71V373.625H451.054ZM455.554 378.258V380.039H450.288V378.258H455.554ZM456.335 373.625V375.461H450.288V373.625H456.335Z" fill="#23024D"/>
<path d="M442.274 373.625V385H439.938V373.625H442.274ZM445.774 373.625V375.461H436.493V373.625H445.774Z" fill="#23024D"/>
<path d="M434.432 379.047V379.586C434.432 380.451 434.314 381.227 434.08 381.914C433.846 382.602 433.515 383.188 433.088 383.672C432.661 384.151 432.15 384.518 431.557 384.773C430.968 385.029 430.314 385.156 429.596 385.156C428.882 385.156 428.229 385.029 427.635 384.773C427.046 384.518 426.536 384.151 426.104 383.672C425.671 383.188 425.335 382.602 425.096 381.914C424.861 381.227 424.744 380.451 424.744 379.586V379.047C424.744 378.177 424.861 377.401 425.096 376.719C425.33 376.031 425.661 375.445 426.088 374.961C426.52 374.477 427.031 374.107 427.619 373.852C428.213 373.596 428.867 373.469 429.58 373.469C430.299 373.469 430.952 373.596 431.541 373.852C432.135 374.107 432.645 374.477 433.072 374.961C433.505 375.445 433.838 376.031 434.072 376.719C434.312 377.401 434.432 378.177 434.432 379.047ZM432.064 379.586V379.031C432.064 378.427 432.01 377.896 431.9 377.438C431.791 376.979 431.63 376.594 431.416 376.281C431.202 375.969 430.942 375.734 430.635 375.578C430.327 375.417 429.976 375.336 429.58 375.336C429.184 375.336 428.833 375.417 428.525 375.578C428.223 375.734 427.965 375.969 427.752 376.281C427.544 376.594 427.385 376.979 427.275 377.438C427.166 377.896 427.111 378.427 427.111 379.031V379.586C427.111 380.185 427.166 380.716 427.275 381.18C427.385 381.638 427.546 382.026 427.76 382.344C427.973 382.656 428.234 382.893 428.541 383.055C428.848 383.216 429.2 383.297 429.596 383.297C429.992 383.297 430.343 383.216 430.65 383.055C430.958 382.893 431.215 382.656 431.424 382.344C431.632 382.026 431.791 381.638 431.9 381.18C432.01 380.716 432.064 380.185 432.064 379.586Z" fill="#23024D"/>
<path d="M417.246 382.625L419.926 373.625H422.535L418.574 385H416.855L417.246 382.625ZM414.777 373.625L417.449 382.625L417.855 385H416.121L412.184 373.625H414.777Z" fill="#23024D"/>
<path d="M420.102 412.165L420.726 414.456L423.017 415.081L420.726 415.706L420.102 417.997L419.477 415.706L417.186 415.081L419.477 414.456L420.102 412.165Z" fill="#23024D"/>
<path d="M421.122 416.103L421.608 416.589" stroke="#23024D" stroke-width="0.5" stroke-linejoin="round"/>
<path d="M421.689 416.67L421.851 416.832" stroke="#23024D" stroke-width="0.5" stroke-linejoin="round"/>
<path d="M421.932 416.913L422.094 417.075" stroke="#23024D" stroke-width="0.5" stroke-linejoin="round"/>
<path d="M419.032 414.014L418.546 413.528" stroke="#23024D" stroke-width="0.5" stroke-linejoin="round"/>
<path d="M418.465 413.446L418.303 413.284" stroke="#23024D" stroke-width="0.5" stroke-linejoin="round"/>
<path d="M418.223 413.203L418.061 413.041" stroke="#23024D" stroke-width="0.5" stroke-linejoin="round"/>
<path d="M421.17 414.012L421.656 413.526" stroke="#23024D" stroke-width="0.5" stroke-linejoin="round"/>
<path d="M421.737 413.444L421.899 413.282" stroke="#23024D" stroke-width="0.5" stroke-linejoin="round"/>
<path d="M421.979 413.202L422.141 413.04" stroke="#23024D" stroke-width="0.5" stroke-linejoin="round"/>
<path d="M419.08 416.102L418.594 416.588" stroke="#23024D" stroke-width="0.5" stroke-linejoin="round"/>
<path d="M418.513 416.669L418.351 416.831" stroke="#23024D" stroke-width="0.5" stroke-linejoin="round"/>
<path d="M418.271 416.911L418.109 417.073" stroke="#23024D" stroke-width="0.5" stroke-linejoin="round"/>
<path d="M490.001 393.631L491.251 398.213L495.832 399.462L491.251 400.712L490.001 405.294L488.751 400.712L484.17 399.462L488.751 398.213L490.001 393.631Z" fill="#23024D"/>
<path d="M492.042 401.504L493.014 402.476" stroke="#23024D" stroke-width="0.5" stroke-linejoin="round"/>
<path d="M493.176 402.637L493.5 402.961" stroke="#23024D" stroke-width="0.5" stroke-linejoin="round"/>
<path d="M493.663 403.122L493.987 403.446" stroke="#23024D" stroke-width="0.5" stroke-linejoin="round"/>
<path d="M487.865 397.323L486.893 396.351" stroke="#23024D" stroke-width="0.5" stroke-linejoin="round"/>
<path d="M486.73 396.189L486.407 395.865" stroke="#23024D" stroke-width="0.5" stroke-linejoin="round"/>
<path d="M486.244 395.704L485.92 395.38" stroke="#23024D" stroke-width="0.5" stroke-linejoin="round"/>
<path d="M492.14 397.325L493.112 396.353" stroke="#23024D" stroke-width="0.5" stroke-linejoin="round"/>
<path d="M493.273 396.191L493.597 395.867" stroke="#23024D" stroke-width="0.5" stroke-linejoin="round"/>
<path d="M493.759 395.706L494.083 395.382" stroke="#23024D" stroke-width="0.5" stroke-linejoin="round"/>
<path d="M487.961 401.504L486.989 402.476" stroke="#23024D" stroke-width="0.5" stroke-linejoin="round"/>
<path d="M486.826 402.639L486.502 402.963" stroke="#23024D" stroke-width="0.5" stroke-linejoin="round"/>
<path d="M486.341 403.124L486.017 403.448" stroke="#23024D" stroke-width="0.5" stroke-linejoin="round"/>
<path d="M426.73 345L429.358 347.605L432.936 346.663L430.332 349.291L431.273 352.869L428.646 350.264L425.068 351.206L427.672 348.578L426.73 345Z" fill="#23024D"/>
<path opacity="0.3" d="M367.433 104C424.045 136.748 463.524 195.944 468.923 264.735L451.61 284.088L432.145 266.674C427.428 210.733 395.218 162.603 349 135.867L367.433 104Z" fill="url(#paint0_linear_11310_51496)"/>
<path d="M434.879 212.561C435.043 212.493 435.18 212.406 435.29 212.302C435.405 212.199 435.491 212.06 435.546 211.884C435.605 211.707 435.641 211.477 435.653 211.196C435.664 210.915 435.651 210.563 435.614 210.139C435.575 209.667 435.563 209.208 435.575 208.764C435.59 208.323 435.65 207.914 435.754 207.535C435.864 207.159 436.035 206.826 436.265 206.538C436.498 206.254 436.812 206.03 437.207 205.866C437.591 205.707 437.973 205.647 438.354 205.686C438.74 205.723 439.107 205.847 439.456 206.058C439.809 206.267 440.132 206.552 440.425 206.914C440.72 207.28 440.971 207.711 441.177 208.208C441.458 208.885 441.582 209.527 441.547 210.134C441.513 210.74 441.34 211.271 441.031 211.725C440.723 212.183 440.295 212.526 439.748 212.753L438.967 210.872C439.236 210.76 439.448 210.605 439.603 210.408C439.764 210.213 439.856 209.977 439.88 209.701C439.905 209.429 439.847 209.122 439.705 208.781C439.569 208.453 439.405 208.201 439.213 208.024C439.026 207.845 438.825 207.736 438.611 207.696C438.401 207.655 438.194 207.677 437.987 207.763C437.832 207.827 437.706 207.924 437.611 208.052C437.518 208.184 437.449 208.351 437.405 208.552C437.36 208.753 437.336 208.988 437.334 209.255C437.331 209.523 437.346 209.825 437.377 210.162C437.434 210.726 437.446 211.237 437.413 211.694C437.383 212.156 437.303 212.564 437.174 212.918C437.045 213.273 436.858 213.578 436.613 213.832C436.369 214.087 436.057 214.292 435.678 214.45C435.278 214.616 434.888 214.686 434.508 214.662C434.127 214.637 433.767 214.523 433.425 214.319C433.084 214.115 432.772 213.833 432.489 213.471C432.206 213.11 431.96 212.677 431.75 212.172C431.561 211.717 431.434 211.245 431.369 210.754C431.307 210.261 431.323 209.783 431.417 209.32C431.513 208.861 431.706 208.445 431.995 208.073C432.285 207.702 432.689 207.408 433.207 207.193L433.995 209.094C433.709 209.213 433.485 209.357 433.324 209.528C433.163 209.698 433.055 209.889 432.999 210.099C432.945 210.314 432.937 210.544 432.975 210.79C433.015 211.04 433.09 211.3 433.202 211.569C433.338 211.898 433.497 212.148 433.676 212.32C433.858 212.496 434.052 212.601 434.258 212.634C434.466 212.671 434.673 212.646 434.879 212.561Z" fill="#23024D"/>
<path d="M430.867 205.728L429.42 206.41L427.161 201.618L428.608 200.936L430.867 205.728ZM436.45 197.98L427.447 202.224L426.573 200.369L435.576 196.125L436.45 197.98ZM434.462 203.27L433.052 203.935L431.088 199.767L432.498 199.102L434.462 203.27ZM438.42 202.16L436.967 202.845L434.711 198.059L436.164 197.374L438.42 202.16Z" fill="#23024D"/>
<path d="M426.789 197.302L425.381 198.063L422.862 193.402L424.269 192.642L426.789 197.302ZM431.937 189.259L423.181 193.992L422.206 192.188L430.961 187.455L431.937 189.259ZM430.243 194.65L428.872 195.391L426.681 191.338L428.052 190.597L430.243 194.65ZM434.134 193.324L432.721 194.088L430.205 189.433L431.618 188.669L434.134 193.324Z" fill="#23024D"/>
<path d="M427.101 180.989L418.594 186.156L417.53 184.403L426.036 179.236L427.101 180.989ZM425.525 186.585L424.158 187.415L421.809 183.548L423.176 182.717L425.525 186.585ZM429.408 184.786L428.035 185.62L425.437 181.344L426.81 180.51L429.408 184.786Z" fill="#23024D"/>
<path opacity="0.3" d="M172.876 120C113.5 152.5 83.2381 202.662 78.2412 266.454L94.2659 284.401L112.283 268.252C116.649 216.377 146.462 171.744 189.241 146.952L172.876 120Z" fill="url(#paint1_linear_11310_51496)"/>
<path d="M123.864 190.76C123.712 190.667 123.562 190.607 123.413 190.579C123.263 190.545 123.1 190.557 122.925 190.615C122.746 190.671 122.539 190.776 122.304 190.931C122.069 191.086 121.791 191.302 121.47 191.581C121.109 191.888 120.744 192.166 120.376 192.416C120.01 192.661 119.643 192.852 119.275 192.989C118.905 193.12 118.536 193.176 118.167 193.157C117.801 193.135 117.435 193.011 117.071 192.786C116.718 192.568 116.446 192.293 116.255 191.961C116.059 191.626 115.945 191.256 115.912 190.85C115.875 190.441 115.917 190.012 116.04 189.563C116.164 189.109 116.367 188.654 116.65 188.196C117.035 187.572 117.484 187.096 117.996 186.77C118.508 186.443 119.039 186.273 119.589 186.259C120.141 186.241 120.669 186.387 121.173 186.698L120.103 188.432C119.855 188.279 119.606 188.197 119.355 188.187C119.103 188.17 118.857 188.233 118.62 188.376C118.384 188.514 118.17 188.741 117.976 189.055C117.789 189.357 117.68 189.638 117.649 189.897C117.613 190.154 117.642 190.381 117.735 190.577C117.824 190.771 117.964 190.927 118.154 191.044C118.297 191.133 118.449 191.178 118.608 191.18C118.77 191.178 118.945 191.137 119.135 191.055C119.324 190.974 119.528 190.856 119.747 190.702C119.965 190.548 120.202 190.359 120.457 190.136C120.882 189.761 121.289 189.453 121.679 189.211C122.071 188.966 122.449 188.792 122.812 188.69C123.175 188.587 123.531 188.561 123.881 188.61C124.231 188.66 124.58 188.793 124.929 189.008C125.297 189.235 125.583 189.511 125.785 189.834C125.987 190.157 126.106 190.516 126.14 190.912C126.174 191.308 126.127 191.726 126 192.167C125.872 192.608 125.665 193.061 125.378 193.526C125.119 193.945 124.81 194.325 124.45 194.665C124.086 195.003 123.689 195.269 123.258 195.464C122.83 195.655 122.38 195.741 121.909 195.724C121.438 195.706 120.964 195.55 120.487 195.256L121.568 193.505C121.831 193.667 122.079 193.764 122.312 193.795C122.544 193.826 122.762 193.803 122.966 193.725C123.172 193.643 123.363 193.515 123.54 193.34C123.72 193.162 123.887 192.949 124.04 192.701C124.226 192.398 124.337 192.124 124.371 191.877C124.408 191.627 124.379 191.408 124.286 191.222C124.194 191.031 124.054 190.878 123.864 190.76Z" fill="#23024D"/>
<path d="M120.667 198.017L122.069 198.788L119.513 203.429L118.112 202.658L120.667 198.017ZM111.118 198.041L119.836 202.842L118.847 204.639L110.128 199.838L111.118 198.041ZM116.568 196.548L117.933 197.299L115.711 201.335L114.345 200.584L116.568 196.548ZM113.347 193.994L114.754 194.768L112.202 199.403L110.794 198.628L113.347 193.994Z" fill="#23024D"/>
<path d="M116.241 206.269L117.684 206.957L115.404 211.739L113.96 211.051L116.241 206.269ZM106.709 206.85L115.693 211.134L114.81 212.986L105.826 208.702L106.709 206.85ZM112.062 205.041L113.469 205.712L111.486 209.871L110.079 209.2L112.062 205.041ZM108.698 202.679L110.148 203.371L107.87 208.147L106.42 207.455L108.698 202.679Z" fill="#23024D"/>
<path d="M102.886 215.685L112.091 219.47L111.311 221.366L102.106 217.582L102.886 215.685ZM108.326 213.635L109.805 214.243L108.085 218.429L106.605 217.82L108.326 213.635ZM104.575 211.576L106.061 212.186L104.158 216.814L102.673 216.204L104.575 211.576Z" fill="#23024D"/>
<path opacity="0.3" d="M375.87 434.247C320.017 468.272 249.145 474.594 186.165 446.401L177.462 421.936L202.07 413.183C253.441 435.823 311.118 430.585 356.717 402.807L375.87 434.247Z" fill="url(#paint2_linear_11310_51496)"/>
<path d="M296.233 446.248C296.21 446.072 296.161 445.918 296.088 445.785C296.018 445.647 295.906 445.529 295.75 445.431C295.593 445.328 295.381 445.235 295.112 445.152C294.843 445.069 294.499 444.991 294.08 444.92C293.613 444.836 293.167 444.731 292.74 444.605C292.318 444.478 291.937 444.316 291.598 444.119C291.262 443.916 290.984 443.666 290.765 443.369C290.55 443.072 290.413 442.711 290.355 442.287C290.3 441.876 290.339 441.491 290.475 441.132C290.609 440.769 290.823 440.446 291.115 440.162C291.407 439.874 291.766 439.634 292.191 439.443C292.62 439.252 293.101 439.12 293.634 439.047C294.361 438.948 295.013 438.993 295.59 439.181C296.168 439.37 296.637 439.672 296.997 440.087C297.361 440.502 297.583 441.003 297.663 441.59L295.645 441.865C295.605 441.576 295.51 441.331 295.359 441.131C295.211 440.925 295.007 440.776 294.746 440.683C294.489 440.589 294.178 440.567 293.812 440.617C293.46 440.664 293.174 440.758 292.954 440.899C292.733 441.035 292.576 441.201 292.484 441.397C292.39 441.589 292.358 441.796 292.389 442.017C292.411 442.184 292.472 442.33 292.572 442.455C292.676 442.578 292.82 442.688 293.003 442.782C293.186 442.877 293.407 442.96 293.664 443.031C293.922 443.101 294.218 443.165 294.553 443.22C295.112 443.31 295.609 443.429 296.043 443.577C296.481 443.724 296.856 443.905 297.165 444.121C297.475 444.336 297.722 444.595 297.906 444.896C298.089 445.198 298.208 445.552 298.264 445.958C298.322 446.387 298.291 446.783 298.17 447.144C298.049 447.505 297.846 447.825 297.562 448.103C297.278 448.38 296.925 448.61 296.503 448.792C296.082 448.973 295.6 449.101 295.058 449.174C294.57 449.24 294.081 449.243 293.59 449.181C293.098 449.114 292.64 448.976 292.216 448.767C291.796 448.557 291.444 448.265 291.158 447.89C290.873 447.515 290.692 447.049 290.617 446.494L292.656 446.217C292.697 446.524 292.78 446.777 292.904 446.977C293.027 447.176 293.184 447.329 293.373 447.437C293.567 447.544 293.788 447.611 294.035 447.637C294.287 447.662 294.557 447.656 294.846 447.616C295.199 447.568 295.481 447.479 295.693 447.349C295.91 447.219 296.061 447.058 296.145 446.867C296.234 446.676 296.264 446.469 296.233 446.248Z" fill="#23024D"/>
<path d="M284.033 450.2L281.874 450.384L281.752 448.789L283.898 448.607C284.434 448.561 284.875 448.402 285.223 448.13C285.57 447.854 285.816 447.474 285.963 446.99C286.114 446.507 286.161 445.933 286.105 445.27L286.064 444.787C286.021 444.278 285.928 443.835 285.786 443.459C285.649 443.081 285.465 442.77 285.234 442.524C285.002 442.279 284.729 442.103 284.414 441.997C284.098 441.887 283.742 441.848 283.347 441.882L281.127 442.071L280.991 440.47L283.211 440.281C283.874 440.225 284.49 440.287 285.059 440.467C285.632 440.643 286.138 440.922 286.578 441.306C287.017 441.689 287.371 442.162 287.638 442.725C287.91 443.283 288.075 443.916 288.136 444.624L288.176 445.094C288.235 445.798 288.179 446.45 288.006 447.05C287.837 447.65 287.568 448.176 287.2 448.628C286.835 449.075 286.383 449.436 285.844 449.71C285.309 449.98 284.705 450.143 284.033 450.2ZM282.19 440.368L283.032 450.285L280.989 450.459L280.146 440.542L282.19 440.368Z" fill="#23024D"/>
<path d="M270.326 440.874L274.037 440.762C274.797 440.739 275.454 440.833 276.008 441.044C276.566 441.255 277 441.579 277.31 442.016C277.619 442.454 277.784 442.998 277.804 443.65C277.82 444.182 277.743 444.643 277.572 445.031C277.406 445.415 277.163 445.739 276.843 446.004C276.527 446.264 276.153 446.476 275.72 446.64L275.081 447.001L271.856 447.099L271.794 445.501L274.192 445.428C274.552 445.417 274.848 445.344 275.081 445.21C275.314 445.075 275.487 444.892 275.598 444.66C275.714 444.429 275.768 444.163 275.758 443.862C275.749 443.543 275.681 443.269 275.556 443.041C275.43 442.812 275.245 442.64 275 442.524C274.755 442.409 274.45 442.356 274.085 442.367L272.425 442.418L272.678 450.761L270.629 450.823L270.326 440.874ZM276.191 450.654L273.787 446.288L275.953 446.209L278.381 450.492L278.384 450.587L276.191 450.654Z" fill="#23024D"/>
<path d="M264.092 442.446L261.168 450.623L258.989 450.566L262.948 440.713L264.335 440.75L264.092 442.446ZM266.123 450.754L263.627 442.434L263.454 440.727L264.855 440.764L268.31 450.811L266.123 450.754ZM266.098 447.047L266.055 448.653L260.8 448.514L260.843 446.908L266.098 447.047Z" fill="#23024D"/>
<path d="M249.059 448.118L251.761 439.948L252.864 440.044L252.995 441.455L250.148 449.798L248.963 449.695L249.059 448.118ZM248.771 439.688L249.679 448.172L249.405 449.734L248.084 449.619L246.749 439.511L248.771 439.688ZM254.129 448.526L256.467 440.358L258.489 440.534L255.432 450.259L254.111 450.144L254.129 448.526ZM253.484 440.098L254.742 448.648L254.554 450.182L253.369 450.079L251.995 441.361L252.387 440.003L253.484 440.098Z" fill="#23024D"/>
<path d="M244.194 447.573L243.958 449.156L238.718 448.376L238.954 446.794L244.194 447.573ZM240.845 438.63L239.381 448.475L237.352 448.173L238.817 438.328L240.845 438.63ZM244.143 443.219L243.914 444.76L239.357 444.082L239.586 442.541L244.143 443.219ZM245.416 439.31L245.18 440.899L239.946 440.12L240.183 438.531L245.416 439.31Z" fill="#23024D"/>
<path d="M229.108 436.437L232.749 437.158C233.496 437.306 234.115 437.545 234.608 437.874C235.104 438.205 235.455 438.618 235.658 439.114C235.862 439.609 235.901 440.177 235.774 440.816C235.671 441.339 235.493 441.771 235.24 442.111C234.992 442.447 234.682 442.709 234.311 442.896C233.945 443.079 233.532 443.201 233.074 443.264L232.371 443.473L229.205 442.847L229.503 441.275L231.856 441.741C232.21 441.811 232.515 441.806 232.772 441.727C233.029 441.648 233.238 441.508 233.399 441.307C233.563 441.108 233.675 440.86 233.734 440.565C233.795 440.252 233.791 439.97 233.72 439.719C233.649 439.468 233.507 439.259 233.294 439.092C233.08 438.924 232.795 438.805 232.437 438.734L230.808 438.411L229.188 446.599L227.176 446.201L229.108 436.437ZM232.634 447.282L231.269 442.489L233.398 442.896L234.806 447.614L234.787 447.708L232.634 447.282Z" fill="#23024D"/>
<path opacity="0.3" d="M55.9854 204.66C70.8979 150.758 111.387 105.34 167.155 86.0609L186.899 96.2217L176.678 116.081C131.398 132.029 98.5016 169.048 86.3269 213.054L55.9854 204.66Z" fill="url(#paint3_linear_11310_51496)"/>
<path d="M148.698 105.231L152.565 108.112L152.219 103.302L154.113 102.264L154.277 109.147L155.958 112.216L154.198 113.181L152.516 110.111L146.799 106.271L148.698 105.231Z" fill="#23024D"/>
<path d="M142.351 109.019L147.428 117.184L145.752 118.226L140.674 110.062L142.351 109.019ZM144.863 107.457L145.682 108.775L139.021 112.918L138.201 111.6L144.863 107.457Z" fill="#23024D"/>
<path d="M135.885 113.143L141.265 121.111L139.629 122.216L134.249 114.248L135.885 113.143Z" fill="#23024D"/>
<path d="M133.748 126.582L132.075 127.841L131.156 126.599L132.818 125.348C133.233 125.035 133.513 124.679 133.657 124.278C133.799 123.873 133.805 123.436 133.677 122.965C133.552 122.491 133.296 121.998 132.909 121.485L132.627 121.11C132.331 120.716 132.027 120.402 131.718 120.166C131.412 119.928 131.101 119.768 130.786 119.686C130.471 119.604 130.157 119.601 129.844 119.676C129.529 119.748 129.219 119.899 128.913 120.13L127.193 121.425L126.26 120.185L127.979 118.89C128.493 118.504 129.028 118.238 129.586 118.093C130.145 117.942 130.703 117.911 131.259 117.999C131.816 118.087 132.348 118.292 132.856 118.615C133.365 118.932 133.825 119.364 134.239 119.913L134.513 120.277C134.923 120.822 135.212 121.384 135.379 121.964C135.549 122.542 135.599 123.11 135.53 123.669C135.461 124.222 135.277 124.749 134.977 125.251C134.678 125.746 134.268 126.19 133.748 126.582ZM127.188 119.486L132.972 127.166L131.39 128.358L125.606 120.678L127.188 119.486Z" fill="#23024D"/>
<path d="M122.81 122.905L128.883 130.358L127.352 131.605L121.279 124.152L122.81 122.905Z" fill="#23024D"/>
<path d="M117.111 127.815L118.58 126.496L122.825 131.222C123.319 131.773 123.617 132.342 123.719 132.93C123.825 133.516 123.757 134.089 123.515 134.649C123.276 135.207 122.889 135.726 122.355 136.205C121.822 136.684 121.261 137.016 120.675 137.199C120.091 137.38 119.513 137.388 118.939 137.223C118.368 137.055 117.835 136.696 117.341 136.146L113.097 131.419L114.571 130.096L118.815 134.822C119.104 135.143 119.39 135.36 119.673 135.472C119.957 135.584 120.237 135.602 120.512 135.526C120.791 135.448 121.061 135.291 121.323 135.055C121.592 134.814 121.777 134.562 121.878 134.3C121.983 134.034 121.993 133.756 121.909 133.464C121.828 133.17 121.644 132.862 121.355 132.541L117.111 127.815Z" fill="#23024D"/>
<path d="M114.704 141.354L117.998 140.951L117.891 142.6L114.625 142.975L114.704 141.354ZM114.014 136.922L114.338 137.242C114.858 137.756 115.255 138.287 115.529 138.837C115.806 139.383 115.962 139.93 115.996 140.478C116.028 141.022 115.945 141.547 115.749 142.053C115.553 142.558 115.241 143.027 114.814 143.459C114.391 143.888 113.926 144.205 113.419 144.411C112.913 144.616 112.388 144.706 111.843 144.682C111.295 144.654 110.743 144.508 110.187 144.243C109.635 143.976 109.098 143.585 108.578 143.072L108.254 142.752C107.731 142.235 107.334 141.703 107.063 141.157C106.792 140.605 106.638 140.056 106.6 139.512C106.563 138.967 106.644 138.441 106.843 137.932C107.042 137.423 107.354 136.955 107.778 136.526C108.205 136.093 108.67 135.776 109.173 135.574C109.679 135.369 110.206 135.28 110.754 135.308C111.302 135.335 111.853 135.483 112.405 135.751C112.955 136.015 113.491 136.405 114.014 136.922ZM112.932 138.666L112.598 138.336C112.235 137.977 111.881 137.696 111.538 137.493C111.197 137.286 110.87 137.154 110.555 137.097C110.243 137.037 109.949 137.053 109.673 137.144C109.393 137.233 109.136 137.397 108.9 137.635C108.665 137.873 108.505 138.132 108.42 138.413C108.331 138.69 108.319 138.985 108.383 139.296C108.447 139.606 108.584 139.931 108.795 140.269C109.006 140.607 109.293 140.955 109.656 141.314L109.989 141.644C110.349 142 110.701 142.282 111.045 142.492C111.386 142.698 111.713 142.833 112.028 142.897C112.343 142.954 112.64 142.938 112.92 142.849C113.202 142.758 113.461 142.593 113.696 142.355C113.932 142.117 114.09 141.859 114.173 141.581C114.258 141.301 114.269 141.005 114.205 140.694C114.141 140.377 114.003 140.049 113.793 139.711C113.579 139.37 113.292 139.021 112.932 138.666Z" fill="#23024D"/>
<path d="M102.732 141.987L109.872 148.426L108.549 149.892L101.41 143.453L102.732 141.987Z" fill="#23024D"/>
<path d="M105.657 150.894L106.846 151.881L103.753 155.605L102.565 154.618L105.657 150.894ZM96.7658 148.97L104.163 155.112L102.897 156.636L95.5003 150.494L96.7658 148.97Z" fill="#23024D"/>
<path fill-rule="evenodd" clip-rule="evenodd" d="M281.155 266.002L293.059 277.864L304.878 266.078L310.066 271.219L293.06 288.178L281.155 276.313L262.383 295.021L252.311 284.983L240.253 297L235.066 291.857L252.311 274.671L262.383 284.71L281.155 266.002Z" fill="#BDB3CA"/>
<path fill-rule="evenodd" clip-rule="evenodd" d="M281.155 246L293.059 257.863L304.878 246.076L310.066 251.218L293.06 268.176L281.155 256.312L262.383 275.02L252.311 264.981L240.253 276.998L235.066 271.855L252.311 254.67L262.383 264.708L281.155 246Z" fill="#BDB3CA"/>
</g>
<defs>
<linearGradient id="paint0_linear_11310_51496" x1="366.747" y1="140.862" x2="453.395" y2="284.528" gradientUnits="userSpaceOnUse">
<stop stop-color="#8620B9" stop-opacity="0"/>
<stop offset="1" stop-color="#8620B9"/>
</linearGradient>
<linearGradient id="paint1_linear_11310_51496" x1="172.815" y1="151.583" x2="92.3938" y2="284.675" gradientUnits="userSpaceOnUse">
<stop stop-color="#8620B9" stop-opacity="0"/>
<stop offset="1" stop-color="#8620B9"/>
</linearGradient>
<linearGradient id="paint2_linear_11310_51496" x1="403.566" y1="353.713" x2="333.747" y2="282.373" gradientUnits="userSpaceOnUse">
<stop stop-color="#2050B9" stop-opacity="0"/>
<stop offset="1" stop-color="#2050B9"/>
</linearGradient>
<linearGradient id="paint3_linear_11310_51496" x1="86.6389" y1="197.291" x2="186.878" y2="94.6496" gradientUnits="userSpaceOnUse">
<stop stop-color="#B92023" stop-opacity="0"/>
<stop offset="1" stop-color="#B92023"/>
</linearGradient>
<clipPath id="clip0_11310_51496">
<rect width="538" height="488" fill="white"/>
</clipPath>
</defs>
</svg>
