<svg width="100" height="100" viewBox="0 0 100 100" fill="none" xmlns="http://www.w3.org/2000/svg">
<path d="M67.1144 24.3961C52.473 24.3961 40.6038 36.1489 40.6038 50.6468C40.6038 65.1446 52.473 76.8975 67.1144 76.8975C81.7558 76.8975 93.625 65.1446 93.625 50.6468" stroke="#23024D"/>
<path d="M32.5106 76.5014C47.152 76.5014 59.0212 64.7486 59.0212 50.2507C59.0212 35.7528 47.152 24 32.5106 24C17.8692 24 6 35.7528 6 50.2507" stroke="#23024D"/>
<path d="M67.1144 24.3956C81.7558 24.3956 93.625 36.2648 93.625 50.9062" stroke="#23024D" stroke-dasharray="4 3"/>
<path d="M32.5106 76.5008C17.8692 76.5008 6 64.6316 6 49.9902" stroke="#23024D" stroke-dasharray="4 3"/>
<path d="M86 43L70.1663 58.7872L59.0823 47.7423L41.6047 65.1581L32.2266 55.8131L21 67" stroke="#872AB0" stroke-width="5"/>
<path d="M86 27L70.1663 42.7872L59.0823 31.7423L41.6047 49.1581L32.2266 39.8131L21 51" stroke="#872AB0" stroke-width="5"/>
<path d="M23.1807 10.4102L23.6735 12.2171L25.4805 12.71L23.6735 13.2028L23.1807 15.0098L22.6878 13.2028L20.8809 12.71L22.6878 12.2171L23.1807 10.4102Z" fill="#8620B9"/>
<path d="M23.9854 13.5156L24.3687 13.8989" stroke="#8620B9" stroke-width="0.5" stroke-linejoin="round"/>
<path d="M24.4326 13.9629L24.5604 14.0907" stroke="#8620B9" stroke-width="0.5" stroke-linejoin="round"/>
<path d="M24.624 14.1543L24.7518 14.2821" stroke="#8620B9" stroke-width="0.5" stroke-linejoin="round"/>
<path d="M22.3369 11.8672L21.9536 11.4839" stroke="#8620B9" stroke-width="0.5" stroke-linejoin="round"/>
<path d="M21.8896 11.4199L21.7619 11.2922" stroke="#8620B9" stroke-width="0.5" stroke-linejoin="round"/>
<path d="M21.6982 11.2285L21.5705 11.1007" stroke="#8620B9" stroke-width="0.5" stroke-linejoin="round"/>
<path d="M24.0234 11.8662L24.4067 11.4829" stroke="#8620B9" stroke-width="0.5" stroke-linejoin="round"/>
<path d="M24.4707 11.4189L24.5985 11.2912" stroke="#8620B9" stroke-width="0.5" stroke-linejoin="round"/>
<path d="M24.6621 11.2275L24.7899 11.0998" stroke="#8620B9" stroke-width="0.5" stroke-linejoin="round"/>
<path d="M22.375 13.5146L21.9917 13.8979" stroke="#8620B9" stroke-width="0.5" stroke-linejoin="round"/>
<path d="M21.9277 13.9619L21.8 14.0897" stroke="#8620B9" stroke-width="0.5" stroke-linejoin="round"/>
<path d="M21.7363 14.1533L21.6086 14.2811" stroke="#8620B9" stroke-width="0.5" stroke-linejoin="round"/>
<path d="M82.3633 16.8389L83.3489 20.4527L86.9627 21.4383L83.3489 22.4239L82.3633 26.0377L81.3777 22.4239L77.7639 21.4383L81.3777 20.4527L82.3633 16.8389Z" fill="#8620B9"/>
<path d="M83.9717 23.0488L84.7382 23.8154" stroke="#8620B9" stroke-width="0.5" stroke-linejoin="round"/>
<path d="M84.8662 23.9424L85.1217 24.1979" stroke="#8620B9" stroke-width="0.5" stroke-linejoin="round"/>
<path d="M85.25 24.3252L85.5055 24.5807" stroke="#8620B9" stroke-width="0.5" stroke-linejoin="round"/>
<path d="M80.6768 19.752L79.9102 18.9854" stroke="#8620B9" stroke-width="0.5" stroke-linejoin="round"/>
<path d="M79.7822 18.8574L79.5267 18.6019" stroke="#8620B9" stroke-width="0.5" stroke-linejoin="round"/>
<path d="M79.3984 18.4746L79.1429 18.2191" stroke="#8620B9" stroke-width="0.5" stroke-linejoin="round"/>
<path d="M84.0488 19.752L84.8154 18.9854" stroke="#8620B9" stroke-width="0.5" stroke-linejoin="round"/>
<path d="M84.9434 18.8574L85.1989 18.6019" stroke="#8620B9" stroke-width="0.5" stroke-linejoin="round"/>
<path d="M85.3262 18.4746L85.5817 18.2191" stroke="#8620B9" stroke-width="0.5" stroke-linejoin="round"/>
<path d="M80.7529 23.0479L79.9864 23.8144" stroke="#8620B9" stroke-width="0.5" stroke-linejoin="round"/>
<path d="M79.8584 23.9414L79.6029 24.1969" stroke="#8620B9" stroke-width="0.5" stroke-linejoin="round"/>
<path d="M79.4746 24.3252L79.2191 24.5807" stroke="#8620B9" stroke-width="0.5" stroke-linejoin="round"/>
<path d="M48.1035 80.791L50.1762 82.8453L52.9983 82.1026L50.944 84.1752L51.6868 86.9974L49.6141 84.9431L46.792 85.6858L48.8462 83.6131L48.1035 80.791Z" fill="#8620B9"/>
</svg>
