<svg width="82" height="44" viewBox="0 0 82 44" fill="none" xmlns="http://www.w3.org/2000/svg">
<path d="M72.8105 27.3403L74.3792 33.0922L80.1311 34.6609L74.3792 36.2295L72.8105 41.9814L71.2419 36.2295L65.49 34.6609L71.2419 33.0922L72.8105 27.3403Z" fill="#8620B9"/>
<path d="M39.5059 6.3623L42.9139 18.8585L55.4101 22.2665L42.9139 25.6745L39.5059 38.1707L36.0978 25.6745L23.6017 22.2665L36.0978 18.8585L39.5059 6.3623Z" fill="#8620B9"/>
<path d="M45.0703 27.8335L47.721 30.4842" stroke="#8620B9" stroke-width="0.5" stroke-linejoin="round"/>
<path d="M48.1641 30.9248L49.0476 31.8084" stroke="#8620B9" stroke-width="0.5" stroke-linejoin="round"/>
<path d="M49.4893 32.2485L50.3728 33.1321" stroke="#8620B9" stroke-width="0.5" stroke-linejoin="round"/>
<path d="M33.6738 16.4316L31.0231 13.7809" stroke="#8620B9" stroke-width="0.5" stroke-linejoin="round"/>
<path d="M30.582 13.3403L29.6985 12.4568" stroke="#8620B9" stroke-width="0.5" stroke-linejoin="round"/>
<path d="M29.2568 12.0146L28.3733 11.1311" stroke="#8620B9" stroke-width="0.5" stroke-linejoin="round"/>
<path d="M45.3379 16.4351L47.9886 13.7844" stroke="#8620B9" stroke-width="0.5" stroke-linejoin="round"/>
<path d="M48.4297 13.3423L49.3133 12.4587" stroke="#8620B9" stroke-width="0.5" stroke-linejoin="round"/>
<path d="M49.7559 12.0186L50.6394 11.135" stroke="#8620B9" stroke-width="0.5" stroke-linejoin="round"/>
<path d="M33.9395 27.8335L31.2888 30.4842" stroke="#8620B9" stroke-width="0.5" stroke-linejoin="round"/>
<path d="M30.8467 30.9248L29.9631 31.8084" stroke="#8620B9" stroke-width="0.5" stroke-linejoin="round"/>
<path d="M29.5215 32.2505L28.6379 33.1341" stroke="#8620B9" stroke-width="0.5" stroke-linejoin="round"/>
<path d="M6.10938 32.4556L7.18073 36.3839L11.109 37.4552L7.18073 38.5266L6.10938 42.4549L5.03802 38.5266L1.1097 37.4552L5.03802 36.3839L6.10938 32.4556Z" fill="#8620B9"/>
</svg>
