<svg width="120" height="30" viewBox="0 0 120 30" fill="none" xmlns="http://www.w3.org/2000/svg">
<path d="M30.4466 3.94316L26.1808 6.12789L5.57209 16.5986C5.49211 16.0657 5.46545 15.5329 5.46545 15C5.46545 8.28597 11.0109 2.74423 17.7561 2.74423C19.8623 2.74423 21.9151 3.27709 23.7547 4.28952L26.2075 3.0373L26.5808 2.8508C24.0213 0.98579 20.9287 0 17.7827 0C9.54454 0 2.77272 6.76732 2.77272 15C2.77272 15.373 2.79938 15.7726 2.82604 16.1457C2.90602 17.238 2.31948 18.2771 1.33304 18.7833L0.0533217 19.4494V22.5133L3.83915 20.5684L5.06554 19.9556L6.26527 19.3428L27.9938 8.28597L30.4466 7.03375L35.4854 4.47602V1.41208L30.4466 3.94316ZM35.4588 7.51332L7.46501 21.7407L5.01222 22.9929L0 25.5506V28.6146L4.98556 26.0835L9.25128 23.8988L29.8867 13.4014C29.9667 13.9343 29.9933 14.4671 29.9933 15.0266C29.9933 21.7673 24.4479 27.2824 17.7027 27.2824C15.5965 27.2824 13.5437 26.7496 11.7041 25.7105L11.5441 25.7904L8.90469 27.1492C11.4641 29.0142 14.5568 30 17.7294 30C25.9676 30 32.7127 23.2327 32.7394 15.0266C32.7394 14.6536 32.7127 14.254 32.6861 13.881C32.6061 12.7886 33.1926 11.7496 34.1524 11.2433L35.4321 10.5773L35.4588 7.51332ZM77.6094 9.64476C73.317 9.64476 70.0111 12.7886 70.0111 17.7709C70.0111 22.4068 72.7572 25.9503 77.6894 25.9503C81.5019 25.9503 84.008 23.7123 84.7012 21.0213H81.9551C81.2886 22.5666 80.0089 23.6057 77.6627 23.6057C75.3699 23.6057 72.9171 21.9805 72.8371 18.5968H84.8878C85.2344 13.6146 82.4083 9.64476 77.6094 9.64476ZM72.8905 16.3322C73.1304 13.1883 75.2899 11.9094 77.6094 11.9094C80.4355 11.9094 82.0351 14.1208 82.1151 16.3322H72.8905ZM53.8814 13.4547L51.4552 12.8952C49.4557 12.4689 48.016 11.5364 48.016 9.6714C48.016 7.30018 50.8687 6.58082 52.495 6.58082C54.6012 6.58082 57.0273 7.4334 57.7472 9.83126H60.6265C59.7734 5.78153 56.4141 4.07638 52.6283 4.07638C49.2157 4.07638 45.0033 5.78153 45.0033 9.83126C45.0033 13.3215 47.8827 14.9467 50.7887 15.5861L53.4281 16.1457C56.0675 16.7584 57.9604 17.6377 57.9604 19.8757C57.9604 21.9805 56.1742 23.4192 53.0282 23.4192C49.7489 23.4192 47.7494 21.9005 47.2162 18.9965H44.3102C44.87 23.206 48.016 25.9236 52.9749 25.9236C57.1873 25.9236 60.9998 23.7123 60.9998 19.6092C60.9998 15.373 57.1073 14.1474 53.8814 13.4547ZM66.6785 5.96803H64.0391V9.88455H61.5596V12.016H64.0391V21.6075C64.0391 24.8579 64.7323 25.524 67.7449 25.524H69.6645V23.3126H68.3315C66.8118 23.3126 66.7052 22.913 66.7052 21.2877V12.016H69.6645V9.88455H66.7052V5.96803H66.6785ZM119.2 9.80462C117.121 9.88455 115.548 10.8437 114.774 12.6288V9.88455H112.188V25.5506H114.828V17.3446C114.828 13.8544 116.054 12.5488 118.507 12.5488C119.014 12.5488 119.493 12.5755 120 12.6554V9.83126C119.707 9.80462 119.44 9.80462 119.2 9.80462ZM109.629 19.6359L109.656 16.0391C109.682 11.5897 107.816 9.59148 103.417 9.59148C100.378 9.59148 97.365 11.4831 97.1251 14.8668H99.8711C99.9778 12.9218 101.231 11.7496 103.444 11.7496C105.417 11.7496 106.99 12.6821 106.99 15.5595V15.9325C100.591 16.6252 96.3786 17.7442 96.3786 21.421C96.3786 24.2984 98.8314 25.9236 101.764 25.9236C104.563 25.9236 106.163 25.0178 107.123 23.3925C107.15 24.1119 107.203 24.8313 107.336 25.5506H110.002C109.709 24.0586 109.576 22.3002 109.629 19.6359ZM107.203 19.0231C107.203 22.7265 104.857 23.8455 102.377 23.8455C100.484 23.8455 99.3379 22.8597 99.3379 21.3677C99.3379 19.2096 102.404 18.4902 107.203 18.0107V19.0231ZM86.7007 4.44938H89.3401V25.5506H86.7007V4.44938ZM91.9796 4.44938H94.619V25.5506H91.9796V4.44938Z" fill="currentColor"/>
</svg>
