<svg width="100%" height="100%" viewBox="0 0 18 18" fill="none" xmlns="http://www.w3.org/2000/svg">
    <path d="M8 0.57735C8.6188 0.220085 9.3812 0.220085 10 0.57735L15.7942 3.92265C16.413 4.27992 16.7942 4.94017 16.7942 5.6547V12.3453C16.7942 13.0598 16.413 13.7201 15.7942 14.0774L10 17.4226C9.3812 17.7799 8.6188 17.7799 8 17.4226L2.20577 14.0773C1.58697 13.7201 1.20577 13.0598 1.20577 12.3453L1.20577 5.6547C1.20577 4.94017 1.58697 4.27992 2.20577 3.92265L8 0.57735Z" fill="#2E30F0"/>
    <path fill-rule="evenodd" clip-rule="evenodd" d="M8.49186 13.2436L8.49899 4.75391L9.51086 4.75479L9.50374 13.2445L8.49186 13.2436Z" fill="white"/>
    <path fill-rule="evenodd" clip-rule="evenodd" d="M12.3975 11.5657L5.09853 7.3145L5.6052 6.43267L12.9042 10.6839L12.3975 11.5657Z" fill="white"/>
    <path fill-rule="evenodd" clip-rule="evenodd" d="M5.6009 11.5598L12.907 7.32131L12.4018 6.43859L5.0957 10.6771L5.6009 11.5598Z" fill="white"/>
</svg>