<svg width="100%" height="100%" viewBox="0 0 151 44" fill="none" xmlns="http://www.w3.org/2000/svg">
    <path d="M63.8633 29C63.7331 28.7396 63.6273 28.2757 63.5459 27.6084C62.4961 28.6989 61.2428 29.2441 59.7861 29.2441C58.484 29.2441 57.4139 28.8779 56.5757 28.1455C55.7456 27.4049 55.3306 26.4691 55.3306 25.3379C55.3306 23.9626 55.8514 22.8965 56.8931 22.1396C57.9429 21.3747 59.4159 20.9922 61.312 20.9922H63.5093V19.9546C63.5093 19.1652 63.2733 18.5386 62.8013 18.0747C62.3293 17.6027 61.6335 17.3667 60.7139 17.3667C59.9082 17.3667 59.2327 17.5701 58.6875 17.9771C58.1423 18.384 57.8696 18.8763 57.8696 19.4541H55.5991C55.5991 18.7949 55.8311 18.1602 56.2949 17.5498C56.7669 16.9313 57.4017 16.443 58.1992 16.085C59.0049 15.7269 59.8879 15.5479 60.8481 15.5479C62.37 15.5479 63.5622 15.9303 64.4248 16.6953C65.2874 17.4521 65.735 18.4979 65.7676 19.8325V25.9116C65.7676 27.1242 65.9222 28.0885 66.2314 28.8047V29H63.8633ZM60.1157 27.2788C60.8237 27.2788 61.4951 27.0957 62.1299 26.7295C62.7646 26.3633 63.2244 25.8872 63.5093 25.3013V22.5913H61.7393C58.9723 22.5913 57.5889 23.401 57.5889 25.0205C57.5889 25.7285 57.8249 26.2819 58.2969 26.6807C58.7689 27.0794 59.3752 27.2788 60.1157 27.2788Z" fill="#010739"/>
    <path d="M68.7583 22.2861C68.7583 20.2109 69.2344 18.5711 70.1865 17.3667C71.1387 16.1541 72.4163 15.5479 74.0195 15.5479C75.582 15.5479 76.8149 16.0728 77.7183 17.1226L77.8159 15.792H79.8911V34.0781H77.6328V27.7793C76.7214 28.7559 75.5088 29.2441 73.9951 29.2441C72.4001 29.2441 71.1265 28.6257 70.1743 27.3887C69.2303 26.1436 68.7583 24.4956 68.7583 22.4448V22.2861ZM71.0166 22.5425C71.0166 24.0562 71.334 25.2443 71.9688 26.1069C72.6117 26.9696 73.4743 27.4009 74.5566 27.4009C75.8994 27.4009 76.9248 26.8068 77.6328 25.6187V19.1489C76.9167 17.9852 75.8994 17.4033 74.5811 17.4033C73.4906 17.4033 72.6239 17.8387 71.981 18.7095C71.3381 19.5721 71.0166 20.8498 71.0166 22.5425Z" fill="#010739"/>
    <path d="M91.6709 27.6938C90.792 28.7274 89.5021 29.2441 87.8013 29.2441C86.3934 29.2441 85.3192 28.8372 84.5786 28.0234C83.8462 27.2015 83.4759 25.9889 83.4678 24.3857V15.792H85.7261V24.3247C85.7261 26.3267 86.5399 27.3276 88.1675 27.3276C89.8927 27.3276 91.0402 26.6847 91.6099 25.3989V15.792H93.8682V29H91.7197L91.6709 27.6938Z" fill="#010739"/>
    <path d="M105.465 29C105.335 28.7396 105.229 28.2757 105.147 27.6084C104.098 28.6989 102.844 29.2441 101.388 29.2441C100.086 29.2441 99.0155 28.8779 98.1772 28.1455C97.3472 27.4049 96.9321 26.4691 96.9321 25.3379C96.9321 23.9626 97.453 22.8965 98.4946 22.1396C99.5444 21.3747 101.017 20.9922 102.914 20.9922H105.111V19.9546C105.111 19.1652 104.875 18.5386 104.403 18.0747C103.931 17.6027 103.235 17.3667 102.315 17.3667C101.51 17.3667 100.834 17.5701 100.289 17.9771C99.7438 18.384 99.4712 18.8763 99.4712 19.4541H97.2007C97.2007 18.7949 97.4326 18.1602 97.8965 17.5498C98.3685 16.9313 99.0033 16.443 99.8008 16.085C100.606 15.7269 101.489 15.5479 102.45 15.5479C103.972 15.5479 105.164 15.9303 106.026 16.6953C106.889 17.4521 107.337 18.4979 107.369 19.8325V25.9116C107.369 27.1242 107.524 28.0885 107.833 28.8047V29H105.465ZM101.717 27.2788C102.425 27.2788 103.097 27.0957 103.731 26.7295C104.366 26.3633 104.826 25.8872 105.111 25.3013V22.5913H103.341C100.574 22.5913 99.1904 23.401 99.1904 25.0205C99.1904 25.7285 99.4264 26.2819 99.8984 26.6807C100.37 27.0794 100.977 27.2788 101.717 27.2788Z" fill="#010739"/>
    <path d="M117.293 17.8184C116.952 17.7614 116.581 17.7329 116.183 17.7329C114.701 17.7329 113.696 18.3636 113.167 19.625V29H110.909V15.792H113.106L113.143 17.3179C113.884 16.1379 114.933 15.5479 116.292 15.5479C116.732 15.5479 117.066 15.6048 117.293 15.7188V17.8184Z" fill="#010739"/>
    <path d="M121.834 29H119.576V15.792H121.834V29ZM119.393 12.2886C119.393 11.9224 119.503 11.6131 119.723 11.3608C119.951 11.1086 120.284 10.9824 120.724 10.9824C121.163 10.9824 121.497 11.1086 121.725 11.3608C121.952 11.6131 122.066 11.9224 122.066 12.2886C122.066 12.6548 121.952 12.96 121.725 13.2041C121.497 13.4482 121.163 13.5703 120.724 13.5703C120.284 13.5703 119.951 13.4482 119.723 13.2041C119.503 12.96 119.393 12.6548 119.393 12.2886Z" fill="#010739"/>
    <path d="M133.614 27.6938C132.735 28.7274 131.445 29.2441 129.745 29.2441C128.337 29.2441 127.263 28.8372 126.522 28.0234C125.79 27.2015 125.419 25.9889 125.411 24.3857V15.792H127.669V24.3247C127.669 26.3267 128.483 27.3276 130.111 27.3276C131.836 27.3276 132.984 26.6847 133.553 25.3989V15.792H135.812V29H133.663L133.614 27.6938Z" fill="#010739"/>
    <path d="M146.944 25.4966C146.944 24.8862 146.712 24.4142 146.249 24.0806C145.793 23.7388 144.991 23.4458 143.844 23.2017C142.704 22.9575 141.797 22.6646 141.122 22.3228C140.454 21.981 139.958 21.5741 139.632 21.1021C139.315 20.63 139.156 20.0685 139.156 19.4175C139.156 18.3351 139.612 17.4196 140.523 16.6709C141.443 15.9222 142.615 15.5479 144.039 15.5479C145.536 15.5479 146.749 15.9344 147.677 16.7075C148.613 17.4806 149.081 18.4694 149.081 19.6738H146.81C146.81 19.0553 146.546 18.5223 146.017 18.0747C145.496 17.6271 144.837 17.4033 144.039 17.4033C143.217 17.4033 142.574 17.5824 142.11 17.9404C141.646 18.2985 141.415 18.7664 141.415 19.3442C141.415 19.8895 141.63 20.3005 142.062 20.5771C142.493 20.8538 143.27 21.1183 144.393 21.3706C145.524 21.6229 146.44 21.924 147.14 22.2739C147.84 22.6239 148.356 23.047 148.69 23.5435C149.032 24.0317 149.203 24.6299 149.203 25.3379C149.203 26.5179 148.731 27.466 147.787 28.1821C146.843 28.8901 145.618 29.2441 144.112 29.2441C143.054 29.2441 142.118 29.057 141.305 28.6826C140.491 28.3083 139.852 27.7874 139.388 27.1201C138.932 26.4447 138.705 25.7163 138.705 24.9351H140.963C141.004 25.6919 141.305 26.2941 141.866 26.7417C142.436 27.1812 143.185 27.4009 144.112 27.4009C144.967 27.4009 145.65 27.23 146.163 26.8882C146.684 26.5382 146.944 26.0744 146.944 25.4966Z" fill="#010739"/>
    <path d="M0 20C0 10.5719 0 5.85786 2.92893 2.92893C5.85786 0 10.5719 0 20 0H24C33.4281 0 38.1421 0 41.0711 2.92893C44 5.85786 44 10.5719 44 20V24C44 33.4281 44 38.1421 41.0711 41.0711C38.1421 44 33.4281 44 24 44H20C10.5719 44 5.85786 44 2.92893 41.0711C0 38.1421 0 33.4281 0 24V20Z" fill="#872AB0"/>
    <path fill-rule="evenodd" clip-rule="evenodd" d="M26.0501 20.2359L30.9701 25.1206L35.8556 20.2673L38 22.3844L30.9707 29.3673L26.0501 24.482L18.291 32.1853L14.1277 28.0518L9.14373 33L7 30.8823L14.1277 23.8058L18.291 27.9392L26.0501 20.2359Z" fill="white"/>
    <path fill-rule="evenodd" clip-rule="evenodd" d="M26.0501 12L30.9701 16.8847L35.8556 12.0313L38 14.1484L30.9707 21.1314L26.0501 16.2461L18.291 23.9494L14.1277 19.8159L9.14373 24.7641L7 22.6463L14.1277 15.5698L18.291 19.7033L26.0501 12Z" fill="white"/>
</svg>
