<svg width="100%" height="100%" viewBox="0 0 524 527" fill="none" xmlns="http://www.w3.org/2000/svg">
<path opacity="0.1" d="M348.456 460.313L95.9421 411.383C90.5536 410.339 87.0138 405.146 88.0108 399.749L147.6 77.1459C148.607 71.6944 153.857 68.1024 159.303 69.1385L413.858 117.566C419.279 118.597 422.84 123.825 421.816 129.247L379.125 355.176L364.526 428.87L360.192 452.314C359.182 457.777 353.911 461.37 348.456 460.313Z" fill="#24034F" stroke="white"/>
<g opacity="0.2">
<path d="M264.35 383.988L261.792 351.311L261.001 351.373L263.559 384.05L264.35 383.988Z" fill="white"/>
<path d="M298.359 387.196L296.459 381.821L295.71 382.086L297.611 387.46L298.359 387.196Z" fill="white"/>
<path d="M187.535 204.52L183.202 200.816L182.686 201.419L187.019 205.123L187.535 204.52Z" fill="white"/>
<path d="M179.59 197.729L168.396 188.161L167.88 188.764L179.074 198.332L179.59 197.729Z" fill="white"/>
<path d="M153.23 175.197L164.424 184.766L163.908 185.369L152.714 175.8L153.23 175.197Z" fill="white"/>
<path d="M289.967 363.46L294.877 377.343L294.129 377.608L289.219 363.724L289.967 363.46Z" fill="white"/>
<path d="M288.222 358.533L283.313 344.65L282.564 344.914L287.474 358.798L288.222 358.533Z" fill="white"/>
<path d="M336.625 302.754L333.196 301.117L332.854 301.833L336.283 303.471L336.625 302.754Z" fill="white"/>
<path d="M339.625 304.187L348.627 308.486L348.285 309.202L339.283 304.903L339.625 304.187Z" fill="white"/>
<path d="M360.631 314.217L351.629 309.919L351.287 310.635L360.289 314.933L360.631 314.217Z" fill="white"/>
<path d="M215.688 152.99L216.955 156.573L216.207 156.837L214.94 153.254L215.688 152.99Z" fill="white"/>
<path d="M221.39 169.113L218.064 159.708L217.316 159.972L220.642 169.377L221.39 169.113Z" fill="white"/>
<path d="M222.499 172.248L225.825 181.653L225.077 181.917L221.751 172.512L222.499 172.248Z" fill="white"/>
<path d="M338.153 333.474L349.347 343.043L348.831 343.646L337.638 334.078L338.153 333.474Z" fill="white"/>
<path d="M334.182 330.079L322.988 320.51L322.473 321.114L333.666 330.682L334.182 330.079Z" fill="white"/>
<path d="M196.212 178.281L204.548 190.421L203.894 190.87L195.558 178.73L196.212 178.281Z" fill="white"/>
<path d="M193.253 173.973L184.918 161.834L184.263 162.283L192.599 174.422L193.253 173.973Z" fill="white"/>
<path d="M310.242 344.347L305.94 338.081L305.285 338.53L309.588 344.796L310.242 344.347Z" fill="white"/>
<path d="M314.009 349.829L325.571 366.668L324.917 367.117L313.354 350.278L314.009 349.829Z" fill="white"/>
<path d="M340.894 388.989L329.601 372.541L328.947 372.991L340.24 389.438L340.894 388.989Z" fill="white"/>
<path d="M243.493 116.83L244.086 124.408L243.295 124.469L242.702 116.892L243.493 116.83Z" fill="white"/>
<path d="M246.198 151.402L244.604 131.038L243.812 131.099L245.406 151.463L246.198 151.402Z" fill="white"/>
<path d="M246.753 158.505L248.31 178.395L247.519 178.457L245.962 158.567L246.753 158.505Z" fill="white"/>
<path d="M146.395 211.558L175.973 225.682L175.631 226.398L146.053 212.274L146.395 211.558Z" fill="white"/>
<path d="M342.669 230.44L337.295 232.34L337.559 233.088L342.934 231.188L342.669 230.44Z" fill="white"/>
<path d="M347.149 228.858L361.032 223.948L361.297 224.697L347.413 229.606L347.149 228.858Z" fill="white"/>
<path d="M379.841 217.296L365.958 222.206L366.222 222.954L380.106 218.044L379.841 217.296Z" fill="white"/>
<path d="M168.255 363.026L171.959 358.692L172.562 359.208L168.858 363.541L168.255 363.026Z" fill="white"/>
<path d="M184.615 343.888L175.047 355.082L175.65 355.597L185.218 344.404L184.615 343.888Z" fill="white"/>
<path d="M188.009 339.916L197.578 328.722L198.181 329.238L188.612 340.431L188.009 339.916Z" fill="white"/>
<path d="M162.87 270.475L166.658 270.178L166.72 270.969L162.932 271.266L162.87 270.475Z" fill="white"/>
<path d="M159.556 270.735L149.611 271.513L149.673 272.305L159.618 271.526L159.556 270.735Z" fill="white"/>
<path d="M136.349 272.551L146.294 271.772L146.356 272.564L136.411 273.342L136.349 272.551Z" fill="white"/>
<path d="M329.528 174.139L327.058 177.027L327.662 177.543L330.131 174.654L329.528 174.139Z" fill="white"/>
<path d="M318.415 187.138L324.897 179.555L325.5 180.071L319.019 187.653L318.415 187.138Z" fill="white"/>
<path d="M316.254 189.665L309.773 197.248L310.376 197.764L316.858 190.181L316.254 189.665Z" fill="white"/>
<path d="M150.413 298.596L136.53 303.506L136.794 304.254L150.678 299.344L150.413 298.596Z" fill="white"/>
<path d="M155.338 296.854L169.221 291.944L169.486 292.692L155.602 297.602L155.338 296.854Z" fill="white"/>
<path d="M338.622 204.737L326.482 213.073L326.931 213.727L339.071 205.392L338.622 204.737Z" fill="white"/>
<path d="M342.931 201.78L355.071 193.445L355.52 194.099L343.38 202.435L342.931 201.78Z" fill="white"/>
<path d="M172.558 318.768L178.823 314.466L179.273 315.12L173.007 319.422L172.558 318.768Z" fill="white"/>
<path d="M167.073 322.532L150.235 334.095L150.684 334.749L167.523 323.186L167.073 322.532Z" fill="white"/>
<path d="M127.917 349.423L144.364 338.129L144.813 338.783L128.366 350.077L127.917 349.423Z" fill="white"/>
<path d="M316.563 130.405L313.288 137.264L314.005 137.606L317.279 130.747L316.563 130.405Z" fill="white"/>
<path d="M301.623 161.698L310.425 143.265L311.141 143.607L302.339 162.04L301.623 161.698Z" fill="white"/>
<path d="M298.553 168.128L289.957 186.132L290.673 186.474L299.27 168.47L298.553 168.128Z" fill="white"/>
<path d="M373.161 253.686L340.484 256.244L340.546 257.035L373.223 254.477L373.161 253.686Z" fill="white"/>
<path d="M201.148 372.247L215.272 342.668L215.988 343.01L201.864 372.588L201.148 372.247Z" fill="white"/>
</g>
<g opacity="0.2">
<path d="M451.242 302.783L458.39 304.111L458.245 304.891L451.097 303.563L451.242 302.783Z" fill="white"/>
<path d="M418.364 296.675L444.095 301.455L443.95 302.235L418.219 297.455L418.364 296.675Z" fill="white"/>
<path d="M107.443 238.913L409.786 295.081L409.641 295.861L107.298 239.693L107.443 238.913Z" fill="white"/>
<path d="M65.2722 231.079L91.0035 235.859L90.8585 236.639L65.1272 231.859L65.2722 231.079Z" fill="white"/>
<path d="M50.9776 228.423L58.1252 229.751L57.9803 230.531L50.8327 229.204L50.9776 228.423Z" fill="white"/>
</g>
<g opacity="0.2">
<path d="M206.023 541.1L207.815 531.454L208.595 531.599L206.803 541.245L206.023 541.1Z" fill="white"/>
<path d="M209.607 521.808L216.058 487.082L216.838 487.227L210.387 521.953L209.607 521.808Z" fill="white"/>
<path d="M220.18 464.895L295.982 56.8667L296.762 57.0117L220.96 465.04L220.18 464.895Z" fill="white"/>
<path d="M298.132 45.2917L304.583 10.5659L305.363 10.7108L298.912 45.4366L298.132 45.2917Z" fill="white"/>
<path d="M306.375 0.919881L308.167 -8.72617L308.947 -8.58123L307.155 1.06482L306.375 0.919881Z" fill="white"/>
</g>
<path opacity="0.2" fill-rule="evenodd" clip-rule="evenodd" d="M242.767 354.363C242.235 354.274 241.702 354.18 241.17 354.081C240.637 353.982 240.107 353.878 239.578 353.771L239.736 352.993C240.261 353.1 240.787 353.202 241.315 353.301C241.843 353.399 242.371 353.492 242.898 353.58L242.767 354.363ZM237.212 353.256C236.158 353.012 235.112 352.75 234.075 352.471L234.281 351.704C235.309 351.981 236.346 352.241 237.391 352.483L237.212 353.256ZM248.37 355.126C247.301 355.014 246.231 354.883 245.159 354.732L245.27 353.946C246.332 354.096 247.393 354.226 248.453 354.337L248.37 355.126ZM231.746 351.811C230.71 351.502 229.682 351.176 228.664 350.833L228.918 350.081C229.927 350.421 230.945 350.744 231.972 351.05L231.746 351.811ZM254.007 355.541C252.934 355.496 251.858 355.431 250.78 355.347L250.842 354.556C251.91 354.639 252.977 354.703 254.041 354.748L254.007 355.541ZM226.377 350.028C225.363 349.656 224.36 349.267 223.366 348.861L223.666 348.127C224.651 348.529 225.646 348.914 226.65 349.283L226.377 350.028ZM259.66 355.604C258.587 355.626 257.511 355.628 256.431 355.612L256.444 354.818C257.514 354.835 258.58 354.832 259.644 354.811L259.66 355.604ZM265.31 355.312C264.239 355.401 263.164 355.471 262.086 355.522L262.048 354.73C263.117 354.679 264.183 354.609 265.244 354.521L265.31 355.312ZM221.132 347.914C220.143 347.479 219.165 347.027 218.198 346.559L218.543 345.845C219.502 346.309 220.472 346.756 221.451 347.188L221.132 347.914ZM270.929 354.665C269.864 354.822 268.795 354.96 267.722 355.078L267.634 354.289C268.699 354.172 269.758 354.035 270.813 353.88L270.929 354.665ZM216.031 345.475C215.072 344.979 214.124 344.467 213.187 343.938L213.576 343.247C214.505 343.771 215.445 344.279 216.396 344.771L216.031 345.475ZM276.493 353.667C275.441 353.89 274.383 354.095 273.32 354.281L273.184 353.499C274.237 353.315 275.286 353.112 276.329 352.891L276.493 353.667ZM211.093 342.72C210.167 342.165 209.253 341.594 208.352 341.008L208.784 340.343C209.678 340.924 210.584 341.489 211.501 342.04L211.093 342.72ZM281.986 352.321C280.95 352.609 279.908 352.88 278.859 353.132L278.673 352.36C279.713 352.111 280.746 351.842 281.773 351.556L281.986 352.321ZM206.336 339.659C205.448 339.047 204.572 338.42 203.709 337.779L204.182 337.142C205.038 337.778 205.906 338.399 206.786 339.006L206.336 339.659ZM287.384 350.632C286.368 350.985 285.344 351.321 284.313 351.638L284.079 350.88C285.101 350.565 286.116 350.233 287.124 349.882L287.384 350.632ZM201.783 336.306C200.935 335.64 200.099 334.959 199.278 334.264L199.79 333.658C200.605 334.347 201.432 335.022 202.273 335.682L201.783 336.306ZM292.665 348.609C291.672 349.026 290.671 349.425 289.662 349.806L289.381 349.064C290.381 348.686 291.373 348.29 292.358 347.877L292.665 348.609ZM197.449 332.675C196.644 331.957 195.853 331.225 195.076 330.479L195.625 329.907C196.396 330.645 197.18 331.371 197.977 332.083L197.449 332.675ZM297.808 346.26C296.844 346.738 295.87 347.198 294.887 347.642L294.561 346.918C295.535 346.479 296.5 346.022 297.456 345.549L297.808 346.26ZM193.349 328.778C192.592 328.012 191.848 327.232 191.119 326.44L191.703 325.902C192.426 326.688 193.163 327.461 193.914 328.22L193.349 328.778ZM302.796 343.594C301.863 344.131 300.919 344.652 299.967 345.155L299.596 344.454C300.54 343.954 301.475 343.438 302.4 342.906L302.796 343.594ZM189.502 324.634C188.793 323.821 188.1 322.997 187.422 322.16L188.038 321.66C188.71 322.49 189.398 323.307 190.1 324.112L189.502 324.634ZM307.607 340.622C306.709 341.217 305.8 341.795 304.88 342.357L304.466 341.68C305.378 341.123 306.279 340.55 307.169 339.96L307.607 340.622ZM185.921 320.257C185.264 319.403 184.624 318.536 183.999 317.659L184.645 317.198C185.265 318.068 185.9 318.927 186.55 319.774L185.921 320.257ZM312.224 337.356C311.364 338.006 310.493 338.64 309.611 339.258L309.155 338.608C310.03 337.995 310.893 337.367 311.745 336.723L312.224 337.356ZM182.619 315.666C182.018 314.772 181.432 313.867 180.863 312.953L181.537 312.533C182.101 313.44 182.682 314.337 183.278 315.223L182.619 315.666ZM316.627 333.808C315.81 334.51 314.98 335.197 314.138 335.869L313.643 335.249C314.477 334.583 315.3 333.902 316.11 333.206L316.627 333.808ZM179.611 310.877C179.067 309.948 178.539 309.008 178.028 308.06L178.727 307.683C179.233 308.624 179.756 309.555 180.296 310.476L179.611 310.877ZM320.8 329.991C320.028 330.743 319.243 331.481 318.445 332.204L317.912 331.616C318.703 330.899 319.481 330.168 320.246 329.423L320.8 329.991ZM176.908 305.91C176.423 304.948 175.955 303.978 175.505 302.999L176.226 302.667C176.672 303.638 177.136 304.6 177.616 305.553L176.908 305.91ZM324.725 325.919C324.002 326.719 323.264 327.504 322.513 328.276L321.945 327.723C322.689 326.958 323.42 326.179 324.137 325.387L324.725 325.919ZM174.521 300.783C174.098 299.793 173.692 298.795 173.304 297.789L174.044 297.503C174.429 298.5 174.831 299.49 175.251 300.471L174.521 300.783ZM328.385 321.609C327.714 322.453 327.027 323.283 326.327 324.101L325.724 323.584C326.418 322.774 327.099 321.951 327.765 321.114L328.385 321.609ZM172.462 295.516C172.102 294.502 171.76 293.48 171.436 292.451L172.193 292.213C172.514 293.233 172.853 294.245 173.21 295.251L172.462 295.516ZM331.766 317.076C331.149 317.96 330.516 318.832 329.869 319.692L329.235 319.215C329.877 318.363 330.503 317.498 331.115 316.622L331.766 317.076ZM170.739 290.129C170.444 289.095 170.167 288.054 169.909 287.007L170.68 286.817C170.936 287.854 171.21 288.886 171.502 289.912L170.739 290.129ZM334.852 312.336C334.293 313.258 333.717 314.169 333.126 315.067L332.463 314.631C333.049 313.741 333.619 312.838 334.174 311.924L334.852 312.336ZM169.361 284.644C169.132 283.593 168.922 282.536 168.731 281.474L169.512 281.334C169.701 282.386 169.909 283.433 170.136 284.475L169.361 284.644ZM337.631 307.409C337.131 308.366 336.614 309.313 336.081 310.247L335.392 309.854C335.92 308.928 336.432 307.99 336.928 307.042L337.631 307.409ZM168.334 279.084C168.173 278.02 168.03 276.952 167.907 275.879L168.695 275.788C168.817 276.852 168.959 277.911 169.119 278.965L168.334 279.084ZM340.09 302.318C339.651 303.305 339.196 304.282 338.724 305.247L338.011 304.899C338.479 303.942 338.93 302.974 339.364 301.996L340.09 302.318ZM167.663 273.469C167.57 272.398 167.496 271.323 167.441 270.244L168.234 270.204C168.288 271.273 168.361 272.338 168.454 273.4L167.663 273.469ZM342.22 297.08C341.845 298.092 341.453 299.095 341.044 300.087L340.31 299.785C340.716 298.801 341.104 297.808 341.475 296.804L342.22 297.08ZM167.351 267.819C167.326 266.746 167.321 265.67 167.335 264.59L168.128 264.6C168.114 265.67 168.12 266.737 168.145 267.801L167.351 267.819ZM344.014 291.714C343.703 292.75 343.375 293.776 343.03 294.794L342.279 294.539C342.621 293.53 342.946 292.513 343.253 291.486L344.014 291.714ZM167.399 262.166C167.442 261.092 167.505 260.016 167.587 258.938L168.379 258.999C168.297 260.067 168.235 261.134 168.192 262.197L167.399 262.166ZM345.465 286.248C345.22 287.303 344.957 288.349 344.677 289.386L343.911 289.179C344.189 288.151 344.449 287.114 344.692 286.069L345.465 286.248ZM167.805 256.527C167.915 255.459 168.046 254.388 168.196 253.316L168.982 253.426C168.833 254.489 168.704 255.55 168.594 256.609L167.805 256.527ZM346.291 282.291C346.192 282.824 346.089 283.355 345.981 283.883L345.203 283.724C345.31 283.2 345.413 282.674 345.511 282.146C345.609 281.618 345.702 281.09 345.791 280.563L346.573 280.694C346.484 281.226 346.39 281.759 346.291 282.291ZM168.564 250.923C168.653 250.391 168.747 249.859 168.846 249.326C168.945 248.793 169.048 248.263 169.156 247.734L169.934 247.893C169.827 248.417 169.724 248.943 169.626 249.471C169.528 249.999 169.435 250.527 169.346 251.054L168.564 250.923ZM347.333 275.09C347.222 276.159 347.091 277.229 346.941 278.301L346.155 278.191C346.304 277.129 346.433 276.068 346.543 275.008L347.333 275.09ZM169.672 245.369C169.917 244.315 170.18 243.269 170.46 242.232L171.226 242.439C170.948 243.467 170.688 244.503 170.445 245.548L169.672 245.369ZM347.738 269.452C347.695 270.525 347.632 271.601 347.55 272.679L346.759 272.619C346.84 271.55 346.902 270.484 346.945 269.42L347.738 269.452ZM171.124 239.904C171.434 238.868 171.762 237.841 172.107 236.824L172.858 237.079C172.516 238.087 172.191 239.105 171.884 240.131L171.124 239.904ZM347.786 263.798C347.811 264.871 347.817 265.948 347.803 267.027L347.009 267.017C347.023 265.947 347.017 264.88 346.993 263.816L347.786 263.798ZM172.918 234.538C173.292 233.525 173.684 232.523 174.093 231.53L174.827 231.832C174.422 232.816 174.033 233.81 173.662 234.813L172.918 234.538ZM347.474 258.149C347.567 259.22 347.642 260.294 347.696 261.373L346.904 261.413C346.849 260.344 346.776 259.279 346.683 258.218L347.474 258.149ZM175.048 229.299C175.486 228.312 175.941 227.336 176.413 226.37L177.126 226.718C176.659 227.675 176.207 228.643 175.773 229.621L175.048 229.299ZM346.803 252.533C346.965 253.597 347.107 254.666 347.23 255.739L346.442 255.829C346.32 254.766 346.179 253.707 346.018 252.653L346.803 252.533ZM177.506 224.208C178.006 223.251 178.523 222.305 179.056 221.37L179.745 221.763C179.217 222.689 178.705 223.627 178.209 224.576L177.506 224.208ZM345.776 246.974C346.005 248.024 346.215 249.081 346.406 250.143L345.625 250.284C345.436 249.231 345.228 248.184 345.001 247.142L345.776 246.974ZM180.285 219.282C180.844 218.359 181.42 217.449 182.011 216.55L182.674 216.986C182.088 217.877 181.518 218.779 180.963 219.693L180.285 219.282ZM344.398 241.488C344.693 242.522 344.97 243.564 345.228 244.611L344.457 244.801C344.202 243.763 343.927 242.731 343.635 241.706L344.398 241.488ZM183.371 214.542C183.988 213.657 184.621 212.785 185.268 211.925L185.902 212.403C185.26 213.255 184.634 214.119 184.022 214.996L183.371 214.542ZM342.675 236.101C343.035 237.115 343.377 238.137 343.701 239.166L342.944 239.404C342.623 238.385 342.284 237.372 341.927 236.366L342.675 236.101ZM186.752 210.009C187.424 209.165 188.11 208.334 188.81 207.517L189.413 208.033C188.719 208.843 188.038 209.667 187.373 210.503L186.752 210.009ZM340.616 230.834C341.039 231.824 341.445 232.823 341.833 233.829L341.093 234.114C340.708 233.117 340.306 232.128 339.886 231.146L340.616 230.834ZM190.412 205.698C191.136 204.899 191.873 204.113 192.624 203.341L193.193 203.894C192.448 204.659 191.717 205.438 191 206.231L190.412 205.698ZM338.229 225.707C338.714 226.669 339.182 227.639 339.632 228.619L338.911 228.95C338.465 227.98 338.001 227.018 337.521 226.065L338.229 225.707ZM194.337 201.626C195.109 200.874 195.894 200.136 196.692 199.413L197.225 200.001C196.434 200.718 195.656 201.449 194.891 202.195L194.337 201.626ZM335.526 220.74C336.07 221.669 336.598 222.609 337.109 223.558L336.41 223.934C335.904 222.993 335.381 222.062 334.841 221.141L335.526 220.74ZM198.51 197.809C199.328 197.107 200.157 196.42 200.999 195.748L201.494 196.368C200.66 197.034 199.837 197.716 199.027 198.411L198.51 197.809ZM332.518 215.951C333.119 216.845 333.705 217.75 334.274 218.665L333.6 219.084C333.036 218.177 332.456 217.28 331.86 216.394L332.518 215.951ZM202.913 194.261C203.773 193.612 204.644 192.978 205.526 192.359L205.982 193.009C205.107 193.622 204.244 194.251 203.392 194.894L202.913 194.261ZM329.217 211.36C329.873 212.215 330.513 213.081 331.138 213.959L330.492 214.419C329.872 213.549 329.237 212.69 328.587 211.843L329.217 211.36ZM207.53 190.995C208.428 190.401 209.337 189.822 210.257 189.26L210.671 189.937C209.759 190.494 208.858 191.068 207.968 191.657L207.53 190.995ZM325.635 206.984C326.344 207.796 327.037 208.621 327.715 209.457L327.099 209.957C326.427 209.128 325.739 208.31 325.037 207.505L325.635 206.984ZM212.341 188.023C213.275 187.486 214.218 186.966 215.171 186.462L215.542 187.163C214.597 187.663 213.662 188.179 212.737 188.711L212.341 188.023ZM321.788 202.839C322.546 203.606 323.289 204.385 324.018 205.178L323.434 205.715C322.711 204.93 321.975 204.157 321.224 203.397L321.788 202.839ZM217.329 185.357C218.294 184.88 219.267 184.419 220.25 183.976L220.576 184.699C219.603 185.139 218.637 185.595 217.681 186.069L217.329 185.357ZM317.688 198.942C318.493 199.661 319.284 200.393 320.061 201.138L319.512 201.711C318.742 200.972 317.958 200.246 317.16 199.534L317.688 198.942ZM222.473 183.008C223.465 182.592 224.467 182.193 225.476 181.811L225.756 182.554C224.756 182.932 223.764 183.327 222.779 183.74L222.473 183.008ZM313.355 195.311C314.203 195.978 315.038 196.658 315.86 197.353L315.347 197.959C314.533 197.271 313.705 196.596 312.864 195.935L313.355 195.311ZM227.753 180.985C228.77 180.632 229.794 180.296 230.824 179.979L231.058 180.737C230.036 181.052 229.021 181.385 228.014 181.735L227.753 180.985ZM308.801 191.958C309.689 192.57 310.565 193.197 311.428 193.839L310.955 194.476C310.099 193.84 309.231 193.218 308.351 192.612L308.801 191.958ZM233.151 179.297C234.187 179.008 235.23 178.737 236.278 178.485L236.464 179.257C235.424 179.507 234.391 179.775 233.364 180.061L233.151 179.297ZM304.045 188.897C304.97 189.452 305.884 190.023 306.786 190.609L306.353 191.275C305.459 190.694 304.554 190.128 303.636 189.578L304.045 188.897ZM238.644 177.95C239.696 177.727 240.754 177.523 241.817 177.337L241.953 178.119C240.9 178.303 239.851 178.505 238.808 178.727L238.644 177.95ZM299.106 186.142C300.065 186.638 301.013 187.151 301.951 187.679L301.561 188.37C300.632 187.847 299.692 187.339 298.741 186.847L299.106 186.142ZM244.209 176.952C245.273 176.795 246.342 176.658 247.416 176.539L247.503 177.328C246.439 177.445 245.379 177.582 244.324 177.737L244.209 176.952ZM294.006 183.703C294.994 184.138 295.972 184.59 296.939 185.058L296.594 185.772C295.635 185.308 294.666 184.861 293.686 184.43L294.006 183.703ZM249.827 176.305C250.898 176.216 251.973 176.146 253.051 176.095L253.089 176.888C252.02 176.938 250.954 177.008 249.893 177.096L249.827 176.305ZM288.76 181.589C289.774 181.961 290.777 182.35 291.771 182.756L291.471 183.491C290.486 183.089 289.491 182.703 288.487 182.334L288.76 181.589ZM255.477 176.013C256.55 175.992 257.626 175.989 258.706 176.006L258.693 176.799C257.624 176.783 256.557 176.785 255.493 176.807L255.477 176.013ZM283.391 179.806C284.427 180.115 285.455 180.441 286.473 180.784L286.22 181.536C285.21 181.196 284.192 180.873 283.165 180.567L283.391 179.806ZM261.13 176.076C262.203 176.121 263.279 176.186 264.357 176.27L264.295 177.062C263.227 176.978 262.16 176.914 261.096 176.869L261.13 176.076ZM277.925 178.362C278.979 178.606 280.025 178.868 281.063 179.147L280.856 179.913C279.828 179.636 278.791 179.377 277.746 179.135L277.925 178.362ZM266.767 176.491C267.836 176.603 268.906 176.734 269.978 176.885L269.867 177.671C268.805 177.522 267.744 177.391 266.684 177.28L266.767 176.491ZM273.967 177.537C274.5 177.635 275.031 177.739 275.559 177.847L275.401 178.624C274.877 178.517 274.35 178.415 273.822 178.317C273.294 178.219 272.767 178.125 272.239 178.037L272.37 177.254C272.902 177.344 273.435 177.438 273.967 177.537Z" fill="white"/>
<g opacity="0.2">
<path d="M323.443 220.234C317.796 250.63 288.375 270.662 257.723 264.967C227.072 259.273 206.808 230.011 212.455 199.615C218.102 169.218 247.523 149.187 278.175 154.881C278.695 154.977 279.212 155.081 279.726 155.191L279.892 154.415C279.371 154.303 278.847 154.199 278.32 154.101C247.243 148.328 217.403 168.636 211.675 199.47C205.947 230.303 226.502 259.974 257.578 265.747C288.655 271.521 318.495 251.212 324.223 220.378L323.443 220.234Z" fill="white"/>
<path d="M324.223 220.378C324.321 219.851 324.411 219.325 324.494 218.798L323.71 218.675C323.629 219.194 323.54 219.714 323.443 220.234L324.223 220.378Z" fill="white"/>
<path d="M324.816 216.422C324.938 215.357 325.028 214.294 325.089 213.235L324.297 213.19C324.237 214.234 324.148 215.282 324.028 216.332L324.816 216.422Z" fill="white"/>
<path d="M325.175 210.839C325.19 209.768 325.175 208.701 325.13 207.64L324.337 207.674C324.382 208.72 324.397 209.771 324.381 210.827L325.175 210.839Z" fill="white"/>
<path d="M324.977 205.247C324.886 204.181 324.764 203.121 324.613 202.069L323.828 202.182C323.977 203.219 324.096 204.264 324.186 205.315L324.977 205.247Z" fill="white"/>
<path d="M324.222 199.703C324.025 198.652 323.799 197.61 323.544 196.577L322.773 196.767C323.025 197.786 323.248 198.813 323.442 199.849L324.222 199.703Z" fill="white"/>
<path d="M322.919 194.261C322.619 193.236 322.29 192.222 321.934 191.218L321.186 191.484C321.537 192.473 321.861 193.474 322.157 194.484L322.919 194.261Z" fill="white"/>
<path d="M321.083 188.976C320.683 187.986 320.256 187.009 319.802 186.045L319.085 186.383C319.532 187.334 319.953 188.297 320.347 189.273L321.083 188.976Z" fill="white"/>
<path d="M318.735 183.897C318.241 182.952 317.72 182.021 317.174 181.106L316.493 181.513C317.031 182.415 317.545 183.333 318.032 184.265L318.735 183.897Z" fill="white"/>
<path d="M315.902 179.073C315.318 178.181 314.709 177.306 314.076 176.447L313.437 176.919C314.062 177.765 314.662 178.628 315.238 179.507L315.902 179.073Z" fill="white"/>
<path d="M312.612 174.548C311.944 173.717 311.253 172.905 310.539 172.113L309.949 172.644C310.654 173.426 311.335 174.226 311.994 175.045L312.612 174.548Z" fill="white"/>
<path d="M308.897 170.364C308.152 169.603 307.385 168.862 306.597 168.142L306.062 168.728C306.839 169.438 307.596 170.169 308.33 170.919L308.897 170.364Z" fill="white"/>
<path d="M304.793 166.562C303.978 165.878 303.142 165.216 302.287 164.575L301.811 165.211C302.655 165.842 303.479 166.495 304.283 167.17L304.793 166.562Z" fill="white"/>
<path d="M300.337 163.179C299.459 162.578 298.563 162 297.649 161.447L297.238 162.125C298.139 162.671 299.023 163.241 299.888 163.834L300.337 163.179Z" fill="white"/>
<path d="M295.572 160.248C294.64 159.736 293.692 159.248 292.727 158.786L292.384 159.502C293.336 159.958 294.271 160.438 295.189 160.943L295.572 160.248Z" fill="white"/>
<path d="M290.543 157.796C289.567 157.378 288.575 156.986 287.569 156.62L287.298 157.366C288.29 157.727 289.268 158.114 290.23 158.526L290.543 157.796Z" fill="white"/>
<path d="M285.299 155.847C284.288 155.527 283.263 155.232 282.225 154.965L282.028 155.733C283.051 155.997 284.062 156.288 285.059 156.604L285.299 155.847Z" fill="white"/>
</g>
<g opacity="0.2">
<path fill-rule="evenodd" clip-rule="evenodd" d="M257.244 267.55C226.592 261.856 197.171 281.887 191.524 312.284L190.744 312.139C196.472 281.305 226.312 260.996 257.389 266.77C288.465 272.543 309.02 302.214 303.292 333.047C297.564 363.881 267.724 384.19 236.647 378.416L236.792 377.636C267.444 383.33 296.865 363.299 302.512 332.902C308.159 302.506 287.895 273.244 257.244 267.55Z" fill="white"/>
<path fill-rule="evenodd" clip-rule="evenodd" d="M190.473 313.719C190.556 313.193 190.646 312.666 190.744 312.139L191.524 312.284C191.428 312.803 191.339 313.323 191.257 313.842L190.473 313.719ZM189.878 319.282C189.939 318.223 190.029 317.16 190.151 316.095L190.939 316.185C190.82 317.235 190.73 318.283 190.67 319.327L189.878 319.282ZM189.837 324.877C189.792 323.816 189.777 322.749 189.792 321.678L190.586 321.69C190.57 322.746 190.585 323.797 190.63 324.843L189.837 324.877ZM190.354 330.448C190.203 329.396 190.081 328.336 189.99 327.27L190.781 327.203C190.871 328.253 190.99 329.298 191.139 330.335L190.354 330.448ZM191.423 335.94C191.168 334.907 190.942 333.865 190.745 332.814L191.525 332.668C191.719 333.704 191.942 334.731 192.194 335.75L191.423 335.94ZM193.033 341.299C192.677 340.295 192.348 339.281 192.048 338.256L192.81 338.033C193.106 339.043 193.43 340.044 193.781 341.033L193.033 341.299ZM195.165 346.472C194.711 345.508 194.284 344.531 193.884 343.541L194.62 343.244C195.014 344.22 195.435 345.183 195.883 346.134L195.165 346.472ZM197.793 351.411C197.247 350.496 196.726 349.565 196.232 348.62L196.935 348.252C197.422 349.184 197.936 350.102 198.474 351.004L197.793 351.411ZM200.891 356.07C200.258 355.212 199.649 354.336 199.065 353.444L199.729 353.01C200.305 353.889 200.905 354.752 201.53 355.599L200.891 356.07ZM204.428 360.405C203.714 359.612 203.023 358.8 202.355 357.97L202.973 357.472C203.632 358.291 204.314 359.092 205.018 359.873L204.428 360.405ZM208.37 364.375C207.582 363.655 206.815 362.914 206.07 362.153L206.637 361.598C207.372 362.348 208.128 363.079 208.905 363.789L208.37 364.375ZM212.68 367.942C211.825 367.302 210.989 366.639 210.174 365.955L210.685 365.347C211.488 366.022 212.312 366.675 213.156 367.306L212.68 367.942ZM217.318 371.071C216.404 370.517 215.508 369.939 214.63 369.338L215.079 368.683C215.944 369.276 216.828 369.846 217.73 370.392L217.318 371.071ZM222.24 373.731C221.275 373.269 220.327 372.781 219.395 372.269L219.778 371.574C220.696 372.079 221.631 372.559 222.583 373.015L222.24 373.731ZM227.398 375.897C226.392 375.531 225.4 375.139 224.424 374.721L224.737 373.991C225.699 374.403 226.677 374.79 227.669 375.151L227.398 375.897ZM232.742 377.552C231.704 377.285 230.679 376.99 229.668 376.67L229.908 375.913C230.905 376.23 231.916 376.52 232.94 376.784L232.742 377.552ZM236.647 378.416C236.12 378.318 235.596 378.214 235.075 378.102L235.242 377.326C235.755 377.436 236.272 377.54 236.792 377.636L236.647 378.416Z" fill="white"/>
</g>
<path d="M191.769 253.585C198.474 217.494 233.368 193.709 269.708 200.46C306.048 207.211 330.071 241.941 323.367 278.032C316.662 314.123 281.767 337.908 245.428 331.157C209.088 324.406 185.064 289.675 191.769 253.585Z" fill="#420F6C"/>
<path fill-rule="evenodd" clip-rule="evenodd" d="M288.651 249.743C289.362 250.589 289.254 251.85 288.409 252.562L246.537 287.804C245.696 288.511 244.441 288.408 243.728 287.571L222.609 262.815C221.892 261.975 221.992 260.713 222.832 259.996L227.841 255.723C228.681 255.006 229.943 255.106 230.66 255.947L244.956 272.705C245.67 273.541 246.925 273.645 247.766 272.937L281.594 244.465C282.439 243.753 283.701 243.862 284.412 244.707L288.651 249.743Z" fill="#24034F"/>
<path d="M285.321 297.337C274.009 307.719 280.164 321.971 285.493 328.099L359.557 419.014L365.057 429.513L381.057 357.014L316.952 298.614C309.402 291.791 298.072 285.636 285.321 297.337Z" fill="#24034F"/>
<path opacity="0.1" d="M602.313 717.678C602.313 717.678 480.808 600.087 462.127 586.433C443.445 572.78 315.207 542.743 294.895 537.3C274.583 531.857 215.005 453.84 208.045 443.956C203.604 437.649 203.988 436.929 205.031 433.041M372.823 454.057C372.823 454.057 325.695 480.825 316.058 478.243C308.123 476.117 291.024 460.844 279.559 447.478" stroke="white"/>
<path opacity="0.1" d="M372.724 454.425L357.044 484.869" stroke="white"/>
<path opacity="0.1" d="M379.32 481.001C375.803 465.414 368.378 430.485 358.443 418.028C348.508 405.57 306.45 352.718 285.496 328.617C280.167 322.487 274.011 308.229 285.327 297.841C298.081 286.134 309.414 292.291 316.965 299.117L400.963 374.548C404.633 377.844 408.85 380.47 413.385 382.411C437.406 392.695 478.446 412.33 493.267 427.264C540.222 474.578 534.533 514.719 587.225 561.198L663.606 635.75" stroke="white"/>
<path opacity="0.1" d="M385.573 360.664C394.952 352.875 403.354 344.236 405.479 340.388C410.392 331.491 410.178 322.343 407.291 314.362C404.434 306.463 394.483 305.631 387.851 310.787V310.787" stroke="white"/>
<path opacity="0.1" d="M410.009 380.871C411.054 379.791 411.884 378.88 412.469 378.194C417.281 372.542 419.215 365.882 419.346 359.7C419.602 347.653 405.968 345.755 396.187 352.793C392.653 355.335 389.011 357.98 385.415 360.621" stroke="white"/>
<path opacity="0.1" d="M126.733 385.456C124.199 385.009 122.506 382.594 122.953 380.061C123.399 377.529 125.816 375.839 128.35 376.285C130.885 376.732 132.577 379.147 132.131 381.68C131.684 384.212 129.268 385.903 126.733 385.456Z" stroke="white" stroke-miterlimit="10"/>
<path opacity="0.3" d="M463.942 512.293L642.54 691.187M463.942 512.293L306.196 510.197L240.613 439.222M463.942 512.293L440.711 424.996L345.322 364.175" stroke="#872AB0" stroke-width="5"/>
<path d="M303.076 508.4C303.992 506.813 306.022 506.269 307.609 507.186C309.196 508.102 309.74 510.132 308.824 511.719C307.907 513.306 305.878 513.85 304.291 512.933C302.703 512.017 302.16 509.987 303.076 508.4Z" fill="#5F0E8E"/>
<path d="M437.114 423.225C438.03 421.638 440.06 421.094 441.647 422.01C443.234 422.927 443.778 424.956 442.862 426.544C441.946 428.131 439.916 428.675 438.329 427.758C436.741 426.842 436.198 424.812 437.114 423.225Z" fill="#5F0E8E"/>
<path fill-rule="evenodd" clip-rule="evenodd" d="M446.022 527.646L457.169 511.589L448.995 493.833L465.052 504.98L482.808 496.805L471.661 512.863L479.836 530.619L463.778 519.472L446.022 527.646ZM466.279 494.781L465.784 500.417L465.131 500.359L465.626 494.724L466.279 494.781ZM466.363 493.842L466.528 491.963L465.876 491.906L465.71 493.785L466.363 493.842ZM466.773 489.148L466.608 491.026L465.955 490.969L466.121 489.09L466.773 489.148ZM463.653 524.652L463.158 530.288L462.505 530.231L463.001 524.595L463.653 524.652ZM462.909 533.105L463.074 531.226L462.421 531.169L462.256 533.048L462.909 533.105ZM462.825 534.046L462.66 535.925L462.007 535.867L462.172 533.989L462.825 534.046ZM446.409 510.317L452.045 510.812L451.988 511.465L446.352 510.97L446.409 510.317ZM445.468 510.234L443.589 510.069L443.532 510.721L445.411 510.886L445.468 510.234ZM440.776 509.818L442.654 509.983L442.597 510.636L440.718 510.47L440.776 509.818ZM476.275 512.943L481.911 513.438L481.854 514.091L476.218 513.596L476.275 512.943ZM484.735 513.686L482.857 513.521L482.799 514.174L484.678 514.339L484.735 513.686ZM485.673 513.768L487.551 513.934L487.494 514.586L485.616 514.421L485.673 513.768Z" fill="#5F0E8E"/>
<path fill-rule="evenodd" clip-rule="evenodd" d="M343.618 371.306L344.634 364.864L339.6 360.719L346.042 361.735L350.187 356.7L349.172 363.142L354.206 367.288L347.764 366.272L343.618 371.306ZM344.929 358.497L345.599 360.261L345.394 360.339L344.724 358.574L344.929 358.497ZM344.818 358.2L344.595 357.612L344.39 357.689L344.614 358.277L344.818 358.2ZM344.26 356.731L344.483 357.319L344.278 357.396L344.055 356.808L344.26 356.731ZM348.479 367.849L349.148 369.613L348.944 369.691L348.274 367.926L348.479 367.849ZM349.483 370.496L349.259 369.908L349.055 369.985L349.278 370.574L349.483 370.496ZM349.594 370.792L349.817 371.38L349.613 371.457L349.389 370.869L349.594 370.792ZM341.218 366.046L342.983 365.377L343.06 365.581L341.296 366.251L341.218 366.046ZM340.923 366.159L340.335 366.382L340.412 366.587L341.001 366.363L340.923 366.159ZM339.454 366.715L340.042 366.491L340.119 366.696L339.531 366.919L339.454 366.715ZM350.569 362.496L352.334 361.827L352.411 362.031L350.647 362.701L350.569 362.496ZM353.218 361.492L352.63 361.715L352.707 361.92L353.295 361.697L353.218 361.492ZM353.512 361.379L354.1 361.156L354.177 361.36L353.589 361.584L353.512 361.379Z" fill="#5F0E8E"/>
<path fill-rule="evenodd" clip-rule="evenodd" d="M252.541 451.673L239.998 444.637L227.568 451.872L234.604 439.329L227.369 426.899L239.912 433.934L252.342 426.7L245.307 439.243L252.541 451.673ZM227.049 439.147L231.211 439.114L231.215 439.596L227.053 439.629L227.049 439.147ZM226.354 439.151L224.967 439.162L224.971 439.644L226.358 439.633L226.354 439.151ZM222.888 439.181L224.275 439.17L224.279 439.652L222.892 439.663L222.888 439.181ZM249.111 438.971L253.273 438.938L253.277 439.42L249.115 439.453L249.111 438.971ZM255.353 438.922L253.965 438.933L253.969 439.415L255.356 439.404L255.353 438.922ZM256.048 438.917L257.435 438.906L257.439 439.388L256.051 439.399L256.048 438.917ZM239.821 452.606L239.788 448.443L240.27 448.44L240.303 452.602L239.821 452.606ZM239.826 453.301L239.837 454.689L240.319 454.685L240.308 453.298L239.826 453.301ZM239.851 456.767L239.84 455.379L240.322 455.375L240.333 456.763L239.851 456.767ZM239.646 430.548L239.612 426.386L240.095 426.382L240.128 430.544L239.646 430.548ZM239.597 424.301L239.608 425.689L240.09 425.685L240.079 424.297L239.597 424.301ZM239.592 423.609L239.581 422.221L240.063 422.217L240.074 423.605L239.592 423.609Z" fill="#5F0E8E"/>
<g opacity="0.2">
<path d="M512.643 8.71875L512.612 1.8761L506.701 -1.57161L513.544 -1.60207L516.992 -7.51275L517.022 -0.670099L522.933 2.77761L516.09 2.80808L512.643 8.71875Z" fill="white"/>
<path fill-rule="evenodd" clip-rule="evenodd" d="M512.612 1.8761L512.643 8.71875L516.09 2.80808L522.933 2.77761L517.022 -0.670099L516.992 -7.51275L513.544 -1.60207L506.701 -1.57161L512.612 1.8761ZM508.786 -1.01313L513.178 1.54915L513.201 6.6345L515.763 2.24178L520.849 2.21914L516.456 -0.343147L516.433 -5.4285L513.871 -1.03578L508.786 -1.01313Z" fill="white"/>
<path fill-rule="evenodd" clip-rule="evenodd" d="M518.231 5.94791L517.241 4.23285L516.749 4.51672L517.739 6.23178L518.231 5.94791Z" fill="white"/>
<path fill-rule="evenodd" clip-rule="evenodd" d="M518.727 6.80496L518.396 6.23328L517.905 6.51715L518.235 7.08884L518.727 6.80496Z" fill="white"/>
<path fill-rule="evenodd" clip-rule="evenodd" d="M519.223 7.66324L518.893 7.09155L518.401 7.37543L518.731 7.94711L519.223 7.66324Z" fill="white"/>
<path fill-rule="evenodd" clip-rule="evenodd" d="M509.189 3.52652L510.904 2.53633L511.188 3.02802L509.472 4.01821L509.189 3.52652Z" fill="white"/>
<path fill-rule="evenodd" clip-rule="evenodd" d="M508.329 4.01984L508.901 3.68977L509.185 4.18146L508.613 4.51152L508.329 4.01984Z" fill="white"/>
<path fill-rule="evenodd" clip-rule="evenodd" d="M507.472 4.5155L508.044 4.18544L508.328 4.67712L507.756 5.00719L507.472 4.5155Z" fill="white"/>
</g>
<g opacity="0.2">
<path d="M75.6079 59.1265L75.5761 51.9854L69.4077 48.3874L76.5487 48.3556L80.1468 42.1871L80.1786 49.3282L86.347 52.9262L79.206 52.958L75.6079 59.1265Z" fill="white"/>
<path fill-rule="evenodd" clip-rule="evenodd" d="M75.5761 51.9854L75.6079 59.1265L79.206 52.958L86.347 52.9262L80.1786 49.3282L80.1468 42.1871L76.5487 48.3556L69.4077 48.3874L75.5761 51.9854ZM71.5828 48.9702L76.1671 51.6442L76.1907 56.9513L78.8648 52.367L84.1719 52.3434L79.5876 49.6694L79.564 44.3623L76.8899 48.9466L71.5828 48.9702Z" fill="white"/>
<path fill-rule="evenodd" clip-rule="evenodd" d="M74.9304 44.9591L75.9638 46.749L75.4507 47.0452L74.4173 45.2554L74.9304 44.9591Z" fill="white"/>
<path fill-rule="evenodd" clip-rule="evenodd" d="M74.4138 44.0658L74.7582 44.6624L74.2451 44.9587L73.9007 44.3621L74.4138 44.0658Z" fill="white"/>
<path fill-rule="evenodd" clip-rule="evenodd" d="M73.8967 43.17L74.2412 43.7666L73.728 44.0629L73.3836 43.4662L73.8967 43.17Z" fill="white"/>
<path fill-rule="evenodd" clip-rule="evenodd" d="M81.4396 56.2347L80.4062 54.4448L79.8931 54.7411L80.9264 56.5309L81.4396 56.2347Z" fill="white"/>
<path fill-rule="evenodd" clip-rule="evenodd" d="M81.9567 57.1286L81.6122 56.532L81.0991 56.8282L81.4436 57.4249L81.9567 57.1286Z" fill="white"/>
<path fill-rule="evenodd" clip-rule="evenodd" d="M82.4748 58.0245L82.1303 57.4279L81.6172 57.7241L81.9616 58.3207L82.4748 58.0245Z" fill="white"/>
<path fill-rule="evenodd" clip-rule="evenodd" d="M72.0033 53.7069L73.7931 52.6735L74.0894 53.1866L72.2995 54.22L72.0033 53.7069Z" fill="white"/>
<path fill-rule="evenodd" clip-rule="evenodd" d="M71.1066 54.2218L71.7033 53.8774L71.9995 54.3905L71.4029 54.735L71.1066 54.2218Z" fill="white"/>
<path fill-rule="evenodd" clip-rule="evenodd" d="M70.2121 54.7396L70.8087 54.3951L71.105 54.9083L70.5084 55.2527L70.2121 54.7396Z" fill="white"/>
<path fill-rule="evenodd" clip-rule="evenodd" d="M83.2792 47.1977L81.4894 48.2311L81.7856 48.7442L83.5755 47.7108L83.2792 47.1977Z" fill="white"/>
<path fill-rule="evenodd" clip-rule="evenodd" d="M84.1744 46.6809L83.5778 47.0254L83.874 47.5385L84.4706 47.1941L84.1744 46.6809Z" fill="white"/>
<path fill-rule="evenodd" clip-rule="evenodd" d="M85.0689 46.1632L84.4723 46.5077L84.7686 47.0208L85.3652 46.6764L85.0689 46.1632Z" fill="white"/>
</g>
<path d="M69.6559 296.15C69.9851 294.921 71.2481 294.192 72.4768 294.521C73.7055 294.85 74.4346 296.113 74.1054 297.342C73.7762 298.571 72.5132 299.3 71.2845 298.971C70.0558 298.641 69.3267 297.379 69.6559 296.15Z" fill="white"/>
<path d="M102.52 156.78C102.784 155.797 103.794 155.213 104.777 155.477C105.76 155.74 106.343 156.75 106.08 157.733C105.817 158.716 104.806 159.3 103.823 159.036C102.84 158.773 102.257 157.763 102.52 156.78Z" fill="white"/>
<path fill-rule="evenodd" clip-rule="evenodd" d="M312.628 47.4244C311.687 47.1722 310.72 47.7306 310.468 48.6716C310.216 49.6126 310.774 50.5798 311.715 50.8319C312.656 51.084 313.623 50.5256 313.875 49.5847C314.128 48.6437 313.569 47.6765 312.628 47.4244ZM312.887 46.4584C311.413 46.0634 309.897 46.9384 309.502 48.4128C309.107 49.8872 309.982 51.4028 311.456 51.7978C312.931 52.1929 314.446 51.3179 314.841 49.8435C315.236 48.3691 314.361 46.8535 312.887 46.4584Z" fill="white"/>
<path opacity="0.2" fill-rule="evenodd" clip-rule="evenodd" d="M508.628 327.424C507.687 327.172 506.72 327.731 506.468 328.672C506.216 329.613 506.774 330.58 507.715 330.832C508.656 331.084 509.623 330.526 509.875 329.585C510.128 328.644 509.569 327.676 508.628 327.424ZM508.887 326.458C507.413 326.063 505.897 326.938 505.502 328.413C505.107 329.887 505.982 331.403 507.456 331.798C508.931 332.193 510.446 331.318 510.841 329.843C511.236 328.369 510.361 326.854 508.887 326.458Z" fill="white"/>
<path fill-rule="evenodd" clip-rule="evenodd" d="M183.628 378.424C182.687 378.172 181.72 378.731 181.468 379.672C181.216 380.613 181.774 381.58 182.715 381.832C183.656 382.084 184.623 381.526 184.875 380.585C185.128 379.644 184.569 378.676 183.628 378.424ZM183.887 377.458C182.413 377.063 180.897 377.938 180.502 379.413C180.107 380.887 180.982 382.403 182.456 382.798C183.931 383.193 185.446 382.318 185.841 380.843C186.236 379.369 185.361 377.854 183.887 377.458Z" fill="white"/>
</svg>
