<svg width="100%" height="100%" viewBox="0 0 794 462" fill="none" xmlns="http://www.w3.org/2000/svg">
<g opacity="0.2">
<path opacity="0.1" d="M369.37 379.097C368.052 379.097 366.985 378.029 366.985 376.712C366.985 375.395 368.052 374.327 369.37 374.327C370.687 374.327 371.754 375.395 371.754 376.712C371.754 378.029 370.687 379.097 369.37 379.097Z" fill="#23024D"/>
<path opacity="0.1" d="M400.361 47.0413C399.044 47.0413 397.976 45.9735 397.976 44.6564C397.976 43.3392 399.044 42.2715 400.361 42.2715C401.678 42.2715 402.746 43.3392 402.746 44.6564C402.746 45.9735 401.678 47.0413 400.361 47.0413Z" fill="#23024D"/>
<path opacity="0.1" d="M791.244 12.0959C789.927 12.0959 788.859 11.0282 788.859 9.71106C788.859 8.39392 789.927 7.32617 791.244 7.32617C792.561 7.32617 793.629 8.39392 793.629 9.71106C793.629 11.0282 792.561 12.0959 791.244 12.0959Z" fill="#23024D"/>
<path d="M261.041 92.5872C259.394 92.5872 258.06 91.2525 258.06 89.6061C258.06 87.9597 259.394 86.625 261.041 86.625C262.687 86.625 264.022 87.9597 264.022 89.6061C264.022 91.2525 262.687 92.5872 261.041 92.5872Z" fill="#23024D"/>
<path d="M322.267 308.743C320.621 308.743 319.286 307.409 319.286 305.762C319.286 304.116 320.621 302.781 322.267 302.781C323.914 302.781 325.248 304.116 325.248 305.762C325.248 307.409 323.914 308.743 322.267 308.743Z" fill="#23024D"/>
<path fill-rule="evenodd" clip-rule="evenodd" d="M180.314 135.244C180.314 133.955 179.269 132.911 177.98 132.911C176.691 132.911 175.646 133.955 175.646 135.244C175.646 136.533 176.691 137.578 177.98 137.578C179.269 137.578 180.314 136.533 180.314 135.244ZM177.98 131.616C179.984 131.616 181.608 133.241 181.608 135.244C181.608 137.248 179.984 138.873 177.98 138.873C175.976 138.873 174.352 137.248 174.352 135.244C174.352 133.241 175.976 131.616 177.98 131.616Z" fill="#23024D"/>
<path fill-rule="evenodd" clip-rule="evenodd" d="M235.917 135.839C235.917 137.1 236.939 138.122 238.2 138.122C239.461 138.122 240.483 137.1 240.483 135.839C240.483 134.578 239.461 133.556 238.2 133.556C236.939 133.556 235.917 134.578 235.917 135.839ZM234.623 135.839C234.623 137.815 236.224 139.416 238.2 139.416C240.176 139.416 241.777 137.815 241.777 135.839C241.777 133.863 240.176 132.262 238.2 132.262C236.224 132.262 234.623 133.863 234.623 135.839Z" fill="#23024D"/>
<path fill-rule="evenodd" clip-rule="evenodd" d="M523.729 268.471C523.729 269.732 524.751 270.754 526.012 270.754C527.273 270.754 528.295 269.732 528.295 268.471C528.295 267.21 527.273 266.188 526.012 266.188C524.751 266.188 523.729 267.21 523.729 268.471ZM522.434 268.471C522.434 270.447 524.036 272.048 526.012 272.048C527.987 272.048 529.589 270.447 529.589 268.471C529.589 266.495 527.987 264.894 526.012 264.894C524.036 264.894 522.434 266.495 522.434 268.471Z" fill="#23024D"/>
<path fill-rule="evenodd" clip-rule="evenodd" d="M483.605 73.0295C483.605 74.2903 484.627 75.3125 485.888 75.3125C487.149 75.3125 488.171 74.2903 488.171 73.0295C488.171 71.7686 487.149 70.7465 485.888 70.7465C484.627 70.7465 483.605 71.7686 483.605 73.0295ZM482.311 73.0295C482.311 75.0052 483.913 76.6068 485.888 76.6068C487.864 76.6068 489.466 75.0052 489.466 73.0295C489.466 71.0538 487.864 69.4521 485.888 69.4521C483.913 69.4521 482.311 71.0538 482.311 73.0295Z" fill="#23024D"/>
<path fill-rule="evenodd" clip-rule="evenodd" d="M376.175 422.495C376.175 423.756 377.197 424.778 378.458 424.778C379.719 424.778 380.741 423.756 380.741 422.495C380.741 421.234 379.719 420.212 378.458 420.212C377.197 420.212 376.175 421.234 376.175 422.495ZM374.881 422.495C374.881 424.471 376.483 426.073 378.458 426.073C380.434 426.073 382.036 424.471 382.036 422.495C382.036 420.52 380.434 418.918 378.458 418.918C376.483 418.918 374.881 420.52 374.881 422.495Z" fill="#23024D"/>
<path d="M465.955 250.313C463.98 250.313 462.378 248.711 462.378 246.736C462.378 244.76 463.98 243.158 465.955 243.158C467.931 243.158 469.533 244.76 469.533 246.736C469.533 248.711 467.931 250.313 465.955 250.313Z" fill="#23024D"/>
<path fill-rule="evenodd" clip-rule="evenodd" d="M463.672 246.736C463.672 247.996 464.695 249.019 465.955 249.019C467.216 249.019 468.238 247.996 468.238 246.736C468.238 245.475 467.216 244.453 465.955 244.453C464.695 244.453 463.672 245.475 463.672 246.736ZM462.378 246.736C462.378 248.711 463.98 250.313 465.955 250.313C467.931 250.313 469.533 248.711 469.533 246.736C469.533 244.76 467.931 243.158 465.955 243.158C463.98 243.158 462.378 244.76 462.378 246.736Z" fill="#1127E9"/>
<path d="M547.787 201.258L504.074 212.971L504.358 214.029L548.071 202.316L547.787 201.258Z" fill="#23024D"/>
<path d="M543.565 154.284L536.749 158.219L537.297 159.168L544.113 155.232L543.565 154.284Z" fill="#23024D"/>
<path d="M323.537 350.791L319.602 357.607L320.551 358.155L324.486 351.339L323.537 350.791Z" fill="#23024D"/>
<path d="M316.323 363.289L306.157 380.897L307.106 381.445L317.272 363.837L316.323 363.289Z" fill="#23024D"/>
<path d="M292.384 404.753L302.55 387.145L303.499 387.693L293.333 405.301L292.384 404.753Z" fill="#23024D"/>
<path d="M513.461 171.661L531.069 161.495L531.617 162.444L514.009 172.61L513.461 171.661Z" fill="#23024D"/>
<path d="M507.213 175.272L489.605 185.438L490.152 186.387L507.76 176.221L507.213 175.272Z" fill="#23024D"/>
<path d="M419.289 123.633L417.931 128.701L418.989 128.985L420.347 123.917L419.289 123.633Z" fill="#23024D"/>
<path d="M420.478 119.2L424.042 105.896L425.101 106.18L421.536 119.484L420.478 119.2Z" fill="#23024D"/>
<path d="M428.795 88.156L425.23 101.46L426.289 101.744L429.853 88.4396L428.795 88.156Z" fill="#23024D"/>
<path d="M246.488 325.57L251.032 322.946L251.579 323.895L247.035 326.519L246.488 325.57Z" fill="#23024D"/>
<path d="M266.936 313.763L255.008 320.65L255.556 321.599L267.484 314.712L266.936 313.763Z" fill="#23024D"/>
<path d="M270.912 311.468L282.84 304.581L283.388 305.53L271.46 312.416L270.912 311.468Z" fill="#23024D"/>
<path d="M460.605 113.812L470.771 96.2043L471.72 96.7521L461.554 114.36L460.605 113.812Z" fill="#23024D"/>
<path d="M456.997 120.059L446.831 137.667L447.78 138.215L457.946 120.607L456.997 120.059Z" fill="#23024D"/>
<path d="M285.731 345.629L300.108 331.252L300.883 332.027L286.506 346.404L285.731 345.629Z" fill="#23024D"/>
<path d="M280.629 350.732L266.252 365.109L267.027 365.884L281.404 351.507L280.629 350.732Z" fill="#23024D"/>
<path d="M482.402 148.959L474.982 156.379L475.757 157.154L483.177 149.734L482.402 148.959Z" fill="#23024D"/>
<path d="M488.895 142.463L508.837 122.521L509.612 123.296L489.669 143.238L488.895 142.463Z" fill="#23024D"/>
<path d="M531.617 100.085L515.794 115.57L516.568 116.344L532.391 100.86L531.617 100.085Z" fill="#23024D"/>
<path d="M190.39 296.943L200.527 294.227L200.81 295.286L190.674 298.002L190.39 296.943Z" fill="#23024D"/>
<path d="M236.637 284.554L209.396 291.854L209.68 292.912L236.921 285.613L236.637 284.554Z" fill="#23024D"/>
<path d="M246.14 282.009L272.748 274.879L273.031 275.938L246.423 283.067L246.14 282.009Z" fill="#23024D"/>
<path d="M343.467 404.862L355.179 361.149L356.238 361.433L344.525 405.146L343.467 404.862Z" fill="#23024D"/>
<path d="M319.6 133.666L323.535 140.482L324.484 139.934L320.549 133.118L319.6 133.666Z" fill="#23024D"/>
<path d="M316.324 127.983L306.158 110.375L307.107 109.828L317.273 127.436L316.324 127.983Z" fill="#23024D"/>
<path d="M292.384 86.5205L302.55 104.128L303.499 103.581L293.333 85.9726L292.384 86.5205Z" fill="#23024D"/>
<path d="M543.565 336.99L536.749 333.055L537.297 332.106L544.113 336.041L543.565 336.99Z" fill="#23024D"/>
<path d="M513.461 319.608L531.069 329.774L531.617 328.825L514.009 318.659L513.461 319.608Z" fill="#23024D"/>
<path d="M507.213 316.003L489.605 305.837L490.152 304.888L507.76 315.054L507.213 316.003Z" fill="#23024D"/>
<path d="M419.289 367.641L417.931 362.572L418.989 362.289L420.347 367.357L419.289 367.641Z" fill="#23024D"/>
<path d="M420.478 372.073L424.042 385.377L425.101 385.093L421.536 371.789L420.478 372.073Z" fill="#23024D"/>
<path d="M428.795 403.118L425.23 389.814L426.289 389.53L429.853 402.834L428.795 403.118Z" fill="#23024D"/>
<path d="M246.488 165.703L251.032 168.326L251.579 167.378L247.035 164.754L246.488 165.703Z" fill="#23024D"/>
<path d="M266.936 177.509L255.008 170.623L255.556 169.674L267.484 176.56L266.936 177.509Z" fill="#23024D"/>
<path d="M270.912 179.805L282.84 186.692L283.388 185.743L271.46 178.856L270.912 179.805Z" fill="#23024D"/>
<path d="M460.604 377.458L470.77 395.066L471.719 394.518L461.553 376.91L460.604 377.458Z" fill="#23024D"/>
<path d="M456.997 371.212L446.831 353.604L447.78 353.057L457.946 370.665L456.997 371.212Z" fill="#23024D"/>
<path d="M285.731 145.642L300.108 160.018L300.883 159.244L286.506 144.867L285.731 145.642Z" fill="#23024D"/>
<path d="M280.63 140.538L266.253 126.161L267.028 125.386L281.405 139.763L280.63 140.538Z" fill="#23024D"/>
<path d="M482.402 342.31L474.982 334.89L475.757 334.115L483.177 341.536L482.402 342.31Z" fill="#23024D"/>
<path d="M488.895 348.806L508.837 368.748L509.612 367.974L489.669 348.031L488.895 348.806Z" fill="#23024D"/>
<path d="M528.251 388.387L515.794 375.7L516.568 374.925L529.026 387.613L528.251 388.387Z" fill="#23024D"/>
<path d="M190.39 194.33L200.527 197.046L200.81 195.988L190.674 193.272L190.39 194.33Z" fill="#23024D"/>
<path d="M236.637 206.719L209.396 199.42L209.68 198.362L236.921 205.661L236.637 206.719Z" fill="#23024D"/>
<path d="M246.14 209.265L272.748 216.395L273.031 215.336L246.423 208.207L246.14 209.265Z" fill="#23024D"/>
<path d="M343.467 86.4115L355.179 130.125L356.238 129.841L344.525 86.1279L343.467 86.4115Z" fill="#23024D"/>
<path d="M547.787 290.013L504.074 278.301L504.358 277.242L548.071 288.955L547.787 290.013Z" fill="#23024D"/>
<path d="M390.426 -31.9626L390.426 -42L391.521 -42L391.521 -31.9626L390.426 -31.9626Z" fill="#000636"/>
<path d="M390.426 14.2088L390.426 -21.926L391.521 -21.926L391.521 14.2088L390.426 14.2088Z" fill="#000636"/>
<path d="M390.426 450.838L390.426 26.2545L391.521 26.2545L391.521 450.838L390.426 450.838Z" fill="#000636"/>
<path d="M390.426 510.06L390.426 473.925L391.521 473.925L391.521 510.06L390.426 510.06Z" fill="#000636"/>
<path d="M390.426 530.134L390.426 520.096L391.521 520.096L391.521 530.134L390.426 530.134Z" fill="#000636"/>
<path d="M705 241L693.228 241L693.228 240L705 240L705 241Z" fill="#000636"/>
<path d="M681.456 241L639.077 241L639.077 240L681.456 240L681.456 241Z" fill="#000636"/>
<path d="M612.001 241L114.049 241L114.049 240L612.001 240L612.001 241Z" fill="#000636"/>
<path d="M99.9227 241L57.5438 241L57.5438 240L99.9227 240L99.9227 241Z" fill="#000636"/>
<path d="M45.772 241L34 241L34 240L45.772 240L45.772 241Z" fill="#000636"/>
<path fill-rule="evenodd" clip-rule="evenodd" d="M513.017 238.027C513.03 238.772 513.036 239.518 513.036 240.266C513.036 241.014 513.03 241.761 513.017 242.506L511.921 242.486C511.934 241.748 511.94 241.008 511.94 240.266C511.94 239.525 511.934 238.785 511.921 238.046L513.017 238.027ZM512.914 245.846C512.849 247.339 512.757 248.825 512.64 250.304L511.547 250.217C511.664 248.751 511.755 247.278 511.819 245.798L512.914 245.846ZM512.64 230.229C512.757 231.708 512.849 233.194 512.914 234.686L511.819 234.734C511.755 233.254 511.664 231.781 511.547 230.315L512.64 230.229ZM512.331 253.631C512.174 255.116 511.99 256.593 511.781 258.061L510.697 257.907C510.904 256.451 511.086 254.987 511.242 253.516L512.331 253.631ZM511.781 222.472C511.99 223.94 512.174 225.417 512.331 226.902L511.242 227.017C511.086 225.546 510.904 224.082 510.697 222.626L511.781 222.472ZM511.265 261.37C511.016 262.839 510.741 264.299 510.441 265.751L509.368 265.529C509.665 264.09 509.938 262.643 510.185 261.186L511.265 261.37ZM510.441 214.782C510.741 216.233 511.016 217.694 511.265 219.163L510.185 219.347C509.938 217.89 509.665 216.443 509.368 215.004L510.441 214.782ZM508.619 207.186C509.011 208.617 509.377 210.059 509.718 211.51L508.652 211.761C508.313 210.322 507.95 208.894 507.563 207.475L508.619 207.186ZM509.718 269.023C509.377 270.474 509.011 271.915 508.619 273.347L507.563 273.058C507.95 271.639 508.313 270.21 508.652 268.772L509.718 269.023ZM506.325 199.723C506.806 201.128 507.262 202.544 507.694 203.972L506.645 204.289C506.218 202.874 505.765 201.47 505.288 200.077L506.325 199.723ZM507.694 276.561C507.262 277.988 506.806 279.405 506.325 280.81L505.288 280.455C505.765 279.063 506.218 277.659 506.645 276.244L507.694 276.561ZM503.567 192.42C504.135 193.792 504.679 195.177 505.199 196.573L504.173 196.955C503.657 195.571 503.117 194.199 502.554 192.839L503.567 192.42ZM505.199 283.96C504.679 285.356 504.135 286.741 503.566 288.113L502.554 287.693C503.117 286.333 503.657 284.961 504.173 283.577L505.199 283.96ZM500.354 185.303C501.007 186.637 501.637 187.984 502.244 189.344L501.243 189.79C500.642 188.442 500.017 187.107 499.37 185.785L500.354 185.303ZM502.244 291.189C501.637 292.549 501.007 293.896 500.354 295.229L499.37 294.747C500.017 293.426 500.642 292.09 501.243 290.742L502.244 291.189ZM496.7 178.402C497.436 179.693 498.15 180.998 498.841 182.317L497.87 182.826C497.185 181.518 496.478 180.224 495.748 178.945L496.7 178.402ZM498.841 298.215C498.15 299.535 497.436 300.84 496.7 302.131L495.748 301.588C496.478 300.309 497.185 299.015 497.87 297.707L498.841 298.215ZM492.622 171.744C493.438 172.987 494.232 174.245 495.004 175.519L494.067 176.087C493.302 174.824 492.515 173.577 491.706 172.345L492.622 171.744ZM495.004 305.014C494.232 306.288 493.438 307.546 492.622 308.789L491.706 308.188C492.515 306.956 493.302 305.708 494.067 304.446L495.004 305.014ZM488.136 165.354C489.028 166.543 489.899 167.749 490.748 168.971L489.849 169.596C489.007 168.385 488.143 167.19 487.26 166.011L488.136 165.354ZM490.748 311.562C489.899 312.784 489.028 313.99 488.136 315.179L487.26 314.522C488.143 313.343 489.007 312.148 489.849 310.936L490.748 311.562ZM483.26 159.256C484.224 160.387 485.168 161.537 486.093 162.703L485.234 163.383C484.318 162.227 483.382 161.088 482.426 159.966L483.26 159.256ZM486.093 317.83C485.168 318.996 484.224 320.145 483.259 321.277L482.426 320.566C483.382 319.445 484.318 318.306 485.234 317.149L486.093 317.83ZM478.012 153.474C479.046 154.544 480.06 155.632 481.055 156.738L480.241 157.471C479.254 156.374 478.249 155.296 477.224 154.235L478.012 153.474ZM481.055 323.795C480.06 324.901 479.046 325.989 478.012 327.059L477.224 326.298C478.249 325.237 479.254 324.159 480.241 323.062L481.055 323.795ZM472.414 148.031C473.513 149.034 474.593 150.057 475.655 151.099L474.888 151.881C473.835 150.848 472.764 149.834 471.675 148.84L472.414 148.031ZM475.655 329.434C474.593 330.476 473.513 331.499 472.414 332.502L471.675 331.693C472.764 330.699 473.835 329.685 474.888 328.652L475.655 329.434ZM466.487 142.948C467.647 143.881 468.789 144.834 469.913 145.807L469.196 146.636C468.082 145.671 466.95 144.726 465.801 143.802L466.487 142.948ZM469.913 334.725C468.789 335.699 467.647 336.652 466.487 337.585L465.801 336.731C466.95 335.806 468.082 334.862 469.196 333.897L469.913 334.725ZM460.254 138.247C461.469 139.105 462.669 139.985 463.852 140.885L463.188 141.757C462.016 140.864 460.827 139.992 459.622 139.142L460.254 138.247ZM463.852 339.648C462.669 340.548 461.469 341.428 460.254 342.286L459.622 341.391C460.827 340.541 462.016 339.669 463.188 338.776L463.852 339.648ZM453.736 133.945C455.004 134.726 456.257 135.528 457.494 136.353L456.886 137.265C455.66 136.447 454.418 135.652 453.162 134.878L453.736 133.945ZM457.494 344.18C456.257 345.004 455.004 345.807 453.736 346.588L453.162 345.655C454.418 344.881 455.66 344.085 456.886 343.268L457.494 344.18ZM446.962 130.063C448.277 130.763 449.578 131.485 450.864 132.23L450.315 133.178C449.04 132.44 447.751 131.724 446.448 131.031L446.962 130.063ZM450.864 348.303C449.578 349.048 448.277 349.77 446.962 350.469L446.448 349.502C447.751 348.809 449.04 348.093 450.315 347.355L450.864 348.303ZM439.956 126.618C441.313 127.232 442.656 127.871 443.986 128.532L443.498 129.513C442.18 128.857 440.848 128.225 439.504 127.616L439.956 126.618ZM443.986 352.001C442.656 352.662 441.312 353.3 439.956 353.915L439.504 352.917C440.848 352.308 442.18 351.675 443.498 351.02L443.986 352.001ZM432.744 123.623C434.137 124.15 435.518 124.702 436.887 125.278L436.462 126.288C435.106 125.717 433.737 125.17 432.356 124.648L432.744 123.623ZM436.887 355.255C435.518 355.831 434.137 356.383 432.744 356.91L432.356 355.885C433.737 355.362 435.106 354.816 436.462 354.245L436.887 355.255ZM425.355 121.093C426.781 121.531 428.195 121.994 429.599 122.482L429.239 123.517C427.848 123.034 426.446 122.575 425.034 122.141L425.355 121.093ZM429.599 358.051C428.195 358.539 426.781 359.002 425.355 359.439L425.034 358.392C426.446 357.958 427.848 357.499 429.239 357.016L429.599 358.051ZM417.825 119.04C419.275 119.386 420.715 119.758 422.145 120.155L421.852 121.211C420.435 120.817 419.007 120.449 417.57 120.106L417.825 119.04ZM422.145 360.378C420.715 360.775 419.275 361.146 417.825 361.493L417.57 360.427C419.007 360.084 420.435 359.715 421.852 359.322L422.145 360.378ZM410.176 117.47C411.645 117.723 413.105 118.002 414.555 118.307L414.33 119.379C412.893 119.077 411.446 118.801 409.99 118.55L410.176 117.47ZM414.555 362.226C413.105 362.531 411.645 362.81 410.176 363.063L409.99 361.983C411.446 361.732 412.892 361.456 414.33 361.154L414.555 362.226ZM402.44 116.388C403.924 116.548 405.4 116.734 406.868 116.946L406.712 118.03C405.257 117.82 403.793 117.636 402.322 117.477L402.44 116.388ZM406.868 363.587C405.4 363.799 403.924 363.985 402.44 364.145L402.322 363.056C403.793 362.897 405.257 362.713 406.712 362.502L406.868 363.587ZM394.655 115.796C396.148 115.862 397.634 115.955 399.112 116.074L399.024 117.167C397.559 117.049 396.086 116.956 394.606 116.89L394.655 115.796ZM399.112 364.458C397.634 364.577 396.148 364.67 394.655 364.737L394.606 363.642C396.086 363.576 397.559 363.484 399.024 363.366L399.112 364.458ZM389.075 115.672C389.823 115.672 390.569 115.679 391.314 115.692L391.294 116.787C390.556 116.774 389.816 116.768 389.075 116.768C388.333 116.768 387.593 116.774 386.855 116.787L386.835 115.692C387.58 115.679 388.326 115.672 389.075 115.672ZM391.314 364.841C390.569 364.854 389.822 364.861 389.074 364.861C388.326 364.861 387.58 364.854 386.835 364.841L386.855 363.746C387.593 363.759 388.333 363.765 389.074 363.765C389.816 363.765 390.556 363.759 391.294 363.746L391.314 364.841ZM379.037 116.074C380.515 115.955 382.001 115.862 383.494 115.796L383.543 116.89C382.063 116.956 380.59 117.049 379.125 117.167L379.037 116.074ZM383.494 364.737C382.001 364.67 380.515 364.577 379.037 364.458L379.125 363.366C380.59 363.484 382.063 363.576 383.543 363.642L383.494 364.737ZM371.281 116.946C372.749 116.734 374.225 116.548 375.709 116.388L375.827 117.477C374.356 117.636 372.892 117.82 371.437 118.03L371.281 116.946ZM375.709 364.145C374.225 363.985 372.749 363.799 371.281 363.587L371.437 362.502C372.892 362.713 374.356 362.897 375.827 363.056L375.709 364.145ZM363.594 118.307C365.044 118.002 366.504 117.723 367.973 117.47L368.159 118.55C366.703 118.801 365.257 119.077 363.819 119.379L363.594 118.307ZM367.973 363.063C366.504 362.81 365.044 362.531 363.594 362.226L363.819 361.154C365.256 361.456 366.703 361.732 368.159 361.983L367.973 363.063ZM356.004 120.155C357.434 119.758 358.874 119.386 360.324 119.04L360.579 120.106C359.142 120.449 357.714 120.817 356.297 121.211L356.004 120.155ZM360.324 361.493C358.874 361.146 357.434 360.775 356.004 360.378L356.297 359.322C357.714 359.715 359.142 360.084 360.579 360.427L360.324 361.493ZM348.55 122.482C349.954 121.994 351.368 121.531 352.794 121.093L353.115 122.141C351.703 122.575 350.301 123.034 348.91 123.517L348.55 122.482ZM352.794 359.439C351.368 359.002 349.954 358.539 348.55 358.051L348.91 357.016C350.301 357.499 351.703 357.958 353.115 358.392L352.794 359.439ZM341.262 125.278C342.631 124.702 344.012 124.15 345.405 123.623L345.793 124.648C344.412 125.17 343.043 125.717 341.687 126.288L341.262 125.278ZM345.405 356.91C344.012 356.382 342.631 355.831 341.262 355.255L341.687 354.245C343.043 354.816 344.412 355.362 345.793 355.885L345.405 356.91ZM334.163 128.532C335.493 127.871 336.837 127.232 338.193 126.618L338.645 127.616C337.301 128.225 335.969 128.857 334.651 129.513L334.163 128.532ZM338.193 353.915C336.836 353.3 335.493 352.662 334.163 352.001L334.651 351.02C335.969 351.675 337.301 352.308 338.645 352.917L338.193 353.915ZM327.285 132.23C328.571 131.485 329.872 130.763 331.187 130.063L331.701 131.031C330.398 131.724 329.109 132.44 327.834 133.178L327.285 132.23ZM331.187 350.469C329.872 349.77 328.571 349.048 327.285 348.303L327.834 347.355C329.109 348.093 330.398 348.809 331.701 349.502L331.187 350.469ZM320.655 136.353C321.892 135.528 323.145 134.725 324.413 133.945L324.987 134.878C323.731 135.652 322.489 136.447 321.263 137.265L320.655 136.353ZM324.413 346.588C323.145 345.807 321.892 345.004 320.655 344.18L321.263 343.268C322.489 344.085 323.731 344.881 324.987 345.655L324.413 346.588ZM314.297 140.885C315.48 139.985 316.68 139.105 317.895 138.247L318.527 139.142C317.322 139.992 316.133 140.864 314.961 141.757L314.297 140.885ZM317.895 342.286C316.68 341.428 315.48 340.548 314.297 339.648L314.961 338.776C316.133 339.669 317.322 340.541 318.527 341.391L317.895 342.286ZM308.236 145.807C309.36 144.834 310.502 143.881 311.662 142.948L312.348 143.802C311.199 144.726 310.067 145.671 308.953 146.636L308.236 145.807ZM311.662 337.585C310.502 336.652 309.36 335.699 308.236 334.725L308.953 333.897C310.067 334.862 311.199 335.806 312.348 336.731L311.662 337.585ZM302.494 151.099C303.556 150.057 304.636 149.034 305.735 148.031L306.474 148.84C305.385 149.834 304.314 150.848 303.261 151.881L302.494 151.099ZM305.735 332.502C304.636 331.499 303.556 330.476 302.494 329.434L303.261 328.652C304.314 329.685 305.385 330.699 306.474 331.693L305.735 332.502ZM297.094 156.738C298.089 155.632 299.103 154.544 300.137 153.474L300.925 154.235C299.9 155.296 298.895 156.374 297.908 157.471L297.094 156.738ZM300.137 327.059C299.103 325.989 298.089 324.901 297.094 323.795L297.908 323.062C298.895 324.159 299.9 325.237 300.925 326.298L300.137 327.059ZM292.056 162.703C292.981 161.537 293.925 160.387 294.89 159.256L295.723 159.966C294.767 161.088 293.831 162.227 292.915 163.383L292.056 162.703ZM294.889 321.277C293.925 320.145 292.981 318.996 292.056 317.83L292.915 317.149C293.831 318.306 294.767 319.445 295.723 320.566L294.889 321.277ZM287.401 168.971C288.25 167.749 289.121 166.543 290.013 165.354L290.889 166.011C290.006 167.19 289.142 168.385 288.3 169.596L287.401 168.971ZM290.013 315.179C289.121 313.99 288.25 312.784 287.401 311.562L288.3 310.936C289.142 312.148 290.006 313.343 290.889 314.522L290.013 315.179ZM283.145 175.519C283.917 174.245 284.711 172.987 285.527 171.744L286.443 172.345C285.634 173.577 284.847 174.824 284.082 176.087L283.145 175.519ZM285.527 308.789C284.711 307.546 283.917 306.288 283.145 305.014L284.082 304.446C284.847 305.708 285.634 306.956 286.443 308.188L285.527 308.789ZM279.308 182.317C279.999 180.998 280.713 179.693 281.449 178.402L282.401 178.945C281.671 180.224 280.964 181.518 280.279 182.826L279.308 182.317ZM281.449 302.131C280.713 300.84 279.999 299.535 279.308 298.215L280.279 297.707C280.964 299.015 281.671 300.309 282.401 301.588L281.449 302.131ZM275.905 189.344C276.512 187.984 277.142 186.637 277.795 185.303L278.779 185.785C278.132 187.107 277.507 188.442 276.906 189.79L275.905 189.344ZM277.795 295.229C277.142 293.896 276.512 292.549 275.905 291.189L276.906 290.742C277.507 292.09 278.132 293.426 278.779 294.747L277.795 295.229ZM272.95 196.573C273.47 195.177 274.014 193.792 274.582 192.42L275.595 192.839C275.032 194.199 274.492 195.571 273.976 196.955L272.95 196.573ZM274.582 288.113C274.014 286.741 273.47 285.356 272.95 283.96L273.976 283.577C274.492 284.961 275.032 286.333 275.595 287.693L274.582 288.113ZM270.455 203.972C270.887 202.544 271.343 201.128 271.824 199.723L272.861 200.077C272.384 201.47 271.931 202.874 271.504 204.289L270.455 203.972ZM271.824 280.81C271.343 279.405 270.887 277.988 270.455 276.561L271.504 276.244C271.931 277.659 272.384 279.063 272.861 280.455L271.824 280.81ZM268.431 211.51C268.772 210.059 269.138 208.617 269.53 207.186L270.586 207.475C270.199 208.894 269.836 210.322 269.497 211.761L268.431 211.51ZM269.53 273.347C269.138 271.915 268.772 270.474 268.431 269.023L269.497 268.772C269.836 270.21 270.199 271.639 270.586 273.058L269.53 273.347ZM266.884 219.163C267.133 217.694 267.408 216.233 267.708 214.782L268.781 215.004C268.484 216.443 268.211 217.89 267.964 219.347L266.884 219.163ZM267.708 265.751C267.408 264.299 267.133 262.839 266.884 261.37L267.964 261.186C268.211 262.643 268.484 264.09 268.781 265.529L267.708 265.751ZM265.818 226.902C265.975 225.417 266.159 223.94 266.368 222.472L267.452 222.626C267.245 224.082 267.063 225.545 266.907 227.017L265.818 226.902ZM266.368 258.061C266.159 256.593 265.975 255.116 265.818 253.631L266.907 253.516C267.063 254.987 267.245 256.451 267.452 257.907L266.368 258.061ZM265.235 234.686C265.3 233.194 265.392 231.708 265.509 230.229L266.602 230.315C266.485 231.781 266.394 233.254 266.33 234.734L265.235 234.686ZM265.509 250.304C265.392 248.825 265.3 247.339 265.235 245.846L266.33 245.798C266.394 247.278 266.485 248.751 266.602 250.217L265.509 250.304ZM265.113 240.266C265.113 239.518 265.119 238.772 265.132 238.027L266.228 238.046C266.215 238.785 266.209 239.525 266.209 240.266C266.209 241.008 266.215 241.748 266.228 242.486L265.132 242.506C265.119 241.761 265.113 241.014 265.113 240.266Z" fill="#23024D"/>
<path d="M310.596 162.338C353.282 162.338 387.893 197.224 387.893 240.269C387.893 283.313 353.282 318.199 310.596 318.199C267.909 318.199 233.298 283.313 233.298 240.269C233.298 239.538 233.308 238.811 233.327 238.085L232.232 238.055C232.212 238.791 232.202 239.528 232.202 240.269C232.202 283.909 267.296 319.295 310.596 319.295C353.895 319.295 388.989 283.909 388.989 240.269C388.989 196.628 353.895 161.242 310.596 161.242L310.596 162.338Z" fill="#23024D"/>
<path d="M310.596 161.242C309.855 161.242 309.117 161.253 308.382 161.273L308.413 162.368C309.138 162.348 309.866 162.338 310.596 162.338L310.596 161.242Z" fill="#23024D"/>
<path d="M305.075 161.435C303.599 161.539 302.134 161.683 300.681 161.868L300.819 162.955C302.251 162.773 303.696 162.63 305.152 162.528L305.075 161.435Z" fill="#23024D"/>
<path d="M297.406 162.356C295.948 162.605 294.504 162.894 293.075 163.223L293.321 164.291C294.73 163.967 296.153 163.681 297.59 163.436L297.406 162.356Z" fill="#23024D"/>
<path d="M289.865 164.035C288.441 164.428 287.033 164.86 285.643 165.33L285.994 166.368C287.365 165.904 288.752 165.478 290.156 165.091L289.865 164.035Z" fill="#23024D"/>
<path d="M282.529 166.458C281.153 166.99 279.795 167.56 278.457 168.167L278.91 169.165C280.229 168.566 281.567 168.004 282.924 167.48L282.529 166.458Z" fill="#23024D"/>
<path d="M275.471 169.599C274.156 170.265 272.861 170.967 271.589 171.704L272.139 172.652C273.393 171.925 274.669 171.233 275.966 170.577L275.471 169.599Z" fill="#23024D"/>
<path d="M268.76 173.424C267.517 174.216 266.298 175.042 265.104 175.901L265.744 176.791C266.921 175.944 268.123 175.129 269.348 174.348L268.76 173.424Z" fill="#23024D"/>
<path d="M262.457 177.892C261.299 178.801 260.167 179.743 259.063 180.715L259.786 181.537C260.876 180.579 261.992 179.65 263.134 178.753L262.457 177.892Z" fill="#23024D"/>
<path d="M256.623 182.954C255.56 183.972 254.525 185.019 253.52 186.095L254.32 186.843C255.312 185.782 256.332 184.749 257.381 183.746L256.623 182.954Z" fill="#23024D"/>
<path d="M251.31 188.562C250.351 189.677 249.424 190.821 248.527 191.99L249.397 192.656C250.281 191.503 251.196 190.376 252.141 189.276L251.31 188.562Z" fill="#23024D"/>
<path d="M246.568 194.659C245.723 195.862 244.911 197.09 244.132 198.342L245.063 198.921C245.83 197.687 246.631 196.476 247.465 195.289L246.568 194.659Z" fill="#23024D"/>
<path d="M242.442 201.19C241.719 202.469 241.03 203.77 240.377 205.093L241.359 205.578C242.004 204.274 242.683 202.99 243.396 201.729L242.442 201.19Z" fill="#23024D"/>
<path d="M238.973 208.092C238.379 209.434 237.82 210.797 237.299 212.178L238.324 212.565C238.838 211.203 239.389 209.859 239.975 208.535L238.973 208.092Z" fill="#23024D"/>
<path d="M236.196 215.3C235.736 216.693 235.313 218.103 234.929 219.53L235.987 219.815C236.366 218.408 236.783 217.017 237.236 215.643L236.196 215.3Z" fill="#23024D"/>
<path d="M234.136 222.744C233.815 224.175 233.532 225.619 233.289 227.078L234.37 227.258C234.61 225.82 234.889 224.395 235.205 222.984L234.136 222.744Z" fill="#23024D"/>
<path d="M232.813 230.354C232.633 231.807 232.491 233.272 232.39 234.749L233.483 234.824C233.583 233.367 233.722 231.922 233.9 230.489L232.813 230.354Z" fill="#23024D"/>
<path fill-rule="evenodd" clip-rule="evenodd" d="M391.521 240.269C391.521 283.313 426.132 318.199 468.819 318.199L468.819 319.295C425.519 319.295 390.425 283.909 390.425 240.269C390.425 196.628 425.519 161.242 468.819 161.242C512.118 161.242 547.212 196.628 547.212 240.269L546.117 240.269C546.117 197.224 511.505 162.338 468.819 162.338C426.132 162.338 391.521 197.224 391.521 240.269Z" fill="#23024D"/>
<path fill-rule="evenodd" clip-rule="evenodd" d="M471.032 319.264C470.297 319.285 469.559 319.295 468.819 319.295L468.819 318.199C469.549 318.199 470.276 318.189 471.001 318.169L471.032 319.264ZM478.734 318.669C477.281 318.854 475.816 318.998 474.339 319.102L474.263 318.009C475.718 317.907 477.163 317.764 478.595 317.582L478.734 318.669ZM486.339 317.314C484.91 317.643 483.466 317.932 482.009 318.181L481.824 317.101C483.261 316.856 484.684 316.57 486.093 316.246L486.339 317.314ZM493.771 315.207C492.381 315.678 490.973 316.11 489.549 316.502L489.258 315.446C490.662 315.059 492.05 314.633 493.42 314.169L493.771 315.207ZM500.957 312.37C499.619 312.977 498.261 313.547 496.885 314.079L496.49 313.057C497.847 312.533 499.185 311.971 500.504 311.372L500.957 312.37ZM507.825 308.833C506.553 309.57 505.259 310.272 503.943 310.938L503.448 309.96C504.745 309.304 506.022 308.612 507.276 307.885L507.825 308.833ZM514.31 304.636C513.116 305.495 511.897 306.321 510.655 307.113L510.066 306.189C511.291 305.408 512.493 304.593 513.67 303.746L514.31 304.636ZM520.352 299.822C519.247 300.794 518.115 301.736 516.957 302.645L516.28 301.784C517.422 300.887 518.538 299.959 519.628 299L520.352 299.822ZM525.894 294.442C524.889 295.518 523.854 296.565 522.791 297.583L522.034 296.791C523.082 295.788 524.103 294.755 525.094 293.694L525.894 294.442ZM530.887 288.547C529.991 289.717 529.063 290.86 528.104 291.976L527.273 291.262C528.218 290.161 529.134 289.034 530.017 287.881L530.887 288.547ZM535.282 282.195C534.503 283.447 533.691 284.675 532.846 285.878L531.95 285.248C532.783 284.062 533.584 282.851 534.352 281.616L535.282 282.195ZM539.037 275.444C538.384 276.767 537.695 278.068 536.972 279.347L536.018 278.808C536.731 277.547 537.411 276.263 538.055 274.959L539.037 275.444ZM542.115 268.359C541.594 269.74 541.035 271.103 540.441 272.445L539.439 272.002C540.025 270.678 540.576 269.334 541.09 267.972L542.115 268.359ZM544.485 261.007C544.101 262.434 543.679 263.844 543.219 265.238L542.178 264.894C542.632 263.52 543.048 262.129 543.427 260.723L544.485 261.007ZM546.125 253.459C545.882 254.918 545.599 256.363 545.278 257.793L544.209 257.553C544.526 256.142 544.804 254.717 545.044 253.279L546.125 253.459ZM547.024 245.788C546.923 247.265 546.782 248.73 546.601 250.183L545.514 250.048C545.692 248.615 545.831 247.17 545.931 245.714L547.024 245.788ZM547.212 240.269C547.212 241.009 547.202 241.746 547.182 242.482L546.087 242.452C546.107 241.726 546.117 240.999 546.117 240.269L547.212 240.269Z" fill="#23024D"/>
</g>
<path d="M456.863 147.325L534.036 212.469L365.171 191.383L287.998 126.239L456.863 147.325Z" fill="#25134D" stroke="#25134D" stroke-width="0.5" stroke-miterlimit="10"/>
<path d="M534.036 212.469L484.403 397.903L315.537 376.817L365.171 191.383L534.036 212.469Z" fill="white" stroke="#25134D" stroke-width="0.5" stroke-miterlimit="10"/>
<path d="M365.171 191.383L315.537 376.817L238.364 311.673L287.998 126.239L365.171 191.383Z" fill="white" stroke="#25134D" stroke-width="0.5" stroke-miterlimit="10"/>
<path d="M456.863 147.324C456.863 147.324 450.741 169.378 442.039 200.978L534.036 212.469L456.863 147.324Z" fill="#1C0C40" stroke="#25134D" stroke-width="0.5" stroke-miterlimit="10"/>
<path d="M456.863 147.325L287.998 126.239L365.171 191.383L534.036 212.469L456.863 147.325ZM293.28 128.551L456.188 148.891L528.754 210.157L365.847 189.811L293.28 128.551Z" fill="white" stroke="#25134D" stroke-width="0.5" stroke-miterlimit="10"/>
<path d="M379.244 384.773L424.05 390.369L473.6 204.918L428.795 199.322L379.244 384.773Z" fill="#E6E6EB" stroke="#25134D" stroke-width="0.5" stroke-miterlimit="10"/>
<path d="M258.614 328.764L288.565 354.053L338.134 168.559L308.177 143.269L258.614 328.764Z" fill="#E6E6EB" stroke="#25134D" stroke-width="0.5" stroke-miterlimit="10"/>
<path d="M464.682 132.339L547.49 202.455L366.096 179.523L283.295 109.41L464.682 132.339Z" fill="white" stroke="#25134D" stroke-width="0.5" stroke-miterlimit="10"/>
<path d="M547.49 202.456L536.255 243.878L354.867 220.948L366.097 179.523L547.49 202.456Z" fill="white" stroke="#25134D" stroke-width="0.5" stroke-miterlimit="10"/>
<path d="M366.097 179.523L354.867 220.948L272.063 150.841L283.295 109.41L366.097 179.523Z" fill="white" stroke="#25134D" stroke-width="0.5" stroke-miterlimit="10"/>
<path d="M283.295 109.41L272.063 150.841L354.867 220.948L366.097 179.523L283.295 109.41Z" fill="white"/>
<path d="M283.295 109.41L272.063 150.841L354.867 220.948L366.097 179.523L283.295 109.41Z" stroke="#25134D" stroke-width="0.5" stroke-miterlimit="10"/>
<path d="M547.49 202.456L536.255 243.878L354.867 220.948L366.097 179.523L547.49 202.456Z" fill="white"/>
<path d="M547.49 202.456L536.255 243.878L354.867 220.948L366.097 179.523L547.49 202.456Z" stroke="#25134D" stroke-width="0.5" stroke-miterlimit="10"/>
<path d="M295.616 170.78L325.533 196.11L336.694 154.621L306.776 129.291L295.616 170.78Z" fill="#E6E6EB" stroke="#25134D" stroke-width="0.5" stroke-miterlimit="10"/>
<path d="M421.44 229.368L466.24 235.03L477.382 193.59L432.583 187.928L421.44 229.368Z" fill="#E6E6EB" stroke="#25134D" stroke-width="0.5" stroke-miterlimit="10"/>
<path d="M402.673 124.504L358.073 118.863L432.583 187.928L477.383 193.59L402.673 124.504Z" fill="#E6E6EB" stroke="#25134D" stroke-width="0.5" stroke-miterlimit="10"/>
<path d="M483.559 148.322L306.776 129.292L316.7 137.698L336.694 154.621L513.517 173.686L483.559 148.322Z" fill="#E6E6EB" stroke="#25134D" stroke-width="0.5" stroke-miterlimit="10"/>
<path d="M386.751 140.415C389.577 139.323 444.076 154.995 445.663 156.869L450.777 171.767C428.759 158.015 374.268 150.923 376.058 149.561L386.751 140.415Z" fill="#E6E6EB" stroke="#25134D" stroke-width="0.5" stroke-miterlimit="10"/>
<path d="M486.604 85.3162C464.244 65.5349 399.212 131.697 420.046 153.869L424.47 158.385L429.344 169.563C430.095 126.937 504.287 111.756 515.454 128.381C515.458 128.386 515.462 128.392 515.466 128.398L515.95 129.22C515.805 128.938 515.644 128.664 515.466 128.398C515.462 128.392 515.458 128.386 515.454 128.381L486.604 85.3162Z" fill="#E6E6EB"/>
<path d="M515.466 128.398C515.644 128.664 515.805 128.938 515.95 129.22L515.466 128.398ZM515.466 128.398C504.339 111.745 430.095 126.923 429.344 169.563L424.47 158.385L420.046 153.869C399.212 131.697 464.244 65.5349 486.604 85.3162L515.466 128.398Z" stroke="#25134D" stroke-width="0.5" stroke-miterlimit="10"/>
<path d="M490.875 97.0805C490.108 125.625 434.346 165.424 420.207 154.15L420.19 154.15L424.644 158.695L429.505 169.849C430.147 171.067 431.116 172.081 432.302 172.778C450.539 183.976 535.022 161.112 516.112 129.501C506.315 113.124 486.458 85.0745 486.458 85.0745C486.458 85.0745 491.023 92.4006 490.875 97.0805Z" fill="white" stroke="#25134D" stroke-width="0.5" stroke-miterlimit="10"/>
<path d="M403.085 45.7727C437.059 43.0072 451.181 147.985 416.965 153.981L409.831 155.077L397.724 161.954C426.222 122.492 368.826 57.8237 347.24 65.3686C347.232 65.3712 347.225 65.3739 347.217 65.3765L346.212 65.7963C346.537 65.6376 346.873 65.4979 347.217 65.3765C347.225 65.3739 347.232 65.3712 347.24 65.3686L403.085 45.7727Z" fill="#E6E6EB"/>
<path d="M347.217 65.3765C346.873 65.4979 346.537 65.6376 346.212 65.7963L347.217 65.3765ZM347.217 65.3765C368.786 57.7786 426.232 122.479 397.724 161.954L409.831 155.077L416.965 153.981C451.181 147.985 437.059 43.0072 403.085 45.7727L347.217 65.3765Z" stroke="#25134D" stroke-width="0.5" stroke-miterlimit="10"/>
<path d="M391.129 53.598C372.285 80.2047 395.987 154.748 416.625 154.127L416.641 154.139L409.459 155.242L397.38 162.105C395.961 162.779 394.381 163.042 392.82 162.866C368.489 160.612 306.95 81.8785 345.872 65.9421C366.036 57.6859 403.384 45.6516 403.384 45.6516C403.384 45.6516 394.197 49.2203 391.129 53.598Z" fill="white" stroke="#25134D" stroke-width="0.5" stroke-miterlimit="10"/>
<path d="M462.366 125.064C455.78 116.519 408.706 148.569 414.591 157.83L423.719 171.529C432.846 155.314 471.972 139.306 470.906 137.86L462.366 125.064Z" fill="#E6E6EB" stroke="#25134D" stroke-width="0.5" stroke-miterlimit="10"/>
<path d="M414.59 157.829C421.4 158.601 467.291 132.527 462.366 125.063L470.895 137.859C476.798 148.294 432.081 175.217 424.897 172.394C424.43 172.222 424.022 171.922 423.719 171.528L414.59 157.829Z" fill="white" stroke="#25134D" stroke-width="0.5" stroke-miterlimit="10"/>
<path d="M416.568 154.096C421.747 144.652 373.614 114.242 367.481 123.321L358.545 137.136C377.052 139.05 407.331 168.582 408.216 167L416.568 154.096Z" fill="#E6E6EB" stroke="#25134D" stroke-width="0.5" stroke-miterlimit="10"/>
<path d="M367.482 123.32C369.499 129.87 411.684 161.578 416.569 154.094L408.219 167.016C401.005 176.592 358.497 146.293 358.222 138.568C358.193 138.072 358.305 137.578 358.544 137.142L367.482 123.32Z" fill="white" stroke="#25134D" stroke-width="0.5" stroke-miterlimit="10"/>
<path d="M441.559 160.402C439.878 158.415 392.323 147.793 390.354 148.553L380.363 157.683C402.63 156.378 446.646 173.467 445.857 171.703L441.559 160.402Z" fill="#E6E6EB" stroke="#25134D" stroke-width="0.5" stroke-miterlimit="10"/>
<path d="M390.344 148.553C393.093 151.763 443.762 166.33 441.549 160.403L445.847 171.725C449.921 185.342 379.917 165.633 379.843 158.851C379.846 158.635 379.893 158.423 379.98 158.226C380.068 158.029 380.194 157.852 380.352 157.705L390.343 148.575" fill="white"/>
<path d="M390.344 148.553C393.093 151.763 443.762 166.33 441.549 160.403L445.847 171.725C449.921 185.342 379.917 165.633 379.843 158.851C379.846 158.635 379.893 158.423 379.98 158.226C380.068 158.029 380.194 157.852 380.352 157.705L390.343 148.575" stroke="#25134D" stroke-width="0.5" stroke-miterlimit="10"/>
</svg>
