<svg width="100%" height="100%" viewBox="0 0 49 49" fill="none" xmlns="http://www.w3.org/2000/svg">
    <path d="M0.5 11.162C0.5 6.01943 0.5 3.44813 2.0976 1.85053C3.6952 0.25293 6.2665 0.25293 11.4091 0.25293C11.4091 0.25293 16.3182 0.798384 24.5 0.798384C32.6818 0.798384 37.5909 0.25293 37.5909 0.25293C42.7335 0.25293 45.3048 0.25293 46.9024 1.85053C48.5 3.44813 48.5 3.83761 48.5 8.9802C48.5 8.9802 47.9545 17.7075 47.9545 20.4347C47.9545 23.162 48.5 37.3438 48.5 37.3438C48.5 42.4864 48.5 45.0577 46.9024 46.6553C45.3048 48.2529 42.7335 48.2529 37.5909 48.2529C37.5909 48.2529 31.0455 47.7075 24.5 47.7075C17.9545 47.7075 11.4091 48.2529 11.4091 48.2529C6.2665 48.2529 3.6952 48.2529 2.0976 46.6553C0.5 45.0577 0.5 42.4864 0.5 37.3438C0.5 37.3438 1.04545 24.2529 1.04545 18.7984C1.04545 13.3438 0.5 11.162 0.5 11.162Z" fill="#1127E9"/>
    <path fill-rule="evenodd" clip-rule="evenodd" d="M22.6731 38.4348V11.1621H25.9459V38.4348H22.6731Z" fill="white"/>
    <path fill-rule="evenodd" clip-rule="evenodd" d="M35.3008 33.0338L11.6819 19.3974L13.3182 16.5632L36.9371 30.1995L35.3008 33.0338Z" fill="white"/>
    <path fill-rule="evenodd" clip-rule="evenodd" d="M13.3182 33.0338L36.9371 19.3974L35.3008 16.5632L11.6819 30.1995L13.3182 33.0338Z" fill="white"/>
</svg>
