<svg width="40" height="40" viewBox="0 0 40 40" fill="none" xmlns="http://www.w3.org/2000/svg">
<path fill-rule="evenodd" clip-rule="evenodd" d="M20.5632 13.2783C20.5911 16.4051 23.2397 18.9968 26.5219 18.8891C29.7277 18.7838 32.2269 16.1264 32.0882 12.9761C31.9491 9.81496 29.2497 7.38514 26.0133 7.54602C22.9029 7.70064 20.5143 10.2732 20.5632 13.2783ZM20.8169 23.3252C18.3587 25.7192 15.9027 28.1111 13.4422 30.5074C13.4779 30.5441 13.504 30.572 13.5314 30.5988C14.3972 31.4466 15.2576 32.2998 16.1313 33.1396C16.575 33.566 16.5648 34.1353 16.3449 34.5084C16.3017 34.5818 16.2413 34.6477 16.1798 34.7082C15.186 35.6845 14.1915 36.66 13.1957 37.6343C12.7895 38.0316 12.2433 38.112 11.7794 37.8418C11.6955 37.793 11.6194 37.7275 11.5499 37.6596C10.6807 36.8101 9.81323 35.9589 8.9462 35.1072C8.91573 35.0772 8.89462 35.0381 8.86908 35.0032C8.85362 35.0019 8.83817 35.0006 8.82271 34.9993C8.79814 35.0352 8.77889 35.0763 8.74828 35.1064C8.15607 35.689 7.56276 36.2706 6.96923 36.8519C6.60955 37.2042 6.18566 37.3023 5.70958 37.1304C5.58367 37.085 5.46212 37.0011 5.36607 36.9078C4.34354 35.914 3.32551 34.9158 2.30862 33.9165C1.88262 33.4978 1.90059 32.8358 2.34421 32.3779C2.36689 32.3544 2.39076 32.3321 2.41414 32.3093C6.98086 27.8463 11.5476 23.3833 16.1145 18.9206C16.1481 18.8879 16.1859 18.8595 16.2188 18.8315C14.8075 16.2187 14.4122 13.4842 15.1341 10.6272C15.8566 7.76774 17.4958 5.50696 20.0042 3.88316C24.6794 0.85664 30.7909 1.57259 34.6254 5.35266C38.6071 9.27777 39.0651 15.3247 36.0002 19.7189C34.3194 22.1287 32.019 23.7052 29.1132 24.3883C26.2109 25.0705 23.4384 24.6829 20.8169 23.3252Z" fill="#23024D"/>
</svg>
