<svg width="16" height="16" viewBox="0 0 16 16" fill="none" xmlns="http://www.w3.org/2000/svg">
<path d="M7 4H11C11.5523 4 12 4.44772 12 5V9C12 9.55228 11.5523 10 11 10V11C12.1046 11 13 10.1046 13 9V5C13 3.89543 12.1046 3 11 3H7C5.89543 3 5 3.89543 5 5H6C6 4.44772 6.44772 4 7 4Z" fill="#872AB0"/>
<path fill-rule="evenodd" clip-rule="evenodd" d="M4 7H8C8.55228 7 9 7.44772 9 8V12C9 12.5523 8.55228 13 8 13H4C3.44772 13 3 12.5523 3 12V8C3 7.44772 3.44772 7 4 7ZM8 6C9.10457 6 10 6.89543 10 8V12C10 13.1046 9.10457 14 8 14H4C2.89543 14 2 13.1046 2 12V8C2 6.89543 2.89543 6 4 6H8Z" fill="#872AB0"/>
</svg>
