<svg width="9" height="11" viewBox="0 0 9 11" fill="none" xmlns="http://www.w3.org/2000/svg">
<path d="M3.33391 2.78662C3.82744 1.6826 4.7123 0.67134 5.3564 0.000488281C2.51563 0.791977 0 4.57423 0 6.87384C0 9.30363 1.85062 11.0005 4.49979 11.0005C7.14936 11.0005 9 9.30363 9 6.87384C9 5.04164 8.02916 3.09079 6.7468 2.19699C6.65349 3.41208 6.07635 4.76295 5.17565 5.80645C5.08429 5.91194 4.98984 6.01468 4.89229 6.11379C4.74985 6.25833 4.60005 6.39567 4.44754 6.52189C4.0384 6.8591 3.60099 7.12266 3.14773 7.30542L2.72775 7.4746L2.62904 7.02157C2.56788 6.74085 2.63407 4.35168 3.33391 2.78662Z" fill="white"/>
</svg>
