<svg width="100%" height="100%" viewBox="0 0 501 407" fill="none" xmlns="http://www.w3.org/2000/svg">
    <path d="M55.417 81.201C60.4695 76.1485 67.8336 74.1753 74.7355 76.0246L116.01 87.0842C122.912 88.9335 128.303 94.3245 130.152 101.226L141.212 142.501C143.061 149.403 141.088 156.767 136.036 161.82L105.82 192.035C100.768 197.087 93.4037 199.061 86.5018 197.211L45.227 186.152C38.3252 184.302 32.9342 178.911 31.0849 172.01L20.0253 130.735C18.176 123.833 20.1492 116.469 25.2017 111.416L55.417 81.201Z" fill="#23024D" stroke="white" stroke-width="2" stroke-miterlimit="10"/>
    <path d="M97.3074 196.61L84.208 147.722C82.3438 140.765 84.3646 133.342 89.4987 128.29L124.917 93.4379" stroke="white" stroke-width="2" stroke-miterlimit="10"/>
    <path d="M97.1536 196.037L84.2115 147.736C82.3452 140.771 76.8742 135.35 69.8924 133.547L20.5115 120.799" stroke="white" stroke-width="2" stroke-miterlimit="10"/>
    <path d="M92.3712 125.487L89.0123 128.74C83.8296 133.76 76.3448 135.599 69.4258 133.553L66.0221 132.546" stroke="white" stroke-width="2" stroke-miterlimit="10"/>
    <path d="M372.189 119.167L348.939 83.3838C359.655 99.7314 316.726 120.523 309.461 145.771C290.752 209.164 262.114 233.986 187.097 245.611C186.007 245.792 183.101 282.644 182.011 282.644C181.284 282.825 180.739 282.825 180.013 282.825C179.286 282.825 178.56 283.007 177.833 283.007C177.107 283.007 176.562 283.188 175.835 283.188C175.109 283.188 174.382 283.37 173.837 283.37C173.11 283.37 172.566 283.552 171.839 283.552C171.112 283.552 170.386 283.733 169.841 283.733C169.114 283.733 168.569 283.733 167.843 283.915C167.116 283.915 166.571 283.915 165.845 283.915C165.3 283.915 164.573 283.915 164.028 283.915C163.302 283.915 162.757 283.915 162.03 283.915C161.485 283.915 160.759 283.915 160.214 283.915C159.487 283.915 158.943 283.915 158.216 283.915C157.671 283.915 156.944 283.915 156.4 283.915C155.673 283.915 155.128 283.915 154.583 283.915C154.038 283.915 153.312 283.915 152.767 283.733C152.222 283.733 151.495 283.733 150.95 283.552C150.405 283.552 149.86 283.37 149.134 283.37C148.589 283.37 147.862 283.188 147.318 283.188C146.773 283.188 146.228 283.007 145.683 283.007C145.138 283.007 144.411 282.825 143.866 282.825C143.321 282.825 142.777 282.644 142.232 282.644C141.687 282.462 141.142 282.462 140.415 282.28C139.87 282.099 139.325 282.099 138.78 281.917C138.235 281.735 137.691 281.735 137.146 281.554C136.601 281.372 136.056 281.372 135.511 281.19C134.966 281.009 134.421 281.009 133.876 280.827C133.331 280.645 132.786 280.645 132.241 280.464C131.696 280.282 131.152 280.101 130.607 280.101C130.062 279.919 129.517 279.737 129.153 279.737C128.609 279.556 128.064 279.374 127.519 279.192C126.974 279.011 126.61 278.829 126.066 278.647C125.521 278.466 124.976 278.284 124.431 278.102C123.886 277.921 123.523 277.739 122.978 277.558C122.433 277.376 121.888 277.194 121.525 277.013C120.98 276.831 120.616 276.649 120.071 276.468C119.527 276.286 119.163 276.104 118.618 275.741C118.255 275.56 117.71 275.378 117.347 275.196C116.802 275.015 116.439 274.651 115.894 274.47C115.53 274.288 114.985 274.106 114.622 273.743C114.077 273.561 113.714 273.198 113.169 273.017C112.806 272.835 112.261 272.653 111.898 272.29C111.534 272.108 110.989 271.745 110.626 271.563C110.263 271.382 109.9 271.019 109.355 270.837C108.991 270.655 108.446 270.292 108.083 269.929C107.72 269.747 107.357 269.384 106.993 269.202C106.63 268.839 106.085 268.657 105.722 268.294C105.359 268.112 104.995 267.749 104.632 267.567C104.269 267.204 103.905 267.022 103.361 266.659C102.997 266.296 102.634 266.114 102.271 265.751C101.907 265.388 101.544 265.024 101.181 264.843C100.818 264.479 100.454 264.298 100.091 263.935C99.7277 263.571 99.3644 263.208 99.0011 262.845C98.6378 262.481 98.4562 262.3 98.0929 261.936C97.7296 261.573 97.3664 261.21 97.0031 260.847C96.6398 260.483 96.4582 260.302 96.0949 259.938C95.7316 259.575 95.3683 259.212 95.005 258.849C94.8234 258.485 94.4601 258.304 94.2785 257.94C93.9152 257.577 93.5519 257.032 93.1886 256.669C93.007 256.306 92.6437 256.124 92.4621 255.761C92.0988 255.216 91.7355 254.853 91.3722 254.308C91.1906 254.126 91.0089 253.763 90.8273 253.581C90.2824 252.854 89.7375 252.128 89.1925 251.22L112.443 287.003C112.987 287.729 113.532 288.456 114.077 289.364C114.259 289.546 114.441 289.909 114.622 290.091C132.267 316.558 178.743 325.102 208.349 317.7C283.366 306.257 359.292 245.589 378.001 182.196C385.448 157.312 382.724 135.515 372.189 119.167Z" fill="#23024D" stroke="white" stroke-width="2" stroke-miterlimit="10"/>
    <path d="M305.908 293.878C306.866 281.428 319.076 283.654 321.47 289.364C323.864 295.074 336.18 301.555 350.798 260.36C362.314 227.906 408.855 201.703 378.001 182.196C347.148 162.689 226.703 393.68 122.759 289.364C109.7 276.305 101.551 307.36 108.394 317.7C119.168 333.979 142.271 325.36 148.495 322.008C156.276 317.819 175.429 358.518 196.976 358.518C218.523 358.518 229.992 348.473 238.274 333.979C243.433 324.952 250.489 317.7 261.617 317.7C267.602 317.7 272.391 328.592 277.179 338.169C281.967 347.745 294.536 342.358 297.529 335.175C300.521 327.993 304.711 309.439 305.908 293.878Z" fill="#ECE7F2"/>
    <path d="M371.148 300.461L366.359 214.273H375.936L371.148 300.461Z" fill="#ECE7F2"/>
    <path d="M378.33 269.337L373.542 205.295H383.118L378.33 269.337Z" fill="#ECE7F2"/>
    <path d="M330.448 326.796L325.659 265.746H335.236L330.448 326.796Z" fill="#ECE7F2"/>
    <path d="M325.659 335.175L320.871 274.125H330.448L325.659 335.175Z" fill="#ECE7F2"/>
    <path d="M383.118 277.717L378.33 191.529L388.505 198.113L383.118 277.717Z" fill="#ECE7F2"/>
    <path d="M257.427 374.678L252.639 288.49H262.216L257.427 374.678Z" fill="#ECE7F2"/>
    <path d="M217.925 372.284L213.136 331.584H222.713L217.925 372.284Z" fill="#ECE7F2"/>
    <path d="M168.845 406.999L164.057 320.811H173.633L168.845 406.999Z" fill="#ECE7F2"/>
    <path d="M122.16 357.919L117.372 305.249H126.948L122.16 357.919Z" fill="#ECE7F2"/>
    <path d="M117.372 343.555L112.584 290.884H122.16L117.372 343.555Z" fill="#ECE7F2"/>
    <path d="M271.384 247.735C343.01 201.285 377.667 127.536 348.792 83.012C319.918 38.488 238.447 40.0493 166.822 86.4991C95.1962 132.949 60.5395 206.698 89.4137 251.222C118.288 295.746 199.759 294.184 271.384 247.735Z" fill="#23024D" stroke="white" stroke-width="2" stroke-miterlimit="10"/>
    <path d="M180.011 163.831L150.04 187.626L141.321 179.815L185.641 144.577L200.899 158.382L247.581 121.146L265.382 137.493L294.989 114.062L303.526 121.872L259.751 156.747L241.95 140.399L195.087 177.636L180.011 163.831Z" fill="white"/>
    <path d="M255.572 171.096L284.998 147.665L293.535 155.475L249.942 190.35L231.959 174.002L185.278 211.239L170.02 197.434L140.049 221.411L131.33 213.6L175.832 178.18L190.908 192.166L237.59 154.93L255.572 171.096Z" fill="white"/>
    <path d="M111.387 300.461C116.898 322.747 170.324 318.487 182.612 319.614C247.851 325.599 259.214 282.365 290.82 277.577C322.425 272.789 347.773 236.631 363.242 217.724C374.015 204.557 390.899 192.726 378.33 182.552C364.563 171.408 303.599 228.353 295.608 236.877C272.13 261.92 273.349 289.089 198.646 286.555C123.943 284.02 105.875 278.175 111.387 300.461Z" fill="white"/>
    <path d="M358.179 93.9146C364.645 81.4635 333.825 59.8817 328.944 55.3277C311.882 39.4099 255.484 41.7542 234.182 45.2751C223.924 46.9705 215.957 54.0363 217.618 63.7772C219.436 74.4463 265.836 64.4646 272.942 63.7775C293.822 61.7589 322.5 63.7774 337.479 80.1059C352.458 96.4344 351.713 106.366 358.179 93.9146Z" fill="white"/>
    <path d="M403.018 52.6399C409.92 50.7906 417.284 52.7638 422.336 57.8163L448.768 84.248C453.821 89.3005 455.794 96.6647 453.944 103.567L444.27 139.673C442.42 146.575 437.029 151.966 430.128 153.815L394.021 163.49C387.119 165.339 379.755 163.366 374.703 158.313L348.271 131.882C343.218 126.829 341.245 119.465 343.095 112.563L352.769 76.4568C354.619 69.5549 360.01 64.164 366.911 62.3146L403.018 52.6399Z" fill="#23024D" stroke="white" stroke-width="2" stroke-miterlimit="10"/>
    <path d="M384.24 163.462L396.029 119.463C397.894 112.506 403.355 107.088 410.327 105.28L453.6 94.0579" stroke="white" stroke-width="2" stroke-miterlimit="10"/>
    <path d="M384.381 162.934L396.025 119.476C397.892 112.511 395.864 105.081 390.719 100.029L357.963 67.8671" stroke="white" stroke-width="2" stroke-miterlimit="10"/>
    <path d="M412.983 104.608L409.736 105.422C402.738 107.178 395.337 105.029 390.368 99.7971L388.776 98.121" stroke="white" stroke-width="2" stroke-miterlimit="10"/>
    <path d="M411.687 136.565C418.832 136.565 425.435 140.377 429.007 146.565L461.994 203.7C465.567 209.888 465.567 217.512 461.994 223.7L429.007 280.834C425.435 287.022 418.832 290.834 411.687 290.834L345.714 290.834C338.568 290.834 331.966 287.022 328.393 280.834L295.407 223.7C291.834 217.512 291.834 209.888 295.407 203.7L328.393 146.565C331.966 140.377 338.568 136.565 345.714 136.565L411.687 136.565Z" fill="#23024D" stroke="white" stroke-width="2" stroke-miterlimit="10"/>
    <path d="M337.269 287.065L373.568 224.193C377.17 217.956 383.847 214.136 391.05 214.194L462.398 214.768" stroke="white" stroke-width="2" stroke-miterlimit="10"/>
    <path d="M337.67 286.37L373.561 224.205C377.166 217.961 377.131 210.259 373.469 204.047L336.327 141.054" stroke="white" stroke-width="2" stroke-miterlimit="10"/>
    <path d="M400.594 214.295L390.144 214.129C382.93 214.013 376.337 210.021 372.892 203.682L368.629 195.839" stroke="white" stroke-width="2" stroke-miterlimit="10"/>
</svg>
