<svg width="100%" height="100%" viewBox="0 0 624 577" preserveAspectRatio="xMaxYMax meet" fill="none" xmlns="http://www.w3.org/2000/svg">
<path d="M277.691 57.5417L401.513 81.5349C406.335 82.4694 409.503 87.116 408.611 91.9462L379.013 252.182C378.112 257.061 373.414 260.275 368.54 259.348L243.678 235.594C238.827 234.671 235.64 229.993 236.557 225.141L258.041 111.444L265.625 73.1575L267.189 64.7006C268.093 59.8109 272.81 56.5958 277.691 57.5417Z" stroke="#23024D"/>
<path d="M315.906 100.729L317.163 116.78L317.551 116.749L316.295 100.698L315.906 100.729Z" fill="#23024D"/>
<path d="M299.201 99.1532L300.135 101.793L300.502 101.663L299.569 99.0232L299.201 99.1532Z" fill="#23024D"/>
<path d="M353.638 188.883L355.766 190.702L356.019 190.406L353.891 188.586L353.638 188.883Z" fill="#23024D"/>
<path d="M357.54 192.218L363.039 196.918L363.292 196.622L357.794 191.922L357.54 192.218Z" fill="#23024D"/>
<path d="M370.488 203.286L364.99 198.586L365.243 198.29L370.741 202.99L370.488 203.286Z" fill="#23024D"/>
<path d="M303.323 110.812L300.912 103.993L301.279 103.863L303.691 110.682L303.323 110.812Z" fill="#23024D"/>
<path d="M304.18 113.232L306.592 120.052L306.96 119.922L304.548 113.102L304.18 113.232Z" fill="#23024D"/>
<path d="M280.405 140.63L282.09 141.435L282.258 141.083L280.573 140.279L280.405 140.63Z" fill="#23024D"/>
<path d="M278.932 139.927L274.51 137.815L274.678 137.463L279.1 139.575L278.932 139.927Z" fill="#23024D"/>
<path d="M268.614 135L273.036 137.111L273.203 136.76L268.782 134.648L268.614 135Z" fill="#23024D"/>
<path d="M339.809 214.194L339.187 212.434L339.554 212.304L340.177 214.064L339.809 214.194Z" fill="#23024D"/>
<path d="M337.008 206.275L338.642 210.894L339.01 210.764L337.376 206.145L337.008 206.275Z" fill="#23024D"/>
<path d="M336.464 204.735L334.83 200.115L335.197 199.985L336.831 204.605L336.464 204.735Z" fill="#23024D"/>
<path d="M279.655 125.541L274.156 120.841L274.41 120.545L279.908 125.245L279.655 125.541Z" fill="#23024D"/>
<path d="M281.605 127.209L287.104 131.909L287.357 131.612L281.859 126.912L281.605 127.209Z" fill="#23024D"/>
<path d="M349.375 201.771L345.281 195.808L345.602 195.587L349.697 201.55L349.375 201.771Z" fill="#23024D"/>
<path d="M350.829 203.887L354.923 209.85L355.245 209.629L351.15 203.666L350.829 203.887Z" fill="#23024D"/>
<path d="M293.365 120.2L295.478 123.278L295.799 123.057L293.686 119.98L293.365 120.2Z" fill="#23024D"/>
<path d="M291.514 117.507L285.835 109.236L286.156 109.016L291.836 117.287L291.514 117.507Z" fill="#23024D"/>
<path d="M278.308 98.2725L283.856 106.351L284.177 106.131L278.63 98.0518L278.308 98.2725Z" fill="#23024D"/>
<path d="M326.151 231.955L325.86 228.234L326.248 228.203L326.54 231.925L326.151 231.955Z" fill="#23024D"/>
<path d="M324.823 214.974L325.606 224.977L325.994 224.946L325.211 214.944L324.823 214.974Z" fill="#23024D"/>
<path d="M324.55 211.485L323.785 201.715L324.174 201.685L324.939 211.455L324.55 211.485Z" fill="#23024D"/>
<path d="M373.846 185.425L359.317 178.488L359.485 178.136L374.013 185.074L373.846 185.425Z" fill="#23024D"/>
<path d="M277.437 176.151L280.076 175.218L279.946 174.85L277.307 175.784L277.437 176.151Z" fill="#23024D"/>
<path d="M275.236 176.928L268.417 179.339L268.287 178.972L275.106 176.56L275.236 176.928Z" fill="#23024D"/>
<path d="M259.178 182.607L265.997 180.195L265.867 179.828L259.048 182.24L259.178 182.607Z" fill="#23024D"/>
<path d="M363.108 111.025L361.289 113.154L360.992 112.901L362.812 110.772L363.108 111.025Z" fill="#23024D"/>
<path d="M355.072 120.426L359.772 114.927L359.476 114.674L354.776 120.172L355.072 120.426Z" fill="#23024D"/>
<path d="M353.405 122.377L348.705 127.875L348.408 127.622L353.108 122.124L353.405 122.377Z" fill="#23024D"/>
<path d="M365.753 156.486L363.892 156.632L363.862 156.243L365.723 156.097L365.753 156.486Z" fill="#23024D"/>
<path d="M367.381 156.358L372.266 155.976L372.235 155.587L367.35 155.97L367.381 156.358Z" fill="#23024D"/>
<path d="M378.78 155.466L373.895 155.849L373.865 155.46L378.75 155.078L378.78 155.466Z" fill="#23024D"/>
<path d="M283.892 203.806L285.104 202.387L284.808 202.134L283.595 203.553L283.892 203.806Z" fill="#23024D"/>
<path d="M289.35 197.421L286.166 201.145L285.87 200.892L289.054 197.167L289.35 197.421Z" fill="#23024D"/>
<path d="M290.411 196.179L293.595 192.455L293.299 192.201L290.115 195.926L290.411 196.179Z" fill="#23024D"/>
<path d="M371.872 142.673L378.691 140.261L378.561 139.894L371.742 142.305L371.872 142.673Z" fill="#23024D"/>
<path d="M369.453 143.529L362.633 145.94L362.503 145.573L369.323 143.161L369.453 143.529Z" fill="#23024D"/>
<path d="M279.425 188.776L285.387 184.681L285.167 184.36L279.204 188.454L279.425 188.776Z" fill="#23024D"/>
<path d="M277.308 190.228L271.345 194.323L271.124 194.001L277.087 189.907L277.308 190.228Z" fill="#23024D"/>
<path d="M360.994 132.764L357.917 134.878L357.696 134.556L360.774 132.443L360.994 132.764Z" fill="#23024D"/>
<path d="M363.688 130.916L371.959 125.236L371.739 124.915L363.468 130.594L363.688 130.916Z" fill="#23024D"/>
<path d="M382.922 117.707L374.843 123.254L374.622 122.933L382.701 117.386L382.922 117.707Z" fill="#23024D"/>
<path d="M290.26 225.288L291.868 221.919L291.516 221.751L289.908 225.12L290.26 225.288Z" fill="#23024D"/>
<path d="M297.598 209.916L293.275 218.971L292.923 218.803L297.246 209.749L297.598 209.916Z" fill="#23024D"/>
<path d="M299.106 206.758L303.329 197.915L302.977 197.747L298.754 206.59L299.106 206.758Z" fill="#23024D"/>
<path d="M262.459 164.733L278.51 163.476L278.479 163.088L262.429 164.344L262.459 164.733Z" fill="#23024D"/>
<path d="M346.951 106.496L340.013 121.025L339.662 120.857L346.599 106.328L346.951 106.496Z" fill="#23024D"/>
<path d="M220.573 140.224L216.859 139.534L216.935 139.128L220.648 139.818L220.573 140.224Z" fill="#000636"/>
<path d="M237.654 143.397L224.286 140.913L224.361 140.508L237.73 142.992L237.654 143.397Z" fill="#000636"/>
<path d="M399.191 173.407L242.111 144.225L242.186 143.82L399.266 173.001L399.191 173.407Z" fill="#000636"/>
<path d="M421.101 177.477L407.732 174.993L407.807 174.588L421.176 177.071L421.101 177.477Z" fill="#000636"/>
<path d="M428.527 178.857L424.814 178.167L424.889 177.761L428.602 178.451L428.527 178.857Z" fill="#000636"/>
<path d="M347.975 16.4076L347.044 21.4192L346.638 21.3439L347.569 16.3323L347.975 16.4076Z" fill="#000636"/>
<path d="M346.113 26.4307L342.761 44.4722L342.356 44.3969L345.707 26.3554L346.113 26.4307Z" fill="#000636"/>
<path d="M340.62 55.9991L301.237 267.987L300.832 267.912L340.214 55.9238L340.62 55.9991Z" fill="#000636"/>
<path d="M300.12 274.001L296.768 292.043L296.363 291.967L299.715 273.926L300.12 274.001Z" fill="#000636"/>
<path d="M295.837 297.054L294.906 302.066L294.501 301.991L295.432 296.979L295.837 297.054Z" fill="#000636"/>
<path d="M355.38 165.784C351.897 184.535 333.768 196.892 314.888 193.385C296.008 189.877 283.526 171.833 287.01 153.083C290.493 134.332 308.622 121.975 327.502 125.482C346.382 128.99 358.864 147.034 355.38 165.784Z" fill="#8620B9"/>
<path fill-rule="evenodd" clip-rule="evenodd" d="M328.885 113.426C329.161 113.472 329.438 113.521 329.714 113.572C329.991 113.624 330.267 113.677 330.542 113.733L330.459 114.137C330.187 114.082 329.913 114.029 329.639 113.978C329.365 113.927 329.091 113.878 328.816 113.832L328.885 113.426ZM331.77 114.001C332.318 114.128 332.862 114.264 333.401 114.409L333.294 114.807C332.759 114.663 332.221 114.528 331.677 114.403L331.77 114.001ZM325.974 113.029C326.529 113.087 327.085 113.156 327.642 113.234L327.584 113.642C327.032 113.565 326.481 113.497 325.931 113.439L325.974 113.029ZM334.61 114.752C335.149 114.912 335.683 115.081 336.212 115.26L336.08 115.65C335.556 115.474 335.027 115.306 334.493 115.147L334.61 114.752ZM323.045 112.813C323.602 112.837 324.161 112.871 324.721 112.914L324.689 113.326C324.134 113.282 323.58 113.249 323.027 113.225L323.045 112.813ZM337.4 115.678C337.927 115.871 338.448 116.073 338.964 116.284L338.808 116.666C338.297 116.457 337.78 116.256 337.258 116.065L337.4 115.678ZM320.108 112.781C320.665 112.77 321.225 112.768 321.785 112.777L321.779 113.189C321.223 113.181 320.669 113.182 320.116 113.193L320.108 112.781ZM317.172 112.933C317.729 112.886 318.287 112.85 318.848 112.823L318.867 113.235C318.312 113.261 317.758 113.298 317.207 113.344L317.172 112.933ZM340.125 116.776C340.639 117.002 341.147 117.237 341.649 117.48L341.47 117.851C340.972 117.61 340.468 117.378 339.959 117.154L340.125 116.776ZM314.253 113.269C314.806 113.187 315.362 113.116 315.92 113.054L315.965 113.464C315.412 113.525 314.862 113.596 314.313 113.676L314.253 113.269ZM342.775 118.043C343.273 118.301 343.766 118.567 344.253 118.842L344.05 119.201C343.568 118.929 343.08 118.665 342.585 118.409L342.775 118.043ZM311.362 113.787C311.909 113.671 312.459 113.565 313.011 113.469L313.082 113.875C312.534 113.97 311.99 114.076 311.448 114.191L311.362 113.787ZM345.341 119.475C345.822 119.763 346.296 120.06 346.765 120.364L346.54 120.71C346.076 120.408 345.605 120.114 345.129 119.828L345.341 119.475ZM308.509 114.487C309.047 114.337 309.588 114.196 310.133 114.065L310.23 114.466C309.69 114.596 309.153 114.735 308.619 114.884L308.509 114.487ZM347.812 121.065C348.273 121.383 348.729 121.709 349.177 122.042L348.931 122.373C348.487 122.042 348.035 121.72 347.578 121.404L347.812 121.065ZM305.704 115.364C306.232 115.18 306.764 115.006 307.3 114.841L307.421 115.235C306.89 115.399 306.363 115.572 305.839 115.754L305.704 115.364ZM350.178 122.807C350.618 123.153 351.052 123.507 351.479 123.868L351.213 124.183C350.79 123.825 350.36 123.474 349.923 123.131L350.178 122.807ZM302.961 116.415C303.477 116.199 303.997 115.991 304.521 115.793L304.667 116.179C304.147 116.375 303.631 116.581 303.12 116.795L302.961 116.415ZM352.429 124.694C352.847 125.067 353.258 125.447 353.662 125.834L353.377 126.132C352.977 125.748 352.569 125.371 352.155 125.001L352.429 124.694ZM300.288 117.636C300.79 117.387 301.295 117.148 301.806 116.918L301.976 117.294C301.47 117.522 300.968 117.759 300.471 118.005L300.288 117.636ZM354.559 126.718C354.953 127.116 355.339 127.521 355.718 127.933L355.414 128.212C355.039 127.804 354.656 127.403 354.266 127.008L354.559 126.718ZM297.697 119.021C298.182 118.742 298.672 118.471 299.167 118.209L299.36 118.574C298.869 118.833 298.383 119.101 297.903 119.378L297.697 119.021ZM356.558 128.871C356.926 129.293 357.286 129.722 357.639 130.156L357.319 130.416C356.969 129.985 356.612 129.561 356.247 129.142L356.558 128.871ZM295.197 120.565C295.664 120.256 296.136 119.955 296.614 119.663L296.829 120.015C296.356 120.304 295.887 120.602 295.425 120.908L295.197 120.565ZM358.419 131.145C358.76 131.589 359.092 132.039 359.417 132.495L359.081 132.734C358.76 132.282 358.43 131.836 358.092 131.396L358.419 131.145ZM292.799 122.261C293.245 121.924 293.698 121.595 294.156 121.273L294.393 121.611C293.939 121.929 293.49 122.256 293.047 122.59L292.799 122.261ZM360.134 133.53C360.446 133.995 360.751 134.465 361.046 134.94L360.696 135.158C360.403 134.687 360.102 134.221 359.792 133.761L360.134 133.53ZM290.511 124.105C290.936 123.74 291.367 123.383 291.804 123.034L292.062 123.356C291.628 123.702 291.201 124.056 290.78 124.418L290.511 124.105ZM361.697 136.018C361.98 136.501 362.254 136.989 362.519 137.482L362.156 137.678C361.893 137.189 361.621 136.705 361.341 136.227L361.697 136.018ZM288.343 126.088C288.744 125.697 289.152 125.314 289.567 124.938L289.844 125.244C289.433 125.616 289.028 125.996 288.631 126.383L288.343 126.088ZM363.101 138.599C363.353 139.099 363.596 139.603 363.83 140.112L363.456 140.284C363.224 139.78 362.983 139.28 362.733 138.785L363.101 138.599ZM286.304 128.204C286.68 127.788 287.063 127.38 287.453 126.979L287.748 127.266C287.362 127.664 286.982 128.068 286.61 128.48L286.304 128.204ZM364.341 141.263C364.561 141.777 364.772 142.296 364.974 142.818L364.589 142.967C364.389 142.449 364.18 141.935 363.962 141.425L364.341 141.263ZM284.402 130.443C284.751 130.005 285.108 129.573 285.472 129.148L285.785 129.417C285.424 129.837 285.071 130.265 284.725 130.7L284.402 130.443ZM365.411 143.999C365.598 144.526 365.776 145.057 365.944 145.591L365.551 145.715C365.384 145.186 365.208 144.659 365.022 144.137L365.411 143.999ZM282.646 132.798C282.967 132.339 283.295 131.885 283.631 131.439L283.961 131.687C283.627 132.129 283.302 132.578 282.984 133.034L282.646 132.798ZM366.306 146.798C366.459 147.335 366.603 147.876 366.737 148.42L366.337 148.519C366.204 147.98 366.062 147.444 365.91 146.911L366.306 146.798ZM281.042 135.261C281.333 134.781 281.632 134.308 281.939 133.841L282.284 134.068C281.979 134.531 281.683 135 281.395 135.475L281.042 135.261ZM367.022 149.648C367.141 150.194 367.25 150.743 367.35 151.294L366.944 151.367C366.845 150.821 366.737 150.277 366.619 149.736L367.022 149.648ZM279.599 137.82C279.859 137.323 280.127 136.831 280.404 136.346L280.762 136.55C280.488 137.031 280.222 137.518 279.964 138.011L279.599 137.82ZM367.556 152.536C367.64 153.089 367.714 153.644 367.778 154.202L367.368 154.249C367.305 153.696 367.231 153.146 367.148 152.598L367.556 152.536ZM278.321 140.465C278.549 139.952 278.786 139.445 279.031 138.943L279.401 139.124C279.158 139.622 278.924 140.124 278.698 140.632L278.321 140.465ZM367.904 155.454C367.953 156.01 367.991 156.569 368.02 157.129L367.608 157.15C367.58 156.594 367.542 156.041 367.493 155.49L367.904 155.454ZM277.215 143.187C277.409 142.661 277.613 142.14 277.825 141.624L278.207 141.781C277.996 142.292 277.794 142.809 277.601 143.33L277.215 143.187ZM368.066 158.389C368.079 158.946 368.082 159.506 368.075 160.066L367.663 160.061C367.67 159.505 367.667 158.951 367.654 158.398L368.066 158.389ZM276.283 145.975C276.444 145.437 276.614 144.903 276.794 144.375L277.184 144.507C277.006 145.031 276.837 145.56 276.678 146.093L276.283 145.975ZM368.041 161.326C368.019 161.884 367.986 162.443 367.944 163.003L367.533 162.972C367.575 162.416 367.607 161.862 367.629 161.31L368.041 161.326ZM275.529 148.814C275.656 148.266 275.792 147.723 275.938 147.184L276.336 147.292C276.192 147.826 276.056 148.364 275.93 148.907L275.529 148.814ZM367.831 164.256C367.773 164.811 367.706 165.367 367.627 165.924L367.219 165.867C367.297 165.315 367.364 164.763 367.421 164.213L367.831 164.256ZM275.099 150.87C275.151 150.593 275.204 150.318 275.261 150.043L275.664 150.125C275.609 150.398 275.556 150.671 275.505 150.945C275.454 151.22 275.405 151.494 275.359 151.768L274.953 151.7C274.999 151.423 275.048 151.147 275.099 150.87ZM367.436 167.167C367.39 167.443 367.341 167.72 367.29 167.997C367.238 168.274 367.185 168.549 367.129 168.824L366.725 168.741C366.78 168.469 366.834 168.196 366.884 167.922C366.935 167.647 366.984 167.373 367.03 167.099L367.436 167.167ZM274.558 154.611C274.616 154.056 274.684 153.5 274.762 152.943L275.17 153C275.093 153.552 275.025 154.104 274.968 154.654L274.558 154.611ZM366.86 170.053C366.733 170.601 366.597 171.144 366.451 171.683L366.053 171.575C366.197 171.041 366.333 170.502 366.459 169.96L366.86 170.053ZM274.348 157.541C274.37 156.983 274.403 156.424 274.445 155.864L274.857 155.895C274.814 156.45 274.782 157.005 274.76 157.557L274.348 157.541ZM366.106 172.892C365.945 173.43 365.775 173.964 365.595 174.492L365.205 174.36C365.383 173.836 365.552 173.307 365.711 172.774L366.106 172.892ZM274.323 160.478C274.31 159.921 274.307 159.361 274.314 158.8L274.726 158.806C274.719 159.362 274.722 159.916 274.735 160.469L274.323 160.478ZM365.174 175.68C364.98 176.206 364.776 176.727 364.564 177.243L364.182 177.086C364.393 176.575 364.595 176.058 364.788 175.537L365.174 175.68ZM274.485 163.413C274.436 162.857 274.398 162.298 274.369 161.738L274.781 161.717C274.809 162.272 274.848 162.826 274.896 163.377L274.485 163.413ZM364.068 178.402C363.84 178.915 363.603 179.422 363.358 179.924L362.988 179.743C363.231 179.245 363.465 178.743 363.691 178.234L364.068 178.402ZM274.833 166.331C274.75 165.778 274.675 165.223 274.611 164.665L275.021 164.618C275.084 165.171 275.158 165.721 275.241 166.269L274.833 166.331ZM362.791 181.047C362.531 181.544 362.262 182.036 361.985 182.521L361.627 182.317C361.901 181.836 362.167 181.349 362.425 180.856L362.791 181.047ZM275.367 169.219C275.248 168.673 275.139 168.124 275.04 167.572L275.445 167.499C275.544 168.046 275.652 168.59 275.77 169.131L275.367 169.219ZM361.347 183.606C361.056 184.085 360.757 184.559 360.45 185.025L360.105 184.799C360.41 184.336 360.706 183.867 360.994 183.392L361.347 183.606ZM276.083 172.069C275.93 171.532 275.786 170.991 275.652 170.447L276.052 170.348C276.185 170.887 276.328 171.423 276.479 171.956L276.083 172.069ZM359.743 186.069C359.423 186.528 359.094 186.982 358.758 187.428L358.429 187.18C358.762 186.738 359.087 186.288 359.405 185.833L359.743 186.069ZM276.978 174.868C276.791 174.341 276.613 173.81 276.445 173.275L276.838 173.152C277.005 173.681 277.181 174.208 277.367 174.73L276.978 174.868ZM357.987 188.424C357.638 188.862 357.281 189.294 356.917 189.719L356.604 189.45C356.965 189.029 357.318 188.602 357.664 188.167L357.987 188.424ZM278.048 177.604C277.828 177.09 277.617 176.571 277.415 176.048L277.8 175.9C278 176.418 278.209 176.932 278.427 177.442L278.048 177.604ZM356.085 190.663C355.709 191.079 355.326 191.487 354.936 191.888L354.641 191.601C355.027 191.203 355.407 190.798 355.78 190.387L356.085 190.663ZM279.288 180.268C279.036 179.768 278.793 179.264 278.559 178.755L278.933 178.583C279.165 179.087 279.406 179.587 279.656 180.082L279.288 180.268ZM354.046 192.779C353.645 193.17 353.237 193.553 352.822 193.929L352.546 193.623C352.956 193.251 353.361 192.871 353.758 192.484L354.046 192.779ZM280.692 182.849C280.409 182.366 280.135 181.878 279.87 181.385L280.233 181.189C280.496 181.678 280.768 182.162 281.048 182.64L280.692 182.849ZM351.878 194.762C351.453 195.127 351.022 195.484 350.585 195.833L350.328 195.511C350.761 195.165 351.188 194.811 351.609 194.449L351.878 194.762ZM282.255 185.336C281.943 184.872 281.639 184.402 281.343 183.927L281.693 183.709C281.986 184.18 282.288 184.646 282.597 185.106L282.255 185.336ZM349.59 196.605C349.144 196.943 348.691 197.272 348.233 197.593L347.996 197.256C348.45 196.937 348.899 196.611 349.342 196.276L349.59 196.605ZM283.97 187.722C283.629 187.278 283.297 186.828 282.972 186.372L283.308 186.133C283.63 186.584 283.96 187.031 284.297 187.471L283.97 187.722ZM347.192 198.302C346.725 198.611 346.253 198.912 345.775 199.204L345.56 198.852C346.033 198.562 346.502 198.265 346.964 197.958L347.192 198.302ZM285.831 189.996C285.463 189.574 285.103 189.145 284.75 188.71L285.071 188.451C285.42 188.882 285.777 189.306 286.142 189.725L285.831 189.996ZM344.692 199.846C344.207 200.125 343.717 200.396 343.222 200.657L343.029 200.293C343.52 200.034 344.006 199.765 344.487 199.489L344.692 199.846ZM287.83 192.149C287.436 191.751 287.05 191.345 286.671 190.934L286.975 190.655C287.35 191.063 287.733 191.464 288.123 191.859L287.83 192.149ZM342.101 201.231C341.6 201.479 341.094 201.719 340.583 201.949L340.414 201.573C340.92 201.345 341.421 201.108 341.918 200.862L342.101 201.231ZM289.96 194.173C289.542 193.8 289.131 193.42 288.727 193.033L289.012 192.735C289.413 193.119 289.82 193.496 290.234 193.866L289.96 194.173ZM339.428 202.452C338.913 202.668 338.392 202.875 337.868 203.074L337.723 202.688C338.242 202.492 338.758 202.286 339.269 202.072L339.428 202.452ZM292.211 196.06C291.771 195.714 291.337 195.36 290.91 194.999L291.176 194.684C291.599 195.042 292.029 195.393 292.466 195.736L292.211 196.06ZM336.685 203.503C336.157 203.686 335.625 203.861 335.089 204.026L334.968 203.632C335.499 203.468 336.026 203.295 336.55 203.113L336.685 203.503ZM294.577 197.802C294.116 197.484 293.661 197.158 293.212 196.825L293.458 196.494C293.903 196.824 294.354 197.147 294.811 197.462L294.577 197.802ZM333.881 204.38C333.342 204.53 332.801 204.671 332.256 204.802L332.159 204.401C332.699 204.271 333.236 204.132 333.77 203.983L333.881 204.38ZM297.048 199.392C296.567 199.104 296.093 198.807 295.624 198.503L295.849 198.157C296.313 198.459 296.784 198.753 297.26 199.039L297.048 199.392ZM331.027 205.08C330.48 205.196 329.931 205.302 329.378 205.398L329.307 204.992C329.855 204.897 330.399 204.791 330.941 204.676L331.027 205.08ZM299.614 200.824C299.116 200.566 298.623 200.3 298.136 200.025L298.339 199.666C298.821 199.938 299.31 200.202 299.804 200.458L299.614 200.824ZM328.136 205.598C327.583 205.68 327.027 205.751 326.469 205.813L326.424 205.403C326.977 205.342 327.528 205.271 328.076 205.19L328.136 205.598ZM302.264 202.091C301.751 201.865 301.242 201.63 300.74 201.387L300.919 201.016C301.417 201.257 301.921 201.489 302.43 201.713L302.264 202.091ZM325.217 205.934C324.66 205.981 324.102 206.017 323.541 206.043L323.522 205.632C324.077 205.605 324.631 205.569 325.182 205.523L325.217 205.934ZM304.989 203.189C304.463 202.996 303.941 202.794 303.425 202.583L303.581 202.201C304.092 202.41 304.609 202.61 305.131 202.802L304.989 203.189ZM322.281 206.086C321.724 206.097 321.164 206.099 320.604 206.09L320.61 205.678C321.166 205.686 321.72 205.685 322.273 205.674L322.281 206.086ZM307.779 204.115C307.24 203.955 306.706 203.786 306.177 203.607L306.309 203.217C306.833 203.393 307.363 203.561 307.896 203.72L307.779 204.115ZM319.344 206.053C318.787 206.03 318.228 205.996 317.668 205.952L317.7 205.541C318.255 205.585 318.809 205.618 319.362 205.641L319.344 206.053ZM310.619 204.866C310.071 204.739 309.527 204.603 308.988 204.458L309.096 204.06C309.63 204.204 310.169 204.339 310.712 204.464L310.619 204.866ZM316.415 205.838C315.86 205.78 315.304 205.711 314.747 205.633L314.805 205.225C315.357 205.302 315.908 205.37 316.458 205.428L316.415 205.838ZM312.675 205.295C312.398 205.243 312.122 205.189 311.848 205.133L311.93 204.729C312.202 204.785 312.476 204.838 312.75 204.889C313.024 204.94 313.299 204.989 313.573 205.035L313.504 205.441C313.228 205.395 312.951 205.346 312.675 205.295Z" fill="#23024D"/>
<path d="M286.97 183.112C289.904 167.319 305.189 156.912 321.114 159.871C337.039 162.829 347.567 178.032 344.633 193.824C341.699 209.616 326.413 220.024 310.489 217.065C310.219 217.015 309.95 216.961 309.683 216.904L309.597 217.307C309.867 217.365 310.14 217.42 310.413 217.47C326.559 220.47 342.062 209.919 345.038 193.899C348.014 177.88 337.335 162.465 321.189 159.465C305.044 156.466 289.541 167.017 286.565 183.036L286.97 183.112Z" fill="#23024D"/>
<path d="M286.565 183.036C286.514 183.31 286.467 183.584 286.424 183.857L286.831 183.921C286.874 183.652 286.92 183.382 286.97 183.112L286.565 183.036Z" fill="#23024D"/>
<path d="M286.257 185.092C286.193 185.645 286.146 186.197 286.115 186.747L286.526 186.771C286.557 186.229 286.604 185.684 286.666 185.139L286.257 185.092Z" fill="#23024D"/>
<path d="M286.07 187.993C286.062 188.549 286.07 189.103 286.093 189.654L286.505 189.637C286.482 189.093 286.474 188.547 286.482 187.999L286.07 187.993Z" fill="#23024D"/>
<path d="M286.173 190.898C286.22 191.452 286.284 192.002 286.362 192.549L286.77 192.49C286.693 191.951 286.631 191.409 286.584 190.863L286.173 190.898Z" fill="#23024D"/>
<path d="M286.565 193.778C286.668 194.324 286.785 194.866 286.918 195.402L287.318 195.303C287.187 194.774 287.071 194.24 286.97 193.702L286.565 193.778Z" fill="#23024D"/>
<path d="M287.242 196.605C287.398 197.138 287.569 197.665 287.754 198.186L288.143 198.048C287.96 197.534 287.792 197.015 287.638 196.49L287.242 196.605Z" fill="#23024D"/>
<path d="M288.196 199.351C288.404 199.865 288.626 200.373 288.861 200.874L289.234 200.698C289.002 200.205 288.783 199.704 288.578 199.197L288.196 199.351Z" fill="#23024D"/>
<path d="M289.416 201.99C289.673 202.481 289.943 202.964 290.227 203.44L290.581 203.229C290.301 202.76 290.034 202.283 289.781 201.799L289.416 201.99Z" fill="#23024D"/>
<path d="M290.888 204.496C291.191 204.96 291.508 205.415 291.837 205.86L292.168 205.616C291.844 205.176 291.532 204.727 291.233 204.271L290.888 204.496Z" fill="#23024D"/>
<path d="M292.597 206.847C292.944 207.279 293.303 207.701 293.674 208.113L293.98 207.837C293.615 207.43 293.26 207.014 292.918 206.589L292.597 206.847Z" fill="#23024D"/>
<path d="M294.527 209.021C294.914 209.416 295.313 209.801 295.722 210.175L296 209.871C295.596 209.502 295.203 209.122 294.822 208.732L294.527 209.021Z" fill="#23024D"/>
<path d="M296.66 210.996C297.083 211.352 297.517 211.696 297.962 212.028L298.209 211.698C297.77 211.37 297.342 211.031 296.925 210.68L296.66 210.996Z" fill="#23024D"/>
<path d="M298.975 212.754C299.43 213.066 299.896 213.366 300.371 213.654L300.585 213.301C300.116 213.018 299.657 212.722 299.208 212.414L298.975 212.754Z" fill="#23024D"/>
<path d="M301.45 214.277C301.934 214.543 302.427 214.796 302.928 215.036L303.106 214.664C302.612 214.428 302.126 214.178 301.649 213.916L301.45 214.277Z" fill="#23024D"/>
<path d="M304.063 215.55C304.57 215.768 305.085 215.971 305.608 216.162L305.749 215.774C305.233 215.587 304.725 215.386 304.225 215.171L304.063 215.55Z" fill="#23024D"/>
<path d="M306.787 216.563C307.313 216.73 307.845 216.883 308.384 217.021L308.487 216.622C307.955 216.485 307.43 216.334 306.912 216.17L306.787 216.563Z" fill="#23024D"/>
<path fill-rule="evenodd" clip-rule="evenodd" d="M321.363 158.529C337.288 161.487 352.574 151.08 355.507 135.288L355.913 135.363C352.937 151.382 337.433 161.934 321.288 158.934C305.142 155.935 294.463 140.519 297.439 124.5C300.415 108.481 315.918 97.9294 332.064 100.929L331.989 101.334C316.064 98.3758 300.778 108.783 297.845 124.575C294.911 140.368 305.439 155.57 321.363 158.529Z" fill="#23024D"/>
<path fill-rule="evenodd" clip-rule="evenodd" d="M356.053 134.542C356.01 134.815 355.964 135.089 355.913 135.363L355.507 135.288C355.558 135.018 355.604 134.748 355.646 134.478L356.053 134.542ZM356.363 131.652C356.331 132.202 356.284 132.754 356.221 133.307L355.811 133.261C355.873 132.715 355.92 132.171 355.951 131.628L356.363 131.652ZM356.384 128.745C356.407 129.296 356.415 129.85 356.407 130.407L355.995 130.401C356.003 129.852 355.995 129.306 355.972 128.763L356.384 128.745ZM356.115 125.85C356.194 126.397 356.257 126.948 356.304 127.501L355.894 127.537C355.847 126.991 355.785 126.448 355.707 125.909L356.115 125.85ZM355.56 122.997C355.692 123.534 355.81 124.075 355.912 124.621L355.507 124.697C355.406 124.159 355.29 123.625 355.159 123.096L355.56 122.997ZM354.723 120.213C354.908 120.734 355.079 121.261 355.235 121.794L354.839 121.91C354.686 121.385 354.517 120.865 354.335 120.351L354.723 120.213ZM353.616 117.525C353.852 118.026 354.074 118.534 354.281 119.048L353.899 119.202C353.694 118.695 353.475 118.195 353.243 117.701L353.616 117.525ZM352.25 114.959C352.534 115.435 352.805 115.918 353.062 116.409L352.696 116.6C352.443 116.116 352.176 115.64 351.896 115.171L352.25 114.959ZM350.641 112.539C350.97 112.985 351.286 113.44 351.59 113.903L351.245 114.129C350.945 113.672 350.633 113.223 350.309 112.784L350.641 112.539ZM348.803 110.287C349.174 110.699 349.533 111.121 349.88 111.552L349.559 111.81C349.217 111.385 348.863 110.969 348.497 110.563L348.803 110.287ZM346.755 108.224C347.165 108.598 347.563 108.983 347.95 109.378L347.656 109.667C347.274 109.277 346.881 108.897 346.477 108.529L346.755 108.224ZM344.516 106.371C344.96 106.703 345.394 107.048 345.818 107.403L345.553 107.719C345.135 107.368 344.707 107.029 344.269 106.701L344.516 106.371ZM342.106 104.745C342.581 105.033 343.047 105.333 343.503 105.645L343.27 105.986C342.82 105.678 342.361 105.382 341.893 105.098L342.106 104.745ZM339.549 103.363C340.05 103.603 340.543 103.857 341.027 104.122L340.828 104.484C340.351 104.222 339.865 103.972 339.371 103.735L339.549 103.363ZM336.869 102.238C337.392 102.428 337.907 102.632 338.414 102.849L338.252 103.228C337.752 103.014 337.244 102.813 336.728 102.625L336.869 102.238ZM334.093 101.378C334.632 101.517 335.165 101.67 335.69 101.836L335.565 102.229C335.047 102.065 334.522 101.914 333.99 101.777L334.093 101.378ZM332.064 100.929C332.338 100.98 332.61 101.034 332.881 101.092L332.794 101.495C332.527 101.438 332.259 101.384 331.989 101.334L332.064 100.929Z" fill="#23024D"/>
<path fill-rule="evenodd" clip-rule="evenodd" d="M339.66 149.929C340.296 150.685 340.199 151.814 339.443 152.451L318.834 169.797C318.081 170.431 316.958 170.338 316.32 169.589L306.319 157.866C305.677 157.114 305.767 155.984 306.519 155.343L307.979 154.097C308.731 153.456 309.86 153.545 310.502 154.298L316.958 161.866C317.597 162.614 318.72 162.707 319.472 162.073L335.902 148.244C336.659 147.608 337.788 147.705 338.424 148.461L339.66 149.929Z" stroke="white" stroke-width="0.894915"/>
<path d="M142.087 -76.8902C142.087 -76.8902 205.214 -15.7964 214.92 -8.70303C224.625 -1.60964 291.251 13.9962 301.804 16.8239C312.357 19.6515 343.31 60.1848 346.926 65.3203C349.233 68.5969 349.033 68.9707 348.492 70.9911M261.317 60.0724C261.317 60.0724 285.802 46.165 290.809 47.5066C294.931 48.6112 303.815 56.5458 309.771 63.4903" stroke="#23024D" stroke-width="0.894915"/>
<path d="M261.368 59.8811L269.514 44.0643" stroke="#23024D" stroke-width="0.894915"/>
<path d="M257.941 46.0734C259.768 54.1718 263.625 72.3187 268.787 78.7909C273.949 85.2631 295.8 112.722 306.686 125.243C309.455 128.428 312.653 135.836 306.774 141.233C300.148 147.315 294.26 144.116 290.337 140.57L248.779 103.25C245.494 100.3 241.72 97.958 237.677 96.1824C225.022 90.6236 205.935 81.242 198.74 73.992C174.345 49.4107 177.301 28.5555 149.925 4.408L110.242 -34.3251" stroke="#23024D" stroke-width="0.894915"/>
<path d="M254.692 108.594C249.82 112.641 245.455 117.129 244.351 119.128C241.798 123.751 241.909 128.503 243.409 132.65C244.893 136.754 250.064 137.186 253.509 134.507V134.507" stroke="#23024D" stroke-width="0.894915"/>
<path d="M241.997 98.0953C241.454 98.6563 241.023 99.1295 240.719 99.486C239.922 100.422 239.278 101.411 238.766 102.428C234.117 111.681 246.428 114.746 254.775 108.616V108.616" stroke="#23024D" stroke-width="0.894915"/>
<path opacity="0.1" d="M389.17 95.7136C390.486 95.9458 391.366 97.2006 391.134 98.5162C390.902 99.8319 389.646 100.71 388.329 100.478C387.013 100.246 386.133 98.9911 386.365 97.6754C386.597 96.3598 387.853 95.4815 389.17 95.7136Z" stroke="#23024D" stroke-width="0.894915" stroke-miterlimit="10"/>
<path opacity="0.3" d="M213.975 29.8159L121.186 -63.1269M213.975 29.8159L295.931 30.9052L330.004 67.7796M213.975 29.8159L226.045 75.1706L275.603 106.77" stroke="#872AB0" stroke-width="4.47458"/>
<path d="M297.552 31.8388C297.076 32.6634 296.021 32.9459 295.197 32.4698C294.372 31.9937 294.09 30.9393 294.566 30.1146C295.042 29.29 296.096 29.0074 296.921 29.4835C297.746 29.9596 298.028 31.0141 297.552 31.8388Z" fill="#5F0E8E"/>
<path d="M227.914 76.0907C227.438 76.9154 226.383 77.1979 225.559 76.7218C224.734 76.2457 224.451 75.1912 224.927 74.3666C225.404 73.5419 226.458 73.2594 227.283 73.7355C228.107 74.2116 228.39 75.2661 227.914 76.0907Z" fill="#5F0E8E"/>
<path fill-rule="evenodd" clip-rule="evenodd" d="M223.286 21.8392L217.494 30.1818L221.741 39.4069L213.399 33.6154L204.174 37.8625L209.965 29.5199L205.718 20.2948L214.061 26.0863L223.286 21.8392ZM212.762 38.9141L213.019 35.9861L213.358 36.016L213.101 38.9439L212.762 38.9141ZM212.719 39.402L212.633 40.3779L212.972 40.4077L213.058 39.4318L212.719 39.402ZM212.505 41.8407L212.591 40.8647L212.93 40.8945L212.844 41.8705L212.505 41.8407ZM214.125 23.3947L214.383 20.4667L214.722 20.4965L214.465 23.4245L214.125 23.3947ZM214.513 19.0033L214.427 19.9793L214.766 20.0091L214.852 19.0331L214.513 19.0033ZM214.556 18.5144L214.642 17.5384L214.981 17.5682L214.895 18.5442L214.556 18.5144ZM223.085 30.8429L220.157 30.5855L220.187 30.2463L223.115 30.5038L223.085 30.8429ZM223.575 30.8861L224.551 30.9719L224.581 30.6328L223.605 30.547L223.575 30.8861ZM226.013 31.1023L225.037 31.0165L225.067 30.6774L226.043 30.7632L226.013 31.1023ZM207.568 29.4784L204.64 29.221L204.67 28.8819L207.598 29.1393L207.568 29.4784ZM203.174 29.0924L204.15 29.1782L204.179 28.8391L203.203 28.7533L203.174 29.0924ZM202.687 29.0497L201.711 28.9639L201.74 28.6248L202.716 28.7106L202.687 29.0497Z" fill="#5F0E8E"/>
<path fill-rule="evenodd" clip-rule="evenodd" d="M276.489 103.065L275.961 106.412L278.577 108.566L275.23 108.038L273.076 110.653L273.604 107.307L270.988 105.153L274.335 105.681L276.489 103.065ZM275.808 109.72L275.461 108.803L275.567 108.763L275.915 109.68L275.808 109.72ZM275.866 109.874L275.982 110.18L276.089 110.14L275.973 109.834L275.866 109.874ZM276.156 110.638L276.04 110.332L276.146 110.292L276.262 110.597L276.156 110.638ZM273.964 104.861L273.616 103.945L273.723 103.904L274.071 104.821L273.964 104.861ZM273.442 103.486L273.558 103.792L273.664 103.751L273.548 103.446L273.442 103.486ZM273.385 103.332L273.269 103.027L273.375 102.987L273.491 103.292L273.385 103.332ZM277.736 105.798L276.82 106.146L276.779 106.039L277.696 105.691L277.736 105.798ZM277.89 105.739L278.195 105.623L278.155 105.517L277.849 105.633L277.89 105.739ZM278.652 105.45L278.347 105.566L278.306 105.46L278.612 105.344L278.652 105.45ZM272.878 107.642L271.961 107.99L271.921 107.884L272.838 107.536L272.878 107.642ZM271.502 108.164L271.807 108.048L271.767 107.942L271.462 108.058L271.502 108.164ZM271.349 108.222L271.044 108.338L271.004 108.232L271.309 108.116L271.349 108.222Z" fill="#5F0E8E"/>
<path fill-rule="evenodd" clip-rule="evenodd" d="M323.807 61.3103L330.324 64.9658L336.782 61.207L333.126 67.724L336.885 74.1819L330.368 70.5264L323.91 74.2852L327.566 67.7683L323.807 61.3103ZM337.052 67.8183L334.889 67.8355L334.887 67.585L337.05 67.5678L337.052 67.8183ZM337.413 67.8164L338.134 67.8106L338.132 67.5601L337.411 67.5659L337.413 67.8164ZM339.214 67.8008L338.493 67.8065L338.491 67.5561L339.212 67.5503L339.214 67.8008ZM325.589 67.9096L323.426 67.9268L323.424 67.6763L325.587 67.6591L325.589 67.9096ZM322.347 67.9352L323.067 67.9295L323.065 67.679L322.345 67.6847L322.347 67.9352ZM321.985 67.938L321.265 67.9437L321.263 67.6933L321.983 67.6875L321.985 67.938ZM330.417 60.8257L330.434 62.9882L330.183 62.9902L330.166 60.8277L330.417 60.8257ZM330.414 60.4642L330.408 59.7434L330.158 59.7454L330.163 60.4662L330.414 60.4642ZM330.401 58.6639L330.407 59.3847L330.156 59.3867L330.151 58.6659L330.401 58.6639ZM330.508 72.2856L330.525 74.448L330.275 74.45L330.258 72.2876L330.508 72.2856ZM330.533 75.5312L330.527 74.8104L330.277 74.8124L330.283 75.5332L330.533 75.5312ZM330.535 75.891L330.541 76.6119L330.29 76.6139L330.285 75.893L330.535 75.891Z" fill="#5F0E8E"/>
<path d="M188.673 291.445L188.689 295L191.76 296.791L188.205 296.807L186.414 299.878L186.398 296.323L183.327 294.532L186.882 294.516L188.673 291.445Z" fill="#23024D"/>
<path fill-rule="evenodd" clip-rule="evenodd" d="M188.689 295L188.673 291.445L186.882 294.516L183.327 294.532L186.398 296.323L186.414 299.878L188.205 296.807L191.76 296.791L188.689 295ZM190.677 296.501L188.395 295.17L188.383 292.528L187.052 294.81L184.41 294.822L186.692 296.153L186.704 298.795L188.035 296.513L190.677 296.501Z" fill="black"/>
<path fill-rule="evenodd" clip-rule="evenodd" d="M189.01 298.497L188.496 297.606L188.751 297.459L189.265 298.35L189.01 298.497Z" fill="black"/>
<path fill-rule="evenodd" clip-rule="evenodd" d="M189.268 298.943L189.096 298.646L189.352 298.498L189.523 298.795L189.268 298.943Z" fill="black"/>
<path fill-rule="evenodd" clip-rule="evenodd" d="M189.524 299.389L189.353 299.092L189.608 298.944L189.78 299.241L189.524 299.389Z" fill="black"/>
<path fill-rule="evenodd" clip-rule="evenodd" d="M185.77 292.885L186.285 293.776L186.54 293.628L186.026 292.737L185.77 292.885Z" fill="black"/>
<path fill-rule="evenodd" clip-rule="evenodd" d="M185.513 292.439L185.684 292.736L185.94 292.589L185.768 292.292L185.513 292.439Z" fill="black"/>
<path fill-rule="evenodd" clip-rule="evenodd" d="M185.254 291.993L185.426 292.29L185.681 292.143L185.51 291.846L185.254 291.993Z" fill="black"/>
<path fill-rule="evenodd" clip-rule="evenodd" d="M190.468 294.143L189.577 294.657L189.429 294.401L190.32 293.887L190.468 294.143Z" fill="black"/>
<path fill-rule="evenodd" clip-rule="evenodd" d="M190.913 293.886L190.616 294.058L190.469 293.802L190.766 293.631L190.913 293.886Z" fill="black"/>
<path fill-rule="evenodd" clip-rule="evenodd" d="M191.359 293.629L191.062 293.8L190.915 293.545L191.212 293.373L191.359 293.629Z" fill="black"/>
<path fill-rule="evenodd" clip-rule="evenodd" d="M184.854 297.383L185.745 296.869L185.597 296.613L184.706 297.128L184.854 297.383Z" fill="black"/>
<path fill-rule="evenodd" clip-rule="evenodd" d="M184.409 297.64L184.706 297.469L184.558 297.213L184.261 297.385L184.409 297.64Z" fill="black"/>
<path fill-rule="evenodd" clip-rule="evenodd" d="M183.963 297.898L184.26 297.726L184.112 297.471L183.815 297.642L183.963 297.898Z" fill="black"/>
<path d="M415.731 265.255L415.748 268.965L418.953 270.835L415.243 270.851L413.373 274.056L413.357 270.346L410.152 268.477L413.862 268.46L415.731 265.255Z" fill="#23024D"/>
<path fill-rule="evenodd" clip-rule="evenodd" d="M415.748 268.965L415.731 265.255L413.862 268.46L410.152 268.477L413.357 270.346L413.373 274.056L415.243 270.851L418.953 270.835L415.748 268.965ZM417.823 270.532L415.441 269.143L415.429 266.385L414.039 268.767L411.282 268.779L413.664 270.169L413.676 272.926L415.065 270.544L417.823 270.532Z" fill="black"/>
<path fill-rule="evenodd" clip-rule="evenodd" d="M416.083 272.616L415.546 271.686L415.812 271.532L416.349 272.462L416.083 272.616Z" fill="black"/>
<path fill-rule="evenodd" clip-rule="evenodd" d="M416.351 273.08L416.172 272.77L416.438 272.616L416.617 272.926L416.351 273.08Z" fill="black"/>
<path fill-rule="evenodd" clip-rule="evenodd" d="M416.62 273.545L416.441 273.235L416.708 273.082L416.886 273.391L416.62 273.545Z" fill="black"/>
<path fill-rule="evenodd" clip-rule="evenodd" d="M412.701 266.758L413.238 267.688L413.505 267.534L412.968 266.604L412.701 266.758Z" fill="black"/>
<path fill-rule="evenodd" clip-rule="evenodd" d="M412.433 266.293L412.612 266.603L412.878 266.449L412.699 266.139L412.433 266.293Z" fill="black"/>
<path fill-rule="evenodd" clip-rule="evenodd" d="M412.164 265.828L412.343 266.138L412.609 265.984L412.43 265.674L412.164 265.828Z" fill="black"/>
<path fill-rule="evenodd" clip-rule="evenodd" d="M417.605 268.071L416.675 268.608L416.521 268.341L417.451 267.804L417.605 268.071Z" fill="black"/>
<path fill-rule="evenodd" clip-rule="evenodd" d="M418.071 267.804L417.761 267.983L417.607 267.716L417.917 267.537L418.071 267.804Z" fill="black"/>
<path fill-rule="evenodd" clip-rule="evenodd" d="M418.535 267.535L418.225 267.714L418.071 267.447L418.381 267.268L418.535 267.535Z" fill="black"/>
<path fill-rule="evenodd" clip-rule="evenodd" d="M411.746 271.453L412.676 270.916L412.522 270.649L411.592 271.186L411.746 271.453Z" fill="black"/>
<path fill-rule="evenodd" clip-rule="evenodd" d="M411.281 271.721L411.591 271.542L411.438 271.276L411.128 271.455L411.281 271.721Z" fill="black"/>
<path fill-rule="evenodd" clip-rule="evenodd" d="M410.817 271.99L411.127 271.811L410.973 271.545L410.663 271.724L410.817 271.99Z" fill="black"/>
<path d="M418.824 142.112C418.653 142.75 417.997 143.129 417.358 142.958C416.72 142.787 416.341 142.131 416.512 141.492C416.683 140.854 417.339 140.475 417.978 140.646C418.616 140.817 418.995 141.473 418.824 142.112Z" fill="#23024D"/>
<path d="M401.75 214.52C401.613 215.031 401.088 215.334 400.577 215.197C400.066 215.061 399.763 214.536 399.9 214.025C400.037 213.514 400.562 213.211 401.073 213.348C401.583 213.485 401.886 214.01 401.75 214.52Z" fill="#23024D"/>
<path fill-rule="evenodd" clip-rule="evenodd" d="M292.59 271.335C293.079 271.466 293.581 271.176 293.712 270.687C293.843 270.198 293.553 269.696 293.064 269.565C292.575 269.434 292.073 269.724 291.942 270.213C291.811 270.702 292.101 271.204 292.59 271.335ZM292.455 271.837C293.221 272.042 294.009 271.588 294.214 270.822C294.419 270.056 293.965 269.268 293.199 269.063C292.433 268.858 291.645 269.312 291.44 270.078C291.235 270.844 291.689 271.632 292.455 271.837Z" fill="#23024D"/>
<path fill-rule="evenodd" clip-rule="evenodd" d="M387.666 1.69269C388.155 1.82368 388.657 1.53356 388.788 1.04469C388.919 0.555815 388.629 0.0533136 388.14 -0.0776797C387.651 -0.208673 387.149 0.0814464 387.018 0.57032C386.887 1.05919 387.177 1.56169 387.666 1.69269ZM387.531 2.19453C388.297 2.39979 389.085 1.94519 389.29 1.17916C389.495 0.413124 389.041 -0.374262 388.275 -0.57952C387.509 -0.784778 386.721 -0.33018 386.516 0.435852C386.311 1.20188 386.765 1.98927 387.531 2.19453Z" fill="#23024D"/>
<path fill-rule="evenodd" clip-rule="evenodd" d="M190.759 125.863C191.248 125.994 191.751 125.704 191.882 125.215C192.013 124.726 191.722 124.224 191.234 124.093C190.745 123.962 190.242 124.252 190.111 124.741C189.98 125.23 190.27 125.732 190.759 125.863ZM190.625 126.365C191.391 126.57 192.178 126.116 192.383 125.35C192.589 124.584 192.134 123.796 191.368 123.591C190.602 123.386 189.815 123.84 189.609 124.606C189.404 125.372 189.859 126.16 190.625 126.365Z" fill="#23024D"/>
<path fill-rule="evenodd" clip-rule="evenodd" d="M359.611 99.3667C360.1 99.4977 360.602 99.2076 360.733 98.7187C360.864 98.2298 360.574 97.7273 360.085 97.5963C359.596 97.4653 359.094 97.7555 358.963 98.2443C358.832 98.7332 359.122 99.2357 359.611 99.3667ZM359.476 99.8685C360.242 100.074 361.03 99.6192 361.235 98.8532C361.44 98.0871 360.986 97.2997 360.22 97.0945C359.454 96.8892 358.666 97.3438 358.461 98.1099C358.256 98.8759 358.71 99.6633 359.476 99.8685Z" fill="#23024D"/>
<g opacity="0.2">
<path d="M-51.4883 126.105L-36.826 180.861L-35.5012 180.506L-50.1635 125.75L-51.4883 126.105Z" fill="#D9BDE6"/>
<path d="M-110.292 131.394L-105.366 139.932L-104.178 139.245L-109.104 130.707L-110.292 131.394Z" fill="#D9BDE6"/>
<path d="M135.699 407.007L144.231 411.936L144.917 410.748L136.384 405.818L135.699 407.007Z" fill="#D9BDE6"/>
<path d="M151.344 416.044L173.386 428.778L174.072 427.59L152.03 414.856L151.344 416.044Z" fill="#D9BDE6"/>
<path d="M203.25 446.03L181.208 433.296L181.893 432.108L203.935 444.842L203.25 446.03Z" fill="#D9BDE6"/>
<path d="M-88.5382 169.103L-101.264 147.047L-100.076 146.361L-87.3504 168.417L-88.5382 169.103Z" fill="#D9BDE6"/>
<path d="M-84.018 176.93L-71.2921 198.986L-70.1043 198.3L-82.8302 176.243L-84.018 176.93Z" fill="#D9BDE6"/>
<path d="M-148.66 287.065L-142.316 288.766L-141.961 287.441L-148.305 285.74L-148.66 287.065Z" fill="#D9BDE6"/>
<path d="M-154.21 285.577L-170.864 281.111L-170.509 279.786L-153.855 284.251L-154.21 285.577Z" fill="#D9BDE6"/>
<path d="M-193.071 275.158L-176.417 279.623L-176.062 278.297L-192.716 273.832L-193.071 275.158Z" fill="#D9BDE6"/>
<path d="M104.127 503.522L100.842 497.83L102.03 497.144L105.314 502.835L104.127 503.522Z" fill="#D9BDE6"/>
<path d="M89.3472 477.908L97.968 492.849L99.1558 492.163L90.535 477.221L89.3472 477.908Z" fill="#D9BDE6"/>
<path d="M86.4732 472.927L77.8525 457.986L79.0402 457.3L87.661 472.241L86.4732 472.927Z" fill="#D9BDE6"/>
<path d="M-160.954 235.312L-182.996 222.578L-182.31 221.389L-160.268 234.123L-160.954 235.312Z" fill="#D9BDE6"/>
<path d="M-153.134 239.831L-131.092 252.565L-130.406 251.377L-152.448 238.643L-153.134 239.831Z" fill="#D9BDE6"/>
<path d="M129.237 454.364L111.24 436.355L112.21 435.385L130.207 453.394L129.237 454.364Z" fill="#D9BDE6"/>
<path d="M135.625 460.755L153.622 478.764L154.592 477.793L136.595 459.784L135.625 460.755Z" fill="#D9BDE6"/>
<path d="M-116.957 208.008L-107.668 217.303L-106.698 216.332L-115.987 207.037L-116.957 208.008Z" fill="#D9BDE6"/>
<path d="M-125.088 199.875L-150.052 174.895L-149.082 173.925L-124.119 198.905L-125.088 199.875Z" fill="#D9BDE6"/>
<path d="M-183.138 141.781L-158.754 166.181L-157.785 165.21L-182.168 140.811L-183.138 141.781Z" fill="#D9BDE6"/>
<path d="M68.2918 573.791L64.8918 561.094L66.2166 560.739L69.6166 573.436L68.2918 573.791Z" fill="#D9BDE6"/>
<path d="M52.7829 515.86L61.9202 549.984L63.2451 549.629L54.1077 515.505L52.7829 515.86Z" fill="#D9BDE6"/>
<path d="M49.5964 503.957L40.6715 470.627L41.9963 470.272L50.9212 503.602L49.5964 503.957Z" fill="#D9BDE6"/>
<path d="M203.386 382.043L148.665 367.371L149.02 366.045L203.741 380.717L203.386 382.043Z" fill="#D9BDE6"/>
<path d="M-136.101 411.939L-127.569 407.009L-128.255 405.821L-136.787 410.75L-136.101 411.939Z" fill="#D9BDE6"/>
<path d="M-143.215 416.043L-165.256 428.777L-165.942 427.589L-143.9 414.854L-143.215 416.043Z" fill="#D9BDE6"/>
<path d="M-195.118 446.03L-173.076 433.296L-173.762 432.108L-195.804 444.842L-195.118 446.03Z" fill="#D9BDE6"/>
<path d="M118.423 131.394L113.497 139.932L112.309 139.245L117.235 130.707L118.423 131.394Z" fill="#D9BDE6"/>
<path d="M96.664 169.103L109.39 147.047L108.202 146.361L95.4762 168.417L96.664 169.103Z" fill="#D9BDE6"/>
<path d="M92.1505 176.93L79.4245 198.986L78.2367 198.3L90.9627 176.243L92.1505 176.93Z" fill="#D9BDE6"/>
<path d="M156.791 287.065L150.447 288.766L150.092 287.441L156.436 285.74L156.791 287.065Z" fill="#D9BDE6"/>
<path d="M162.339 285.577L178.994 281.111L178.639 279.786L161.985 284.251L162.339 285.577Z" fill="#D9BDE6"/>
<path d="M201.202 275.158L184.548 279.623L184.193 278.297L200.847 273.832L201.202 275.158Z" fill="#D9BDE6"/>
<path d="M-95.9968 503.522L-92.7127 497.83L-93.9005 497.144L-97.1846 502.835L-95.9968 503.522Z" fill="#D9BDE6"/>
<path d="M-81.2174 477.908L-89.8382 492.849L-91.026 492.163L-82.4052 477.221L-81.2174 477.908Z" fill="#D9BDE6"/>
<path d="M-78.3435 472.927L-69.7227 457.986L-70.9105 457.3L-79.5313 472.241L-78.3435 472.927Z" fill="#D9BDE6"/>
<path d="M169.081 235.313L191.123 222.579L190.437 221.391L168.396 234.125L169.081 235.313Z" fill="#D9BDE6"/>
<path d="M161.263 239.831L139.221 252.565L138.535 251.377L160.577 238.643L161.263 239.831Z" fill="#D9BDE6"/>
<path d="M-121.11 454.364L-103.113 436.355L-104.083 435.385L-122.08 453.394L-121.11 454.364Z" fill="#D9BDE6"/>
<path d="M-127.499 460.754L-145.496 478.762L-146.466 477.792L-128.469 459.783L-127.499 460.754Z" fill="#D9BDE6"/>
<path d="M125.083 208.008L115.794 217.303L114.824 216.332L124.113 207.037L125.083 208.008Z" fill="#D9BDE6"/>
<path d="M133.214 199.875L158.178 174.895L157.208 173.925L132.244 198.905L133.214 199.875Z" fill="#D9BDE6"/>
<path d="M191.263 141.781L166.88 166.181L165.91 165.21L190.294 140.811L191.263 141.781Z" fill="#D9BDE6"/>
<path d="M-60.1607 573.791L-56.7607 561.094L-58.0855 560.739L-61.4855 573.436L-60.1607 573.791Z" fill="#D9BDE6"/>
<path d="M-44.6517 515.86L-53.7891 549.984L-55.1139 549.629L-45.9765 515.505L-44.6517 515.86Z" fill="#D9BDE6"/>
<path d="M-41.4653 503.957L-32.5404 470.627L-33.8652 470.272L-42.7901 503.602L-41.4653 503.957Z" fill="#D9BDE6"/>
<path d="M-195.255 382.043L-140.534 367.371L-140.889 366.045L-195.61 380.717L-195.255 382.043Z" fill="#D9BDE6"/>
<path d="M59.6168 126.105L44.9544 180.861L43.6296 180.506L58.2919 125.75L59.6168 126.105Z" fill="#D9BDE6"/>
<path d="M-238.175 329.455H-248V328.334H-238.175V329.455Z" fill="#D9BDE6"/>
<path d="M-192.983 329.455H-228.352V328.334H-192.983V329.455Z" fill="#D9BDE6"/>
<path d="M234.386 329.455H94.4582L-45.4699 329.455H-181.193V328.334L-45.4699 328.334H94.4582H234.386V329.455Z" fill="#D9BDE6"/>
<path d="M292.352 329.455H256.983V328.334L292.352 328.334V329.455Z" fill="#D9BDE6"/>
<path d="M312 329.455H302.175V328.334H312V329.455Z" fill="#D9BDE6"/>
<path d="M5.17581 83L5.17582 91.6639H4.06546L4.06545 83H5.17581Z" fill="#D9BDE6"/>
<path d="M5.17581 100.328L5.17582 131.518H4.06546L4.06545 100.328H5.17581Z" fill="#D9BDE6"/>
<path d="M5.17579 151.446L5.17582 517.93H4.06546L4.06543 151.446H5.17579Z" fill="#D9BDE6"/>
<path d="M5.17582 528.327L5.17582 559.517H4.06546L4.06546 528.327H5.17582Z" fill="#D9BDE6"/>
<path d="M5.17582 568.181L5.17582 576.845H4.06546L4.06546 568.181H5.17582Z" fill="#D9BDE6"/>
<path fill-rule="evenodd" clip-rule="evenodd" d="M2.30303 199.49C3.09251 199.476 3.88368 199.469 4.67648 199.469C5.46928 199.469 6.26044 199.476 7.04993 199.49L7.02957 200.651C6.24687 200.637 5.46248 200.631 4.67648 200.631C3.89048 200.631 3.10609 200.637 2.32339 200.651L2.30303 199.49ZM10.591 199.599C12.1733 199.668 13.7484 199.765 15.3158 199.889L15.224 201.047C13.6702 200.924 12.1088 200.828 10.5402 200.759L10.591 199.599ZM-5.96284 199.889C-4.39546 199.765 -2.82038 199.668 -1.23809 199.599L-1.18721 200.759C-2.75583 200.828 -4.31726 200.924 -5.87101 201.047L-5.96284 199.889ZM18.8425 200.216C20.4161 200.383 21.9815 200.578 23.5381 200.799L23.3745 201.949C21.8315 201.729 20.2799 201.537 18.72 201.371L18.8425 200.216ZM-14.1852 200.799C-12.6285 200.578 -11.0632 200.383 -9.48956 200.216L-9.36703 201.371C-10.9269 201.537 -12.4786 201.729 -14.0216 201.949L-14.1852 200.799ZM27.0447 201.346C28.6021 201.611 30.1502 201.902 31.6885 202.22L31.4533 203.357C29.9285 203.042 28.394 202.753 26.8503 202.491L27.0447 201.346ZM-22.3355 202.22C-20.7972 201.902 -19.2491 201.611 -17.6917 201.346L-17.4974 202.491C-19.0411 202.753 -20.5756 203.042 -22.1003 203.357L-22.3355 202.22ZM-30.3869 204.151C-28.8699 203.736 -27.342 203.348 -25.8036 202.986L-25.5379 204.117C-27.0627 204.475 -28.5771 204.86 -30.0808 205.271L-30.3869 204.151ZM35.1566 202.986C36.6949 203.348 38.2229 203.736 39.7399 204.151L39.4337 205.271C37.9301 204.86 36.4156 204.475 34.8909 204.117L35.1566 202.986ZM-38.2979 206.583C-36.8084 206.073 -35.3069 205.589 -33.794 205.131L-33.4577 206.243C-34.9573 206.697 -36.4456 207.176 -37.9218 207.681L-38.2979 206.583ZM43.1469 205.131C44.6599 205.589 46.1614 206.073 47.6508 206.583L47.2748 207.681C45.7985 207.176 44.3103 206.697 42.8107 206.243L43.1469 205.131ZM-46.0379 209.507C-44.5837 208.904 -43.1164 208.327 -41.6364 207.776L-41.231 208.864C-42.6978 209.411 -44.1522 209.983 -45.5936 210.579L-46.0379 209.507ZM50.9894 207.776C52.4694 208.327 53.9367 208.904 55.3909 209.507L54.9466 210.579C53.5052 209.983 52.0508 209.411 50.5839 208.864L50.9894 207.776ZM-53.5814 212.912C-52.1678 212.22 -50.74 211.552 -49.2985 210.909L-48.8254 211.969C-50.2542 212.607 -51.6694 213.269 -53.0706 213.955L-53.5814 212.912ZM58.6514 210.909C60.093 211.552 61.5208 212.22 62.9344 212.912L62.4235 213.955C61.0224 213.269 59.6072 212.607 58.1783 211.969L58.6514 210.909ZM-60.8967 216.785C-59.5285 216.004 -58.1449 215.248 -56.7465 214.516L-56.2077 215.544C-57.5938 216.27 -58.9653 217.02 -60.3215 217.793L-60.8967 216.785ZM66.0994 214.516C67.4979 215.248 68.8815 216.004 70.2497 216.785L69.6745 217.793C68.3183 217.02 66.9468 216.27 65.5607 215.544L66.0994 214.516ZM-67.9537 221.107C-66.6364 220.242 -65.3026 219.4 -63.9529 218.582L-63.3508 219.575C-64.6886 220.386 -66.0107 221.221 -67.3165 222.078L-67.9537 221.107ZM73.3059 218.582C74.6556 219.4 75.9894 220.242 77.3067 221.107L76.6695 222.078C75.3637 221.221 74.0416 220.386 72.7037 219.575L73.3059 218.582ZM-74.7267 225.862C-73.4662 224.917 -72.1882 223.994 -70.8931 223.093L-70.2301 224.046C-71.5138 224.939 -72.7806 225.854 -74.0301 226.791L-74.7267 225.862ZM80.2461 223.093C81.5411 223.994 82.8192 224.917 84.0797 225.862L83.3831 226.791C82.1336 225.854 80.8668 224.939 79.5831 224.046L80.2461 223.093ZM-81.1907 231.031C-79.9912 230.009 -78.773 229.007 -77.5368 228.028L-76.8156 228.938C-78.0409 229.909 -79.2484 230.902 -80.4374 231.915L-81.1907 231.031ZM86.8898 228.028C88.126 229.007 89.3441 230.009 90.5436 231.031L89.7904 231.915C88.6014 230.902 87.3939 229.909 86.1685 228.938L86.8898 228.028ZM-87.319 236.593C-86.1852 235.497 -85.0318 234.422 -83.8592 233.367L-83.0826 234.231C-84.2449 235.276 -85.3882 236.342 -86.512 237.428L-87.319 236.593ZM93.2122 233.367C94.3848 234.422 95.5382 235.497 96.6719 236.593L95.865 237.428C94.7412 236.342 93.5979 235.276 92.4356 234.231L93.2122 233.367ZM-93.0883 242.526C-92.025 241.362 -90.941 240.217 -89.8368 239.091L-89.0078 239.905C-90.1023 241.02 -91.1768 242.155 -92.2309 243.309L-93.0883 242.526ZM99.1898 239.091C100.294 240.217 101.378 241.362 102.441 242.526L101.584 243.309C100.53 242.155 99.4553 241.02 98.3608 239.905L99.1898 239.091ZM-98.4757 248.808C-97.487 247.58 -96.4767 246.369 -95.4452 245.177L-94.567 245.937C-95.5895 247.119 -96.5909 248.319 -97.5709 249.536L-98.4757 248.808ZM104.798 245.177C105.83 246.369 106.84 247.58 107.829 248.808L106.924 249.536C105.944 248.319 104.942 247.119 103.92 245.937L104.798 245.177ZM-103.459 255.416C-102.549 254.127 -101.617 252.856 -100.662 251.602L-99.7384 252.306C-100.685 253.548 -101.609 254.809 -102.511 256.086L-103.459 255.416ZM110.015 251.602C110.97 252.856 111.902 254.127 112.812 255.416L111.864 256.086C110.962 254.809 110.038 253.548 109.091 252.306L110.015 251.602ZM-108.019 262.324C-107.191 260.98 -106.34 259.652 -105.466 258.341L-104.5 258.985C-105.366 260.285 -106.21 261.601 -107.03 262.933L-108.019 262.324ZM114.819 258.341C115.693 259.652 116.544 260.98 117.372 262.324L116.383 262.933C115.563 261.601 114.719 260.285 113.853 258.985L114.819 258.341ZM-112.133 269.504C-111.392 268.11 -110.626 266.732 -109.837 265.368L-108.832 265.95C-109.614 267.302 -110.373 268.668 -111.108 270.049L-112.133 269.504ZM119.19 265.368C119.979 266.732 120.745 268.111 121.486 269.504L120.461 270.049C119.726 268.668 118.967 267.302 118.185 265.95L119.19 265.368ZM-115.785 276.93C-115.134 275.493 -114.457 274.068 -113.756 272.659L-112.716 273.176C-113.411 274.573 -114.082 275.985 -114.727 277.409L-115.785 276.93ZM123.109 272.659C123.81 274.069 124.487 275.493 125.138 276.93L124.08 277.409C123.435 275.985 122.764 274.573 122.069 273.176L123.109 272.659ZM-118.959 284.575C-118.401 283.098 -117.816 281.634 -117.206 280.183L-116.135 280.633C-116.74 282.071 -117.319 283.523 -117.873 284.986L-118.959 284.575ZM126.559 280.183C127.169 281.634 127.753 283.098 128.312 284.575L127.226 284.986C126.672 283.523 126.093 282.072 125.488 280.634L126.559 280.183ZM-121.641 292.406C-121.177 290.895 -120.686 289.396 -120.169 287.909L-119.072 288.29C-119.584 289.764 -120.071 291.25 -120.531 292.747L-121.641 292.406ZM129.522 287.909C130.039 289.396 130.53 290.895 130.994 292.406L129.884 292.747C129.424 291.25 128.937 289.764 128.425 288.29L129.522 287.909ZM-123.817 300.388C-123.45 298.851 -123.056 297.325 -122.635 295.809L-121.516 296.12C-121.933 297.622 -122.324 299.135 -122.687 300.658L-123.817 300.388ZM131.988 295.809C132.409 297.325 132.803 298.851 133.17 300.388L132.04 300.658C131.677 299.135 131.286 297.622 130.869 296.12L131.988 295.809ZM-125.481 308.496C-125.213 306.939 -124.917 305.391 -124.594 303.854L-123.458 304.092C-123.778 305.616 -124.071 307.15 -124.337 308.693L-125.481 308.496ZM133.947 303.854C134.27 305.391 134.566 306.939 134.834 308.496L133.69 308.693C133.424 307.15 133.131 305.616 132.811 304.092L133.947 303.854ZM-126.629 316.696C-126.459 315.122 -126.262 313.558 -126.037 312.001L-124.887 312.167C-125.11 313.71 -125.306 315.261 -125.474 316.82L-126.629 316.696ZM135.39 312.001C135.615 313.558 135.812 315.122 135.981 316.696L134.827 316.82C134.659 315.261 134.463 313.71 134.24 312.167L135.39 312.001ZM-127.256 324.947C-127.185 323.365 -127.087 321.79 -126.96 320.222L-125.803 320.316C-125.928 321.869 -126.026 323.43 -126.096 324.999L-127.256 324.947ZM136.313 320.223C136.44 321.79 136.538 323.365 136.609 324.947L135.449 324.999C135.379 323.431 135.281 321.869 135.156 320.316L136.313 320.223ZM-127.387 330.862C-127.387 330.069 -127.38 329.278 -127.366 328.488L-126.205 328.509C-126.219 329.292 -126.226 330.076 -126.226 330.862C-126.226 331.648 -126.219 332.432 -126.205 333.215L-127.366 333.236C-127.38 332.446 -127.387 331.655 -127.387 330.862ZM136.719 328.489C136.733 329.278 136.74 330.069 136.74 330.862C136.74 331.655 136.733 332.446 136.719 333.236L135.558 333.215C135.572 332.432 135.579 331.648 135.579 330.862C135.579 330.076 135.572 329.292 135.558 328.509L136.719 328.489ZM-126.96 341.502C-127.087 339.934 -127.185 338.359 -127.256 336.777L-126.096 336.725C-126.026 338.294 -125.928 339.855 -125.803 341.408L-126.96 341.502ZM136.609 336.777C136.538 338.359 136.44 339.934 136.313 341.502L135.156 341.408C135.281 339.855 135.379 338.294 135.449 336.725L136.609 336.777ZM-126.037 349.723C-126.262 348.167 -126.459 346.602 -126.629 345.028L-125.474 344.904C-125.306 346.463 -125.11 348.014 -124.887 349.557L-126.037 349.723ZM135.981 345.029C135.812 346.602 135.615 348.167 135.39 349.723L134.24 349.557C134.463 348.014 134.659 346.463 134.827 344.904L135.981 345.029ZM-124.594 357.87C-124.917 356.333 -125.213 354.785 -125.481 353.229L-124.337 353.031C-124.071 354.574 -123.778 356.108 -123.458 357.632L-124.594 357.87ZM134.834 353.229C134.566 354.785 134.27 356.333 133.947 357.87L132.811 357.632C133.131 356.108 133.424 354.574 133.69 353.031L134.834 353.229ZM-122.635 365.915C-123.056 364.399 -123.45 362.873 -123.817 361.336L-122.687 361.066C-122.324 362.589 -121.933 364.102 -121.516 365.605L-122.635 365.915ZM133.17 361.336C132.803 362.873 132.409 364.399 131.988 365.915L130.869 365.605C131.286 364.102 131.677 362.589 132.04 361.066L133.17 361.336ZM-120.169 373.816C-120.686 372.328 -121.177 370.829 -121.641 369.318L-120.531 368.977C-120.071 370.474 -119.584 371.96 -119.072 373.434L-120.169 373.816ZM130.994 369.318C130.53 370.829 130.039 372.328 129.522 373.816L128.425 373.434C128.937 371.96 129.424 370.474 129.884 368.977L130.994 369.318ZM-117.206 381.541C-117.816 380.09 -118.401 378.626 -118.959 377.149L-117.873 376.738C-117.319 378.202 -116.74 379.653 -116.135 381.091L-117.206 381.541ZM128.312 377.149C127.753 378.626 127.169 380.09 126.559 381.541L125.488 381.091C126.093 379.653 126.672 378.202 127.226 376.738L128.312 377.149ZM-113.756 389.065C-114.457 387.656 -115.134 386.232 -115.785 384.794L-114.727 384.315C-114.082 385.74 -113.411 387.151 -112.716 388.548L-113.756 389.065ZM125.138 384.794C124.487 386.232 123.81 387.656 123.109 389.065L122.069 388.548C122.764 387.151 123.435 385.74 124.08 384.315L125.138 384.794ZM-109.837 396.356C-110.626 394.992 -111.392 393.614 -112.133 392.22L-111.108 391.675C-110.373 393.056 -109.614 394.423 -108.832 395.774L-109.837 396.356ZM121.486 392.22C120.745 393.614 119.979 394.992 119.19 396.356L118.185 395.774C118.967 394.423 119.726 393.056 120.461 391.675L121.486 392.22ZM-105.466 403.383C-106.34 402.072 -107.191 400.744 -108.019 399.4L-107.03 398.791C-106.21 400.123 -105.366 401.439 -104.5 402.739L-105.466 403.383ZM117.372 399.4C116.544 400.744 115.693 402.072 114.819 403.383L113.853 402.739C114.719 401.439 115.563 400.123 116.383 398.791L117.372 399.4ZM-100.662 410.122C-101.617 408.868 -102.549 407.597 -103.459 406.308L-102.511 405.639C-101.609 406.916 -100.685 408.176 -99.7384 409.419L-100.662 410.122ZM112.812 406.308C111.902 407.597 110.97 408.868 110.015 410.122L109.091 409.419C110.038 408.176 110.962 406.916 111.864 405.639L112.812 406.308ZM-95.4452 416.547C-96.4767 415.355 -97.4871 414.144 -98.4757 412.916L-97.5709 412.188C-96.591 413.406 -95.5895 414.606 -94.5671 415.787L-95.4452 416.547ZM107.829 412.916C106.84 414.144 105.83 415.355 104.798 416.547L103.92 415.787C104.942 414.606 105.944 413.406 106.924 412.188L107.829 412.916ZM-89.8368 422.633C-90.941 421.507 -92.025 420.362 -93.0884 419.198L-92.2309 418.415C-91.1769 419.569 -90.1023 420.704 -89.0078 421.819L-89.8368 422.633ZM102.441 419.198C101.378 420.362 100.294 421.507 99.1897 422.633L98.3607 421.819C99.4553 420.704 100.53 419.569 101.584 418.415L102.441 419.198ZM-83.8593 428.357C-85.0318 427.302 -86.1852 426.227 -87.319 425.131L-86.512 424.296C-85.3882 425.382 -84.2449 426.448 -83.0826 427.493L-83.8593 428.357ZM96.6719 425.131C95.5382 426.227 94.3847 427.302 93.2122 428.357L92.4356 427.493C93.5978 426.448 94.7412 425.382 95.865 424.296L96.6719 425.131ZM-77.5368 433.696C-78.773 432.717 -79.9912 431.715 -81.1907 430.693L-80.4374 429.809C-79.2484 430.823 -78.0409 431.815 -76.8156 432.786L-77.5368 433.696ZM90.5436 430.693C89.3441 431.715 88.126 432.717 86.8898 433.696L86.1685 432.786C87.3939 431.815 88.6014 430.823 89.7903 429.809L90.5436 430.693ZM-70.8931 438.631C-72.1882 437.731 -73.4662 436.807 -74.7267 435.862L-74.0301 434.933C-72.7806 435.87 -71.5138 436.785 -70.2301 437.678L-70.8931 438.631ZM84.0797 435.862C82.8192 436.807 81.5411 437.731 80.2461 438.631L79.583 437.678C80.8667 436.785 82.1336 435.87 83.383 434.933L84.0797 435.862ZM-63.9529 443.142C-65.3026 442.324 -66.6364 441.482 -67.9538 440.617L-67.3165 439.646C-66.0107 440.503 -64.6886 441.338 -63.3508 442.149L-63.9529 443.142ZM77.3067 440.617C75.9894 441.482 74.6556 442.324 73.3058 443.142L72.7037 442.149C74.0416 441.338 75.3637 440.503 76.6694 439.646L77.3067 440.617ZM-56.7465 447.209C-58.1449 446.476 -59.5285 445.72 -60.8968 444.94L-60.3215 443.931C-58.9653 444.704 -57.5939 445.454 -56.2077 446.18L-56.7465 447.209ZM70.2497 444.94C68.8815 445.72 67.4979 446.476 66.0994 447.209L65.5607 446.18C66.9468 445.454 68.3182 444.704 69.6744 443.931L70.2497 444.94ZM-49.2985 450.816C-50.74 450.172 -52.1679 449.504 -53.5814 448.812L-53.0706 447.769C-51.6694 448.455 -50.2542 449.118 -48.8254 449.755L-49.2985 450.816ZM62.9344 448.812C61.5208 449.504 60.093 450.172 58.6514 450.816L58.1783 449.755C59.6071 449.118 61.0224 448.455 62.4235 447.769L62.9344 448.812ZM-41.6365 453.948C-43.1164 453.397 -44.5838 452.82 -46.038 452.218L-45.5936 451.145C-44.1522 451.742 -42.6978 452.314 -41.231 452.86L-41.6365 453.948ZM55.3909 452.218C53.9367 452.82 52.4694 453.397 50.9894 453.948L50.5839 452.86C52.0508 452.314 53.5052 451.742 54.9466 451.145L55.3909 452.218ZM-33.794 456.593C-35.3069 456.135 -36.8084 455.651 -38.2979 455.141L-37.9218 454.043C-36.4456 454.548 -34.9573 455.028 -33.4577 455.481L-33.794 456.593ZM47.6508 455.141C46.1614 455.651 44.6599 456.135 43.1469 456.593L42.8107 455.481C44.3103 455.028 45.7985 454.548 47.2748 454.043L47.6508 455.141ZM-25.8036 458.738C-27.342 458.376 -28.8699 457.988 -30.3869 457.573L-30.0808 456.453C-28.5771 456.864 -27.0627 457.249 -25.5379 457.607L-25.8036 458.738ZM39.7399 457.573C38.2229 457.988 36.6949 458.376 35.1566 458.738L34.8908 457.607C36.4156 457.249 37.9301 456.864 39.4337 456.453L39.7399 457.573ZM-17.6917 460.378C-19.2491 460.114 -20.7972 459.822 -22.3355 459.504L-22.1003 458.367C-20.5756 458.682 -19.0411 458.971 -17.4974 459.233L-17.6917 460.378ZM31.6884 459.504C30.1502 459.822 28.6021 460.114 27.0447 460.378L26.8503 459.233C28.394 458.971 29.9285 458.682 31.4533 458.367L31.6884 459.504ZM-9.48955 461.508C-11.0632 461.341 -12.6285 461.146 -14.1852 460.925L-14.0216 459.775C-12.4786 459.995 -10.9269 460.187 -9.36702 460.353L-9.48955 461.508ZM23.5381 460.925C21.9815 461.146 20.4161 461.341 18.8425 461.508L18.72 460.353C20.2799 460.187 21.8316 459.995 23.3745 459.775L23.5381 460.925ZM-1.23809 462.126C-2.82038 462.056 -4.39546 461.959 -5.96284 461.835L-5.87102 460.677C-4.31726 460.8 -2.75582 460.896 -1.1872 460.965L-1.23809 462.126ZM15.3158 461.835C13.7484 461.959 12.1733 462.056 10.591 462.126L10.5402 460.965C12.1088 460.896 13.6702 460.8 15.224 460.677L15.3158 461.835ZM4.67648 462.255C3.88368 462.255 3.09251 462.248 2.30303 462.234L2.32339 461.073C3.10609 461.087 3.89048 461.094 4.67648 461.094C5.46248 461.094 6.24687 461.087 7.02957 461.073L7.04993 462.234C6.26044 462.248 5.46928 462.255 4.67648 462.255Z" fill="#D9BDE6"/>
<path d="M-77.9241 411.824C-77.9241 366.579 -40.9462 329.892 4.67836 329.892C50.3029 329.892 87.2808 366.579 87.2808 411.824C87.2808 457.069 50.3029 493.755 4.67836 493.755C3.90445 493.755 3.13303 493.745 2.36427 493.724L2.3326 494.885C3.11192 494.906 3.89389 494.917 4.67836 494.917C50.9354 494.917 88.4422 457.719 88.4422 411.824C88.4422 365.928 50.9354 328.731 4.67836 328.731C-41.5787 328.731 -79.0854 365.928 -79.0854 411.824H-77.9241Z" fill="#D9BDE6"/>
<path d="M-79.0854 411.824C-79.0854 412.608 -79.0745 413.39 -79.0527 414.17L-77.8918 414.137C-77.9133 413.369 -77.9241 412.598 -77.9241 411.824H-79.0854Z" fill="#D9BDE6"/>
<path d="M-78.881 417.675C-78.7712 419.24 -78.6178 420.793 -78.4218 422.333L-77.2698 422.186C-77.463 420.668 -77.6142 419.137 -77.7225 417.594L-78.881 417.675Z" fill="#D9BDE6"/>
<path d="M-77.9048 425.804C-77.6409 427.349 -77.3341 428.88 -76.9856 430.394L-75.8538 430.134C-76.1974 428.641 -76.4999 427.132 -76.7601 425.609L-77.9048 425.804Z" fill="#D9BDE6"/>
<path d="M-76.1253 433.797C-75.7092 435.306 -75.2512 436.799 -74.7527 438.272L-73.6526 437.9C-74.144 436.447 -74.5955 434.976 -75.0057 433.488L-76.1253 433.797Z" fill="#D9BDE6"/>
<path d="M-73.5572 441.573C-72.9931 443.032 -72.3887 444.471 -71.7455 445.889L-70.6879 445.409C-71.3221 444.011 -71.9179 442.592 -72.474 441.154L-73.5572 441.573Z" fill="#D9BDE6"/>
<path d="M-70.2275 449.054C-69.5218 450.448 -68.7777 451.82 -67.9966 453.168L-66.9918 452.586C-67.7619 451.257 -68.4955 449.904 -69.1913 448.529L-70.2275 449.054Z" fill="#D9BDE6"/>
<path d="M-66.173 456.168C-65.3337 457.485 -64.458 458.777 -63.5475 460.042L-62.6048 459.364C-63.5026 458.116 -64.3661 456.842 -65.1937 455.544L-66.173 456.168Z" fill="#D9BDE6"/>
<path d="M-61.4379 462.848C-60.4739 464.075 -59.476 465.275 -58.4454 466.446L-57.5736 465.679C-58.5899 464.524 -59.574 463.341 -60.5246 462.13L-61.4379 462.848Z" fill="#D9BDE6"/>
<path d="M-56.0718 469.032C-54.9931 470.159 -53.8829 471.256 -52.7425 472.321L-51.9497 471.473C-53.0742 470.422 -54.1691 469.34 -55.2328 468.229L-56.0718 469.032Z" fill="#D9BDE6"/>
<path d="M-50.1283 474.663C-48.9456 475.679 -47.734 476.663 -46.4947 477.613L-45.7882 476.691C-47.0103 475.754 -48.2052 474.784 -49.3716 473.782L-50.1283 474.663Z" fill="#D9BDE6"/>
<path d="M-43.665 479.69C-42.3897 480.585 -41.0881 481.446 -39.7615 482.271L-39.1481 481.285C-40.4563 480.472 -41.74 479.622 -42.9976 478.739L-43.665 479.69Z" fill="#D9BDE6"/>
<path d="M-36.743 484.063C-35.3873 484.829 -34.0079 485.559 -32.6062 486.252L-32.0919 485.21C-33.4742 484.528 -34.8345 483.808 -36.1714 483.052L-36.743 484.063Z" fill="#D9BDE6"/>
<path d="M-29.4274 487.74C-28.0043 488.37 -26.5601 488.962 -25.0963 489.514L-24.6863 488.427C-26.1298 487.883 -27.5539 487.299 -28.9573 486.678L-29.4274 487.74Z" fill="#D9BDE6"/>
<path d="M-21.7875 490.684C-20.3107 491.171 -18.8156 491.619 -17.3035 492.026L-17.0018 490.904C-18.4928 490.503 -19.9672 490.062 -21.4234 489.581L-21.7875 490.684Z" fill="#D9BDE6"/>
<path d="M-13.8964 492.867C-12.3804 493.207 -10.8489 493.507 -9.30303 493.764L-9.11208 492.619C-10.6366 492.365 -12.1469 492.069 -13.6419 491.733L-13.8964 492.867Z" fill="#D9BDE6"/>
<path d="M-5.83048 494.269C-4.29034 494.46 -2.73722 494.61 -1.17233 494.717L-1.09302 493.559C-2.63657 493.453 -4.1684 493.305 -5.68737 493.117L-5.83048 494.269Z" fill="#D9BDE6"/>
<path fill-rule="evenodd" clip-rule="evenodd" d="M4.67836 328.547C50.3029 328.547 87.2808 291.861 87.2808 246.616H88.4422C88.4422 292.511 50.9354 329.709 4.67836 329.709C-41.5787 329.709 -79.0854 292.511 -79.0854 246.616C-79.0854 200.72 -41.5787 163.523 4.67836 163.523V164.684C-40.9462 164.684 -77.9241 201.371 -77.9241 246.616C-77.9241 291.861 -40.9462 328.547 4.67836 328.547Z" fill="#D9BDE6"/>
<path fill-rule="evenodd" clip-rule="evenodd" d="M88.4094 244.27C88.4312 245.049 88.4422 245.831 88.4422 246.616H87.2808C87.2808 245.842 87.27 245.071 87.2486 244.302L88.4094 244.27ZM87.7786 236.106C87.9745 237.646 88.1279 239.199 88.2377 240.764L87.0792 240.845C86.971 239.302 86.8197 237.771 86.6265 236.253L87.7786 236.106ZM86.3423 228.045C86.6908 229.56 86.9977 231.09 87.2615 232.635L86.1168 232.831C85.8566 231.308 85.5541 229.799 85.2105 228.306L86.3423 228.045ZM84.1095 220.167C84.6079 221.641 85.0659 223.133 85.482 224.642L84.3624 224.951C83.9522 223.463 83.5008 221.992 83.0094 220.539L84.1095 220.167ZM81.1022 212.551C81.7455 213.969 82.3498 215.408 82.9139 216.867L81.8307 217.286C81.2746 215.847 80.6788 214.429 80.0446 213.031L81.1022 212.551ZM77.3534 205.271C78.1345 206.619 78.8785 207.991 79.5842 209.386L78.548 209.91C77.8522 208.535 77.1186 207.183 76.3485 205.853L77.3534 205.271ZM72.9042 198.397C73.8147 199.663 74.6904 200.955 75.5297 202.272L74.5504 202.896C73.7228 201.597 72.8594 200.323 71.9615 199.076L72.9042 198.397ZM67.8022 191.993C68.8327 193.164 69.8306 194.364 70.7946 195.592L69.8813 196.309C68.9307 195.099 67.9466 193.915 66.9304 192.761L67.8022 191.993ZM62.0993 186.118C63.2396 187.184 64.3498 188.281 65.4285 189.407L64.5896 190.211C63.5258 189.099 62.431 188.018 61.3064 186.967L62.0993 186.118ZM55.8514 180.827C57.0907 181.777 58.3023 182.76 59.485 183.776L58.7283 184.657C57.562 183.655 56.367 182.685 55.1449 181.748L55.8514 180.827ZM49.1182 176.168C50.4448 176.993 51.7465 177.854 53.0217 178.75L52.3543 179.7C51.0967 178.817 49.8131 177.968 48.5048 177.154L49.1182 176.168ZM41.9629 172.188C43.3647 172.88 44.7441 173.61 46.0998 174.377L45.5281 175.388C44.1912 174.632 42.8309 173.912 41.4487 173.229L41.9629 172.188ZM34.4531 168.926C35.9169 169.478 37.361 170.07 38.7842 170.7L38.314 171.762C36.9106 171.14 35.4865 170.557 34.0431 170.012L34.4531 168.926ZM26.6603 166.414C28.1723 166.82 29.6674 167.268 31.1442 167.756L30.7802 168.858C29.3239 168.378 27.8496 167.936 26.3585 167.535L26.6603 166.414ZM18.6597 164.675C20.2056 164.933 21.7371 165.232 23.2531 165.573L22.9986 166.706C21.5037 166.37 19.9933 166.075 18.4688 165.821L18.6597 164.675ZM10.5291 163.722C12.0939 163.829 13.6471 163.979 15.1872 164.17L15.0441 165.323C13.5251 165.134 11.9933 164.987 10.4497 164.881L10.5291 163.722ZM4.67836 163.523C5.46283 163.523 6.2448 163.533 7.02412 163.555L6.99246 164.716C6.22369 164.695 5.45227 164.684 4.67836 164.684V163.523Z" fill="#D9BDE6"/>
</g>
<g opacity="0.2">
<path d="M596.512 -220.895L611.174 -166.139L612.499 -166.494L597.836 -221.25L596.512 -220.895Z" fill="#D9BDE6"/>
<path d="M537.708 -215.606L542.634 -207.068L543.822 -207.755L538.896 -216.293L537.708 -215.606Z" fill="#D9BDE6"/>
<path d="M783.699 60.0067L792.231 64.9361L792.917 63.7475L784.384 58.8181L783.699 60.0067Z" fill="#D9BDE6"/>
<path d="M799.344 69.0442L821.386 81.7784L822.072 80.5899L800.03 67.8556L799.344 69.0442Z" fill="#D9BDE6"/>
<path d="M851.25 99.0305L829.208 86.2963L829.893 85.1077L851.935 97.8419L851.25 99.0305Z" fill="#D9BDE6"/>
<path d="M559.462 -177.897L546.736 -199.953L547.924 -200.639L560.65 -178.583L559.462 -177.897Z" fill="#D9BDE6"/>
<path d="M563.982 -170.07L576.708 -148.014L577.896 -148.7L565.17 -170.757L563.982 -170.07Z" fill="#D9BDE6"/>
<path d="M499.34 -59.9346L505.684 -58.2335L506.039 -59.5592L499.695 -61.2603L499.34 -59.9346Z" fill="#D9BDE6"/>
<path d="M493.79 -61.4234L477.136 -65.8887L477.491 -67.2144L494.145 -62.749L493.79 -61.4234Z" fill="#D9BDE6"/>
<path d="M454.929 -71.8422L471.583 -67.3769L471.938 -68.7026L455.284 -73.1679L454.929 -71.8422Z" fill="#D9BDE6"/>
<path d="M752.127 156.522L748.842 150.83L750.03 150.144L753.314 155.835L752.127 156.522Z" fill="#D9BDE6"/>
<path d="M737.347 130.908L745.968 145.849L747.156 145.163L738.535 130.221L737.347 130.908Z" fill="#D9BDE6"/>
<path d="M734.473 125.927L725.852 110.986L727.04 110.3L735.661 125.241L734.473 125.927Z" fill="#D9BDE6"/>
<path d="M487.046 -111.688L465.004 -124.422L465.69 -125.611L487.732 -112.877L487.046 -111.688Z" fill="#D9BDE6"/>
<path d="M494.866 -107.169L516.908 -94.4345L517.594 -95.6231L495.552 -108.357L494.866 -107.169Z" fill="#D9BDE6"/>
<path d="M777.237 107.364L759.24 89.3551L760.21 88.3847L778.207 106.394L777.237 107.364Z" fill="#D9BDE6"/>
<path d="M783.625 113.755L801.622 131.764L802.592 130.793L784.595 112.784L783.625 113.755Z" fill="#D9BDE6"/>
<path d="M531.043 -138.992L540.332 -129.697L541.302 -130.668L532.013 -139.963L531.043 -138.992Z" fill="#D9BDE6"/>
<path d="M522.912 -147.125L497.948 -172.105L498.918 -173.075L523.881 -148.095L522.912 -147.125Z" fill="#D9BDE6"/>
<path d="M464.862 -205.219L489.246 -180.819L490.215 -181.79L465.832 -206.189L464.862 -205.219Z" fill="#D9BDE6"/>
<path d="M716.292 226.791L712.892 214.094L714.217 213.739L717.617 226.436L716.292 226.791Z" fill="#D9BDE6"/>
<path d="M700.783 168.86L709.92 202.984L711.245 202.629L702.108 168.505L700.783 168.86Z" fill="#D9BDE6"/>
<path d="M697.596 156.957L688.671 123.627L689.996 123.272L698.921 156.602L697.596 156.957Z" fill="#D9BDE6"/>
<path d="M851.386 35.043L796.665 20.3711L797.02 19.0454L851.741 33.7173L851.386 35.043Z" fill="#D9BDE6"/>
<path d="M511.899 64.9388L520.431 60.0094L519.745 58.8208L511.213 63.7502L511.899 64.9388Z" fill="#D9BDE6"/>
<path d="M504.785 69.0429L482.744 81.7771L482.058 80.5885L504.1 67.8543L504.785 69.0429Z" fill="#D9BDE6"/>
<path d="M452.882 99.0305L474.924 86.2963L474.238 85.1077L452.196 97.8419L452.882 99.0305Z" fill="#D9BDE6"/>
<path d="M766.423 -215.606L761.497 -207.068L760.309 -207.755L765.235 -216.293L766.423 -215.606Z" fill="#D9BDE6"/>
<path d="M744.664 -177.897L757.39 -199.953L756.202 -200.639L743.476 -178.583L744.664 -177.897Z" fill="#D9BDE6"/>
<path d="M740.15 -170.07L727.425 -148.014L726.237 -148.7L738.963 -170.757L740.15 -170.07Z" fill="#D9BDE6"/>
<path d="M804.791 -59.9346L798.447 -58.2335L798.092 -59.5592L804.436 -61.2603L804.791 -59.9346Z" fill="#D9BDE6"/>
<path d="M810.339 -61.4234L826.994 -65.8887L826.639 -67.2144L809.985 -62.749L810.339 -61.4234Z" fill="#D9BDE6"/>
<path d="M849.202 -71.8422L832.548 -67.3769L832.193 -68.7026L848.847 -73.1679L849.202 -71.8422Z" fill="#D9BDE6"/>
<path d="M552.003 156.522L555.287 150.83L554.1 150.144L550.815 155.835L552.003 156.522Z" fill="#D9BDE6"/>
<path d="M566.783 130.908L558.162 145.849L556.974 145.163L565.595 130.221L566.783 130.908Z" fill="#D9BDE6"/>
<path d="M569.657 125.927L578.277 110.986L577.09 110.3L568.469 125.241L569.657 125.927Z" fill="#D9BDE6"/>
<path d="M817.081 -111.687L839.123 -124.421L838.437 -125.609L816.396 -112.875L817.081 -111.687Z" fill="#D9BDE6"/>
<path d="M809.263 -107.169L787.221 -94.4345L786.535 -95.6231L808.577 -108.357L809.263 -107.169Z" fill="#D9BDE6"/>
<path d="M526.89 107.364L544.887 89.3551L543.917 88.3847L525.92 106.394L526.89 107.364Z" fill="#D9BDE6"/>
<path d="M520.501 113.754L502.504 131.762L501.534 130.792L519.531 112.783L520.501 113.754Z" fill="#D9BDE6"/>
<path d="M773.083 -138.992L763.794 -129.697L762.824 -130.668L772.113 -139.963L773.083 -138.992Z" fill="#D9BDE6"/>
<path d="M781.214 -147.125L806.178 -172.105L805.208 -173.075L780.244 -148.095L781.214 -147.125Z" fill="#D9BDE6"/>
<path d="M839.263 -205.219L814.88 -180.819L813.91 -181.79L838.294 -206.189L839.263 -205.219Z" fill="#D9BDE6"/>
<path d="M587.839 226.791L591.239 214.094L589.914 213.739L586.515 226.436L587.839 226.791Z" fill="#D9BDE6"/>
<path d="M603.348 168.86L594.211 202.984L592.886 202.629L602.023 168.505L603.348 168.86Z" fill="#D9BDE6"/>
<path d="M606.535 156.957L615.46 123.627L614.135 123.272L605.21 156.602L606.535 156.957Z" fill="#D9BDE6"/>
<path d="M452.745 35.043L507.466 20.3711L507.111 19.0454L452.39 33.7173L452.745 35.043Z" fill="#D9BDE6"/>
<path d="M707.617 -220.895L692.954 -166.139L691.63 -166.494L706.292 -221.25L707.617 -220.895Z" fill="#D9BDE6"/>
<path fill-rule="evenodd" clip-rule="evenodd" d="M650.303 -147.51C651.093 -147.524 651.884 -147.531 652.676 -147.531C653.469 -147.531 654.26 -147.524 655.05 -147.51L655.03 -146.349C654.247 -146.363 653.462 -146.369 652.676 -146.369C651.89 -146.369 651.106 -146.363 650.323 -146.349L650.303 -147.51ZM658.591 -147.401C660.173 -147.332 661.748 -147.235 663.316 -147.111L663.224 -145.953C661.67 -146.076 660.109 -146.172 658.54 -146.241L658.591 -147.401ZM642.037 -147.111C643.605 -147.235 645.18 -147.332 646.762 -147.401L646.813 -146.241C645.244 -146.172 643.683 -146.076 642.129 -145.953L642.037 -147.111ZM666.843 -146.784C668.416 -146.617 669.981 -146.422 671.538 -146.201L671.375 -145.051C669.832 -145.271 668.28 -145.463 666.72 -145.629L666.843 -146.784ZM633.815 -146.201C635.371 -146.422 636.937 -146.617 638.51 -146.784L638.633 -145.629C637.073 -145.463 635.521 -145.271 633.978 -145.051L633.815 -146.201ZM675.045 -145.654C676.602 -145.389 678.15 -145.098 679.688 -144.78L679.453 -143.643C677.929 -143.958 676.394 -144.247 674.85 -144.509L675.045 -145.654ZM625.665 -144.78C627.203 -145.098 628.751 -145.389 630.308 -145.654L630.503 -144.509C628.959 -144.247 627.424 -143.958 625.9 -143.643L625.665 -144.78ZM617.613 -142.849C619.13 -143.264 620.658 -143.652 622.196 -144.014L622.462 -142.883C620.937 -142.525 619.423 -142.14 617.919 -141.729L617.613 -142.849ZM683.157 -144.014C684.695 -143.652 686.223 -143.264 687.74 -142.849L687.434 -141.729C685.93 -142.14 684.416 -142.525 682.891 -142.883L683.157 -144.014ZM609.702 -140.417C611.192 -140.927 612.693 -141.411 614.206 -141.869L614.542 -140.757C613.043 -140.303 611.554 -139.824 610.078 -139.319L609.702 -140.417ZM691.147 -141.869C692.66 -141.411 694.161 -140.927 695.651 -140.417L695.275 -139.319C693.799 -139.824 692.31 -140.303 690.811 -140.757L691.147 -141.869ZM601.962 -137.494C603.416 -138.096 604.884 -138.673 606.364 -139.224L606.769 -138.136C605.302 -137.589 603.848 -137.017 602.406 -136.421L601.962 -137.494ZM698.989 -139.224C700.469 -138.673 701.937 -138.096 703.391 -137.494L702.947 -136.421C701.505 -137.017 700.051 -137.589 698.584 -138.136L698.989 -139.224ZM594.419 -134.088C595.832 -134.78 597.26 -135.448 598.702 -136.091L599.175 -135.031C597.746 -134.393 596.331 -133.731 594.929 -133.045L594.419 -134.088ZM706.651 -136.091C708.093 -135.448 709.521 -134.78 710.934 -134.088L710.424 -133.045C709.022 -133.731 707.607 -134.393 706.178 -135.031L706.651 -136.091ZM587.103 -130.215C588.471 -130.996 589.855 -131.752 591.254 -132.484L591.792 -131.456C590.406 -130.73 589.035 -129.98 587.679 -129.207L587.103 -130.215ZM714.099 -132.484C715.498 -131.752 716.881 -130.996 718.25 -130.215L717.674 -129.207C716.318 -129.98 714.947 -130.73 713.561 -131.456L714.099 -132.484ZM580.046 -125.893C581.364 -126.758 582.697 -127.6 584.047 -128.418L584.649 -127.425C583.311 -126.614 581.989 -125.779 580.684 -124.922L580.046 -125.893ZM721.306 -128.418C722.656 -127.6 723.989 -126.758 725.307 -125.893L724.669 -124.922C723.364 -125.779 722.042 -126.614 720.704 -127.425L721.306 -128.418ZM573.273 -121.138C574.534 -122.083 575.812 -123.006 577.107 -123.907L577.77 -122.954C576.486 -122.061 575.219 -121.146 573.97 -120.209L573.273 -121.138ZM728.246 -123.907C729.541 -123.006 730.819 -122.083 732.08 -121.138L731.383 -120.209C730.134 -121.146 728.867 -122.061 727.583 -122.954L728.246 -123.907ZM566.809 -115.969C568.009 -116.991 569.227 -117.993 570.463 -118.972L571.184 -118.062C569.959 -117.091 568.752 -116.099 567.563 -115.085L566.809 -115.969ZM734.89 -118.972C736.126 -117.993 737.344 -116.991 738.544 -115.969L737.79 -115.085C736.601 -116.099 735.394 -117.091 734.169 -118.062L734.89 -118.972ZM560.681 -110.407C561.815 -111.503 562.968 -112.578 564.141 -113.633L564.917 -112.769C563.755 -111.724 562.612 -110.658 561.488 -109.572L560.681 -110.407ZM741.212 -113.633C742.385 -112.578 743.538 -111.503 744.672 -110.407L743.865 -109.572C742.741 -110.658 741.598 -111.724 740.436 -112.769L741.212 -113.633ZM554.912 -104.474C555.975 -105.638 557.059 -106.783 558.163 -107.909L558.992 -107.095C557.898 -105.98 556.823 -104.845 555.769 -103.691L554.912 -104.474ZM747.19 -107.909C748.294 -106.783 749.378 -105.638 750.441 -104.474L749.584 -103.691C748.53 -104.845 747.455 -105.98 746.361 -107.095L747.19 -107.909ZM549.524 -98.1916C550.513 -99.4203 551.523 -100.631 552.555 -101.823L553.433 -101.063C552.411 -99.8814 551.409 -98.6815 550.429 -97.4636L549.524 -98.1916ZM752.798 -101.823C753.83 -100.631 754.84 -99.4203 755.829 -98.1916L754.924 -97.4636C753.944 -98.6814 752.942 -99.8814 751.92 -101.063L752.798 -101.823ZM544.541 -91.5843C545.451 -92.8727 546.383 -94.1441 547.338 -95.398L548.262 -94.6945C547.315 -93.4517 546.391 -92.1915 545.489 -90.9145L544.541 -91.5843ZM758.015 -95.398C758.97 -94.1441 759.902 -92.8727 760.812 -91.5843L759.864 -90.9144C758.962 -92.1915 758.038 -93.4517 757.091 -94.6945L758.015 -95.398ZM539.981 -84.6762C540.809 -86.0199 541.66 -87.3477 542.534 -88.659L543.5 -88.0149C542.634 -86.7152 541.79 -85.3992 540.97 -84.0673L539.981 -84.6762ZM762.819 -88.659C763.693 -87.3477 764.544 -86.0199 765.372 -84.6762L764.383 -84.0673C763.563 -85.3991 762.719 -86.7152 761.853 -88.0149L762.819 -88.659ZM535.867 -77.4959C536.608 -78.8895 537.374 -80.2683 538.163 -81.6317L539.168 -81.0497C538.386 -79.6985 537.627 -78.3319 536.892 -76.9507L535.867 -77.4959ZM767.19 -81.6316C767.979 -80.2683 768.745 -78.8895 769.486 -77.4959L768.461 -76.9506C767.726 -78.3319 766.967 -79.6984 766.185 -81.0497L767.19 -81.6316ZM532.215 -70.0697C532.866 -71.5075 533.543 -72.9315 534.244 -74.3412L535.284 -73.824C534.589 -72.4269 533.918 -71.0155 533.273 -69.5905L532.215 -70.0697ZM771.109 -74.3412C771.81 -72.9315 772.487 -71.5075 773.138 -70.0697L772.08 -69.5905C771.435 -71.0155 770.764 -72.4268 770.069 -73.824L771.109 -74.3412ZM529.041 -62.4249C529.599 -63.9017 530.184 -65.3658 530.794 -66.8168L531.865 -66.3665C531.26 -64.9286 530.681 -63.4775 530.127 -62.0139L529.041 -62.4249ZM774.559 -66.8167C775.169 -65.3658 775.753 -63.9017 776.312 -62.4249L775.226 -62.0138C774.672 -63.4775 774.093 -64.9285 773.488 -66.3665L774.559 -66.8167ZM526.359 -54.5938C526.823 -56.1047 527.314 -57.6042 527.831 -59.0914L528.928 -58.7102C528.416 -57.2362 527.929 -55.7502 527.469 -54.2528L526.359 -54.5938ZM777.522 -59.0914C778.039 -57.6041 778.53 -56.1047 778.994 -54.5937L777.884 -54.2527C777.424 -55.7502 776.937 -57.2362 776.425 -58.7102L777.522 -59.0914ZM524.183 -46.6116C524.55 -48.1487 524.944 -49.6754 525.365 -51.1911L526.484 -50.8805C526.067 -49.3784 525.676 -47.8653 525.313 -46.3419L524.183 -46.6116ZM779.988 -51.1911C780.409 -49.6754 780.803 -48.1487 781.17 -46.6115L780.04 -46.3419C779.677 -47.8653 779.286 -49.3783 778.869 -50.8805L779.988 -51.1911ZM522.519 -38.5044C522.787 -40.0613 523.083 -41.6088 523.406 -43.1464L524.542 -42.9077C524.222 -41.3838 523.929 -39.8501 523.663 -38.3072L522.519 -38.5044ZM781.947 -43.1464C782.27 -41.6087 782.566 -40.0613 782.834 -38.5044L781.69 -38.3071C781.424 -39.8501 781.131 -41.3838 780.811 -42.9077L781.947 -43.1464ZM521.371 -30.3044C521.541 -31.8776 521.738 -33.4425 521.963 -34.9986L523.113 -34.8326C522.89 -33.2903 522.694 -31.7393 522.526 -30.18L521.371 -30.3044ZM783.39 -34.9986C783.615 -33.4425 783.812 -31.8776 783.981 -30.3044L782.827 -30.1799C782.659 -31.7392 782.463 -33.2902 782.24 -34.8325L783.39 -34.9986ZM520.744 -22.0527C520.815 -23.6351 520.913 -25.2102 521.04 -26.7776L522.197 -26.6843C522.072 -25.1308 521.974 -23.5696 521.904 -22.0011L520.744 -22.0527ZM784.313 -26.7775C784.44 -25.2102 784.538 -23.6351 784.609 -22.0527L783.449 -22.0011C783.379 -23.5695 783.281 -25.1307 783.156 -26.6843L784.313 -26.7775ZM520.613 -16.138C520.613 -16.9308 520.62 -17.722 520.634 -18.5116L521.795 -18.4909C521.781 -17.7082 521.774 -16.9239 521.774 -16.138C521.774 -15.352 521.781 -14.5677 521.795 -13.7851L520.634 -13.7644C520.62 -14.5539 520.613 -15.3451 520.613 -16.138ZM784.719 -18.5115C784.733 -17.722 784.74 -16.9308 784.74 -16.138C784.74 -15.3451 784.733 -14.5539 784.719 -13.7644L783.558 -13.785C783.572 -14.5677 783.579 -15.352 783.579 -16.138C783.579 -16.9239 783.572 -17.7082 783.558 -18.4908L784.719 -18.5115ZM521.04 -5.4984C520.913 -7.06576 520.815 -8.64085 520.744 -10.2232L521.904 -10.2749C521.974 -8.7064 522.072 -7.14517 522.197 -5.59165L521.04 -5.4984ZM784.609 -10.2232C784.538 -8.64083 784.44 -7.06573 784.313 -5.49837L783.156 -5.59161C783.281 -7.14514 783.379 -8.70637 783.449 -10.2748L784.609 -10.2232ZM521.963 2.72268C521.738 1.16657 521.541 -0.398352 521.371 -1.97156L522.526 -2.09598C522.694 -0.536696 522.89 1.01433 523.113 2.55662L521.963 2.72268ZM783.981 -1.97152C783.812 -0.398308 783.615 1.16661 783.39 2.72272L782.24 2.55664C782.463 1.01436 782.659 -0.536661 782.827 -2.09594L783.981 -1.97152ZM523.406 10.8704C523.083 9.33282 522.787 7.78534 522.519 6.22849L523.663 6.03123C523.929 7.57419 524.222 9.10788 524.542 10.6318L523.406 10.8704ZM782.834 6.22853C782.566 7.78536 782.27 9.33284 781.947 10.8705L780.811 10.6318C781.131 9.1079 781.424 7.57422 781.69 6.03124L782.834 6.22853ZM525.365 18.9151C524.944 17.3994 524.55 15.8728 524.183 14.3356L525.313 14.066C525.676 15.5894 526.067 17.1024 526.484 18.6046L525.365 18.9151ZM781.17 14.3356C780.803 15.8728 780.409 17.3994 779.988 18.9152L778.869 18.6046C779.286 17.1024 779.677 15.5894 780.04 14.066L781.17 14.3356ZM527.831 26.8155C527.314 25.3282 526.823 23.8288 526.359 22.3178L527.469 21.9768C527.929 23.4743 528.416 24.9603 528.928 26.4343L527.831 26.8155ZM778.994 22.3178C778.53 23.8288 778.039 25.3282 777.522 26.8155L776.425 26.4343C776.937 24.9603 777.424 23.4743 777.884 21.9768L778.994 22.3178ZM530.794 34.5408C530.184 33.0899 529.599 31.6257 529.041 30.1489L530.127 29.7379C530.681 31.2015 531.26 32.6526 531.865 34.0906L530.794 34.5408ZM776.312 30.149C775.753 31.6258 775.169 33.0899 774.559 34.5408L773.488 34.0906C774.093 32.6526 774.672 31.2016 775.226 29.738L776.312 30.149ZM534.244 42.0653C533.543 40.6556 532.866 39.2316 532.215 37.7938L533.273 37.3146C533.918 38.7396 534.589 40.1509 535.284 41.5481L534.244 42.0653ZM773.138 37.7938C772.487 39.2316 771.81 40.6556 771.109 42.0653L770.069 41.5481C770.764 40.1509 771.435 38.7396 772.08 37.3146L773.138 37.7938ZM538.163 49.3557C537.374 47.9924 536.608 46.6136 535.867 45.22L536.892 44.6747C537.627 46.056 538.386 47.4225 539.168 48.7738L538.163 49.3557ZM769.486 45.22C768.745 46.6136 767.979 47.9924 767.19 49.3557L766.185 48.7738C766.967 47.4225 767.726 46.056 768.461 44.6747L769.486 45.22ZM542.534 56.3831C541.66 55.0718 540.809 53.744 539.981 52.4002L540.97 51.7914C541.79 53.1232 542.634 54.4393 543.5 55.739L542.534 56.3831ZM765.372 52.4003C764.544 53.744 763.693 55.0718 762.819 56.3831L761.853 55.739C762.719 54.4393 763.563 53.1232 764.383 51.7914L765.372 52.4003ZM547.338 63.122C546.383 61.8682 545.451 60.5968 544.541 59.3084L545.489 58.6385C546.391 59.9156 547.315 61.1758 548.262 62.4186L547.338 63.122ZM760.812 59.3084C759.902 60.5968 758.97 61.8682 758.015 63.122L757.091 62.4186C758.038 61.1758 758.962 59.9156 759.864 58.6385L760.812 59.3084ZM552.555 69.5469C551.523 68.3549 550.513 67.1443 549.524 65.9157L550.429 65.1876C551.409 66.4055 552.411 67.6055 553.433 68.787L552.555 69.5469ZM755.829 65.9157C754.84 67.1444 753.83 68.355 752.798 69.5469L751.92 68.787C752.942 67.6055 753.944 66.4055 754.924 65.1877L755.829 65.9157ZM558.163 75.6327C557.059 74.5072 555.975 73.3621 554.912 72.1979L555.769 71.4147C556.823 72.5687 557.898 73.7038 558.992 74.8194L558.163 75.6327ZM750.441 72.1979C749.378 73.3621 748.294 74.5073 747.19 75.6327L746.361 74.8194C747.455 73.7038 748.53 72.5687 749.584 71.4147L750.441 72.1979ZM564.141 81.3567C562.968 80.3021 561.815 79.2267 560.681 78.1314L561.488 77.2962C562.612 78.382 563.755 79.4478 564.917 80.4933L564.141 81.3567ZM744.672 78.1314C743.538 79.2268 742.385 80.3021 741.212 81.3567L740.436 80.4933C741.598 79.4479 742.741 78.382 743.865 77.2962L744.672 78.1314ZM570.463 86.6962C569.227 85.7166 568.009 84.7154 566.809 83.6932L567.563 82.8093C568.752 83.8226 569.959 84.815 571.184 85.786L570.463 86.6962ZM738.544 83.6932C737.344 84.7154 736.126 85.7166 734.89 86.6962L734.169 85.786C735.394 84.815 736.601 83.8226 737.79 82.8093L738.544 83.6932ZM577.107 91.6311C575.812 90.7305 574.534 89.8074 573.273 88.8624L573.97 87.9332C575.219 88.87 576.486 89.785 577.77 90.6777L577.107 91.6311ZM732.08 88.8624C730.819 89.8074 729.541 90.7305 728.246 91.6311L727.583 90.6777C728.867 89.785 730.134 88.87 731.383 87.9332L732.08 88.8624ZM584.047 96.1421C582.697 95.3237 581.364 94.4819 580.046 93.6173L580.683 92.6464C581.989 93.5034 583.311 94.3378 584.649 95.149L584.047 96.1421ZM725.307 93.6173C723.989 94.4819 722.656 95.3237 721.306 96.1421L720.704 95.149C722.042 94.3379 723.364 93.5035 724.669 92.6464L725.307 93.6173ZM591.254 100.208C589.855 99.4762 588.471 98.7197 587.103 97.9395L587.678 96.9306C589.035 97.704 590.406 98.4538 591.792 99.1797L591.254 100.208ZM718.25 97.9395C716.881 98.7197 715.498 99.4762 714.099 100.209L713.561 99.1797C714.947 98.4538 716.318 97.704 717.674 96.9307L718.25 97.9395ZM598.702 103.815C597.26 103.172 595.832 102.504 594.419 101.812L594.929 100.769C596.331 101.455 597.746 102.118 599.175 102.755L598.702 103.815ZM710.934 101.812C709.521 102.504 708.093 103.172 706.651 103.815L706.178 102.755C707.607 102.118 709.022 101.455 710.424 100.769L710.934 101.812ZM606.364 106.948C604.884 106.397 603.416 105.82 601.962 105.218L602.406 104.145C603.848 104.742 605.302 105.314 606.769 105.86L606.364 106.948ZM703.391 105.218C701.937 105.82 700.469 106.397 698.989 106.948L698.584 105.86C700.051 105.314 701.505 104.742 702.947 104.145L703.391 105.218ZM614.206 109.593C612.693 109.135 611.192 108.651 609.702 108.141L610.078 107.043C611.554 107.548 613.043 108.028 614.542 108.481L614.206 109.593ZM695.651 108.141C694.161 108.651 692.66 109.135 691.147 109.593L690.811 108.481C692.31 108.028 693.799 107.548 695.275 107.043L695.651 108.141ZM622.196 111.738C620.658 111.376 619.13 110.988 617.613 110.573L617.919 109.453C619.423 109.864 620.937 110.249 622.462 110.607L622.196 111.738ZM687.74 110.573C686.223 110.988 684.695 111.376 683.157 111.738L682.891 110.607C684.416 110.249 685.93 109.864 687.434 109.453L687.74 110.573ZM630.308 113.378C628.751 113.114 627.203 112.822 625.665 112.504L625.9 111.367C627.424 111.682 628.959 111.971 630.503 112.233L630.308 113.378ZM679.688 112.504C678.15 112.822 676.602 113.114 675.045 113.378L674.85 112.233C676.394 111.971 677.929 111.682 679.453 111.367L679.688 112.504ZM638.51 114.508C636.937 114.341 635.371 114.146 633.815 113.925L633.978 112.775C635.521 112.995 637.073 113.187 638.633 113.353L638.51 114.508ZM671.538 113.925C669.981 114.146 668.416 114.341 666.843 114.508L666.72 113.353C668.28 113.187 669.832 112.995 671.375 112.775L671.538 113.925ZM646.762 115.125C645.18 115.056 643.605 114.959 642.037 114.835L642.129 113.677C643.683 113.8 645.244 113.896 646.813 113.965L646.762 115.125ZM663.316 114.835C661.748 114.959 660.173 115.056 658.591 115.125L658.54 113.965C660.109 113.896 661.67 113.8 663.224 113.677L663.316 114.835ZM652.676 115.255C651.884 115.255 651.093 115.248 650.303 115.234L650.323 114.073C651.106 114.087 651.89 114.094 652.676 114.094C653.462 114.094 654.247 114.087 655.03 114.073L655.05 115.234C654.26 115.248 653.469 115.255 652.676 115.255Z" fill="#D9BDE6"/>
<path d="M570.076 64.8237C570.076 19.5786 607.054 -17.1079 652.678 -17.1079C698.303 -17.1079 735.281 19.5786 735.281 64.8237C735.281 110.069 698.303 146.755 652.678 146.755C651.904 146.755 651.133 146.745 650.364 146.724L650.333 147.885C651.112 147.906 651.894 147.917 652.678 147.917C698.935 147.917 736.442 110.719 736.442 64.8237C736.442 18.9283 698.935 -18.2692 652.678 -18.2692C606.421 -18.2692 568.915 18.9283 568.915 64.8237H570.076Z" fill="#D9BDE6"/>
<path d="M568.915 64.8237C568.915 65.6083 568.926 66.3905 568.947 67.1699L570.108 67.1374C570.087 66.3688 570.076 65.5975 570.076 64.8237H568.915Z" fill="#D9BDE6"/>
<path d="M569.119 70.6752C569.229 72.2401 569.382 73.7931 569.578 75.333L570.73 75.1864C570.537 73.6682 570.386 72.137 570.278 70.594L569.119 70.6752Z" fill="#D9BDE6"/>
<path d="M570.095 78.8044C570.359 80.3492 570.666 81.8795 571.014 83.3941L572.146 83.1337C571.803 81.6405 571.5 80.1319 571.24 78.6089L570.095 78.8044Z" fill="#D9BDE6"/>
<path d="M571.875 86.7971C572.291 88.3064 572.749 89.7985 573.247 91.2723L574.347 90.9002C573.856 89.4473 573.405 87.9763 572.994 86.4884L571.875 86.7971Z" fill="#D9BDE6"/>
<path d="M574.443 94.5726C575.007 96.0315 575.611 97.4706 576.255 98.8885L577.312 98.4088C576.678 97.0108 576.082 95.5921 575.526 94.1538L574.443 94.5726Z" fill="#D9BDE6"/>
<path d="M577.773 102.054C578.478 103.448 579.222 104.82 580.003 106.168L581.008 105.586C580.238 104.257 579.504 102.904 578.809 101.529L577.773 102.054Z" fill="#D9BDE6"/>
<path d="M581.827 109.168C582.666 110.485 583.542 111.777 584.453 113.042L585.395 112.364C584.497 111.116 583.634 109.842 582.806 108.544L581.827 109.168Z" fill="#D9BDE6"/>
<path d="M586.562 115.848C587.526 117.075 588.524 118.275 589.555 119.446L590.426 118.679C589.41 117.524 588.426 116.341 587.475 115.13L586.562 115.848Z" fill="#D9BDE6"/>
<path d="M591.928 122.032C593.007 123.159 594.117 124.256 595.257 125.321L596.05 124.473C594.926 123.422 593.831 122.34 592.767 121.229L591.928 122.032Z" fill="#D9BDE6"/>
<path d="M597.872 127.663C599.054 128.679 600.266 129.663 601.505 130.613L602.212 129.691C600.99 128.754 599.795 127.784 598.628 126.782L597.872 127.663Z" fill="#D9BDE6"/>
<path d="M604.335 132.69C605.61 133.585 606.912 134.446 608.238 135.271L608.852 134.285C607.544 133.472 606.26 132.622 605.002 131.739L604.335 132.69Z" fill="#D9BDE6"/>
<path d="M611.257 137.063C612.613 137.829 613.992 138.559 615.394 139.252L615.908 138.21C614.526 137.528 613.166 136.808 611.829 136.052L611.257 137.063Z" fill="#D9BDE6"/>
<path d="M618.573 140.74C619.996 141.37 621.44 141.962 622.904 142.514L623.314 141.427C621.87 140.883 620.446 140.299 619.043 139.678L618.573 140.74Z" fill="#D9BDE6"/>
<path d="M626.213 143.684C627.689 144.171 629.184 144.619 630.696 145.026L630.998 143.904C629.507 143.503 628.033 143.062 626.577 142.581L626.213 143.684Z" fill="#D9BDE6"/>
<path d="M634.104 145.867C635.62 146.207 637.151 146.507 638.697 146.764L638.888 145.619C637.363 145.365 635.853 145.069 634.358 144.733L634.104 145.867Z" fill="#D9BDE6"/>
<path d="M642.17 147.269C643.71 147.46 645.263 147.61 646.828 147.717L646.907 146.559C645.363 146.453 643.832 146.305 642.313 146.117L642.17 147.269Z" fill="#D9BDE6"/>
</g>
</svg>
