<svg width="100%" height="100%" viewBox="0 0 624 408" fill="none" xmlns="http://www.w3.org/2000/svg">
<rect width="624" height="282" rx="10" fill="#FAFAFB"/>
<g opacity="0.2">
<path opacity="0.1" d="M456.975 202.78C457.978 202.78 458.79 201.976 458.79 200.985C458.79 199.995 457.978 199.191 456.975 199.191C455.972 199.191 455.16 199.995 455.16 200.985C455.16 201.976 455.972 202.78 456.975 202.78Z" fill="#23024D"/>
<path d="M492.829 149.854C494.082 149.854 495.098 148.85 495.098 147.612C495.098 146.373 494.082 145.369 492.829 145.369C491.576 145.369 490.56 146.373 490.56 147.612C490.56 148.85 491.576 149.854 492.829 149.854Z" fill="#23024D"/>
<path fill-rule="evenodd" clip-rule="evenodd" d="M600.881 19.3349C600.881 18.3652 601.677 17.5792 602.658 17.5792C603.639 17.5792 604.434 18.3652 604.434 19.3349C604.434 20.3046 603.639 21.0907 602.658 21.0907C601.677 21.0907 600.881 20.3046 600.881 19.3349ZM602.658 16.6055C601.132 16.6055 599.896 17.8275 599.896 19.3349C599.896 20.8424 601.132 22.0644 602.658 22.0644C604.183 22.0644 605.42 20.8424 605.42 19.3349C605.42 17.8275 604.183 16.6055 602.658 16.6055Z" fill="#23024D"/>
<path fill-rule="evenodd" clip-rule="evenodd" d="M558.557 19.7829C558.557 20.7315 557.779 21.5004 556.819 21.5004C555.859 21.5004 555.081 20.7315 555.081 19.7829C555.081 18.8344 555.859 18.0655 556.819 18.0655C557.779 18.0655 558.557 18.8344 558.557 19.7829ZM559.542 19.7829C559.542 21.2692 558.323 22.4741 556.819 22.4741C555.315 22.4741 554.096 21.2692 554.096 19.7829C554.096 18.2967 555.315 17.0918 556.819 17.0918C558.323 17.0918 559.542 18.2967 559.542 19.7829Z" fill="#23024D"/>
<path fill-rule="evenodd" clip-rule="evenodd" d="M339.478 119.558C339.478 120.507 338.7 121.276 337.741 121.276C336.781 121.276 336.003 120.507 336.003 119.558C336.003 118.61 336.781 117.841 337.741 117.841C338.7 117.841 339.478 118.61 339.478 119.558ZM340.464 119.558C340.464 121.045 339.244 122.249 337.741 122.249C336.237 122.249 335.018 121.045 335.018 119.558C335.018 118.072 336.237 116.867 337.741 116.867C339.244 116.867 340.464 118.072 340.464 119.558Z" fill="#23024D"/>
<path fill-rule="evenodd" clip-rule="evenodd" d="M451.794 235.427C451.794 236.376 451.016 237.145 450.057 237.145C449.097 237.145 448.319 236.376 448.319 235.427C448.319 234.479 449.097 233.71 450.057 233.71C451.016 233.71 451.794 234.479 451.794 235.427ZM452.78 235.427C452.78 236.914 451.56 238.119 450.057 238.119C448.553 238.119 447.333 236.914 447.333 235.427C447.333 233.941 448.553 232.736 450.057 232.736C451.56 232.736 452.78 233.941 452.78 235.427Z" fill="#23024D"/>
<path d="M383.455 105.9C384.959 105.9 386.178 104.695 386.178 103.209C386.178 101.722 384.959 100.518 383.455 100.518C381.951 100.518 380.732 101.722 380.732 103.209C380.732 104.695 381.951 105.9 383.455 105.9Z" fill="#23024D"/>
<path fill-rule="evenodd" clip-rule="evenodd" d="M385.193 103.209C385.193 104.157 384.415 104.926 383.455 104.926C382.495 104.926 381.717 104.157 381.717 103.209C381.717 102.26 382.495 101.491 383.455 101.491C384.415 101.491 385.193 102.26 385.193 103.209ZM386.178 103.209C386.178 104.695 384.959 105.9 383.455 105.9C381.951 105.9 380.732 104.695 380.732 103.209C380.732 101.722 381.951 100.518 383.455 100.518C384.959 100.518 386.178 101.722 386.178 103.209Z" fill="#1127E9"/>
<path d="M321.167 68.998L354.44 77.8093L354.224 78.6055L320.951 69.7941L321.167 68.998Z" fill="#23024D"/>
<path d="M324.38 33.6601L329.569 36.6205L329.152 37.3343L323.963 34.3739L324.38 33.6601Z" fill="#23024D"/>
<path d="M491.862 181.488L494.858 186.615L494.136 187.028L491.14 181.9L491.862 181.488Z" fill="#23024D"/>
<path d="M497.354 190.89L505.092 204.136L504.37 204.548L496.632 191.302L497.354 190.89Z" fill="#23024D"/>
<path d="M515.576 222.083L507.838 208.836L507.116 209.249L514.854 222.495L515.576 222.083Z" fill="#23024D"/>
<path d="M347.295 46.7329L333.892 39.0853L333.475 39.7991L346.878 47.4467L347.295 46.7329Z" fill="#23024D"/>
<path d="M352.051 49.4493L365.454 57.097L365.037 57.8108L351.634 50.1631L352.051 49.4493Z" fill="#23024D"/>
<path d="M418.978 10.6026L420.011 14.4153L419.206 14.6286L418.172 10.8159L418.978 10.6026Z" fill="#23024D"/>
<path d="M418.073 7.26766L415.359 -2.74059L414.554 -2.52726L417.267 7.48099L418.073 7.26766Z" fill="#23024D"/>
<path d="M411.742 -16.086L414.455 -6.07779L413.649 -5.86447L410.936 -15.8727L411.742 -16.086Z" fill="#23024D"/>
<path d="M550.512 162.515L547.053 160.541L546.636 161.255L550.095 163.228L550.512 162.515Z" fill="#23024D"/>
<path d="M534.947 153.633L544.026 158.814L543.609 159.527L534.53 154.347L534.947 153.633Z" fill="#23024D"/>
<path d="M531.92 151.906L522.841 146.725L522.424 147.439L531.503 152.62L531.92 151.906Z" fill="#23024D"/>
<path d="M387.529 3.21459L379.79 -10.0315L379.068 -9.61939L386.806 3.6267L387.529 3.21459Z" fill="#23024D"/>
<path d="M390.275 7.91404L398.013 21.1601L397.291 21.5722L389.552 8.32615L390.275 7.91404Z" fill="#23024D"/>
<path d="M520.64 177.605L509.697 166.789L509.107 167.372L520.05 178.188L520.64 177.605Z" fill="#23024D"/>
<path d="M524.524 181.444L535.467 192.259L534.877 192.842L523.934 182.026L524.524 181.444Z" fill="#23024D"/>
<path d="M370.937 29.6546L376.585 35.2367L375.995 35.8196L370.347 30.2374L370.937 29.6546Z" fill="#23024D"/>
<path d="M365.995 24.768L350.815 9.76606L350.225 10.3489L365.405 25.3509L365.995 24.768Z" fill="#23024D"/>
<path d="M333.475 -7.11229L345.519 4.53656L344.93 5.11938L332.886 -6.52947L333.475 -7.11229Z" fill="#23024D"/>
<path d="M593.212 140.98L585.497 138.937L585.281 139.733L592.997 141.776L593.212 140.98Z" fill="#23024D"/>
<path d="M558.01 131.66L578.745 137.151L578.53 137.947L557.794 132.456L558.01 131.66Z" fill="#23024D"/>
<path d="M550.776 129.745L530.523 124.381L530.307 125.178L550.561 130.541L550.776 129.745Z" fill="#23024D"/>
<path d="M476.693 222.164L467.777 189.28L466.971 189.494L475.887 222.378L476.693 222.164Z" fill="#23024D"/>
<path d="M494.859 18.1499L491.864 23.2774L491.142 22.8653L494.137 17.7378L494.859 18.1499Z" fill="#23024D"/>
<path d="M497.353 13.8752L505.092 0.629129L504.369 0.217014L496.631 13.4631L497.353 13.8752Z" fill="#23024D"/>
<path d="M515.576 -17.3164L507.838 -4.07032L507.116 -4.48244L514.854 -17.7285L515.576 -17.3164Z" fill="#23024D"/>
<path d="M324.38 171.106L329.569 168.146L329.152 167.432L323.963 170.392L324.38 171.106Z" fill="#23024D"/>
<path d="M347.295 158.03L333.892 165.678L333.475 164.964L346.878 157.316L347.295 158.03Z" fill="#23024D"/>
<path d="M352.051 155.318L365.454 147.67L365.037 146.956L351.634 154.604L352.051 155.318Z" fill="#23024D"/>
<path d="M418.978 194.163L420.011 190.351L419.206 190.138L418.172 193.95L418.978 194.163Z" fill="#23024D"/>
<path d="M418.073 197.498L415.359 207.506L414.554 207.293L417.267 197.284L418.073 197.498Z" fill="#23024D"/>
<path d="M411.742 220.852L414.455 210.844L413.65 210.631L410.936 220.639L411.742 220.852Z" fill="#23024D"/>
<path d="M550.512 42.2507L547.053 44.2242L546.636 43.5104L550.095 41.5369L550.512 42.2507Z" fill="#23024D"/>
<path d="M534.947 51.1323L544.026 45.9517L543.609 45.2379L534.53 50.4185L534.947 51.1323Z" fill="#23024D"/>
<path d="M531.92 52.8594L522.841 58.0401L522.424 57.3263L531.503 52.1456L531.92 52.8594Z" fill="#23024D"/>
<path d="M387.529 201.549L379.791 214.795L379.069 214.383L386.807 201.137L387.529 201.549Z" fill="#23024D"/>
<path d="M390.275 196.851L398.013 183.604L397.291 183.192L389.552 196.438L390.275 196.851Z" fill="#23024D"/>
<path d="M520.64 27.159L509.697 37.9744L509.107 37.3916L520.05 26.5762L520.64 27.159Z" fill="#23024D"/>
<path d="M524.523 23.3193L535.466 12.5039L534.877 11.9211L523.933 22.7365L524.523 23.3193Z" fill="#23024D"/>
<path d="M370.937 175.108L376.585 169.526L375.995 168.943L370.347 174.525L370.937 175.108Z" fill="#23024D"/>
<path d="M365.995 179.995L350.815 194.997L350.225 194.414L365.405 179.412L365.995 179.995Z" fill="#23024D"/>
<path d="M336.037 209.771L345.519 200.226L344.93 199.644L335.448 209.188L336.037 209.771Z" fill="#23024D"/>
<path d="M593.212 63.7864L585.497 65.8296L585.281 65.0334L592.997 62.9902L593.212 63.7864Z" fill="#23024D"/>
<path d="M558.01 73.1064L578.745 67.6153L578.53 66.8192L557.794 72.3103L558.01 73.1064Z" fill="#23024D"/>
<path d="M550.776 75.0213L530.523 80.3847L530.307 79.5886L550.561 74.2252L550.776 75.0213Z" fill="#23024D"/>
<path d="M476.693 -17.3984L467.777 15.4859L466.971 15.2725L475.887 -17.6117L476.693 -17.3984Z" fill="#23024D"/>
<path d="M321.167 135.767L354.44 126.955L354.224 126.159L320.951 134.97L321.167 135.767Z" fill="#23024D"/>
<path d="M440.948 -106.449L440.948 -114L440.114 -114L440.114 -106.449L440.948 -106.449Z" fill="#000636"/>
<path d="M440.948 -71.7155L440.948 -98.8988L440.114 -98.8988L440.114 -71.7155L440.948 -71.7155Z" fill="#000636"/>
<path d="M440.948 256.751L440.948 -62.6537L440.114 -62.6537L440.114 256.751L440.948 256.751Z" fill="#000636"/>
<path d="M440.948 301.301L440.948 274.118L440.114 274.118L440.114 301.301L440.948 301.301Z" fill="#000636"/>
<path d="M440.948 316.403L440.948 308.852L440.114 308.852L440.114 316.403L440.948 316.403Z" fill="#000636"/>
<path d="M192.267 98.7539L202.578 98.7539L202.578 97.9297L192.267 97.9297L192.267 98.7539Z" fill="#000636"/>
<path d="M212.889 98.7539L250.009 98.7539L250.009 97.9297L212.889 97.9297L212.889 98.7539Z" fill="#000636"/>
<path d="M273.725 98.7539L709.885 98.7539L709.885 97.9297L273.725 97.9297L273.725 98.7539Z" fill="#000636"/>
<path d="M722.258 98.7539L759.378 98.7539L759.378 97.9297L722.258 97.9297L722.258 98.7539Z" fill="#000636"/>
<path d="M769.689 98.7539L780 98.7539L780 97.9297L769.689 97.9297L769.689 98.7539Z" fill="#000636"/>
<path fill-rule="evenodd" clip-rule="evenodd" d="M347.633 96.6583C347.623 97.2186 347.618 97.7801 347.618 98.3428C347.618 98.9054 347.623 99.467 347.633 100.027L348.467 100.013C348.457 99.4573 348.452 98.9006 348.452 98.3428C348.452 97.7849 348.457 97.2282 348.467 96.6727L347.633 96.6583ZM347.711 102.541C347.761 103.664 347.831 104.781 347.92 105.894L348.751 105.829C348.663 104.726 348.594 103.618 348.544 102.504L347.711 102.541ZM347.92 90.7917C347.831 91.9041 347.761 93.022 347.711 94.145L348.544 94.1811C348.594 93.0678 348.663 91.9596 348.751 90.8569L347.92 90.7917ZM348.155 108.397C348.275 109.514 348.414 110.625 348.573 111.729L349.399 111.613C349.241 110.518 349.103 109.417 348.984 108.31L348.155 108.397ZM348.573 84.9561C348.414 86.0609 348.275 87.1719 348.155 88.2887L348.984 88.3757C349.103 87.2686 349.241 86.1673 349.399 85.0722L348.573 84.9561ZM348.966 114.218C349.156 115.323 349.365 116.422 349.594 117.514L350.41 117.347C350.184 116.265 349.977 115.176 349.788 114.08L348.966 114.218ZM349.594 79.1716C349.365 80.2633 349.156 81.3621 348.966 82.4674L349.788 82.6053C349.976 81.5097 350.184 80.4207 350.41 79.3385L349.594 79.1716ZM350.98 73.4572C350.682 74.5339 350.403 75.6183 350.144 76.7101L350.956 76.8987C351.213 75.8166 351.49 74.7417 351.785 73.6745L350.98 73.4572ZM350.144 119.975C350.403 121.067 350.682 122.152 350.98 123.228L351.785 123.011C351.49 121.944 351.213 120.869 350.956 119.787L350.144 119.975ZM352.727 67.8426C352.361 68.8997 352.013 69.9654 351.684 71.0392L352.483 71.2778C352.808 70.2135 353.153 69.1572 353.516 68.1095L352.727 67.8426ZM351.684 125.646C352.013 126.72 352.361 127.786 352.727 128.843L353.516 128.576C353.153 127.528 352.808 126.472 352.483 125.408L351.684 125.646ZM354.826 62.3493C354.394 63.3813 353.979 64.4228 353.583 65.4731L354.365 65.7609C354.757 64.7198 355.168 63.6876 355.597 62.6646L354.826 62.3493ZM353.583 131.212C353.979 132.263 354.394 133.304 354.826 134.336L355.597 134.021C355.168 132.998 354.757 131.966 354.365 130.925L353.583 131.212ZM357.272 56.9954C356.775 57.9987 356.295 59.0121 355.833 60.0352L356.595 60.3709C357.053 59.3569 357.528 58.3524 358.021 57.358L357.272 56.9954ZM355.833 136.65C356.295 137.673 356.775 138.687 357.272 139.69L358.021 139.328C357.528 138.333 357.053 137.329 356.595 136.315L355.833 136.65ZM360.053 51.8035C359.493 52.7746 358.949 53.7566 358.424 54.7491L359.162 55.1315C359.684 54.1477 360.222 53.1743 360.777 52.2118L360.053 51.8035ZM358.424 141.936C358.949 142.929 359.493 143.911 360.053 144.882L360.777 144.474C360.222 143.511 359.684 142.538 359.162 141.554L358.424 141.936ZM363.157 46.795C362.536 47.7299 361.931 48.6766 361.344 49.6345L362.057 50.0618C362.639 49.1123 363.239 48.174 363.854 47.2472L363.157 46.795ZM361.344 147.051C361.931 148.009 362.536 148.956 363.157 149.891L363.854 149.438C363.239 148.512 362.639 147.573 362.057 146.624L361.344 147.051ZM366.572 41.988C365.893 42.8826 365.23 43.7897 364.583 44.7088L365.268 45.1794C365.909 44.2683 366.566 43.3692 367.239 42.4824L366.572 41.988ZM364.583 151.977C365.23 152.896 365.893 153.803 366.572 154.698L367.239 154.203C366.566 153.316 365.909 152.417 365.268 151.506L364.583 151.977ZM370.284 37.4003C369.55 38.2517 368.831 39.1162 368.127 39.9936L368.781 40.5055C369.478 39.6358 370.191 38.7788 370.919 37.9349L370.284 37.4003ZM368.127 156.692C368.831 157.569 369.55 158.434 370.284 159.285L370.919 158.751C370.191 157.907 369.478 157.05 368.781 156.18L368.127 156.692ZM374.278 33.0509C373.491 33.8555 372.719 34.6742 371.962 35.5064L372.582 36.0576C373.332 35.2327 374.098 34.4212 374.878 33.6236L374.278 33.0509ZM371.962 161.179C372.719 162.011 373.491 162.83 374.278 163.635L374.878 163.062C374.098 162.264 373.333 161.453 372.582 160.628L371.962 161.179ZM378.539 28.9562C377.703 29.7109 376.881 30.4802 376.072 31.2639L376.656 31.8523C377.458 31.0755 378.273 30.3128 379.101 29.5648L378.539 28.9562ZM376.072 165.422C376.881 166.205 377.703 166.975 378.539 167.729L379.101 167.121C378.273 166.373 377.458 165.61 376.656 164.833L376.072 165.422ZM383.05 25.1326C382.168 25.8343 381.299 26.5514 380.443 27.2835L380.988 27.9067C381.837 27.1811 382.699 26.4703 383.573 25.7748L383.05 25.1326ZM380.443 169.402C381.299 170.134 382.168 170.851 383.05 171.553L383.573 170.911C382.699 170.215 381.837 169.504 380.988 168.779L380.443 169.402ZM387.795 21.5957C386.87 22.2414 385.957 22.9032 385.057 23.5806L385.562 24.2364C386.454 23.5649 387.359 22.909 388.276 22.2689L387.795 21.5957ZM385.057 173.105C385.957 173.782 386.87 174.444 387.795 175.09L388.276 174.417C387.359 173.777 386.454 173.121 385.562 172.449L385.057 173.105ZM392.756 18.3597C391.791 18.9469 390.838 19.5508 389.896 20.1711L390.359 20.857C391.292 20.2421 392.237 19.6435 393.194 19.0615L392.756 18.3597ZM389.896 176.514C390.838 177.135 391.791 177.739 392.756 178.326L393.194 177.624C392.237 177.042 391.292 176.443 390.359 175.829L389.896 176.514ZM397.913 15.4397C396.912 15.9656 395.922 16.5089 394.943 17.0692L395.361 17.7825C396.331 17.2272 397.312 16.6887 398.304 16.1674L397.913 15.4397ZM394.943 179.616C395.922 180.177 396.912 180.72 397.913 181.246L398.304 180.518C397.312 179.997 396.331 179.458 395.361 178.903L394.943 179.616ZM403.246 12.8477C402.213 13.3099 401.191 13.7901 400.178 14.2878L400.55 15.0257C401.553 14.5325 402.567 14.0566 403.59 13.5985L403.246 12.8477ZM400.178 182.398C401.191 182.895 402.213 183.376 403.246 183.838L403.59 183.087C402.567 182.629 401.553 182.153 400.55 181.66L400.178 182.398ZM408.736 10.5948C407.675 10.9914 406.624 11.4064 405.582 11.8395L405.905 12.5993C406.938 12.1701 407.98 11.7587 409.031 11.3657L408.736 10.5948ZM405.582 184.846C406.624 185.279 407.675 185.694 408.736 186.091L409.031 185.32C407.98 184.927 406.938 184.515 405.905 184.086L405.582 184.846ZM414.36 8.69171C413.275 9.02112 412.198 9.36944 411.13 9.73627L411.403 10.5148C412.462 10.1513 413.529 9.80607 414.605 9.47961L414.36 8.69171ZM411.13 186.949C412.198 187.316 413.275 187.664 414.36 187.994L414.605 187.206C413.529 186.879 412.462 186.534 411.403 186.171L411.13 186.949ZM420.092 7.14717C418.988 7.40758 417.892 7.68725 416.803 7.98581L417.026 8.78002C418.105 8.48413 419.192 8.20696 420.286 7.94888L420.092 7.14717ZM416.803 188.7C417.892 188.998 418.988 189.278 420.092 189.538L420.286 188.737C419.192 188.479 418.105 188.201 417.026 187.906L416.803 188.7ZM425.914 5.96588C424.796 6.15634 423.685 6.36635 422.58 6.59553L422.752 7.40216C423.846 7.17503 424.948 6.9669 426.056 6.77813L425.914 5.96588ZM422.58 190.09C423.685 190.319 424.796 190.529 425.914 190.72L426.056 189.907C424.948 189.719 423.846 189.51 422.752 189.283L422.58 190.09ZM431.803 5.15175C430.673 5.27206 429.549 5.41219 428.432 5.57176L428.551 6.38752C429.658 6.22937 430.772 6.09049 431.892 5.97124L431.803 5.15175ZM428.432 191.114C429.549 191.273 430.673 191.413 431.803 191.534L431.892 190.714C430.772 190.595 429.658 190.456 428.551 190.298L428.432 191.114ZM437.729 4.70656C436.592 4.75657 435.461 4.82655 434.335 4.91615L434.402 5.73772C435.518 5.64891 436.639 5.57955 437.766 5.52997L437.729 4.70656ZM434.335 191.769C435.461 191.859 436.592 191.929 437.729 191.979L437.766 191.156C436.639 191.106 435.518 191.037 434.402 190.948L434.335 191.769ZM441.976 4.61328C441.407 4.61328 440.839 4.61829 440.272 4.62827L440.286 5.45237C440.848 5.44247 441.412 5.43751 441.976 5.43751C442.541 5.43751 443.104 5.44247 443.666 5.45237L443.681 4.62826C443.114 4.61829 442.546 4.61328 441.976 4.61328ZM440.272 192.057C440.839 192.067 441.407 192.072 441.976 192.072C442.546 192.072 443.114 192.067 443.681 192.057L443.666 191.233C443.104 191.243 442.541 191.248 441.976 191.248C441.412 191.248 440.848 191.243 440.286 191.233L440.272 192.057ZM449.617 4.91614C448.491 4.82654 447.36 4.75657 446.224 4.70656L446.187 5.52997C447.313 5.57954 448.434 5.64891 449.55 5.73771L449.617 4.91614ZM446.224 191.979C447.36 191.929 448.491 191.859 449.617 191.769L449.55 190.948C448.434 191.037 447.313 191.106 446.187 191.156L446.224 191.979ZM455.521 5.57176C454.403 5.41218 453.279 5.27206 452.15 5.15175L452.06 5.97123C453.18 6.09048 454.294 6.22936 455.401 6.38752L455.521 5.57176ZM452.15 191.534C453.279 191.413 454.403 191.273 455.521 191.114L455.401 190.298C454.294 190.456 453.18 190.595 452.06 190.714L452.15 191.534ZM461.372 6.59552C460.268 6.36634 459.156 6.15634 458.038 5.96587L457.897 6.77813C459.005 6.96689 460.106 7.17502 461.2 7.40216L461.372 6.59552ZM458.038 190.72C459.156 190.529 460.268 190.319 461.372 190.09L461.2 189.283C460.106 189.51 459.005 189.719 457.897 189.907L458.038 190.72ZM467.149 7.9858C466.061 7.68724 464.964 7.40757 463.86 7.14716L463.667 7.94887C464.761 8.20695 465.847 8.48413 466.926 8.78002L467.149 7.9858ZM463.86 189.538C464.964 189.278 466.061 188.998 467.149 188.7L466.926 187.905C465.847 188.201 464.761 188.479 463.667 188.737L463.86 189.538ZM472.823 9.73626C471.754 9.36943 470.678 9.02111 469.593 8.6917L469.348 9.4796C470.423 9.80607 471.49 10.1513 472.549 10.5148L472.823 9.73626ZM469.593 187.994C470.678 187.664 471.755 187.316 472.823 186.949L472.549 186.171C471.49 186.534 470.423 186.879 469.348 187.206L469.593 187.994ZM478.37 11.8395C477.328 11.4064 476.277 10.9914 475.216 10.5948L474.921 11.3657C475.972 11.7587 477.014 12.1701 478.047 12.5993L478.37 11.8395ZM475.216 186.091C476.277 185.694 477.328 185.279 478.37 184.846L478.047 184.086C477.014 184.515 475.972 184.927 474.921 185.32L475.216 186.091ZM483.774 14.2878C482.762 13.7901 481.739 13.3099 480.706 12.8477L480.362 13.5985C481.386 14.0566 482.399 14.5325 483.403 15.0257L483.774 14.2878ZM480.707 183.838C481.739 183.376 482.762 182.895 483.774 182.398L483.403 181.66C482.399 182.153 481.386 182.629 480.362 183.087L480.707 183.838ZM489.01 17.0692C488.03 16.5089 487.04 15.9656 486.039 15.4396L485.648 16.1674C486.64 16.6887 487.621 17.2272 488.592 17.7825L489.01 17.0692ZM486.039 181.246C487.04 180.72 488.03 180.177 489.01 179.616L488.592 178.903C487.621 179.458 486.64 179.997 485.648 180.518L486.039 181.246ZM494.056 20.1711C493.114 19.5508 492.161 18.9469 491.196 18.3597L490.759 19.0615C491.715 19.6435 492.66 20.2421 493.594 20.8569L494.056 20.1711ZM491.196 178.326C492.161 177.739 493.114 177.135 494.056 176.514L493.594 175.829C492.66 176.443 491.715 177.042 490.759 177.624L491.196 178.326ZM498.896 23.5806C497.995 22.9031 497.082 22.2414 496.157 21.5956L495.676 22.2689C496.593 22.909 497.498 23.5649 498.39 24.2364L498.896 23.5806ZM496.157 175.09C497.082 174.444 497.995 173.782 498.896 173.105L498.39 172.449C497.498 173.121 496.593 173.777 495.676 174.417L496.157 175.09ZM503.51 27.2834C502.654 26.5514 501.784 25.8343 500.902 25.1326L500.379 25.7748C501.254 26.4703 502.115 27.1811 502.964 27.9067L503.51 27.2834ZM500.902 171.553C501.784 170.851 502.654 170.134 503.51 169.402L502.964 168.779C502.115 169.504 501.254 170.215 500.379 170.911L500.902 171.553ZM507.88 31.2639C507.072 30.4802 506.249 29.7108 505.413 28.9562L504.851 29.5648C505.68 30.3128 506.495 31.0755 507.296 31.8523L507.88 31.2639ZM505.413 167.729C506.249 166.975 507.072 166.205 507.88 165.422L507.296 164.833C506.495 165.61 505.68 166.373 504.851 167.121L505.413 167.729ZM511.991 35.5063C511.233 34.6742 510.461 33.8555 509.674 33.0509L509.075 33.6236C509.854 34.4212 510.62 35.2326 511.371 36.0575L511.991 35.5063ZM509.674 163.635C510.461 162.83 511.233 162.011 511.991 161.179L511.371 160.628C510.62 161.453 509.854 162.264 509.075 163.062L509.674 163.635ZM515.825 39.9936C515.122 39.1162 514.403 38.2516 513.669 37.4003L513.034 37.9349C513.761 38.7788 514.474 39.6358 515.171 40.5055L515.825 39.9936ZM513.669 159.285C514.403 158.434 515.122 157.569 515.825 156.692L515.171 156.18C514.474 157.05 513.761 157.907 513.034 158.751L513.669 159.285ZM519.369 44.7088C518.722 43.7896 518.059 42.8826 517.381 41.988L516.713 42.4824C517.386 43.3692 518.043 44.2683 518.684 45.1794L519.369 44.7088ZM517.381 154.698C518.059 153.803 518.722 152.896 519.369 151.977L518.684 151.506C518.043 152.417 517.386 153.316 516.713 154.203L517.381 154.698ZM522.609 49.6345C522.021 48.6765 521.416 47.7299 520.795 46.7949L520.098 47.2472C520.714 48.174 521.313 49.1123 521.895 50.0618L522.609 49.6345ZM520.795 149.891C521.416 148.956 522.021 148.009 522.609 147.051L521.895 146.624C521.313 147.573 520.714 148.512 520.098 149.438L520.795 149.891ZM525.529 54.7491C525.003 53.7566 524.46 52.7746 523.899 51.8035L523.175 52.2118C523.73 53.1743 524.269 54.1477 524.79 55.1314L525.529 54.7491ZM523.899 144.882C524.46 143.911 525.003 142.929 525.529 141.936L524.79 141.554C524.269 142.538 523.73 143.511 523.175 144.474L523.899 144.882ZM528.119 60.0351C527.657 59.012 527.178 57.9987 526.68 56.9954L525.931 57.358C526.424 58.3524 526.9 59.3568 527.357 60.3709L528.119 60.0351ZM526.68 139.69C527.178 138.687 527.657 137.673 528.119 136.65L527.357 136.315C526.9 137.329 526.424 138.333 525.931 139.328L526.68 139.69ZM530.369 65.4731C529.973 64.4227 529.558 63.3813 529.126 62.3492L528.355 62.6646C528.784 63.6876 529.195 64.7198 529.587 65.7609L530.369 65.4731ZM529.126 134.336C529.558 133.304 529.973 132.263 530.369 131.212L529.587 130.925C529.195 131.966 528.784 132.998 528.355 134.021L529.126 134.336ZM532.268 71.0392C531.939 69.9653 531.592 68.8997 531.226 67.8426L530.437 68.1095C530.799 69.1572 531.144 70.2135 531.47 71.2778L532.268 71.0392ZM531.226 128.843C531.592 127.786 531.939 126.72 532.268 125.646L531.47 125.408C531.144 126.472 530.799 127.528 530.437 128.576L531.226 128.843ZM533.808 76.7101C533.549 75.6183 533.27 74.5339 532.972 73.4572L532.168 73.6745C532.463 74.7417 532.739 75.8166 532.997 76.8987L533.808 76.7101ZM532.972 123.228C533.27 122.152 533.549 121.067 533.808 119.975L532.997 119.787C532.739 120.869 532.463 121.944 532.168 123.011L532.972 123.228ZM534.986 82.4674C534.796 81.3621 534.587 80.2633 534.359 79.1716L533.542 79.3385C533.768 80.4206 533.976 81.5097 534.164 82.6053L534.986 82.4674ZM534.359 117.514C534.587 116.422 534.796 115.323 534.986 114.218L534.164 114.08C533.976 115.176 533.768 116.265 533.542 117.347L534.359 117.514ZM535.798 88.2887C535.678 87.1719 535.538 86.0609 535.379 84.9561L534.553 85.0722C534.711 86.1673 534.849 87.2686 534.968 88.3757L535.798 88.2887ZM535.379 111.729C535.538 110.625 535.678 109.514 535.798 108.397L534.968 108.31C534.849 109.417 534.711 110.518 534.553 111.613L535.379 111.729ZM536.241 94.145C536.191 93.022 536.122 91.9041 536.032 90.7917L535.201 90.8569C535.289 91.9596 535.359 93.0678 535.408 94.1811L536.241 94.145ZM536.032 105.894C536.122 104.781 536.191 103.663 536.241 102.54L535.408 102.504C535.359 103.618 535.289 104.726 535.201 105.829L536.032 105.894ZM536.334 98.3428C536.334 97.7801 536.329 97.2186 536.319 96.6582L535.485 96.6727C535.495 97.2282 535.5 97.7849 535.5 98.3428C535.5 98.9006 535.495 99.4573 535.485 100.013L536.319 100.027C536.329 99.4669 536.334 98.9054 536.334 98.3428Z" fill="#23024D"/>
<path d="M501.714 39.7188C469.221 39.7188 442.875 65.9631 442.876 98.3442C442.876 130.725 469.221 156.97 501.714 156.97C534.206 156.97 560.552 130.725 560.552 98.3442C560.552 97.7949 560.544 97.2474 560.529 96.7018L561.363 96.6793C561.378 97.2324 561.386 97.7874 561.386 98.3442C561.386 131.174 534.673 157.794 501.714 157.794C468.754 157.794 442.042 131.174 442.042 98.3442C442.042 65.5142 468.754 38.8945 501.714 38.8945L501.714 39.7188Z" fill="#23024D"/>
<path d="M501.714 38.8945C502.277 38.8945 502.839 38.9023 503.398 38.9178L503.375 39.7417C502.823 39.7264 502.269 39.7188 501.714 39.7188L501.714 38.8945Z" fill="#23024D"/>
<path d="M505.916 39.0397C507.04 39.1176 508.155 39.2265 509.261 39.3655L509.155 40.1832C508.065 40.0461 506.965 39.9387 505.857 39.8619L505.916 39.0397Z" fill="#23024D"/>
<path d="M511.754 39.7325C512.863 39.9197 513.962 40.1375 515.05 40.3849L514.863 41.1881C513.79 40.9442 512.707 40.7296 511.613 40.5449L511.754 39.7325Z" fill="#23024D"/>
<path d="M517.493 40.9954C518.577 41.2908 519.649 41.6158 520.707 41.9696L520.44 42.7504C519.397 42.4016 518.34 42.0812 517.272 41.79L517.493 40.9954Z" fill="#23024D"/>
<path d="M523.077 42.8181C524.125 43.2185 525.158 43.6474 526.177 44.1039L525.832 44.8545C524.828 44.4044 523.809 43.9816 522.777 43.5869L523.077 42.8181Z" fill="#23024D"/>
<path d="M528.45 45.1813C529.451 45.6821 530.436 46.2102 531.405 46.7646L530.987 47.4778C530.032 46.9312 529.06 46.4105 528.073 45.9167L528.45 45.1813Z" fill="#23024D"/>
<path d="M533.559 48.0589C534.504 48.6546 535.432 49.2761 536.341 49.9223L535.854 50.5913C534.958 49.9541 534.043 49.3413 533.11 48.7539L533.559 48.0589Z" fill="#23024D"/>
<path d="M538.356 51.4195C539.237 52.1037 540.099 52.812 540.94 53.5434L540.389 54.1621C539.56 53.4408 538.71 52.7424 537.841 52.0677L538.356 51.4195Z" fill="#23024D"/>
<path d="M542.797 55.228C543.606 55.9936 544.394 56.7815 545.159 57.5909L544.55 58.1536C543.795 57.3554 543.018 56.5784 542.22 55.8234L542.797 55.228Z" fill="#23024D"/>
<path d="M546.841 59.4463C547.571 60.2856 548.277 61.1456 548.959 62.0251L548.297 62.5266C547.624 61.6592 546.928 60.8111 546.208 59.9833L546.841 59.4463Z" fill="#23024D"/>
<path d="M550.45 64.0334C551.094 64.9385 551.712 65.8624 552.305 66.8039L551.596 67.2392C551.012 66.3107 550.402 65.3997 549.768 64.5071L550.45 64.0334Z" fill="#23024D"/>
<path d="M553.591 68.9462C554.141 69.9084 554.666 70.8874 555.163 71.8822L554.415 72.2472C553.925 71.2662 553.408 70.3007 552.865 69.3519L553.591 68.9462Z" fill="#23024D"/>
<path d="M556.231 74.1383C556.684 75.1483 557.109 76.1733 557.506 77.2122L556.725 77.5032C556.334 76.4787 555.915 75.468 555.469 74.472L556.231 74.1383Z" fill="#23024D"/>
<path d="M558.346 79.5606C558.696 80.6087 559.017 81.6698 559.31 82.743L558.504 82.9571C558.216 81.8989 557.899 80.8525 557.554 79.819L558.346 79.5606Z" fill="#23024D"/>
<path d="M559.913 85.1611C560.158 86.237 560.373 87.324 560.558 88.4212L559.735 88.5567C559.553 87.4747 559.341 86.4027 559.1 85.3417L559.913 85.1611Z" fill="#23024D"/>
<path d="M560.921 90.8857C561.058 91.9788 561.165 93.0811 561.242 94.1918L560.41 94.248C560.334 93.1525 560.228 92.0654 560.093 90.9873L560.921 90.8857Z" fill="#23024D"/>
<path fill-rule="evenodd" clip-rule="evenodd" d="M440.114 98.3442C440.114 130.725 413.768 156.97 381.276 156.97L381.276 157.794C414.235 157.794 440.948 131.174 440.948 98.3442C440.948 65.5142 414.235 38.8945 381.276 38.8945C348.317 38.8945 321.604 65.5142 321.604 98.3442L322.438 98.3442C322.438 65.9631 348.784 39.7188 381.276 39.7188C413.768 39.7188 440.114 65.9631 440.114 98.3442Z" fill="#23024D"/>
<path fill-rule="evenodd" clip-rule="evenodd" d="M379.591 157.771C380.151 157.786 380.713 157.794 381.276 157.794L381.276 156.97C380.72 156.97 380.167 156.962 379.615 156.947L379.591 157.771ZM373.729 157.323C374.835 157.462 375.95 157.571 377.074 157.649L377.132 156.826C376.024 156.75 374.925 156.642 373.834 156.505L373.729 157.323ZM367.94 156.303C369.028 156.551 370.127 156.769 371.236 156.956L371.376 156.143C370.283 155.959 369.199 155.744 368.127 155.5L367.94 156.303ZM362.282 154.719C363.341 155.073 364.412 155.398 365.496 155.693L365.718 154.898C364.649 154.607 363.593 154.287 362.55 153.938L362.282 154.719ZM356.813 152.584C357.831 153.041 358.865 153.47 359.912 153.87L360.213 153.101C359.18 152.707 358.161 152.284 357.157 151.834L356.813 152.584ZM351.585 149.924C352.553 150.478 353.539 151.006 354.54 151.507L354.917 150.772C353.929 150.278 352.958 149.757 352.003 149.211L351.585 149.924ZM346.649 146.766C347.558 147.412 348.485 148.034 349.431 148.629L349.879 147.934C348.947 147.347 348.032 146.734 347.136 146.097L346.649 146.766ZM342.05 143.145C342.891 143.876 343.752 144.585 344.634 145.269L345.149 144.621C344.28 143.946 343.43 143.247 342.601 142.526L342.05 143.145ZM337.831 139.097C338.596 139.907 339.384 140.695 340.193 141.46L340.77 140.865C339.972 140.11 339.195 139.333 338.44 138.535L337.831 139.097ZM334.031 134.663C334.713 135.543 335.419 136.403 336.149 137.242L336.781 136.705C336.062 135.877 335.365 135.029 334.692 134.162L334.031 134.663ZM330.685 129.884C331.278 130.826 331.896 131.75 332.539 132.655L333.222 132.181C332.587 131.289 331.978 130.378 331.393 129.449L330.685 129.884ZM327.827 124.806C328.324 125.801 328.848 126.78 329.399 127.742L330.125 127.336C329.582 126.388 329.065 125.422 328.574 124.441L327.827 124.806ZM325.484 119.476C325.881 120.515 326.306 121.54 326.758 122.55L327.521 122.216C327.075 121.22 326.655 120.21 326.264 119.185L325.484 119.476ZM323.68 113.945C323.972 115.019 324.294 116.08 324.644 117.128L325.436 116.869C325.091 115.836 324.773 114.789 324.485 113.731L323.68 113.945ZM322.432 108.267C322.617 109.364 322.832 110.451 323.076 111.527L323.89 111.347C323.649 110.286 323.437 109.214 323.254 108.132L322.432 108.267ZM321.747 102.497C321.824 103.607 321.932 104.71 322.069 105.803L322.897 105.701C322.761 104.623 322.655 103.536 322.579 102.44L321.747 102.497ZM321.604 98.3442C321.604 98.9009 321.612 99.4559 321.627 100.009L322.461 99.9865C322.446 99.4409 322.438 98.8934 322.438 98.3442L321.604 98.3442Z" fill="#23024D"/>
</g>
<ellipse rx="36.6122" ry="15.2747" transform="matrix(0.362301 0.932071 0.935684 -0.352864 504.051 74.7509)" fill="white" stroke="#25134D" stroke-width="0.5" stroke-miterlimit="10"/>
<path d="M356.216 130.644C352.098 120.474 331.018 90.8597 331.018 90.8597C331.018 90.8597 367.561 101.36 377.931 78.2098C386.075 63.9276 393.446 54.2196 411.629 47.3655C438.192 37.3524 466.11 41.6178 483.837 56.262C483.837 56.262 487.997 60.3883 491.686 56.7883C495.266 53.2955 492.811 46.2699 492.617 45.8508L492.607 45.8282C497.551 48.8453 505.263 59.5067 510.314 72.4971L510.355 72.6007C515.406 85.5911 516.878 100.387 515.245 105.883L515.237 105.859C515.097 105.42 512.179 96.7874 507.145 96.5413C501.957 96.2876 501.66 102.094 501.66 102.094C498.399 124.649 480.513 146.181 453.95 156.194C435.767 163.048 423.696 160.669 407.946 155.393C384.525 144.981 364.448 176.824 364.448 176.824C364.448 176.824 360.049 140.922 356.216 130.644Z" fill="white"/>
<path fill-rule="evenodd" clip-rule="evenodd" d="M458.718 92.0053L461.631 82.9292L470.751 85.8513L472.029 81.9101L458.907 77.7058L455.993 86.7831L441.512 82.1479L439.046 89.8282L429.744 86.8509L428.468 90.7924L441.771 95.0505L444.237 87.3701L458.718 92.0053Z" fill="#26144E"/>
<path fill-rule="evenodd" clip-rule="evenodd" d="M464.003 102.135L466.916 93.0585L476.037 95.9806L477.314 92.0395L464.192 87.8351L461.278 96.9124L446.797 92.2772L444.332 99.9576L435.03 96.9802L433.753 100.922L447.056 105.18L449.522 97.4995L464.003 102.135Z" fill="#26144E"/>
<path d="M518.874 100.934C519.129 100.251 519.34 99.4988 519.507 98.6826M519.866 96.1292C519.959 95.0472 519.991 93.889 519.964 92.6651C519.828 86.5114 518.181 78.699 515.035 70.5947C512.396 63.7946 509.111 57.8423 505.721 53.3438M500.496 47.6521C501.773 48.7361 503.075 50.0758 504.373 51.6377" stroke="#25134D" stroke-width="0.5" stroke-miterlimit="10"/>
<path d="M510.558 97.8333C509.619 97.122 508.484 96.6173 507.131 96.5512C501.943 96.2975 501.647 102.103 501.647 102.103C498.386 124.656 480.501 146.185 453.94 156.198C435.759 163.051 423.688 160.672 407.94 155.397C384.52 144.986 364.445 176.826 364.445 176.826C364.445 176.826 360.047 140.927 356.214 130.651C352.096 120.482 331.018 90.8702 331.018 90.8702C331.018 90.8702 367.558 101.369 377.927 78.2216C386.071 63.941 393.441 54.234 411.622 47.3806C438.184 37.3686 466.099 41.6335 483.825 56.2762C483.825 56.2762 487.984 60.4021 491.673 56.8024C492.575 55.9225 493.073 54.8815 493.31 53.8097" stroke="#25134D" stroke-width="0.5" stroke-miterlimit="10"/>
<path d="M493.117 65.8553C492.246 64.6356 491.321 63.4576 490.345 62.3223M502.262 93.041C502.25 92.6261 502.233 92.2113 502.211 91.7967M501.952 88.7357C501.481 84.6871 500.503 80.6712 498.981 76.7488L498.954 76.6799L498.928 76.611C498.013 74.254 496.93 72.0011 495.693 69.8571" stroke="#25134D" stroke-width="0.5" stroke-miterlimit="10"/>
<path d="M359.964 182.502C366.77 179.936 370.593 171.722 371.168 160.727C371.671 151.102 369.686 139.346 365.035 127.383C360.051 114.564 352.951 103.935 345.501 97.115C338.056 90.2989 330.262 87.2861 323.881 89.6918C311.117 94.5047 308.846 119.183 318.81 144.812C328.774 170.441 347.199 187.315 359.964 182.502Z" fill="white"/>
<path d="M371.202 154.245C371.134 152.967 370.883 150.338 370.883 150.338M352.157 104.184C350.807 102.473 349.424 100.884 348.022 99.4277M358.802 114.072C361.133 118.135 363.265 122.581 365.106 127.327C367.569 133.676 369.282 139.966 370.272 145.909" stroke="#25134D" stroke-width="0.5" stroke-miterlimit="10"/>
<path opacity="0.3" d="M398.733 143.907C398.668 142.733 398.433 140.318 398.433 140.318M381.224 97.8887C379.987 96.3147 378.72 94.8523 377.437 93.5117M387.315 106.985C389.454 110.722 391.411 114.809 393.104 119.172C395.368 125.008 396.947 130.789 397.864 136.249" stroke="#25134D" stroke-width="0.5" stroke-miterlimit="10"/>
<path opacity="0.3" d="M398.931 65.2688C400.436 66.7676 403.369 69.9879 403.369 69.9879M433.315 144.252C433.439 147.817 433.361 151.287 433.087 154.635M430.855 125.082C429.245 117.698 426.853 110.139 423.647 102.606C419.358 92.531 414.016 83.4489 408.024 75.646" stroke="#25134D" stroke-width="0.5" stroke-miterlimit="10"/>
<path opacity="0.1" d="M458.548 138.387C459.167 141.157 459.056 145.626 458.255 148.25" stroke="#25134D" stroke-width="0.5" stroke-miterlimit="10"/>
<path opacity="0.1" d="M453.719 140.767C453.941 142.976 453.602 148.242 453.003 150.158" stroke="#25134D" stroke-width="0.5" stroke-miterlimit="10"/>
<path opacity="0.1" d="M464.936 134.467C464.999 137.29 464.642 141.695 463.365 145.576" stroke="#25134D" stroke-width="0.5" stroke-miterlimit="10"/>
<path opacity="0.1" d="M470.841 130.336C470.914 132.366 469.408 141.397 467.197 143.496" stroke="#25134D" stroke-width="0.5" stroke-miterlimit="10"/>
<path opacity="0.1" d="M477.475 124.272C476.925 128.593 475.283 136.252 472.497 140.15" stroke="#25134D" stroke-width="0.5" stroke-miterlimit="10"/>
<path opacity="0.1" d="M486.263 113.679C486.043 117.006 481.583 132.373 479.376 134.945" stroke="#25134D" stroke-width="0.5" stroke-miterlimit="10"/>
<path d="M345.488 97.1308C338.045 90.3158 330.253 87.3035 323.874 89.7088C311.114 94.5209 308.844 119.195 318.805 144.82C328.766 170.445 347.186 187.317 359.946 182.505C366.751 179.939 370.572 171.726 371.147 160.733" stroke="#25134D" stroke-width="0.5" stroke-miterlimit="10"/>
<ellipse rx="42.3803" ry="17.2759" transform="matrix(0.362293 0.932074 0.935681 -0.352872 341.923 136.097)" fill="white" stroke="#25134D" stroke-width="0.5" stroke-miterlimit="10"/>
<path fill-rule="evenodd" clip-rule="evenodd" d="M364.204 157.811C364.029 149.873 361.994 140.092 358.073 130.011C354.146 119.915 349.015 111.287 343.752 105.262C341.92 111.674 343.198 122.534 347.627 133.921C352.061 145.321 358.486 154.25 364.204 157.811Z" fill="#23024D"/>
<path d="M364.204 157.811L364.455 157.807L364.465 158.267L364.072 158.022L364.204 157.811ZM358.073 130.011L357.839 130.099L358.073 130.011ZM343.752 105.262L343.511 105.193L343.637 104.752L343.941 105.1L343.752 105.262ZM347.627 133.921L347.394 134.01L347.627 133.921ZM363.953 157.815C363.779 149.911 361.752 140.159 357.839 130.099L358.307 129.923C362.236 140.025 364.279 149.835 364.455 157.807L363.953 157.815ZM357.839 130.099C353.921 120.025 348.804 111.423 343.563 105.425L343.941 105.1C349.227 111.15 354.372 119.805 358.307 129.923L357.839 130.099ZM343.993 105.332C342.183 111.667 343.44 122.466 347.861 133.833L347.394 134.01C342.957 122.602 341.657 111.681 343.511 105.193L343.993 105.332ZM347.861 133.833C352.287 145.212 358.686 154.082 364.336 157.6L364.072 158.022C358.286 154.419 351.835 145.429 347.394 134.01L347.861 133.833Z" fill="#25134D"/>
<path d="M385.359 66.4897C378.153 46.9831 388.231 25.4723 407.869 18.444C427.507 11.4156 449.269 21.5312 456.475 41.0378C457.509 43.8373 458.187 46.6782 458.532 49.5116C458.532 49.5116 456.809 50.5221 453.84 50.6397C450.872 50.7573 449.768 49.2634 449.768 49.2634C449.473 47.4826 449.005 45.7026 448.355 43.9437C442.795 28.8914 426.003 21.0857 410.849 26.5091C395.695 31.9326 387.918 48.5314 393.478 63.5837C394.119 65.3182 394.909 66.9564 395.828 68.4892C395.828 68.4892 395.223 69.9124 392.17 71.1945C389.117 72.4765 387.316 70.9057 387.316 70.9057C386.579 69.4941 385.924 68.0208 385.359 66.4897Z" fill="white" stroke="#25134D" stroke-width="0.5" stroke-miterlimit="10"/>
<mask id="mask0_2669_44410" style="mask-type:alpha" maskUnits="userSpaceOnUse" x="292" y="72" width="76" height="136">
<ellipse rx="70.9784" ry="28.9482" transform="matrix(0.361206 0.930921 0.936813 -0.353984 330.221 140.004)" fill="white" stroke="#25134D" stroke-width="0.5" stroke-miterlimit="10"/>
</mask>
<g mask="url(#mask0_2669_44410)">
<path d="M339.375 126.263L341.983 123.402C340.783 124.707 340.24 126.614 340.529 128.966C341.298 134.878 347.258 141.338 353.841 143.431C353.937 143.462 354.032 143.494 354.13 143.509C354.193 143.536 354.242 143.543 354.307 143.553C354.373 143.564 354.436 143.59 354.501 143.6C354.566 143.611 354.613 143.634 354.678 143.645C354.743 143.655 354.806 143.681 354.855 143.689C354.921 143.699 354.967 143.723 355.032 143.733C355.098 143.744 355.161 143.77 355.21 143.778C355.275 143.788 355.324 143.796 355.387 143.822C355.452 143.832 355.501 143.84 355.567 143.85C355.616 143.858 355.681 143.868 355.73 143.876C355.795 143.886 355.844 143.894 355.91 143.904C355.959 143.912 356.024 143.922 356.073 143.93C356.139 143.94 356.188 143.948 356.253 143.958C356.302 143.965 356.368 143.976 356.417 143.983C356.482 143.994 356.531 144.001 356.58 144.009C356.629 144.017 356.694 144.027 356.746 144.018C356.795 144.026 356.861 144.036 356.912 144.028C356.961 144.035 357.013 144.027 357.078 144.037C357.127 144.045 357.195 144.039 357.244 144.047C357.293 144.054 357.345 144.046 357.394 144.053C357.443 144.061 357.511 144.055 357.56 144.063C357.609 144.071 357.661 144.062 357.71 144.07C357.762 144.061 357.811 144.069 357.879 144.063C357.93 144.054 357.979 144.062 358.031 144.054C358.083 144.045 358.132 144.053 358.183 144.044C358.235 144.036 358.284 144.043 358.336 144.035C358.387 144.026 358.436 144.034 358.488 144.026C358.54 144.017 358.589 144.025 358.64 144.016C358.692 144.008 358.744 143.999 358.793 144.007C358.844 143.998 358.896 143.99 358.929 143.995C358.98 143.987 359.032 143.978 359.084 143.97C359.135 143.961 359.171 143.95 359.222 143.941C359.274 143.933 359.326 143.924 359.377 143.916C359.429 143.907 359.464 143.896 359.516 143.888C359.568 143.879 359.619 143.871 359.655 143.86C359.706 143.851 359.741 143.84 359.793 143.832C359.845 143.823 359.88 143.812 359.934 143.787C359.97 143.776 360.021 143.768 360.057 143.757C360.108 143.748 360.146 143.721 360.198 143.713C360.233 143.702 360.285 143.693 360.323 143.666C360.374 143.657 360.412 143.63 360.464 143.622C360.499 143.61 360.551 143.602 360.589 143.575C360.624 143.564 360.679 143.539 360.714 143.528C360.749 143.517 360.787 143.49 360.839 143.481C360.874 143.47 360.928 143.445 360.966 143.418C361.002 143.407 361.04 143.38 361.075 143.369C361.113 143.341 361.164 143.333 361.202 143.306C361.238 143.295 361.276 143.267 361.311 143.256C361.349 143.229 361.384 143.218 361.438 143.193C361.476 143.166 361.512 143.155 361.55 143.128C361.588 143.1 361.625 143.073 361.661 143.062C361.699 143.035 361.734 143.024 361.772 142.997C361.81 142.969 361.848 142.942 361.886 142.915C361.924 142.888 361.943 142.874 361.981 142.847C362.019 142.819 362.056 142.792 362.094 142.765C362.132 142.738 362.151 142.724 362.189 142.697C362.227 142.67 362.265 142.642 362.303 142.615C362.325 142.585 362.36 142.574 362.382 142.544C362.419 142.517 362.46 142.474 362.498 142.446C362.52 142.417 362.555 142.406 362.576 142.376C362.617 142.332 362.655 142.305 362.695 142.262C362.714 142.248 362.736 142.218 362.755 142.205C362.814 142.148 362.874 142.091 362.936 142.017L360.328 144.878C360.268 144.935 360.209 144.992 360.147 145.065C360.128 145.079 360.106 145.109 360.087 145.122C360.046 145.166 360.006 145.209 359.968 145.237C359.946 145.266 359.911 145.277 359.889 145.307C359.852 145.334 359.811 145.378 359.773 145.405C359.751 145.435 359.716 145.446 359.695 145.476C359.657 145.503 359.619 145.53 359.581 145.558C359.543 145.585 359.524 145.598 359.486 145.626C359.448 145.653 359.41 145.68 359.372 145.707C359.334 145.735 359.315 145.748 359.277 145.776C359.239 145.803 359.201 145.83 359.164 145.857C359.126 145.885 359.09 145.896 359.069 145.925C359.031 145.953 358.993 145.98 358.958 145.991C358.92 146.018 358.884 146.029 358.849 146.04C358.811 146.068 358.776 146.079 358.721 146.103C358.686 146.114 358.648 146.142 358.613 146.153C358.575 146.18 358.523 146.189 358.485 146.216C358.45 146.227 358.412 146.254 358.377 146.265C358.339 146.292 358.287 146.301 358.249 146.328C358.214 146.339 358.176 146.366 358.124 146.375C358.089 146.386 358.035 146.411 357.999 146.422C357.964 146.433 357.91 146.458 357.875 146.469C357.823 146.477 357.785 146.504 357.733 146.513C357.698 146.524 357.646 146.532 357.608 146.56C357.557 146.568 357.519 146.595 357.467 146.604C357.432 146.615 357.38 146.624 357.345 146.635C357.293 146.643 357.258 146.654 357.204 146.679C357.152 146.687 357.117 146.698 357.065 146.707C357.013 146.715 356.962 146.724 356.926 146.735C356.875 146.744 356.839 146.755 356.788 146.763C356.736 146.772 356.684 146.78 356.633 146.789C356.581 146.797 356.546 146.808 356.494 146.817C356.443 146.825 356.391 146.834 356.339 146.842C356.288 146.851 356.236 146.859 356.203 146.854C356.152 146.863 356.1 146.871 356.051 146.863C355.999 146.872 355.95 146.864 355.898 146.873C355.847 146.881 355.798 146.874 355.746 146.882C355.694 146.891 355.645 146.883 355.594 146.891C355.542 146.9 355.493 146.892 355.441 146.901C355.39 146.909 355.341 146.902 355.289 146.91C355.237 146.919 355.188 146.911 355.12 146.917C355.071 146.909 355.02 146.918 354.971 146.91C354.922 146.902 354.854 146.908 354.805 146.901C354.756 146.893 354.704 146.901 354.655 146.894C354.606 146.886 354.538 146.892 354.489 146.884C354.44 146.877 354.388 146.885 354.323 146.875C354.274 146.867 354.206 146.873 354.157 146.865C354.108 146.858 354.042 146.848 353.991 146.856C353.942 146.848 353.876 146.838 353.827 146.83C353.778 146.823 353.713 146.813 353.664 146.805C353.598 146.795 353.549 146.787 353.484 146.777C353.435 146.769 353.369 146.759 353.32 146.751C353.255 146.741 353.206 146.733 353.141 146.723C353.092 146.715 353.026 146.705 352.977 146.697C352.912 146.687 352.863 146.679 352.797 146.669C352.732 146.659 352.683 146.651 352.62 146.625C352.555 146.615 352.506 146.607 352.443 146.58C352.378 146.57 352.331 146.546 352.266 146.536C352.2 146.526 352.138 146.499 352.089 146.492C352.023 146.482 351.977 146.458 351.911 146.447C351.846 146.437 351.783 146.411 351.718 146.401C351.653 146.39 351.606 146.366 351.541 146.356C351.508 146.351 351.475 146.346 351.445 146.325C351.382 146.298 351.317 146.288 351.254 146.262C344.669 144.185 338.711 137.709 337.942 131.797C337.631 129.474 338.191 127.571 339.375 126.263Z" fill="#F8F8F9" stroke="#25134D" stroke-width="0.5" stroke-miterlimit="10"/>
<path d="M346.589 139.135C340.807 133.988 338.747 126.933 341.988 123.377C345.229 119.822 352.543 121.112 358.325 126.259C364.107 131.406 366.167 138.461 362.926 142.016C359.685 145.572 352.371 144.282 346.589 139.135Z" fill="white" stroke="#25134D" stroke-width="0.5" stroke-miterlimit="10"/>
<path d="M356.022 132.958L358.376 135.502L359.274 134.929L355.793 131.162L354.22 132.178L350.555 128.199L348.717 129.406L346.39 126.899L345.509 127.475L348.946 131.202L350.784 129.995L354.465 133.976L356.022 132.958Z" fill="#23024D"/>
<path d="M349.119 132.536L346.808 130.032L345.927 130.608L349.348 134.332L351.202 133.128L354.867 137.107L356.44 136.091L358.792 138.651L359.689 138.078L356.194 134.292L354.635 135.327L350.971 131.348L349.119 132.536Z" fill="#23024D"/>
</g>
<path d="M165.747 131.798C157.467 130.961 159.197 139.484 169.589 150.802C179.981 162.121 195.108 171.96 203.377 172.763C211.657 173.599 209.927 165.077 199.535 153.758C189.155 142.473 174.027 132.634 165.747 131.798Z" fill="white" stroke="#25134D" stroke-width="0.5" stroke-miterlimit="10"/>
<path d="M187.682 151.046L193.644 154.905L193.356 153.322L184.525 147.588L185.087 150.387L175.747 144.376L176.404 147.665L170.532 143.85L170.866 145.456L179.594 151.112L178.925 147.789L188.243 153.845L187.682 151.046Z" fill="#23024D"/>
<path d="M181.939 153.646L176.078 149.864L176.367 151.448L185.095 157.104L184.426 153.781L193.744 159.837L193.216 157.027L199.179 160.886L198.857 159.314L190.026 153.58L190.588 156.379L181.281 150.357L181.939 153.646Z" fill="#23024D"/>
<path d="M161.288 133.206L154.819 140.903C152.57 143.599 155.54 150.402 163.17 158.738C173.566 170.063 188.697 179.91 196.965 180.715C199.148 180.953 200.637 180.49 201.468 179.539L207.971 171.831C207.151 172.815 205.684 173.233 203.468 173.007C195.188 172.168 180.057 162.322 169.672 151.03C162.01 142.705 159.04 135.903 161.288 133.206Z" fill="white"/>
<path d="M161.288 133.206L154.819 140.903C152.57 143.599 155.54 150.402 163.17 158.738C173.566 170.063 188.697 179.91 196.965 180.715C199.148 180.953 200.637 180.49 201.468 179.539L207.971 171.831C207.151 172.815 205.684 173.233 203.468 173.007C195.188 172.168 180.057 162.322 169.672 151.03C162.01 142.705 159.04 135.903 161.288 133.206Z" stroke="#25134D" stroke-width="0.5" stroke-miterlimit="10"/>
<path d="M188.463 271.772C188.409 271.744 188.355 271.716 188.282 271.685C188.12 271.602 187.957 271.518 187.795 271.435C187.721 271.404 187.632 271.351 187.559 271.321C187.416 271.24 187.269 271.178 187.107 271.095C187.034 271.064 186.944 271.011 186.871 270.981C186.709 270.897 186.543 270.832 186.378 270.768C186.324 270.74 186.25 270.709 186.196 270.681C185.977 270.589 185.738 270.493 185.518 270.401C185.483 270.376 185.426 270.367 185.391 270.342C185.206 270.274 185.022 270.206 184.84 270.12C184.767 270.089 184.694 270.058 184.618 270.046C184.452 269.981 184.284 269.936 184.137 269.874C184.064 269.843 183.988 269.831 183.915 269.8C183.711 269.729 183.508 269.659 183.301 269.607C183.282 269.604 183.244 269.598 183.228 269.576C183.005 269.502 182.764 269.425 182.538 269.37C182.446 269.337 182.35 269.321 182.277 269.291C182.128 269.248 181.978 269.205 181.829 269.162C181.661 269.116 181.511 269.073 181.34 269.046C181.225 269.028 181.133 268.994 181.019 268.976C180.962 268.967 180.885 268.955 180.831 268.927C180.663 268.881 180.491 268.854 180.323 268.808C180.247 268.796 180.17 268.784 180.078 268.75C179.945 268.729 179.795 268.686 179.662 268.665C179.529 268.644 179.414 268.626 179.281 268.604C179.147 268.583 179.033 268.565 178.9 268.544C178.785 268.526 178.652 268.505 178.538 268.487C178.404 268.466 178.29 268.448 178.157 268.427C178.042 268.408 177.909 268.387 177.792 268.388C177.677 268.37 177.541 268.368 177.427 268.349C177.312 268.331 177.176 268.329 177.062 268.311C176.947 268.293 176.849 268.297 176.735 268.278C176.56 268.27 176.386 268.262 176.214 268.235C176.116 268.238 176.021 268.223 175.922 268.227C175.748 268.219 175.554 268.207 175.377 268.218C175.298 268.224 175.202 268.209 175.123 268.216C175.006 268.217 174.908 268.22 174.79 268.221C174.673 268.222 174.556 268.222 174.438 268.223C174.321 268.224 174.223 268.227 174.124 268.231C174.007 268.232 173.89 268.233 173.769 268.252C173.69 268.259 173.63 268.268 173.551 268.275C173.411 268.292 173.275 268.289 173.155 268.309C173.076 268.316 172.996 268.322 172.917 268.329C172.778 268.345 172.638 268.362 172.48 268.375C172.439 268.388 172.382 268.379 172.34 268.392C172.16 268.421 171.979 268.45 171.799 268.479C171.558 268.518 171.337 268.56 171.112 268.621C171.052 268.631 170.97 268.656 170.909 268.666C170.767 268.701 170.625 268.736 170.482 268.772C170.4 268.797 170.299 268.82 170.217 268.845C170.115 268.868 170.03 268.912 169.929 268.934C169.827 268.957 169.742 269.001 169.638 269.042C169.556 269.068 169.473 269.093 169.388 269.138C169.284 269.179 169.199 269.223 169.094 269.264C169.031 269.293 168.968 269.321 168.905 269.35C168.779 269.407 168.671 269.467 168.545 269.524C168.504 269.537 168.482 269.553 168.438 269.584C168.286 269.676 168.138 269.749 167.986 269.84C167.857 269.916 167.725 270.01 167.614 270.089C167.57 270.121 167.526 270.152 167.482 270.184C167.394 270.247 167.324 270.313 167.258 270.36C167.214 270.392 167.167 270.442 167.123 270.474C167.054 270.54 166.984 270.606 166.918 270.653C166.874 270.685 166.846 270.738 166.802 270.77C166.733 270.836 166.683 270.905 166.613 270.971C166.588 271.005 166.544 271.037 166.516 271.09C166.444 271.175 166.394 271.244 166.322 271.329C166.297 271.364 166.274 271.379 166.249 271.414C166.171 271.536 166.096 271.64 166.018 271.762C166.015 271.781 165.993 271.797 165.99 271.816C165.934 271.922 165.877 272.029 165.821 272.136C165.79 272.208 165.759 272.28 165.725 272.371C165.697 272.424 165.669 272.477 165.66 272.534L167.288 267.977C167.288 267.977 167.288 267.977 167.291 267.958C167.319 267.905 167.328 267.849 167.354 267.814C167.385 267.742 167.416 267.67 167.45 267.579C167.506 267.472 167.562 267.366 167.615 267.278C167.618 267.259 167.64 267.243 167.643 267.225C167.7 267.118 167.778 266.996 167.853 266.892C167.853 266.892 167.853 266.892 167.856 266.873C167.881 266.839 167.903 266.823 167.928 266.788C167.978 266.719 168.028 266.65 168.079 266.581C168.082 266.562 168.101 266.565 168.104 266.546C168.129 266.512 168.173 266.48 168.201 266.427C168.248 266.377 168.295 266.326 168.323 266.273C168.345 266.257 168.367 266.242 168.37 266.223C168.415 266.191 168.443 266.138 168.487 266.106C168.531 266.075 168.556 266.04 168.6 266.009C168.625 265.974 168.666 265.961 168.691 265.927C168.735 265.895 168.783 265.845 168.827 265.814C168.849 265.798 168.874 265.763 168.915 265.75C168.959 265.719 169.025 265.672 169.069 265.64C169.113 265.609 169.158 265.577 169.202 265.546C169.224 265.53 169.246 265.514 169.246 265.514C169.356 265.435 169.463 265.375 169.574 265.296C169.593 265.299 169.596 265.281 169.615 265.284C169.744 265.208 169.874 265.132 170.022 265.059C170.022 265.059 170.022 265.059 170.041 265.062C170.082 265.049 170.104 265.034 170.148 265.002C170.256 264.942 170.36 264.901 170.448 264.838C170.47 264.822 170.489 264.825 170.489 264.825C170.553 264.796 170.616 264.768 170.679 264.739C170.761 264.714 170.827 264.667 170.91 264.641C170.932 264.625 170.951 264.628 170.973 264.613C171.055 264.587 171.14 264.543 171.222 264.517C171.286 264.489 171.349 264.46 171.431 264.435C171.453 264.419 171.491 264.425 171.513 264.409C171.614 264.387 171.7 264.343 171.801 264.32C171.864 264.292 171.924 264.282 172.007 264.256C172.029 264.241 172.048 264.244 172.089 264.231C172.231 264.196 172.374 264.16 172.516 264.125C172.576 264.115 172.617 264.103 172.68 264.074C172.7 264.077 172.7 264.077 172.722 264.061C172.946 264.001 173.187 263.962 173.409 263.92C173.428 263.923 173.428 263.923 173.431 263.904C173.592 263.872 173.773 263.843 173.95 263.832C173.991 263.819 174.048 263.828 174.089 263.816C174.169 263.809 174.251 263.783 174.349 263.78C174.409 263.77 174.469 263.76 174.527 263.769C174.606 263.763 174.685 263.756 174.764 263.749C174.904 263.733 175.021 263.732 175.16 263.716C175.24 263.709 175.3 263.699 175.379 263.692C175.398 263.695 175.439 263.683 175.458 263.686C175.557 263.682 175.636 263.675 175.734 263.672C175.832 263.668 175.95 263.667 176.048 263.664C176.165 263.663 176.283 263.662 176.4 263.661C176.517 263.661 176.615 263.657 176.733 263.656C176.752 263.659 176.771 263.662 176.812 263.65C176.869 263.659 176.948 263.652 177.006 263.661C177.18 263.669 177.358 263.659 177.551 263.67C177.649 263.667 177.745 263.682 177.843 263.678C178.017 263.686 178.192 263.695 178.363 263.722C178.421 263.731 178.481 263.721 178.538 263.73C178.595 263.739 178.633 263.745 178.69 263.754C178.805 263.773 178.922 263.772 179.055 263.793C179.17 263.811 179.306 263.813 179.42 263.831C179.535 263.85 179.668 263.871 179.785 263.87C179.919 263.891 180.033 263.909 180.166 263.93C180.281 263.948 180.414 263.97 180.528 263.988C180.662 264.009 180.776 264.027 180.909 264.048C181.024 264.066 181.157 264.087 181.291 264.108C181.367 264.12 181.443 264.132 181.5 264.141C181.576 264.153 181.633 264.163 181.71 264.175C181.786 264.187 181.862 264.199 181.954 264.233C182.126 264.26 182.294 264.306 182.463 264.352C182.52 264.361 182.596 264.373 182.65 264.401C182.669 264.404 182.688 264.407 182.727 264.413C182.803 264.425 182.895 264.458 182.971 264.471C183.14 264.516 183.292 264.541 183.461 264.587C183.499 264.593 183.518 264.596 183.556 264.602C183.645 264.654 183.775 264.694 183.887 264.731C183.979 264.765 184.074 264.78 184.148 264.811C184.167 264.814 184.186 264.817 184.205 264.82C184.411 264.872 184.615 264.943 184.818 265.013L184.837 265.016C184.856 265.019 184.895 265.025 184.911 265.047C185.079 265.093 185.245 265.158 185.413 265.204C185.451 265.21 185.486 265.235 185.524 265.241C185.598 265.271 185.674 265.283 185.747 265.314C185.839 265.348 185.912 265.379 186.005 265.413C186.1 265.428 186.173 265.459 186.246 265.49C186.32 265.521 186.393 265.551 186.469 265.563C186.504 265.588 186.561 265.597 186.599 265.603C186.746 265.665 186.876 265.705 187.023 265.767C187.058 265.791 187.115 265.8 187.15 265.825C187.169 265.828 187.169 265.828 187.188 265.831C187.389 265.921 187.573 265.989 187.774 266.078C187.793 266.081 187.809 266.103 187.828 266.106C187.882 266.134 187.955 266.165 188.009 266.192C188.118 266.248 188.248 266.288 188.356 266.344C188.41 266.371 188.446 266.396 188.5 266.424C188.573 266.455 188.662 266.508 188.735 266.538C188.809 266.569 188.882 266.6 188.955 266.631C189.028 266.662 189.117 266.714 189.191 266.745C189.264 266.776 189.353 266.829 189.426 266.86C189.461 266.884 189.499 266.89 189.554 266.918C189.681 266.977 189.805 267.054 189.914 267.11C189.968 267.138 190.022 267.166 190.095 267.197C190.114 267.2 190.13 267.221 190.13 267.221C190.328 267.33 190.525 267.438 190.723 267.546C190.723 267.546 190.742 267.549 190.739 267.568C190.774 267.593 190.828 267.621 190.863 267.645C191.007 267.726 191.15 267.806 191.293 267.887C191.348 267.915 191.402 267.943 191.453 267.989C191.596 268.07 191.737 268.169 191.88 268.249C191.899 268.252 191.896 268.271 191.915 268.274C192.094 268.379 192.253 268.482 192.41 268.603C192.429 268.606 192.426 268.625 192.445 268.628C192.62 268.752 192.796 268.876 192.971 269C192.99 269.003 193.006 269.025 193.006 269.025C193.041 269.049 193.076 269.074 193.112 269.099C193.233 269.195 193.357 269.273 193.479 269.369C193.514 269.394 193.53 269.416 193.568 269.422C193.603 269.446 193.619 269.468 193.654 269.493C193.794 269.592 193.913 269.707 194.053 269.807C194.088 269.831 194.123 269.856 194.139 269.878C194.158 269.881 194.155 269.9 194.174 269.903C194.347 270.046 194.519 270.188 194.692 270.331C194.711 270.334 194.708 270.353 194.727 270.356C194.813 270.428 194.9 270.499 194.964 270.586C194.98 270.608 194.999 270.611 195.015 270.633C195.117 270.726 195.219 270.819 195.303 270.909C195.322 270.912 195.319 270.931 195.338 270.934C195.389 270.981 195.421 271.024 195.472 271.071C195.539 271.139 195.606 271.208 195.674 271.276C195.725 271.323 195.757 271.366 195.808 271.413C195.859 271.46 195.891 271.503 195.942 271.55C195.958 271.572 195.978 271.575 195.994 271.596C196.093 271.708 196.176 271.799 196.275 271.911C196.31 271.936 196.323 271.976 196.359 272.001C196.474 272.135 196.57 272.265 196.685 272.399L196.702 272.421C196.718 272.443 196.75 272.486 196.766 272.508C196.83 272.595 196.913 272.686 196.974 272.792C197.006 272.835 197.038 272.879 197.068 272.941C197.132 273.028 197.177 273.113 197.244 273.181C197.276 273.225 197.305 273.287 197.337 273.331C197.382 273.415 197.447 273.502 197.492 273.586C197.524 273.63 197.556 273.673 197.585 273.736C197.63 273.82 197.694 273.907 197.736 274.01C197.749 274.051 197.782 274.094 197.798 274.116C197.856 274.241 197.933 274.368 197.991 274.493C197.988 274.512 198.007 274.515 198.004 274.534C198.065 274.64 198.104 274.761 198.147 274.864C198.16 274.905 198.173 274.946 198.205 274.989C198.231 275.07 198.276 275.154 198.302 275.236C198.315 275.276 198.325 275.336 198.357 275.379C198.383 275.46 198.409 275.541 198.435 275.623C198.448 275.663 198.458 275.723 198.471 275.763C198.497 275.844 198.505 275.922 198.531 276.004C198.544 276.044 198.557 276.085 198.567 276.144C198.59 276.244 198.594 276.341 198.62 276.422C198.617 276.441 198.63 276.481 198.627 276.5C198.647 276.619 198.648 276.735 198.668 276.853C198.662 276.891 198.678 276.913 198.672 276.95C198.676 277.047 198.683 277.125 198.668 277.219C198.662 277.257 198.675 277.297 198.666 277.354C198.654 277.429 198.661 277.507 198.649 277.582C198.643 277.62 198.634 277.676 198.628 277.714C198.616 277.789 198.604 277.864 198.592 277.939C198.586 277.977 198.577 278.033 198.571 278.07C198.559 278.146 198.547 278.221 198.516 278.293C198.509 278.33 198.503 278.368 198.497 278.406C198.46 278.515 198.442 278.628 198.405 278.738L196.793 283.316C196.83 283.206 196.867 283.097 196.885 282.984C196.891 282.946 196.897 282.909 196.903 282.871C196.915 282.796 196.946 282.724 196.958 282.649C196.964 282.611 196.973 282.555 196.979 282.517C196.991 282.442 197.003 282.367 197.015 282.292C197.021 282.254 197.03 282.198 197.036 282.161C197.048 282.085 197.041 282.007 197.053 281.932C197.059 281.895 197.046 281.854 197.055 281.798C196.953 281.704 196.968 281.611 196.961 281.532C196.967 281.495 196.951 281.473 196.957 281.435C196.956 281.32 196.936 281.201 196.916 281.082C196.919 281.064 196.906 281.023 196.909 281.004C196.905 280.907 196.882 280.807 196.856 280.726C196.843 280.686 196.83 280.645 196.82 280.586C196.794 280.504 196.787 280.426 196.761 280.345C196.77 280.289 196.76 280.229 196.727 280.186C196.701 280.105 196.675 280.024 196.649 279.942C196.636 279.902 196.626 279.842 196.594 279.799C196.568 279.718 196.542 279.637 196.497 279.552C196.484 279.512 196.471 279.471 196.439 279.428C196.397 279.325 196.338 279.2 196.296 279.097C196.299 279.078 196.28 279.075 196.283 279.056C196.225 278.932 196.167 278.807 196.09 278.679C196.077 278.639 196.045 278.595 196.029 278.573C195.983 278.489 195.941 278.386 195.877 278.299C195.845 278.255 195.813 278.212 195.784 278.149C195.739 278.065 195.694 277.981 195.626 277.913C195.594 277.869 195.565 277.807 195.533 277.763C195.488 277.679 195.424 277.592 195.357 277.523C195.325 277.48 195.293 277.436 195.263 277.374C195.199 277.286 195.135 277.199 195.055 277.09C195.023 277.047 195.007 277.025 194.975 276.981C194.878 276.851 194.763 276.717 194.648 276.583C194.632 276.561 194.6 276.518 194.564 276.493C194.484 276.384 194.382 276.291 194.283 276.179C194.235 276.113 194.164 276.064 194.116 275.998C194.065 275.952 194.033 275.908 193.982 275.861C193.915 275.793 193.847 275.725 193.78 275.656C193.729 275.609 193.697 275.566 193.646 275.519C193.547 275.407 193.425 275.311 193.323 275.218C193.307 275.196 193.288 275.193 193.272 275.171C193.189 275.081 193.083 275.007 192.981 274.913C192.809 274.771 192.655 274.631 192.464 274.485C192.429 274.46 192.377 274.413 192.342 274.389C192.221 274.292 192.084 274.174 191.943 274.075C191.892 274.028 191.841 273.982 191.768 273.951C191.646 273.855 191.522 273.777 191.401 273.681C191.35 273.634 191.295 273.607 191.244 273.56C191.069 273.436 190.893 273.312 190.718 273.188C190.699 273.185 190.702 273.166 190.683 273.163C190.523 273.061 190.348 272.937 190.188 272.834C190.029 272.732 189.888 272.633 189.726 272.549C189.528 272.441 189.353 272.317 189.155 272.209C189.101 272.181 189.066 272.156 189.012 272.128C188.894 272.013 188.677 271.902 188.463 271.772Z" fill="white" stroke="#25134D" stroke-width="0.5" stroke-miterlimit="10"/>
<path d="M189.815 272.576C182.517 268.127 172.748 266.908 167.976 269.87C163.203 272.832 165.247 278.856 172.545 283.305C179.842 287.754 189.611 288.973 194.384 286.011C199.157 283.049 197.113 277.025 189.815 272.576Z" fill="white" stroke="#25134D" stroke-width="0.5" stroke-miterlimit="10"/>
<path d="M175.717 273.905L176.512 276.249L180.322 276.714L181.58 280.423L184.814 280.836L186.007 284.342L184.189 284.114L183.362 281.726L180.145 281.335L178.868 277.623L175.06 277.139L173.88 273.674L175.717 273.905Z" fill="#25134D"/>
<path d="M182.666 279.745L181.408 276.036L177.597 275.571L176.417 272.105L178.235 272.334L179.033 274.659L182.86 275.146L184.121 278.836L187.354 279.249L188.547 282.755L186.71 282.524L185.903 280.139L182.666 279.745Z" fill="#25134D"/>
<path d="M265.269 114.866C265.228 114.844 265.187 114.823 265.131 114.8C265.008 114.736 264.884 114.673 264.761 114.61C264.705 114.586 264.637 114.546 264.582 114.523C264.473 114.462 264.362 114.415 264.238 114.351C264.182 114.328 264.115 114.288 264.059 114.264C263.936 114.201 263.81 114.152 263.684 114.103C263.643 114.081 263.587 114.058 263.546 114.037C263.379 113.967 263.198 113.894 263.031 113.824C263.005 113.805 262.961 113.798 262.935 113.779C262.794 113.728 262.654 113.676 262.516 113.61C262.461 113.587 262.405 113.564 262.347 113.554C262.221 113.505 262.093 113.47 261.982 113.424C261.927 113.4 261.869 113.391 261.813 113.367C261.658 113.314 261.504 113.26 261.347 113.221C261.332 113.218 261.303 113.214 261.291 113.197C261.122 113.141 260.938 113.083 260.767 113.041C260.697 113.015 260.624 113.004 260.569 112.98C260.455 112.948 260.342 112.915 260.228 112.883C260.1 112.848 259.987 112.815 259.856 112.794C259.77 112.781 259.699 112.755 259.613 112.741C259.569 112.734 259.511 112.725 259.47 112.704C259.342 112.669 259.212 112.648 259.084 112.614C259.026 112.604 258.968 112.595 258.898 112.57C258.797 112.554 258.683 112.521 258.582 112.505C258.48 112.489 258.394 112.475 258.292 112.459C258.191 112.443 258.104 112.429 258.003 112.413C257.916 112.399 257.815 112.383 257.728 112.37C257.626 112.354 257.539 112.34 257.438 112.324C257.351 112.31 257.25 112.294 257.161 112.295C257.074 112.281 256.97 112.279 256.883 112.265C256.797 112.252 256.693 112.25 256.606 112.236C256.519 112.222 256.445 112.225 256.358 112.211C256.225 112.205 256.093 112.199 255.962 112.178C255.888 112.181 255.815 112.169 255.741 112.172C255.608 112.166 255.461 112.157 255.326 112.165C255.266 112.17 255.194 112.159 255.133 112.164C255.044 112.164 254.97 112.167 254.88 112.168C254.791 112.168 254.702 112.169 254.613 112.169C254.524 112.17 254.449 112.173 254.375 112.175C254.285 112.176 254.196 112.176 254.105 112.191C254.045 112.196 253.999 112.204 253.939 112.209C253.833 112.221 253.729 112.22 253.638 112.234C253.578 112.239 253.517 112.245 253.457 112.25C253.351 112.262 253.245 112.275 253.125 112.285C253.094 112.295 253.05 112.288 253.019 112.297C252.882 112.32 252.745 112.342 252.608 112.364C252.425 112.394 252.256 112.425 252.086 112.472C252.04 112.479 251.978 112.498 251.932 112.506C251.824 112.532 251.716 112.559 251.607 112.586C251.545 112.605 251.468 112.622 251.405 112.642C251.328 112.659 251.264 112.693 251.187 112.71C251.11 112.727 251.045 112.76 250.966 112.792C250.903 112.811 250.841 112.83 250.776 112.864C250.697 112.895 250.632 112.929 250.553 112.96C250.505 112.982 250.457 113.004 250.409 113.025C250.313 113.069 250.231 113.114 250.135 113.158C250.104 113.167 250.087 113.179 250.054 113.203C249.939 113.273 249.826 113.328 249.711 113.398C249.613 113.455 249.512 113.527 249.428 113.587C249.395 113.611 249.361 113.635 249.328 113.659C249.261 113.707 249.208 113.757 249.158 113.793C249.124 113.817 249.088 113.855 249.055 113.879C249.002 113.929 248.95 113.98 248.9 114.016C248.866 114.04 248.845 114.08 248.811 114.104C248.759 114.154 248.72 114.207 248.668 114.257C248.649 114.283 248.615 114.307 248.594 114.348C248.539 114.412 248.501 114.465 248.446 114.529C248.427 114.555 248.41 114.567 248.391 114.594C248.332 114.687 248.275 114.765 248.215 114.858C248.213 114.873 248.196 114.885 248.194 114.899C248.151 114.98 248.109 115.061 248.066 115.142C248.042 115.197 248.019 115.251 247.993 115.321C247.972 115.361 247.95 115.402 247.943 115.444L249.181 111.982C249.181 111.982 249.181 111.982 249.183 111.968C249.204 111.928 249.211 111.885 249.23 111.859C249.254 111.804 249.277 111.749 249.303 111.68C249.346 111.599 249.389 111.518 249.429 111.451C249.431 111.437 249.448 111.425 249.45 111.411C249.493 111.33 249.552 111.237 249.61 111.158C249.61 111.158 249.61 111.158 249.612 111.144C249.631 111.117 249.648 111.105 249.667 111.079C249.705 111.027 249.743 110.974 249.781 110.922C249.783 110.907 249.798 110.91 249.8 110.895C249.819 110.869 249.853 110.845 249.874 110.805C249.91 110.766 249.946 110.728 249.967 110.688C249.984 110.676 250.001 110.664 250.003 110.649C250.036 110.626 250.058 110.585 250.091 110.561C250.125 110.537 250.144 110.511 250.177 110.487C250.196 110.461 250.228 110.451 250.247 110.425C250.28 110.401 250.316 110.363 250.349 110.339C250.366 110.327 250.385 110.3 250.417 110.291C250.45 110.267 250.5 110.231 250.534 110.207C250.567 110.183 250.601 110.159 250.634 110.135C250.651 110.123 250.668 110.111 250.668 110.111C250.752 110.051 250.833 110.005 250.917 109.946C250.932 109.948 250.934 109.934 250.948 109.936C251.047 109.878 251.145 109.821 251.258 109.765C251.258 109.765 251.258 109.765 251.272 109.768C251.303 109.758 251.32 109.746 251.354 109.722C251.435 109.676 251.514 109.645 251.581 109.597C251.598 109.585 251.613 109.587 251.613 109.587C251.661 109.566 251.709 109.544 251.757 109.522C251.819 109.503 251.869 109.467 251.932 109.448C251.949 109.436 251.963 109.438 251.98 109.426C252.042 109.407 252.107 109.373 252.17 109.354C252.218 109.332 252.266 109.31 252.328 109.291C252.345 109.279 252.374 109.284 252.391 109.272C252.468 109.255 252.532 109.221 252.609 109.204C252.657 109.182 252.703 109.175 252.765 109.155C252.782 109.143 252.797 109.146 252.828 109.136C252.936 109.109 253.044 109.083 253.153 109.056C253.198 109.048 253.229 109.039 253.277 109.017C253.292 109.019 253.292 109.019 253.309 109.007C253.479 108.961 253.662 108.932 253.831 108.9C253.845 108.902 253.845 108.902 253.847 108.888C253.97 108.863 254.107 108.841 254.242 108.833C254.273 108.823 254.317 108.83 254.348 108.821C254.408 108.816 254.471 108.796 254.545 108.793C254.591 108.786 254.637 108.779 254.68 108.785C254.74 108.78 254.801 108.775 254.861 108.77C254.967 108.758 255.056 108.757 255.162 108.745C255.222 108.74 255.268 108.732 255.328 108.727C255.342 108.729 255.373 108.72 255.388 108.722C255.463 108.719 255.523 108.714 255.597 108.711C255.672 108.708 255.761 108.708 255.836 108.705C255.925 108.705 256.014 108.704 256.103 108.704C256.192 108.703 256.267 108.7 256.356 108.7C256.371 108.702 256.385 108.704 256.416 108.695C256.46 108.701 256.52 108.696 256.564 108.703C256.696 108.71 256.831 108.702 256.978 108.71C257.053 108.707 257.125 108.719 257.2 108.716C257.332 108.722 257.465 108.729 257.595 108.749C257.639 108.756 257.684 108.749 257.728 108.756C257.771 108.763 257.8 108.767 257.844 108.774C257.93 108.788 258.02 108.787 258.121 108.803C258.208 108.817 258.311 108.819 258.398 108.833C258.485 108.846 258.586 108.862 258.676 108.862C258.777 108.878 258.864 108.892 258.965 108.908C259.052 108.921 259.153 108.938 259.24 108.951C259.341 108.967 259.428 108.981 259.53 108.997C259.616 109.011 259.718 109.027 259.819 109.043C259.877 109.052 259.935 109.061 259.978 109.068C260.036 109.077 260.08 109.084 260.138 109.093C260.196 109.103 260.253 109.112 260.324 109.137C260.454 109.158 260.582 109.193 260.71 109.228C260.753 109.235 260.811 109.244 260.852 109.265C260.867 109.267 260.881 109.27 260.91 109.274C260.968 109.283 261.038 109.309 261.096 109.318C261.224 109.353 261.34 109.371 261.468 109.406C261.497 109.411 261.511 109.413 261.54 109.418C261.608 109.458 261.707 109.488 261.792 109.516C261.862 109.542 261.934 109.553 261.99 109.577C262.004 109.579 262.019 109.581 262.033 109.584C262.19 109.623 262.345 109.677 262.5 109.731L262.514 109.733C262.528 109.735 262.557 109.74 262.57 109.756C262.698 109.791 262.823 109.84 262.951 109.875C262.98 109.88 263.007 109.899 263.036 109.903C263.091 109.927 263.149 109.936 263.205 109.959C263.275 109.985 263.331 110.008 263.401 110.034C263.473 110.046 263.529 110.069 263.584 110.093C263.64 110.116 263.696 110.139 263.754 110.149C263.78 110.167 263.824 110.174 263.853 110.179C263.964 110.226 264.063 110.256 264.174 110.303C264.201 110.322 264.244 110.329 264.271 110.347C264.285 110.35 264.285 110.35 264.3 110.352C264.452 110.42 264.592 110.472 264.745 110.54C264.759 110.542 264.771 110.558 264.786 110.561C264.827 110.582 264.883 110.605 264.924 110.626C265.006 110.669 265.105 110.699 265.187 110.741C265.229 110.762 265.255 110.781 265.296 110.802C265.352 110.826 265.42 110.866 265.475 110.889C265.531 110.913 265.587 110.936 265.642 110.96C265.698 110.983 265.766 111.023 265.821 111.046C265.877 111.07 265.945 111.11 266 111.133C266.027 111.152 266.056 111.157 266.097 111.178C266.194 111.222 266.288 111.281 266.371 111.324C266.412 111.345 266.453 111.366 266.509 111.389C266.523 111.392 266.535 111.408 266.535 111.408C266.685 111.49 266.835 111.573 266.986 111.655C266.986 111.655 267 111.657 266.998 111.672C267.024 111.69 267.066 111.712 267.092 111.73C267.201 111.792 267.31 111.853 267.419 111.914C267.46 111.935 267.501 111.956 267.54 111.992C267.649 112.053 267.756 112.128 267.865 112.189C267.879 112.192 267.877 112.206 267.891 112.208C268.027 112.288 268.148 112.366 268.267 112.458C268.282 112.46 268.279 112.474 268.294 112.477C268.427 112.571 268.56 112.665 268.694 112.759C268.708 112.762 268.72 112.778 268.72 112.778C268.747 112.797 268.774 112.816 268.8 112.835C268.893 112.908 268.987 112.967 269.079 113.04C269.106 113.059 269.118 113.075 269.147 113.08C269.174 113.099 269.186 113.115 269.213 113.134C269.319 113.21 269.409 113.297 269.516 113.372C269.542 113.391 269.569 113.41 269.581 113.427C269.596 113.429 269.594 113.443 269.608 113.445C269.739 113.554 269.87 113.663 270.001 113.771C270.016 113.773 270.013 113.788 270.028 113.79C270.093 113.844 270.159 113.898 270.208 113.965C270.22 113.981 270.234 113.984 270.246 114C270.324 114.071 270.402 114.142 270.465 114.21C270.48 114.213 270.477 114.227 270.492 114.229C270.531 114.265 270.555 114.298 270.594 114.333C270.645 114.385 270.696 114.437 270.747 114.489C270.786 114.524 270.81 114.558 270.849 114.593C270.888 114.628 270.912 114.661 270.951 114.697C270.963 114.713 270.978 114.716 270.99 114.732C271.065 114.817 271.129 114.886 271.204 114.971C271.231 114.99 271.241 115.021 271.267 115.04C271.355 115.141 271.428 115.241 271.516 115.342L271.528 115.359C271.54 115.375 271.565 115.408 271.577 115.425C271.625 115.491 271.689 115.56 271.735 115.64C271.76 115.673 271.784 115.707 271.806 115.754C271.855 115.82 271.889 115.884 271.94 115.936C271.965 115.969 271.987 116.017 272.011 116.05C272.045 116.114 272.094 116.18 272.128 116.244C272.153 116.277 272.177 116.31 272.199 116.358C272.233 116.422 272.282 116.488 272.314 116.566C272.324 116.597 272.349 116.63 272.361 116.646C272.405 116.741 272.464 116.838 272.508 116.933C272.505 116.947 272.52 116.95 272.518 116.964C272.564 117.044 272.594 117.137 272.626 117.215C272.636 117.246 272.646 117.277 272.67 117.31C272.69 117.372 272.724 117.436 272.744 117.497C272.754 117.528 272.761 117.573 272.786 117.606C272.806 117.668 272.825 117.73 272.845 117.791C272.855 117.822 272.863 117.867 272.873 117.898C272.893 117.96 272.898 118.019 272.918 118.081C272.928 118.112 272.937 118.142 272.945 118.187C272.963 118.263 272.966 118.337 272.985 118.399C272.983 118.413 272.993 118.444 272.991 118.458C273.006 118.548 273.007 118.636 273.022 118.726C273.017 118.755 273.03 118.771 273.025 118.8C273.028 118.874 273.033 118.933 273.022 119.004C273.017 119.033 273.027 119.064 273.02 119.107C273.011 119.164 273.017 119.223 273.008 119.28C273.003 119.309 272.996 119.351 272.992 119.38C272.982 119.437 272.973 119.494 272.964 119.551C272.96 119.58 272.953 119.623 272.948 119.651C272.939 119.708 272.93 119.765 272.906 119.82C272.902 119.849 272.897 119.877 272.892 119.906C272.864 119.989 272.851 120.075 272.822 120.158L271.597 123.636C271.625 123.553 271.654 123.47 271.667 123.384C271.672 123.356 271.676 123.327 271.681 123.298C271.69 123.241 271.714 123.187 271.723 123.13C271.727 123.101 271.734 123.058 271.739 123.03C271.748 122.973 271.757 122.916 271.766 122.858C271.771 122.83 271.778 122.787 271.782 122.759C271.792 122.701 271.786 122.642 271.795 122.585C271.8 122.556 271.79 122.526 271.797 122.483C271.719 122.412 271.731 122.341 271.725 122.281C271.73 122.253 271.718 122.236 271.722 122.208C271.721 122.12 271.706 122.03 271.691 121.939C271.693 121.925 271.683 121.894 271.686 121.88C271.683 121.806 271.665 121.73 271.645 121.669C271.635 121.638 271.625 121.607 271.618 121.562C271.598 121.5 271.593 121.441 271.573 121.379C271.58 121.337 271.572 121.291 271.548 121.258C271.528 121.197 271.508 121.135 271.488 121.073C271.478 121.042 271.471 120.997 271.446 120.964C271.427 120.903 271.407 120.841 271.372 120.777C271.363 120.746 271.353 120.715 271.328 120.682C271.296 120.604 271.252 120.509 271.22 120.431C271.222 120.417 271.208 120.414 271.21 120.4C271.166 120.305 271.122 120.211 271.063 120.114C271.053 120.083 271.029 120.05 271.017 120.033C270.982 119.969 270.95 119.891 270.902 119.825C270.877 119.791 270.853 119.758 270.831 119.711C270.796 119.647 270.762 119.583 270.711 119.531C270.687 119.498 270.665 119.451 270.64 119.417C270.606 119.353 270.557 119.287 270.506 119.235C270.482 119.202 270.457 119.169 270.435 119.122C270.387 119.055 270.338 118.989 270.277 118.906C270.253 118.873 270.24 118.857 270.216 118.824C270.143 118.724 270.055 118.623 269.968 118.521C269.955 118.504 269.931 118.471 269.904 118.452C269.843 118.37 269.766 118.299 269.69 118.214C269.654 118.164 269.6 118.126 269.564 118.077C269.525 118.041 269.501 118.008 269.462 117.973C269.411 117.921 269.36 117.869 269.309 117.817C269.27 117.781 269.245 117.748 269.206 117.713C269.131 117.628 269.039 117.555 268.961 117.484C268.949 117.467 268.934 117.465 268.922 117.448C268.859 117.38 268.779 117.323 268.701 117.252C268.57 117.144 268.454 117.038 268.308 116.927C268.281 116.908 268.243 116.873 268.216 116.854C268.124 116.781 268.019 116.691 267.913 116.615C267.874 116.58 267.835 116.545 267.779 116.521C267.687 116.448 267.593 116.389 267.501 116.316C267.462 116.281 267.421 116.26 267.382 116.224C267.248 116.13 267.115 116.036 266.982 115.941C266.967 115.939 266.97 115.925 266.955 115.923C266.834 115.845 266.701 115.751 266.579 115.673C266.458 115.595 266.352 115.52 266.228 115.456C266.078 115.374 265.945 115.28 265.795 115.197C265.754 115.176 265.727 115.157 265.686 115.136C265.596 115.049 265.431 114.964 265.269 114.866Z" fill="white" stroke="#25134D" stroke-width="0.5" stroke-miterlimit="10"/>
<path d="M266.296 115.476C260.751 112.096 253.329 111.169 249.703 113.42C246.077 115.67 247.63 120.247 253.174 123.627C258.719 127.007 266.141 127.933 269.767 125.683C273.393 123.433 271.84 118.856 266.296 115.476Z" fill="white" stroke="#25134D" stroke-width="0.5" stroke-miterlimit="10"/>
<path d="M255.585 116.486L256.188 118.266L259.084 118.62L260.039 121.438L262.496 121.752L263.403 124.415L262.021 124.242L261.393 122.428L258.949 122.131L257.978 119.31L255.085 118.943L254.189 116.31L255.585 116.486Z" fill="#25134D"/>
<path d="M260.864 120.923L259.908 118.105L257.013 117.751L256.116 115.118L257.498 115.292L258.104 117.058L261.011 117.428L261.969 120.232L264.426 120.546L265.333 123.21L263.937 123.034L263.323 121.222L260.864 120.923Z" fill="#25134D"/>
<path d="M283.996 221.656L287.73 225.46C288.16 225.893 289.183 225.744 290.813 224.922C295.24 222.697 302.439 216.341 306.895 210.721C309.72 207.184 310.753 204.789 310.039 204.055L306.305 200.251C307.019 200.985 305.986 203.38 303.179 206.921C298.724 212.54 291.524 218.896 287.097 221.122C285.449 221.94 284.426 222.089 283.996 221.656Z" fill="white"/>
<path d="M283.996 221.656L287.73 225.46C288.16 225.893 289.183 225.744 290.813 224.922C295.24 222.697 302.439 216.341 306.895 210.721C309.72 207.184 310.753 204.789 310.039 204.055L306.305 200.251C307.019 200.985 305.986 203.38 303.179 206.921C298.724 212.54 291.524 218.896 287.097 221.122C285.449 221.94 284.426 222.089 283.996 221.656Z" stroke="#25134D" stroke-width="0.5" stroke-miterlimit="10"/>
<path d="M303.221 200.805C298.792 203.025 291.592 209.369 287.141 214.962C282.69 220.556 282.675 223.31 287.104 221.09C291.533 218.871 298.733 212.526 303.187 206.915C307.641 201.304 307.65 198.585 303.221 200.805Z" fill="white" stroke="#25134D" stroke-width="0.5" stroke-miterlimit="10"/>
<path d="M294.461 208.798L294.458 209.856L297.279 207.383L297.27 209.06L299.658 206.975L299.645 208.56L298.306 209.753L298.294 208.675L295.923 210.763L295.915 209.083L293.112 211.559L293.123 209.991L294.461 208.798Z" fill="#25134D"/>
<path d="M292.091 212.846L292.093 211.788L290.758 212.963L290.747 214.531L293.547 212.073L293.556 213.753L295.926 211.665L295.938 212.744L297.277 211.55L297.272 209.962L294.902 212.05L294.911 210.373L292.091 212.846Z" fill="#25134D"/>
</svg>
