<svg width="97" height="15" viewBox="0 0 97 15" fill="none" xmlns="http://www.w3.org/2000/svg">
    <path d="M6.70936 10.8379C6.70936 10.3984 6.54914 10.0412 6.22869 9.76648C5.92159 9.49176 5.52771 9.2445 5.04704 9.02472C4.57972 8.79121 4.06567 8.55769 3.50489 8.32418C2.95746 8.07692 2.44341 7.78159 1.96274 7.43819C1.49542 7.08104 1.10154 6.64148 0.781089 6.1195C0.473994 5.59753 0.320447 4.93132 0.320447 4.12088C0.320447 3.42033 0.433939 2.81593 0.660922 2.30769C0.887905 1.78571 1.20835 1.35302 1.62226 1.00962C2.04953 0.666209 2.55022 0.412088 3.12436 0.247253C3.69849 0.0824177 4.33939 0 5.04704 0C5.86151 0 6.62925 0.0755497 7.35025 0.226649C8.07126 0.364012 8.66542 0.570055 9.13274 0.84478L8.27154 3.21429C7.9778 3.02198 7.53718 2.85027 6.94969 2.69918C6.36221 2.53434 5.72799 2.45192 5.04704 2.45192C4.40615 2.45192 3.91212 2.58242 3.56497 2.84341C3.23117 3.1044 3.06427 3.45467 3.06427 3.89423C3.06427 4.30632 3.21782 4.64972 3.52492 4.92445C3.84536 5.19918 4.23925 5.4533 4.70657 5.68681C5.18724 5.92033 5.70129 6.16071 6.24872 6.40797C6.8095 6.65522 7.32355 6.95742 7.79087 7.31456C8.27154 7.65797 8.66542 8.09066 8.97252 8.61264C9.29296 9.12088 9.45319 9.75961 9.45319 10.5288C9.45319 11.2981 9.32634 11.9643 9.07266 12.5275C8.83232 13.0769 8.48517 13.5371 8.0312 13.908C7.59059 14.2788 7.04983 14.5536 6.40894 14.7321C5.7814 14.9107 5.0871 15 4.32604 15C3.32464 15 2.44341 14.9038 1.68235 14.7115C0.921285 14.5192 0.360503 14.3269 0 14.1346L0.881229 11.7239C1.0281 11.8063 1.21503 11.8956 1.44201 11.9918C1.68235 12.0879 1.94939 12.1772 2.24313 12.2596C2.53687 12.342 2.84397 12.4107 3.16441 12.4657C3.49821 12.5206 3.83869 12.5481 4.18584 12.5481C5.00031 12.5481 5.62117 12.4107 6.04844 12.136C6.48905 11.8475 6.70936 11.4148 6.70936 10.8379Z" fill="#25044F"/>
    <path d="M10.1797 4.40934H11.5616V2.47253L14.1652 1.71016V4.40934H16.6086V6.67582H14.1652V10.6319C14.1652 11.3462 14.232 11.8613 14.3655 12.1772C14.5124 12.4794 14.7794 12.6305 15.1666 12.6305C15.4337 12.6305 15.6606 12.603 15.8476 12.5481C16.0479 12.4931 16.2682 12.4107 16.5085 12.3008L16.9691 14.3613C16.6086 14.5398 16.188 14.6909 15.7074 14.8146C15.2267 14.9382 14.7394 15 14.2453 15C13.3241 15 12.6431 14.7596 12.2025 14.2788C11.7752 13.7843 11.5616 12.9808 11.5616 11.8681V6.67582H10.1797V4.40934Z" fill="#25044F"/>
    <path d="M26.1169 13.8255C25.7163 14.1552 25.1689 14.4368 24.4746 14.6703C23.7937 14.8901 23.066 15 22.2916 15C20.676 15 19.4943 14.5192 18.7466 13.5577C17.9989 12.5824 17.6251 11.25 17.6251 9.56044C17.6251 7.74725 18.0456 6.38736 18.8868 5.48077C19.728 4.57418 20.9096 4.12088 22.4318 4.12088C22.9391 4.12088 23.4332 4.18956 23.9138 4.32692C24.3945 4.46429 24.8218 4.69093 25.1956 5.00687C25.5695 5.3228 25.8699 5.74863 26.0969 6.28434C26.3239 6.82005 26.4373 7.48626 26.4373 8.28297C26.4373 8.57143 26.4173 8.88049 26.3773 9.21016C26.3506 9.53983 26.3038 9.88324 26.2371 10.2404H20.2287C20.2687 11.1058 20.4824 11.7582 20.8696 12.1978C21.2701 12.6374 21.911 12.8571 22.7923 12.8571C23.3397 12.8571 23.827 12.7747 24.2543 12.6099C24.6949 12.4313 25.0287 12.2527 25.2557 12.0742L26.1169 13.8255ZM22.3917 6.26374C21.7108 6.26374 21.2034 6.47665 20.8696 6.90247C20.5491 7.31456 20.3555 7.87088 20.2888 8.57143H24.014C24.0674 7.82967 23.9539 7.25961 23.6735 6.86126C23.4065 6.46291 22.9792 6.26374 22.3917 6.26374Z" fill="#25044F"/>
    <path d="M30.9599 11.25C30.9599 11.7308 31.02 12.081 31.1402 12.3008C31.2603 12.5206 31.4539 12.6305 31.721 12.6305C31.8812 12.6305 32.0347 12.6168 32.1816 12.5893C32.3418 12.5618 32.5354 12.5 32.7624 12.4038L33.0428 14.5055C32.8292 14.6154 32.5021 14.7253 32.0614 14.8352C31.6208 14.9451 31.1669 15 30.6995 15C29.9385 15 29.3577 14.8214 28.9571 14.4643C28.5566 14.0934 28.3563 13.489 28.3563 12.6511V0.288461H30.9599V11.25Z" fill="#25044F"/>
    <path d="M36.847 11.25C36.847 11.7308 36.9071 12.081 37.0273 12.3008C37.1474 12.5206 37.341 12.6305 37.6081 12.6305C37.7683 12.6305 37.9219 12.6168 38.0687 12.5893C38.229 12.5618 38.4226 12.5 38.6495 12.4038L38.9299 14.5055C38.7163 14.6154 38.3892 14.7253 37.9486 14.8352C37.5079 14.9451 37.054 15 36.5867 15C35.8256 15 35.2448 14.8214 34.8442 14.4643C34.4437 14.0934 34.2434 13.489 34.2434 12.6511V0.288461H36.847V11.25Z" fill="#25044F"/>
    <path d="M39.9903 5.00687C40.5244 4.75962 41.1586 4.56731 41.893 4.42994C42.6273 4.27885 43.3951 4.2033 44.1962 4.2033C44.8905 4.2033 45.4713 4.29258 45.9386 4.47115C46.4059 4.63599 46.7731 4.87637 47.0401 5.19231C47.3205 5.50824 47.5141 5.88599 47.621 6.32555C47.7411 6.76511 47.8012 7.25961 47.8012 7.80907C47.8012 8.41346 47.7812 9.02472 47.7411 9.64286C47.7011 10.2473 47.6744 10.8448 47.661 11.4354C47.661 12.0261 47.681 12.603 47.7211 13.1662C47.7612 13.7157 47.8613 14.2376 48.0215 14.7321H45.8986L45.478 13.3104H45.3778C45.1108 13.7363 44.7369 14.1071 44.2563 14.4231C43.7889 14.7253 43.1814 14.8764 42.4337 14.8764C41.9664 14.8764 41.5458 14.8077 41.172 14.6703C40.7981 14.5192 40.4777 14.3132 40.2106 14.0522C39.9436 13.7775 39.7366 13.4615 39.5898 13.1044C39.4429 12.7335 39.3694 12.3214 39.3694 11.8681C39.3694 11.2363 39.503 10.7074 39.77 10.2816C40.0504 9.84203 40.4443 9.49176 40.9517 9.23077C41.4724 8.95604 42.0866 8.7706 42.7942 8.67445C43.5152 8.56456 44.3164 8.53022 45.1976 8.57143C45.291 7.8022 45.2376 7.25275 45.0374 6.92308C44.8371 6.57967 44.3898 6.40797 43.6955 6.40797C43.1748 6.40797 42.6206 6.46291 42.0332 6.5728C41.459 6.68269 40.985 6.82692 40.6112 7.00549L39.9903 5.00687ZM43.2949 12.6717C43.8157 12.6717 44.2296 12.5549 44.5367 12.3214C44.8438 12.0742 45.0707 11.8132 45.2176 11.5385V10.1992C44.8037 10.158 44.4031 10.1511 44.0159 10.1786C43.6421 10.206 43.3083 10.2679 43.0145 10.364C42.7208 10.4602 42.4871 10.5975 42.3136 10.7761C42.14 10.9547 42.0532 11.1813 42.0532 11.456C42.0532 11.8407 42.16 12.1429 42.3736 12.3626C42.6006 12.5687 42.9077 12.6717 43.2949 12.6717Z" fill="#25044F"/>
    <path d="M55.5138 6.92308C55.0999 6.77198 54.7261 6.69643 54.3923 6.69643C53.925 6.69643 53.5311 6.82692 53.2106 7.08791C52.9035 7.33516 52.6966 7.65797 52.5898 8.05632V14.7115H49.9861V4.40934H52.009L52.3094 5.76923H52.3895C52.6165 5.26099 52.9236 4.8695 53.3108 4.59478C53.698 4.32005 54.1519 4.18269 54.6727 4.18269C55.0198 4.18269 55.4137 4.25824 55.8543 4.40934L55.5138 6.92308Z" fill="#25044F"/>
    <path d="M67.0216 2.8022H62.9359V14.7115H60.1921V2.8022H56.0864V0.288461H67.0216V2.8022Z" fill="#25044F"/>
    <path d="M73.8397 13.8255C73.4392 14.1552 72.8917 14.4368 72.1974 14.6703C71.5165 14.8901 70.7888 15 70.0144 15C68.3988 15 67.2171 14.5192 66.4694 13.5577C65.7217 12.5824 65.3479 11.25 65.3479 9.56044C65.3479 7.74725 65.7685 6.38736 66.6096 5.48077C67.4508 4.57418 68.6325 4.12088 70.1546 4.12088C70.6619 4.12088 71.156 4.18956 71.6367 4.32692C72.1173 4.46429 72.5446 4.69093 72.9184 5.00687C73.2923 5.3228 73.5927 5.74863 73.8197 6.28434C74.0467 6.82005 74.1602 7.48626 74.1602 8.28297C74.1602 8.57143 74.1401 8.88049 74.1001 9.21016C74.0734 9.53983 74.0266 9.88324 73.9599 10.2404H67.9515C67.9916 11.1058 68.2052 11.7582 68.5924 12.1978C68.993 12.6374 69.6339 12.8571 70.5151 12.8571C71.0625 12.8571 71.5499 12.7747 71.9771 12.6099C72.4177 12.4313 72.7515 12.2527 72.9785 12.0742L73.8397 13.8255ZM70.1145 6.26374C69.4336 6.26374 68.9262 6.47665 68.5924 6.90247C68.2719 7.31456 68.0783 7.87088 68.0116 8.57143H71.7368C71.7902 7.82967 71.6767 7.25961 71.3963 6.86126C71.1293 6.46291 70.702 6.26374 70.1145 6.26374Z" fill="#25044F"/>
    <path d="M81.5267 6.92308C81.1128 6.77198 80.7389 6.69643 80.4051 6.69643C79.9378 6.69643 79.5439 6.82692 79.2235 7.08791C78.9164 7.33516 78.7094 7.65797 78.6026 8.05632V14.7115H75.999V4.40934H78.0218L78.3222 5.76923H78.4023C78.6293 5.26099 78.9364 4.8695 79.3236 4.59478C79.7108 4.32005 80.1648 4.18269 80.6855 4.18269C81.0327 4.18269 81.4266 4.25824 81.8672 4.40934L81.5267 6.92308Z" fill="#25044F"/>
    <path d="M88.7084 14.7115V9.10714C88.7084 8.15934 88.6216 7.48626 88.4481 7.08791C88.2745 6.68956 87.914 6.49038 87.3666 6.49038C86.9126 6.49038 86.5454 6.62088 86.265 6.88187C85.9846 7.12912 85.771 7.45192 85.6241 7.85027V14.7115H83.0205V4.40934H85.0433L85.3437 5.76923H85.4238C85.7309 5.32967 86.1181 4.94506 86.5855 4.61538C87.0661 4.28571 87.6803 4.12088 88.428 4.12088C89.0689 4.12088 89.5897 4.25824 89.9902 4.53297C90.4041 4.79396 90.7246 5.24038 90.9516 5.87225C91.2587 5.33654 91.6525 4.91071 92.1332 4.59478C92.6139 4.27885 93.1947 4.12088 93.8756 4.12088C94.4364 4.12088 94.9104 4.18956 95.2976 4.32692C95.6982 4.46429 96.0186 4.70467 96.259 5.04808C96.5126 5.37775 96.6996 5.82417 96.8197 6.38736C96.9399 6.95055 97 7.66483 97 8.53022V14.7115H94.3964V8.9217C94.3964 8.11126 94.3096 7.50687 94.136 7.10852C93.9758 6.69643 93.6086 6.49038 93.0345 6.49038C92.5671 6.49038 92.1933 6.62088 91.9129 6.88187C91.6459 7.14286 91.4456 7.5 91.3121 7.9533V14.7115H88.7084Z" fill="#25044F"/>
</svg>
