<svg width="95" height="19" viewBox="0 0 95 19" fill="none" xmlns="http://www.w3.org/2000/svg">
    <path d="M17.1331 0V4.5599H18.9495V7.65313H17.1331V18.6333H13.0413V7.65313H11.3025V4.5599H13.0413V0H17.1338H17.1331ZM26.2822 4.14074C30.6557 4.14074 33.6482 7.36441 33.6482 12.606V13.0514H23.2889C23.6475 14.5451 24.6955 15.3309 26.4607 15.3309C27.2789 15.3309 27.9442 15.0955 28.5582 14.5451H33.0086C31.6781 17.48 29.402 18.9738 26.3327 18.9738C24.2352 18.9738 22.5476 18.2404 21.1402 16.7204C19.8104 15.2784 19.1203 13.4968 19.1203 11.5051C19.1203 9.53977 19.8617 7.73108 21.217 6.34235C22.5988 4.92657 24.4145 4.14074 26.2822 4.14074ZM23.1616 10.1164H29.5813C29.0946 8.6744 27.9442 7.88856 26.3327 7.88856C24.6443 7.88856 23.4426 8.77939 23.1608 10.1156L23.1616 10.1164ZM35.3374 18.6333V0H39.353V18.6333H35.3374ZM41.9411 18.6333V0H45.9552V18.6333H41.9419H41.9411ZM58.3173 6.13237V4.5607H62.3586V18.6333H58.4462V17.0617C57.243 18.2667 56.0165 18.7121 54.3785 18.7121C52.7165 18.7121 51.2843 18.1617 50.0811 17.0617C48.496 15.6196 47.677 13.7322 47.677 11.5314C47.677 9.51273 48.4447 7.70483 49.8769 6.28985C51.1562 5.00532 52.7165 4.35072 54.4554 4.35072C56.1182 4.35072 57.3974 4.92657 58.3173 6.13237ZM55.2744 14.9642C57.0132 14.9642 58.471 13.4968 58.471 11.5576C58.471 9.53977 57.0132 8.019 55.1207 8.019C53.2025 8.019 51.7183 9.61772 51.7183 11.5051C51.7183 13.4697 53.2025 14.965 55.2736 14.965L55.2744 14.9642ZM64.8023 18.6333V4.5607H68.8948V18.6333H64.8023ZM72.9027 4.35072C73.6239 4.35072 74.3155 4.64427 74.8255 5.16678C75.3355 5.6893 75.622 6.39798 75.622 7.13693C75.622 7.87588 75.3355 8.58456 74.8255 9.10708C74.3155 9.62959 73.6239 9.92314 72.9027 9.92314C72.1815 9.92314 71.4898 9.62959 70.9799 9.10708C70.4699 8.58456 70.1834 7.87588 70.1834 7.13693C70.1834 6.39798 70.4699 5.6893 70.9799 5.16678C71.4898 4.64427 72.1815 4.35072 72.9027 4.35072ZM85.2104 11.6435L80.4209 4.5599H85.3579L87.7108 7.99514L88.6866 6.57062L90.0645 4.5599H95L93.6407 6.57062L92.6782 7.99435H87.7108L88.1122 8.58134L89.49 10.5913L95 18.6333H89.9372L87.7108 15.3405L86.8437 16.6226L85.4845 18.6333H80.4209L81.7987 16.6226L85.2104 11.6435ZM6.52223 9.90644C9.33543 10.6931 10.742 11.7931 10.742 14.1259C10.742 16.9559 8.56848 19 5.24293 19C2.17356 19 0.28101 17.2971 0 14.4401H3.81149V14.5713C3.81149 15.3572 4.42474 15.9076 5.29417 15.9076C6.16437 15.9076 6.67593 15.4622 6.67593 14.6763C6.67593 13.523 5.57595 13.5755 3.86195 13.0251C1.48345 12.2647 0.332244 10.9547 0.332244 8.83188C0.332244 6.07987 2.30164 4.14074 5.57595 4.14074C8.41477 4.14074 10.2305 5.79194 10.3849 8.46521H6.72716C6.57346 7.54735 6.24044 7.15443 5.52472 7.15443C4.73137 7.15443 4.27182 7.62609 4.27182 8.30773C4.27182 9.27809 5.11562 9.51273 6.52223 9.90644Z" fill="#25044F"/>
</svg>
