<svg width="100%" height="100%" viewBox="0 0 624 282" fill="none" xmlns="http://www.w3.org/2000/svg">
<g clip-path="url(#clip0_2850_43156)">
<rect width="624" height="282" fill="#FAFAFB"/>
<g opacity="0.1">
<path d="M286.712 25.4467L294.836 55.7639L295.57 55.5672L287.446 25.25L286.712 25.4467Z" fill="#23024D"/>
<path d="M254.133 28.3749L256.862 33.1021L257.52 32.7222L254.791 27.9949L254.133 28.3749Z" fill="#23024D"/>
<path d="M390.421 180.975L395.148 183.704L395.528 183.046L390.801 180.317L390.421 180.975Z" fill="#23024D"/>
<path d="M399.089 185.979L411.301 193.029L411.681 192.371L399.469 185.321L399.089 185.979Z" fill="#23024D"/>
<path d="M427.846 202.581L415.634 195.531L416.014 194.873L428.226 201.923L427.846 202.581Z" fill="#23024D"/>
<path d="M266.185 49.2537L259.135 37.0416L259.793 36.6617L266.843 48.8737L266.185 49.2537Z" fill="#23024D"/>
<path d="M268.689 53.587L275.74 65.799L276.398 65.4191L269.348 53.207L268.689 53.587Z" fill="#23024D"/>
<path d="M232.875 114.566L236.39 115.508L236.587 114.774L233.072 113.832L232.875 114.566Z" fill="#23024D"/>
<path d="M229.801 113.742L220.574 111.27L220.77 110.536L229.997 113.008L229.801 113.742Z" fill="#23024D"/>
<path d="M208.27 107.973L217.497 110.446L217.694 109.712L208.467 107.239L208.27 107.973Z" fill="#23024D"/>
<path d="M372.928 234.413L371.109 231.261L371.767 230.881L373.587 234.033L372.928 234.413Z" fill="#23024D"/>
<path d="M364.74 220.231L369.516 228.504L370.174 228.124L365.398 219.851L364.74 220.231Z" fill="#23024D"/>
<path d="M363.148 217.473L358.372 209.201L359.03 208.821L363.806 217.093L363.148 217.473Z" fill="#23024D"/>
<path d="M226.064 85.9119L213.852 78.8613L214.232 78.2032L226.444 85.2538L226.064 85.9119Z" fill="#23024D"/>
<path d="M230.397 88.4141L242.609 95.4647L242.989 94.8066L230.777 87.756L230.397 88.4141Z" fill="#23024D"/>
<path d="M386.841 207.195L376.869 197.224L377.407 196.687L387.378 206.658L386.841 207.195Z" fill="#23024D"/>
<path d="M390.38 210.734L400.351 220.705L400.888 220.168L390.917 210.197L390.38 210.734Z" fill="#23024D"/>
<path d="M250.44 70.7943L255.586 75.9407L256.124 75.4033L250.977 70.257L250.44 70.7943Z" fill="#23024D"/>
<path d="M245.935 66.2914L232.104 52.4606L232.641 51.9232L246.472 65.7541L245.935 66.2914Z" fill="#23024D"/>
<path d="M216.543 36.6617L227.283 47.6356L227.82 47.0983L217.081 36.1244L216.543 36.6617Z" fill="#23024D"/>
<path d="M353.075 273.319L351.191 266.289L351.925 266.093L353.809 273.123L353.075 273.319Z" fill="#23024D"/>
<path d="M344.482 241.244L349.545 260.138L350.279 259.941L345.216 241.048L344.482 241.244Z" fill="#23024D"/>
<path d="M342.717 234.654L337.772 216.2L338.506 216.003L343.451 234.457L342.717 234.654Z" fill="#23024D"/>
<path d="M427.922 167.153L397.605 159.03L397.801 158.296L428.118 166.419L427.922 167.153Z" fill="#23024D"/>
<path d="M239.833 183.706L244.561 180.976L244.181 180.318L239.454 183.048L239.833 183.706Z" fill="#23024D"/>
<path d="M235.892 185.978L223.68 193.029L223.3 192.371L235.513 185.32L235.892 185.978Z" fill="#23024D"/>
<path d="M207.136 202.581L219.348 195.531L218.968 194.873L206.756 201.923L207.136 202.581Z" fill="#23024D"/>
<path d="M380.849 28.3749L378.12 33.1021L377.462 32.7222L380.191 27.9949L380.849 28.3749Z" fill="#23024D"/>
<path d="M368.794 49.2537L375.845 37.0416L375.186 36.6617L368.136 48.8737L368.794 49.2537Z" fill="#23024D"/>
<path d="M366.293 53.587L359.243 65.799L358.585 65.4191L365.635 53.207L366.293 53.587Z" fill="#23024D"/>
<path d="M402.107 114.566L398.592 115.508L398.395 114.774L401.91 113.832L402.107 114.566Z" fill="#23024D"/>
<path d="M405.181 113.742L414.408 111.27L414.211 110.536L404.984 113.008L405.181 113.742Z" fill="#23024D"/>
<path d="M426.712 107.973L417.485 110.446L417.288 109.712L426.515 107.239L426.712 107.973Z" fill="#23024D"/>
<path d="M262.053 234.413L263.872 231.261L263.214 230.881L261.395 234.033L262.053 234.413Z" fill="#23024D"/>
<path d="M270.241 220.231L265.465 228.504L264.807 228.124L269.583 219.851L270.241 220.231Z" fill="#23024D"/>
<path d="M271.833 217.473L276.61 209.201L275.952 208.821L271.175 217.093L271.833 217.473Z" fill="#23024D"/>
<path d="M408.916 85.9127L421.128 78.862L420.748 78.2039L408.536 85.2546L408.916 85.9127Z" fill="#23024D"/>
<path d="M404.584 88.4141L392.372 95.4647L391.992 94.8066L404.204 87.756L404.584 88.4141Z" fill="#23024D"/>
<path d="M248.139 207.195L258.11 197.224L257.573 196.687L247.602 206.658L248.139 207.195Z" fill="#23024D"/>
<path d="M244.599 210.733L234.628 220.704L234.091 220.167L244.062 210.196L244.599 210.733Z" fill="#23024D"/>
<path d="M384.539 70.7943L379.393 75.9407L378.855 75.4033L384.002 70.257L384.539 70.7943Z" fill="#23024D"/>
<path d="M389.044 66.2914L402.875 52.4606L402.338 51.9232L388.507 65.7541L389.044 66.2914Z" fill="#23024D"/>
<path d="M416.496 38.996L407.696 47.6356L407.159 47.0983L415.958 38.4587L416.496 38.996Z" fill="#23024D"/>
<path d="M281.907 273.319L283.791 266.289L283.057 266.093L281.173 273.123L281.907 273.319Z" fill="#23024D"/>
<path d="M290.5 241.244L285.437 260.138L284.703 259.941L289.766 241.048L290.5 241.244Z" fill="#23024D"/>
<path d="M292.265 234.654L297.21 216.2L296.476 216.003L291.531 234.457L292.265 234.654Z" fill="#23024D"/>
<path d="M207.06 167.153L237.377 159.03L237.181 158.296L206.864 166.419L207.06 167.153Z" fill="#23024D"/>
<path d="M348.268 25.4467L340.145 55.7639L339.411 55.5672L347.534 25.25L348.268 25.4467Z" fill="#23024D"/>
<path d="M124.961 134.584H118V133.824H124.961V134.584Z" fill="#000636"/>
<path d="M156.984 134.584H131.922V133.824H156.984V134.584Z" fill="#000636"/>
<path d="M459.808 134.584H165.338V133.824H459.808V134.584Z" fill="#000636"/>
<path d="M500.881 134.584H475.82V133.824H500.881V134.584Z" fill="#000636"/>
<path d="M514.803 134.584H507.842V133.824H514.803V134.584Z" fill="#000636"/>
<path d="M314.145 -92L314.145 -82.6051H313.385L313.385 -92H314.145Z" fill="#000636"/>
<path d="M314.145 -73.2103L314.145 -39.3887H313.385L313.385 -73.2103H314.145Z" fill="#000636"/>
<path d="M314.145 -17.7799L314.145 379.624H313.385L313.385 -17.7799H314.145Z" fill="#000636"/>
<path d="M314.145 390.898L314.145 424.719H313.385L313.385 390.898H314.145Z" fill="#000636"/>
<path d="M314.145 434.114L314.145 443.509H313.385L313.385 434.114H314.145Z" fill="#000636"/>
<path fill-rule="evenodd" clip-rule="evenodd" d="M312.213 49.5605C312.73 49.5514 313.247 49.5469 313.766 49.5469C314.285 49.5469 314.802 49.5514 315.319 49.5605L315.306 50.3203C314.794 50.3113 314.28 50.3068 313.766 50.3068C313.252 50.3068 312.739 50.3113 312.226 50.3203L312.213 49.5605ZM317.636 49.6316C318.671 49.677 319.702 49.7405 320.728 49.8218L320.668 50.5794C319.651 50.4987 318.629 50.4357 317.603 50.3907L317.636 49.6316ZM306.804 49.8218C307.83 49.7405 308.861 49.677 309.896 49.6316L309.929 50.3907C308.903 50.4357 307.881 50.4987 306.865 50.5794L306.804 49.8218ZM323.035 50.0357C324.065 50.145 325.089 50.2722 326.108 50.4171L326.001 51.1695C324.991 51.0258 323.976 50.8997 322.955 50.7914L323.035 50.0357ZM301.424 50.4171C302.443 50.2722 303.467 50.145 304.497 50.0357L304.577 50.7914C303.556 50.8997 302.541 51.0258 301.531 51.1695L301.424 50.4171ZM328.402 50.775C329.421 50.948 330.434 51.1387 331.441 51.3469L331.287 52.091C330.289 51.8847 329.285 51.6957 328.275 51.5242L328.402 50.775ZM296.091 51.3469C297.098 51.1387 298.111 50.948 299.13 50.775L299.257 51.5242C298.247 51.6957 297.243 51.8847 296.245 52.091L296.091 51.3469ZM290.823 52.6101C291.816 52.3388 292.816 52.0847 293.822 51.8481L293.996 52.5878C292.998 52.8223 292.007 53.0742 291.024 53.3431L290.823 52.6101ZM333.71 51.8481C334.717 52.0847 335.716 52.3388 336.709 52.6101L336.509 53.3431C335.525 53.0742 334.534 52.8223 333.536 52.5878L333.71 51.8481ZM285.647 54.2014C286.621 53.8679 287.604 53.5512 288.594 53.2518L288.814 53.9791C287.833 54.2759 286.859 54.5898 285.893 54.9203L285.647 54.2014ZM338.938 53.2518C339.928 53.5512 340.911 53.8679 341.885 54.2014L341.639 54.9204C340.673 54.5898 339.699 54.2759 338.718 53.9791L338.938 53.2518ZM280.582 56.1145C281.534 55.7205 282.494 55.3429 283.462 54.982L283.728 55.6941C282.768 56.0517 281.816 56.426 280.873 56.8166L280.582 56.1145ZM344.07 54.982C345.038 55.3429 345.998 55.7205 346.95 56.1145L346.659 56.8166C345.716 56.426 344.764 56.0517 343.804 55.6941L344.07 54.982ZM275.646 58.3429C276.571 57.8898 277.506 57.4527 278.449 57.032L278.758 57.7259C277.824 58.143 276.898 58.5762 275.981 59.0253L275.646 58.3429ZM349.083 57.032C350.026 57.4527 350.961 57.8898 351.886 58.3429L351.551 59.0253C350.635 58.5762 349.709 58.143 348.774 57.7259L349.083 57.032ZM270.86 60.8768C271.755 60.3663 272.66 59.8713 273.576 59.3921L273.928 60.0653C273.021 60.5402 272.124 61.0309 271.236 61.5369L270.86 60.8768ZM353.957 59.3921C354.872 59.8713 355.777 60.3663 356.672 60.8768L356.296 61.5369C355.408 61.0309 354.511 60.5402 353.604 60.0653L353.957 59.3921ZM266.242 63.7049C267.104 63.1392 267.977 62.5883 268.86 62.0529L269.254 62.7026C268.379 63.2334 267.514 63.7794 266.659 64.3402L266.242 63.7049ZM358.672 62.0529C359.555 62.5884 360.428 63.1392 361.29 63.7049L360.873 64.3402C360.018 63.7794 359.153 63.2334 358.278 62.7026L358.672 62.0529ZM261.811 66.8161C262.635 66.1978 263.472 65.5938 264.319 65.0045L264.753 65.6284C263.913 66.2125 263.084 66.8112 262.266 67.4241L261.811 66.8161ZM363.213 65.0045C364.061 65.5938 364.897 66.1978 365.722 66.8161L365.266 67.4241C364.448 66.8112 363.619 66.2125 362.779 65.6284L363.213 65.0045ZM257.581 70.1985C258.366 69.5296 259.163 68.8745 259.972 68.2335L260.444 68.8291C259.642 69.4644 258.852 70.1138 258.074 70.7768L257.581 70.1985ZM367.56 68.2335C368.369 68.8745 369.166 69.5296 369.951 70.1985L369.458 70.7768C368.68 70.1138 367.89 69.4644 367.088 68.8291L367.56 68.2335ZM253.571 73.8377C254.313 73.121 255.068 72.4174 255.835 71.7273L256.343 72.2923C255.583 72.9763 254.834 73.6737 254.099 74.3842L253.571 73.8377ZM371.697 71.7273C372.464 72.4174 373.219 73.121 373.961 73.8377L373.433 74.3842C372.698 73.6738 371.95 72.9763 371.189 72.2923L371.697 71.7273ZM249.796 77.7201C250.492 76.9584 251.201 76.2091 251.924 75.4726L252.466 76.0048C251.75 76.7348 251.047 77.4775 250.357 78.2326L249.796 77.7201ZM375.608 75.4726C376.331 76.2091 377.04 76.9584 377.736 77.7201L377.175 78.2326C376.485 77.4775 375.782 76.7348 375.066 76.0048L375.608 75.4726ZM246.271 81.8307C246.918 81.0268 247.579 80.2347 248.254 79.4547L248.829 79.952C248.16 80.7251 247.504 81.5102 246.863 82.3071L246.271 81.8307ZM379.278 79.4547C379.953 80.2347 380.614 81.0268 381.261 81.8307L380.669 82.3071C380.028 81.5102 379.373 80.7251 378.704 79.952L379.278 79.4547ZM243.01 86.154C243.605 85.311 244.216 84.4791 244.84 83.6587L245.445 84.119C244.826 84.9322 244.221 85.7568 243.631 86.5924L243.01 86.154ZM382.692 83.6587C383.317 84.4791 383.927 85.311 384.522 86.154L383.901 86.5924C383.311 85.7568 382.706 84.9322 382.087 84.119L382.692 83.6587ZM240.027 90.6742C240.568 89.795 241.125 88.9262 241.697 88.0682L242.329 88.4896C241.762 89.34 241.21 90.2012 240.674 91.0726L240.027 90.6742ZM385.835 88.0682C386.407 88.9262 386.964 89.795 387.505 90.6742L386.858 91.0726C386.322 90.2012 385.77 89.34 385.203 88.4896L385.835 88.0682ZM237.335 95.3724C237.82 94.4606 238.321 93.5584 238.837 92.6663L239.495 93.0471C238.983 93.9313 238.486 94.8254 238.006 95.7292L237.335 95.3724ZM388.695 92.6663C389.212 93.5584 389.712 94.4606 390.197 95.3725L389.526 95.7292C389.046 94.8254 388.549 93.9313 388.037 93.0471L388.695 92.6663ZM234.945 100.232C235.371 99.2908 235.814 98.359 236.273 97.4366L236.953 97.7751C236.498 98.6892 236.06 99.6127 235.637 100.545L234.945 100.232ZM391.259 97.4366C391.718 98.359 392.161 99.2908 392.587 100.232L391.895 100.545C391.472 99.6127 391.034 98.6893 390.579 97.7751L391.259 97.4366ZM232.868 105.234C233.234 104.267 233.616 103.309 234.016 102.36L234.716 102.655C234.32 103.596 233.941 104.545 233.579 105.503L232.868 105.234ZM393.516 102.36C393.916 103.309 394.298 104.267 394.664 105.234L393.953 105.503C393.591 104.545 393.212 103.596 392.816 102.655L393.516 102.36ZM231.114 110.358C231.417 109.369 231.738 108.388 232.077 107.415L232.794 107.664C232.459 108.629 232.141 109.601 231.84 110.581L231.114 110.358ZM395.456 107.415C395.794 108.388 396.115 109.369 396.419 110.358L395.692 110.581C395.391 109.601 395.073 108.629 394.738 107.664L395.456 107.415ZM229.69 115.581C229.93 114.575 230.188 113.576 230.463 112.584L231.195 112.788C230.922 113.77 230.667 114.76 230.429 115.757L229.69 115.581ZM397.069 112.584C397.345 113.576 397.602 114.575 397.843 115.581L397.103 115.757C396.865 114.76 396.61 113.77 396.337 112.788L397.069 112.584ZM228.601 120.886C228.776 119.867 228.97 118.854 229.181 117.848L229.925 118.004C229.715 119.001 229.523 120.005 229.349 121.015L228.601 120.886ZM398.351 117.848C398.562 118.854 398.756 119.867 398.932 120.886L398.183 121.015C398.009 120.005 397.817 119.001 397.607 118.004L398.351 117.848ZM227.85 126.251C227.961 125.222 228.09 124.198 228.237 123.179L228.989 123.288C228.843 124.297 228.715 125.312 228.605 126.332L227.85 126.251ZM399.295 123.179C399.442 124.198 399.571 125.222 399.682 126.251L398.927 126.332C398.817 125.312 398.689 124.297 398.543 123.288L399.295 123.179ZM227.44 131.65C227.486 130.615 227.55 129.584 227.633 128.559L228.39 128.62C228.308 129.636 228.244 130.658 228.199 131.684L227.44 131.65ZM399.899 128.559C399.982 129.584 400.047 130.615 400.093 131.65L399.333 131.684C399.288 130.658 399.224 129.636 399.142 128.62L399.899 128.559ZM227.354 135.52C227.354 135.002 227.358 134.484 227.367 133.967L228.127 133.981C228.118 134.493 228.113 135.006 228.113 135.52C228.113 136.035 228.118 136.548 228.127 137.06L227.367 137.074C227.358 136.557 227.354 136.039 227.354 135.52ZM400.165 133.967C400.174 134.484 400.179 135.002 400.179 135.52C400.179 136.039 400.174 136.557 400.165 137.074L399.405 137.06C399.414 136.548 399.419 136.035 399.419 135.52C399.419 135.006 399.414 134.493 399.405 133.981L400.165 133.967ZM227.633 142.482C227.55 141.457 227.486 140.426 227.44 139.391L228.199 139.357C228.244 140.383 228.308 141.405 228.39 142.421L227.633 142.482ZM400.093 139.391C400.047 140.426 399.982 141.457 399.899 142.482L399.142 142.421C399.224 141.405 399.288 140.383 399.333 139.357L400.093 139.391ZM228.237 147.861C228.09 146.843 227.961 145.819 227.85 144.79L228.605 144.708C228.715 145.729 228.843 146.744 228.989 147.753L228.237 147.861ZM399.682 144.79C399.571 145.819 399.442 146.843 399.295 147.861L398.543 147.753C398.689 146.744 398.817 145.729 398.927 144.708L399.682 144.79ZM229.181 153.193C228.97 152.187 228.776 151.174 228.601 150.155L229.349 150.026C229.523 151.036 229.715 152.039 229.925 153.037L229.181 153.193ZM398.932 150.155C398.756 151.174 398.562 152.187 398.351 153.193L397.607 153.037C397.817 152.039 398.009 151.036 398.183 150.026L398.932 150.155ZM230.463 158.457C230.188 157.465 229.93 156.466 229.69 155.46L230.429 155.284C230.667 156.28 230.922 157.27 231.195 158.253L230.463 158.457ZM397.843 155.46C397.602 156.466 397.345 157.465 397.069 158.457L396.337 158.253C396.61 157.27 396.865 156.28 397.103 155.284L397.843 155.46ZM232.077 163.626C231.738 162.653 231.417 161.672 231.114 160.683L231.84 160.46C232.141 161.44 232.459 162.412 232.794 163.377L232.077 163.626ZM396.419 160.683C396.115 161.672 395.794 162.653 395.456 163.626L394.738 163.377C395.073 162.412 395.391 161.44 395.692 160.46L396.419 160.683ZM234.016 168.681C233.616 167.731 233.234 166.773 232.868 165.807L233.579 165.538C233.941 166.496 234.32 167.445 234.716 168.386L234.016 168.681ZM394.664 165.807C394.298 166.773 393.916 167.731 393.516 168.681L392.816 168.386C393.212 167.445 393.591 166.496 393.953 165.538L394.664 165.807ZM236.273 173.604C235.814 172.682 235.371 171.75 234.945 170.809L235.637 170.496C236.06 171.428 236.498 172.352 236.953 173.266L236.273 173.604ZM392.587 170.809C392.161 171.75 391.718 172.682 391.259 173.604L390.579 173.266C391.034 172.352 391.472 171.428 391.895 170.496L392.587 170.809ZM238.837 178.375C238.321 177.483 237.82 176.58 237.335 175.668L238.006 175.312C238.486 176.215 238.983 177.11 239.495 177.994L238.837 178.375ZM390.197 175.668C389.712 176.58 389.212 177.483 388.695 178.375L388.037 177.994C388.549 177.11 389.046 176.215 389.526 175.312L390.197 175.668ZM241.697 182.973C241.125 182.115 240.568 181.246 240.027 180.367L240.674 179.968C241.21 180.84 241.762 181.701 242.329 182.551L241.697 182.973ZM387.505 180.367C386.964 181.246 386.407 182.115 385.835 182.973L385.203 182.551C385.77 181.701 386.322 180.84 386.858 179.968L387.505 180.367ZM244.84 187.382C244.216 186.562 243.605 185.73 243.01 184.887L243.631 184.449C244.221 185.284 244.826 186.109 245.445 186.922L244.84 187.382ZM384.522 184.887C383.927 185.73 383.317 186.562 382.692 187.382L382.087 186.922C382.706 186.109 383.311 185.284 383.901 184.449L384.522 184.887ZM248.254 191.586C247.579 190.806 246.918 190.014 246.271 189.21L246.863 188.734C247.504 189.531 248.16 190.316 248.829 191.089L248.254 191.586ZM381.261 189.21C380.614 190.014 379.953 190.806 379.278 191.586L378.704 191.089C379.373 190.316 380.028 189.531 380.669 188.734L381.261 189.21ZM251.924 195.568C251.201 194.832 250.492 194.083 249.796 193.321L250.357 192.808C251.047 193.563 251.75 194.306 252.466 195.036L251.924 195.568ZM377.736 193.321C377.04 194.083 376.331 194.832 375.608 195.568L375.066 195.036C375.782 194.306 376.485 193.563 377.175 192.808L377.736 193.321ZM255.835 199.314C255.068 198.624 254.313 197.92 253.571 197.203L254.099 196.657C254.834 197.367 255.583 198.065 256.343 198.749L255.835 199.314ZM373.961 197.203C373.219 197.92 372.464 198.624 371.697 199.314L371.189 198.749C371.95 198.065 372.698 197.367 373.433 196.657L373.961 197.203ZM259.972 202.807C259.163 202.166 258.366 201.511 257.581 200.842L258.074 200.264C258.852 200.927 259.642 201.576 260.444 202.212L259.972 202.807ZM369.951 200.842C369.166 201.511 368.369 202.166 367.56 202.807L367.088 202.212C367.89 201.576 368.68 200.927 369.458 200.264L369.951 200.842ZM264.319 206.036C263.472 205.447 262.635 204.843 261.811 204.225L262.266 203.617C263.084 204.23 263.913 204.828 264.753 205.413L264.319 206.036ZM365.722 204.225C364.897 204.843 364.061 205.447 363.213 206.036L362.779 205.413C363.619 204.828 364.448 204.23 365.266 203.617L365.722 204.225ZM268.86 208.988C267.977 208.453 267.104 207.902 266.242 207.336L266.659 206.701C267.514 207.262 268.379 207.807 269.254 208.338L268.86 208.988ZM361.29 207.336C360.428 207.902 359.555 208.453 358.672 208.988L358.278 208.338C359.153 207.808 360.018 207.262 360.873 206.701L361.29 207.336ZM273.575 211.649C272.66 211.17 271.755 210.675 270.86 210.164L271.236 209.504C272.124 210.01 273.021 210.501 273.928 210.976L273.575 211.649ZM356.672 210.164C355.777 210.675 354.872 211.17 353.957 211.649L353.604 210.976C354.511 210.501 355.408 210.01 356.296 209.504L356.672 210.164ZM278.449 214.009C277.506 213.588 276.571 213.151 275.646 212.698L275.981 212.016C276.898 212.465 277.824 212.898 278.758 213.315L278.449 214.009ZM351.886 212.698C350.961 213.151 350.026 213.588 349.083 214.009L348.774 213.315C349.709 212.898 350.635 212.465 351.551 212.016L351.886 212.698ZM283.462 216.059C282.494 215.698 281.534 215.32 280.582 214.926L280.873 214.224C281.816 214.615 282.768 214.989 283.728 215.347L283.462 216.059ZM346.95 214.926C345.998 215.32 345.038 215.698 344.07 216.059L343.804 215.347C344.764 214.989 345.716 214.615 346.659 214.224L346.95 214.926ZM288.594 217.789C287.604 217.49 286.621 217.173 285.647 216.84L285.893 216.121C286.859 216.451 287.833 216.765 288.814 217.062L288.594 217.789ZM341.885 216.84C340.911 217.173 339.928 217.49 338.938 217.789L338.718 217.062C339.699 216.765 340.673 216.451 341.639 216.121L341.885 216.84ZM293.822 219.193C292.816 218.956 291.816 218.702 290.823 218.431L291.024 217.698C292.007 217.967 292.998 218.219 293.996 218.453L293.822 219.193ZM336.709 218.431C335.716 218.702 334.717 218.956 333.71 219.193L333.536 218.453C334.534 218.219 335.525 217.967 336.509 217.698L336.709 218.431ZM299.13 220.266C298.111 220.093 297.098 219.902 296.091 219.694L296.245 218.95C297.243 219.156 298.247 219.345 299.257 219.517L299.13 220.266ZM331.441 219.694C330.434 219.902 329.421 220.093 328.402 220.266L328.275 219.517C329.285 219.345 330.289 219.156 331.287 218.95L331.441 219.694ZM304.497 221.005C303.467 220.896 302.443 220.769 301.424 220.624L301.531 219.871C302.541 220.015 303.556 220.141 304.577 220.25L304.497 221.005ZM326.108 220.624C325.089 220.769 324.065 220.896 323.035 221.005L322.955 220.25C323.976 220.141 324.991 220.015 326.001 219.871L326.108 220.624ZM309.896 221.409C308.861 221.364 307.83 221.3 306.804 221.219L306.865 220.462C307.881 220.542 308.903 220.605 309.929 220.65L309.896 221.409ZM320.728 221.219C319.702 221.3 318.671 221.364 317.636 221.409L317.603 220.65C318.629 220.605 319.651 220.542 320.668 220.462L320.728 221.219ZM313.766 221.494C313.247 221.494 312.73 221.49 312.213 221.48L312.226 220.721C312.739 220.73 313.252 220.734 313.766 220.734C314.28 220.734 314.794 220.73 315.306 220.721L315.319 221.48C314.802 221.49 314.285 221.494 313.766 221.494Z" fill="#23024D"/>
<path d="M259.718 189.952C259.718 160.347 283.913 136.342 313.767 136.342C343.62 136.342 367.816 160.347 367.816 189.952C367.816 219.557 343.62 243.562 313.767 243.562C313.26 243.562 312.756 243.555 312.253 243.541L312.232 244.301C312.742 244.315 313.253 244.322 313.767 244.322C344.034 244.322 368.575 219.982 368.575 189.952C368.575 159.921 344.034 135.582 313.767 135.582C283.5 135.582 258.958 159.921 258.958 189.952H259.718Z" fill="#23024D"/>
<path d="M258.958 189.952C258.958 190.465 258.965 190.977 258.979 191.487L259.739 191.466C259.725 190.963 259.718 190.458 259.718 189.952H258.958Z" fill="#23024D"/>
<path d="M259.092 193.781C259.164 194.805 259.264 195.821 259.392 196.828L260.146 196.732C260.02 195.739 259.921 194.737 259.85 193.727L259.092 193.781Z" fill="#23024D"/>
<path d="M259.731 199.1C259.903 200.111 260.104 201.112 260.332 202.103L261.073 201.932C260.848 200.955 260.65 199.968 260.48 198.972L259.731 199.1Z" fill="#23024D"/>
<path d="M260.895 204.33C261.167 205.317 261.467 206.293 261.793 207.258L262.513 207.014C262.191 206.064 261.896 205.101 261.627 204.128L260.895 204.33Z" fill="#23024D"/>
<path d="M262.575 209.417C262.944 210.372 263.34 211.313 263.761 212.241L264.453 211.927C264.038 211.013 263.648 210.084 263.284 209.143L262.575 209.417Z" fill="#23024D"/>
<path d="M264.754 214.312C265.216 215.225 265.703 216.122 266.214 217.005L266.871 216.624C266.367 215.754 265.887 214.869 265.432 213.969L264.754 214.312Z" fill="#23024D"/>
<path d="M267.407 218.967C267.956 219.829 268.529 220.674 269.125 221.502L269.742 221.059C269.154 220.242 268.589 219.408 268.048 218.559L267.407 218.967Z" fill="#23024D"/>
<path d="M270.505 223.338C271.136 224.141 271.789 224.926 272.463 225.693L273.034 225.191C272.369 224.435 271.725 223.661 271.103 222.869L270.505 223.338Z" fill="#23024D"/>
<path d="M274.016 227.385C274.722 228.122 275.449 228.84 276.195 229.537L276.714 228.981C275.978 228.294 275.261 227.586 274.565 226.859L274.016 227.385Z" fill="#23024D"/>
<path d="M277.905 231.069C278.679 231.734 279.472 232.378 280.283 232.999L280.745 232.396C279.946 231.783 279.164 231.148 278.401 230.493L277.905 231.069Z" fill="#23024D"/>
<path d="M282.134 234.358C282.969 234.944 283.821 235.508 284.689 236.047L285.09 235.402C284.234 234.87 283.394 234.314 282.571 233.736L282.134 234.358Z" fill="#23024D"/>
<path d="M286.664 237.22C287.551 237.721 288.453 238.199 289.371 238.652L289.707 237.971C288.803 237.524 287.913 237.053 287.038 236.558L286.664 237.22Z" fill="#23024D"/>
<path d="M291.45 239.625C292.382 240.038 293.327 240.425 294.284 240.786L294.553 240.075C293.608 239.719 292.676 239.337 291.758 238.931L291.45 239.625Z" fill="#23024D"/>
<path d="M296.449 241.552C297.416 241.871 298.394 242.164 299.383 242.43L299.581 241.696C298.605 241.434 297.641 241.145 296.688 240.83L296.449 241.552Z" fill="#23024D"/>
<path d="M301.613 242.98C302.605 243.203 303.607 243.399 304.618 243.568L304.743 242.818C303.746 242.652 302.758 242.458 301.779 242.239L301.613 242.98Z" fill="#23024D"/>
<path d="M306.891 243.898C307.898 244.023 308.915 244.121 309.938 244.191L309.99 243.433C308.98 243.364 307.978 243.267 306.984 243.144L306.891 243.898Z" fill="#23024D"/>
<path fill-rule="evenodd" clip-rule="evenodd" d="M313.768 133.823C343.621 133.823 367.817 109.819 367.817 80.2135H368.576C368.576 110.244 344.035 134.583 313.768 134.583C283.501 134.583 258.959 110.244 258.959 80.2135C258.959 50.183 283.501 25.8438 313.768 25.8438V26.6036C283.914 26.6036 259.719 50.6085 259.719 80.2135C259.719 109.819 283.914 133.823 313.768 133.823Z" fill="#23024D"/>
<path fill-rule="evenodd" clip-rule="evenodd" d="M368.555 78.6784C368.569 79.1884 368.576 79.7002 368.576 80.2135H367.817C367.817 79.7072 367.809 79.2026 367.795 78.6997L368.555 78.6784ZM368.142 73.3371C368.27 74.3447 368.371 75.3609 368.443 76.3848L367.685 76.438C367.614 75.4283 367.515 74.4264 367.388 73.433L368.142 73.3371ZM367.202 68.0625C367.431 69.0535 367.631 70.0548 367.804 71.0657L367.055 71.1936C366.885 70.1971 366.687 69.2099 366.462 68.2329L367.202 68.0625ZM365.741 62.9076C366.068 63.8719 366.367 64.8483 366.64 65.8359L365.907 66.0378C365.639 65.0643 365.343 64.1017 365.022 63.1511L365.741 62.9076ZM363.774 57.9241C364.195 58.8519 364.59 59.7936 364.959 60.7481L364.25 61.0222C363.887 60.0811 363.497 59.1528 363.082 58.2381L363.774 57.9241ZM361.321 53.1608C361.832 54.0429 362.319 54.9407 362.78 55.8531L362.102 56.1962C361.647 55.2966 361.167 54.4115 360.663 53.5417L361.321 53.1608ZM358.41 48.6631C359.005 49.4911 359.578 50.3365 360.128 51.1982L359.487 51.6066C358.945 50.7569 358.38 49.9234 357.793 49.1068L358.41 48.6631ZM355.071 44.4728C355.745 45.239 356.398 46.0241 357.029 46.8273L356.432 47.2966C355.81 46.5046 355.166 45.7304 354.501 44.9748L355.071 44.4728ZM351.34 40.6286C352.086 41.3258 352.812 42.0435 353.518 42.7808L352.969 43.3063C352.273 42.5792 351.557 41.8714 350.821 41.1839L351.34 40.6286ZM347.252 37.1661C348.062 37.7877 348.855 38.4313 349.629 39.096L349.134 39.6724C348.371 39.0169 347.589 38.3822 346.789 37.7692L347.252 37.1661ZM342.846 34.1179C343.714 34.6579 344.566 35.2213 345.4 35.8073L344.963 36.4291C344.14 35.8512 343.3 35.2956 342.444 34.7631L342.846 34.1179ZM338.164 31.5135C339.081 31.9665 339.984 32.4443 340.871 32.9459L340.497 33.6073C339.622 33.1127 338.732 32.6416 337.827 32.1948L338.164 31.5135ZM333.25 29.3789C334.208 29.7403 335.153 30.1276 336.084 30.5399L335.776 31.2348C334.858 30.8282 333.926 30.4463 332.982 30.0899L333.25 29.3789ZM328.151 27.7353C329.14 28.0015 330.119 28.2945 331.085 28.6135L330.847 29.3351C329.894 29.0205 328.929 28.7316 327.954 28.4691L328.151 27.7353ZM322.916 26.5978C323.928 26.7664 324.93 26.9625 325.922 27.1853L325.755 27.9267C324.777 27.707 323.789 27.5136 322.791 27.3473L322.916 26.5978ZM317.596 25.9743C318.62 26.0444 319.636 26.1424 320.644 26.2675L320.55 27.0216C319.556 26.8982 318.554 26.8016 317.544 26.7324L317.596 25.9743ZM313.768 25.8438C314.281 25.8438 314.793 25.8507 315.303 25.8646L315.282 26.6242C314.779 26.6105 314.274 26.6036 313.768 26.6036V25.8438Z" fill="#23024D"/>
</g>
<path d="M386.328 149.358C425.477 140.535 514.174 120.541 569.929 107.974C585.958 104.362 595.99 88.445 592.375 72.4169V72.4169C588.761 56.3962 572.879 46.3267 556.853 49.9185C500.817 62.4777 411.184 82.4893 372 91.3123" stroke="#23024D"/>
<path d="M471.115 86.8574C455.131 90.4601 431.504 95.7861 415.468 99.4001C409.716 100.697 406.116 106.408 407.414 112.16C408.71 117.91 414.41 121.523 420.161 120.234C436.149 116.651 459.757 111.377 475.829 107.775C481.693 106.461 485.314 100.586 483.874 94.7516C482.475 89.0836 476.81 85.5736 471.115 86.8574Z" fill="#E5E1EA"/>
<path d="M535 115L511 121L503 109L524 85L582.5 52.5L590 66.5C589 67.3333 590 65.5 583 70C576 74.5 569.5 80.5 561.5 90C553.5 99.5 540 112 535 115Z" fill="#E5E1EA"/>
<path d="M397.156 78.9583C392.977 72.3881 394.35 63.9983 397.765 61.696L422.907 44.7265C422.907 44.7265 434.87 37.2461 439.184 37.2461C443.498 37.2461 513.499 37.5 513.499 37.5L526.499 35.5L575.499 6.5L610.999 -19L662.999 23L591.5 60.5L572.999 72.5C572.999 72.5 553.5 90.5 545 99.5C536.5 108.5 520.999 118 520.999 118L513.499 121L496.465 125.487L468.621 130.474L464.673 92.4488L467.582 88.0853L459.132 80.6741C459.132 80.6741 447.496 69.7998 443.271 68.9686C439.046 68.1375 413.999 80.6741 413.999 80.6741C411.499 80.6741 401.866 86.3637 397.156 78.9583Z" fill="#FAFAFB"/>
<path d="M403.578 153.472C399.399 146.902 404.285 140.729 407.699 138.426L457 103L470 85L486.5 82L473.488 129.367L419.239 156.999C414.646 159.35 408.288 160.878 403.578 153.472Z" fill="#FCFCFD"/>
<path d="M648.941 -43.7773C648.941 -43.7773 539.072 30.8296 528.13 35.0655C517.187 39.3014 450.428 37.1834 439.764 37.1834C429.1 37.1834 389.677 67.5796 384.97 71.508V71.508C381.911 74.061 383.049 78.2955 384.937 81.8041L388 87.498M467.011 88.1876C467.011 88.1876 447.439 68.8897 442.379 68.8897C438.213 68.8897 420.87 76.4554 413.5 81.498" stroke="#23024D"/>
<path d="M467.01 87.994L463.325 71.0234" stroke="#23024D"/>
<path d="M473.729 75.8422C469.96 83.0159 461.739 99.1508 455.238 103.949C448.736 108.747 421.197 129.116 407.77 138.171C404.355 140.475 399.468 146.651 403.647 153.224C408.358 160.633 414.718 159.104 419.313 156.752L467.082 132.492C471.481 130.258 476.228 128.824 481.103 128.062C494.438 125.977 514.074 122.023 522.492 117.12C551.702 100.107 564.541 73.8429 586.095 63.8468L749.94 -23.2148" stroke="#23024D"/>
<path d="M456.5 138.5C461.137 143 464.464 145.99 465 148.154V148.154C467.717 159.124 453.149 160.889 444.069 154.16C440.23 151.315 437.068 148.904 436.5 148.154" stroke="#23024D"/>
<path d="M470.705 131C471.075 131.666 471.362 132.221 471.558 132.634C472.073 133.717 472.431 134.813 472.656 135.901C474.702 145.799 462.321 145.579 456 137.691V137.691" stroke="#23024D"/>
<path opacity="0.3" d="M519.287 71.6216L722.287 -50M519.287 71.6216L441.741 51.9441L400.301 78.1024M519.287 71.6216L496.45 111.334L441.741 128.607" stroke="#872AB0" stroke-width="5"/>
<path d="M439.977 52.4147C440.218 53.3124 441.141 53.8452 442.039 53.6047C442.936 53.3641 443.469 52.4413 443.229 51.5435C442.988 50.6458 442.065 50.113 441.167 50.3535C440.27 50.5941 439.737 51.5169 439.977 52.4147Z" fill="#5F0E8E"/>
<path d="M494.455 111.731C494.696 112.629 495.618 113.162 496.516 112.921C497.414 112.681 497.947 111.758 497.706 110.86C497.466 109.962 496.543 109.429 495.645 109.67C494.747 109.911 494.214 110.833 494.455 111.731Z" fill="#5F0E8E"/>
<path fill-rule="evenodd" clip-rule="evenodd" d="M520.008 59.556L517.01 69.0046L507.347 71.2184L516.796 74.2167L519.009 83.8794L522.008 74.4307L531.67 72.2169L522.222 69.2186L520.008 59.556ZM513.079 77.8681L515.189 75.9244L514.964 75.68L512.854 77.6237L513.079 77.8681ZM512.727 78.1923L512.024 78.8402L511.799 78.5958L512.502 77.9479L512.727 78.1923ZM510.969 79.8106L511.673 79.1627L511.448 78.9183L510.744 79.5662L510.969 79.8106ZM524.265 67.566L526.375 65.6223L526.15 65.3779L524.04 67.3216L524.265 67.566ZM527.429 64.6502L526.726 65.2981L526.501 65.0537L527.204 64.4058L527.429 64.6502ZM527.781 64.3254L528.485 63.6775L528.26 63.433L527.556 64.081L527.781 64.3254ZM513.166 65.0777L515.11 67.1879L515.354 66.9627L513.41 64.8526L513.166 65.0777ZM512.841 64.725L512.193 64.0216L512.438 63.7964L513.085 64.4998L512.841 64.725ZM511.221 62.9694L511.869 63.6728L512.114 63.4477L511.466 62.7443L511.221 62.9694ZM523.467 76.2593L525.41 78.3695L525.655 78.1443L523.711 76.0342L523.467 76.2593ZM526.384 79.4272L525.736 78.7238L525.98 78.4987L526.628 79.2021L526.384 79.4272ZM526.707 79.7783L527.355 80.4817L527.599 80.2566L526.952 79.5532L526.707 79.7783Z" fill="#5F0E8E"/>
<path fill-rule="evenodd" clip-rule="evenodd" d="M441.842 124.891L441.494 128.18L438.484 129.55L441.772 129.897L443.142 132.907L443.49 129.619L446.5 128.249L443.212 127.901L441.842 124.891ZM440.801 131.34L441.36 130.563L441.271 130.498L440.711 131.275L440.801 131.34ZM440.708 131.469L440.521 131.728L440.431 131.663L440.618 131.404L440.708 131.469ZM440.241 132.116L440.428 131.858L440.338 131.793L440.151 132.052L440.241 132.116ZM443.767 127.224L444.326 126.448L444.236 126.383L443.677 127.159L443.767 127.224ZM444.606 126.059L444.419 126.318L444.329 126.253L444.516 125.995L444.606 126.059ZM444.699 125.93L444.886 125.671L444.796 125.606L444.609 125.865L444.699 125.93ZM439.975 127.153L440.751 127.712L440.816 127.623L440.039 127.063L439.975 127.153ZM439.844 127.06L439.586 126.873L439.65 126.783L439.909 126.97L439.844 127.06ZM439.198 126.593L439.457 126.78L439.521 126.69L439.263 126.503L439.198 126.593ZM444.089 130.117L444.865 130.677L444.93 130.587L444.153 130.028L444.089 130.117ZM445.254 130.958L444.995 130.772L445.06 130.682L445.319 130.868L445.254 130.958ZM445.384 131.052L445.643 131.238L445.707 131.148L445.449 130.962L445.384 131.052Z" fill="#5F0E8E"/>
<path fill-rule="evenodd" clip-rule="evenodd" d="M400.577 69.048L398.199 75.943L391.052 77.395L397.946 79.7728L399.398 86.9203L401.776 80.0253L408.924 78.5733L402.029 76.1955L400.577 69.048ZM395.146 82.3892L396.733 80.998L396.572 80.8141L394.985 82.2053L395.146 82.3892ZM394.881 82.6219L394.352 83.0856L394.191 82.9017L394.72 82.438L394.881 82.6219ZM393.558 83.7799L394.088 83.3162L393.926 83.1323L393.397 83.5961L393.558 83.7799ZM403.561 75.0149L405.149 73.6237L404.988 73.4398L403.4 74.831L403.561 75.0149ZM405.942 72.9281L405.412 73.3918L405.251 73.2079L405.78 72.7442L405.942 72.9281ZM406.207 72.6959L406.736 72.2321L406.575 72.0483L406.046 72.512L406.207 72.6959ZM395.445 72.9848L396.836 74.5724L397.02 74.4112L395.629 72.8237L395.445 72.9848ZM395.212 72.7197L394.748 72.1905L394.932 72.0294L395.396 72.5586L395.212 72.7197ZM394.053 71.3986L394.516 71.9278L394.7 71.7667L394.237 71.2375L394.053 71.3986ZM402.818 81.3964L404.209 82.9839L404.393 82.8228L403.002 81.2353L402.818 81.3964ZM404.907 83.7791L404.443 83.2499L404.627 83.0887L405.09 83.6179L404.907 83.7791ZM405.138 84.0433L405.602 84.5725L405.786 84.4114L405.322 83.8822L405.138 84.0433Z" fill="#5F0E8E"/>
<path d="M265.118 171.114L325.34 159.836C339.725 157.142 349.203 143.297 346.509 128.911C343.815 114.526 329.97 105.048 315.584 107.742L255.786 118.94C261.657 93.8751 281.784 73.3763 308.713 68.3333C345.084 61.5222 380.089 85.485 386.901 121.856C393.712 158.227 369.749 193.232 333.378 200.044C306.07 205.158 279.531 192.923 265.118 171.114Z" fill="#FAFAFB" stroke="#23024D"/>
<path d="M5.36663 165.64C3.91693 166.022 2.48405 166.488 1.03331 167.066C0.438485 167.303 -0.244375 167.162 -0.680544 166.693C-1.62094 165.682 -3.31269 166.355 -3.30222 167.736L-2.71852 244.672C-2.70958 245.85 -2.04735 246.935 -0.97551 247.423C0.198431 247.958 0.989574 249.104 0.994221 250.394L1.02188 258.066C1.02904 259.565 2.25978 260.929 3.74569 261.106L17.8348 262.74C19.3303 262.915 20.8276 261.863 21.1821 260.407L22.1403 256.404C22.9385 253.07 25.6818 250.637 28.9797 249.699C32.2703 248.764 35.9292 249.37 38.357 251.78L41.3021 254.704C42.3726 255.761 44.1989 255.869 45.3748 254.938L56.4913 246.137C57.6706 245.203 57.9885 243.392 57.2009 242.116L55.0392 238.596C53.2455 235.675 53.5012 231.963 55.1704 228.969C56.8407 225.973 59.8372 223.864 63.2672 223.854L67.3738 223.842C68.8809 223.835 70.2488 222.613 70.4201 221.129L72.0515 207.027C72.2235 205.538 71.1705 204.032 69.7139 203.681L65.7049 202.718C62.3719 201.917 59.9411 199.182 59.0019 195.885C58.0608 192.582 58.6624 188.901 61.0813 186.463L63.9761 183.545C65.0333 182.485 65.1332 180.652 64.2008 179.474L55.386 168.34C54.4535 167.163 52.646 166.839 51.3692 167.622L47.8618 169.774C44.9377 171.568 41.2235 171.31 38.228 169.638C35.2381 167.968 33.1315 164.977 33.1179 161.553L33.1016 157.416C33.089 155.911 31.8617 154.544 30.3751 154.373L16.2812 152.727C14.783 152.548 13.2857 153.6 12.934 155.059L11.9198 159.318C11.1632 162.495 8.52472 164.807 5.36663 165.64Z" fill="#FAFAFB" stroke="#23024D"/>
<path d="M-9.67028 214.199C-6.26963 228.912 8.41137 238.081 23.1233 234.68C37.8351 231.28 47.0034 216.598 43.6027 201.886C40.2021 187.173 25.5211 178.005 10.8092 181.405C-3.90268 184.806 -13.0719 199.483 -9.67028 214.199Z" stroke="#23024D"/>
<path opacity="0.3" d="M103.672 147.065L104.606 149.652C105.385 151.807 107.429 153.222 109.689 153.599V153.599C111.949 153.976 114.3 153.289 115.735 151.503L117.451 149.368C118.081 148.589 119.286 148.382 120.139 148.917L128.173 153.932C129.021 154.459 129.37 155.634 128.947 156.545L127.774 159.041C126.802 161.11 127.218 163.517 128.545 165.378V165.378C129.872 167.24 132.036 168.455 134.309 168.208L137.05 167.911C138.044 167.803 139.043 168.514 139.268 169.49L141.401 178.718C141.627 179.694 141.042 180.771 140.1 181.108L137.511 182.044C135.358 182.822 133.944 184.866 133.567 187.124V187.124C133.191 189.381 133.875 191.726 135.658 193.161L137.8 194.885C138.578 195.512 138.783 196.72 138.253 197.569L133.232 205.604C132.705 206.449 131.529 206.796 130.618 206.37L128.134 205.204C126.062 204.232 123.653 204.647 121.789 205.976V205.976C119.923 207.305 118.706 209.474 118.953 211.751L119.249 214.483C119.359 215.477 118.649 216.478 117.67 216.704L108.443 218.837C107.467 219.062 106.395 218.476 106.052 217.533L105.114 214.937C104.337 212.787 102.3 211.375 100.045 210.999V210.999C97.7879 210.623 95.4389 211.306 94.0032 213.088L92.2781 215.229C91.6476 216.005 90.4429 216.212 89.5906 215.679L81.5559 210.674C80.7098 210.143 80.3578 208.969 80.7822 208.064L81.9556 205.569C82.9293 203.499 82.5141 201.09 81.1852 199.228V199.228C79.8558 197.364 77.6905 196.148 75.4149 196.393L72.6801 196.689C71.6829 196.797 70.6881 196.088 70.4625 195.112L68.3296 185.884C68.1034 184.905 68.6862 183.832 69.6304 183.494L72.2183 182.559C74.371 181.781 75.7848 179.736 76.1611 177.478V177.478C76.5375 175.221 75.8526 172.876 74.0699 171.441L71.9274 169.716C71.1481 169.086 70.9442 167.88 71.4743 167.031L76.4954 158.999C77.022 158.148 78.1973 157.801 79.1116 158.227L81.5935 159.394C83.6667 160.369 86.0803 159.951 87.9457 158.621V158.621C89.8061 157.295 91.017 155.133 90.7717 152.861L90.4756 150.118C90.3676 149.121 91.0699 148.124 92.0516 147.897L101.279 145.765C102.26 145.535 103.33 146.119 103.672 147.065Z" fill="#FAFAFB" stroke="#23024D"/>
<path opacity="0.3" d="M87.0915 186.389C89.3556 196.184 99.1297 202.289 108.924 200.025C118.719 197.761 124.823 187.986 122.559 178.191C120.295 168.396 110.521 162.292 100.726 164.556C90.9314 166.82 84.8268 176.591 87.0915 186.389Z" stroke="#23024D" stroke-dasharray="3 5"/>
<path d="M282.304 134.654C280.66 125.371 279.838 120.729 282.211 117.334C284.585 113.939 289.226 113.117 298.51 111.473L310.766 109.302C320.05 107.658 324.692 106.836 328.087 109.209C331.481 111.583 332.304 116.224 333.948 125.508L336.118 137.764C337.763 147.048 338.585 151.69 336.211 155.085C333.838 158.479 329.196 159.302 319.913 160.946L307.656 163.116C298.373 164.761 293.731 165.583 290.336 163.21C286.941 160.836 286.119 156.194 284.475 146.911L282.304 134.654Z" fill="#872AB0"/>
<path fill-rule="evenodd" clip-rule="evenodd" d="M313.529 133.199L320.384 137.941L325.159 131.178L328.144 133.23L321.274 142.962L314.419 138.219L306.834 148.956L301.034 144.943L296.162 151.839L293.178 149.786L300.145 139.923L305.945 143.936L313.529 133.199Z" fill="white"/>
<path fill-rule="evenodd" clip-rule="evenodd" d="M311.805 123.462L318.66 128.204L323.435 121.44L326.42 123.493L319.55 133.225L312.694 128.482L305.11 139.218L299.309 135.205L294.437 142.102L291.453 140.048L298.42 130.185L304.221 134.198L311.805 123.462Z" fill="white"/>
<path opacity="0.2" d="M322.128 63.11L318.805 60.4924C318.297 60.0884 318.159 59.3082 318.496 58.7578L321.688 53.5329C322.026 52.9766 322.783 52.7473 323.372 53.0154L324.982 53.7527C326.329 54.3696 327.887 54.086 329.084 53.2138V53.2138C330.282 52.3417 331.053 50.9319 330.88 49.4607L330.671 47.6947C330.594 47.0488 331.044 46.4016 331.678 46.2503L337.629 44.8117C338.262 44.6587 338.957 45.0313 339.183 45.639L339.806 47.3104C340.322 48.6946 341.648 49.5937 343.107 49.8219V49.8219C344.571 50.0507 346.087 49.5932 347.003 48.4294L348.1 47.0362C348.505 46.5256 349.285 46.3856 349.836 46.7251L355.064 49.9147C355.616 50.2519 355.847 51.0076 355.579 51.5974L354.84 53.2149C354.225 54.5608 354.508 56.1145 355.379 57.3106V57.3106C356.25 58.5067 357.659 59.2795 359.129 59.1059L360.896 58.8972C361.539 58.8191 362.187 59.2708 362.34 59.9022L363.778 65.8538C363.93 66.4834 363.561 67.181 362.953 67.4073V67.4073C360.56 68.2992 359.049 70.5909 358.416 73.0646C358.36 73.2814 358.301 73.497 358.238 73.7113M351.495 71.6491C352.04 69.7539 352.115 67.6955 351.619 65.6414C350.091 59.322 343.733 55.4409 337.416 56.968C333.375 57.9448 330.33 60.8985 329.06 64.5538" stroke="#23024D"/>
<path opacity="0.2" d="M598.638 89.7933L602.629 88.3909C603.243 88.1783 603.975 88.4798 604.259 89.0598L606.959 94.5552C607.247 95.1389 607.036 95.9002 606.493 96.2543L605.008 97.2183C603.765 98.0249 603.17 99.4916 603.264 100.97V100.97C603.358 102.449 604.135 103.856 605.47 104.497L607.073 105.268C607.659 105.549 607.965 106.276 607.753 106.892L605.777 112.687C605.567 113.304 604.88 113.69 604.246 113.556L602.501 113.186C601.056 112.879 599.586 113.517 598.611 114.627V114.627C597.634 115.739 597.207 117.264 597.699 118.662L598.287 120.334C598.501 120.95 598.201 121.683 597.619 121.967L592.124 124.67C591.543 124.956 590.782 124.746 590.427 124.203L589.458 122.713C588.651 121.472 587.188 120.878 585.711 120.972V120.972C584.235 121.067 582.827 121.842 582.186 123.176L581.415 124.779C581.136 125.364 580.407 125.669 579.792 125.46L573.997 123.484C573.384 123.275 572.993 122.589 573.128 121.954V121.954C573.657 119.456 572.533 116.953 570.784 115.092C570.631 114.929 570.48 114.763 570.333 114.595M575.688 110.008C576.996 111.484 578.694 112.651 580.694 113.333C586.848 115.43 593.532 112.143 595.629 105.992C596.97 102.057 596.109 97.9029 593.704 94.8715" stroke="#23024D"/>
<g opacity="0.1">
<path d="M538.634 202.783C538.652 205.451 536.505 207.628 533.839 207.646C531.173 207.664 528.998 205.515 528.98 202.847C528.962 200.179 531.109 198.001 533.775 197.984C536.441 197.966 538.617 200.115 538.634 202.783Z" stroke="#23024D" stroke-miterlimit="10"/>
<path d="M567.641 232.728C567.658 235.397 565.512 237.574 562.846 237.591C560.18 237.609 558.004 235.46 557.987 232.792C557.969 230.124 560.116 227.947 562.782 227.929C565.448 227.912 567.623 230.06 567.641 232.728Z" stroke="#23024D" stroke-miterlimit="10"/>
<path d="M538.633 202.78L590.581 202.438L606.869 185.92L678.719 185.271L686.805 185" stroke="#23024D" stroke-miterlimit="10"/>
<path d="M670.379 198.861L611.943 200.075L595.654 216.593L533.363 217.003L515.324 235.297" stroke="#23024D" stroke-miterlimit="10"/>
<path d="M623.59 229.202C625.304 229.17 626.667 227.755 626.635 226.043C626.603 224.33 625.187 222.968 623.473 223C621.759 223.032 620.395 224.447 620.428 226.16C620.46 227.872 621.876 229.235 623.59 229.202Z" stroke="#23024D" stroke-miterlimit="10"/>
<path d="M612.602 229.409C614.317 229.377 615.68 227.963 615.648 226.25C615.615 224.537 614.2 223.175 612.486 223.207C610.771 223.239 609.408 224.654 609.44 226.367C609.473 228.079 610.888 229.442 612.602 229.409Z" stroke="#23024D" stroke-miterlimit="10"/>
<path d="M601.567 229.62C603.281 229.588 604.645 228.173 604.613 226.461C604.58 224.748 603.165 223.386 601.45 223.418C599.736 223.45 598.373 224.865 598.405 226.578C598.437 228.29 599.853 229.653 601.567 229.62Z" stroke="#23024D" stroke-miterlimit="10" stroke-dasharray="12 12"/>
<path d="M567.641 232.727L586.182 232.605L593.355 239.689L628.6 239.457" stroke="#23024D" stroke-miterlimit="10"/>
</g>
<path opacity="0.1" d="M36.3327 19.2581L23 19.3398L23.0327 24.6729L36.3654 24.5912L36.3327 19.2581Z" stroke="#23024D" stroke-miterlimit="10"/>
<path opacity="0.1" d="M56.1403 19.1331L42.8076 19.2148L42.8403 24.5479L56.173 24.4662L56.1403 19.1331Z" fill="#23024D"/>
<path opacity="0.1" d="M77.8542 19.0003L64.5215 19.082L64.5542 24.4151L77.8868 24.3334L77.8542 19.0003Z" stroke="#23024D" stroke-miterlimit="10"/>
<path opacity="0.1" d="M32.5505 114.761C30.8364 114.797 29.4758 116.214 29.5114 117.927C29.5471 119.639 30.9655 120.999 32.6796 120.963C34.3937 120.927 35.7543 119.51 35.7186 117.797C35.683 116.085 34.2645 114.725 32.5505 114.761Z" stroke="#23024D" stroke-miterlimit="10"/>
<path opacity="0.1" d="M32.5518 114.762L32.3037 102.85L27.6269 98.3677L27.1555 75.7255" stroke="#23024D" stroke-miterlimit="10"/>
<g opacity="0.1">
<path d="M24.0838 72.594C24.0982 74.3084 25.4986 75.6864 27.2115 75.672C28.9245 75.6575 30.3014 74.256 30.2869 72.5417C30.2725 70.8273 28.8721 69.4492 27.1592 69.4637C25.4462 69.4781 24.0693 70.8796 24.0838 72.594Z" stroke="#23024D" stroke-miterlimit="10"/>
<path d="M23.991 61.6057C24.0055 63.3201 25.4058 64.6982 27.1188 64.6837C28.8317 64.6693 30.2086 63.2678 30.1942 61.5534C30.1797 59.839 28.7794 58.4609 27.0664 58.4754C25.3534 58.4898 23.9766 59.8913 23.991 61.6057Z" stroke="#23024D" stroke-miterlimit="10"/>
<path d="M23.8982 50.5705C23.9127 52.2849 25.313 53.663 27.026 53.6486C28.7389 53.6341 30.1158 52.2326 30.1014 50.5182C30.0869 48.8038 28.6866 47.4258 26.9736 47.4402C25.2607 47.4547 23.8838 48.8562 23.8982 50.5705Z" stroke="#23024D" stroke-miterlimit="10" stroke-dasharray="12 12"/>
</g>
<path d="M264.623 37.1308L264.15 38.8669L262.413 39.3403L264.15 39.8138L264.623 41.5499L265.097 39.8138L266.834 39.3403L265.097 38.8669L264.623 37.1308Z" fill="#E6E6EB"/>
<path d="M90.9233 10.4985C90.9233 9.67089 91.5943 9 92.4222 9C93.25 9 93.9211 9.67089 93.9211 10.4985C93.9211 11.326 93.25 11.9969 92.4222 11.9969C91.5943 11.9969 90.9233 11.326 90.9233 10.4985Z" fill="#E6E6EB"/>
<path d="M547.146 112.065L546.32 115.093L543.292 115.918L546.32 116.744L547.146 119.771L547.972 116.744L551 115.918L547.972 115.093L547.146 112.065Z" fill="#E6E6EB"/>
<path d="M545.203 117.957L545.845 117.315L545.749 117.218L545.106 117.861L545.203 117.957Z" fill="#E6E6EB"/>
<path d="M545.096 118.064L544.882 118.278L544.785 118.182L544.999 117.968L545.096 118.064Z" fill="#E6E6EB"/>
<path d="M544.56 118.599L544.774 118.385L544.678 118.289L544.464 118.503L544.56 118.599Z" fill="#E6E6EB"/>
<path d="M548.607 114.553L549.25 113.911L549.153 113.815L548.511 114.457L548.607 114.553Z" fill="#E6E6EB"/>
<path d="M549.571 113.59L549.357 113.804L549.26 113.708L549.474 113.494L549.571 113.59Z" fill="#E6E6EB"/>
<path d="M549.678 113.483L549.892 113.269L549.796 113.173L549.581 113.387L549.678 113.483Z" fill="#E6E6EB"/>
<path d="M545.042 113.911L545.685 114.554L545.781 114.457L545.139 113.815L545.042 113.911Z" fill="#E6E6EB"/>
<path d="M544.935 113.804L544.721 113.59L544.817 113.494L545.031 113.708L544.935 113.804Z" fill="#E6E6EB"/>
<path d="M544.4 113.269L544.614 113.483L544.71 113.387L544.496 113.173L544.4 113.269Z" fill="#E6E6EB"/>
<path d="M548.447 117.315L549.089 117.957L549.185 117.861L548.543 117.219L548.447 117.315Z" fill="#E6E6EB"/>
<path d="M549.41 118.278L549.196 118.064L549.292 117.968L549.507 118.182L549.41 118.278Z" fill="#E6E6EB"/>
<path d="M549.517 118.385L549.731 118.599L549.828 118.503L549.614 118.289L549.517 118.385Z" fill="#E6E6EB"/>
<path d="M51.8541 178.611L51.0282 181.639L48 182.464L51.0282 183.29L51.8541 186.317L52.68 183.29L55.7083 182.464L52.68 181.639L51.8541 178.611Z" fill="#E6E6EB"/>
<path d="M50.5533 183.861L49.9109 184.503L49.8146 184.407L50.457 183.764L50.5533 183.861Z" fill="#E6E6EB"/>
<path d="M49.5898 184.824L49.8039 184.61L49.7075 184.514L49.4934 184.728L49.5898 184.824Z" fill="#E6E6EB"/>
<path d="M49.4827 184.931L49.2686 185.145L49.1722 185.049L49.3864 184.835L49.4827 184.931Z" fill="#E6E6EB"/>
<path d="M53.9578 180.457L53.3155 181.099L53.2191 181.003L53.8615 180.361L53.9578 180.457Z" fill="#E6E6EB"/>
<path d="M54.0649 180.35L54.279 180.136L54.1826 180.04L53.9685 180.254L54.0649 180.35Z" fill="#E6E6EB"/>
<path d="M54.6002 179.815L54.3861 180.029L54.2897 179.933L54.5038 179.719L54.6002 179.815Z" fill="#E6E6EB"/>
<path d="M50.3928 181.099L49.7505 180.457L49.8468 180.361L50.4892 181.003L50.3928 181.099Z" fill="#E6E6EB"/>
<path d="M49.4293 180.136L49.6434 180.35L49.7398 180.254L49.5256 180.04L49.4293 180.136Z" fill="#E6E6EB"/>
<path d="M49.3222 180.029L49.1081 179.815L49.2045 179.719L49.4186 179.933L49.3222 180.029Z" fill="#E6E6EB"/>
<path d="M53.7973 184.503L53.155 183.861L53.2513 183.764L53.8937 184.407L53.7973 184.503Z" fill="#E6E6EB"/>
<path d="M53.9044 184.61L54.1185 184.824L54.2149 184.728L54.0007 184.514L53.9044 184.61Z" fill="#E6E6EB"/>
<path d="M54.4397 185.145L54.2256 184.931L54.3219 184.835L54.536 185.049L54.4397 185.145Z" fill="#E6E6EB"/>
<path d="M513.754 254.003C512.926 254.003 512.255 254.674 512.255 255.502C512.255 256.329 512.926 257 513.754 257C514.582 257 515.253 256.329 515.253 255.502C515.253 254.674 514.582 254.003 513.754 254.003Z" fill="#E6E6EB"/>
<path d="M499.79 239.929C500.137 239.929 500.418 239.648 500.418 239.302C500.418 238.955 500.137 238.674 499.79 238.674C499.444 238.674 499.163 238.955 499.163 239.302C499.163 239.648 499.444 239.929 499.79 239.929Z" fill="#E6E6EB"/>
<path d="M276.186 230.968L275.36 233.995L272.332 234.821L275.36 235.647L276.186 238.674L277.012 235.647L280.04 234.821L277.012 233.995L276.186 230.968Z" fill="#E6E6EB"/>
<path d="M274.885 236.218L274.243 236.86L274.146 236.764L274.789 236.121L274.885 236.218Z" fill="#E6E6EB"/>
<path d="M273.921 237.181L274.136 236.967L274.039 236.871L273.825 237.085L273.921 237.181Z" fill="#E6E6EB"/>
<path d="M273.814 237.288L273.6 237.502L273.504 237.406L273.718 237.192L273.814 237.288Z" fill="#E6E6EB"/>
<path d="M278.29 232.814L277.647 233.456L277.551 233.36L278.193 232.718L278.29 232.814Z" fill="#E6E6EB"/>
<path d="M278.397 232.707L278.611 232.493L278.514 232.397L278.3 232.611L278.397 232.707Z" fill="#E6E6EB"/>
<path d="M278.932 232.172L278.718 232.386L278.621 232.29L278.836 232.076L278.932 232.172Z" fill="#E6E6EB"/>
<path d="M274.725 233.456L274.082 232.814L274.179 232.718L274.821 233.36L274.725 233.456Z" fill="#E6E6EB"/>
<path d="M273.761 232.493L273.975 232.707L274.071 232.611L273.857 232.397L273.761 232.493Z" fill="#E6E6EB"/>
<path d="M273.654 232.386L273.44 232.172L273.536 232.076L273.75 232.29L273.654 232.386Z" fill="#E6E6EB"/>
<path d="M278.129 236.86L277.487 236.218L277.583 236.121L278.225 236.764L278.129 236.86Z" fill="#E6E6EB"/>
<path d="M278.236 236.967L278.45 237.181L278.547 237.085L278.332 236.871L278.236 236.967Z" fill="#E6E6EB"/>
<path d="M278.771 237.502L278.557 237.288L278.654 237.192L278.868 237.406L278.771 237.502Z" fill="#E6E6EB"/>
<path d="M192.415 102.114L193.241 99.0871L194.067 102.114L197.095 102.94L194.067 103.766L193.241 106.793L192.415 103.766L189.387 102.94L192.415 102.114Z" fill="#E6E6EB"/>
<path d="M191.298 104.979L191.94 104.337L191.844 104.24L191.201 104.883L191.298 104.979Z" fill="#E6E6EB"/>
<path d="M191.191 105.086L190.977 105.3L190.88 105.204L191.094 104.99L191.191 105.086Z" fill="#E6E6EB"/>
<path d="M190.656 105.621L190.87 105.407L190.773 105.311L190.559 105.525L190.656 105.621Z" fill="#E6E6EB"/>
<path d="M194.702 101.575L195.345 100.933L195.248 100.837L194.606 101.479L194.702 101.575Z" fill="#E6E6EB"/>
<path d="M195.666 100.612L195.452 100.826L195.355 100.73L195.57 100.516L195.666 100.612Z" fill="#E6E6EB"/>
<path d="M195.773 100.505L195.987 100.291L195.891 100.195L195.677 100.409L195.773 100.505Z" fill="#E6E6EB"/>
<path d="M191.137 100.933L191.78 101.575L191.876 101.479L191.234 100.837L191.137 100.933Z" fill="#E6E6EB"/>
<path d="M191.03 100.826L190.816 100.612L190.913 100.516L191.127 100.73L191.03 100.826Z" fill="#E6E6EB"/>
<path d="M190.495 100.291L190.709 100.505L190.805 100.409L190.591 100.195L190.495 100.291Z" fill="#E6E6EB"/>
<path d="M194.542 104.337L195.184 104.979L195.281 104.883L194.638 104.24L194.542 104.337Z" fill="#E6E6EB"/>
<path d="M195.505 105.3L195.291 105.086L195.388 104.99L195.602 105.204L195.505 105.3Z" fill="#E6E6EB"/>
<path d="M195.612 105.407L195.827 105.621L195.923 105.525L195.709 105.311L195.612 105.407Z" fill="#E6E6EB"/>
<path d="M263.898 40.1618L263.53 40.5301L263.433 40.4337L263.802 40.0655L263.898 40.1618Z" fill="#E6E6EB"/>
<path d="M263.346 40.7143L263.468 40.5916L263.372 40.4953L263.249 40.618L263.346 40.7143Z" fill="#E6E6EB"/>
<path d="M263.284 40.7757L263.161 40.8985L263.065 40.8021L263.188 40.6794L263.284 40.7757Z" fill="#E6E6EB"/>
<path d="M265.85 38.2102L265.482 38.5784L265.386 38.4821L265.754 38.1138L265.85 38.2102Z" fill="#E6E6EB"/>
<path d="M265.912 38.1488L266.035 38.0261L265.938 37.9297L265.816 38.0525L265.912 38.1488Z" fill="#E6E6EB"/>
<path d="M266.219 37.8419L266.096 37.9647L266 37.8683L266.123 37.7456L266.219 37.8419Z" fill="#E6E6EB"/>
<path d="M263.765 38.5782L263.396 38.21L263.493 38.1136L263.861 38.4819L263.765 38.5782Z" fill="#E6E6EB"/>
<path d="M263.212 38.026L263.335 38.1488L263.431 38.0525L263.308 37.9297L263.212 38.026Z" fill="#E6E6EB"/>
<path d="M263.151 37.9646L263.028 37.8419L263.124 37.7456L263.247 37.8683L263.151 37.9646Z" fill="#E6E6EB"/>
<path d="M265.717 40.53L265.349 40.1617L265.445 40.0654L265.813 40.4337L265.717 40.53Z" fill="#E6E6EB"/>
<path d="M265.778 40.5914L265.901 40.7141L265.997 40.6178L265.875 40.495L265.778 40.5914Z" fill="#E6E6EB"/>
<path d="M266.085 40.8983L265.963 40.7755L266.059 40.6792L266.182 40.8019L266.085 40.8983Z" fill="#E6E6EB"/>
<path d="M61.2293 75.6453L61.7029 73.9093L62.1765 75.6453L63.9131 76.1188L62.1765 76.5923L61.7029 78.3284L61.2293 76.5923L59.4927 76.1188L61.2293 75.6453Z" fill="#E6E6EB"/>
<path d="M60.609 77.3085L60.9774 76.9403L60.881 76.844L60.5126 77.2122L60.609 77.3085Z" fill="#E6E6EB"/>
<path d="M60.5477 77.3701L60.4248 77.4928L60.3285 77.3965L60.4513 77.2737L60.5477 77.3701Z" fill="#E6E6EB"/>
<path d="M60.2408 77.6769L60.3636 77.5542L60.2672 77.4579L60.1444 77.5806L60.2408 77.6769Z" fill="#E6E6EB"/>
<path d="M62.5615 75.3569L62.9298 74.9886L62.8335 74.8923L62.4651 75.2606L62.5615 75.3569Z" fill="#E6E6EB"/>
<path d="M63.114 74.8045L62.9912 74.9273L62.8949 74.831L63.0176 74.7082L63.114 74.8045Z" fill="#E6E6EB"/>
<path d="M63.1756 74.7431L63.2984 74.6204L63.202 74.5241L63.0792 74.6468L63.1756 74.7431Z" fill="#E6E6EB"/>
<path d="M60.4758 74.9885L60.8441 75.3567L60.9405 75.2604L60.5721 74.8921L60.4758 74.9885Z" fill="#E6E6EB"/>
<path d="M60.4141 74.9273L60.2914 74.8045L60.3877 74.7082L60.5105 74.8309L60.4141 74.9273Z" fill="#E6E6EB"/>
<path d="M60.1073 74.6204L60.2301 74.7431L60.3265 74.6468L60.2037 74.524L60.1073 74.6204Z" fill="#E6E6EB"/>
<path d="M62.4279 76.9402L62.7962 77.3085L62.8926 77.2121L62.5242 76.8439L62.4279 76.9402Z" fill="#E6E6EB"/>
<path d="M62.9804 77.4926L62.8577 77.3698L62.954 77.2735L63.0768 77.3963L62.9804 77.4926Z" fill="#E6E6EB"/>
<path d="M63.042 77.554L63.1648 77.6767L63.2612 77.5804L63.1384 77.4577L63.042 77.554Z" fill="#E6E6EB"/>
</g>
<defs>
<clipPath id="clip0_2850_43156">
<rect width="624" height="282" fill="white"/>
</clipPath>
</defs>
</svg>
