<svg width="40" height="40" viewBox="0 0 40 40" fill="none" xmlns="http://www.w3.org/2000/svg">
<path d="M8.31237 12.6585C14.7864 6.44718 25.2806 6.44718 31.763 12.6585L32.5419 13.4051C32.8685 13.7169 32.8685 14.2174 32.5419 14.5292L29.8786 17.0892C29.7195 17.2451 29.4514 17.2451 29.2923 17.0892L28.2203 16.0636C23.706 11.7313 16.3777 11.7313 11.8635 16.0636L10.7161 17.1631C10.5569 17.319 10.2889 17.319 10.1298 17.1631L7.45808 14.6031C7.13145 14.2913 7.13145 13.7908 7.45808 13.479L8.31237 12.6585ZM37.3658 18.152L39.7532 20.4171C40.0823 20.7278 40.0823 21.2266 39.7532 21.5374L28.9803 31.767C28.6513 32.0777 28.1282 32.0777 27.7992 31.767L20.1476 24.5057C20.0633 24.4321 19.9367 24.4321 19.8524 24.5057L12.2092 31.767C11.8802 32.0777 11.3572 32.0777 11.0282 31.767L0.246757 21.5455C-0.0822525 21.2348 -0.0822525 20.736 0.246757 20.4253L2.63418 18.1602C2.96319 17.8495 3.48623 17.8495 3.81524 18.1602L11.4668 25.4215C11.5512 25.4951 11.6777 25.4951 11.7621 25.4215L19.4052 18.1602C19.7343 17.8495 20.2573 17.8495 20.5863 18.1602L28.2379 25.4215C28.3223 25.4951 28.4488 25.4951 28.5332 25.4215L36.1848 18.1602C36.5053 17.8413 37.0368 17.8413 37.3658 18.152Z" fill="#23024D"/>
</svg>
