<svg width="115" height="114" viewBox="0 0 115 114" fill="none" xmlns="http://www.w3.org/2000/svg">
    <path opacity="0.3" d="M54.628 11L70.7321 40.3346L103.607 46.5856L80.685 70.9664L84.8989 104.164L54.628 89.898L24.357 104.164L28.5709 70.9664L5.64858 46.5856L38.5238 40.3346L54.628 11Z" stroke="#5F0E8E" stroke-width="5"/>
    <path d="M54.0686 16.0384C28.1491 16.0384 7.13721 36.8443 7.13721 62.5097C7.13721 88.1751 28.1491 108.981 54.0686 108.981C79.9881 108.981 101 88.1751 101 62.5097" stroke="#23024D"/>
    <path d="M54.0686 16.0378C79.9881 16.0378 101 37.0497 101 62.9692" stroke="#23024D" stroke-dasharray="4 3"/>
    <path d="M55.0092 86.9999C68.5374 86.9999 79.5042 76.1407 79.5042 62.7451C79.5042 49.3495 68.5374 38.4902 55.0092 38.4902C41.481 38.4902 30.5142 49.3495 30.5142 62.7451" stroke="#23024D"/>
    <path d="M55.0092 86.9999C41.481 86.9999 30.5142 76.0331 30.5142 62.5049" stroke="#23024D" stroke-dasharray="4 3"/>
    <path d="M57.0222 2.62451L56.0528 6.30772L58.7339 9.01279L55.0507 8.04343L52.3456 10.7245L53.315 7.04132L50.6339 4.33624L54.3171 5.3056L57.0222 2.62451Z" fill="#8620B9"/>
    <path d="M55.2823 8.91064L55.5676 9.97536" stroke="#8620B9" stroke-width="0.5" stroke-linejoin="round"/>
    <path d="M55.6157 10.1528L55.7108 10.5077" stroke="#8620B9" stroke-width="0.5" stroke-linejoin="round"/>
    <path d="M55.7585 10.6851L55.8536 11.04" stroke="#8620B9" stroke-width="0.5" stroke-linejoin="round"/>
    <path d="M54.0562 4.33203L53.7709 3.26732" stroke="#8620B9" stroke-width="0.5" stroke-linejoin="round"/>
    <path d="M53.7233 3.09033L53.6282 2.73543" stroke="#8620B9" stroke-width="0.5" stroke-linejoin="round"/>
    <path d="M53.5807 2.55762L53.4856 2.20271" stroke="#8620B9" stroke-width="0.5" stroke-linejoin="round"/>
    <path d="M57.0262 6.04688L58.0909 5.76159" stroke="#8620B9" stroke-width="0.5" stroke-linejoin="round"/>
    <path d="M58.2684 5.71436L58.6233 5.61926" stroke="#8620B9" stroke-width="0.5" stroke-linejoin="round"/>
    <path d="M58.8007 5.57129L59.1556 5.47619" stroke="#8620B9" stroke-width="0.5" stroke-linejoin="round"/>
    <path d="M52.4479 7.27393L51.3832 7.55921" stroke="#8620B9" stroke-width="0.5" stroke-linejoin="round"/>
    <path d="M51.2057 7.60645L50.8508 7.70154" stroke="#8620B9" stroke-width="0.5" stroke-linejoin="round"/>
    <path d="M50.6734 7.74902L50.3185 7.84412" stroke="#8620B9" stroke-width="0.5" stroke-linejoin="round"/>
    <path d="M29.0597 62L30.95 68.9312L37.8812 70.8215L30.95 72.7118L29.0597 79.643L27.1694 72.7118L20.2382 70.8215L27.1694 68.9312L29.0597 62Z" fill="#8620B9"/>
    <path d="M32.1465 73.9106L33.6167 75.3809" stroke="#8620B9" stroke-width="0.5" stroke-linejoin="round"/>
    <path d="M33.8625 75.6255L34.3526 76.1156" stroke="#8620B9" stroke-width="0.5" stroke-linejoin="round"/>
    <path d="M34.5977 76.3599L35.0877 76.8499" stroke="#8620B9" stroke-width="0.5" stroke-linejoin="round"/>
    <path d="M25.825 67.5874L24.3548 66.1172" stroke="#8620B9" stroke-width="0.5" stroke-linejoin="round"/>
    <path d="M24.1097 65.8721L23.6197 65.382" stroke="#8620B9" stroke-width="0.5" stroke-linejoin="round"/>
    <path d="M23.3745 65.1367L22.8844 64.6466" stroke="#8620B9" stroke-width="0.5" stroke-linejoin="round"/>
    <path d="M32.2942 67.5874L33.7644 66.1172" stroke="#8620B9" stroke-width="0.5" stroke-linejoin="round"/>
    <path d="M34.0093 65.8721L34.4994 65.382" stroke="#8620B9" stroke-width="0.5" stroke-linejoin="round"/>
    <path d="M34.7448 65.1372L35.2348 64.6471" stroke="#8620B9" stroke-width="0.5" stroke-linejoin="round"/>
    <path d="M25.9725 73.9097L24.5022 75.3799" stroke="#8620B9" stroke-width="0.5" stroke-linejoin="round"/>
    <path d="M24.2569 75.6245L23.7668 76.1146" stroke="#8620B9" stroke-width="0.5" stroke-linejoin="round"/>
    <path d="M23.5218 76.3599L23.0317 76.8499" stroke="#8620B9" stroke-width="0.5" stroke-linejoin="round"/>
    <circle cx="80.6741" cy="70.6649" r="2.6649" fill="#8620B9"/>
    <path d="M107.862 38.0947L109.31 43.4047L114.62 44.8528L109.31 46.301L107.862 51.611L106.414 46.301L101.104 44.8528L106.414 43.4047L107.862 38.0947Z" fill="#8620B9"/>
</svg>
