<svg width="100%" height="100%" viewBox="0 0 25 24" fill="none" xmlns="http://www.w3.org/2000/svg">
<path d="M19.7973 5.54249L17.3956 6.76612L5.79815 12.6733C5.75893 12.3742 5.7392 12.0728 5.73908 11.7712C5.7423 9.32209 7.04186 7.05775 9.15487 5.81951C11.2679 4.58127 13.8785 4.55421 16.0167 5.74839L17.3914 5.04797L17.5965 4.94333C15.0288 3.07965 11.6327 2.81369 8.80618 4.25491C5.97965 5.69613 4.20035 8.60095 4.20068 11.7737C4.20068 11.9886 4.20884 12.2027 4.22515 12.4159C4.27188 13.0333 3.94309 13.6183 3.3914 13.8994L2.6665 14.2691V15.9931L4.80068 14.9054L5.49182 14.5526L6.17283 14.2058L18.399 7.97624L19.7728 7.27666L22.6125 5.82941V4.1062L19.7973 5.54249Z" fill="black"/>
<path d="M22.6125 7.55469L6.86735 15.5716L5.49351 16.2728L2.6665 17.7133V19.4357L5.4741 18.0053L7.87579 16.7817L19.4851 10.8661C19.5243 11.1672 19.544 11.4705 19.5441 11.7741C19.5426 14.2261 18.2416 16.4936 16.1254 17.7323C14.0093 18.971 11.3951 18.9952 9.25638 17.796L9.17199 17.8408L7.68169 18.6003C10.2488 20.464 13.6442 20.7306 16.4707 19.2903C19.2973 17.8501 21.0773 14.9464 21.0783 11.7741C21.0783 11.5572 21.0699 11.3403 21.0538 11.126C21.0072 10.5088 21.3356 9.92397 21.8868 9.64245L22.6125 9.27283V7.55469Z" fill="black"/>
</svg>
