<svg width="25" height="24" viewBox="0 0 25 24" fill="none" xmlns="http://www.w3.org/2000/svg">
<path d="M12.3335 24C18.9609 24 24.3335 18.6274 24.3335 12C24.3335 5.37258 18.9609 0 12.3335 0C5.70608 0 0.333496 5.37258 0.333496 12C0.333496 18.6274 5.70608 24 12.3335 24Z" fill="#111726"/>
<path d="M17.7075 7.32188L15.9056 8.24092L7.19793 12.6762C7.07386 11.7231 7.21702 10.7542 7.61143 9.87769C8.00584 9.00117 8.636 8.25147 9.4316 7.71223C10.2272 7.17298 11.157 6.86539 12.1172 6.82378C13.0774 6.78217 14.0302 7.00816 14.8695 7.47655L15.9011 6.95095L16.055 6.87211C15.0763 6.16187 13.9149 5.74652 12.7079 5.67512C11.5008 5.60372 10.2985 5.87924 9.24296 6.46915C8.18742 7.05906 7.32271 7.93873 6.75093 9.00427C6.17916 10.0698 5.92421 11.2767 6.01618 12.4825C6.0334 12.7093 5.98312 12.9361 5.8717 13.1344C5.76028 13.3327 5.59269 13.4936 5.39003 13.5968L4.8457 13.8746V15.1691L6.44789 14.3521L6.96668 14.0871L7.47797 13.8265L16.6571 9.14871L17.6887 8.62386L19.821 7.53737V6.24365L17.7075 7.32188ZM19.8217 8.8326L8.00052 14.8515L6.96894 15.3771L4.84645 16.4605V17.7543L6.95467 16.6805L8.75732 15.7615L17.474 11.3194C17.5999 12.274 17.4578 13.2449 17.0634 14.1232C16.6689 15.0016 16.0379 15.7529 15.2408 16.293C14.4437 16.833 13.512 17.1406 12.5501 17.1812C11.5882 17.2218 10.6339 16.9938 9.79416 16.5229L9.73034 16.5567L8.61166 17.1273C9.59046 17.8379 10.7522 18.2535 11.9596 18.325C13.167 18.3965 14.3697 18.1208 15.4254 17.5305C16.4812 16.9403 17.346 16.0602 17.9176 14.9942C18.4892 13.9281 18.7438 12.7207 18.6512 11.5147C18.6342 11.2881 18.6845 11.0615 18.7957 10.8634C18.907 10.6653 19.0743 10.5045 19.2766 10.4011L19.8217 10.1233V8.83335V8.8326Z" fill="white"/>
</svg>
