<svg width="32" height="17" viewBox="0 0 32 17" fill="none" xmlns="http://www.w3.org/2000/svg">
<path fill-rule="evenodd" clip-rule="evenodd" d="M3 0C1.34315 0 0 1.34315 0 3V14C0 15.6569 1.34315 17 3 17H29C30.6569 17 32 15.6569 32 14V3C32 1.34315 30.6569 0 29 0H3ZM6.84082 4.89062L8.17871 7.37109L9.5166 4.89062H11.1914L9.12598 8.41602L11.2451 12H9.55566L8.17871 9.4707L6.80176 12H5.10254L7.22656 8.41602L5.15625 4.89062H6.84082ZM15.665 12H13.4824V4.89062H15.6797C16.1549 4.89062 16.5895 4.97201 16.9834 5.13477C17.3805 5.29427 17.724 5.52376 18.0137 5.82324C18.3034 6.12272 18.5264 6.48079 18.6826 6.89746C18.8421 7.31087 18.9219 7.77148 18.9219 8.2793V8.61621C18.9219 9.12077 18.8421 9.58138 18.6826 9.99805C18.5264 10.4147 18.3034 10.7728 18.0137 11.0723C17.7272 11.3685 17.3838 11.598 16.9834 11.7607C16.5863 11.9202 16.1468 12 15.665 12ZM15.665 10.8574H14.9473V6.03809H15.6797C15.9629 6.03809 16.2135 6.08691 16.4316 6.18457C16.6497 6.27897 16.8337 6.42057 16.9834 6.60938C17.1331 6.79818 17.2454 7.03092 17.3203 7.30762C17.3984 7.58431 17.4375 7.90495 17.4375 8.26953V8.61621C17.4375 9.09147 17.3691 9.49675 17.2324 9.83203C17.099 10.1673 16.9004 10.4229 16.6367 10.5986C16.373 10.7712 16.0492 10.8574 15.665 10.8574ZM24.1377 4.89062H21.4863V12H22.9512V9.36816H24.1146L25.4609 12H27.0283V11.9316L25.4895 9.01437C25.6883 8.92481 25.8675 8.81813 26.0273 8.69434C26.2617 8.51204 26.4424 8.28581 26.5693 8.01562C26.6995 7.74219 26.7646 7.41504 26.7646 7.03418C26.7646 6.56869 26.6589 6.17643 26.4473 5.85742C26.2357 5.53841 25.9329 5.29753 25.5391 5.13477C25.1484 4.97201 24.6813 4.89062 24.1377 4.89062ZM22.9512 8.22559H24.1475C24.4046 8.22559 24.6178 8.18001 24.7871 8.08887C24.9564 7.99772 25.0833 7.87077 25.168 7.70801C25.2559 7.54525 25.2998 7.35645 25.2998 7.1416C25.2998 6.91374 25.2575 6.7168 25.1729 6.55078C25.0882 6.38477 24.9596 6.25781 24.7871 6.16992C24.6146 6.08203 24.3981 6.03809 24.1377 6.03809H22.9512V8.22559Z" fill="#8620B9"/>
</svg>
