<svg width="100%" height="100%" viewBox="0 0 12 8" fill="none" xmlns="http://www.w3.org/2000/svg">
    <path d="M5.99854 8.85991e-07C5.89297 -0.000177046 5.78917 0.0264844 5.69731 0.0773702C5.60545 0.128256 5.5287 0.201619 5.47457 0.290264L3.44709 3.62975L0.994972 1.66189C0.896872 1.58332 0.776145 1.53665 0.649629 1.52839C0.523113 1.52014 0.397117 1.5507 0.289212 1.61583C0.181307 1.68096 0.096875 1.7774 0.0476903 1.89171C-0.0014944 2.00601 -0.012979 2.13248 0.0148382 2.25347L1.23287 7.53639C1.26347 7.668 1.33887 7.78555 1.4467 7.86978C1.55454 7.954 1.68842 7.99992 1.82642 8H10.1707C10.309 8.00031 10.4433 7.95458 10.5515 7.87032C10.6597 7.78606 10.7353 7.66829 10.766 7.53639L11.9846 2.25347C12.0131 2.13208 12.0019 2.00502 11.9527 1.89016C11.9034 1.77531 11.8187 1.67842 11.7102 1.61313C11.6018 1.54785 11.4752 1.51744 11.3482 1.52618C11.2211 1.53493 11.1001 1.58239 11.0021 1.66189L8.55236 3.62975L6.5225 0.290264C6.46838 0.201619 6.39162 0.128256 6.29976 0.07737C6.20791 0.0264842 6.1041 -0.000177166 5.99854 8.85991e-07Z" fill="#872AB0"/>
</svg>
