<svg width="40" height="40" viewBox="0 0 40 40" fill="none" xmlns="http://www.w3.org/2000/svg">
    <g clip-path="url(#clip0_6870_2931)">
        <path fill-rule="evenodd" clip-rule="evenodd" d="M17.4977 6.66666C16.511 2.83283 13.0308 0 8.88883 0C3.97966 0 0 3.97966 0 8.88883C0 13.7982 3.97966 17.7778 8.88883 17.7778C13.0308 17.7778 16.511 14.945 17.4977 11.1112H25.1851V18.5185H29.6296V11.1112H32.5926V18.5185H37.037V11.1112H40V6.66666H17.4977ZM13.3333 8.88883C13.3333 11.3435 11.3435 13.3333 8.88883 13.3333C6.43433 13.3333 4.4445 11.3435 4.4445 8.88883C4.4445 6.43433 6.43433 4.4445 8.88883 4.4445C11.3435 4.4445 13.3333 6.43433 13.3333 8.88883Z" fill="#23024D"/>
        <path fill-rule="evenodd" clip-rule="evenodd" d="M22.5023 33.3331C23.489 37.167 26.9692 39.9998 31.1112 39.9998C36.0203 39.9998 40 36.0201 40 31.111C40 26.2016 36.0203 22.222 31.1112 22.222C26.9692 22.222 23.489 25.0548 22.5023 28.8887H14.8149V21.4813H10.3704V28.8887H7.40736V21.4813H2.96303V28.8887H3.05176e-05V33.3331H22.5023ZM26.6667 31.111C26.6667 28.6563 28.6565 26.6665 31.1112 26.6665C33.5657 26.6665 35.5555 28.6563 35.5555 31.111C35.5555 33.5655 33.5657 35.5553 31.1112 35.5553C28.6565 35.5553 26.6667 33.5655 26.6667 31.111Z" fill="#23024D"/>
    </g>
    <defs>
        <clipPath id="clip0_6870_2931">
            <rect width="40" height="40" fill="white"/>
        </clipPath>
    </defs>
</svg>
