<svg width="100%" height="100%" viewBox="0 0 624 282" fill="none" xmlns="http://www.w3.org/2000/svg">
<g clip-path="url(#clip0_8564_41437)">
<rect width="624" height="282" fill="#FAFAFB"/>
<path opacity="0.1" d="M385.097 135.307C385.097 135.986 384.546 136.536 383.868 136.536C383.189 136.536 382.639 135.986 382.639 135.307C382.639 134.628 383.189 134.078 383.868 134.078C384.546 134.078 385.097 134.628 385.097 135.307Z" fill="#23024D"/>
<path opacity="0.1" d="M213.979 119.336C213.979 120.015 213.429 120.565 212.75 120.565C212.072 120.565 211.521 120.015 211.521 119.336C211.521 118.658 212.072 118.107 212.75 118.107C213.429 118.107 213.979 118.658 213.979 119.336Z" fill="#23024D"/>
<path d="M237.452 191.132C237.452 191.98 236.765 192.668 235.916 192.668C235.068 192.668 234.38 191.98 234.38 191.132C234.38 190.284 235.068 189.596 235.916 189.596C236.765 189.596 237.452 190.284 237.452 191.132Z" fill="#23024D"/>
<path d="M460.36 256.576C460.36 257.425 459.672 258.113 458.823 258.113C457.975 258.113 457.287 257.425 457.287 256.576C457.287 255.728 457.975 255.04 458.823 255.04C459.672 255.04 460.36 255.728 460.36 256.576Z" fill="#23024D"/>
<path d="M348.843 159.578C348.843 160.427 348.155 161.114 347.307 161.114C346.458 161.114 345.771 160.427 345.771 159.578C345.771 158.73 346.458 158.042 347.307 158.042C348.155 158.042 348.843 158.73 348.843 159.578Z" fill="#23024D"/>
<path fill-rule="evenodd" clip-rule="evenodd" d="M259.434 232.731C258.77 232.731 258.231 233.27 258.231 233.934C258.231 234.598 258.77 235.137 259.434 235.137C260.098 235.137 260.637 234.598 260.637 233.934C260.637 233.27 260.098 232.731 259.434 232.731ZM257.564 233.934C257.564 232.902 258.402 232.064 259.434 232.064C260.467 232.064 261.304 232.902 261.304 233.934C261.304 234.967 260.467 235.804 259.434 235.804C258.402 235.804 257.564 234.967 257.564 233.934Z" fill="#23024D"/>
<path fill-rule="evenodd" clip-rule="evenodd" d="M259.741 204.078C260.391 204.078 260.917 203.551 260.917 202.901C260.917 202.251 260.391 201.725 259.741 201.725C259.091 201.725 258.564 202.251 258.564 202.901C258.564 203.551 259.091 204.078 259.741 204.078ZM259.741 204.745C260.759 204.745 261.584 203.919 261.584 202.901C261.584 201.883 260.759 201.058 259.741 201.058C258.723 201.058 257.897 201.883 257.897 202.901C257.897 203.919 258.723 204.745 259.741 204.745Z" fill="#23024D"/>
<path fill-rule="evenodd" clip-rule="evenodd" d="M328.089 55.7612C328.738 55.7612 329.265 55.2345 329.265 54.5847C329.265 53.9349 328.738 53.4082 328.089 53.4082C327.439 53.4082 326.912 53.9349 326.912 54.5847C326.912 55.2345 327.439 55.7612 328.089 55.7612ZM328.089 56.4282C329.107 56.4282 329.932 55.6028 329.932 54.5847C329.932 53.5666 329.107 52.7412 328.089 52.7412C327.07 52.7412 326.245 53.5666 326.245 54.5847C326.245 55.6028 327.07 56.4282 328.089 56.4282Z" fill="#23024D"/>
<path fill-rule="evenodd" clip-rule="evenodd" d="M227.374 76.4389C228.024 76.4389 228.55 75.9122 228.55 75.2624C228.55 74.6127 228.024 74.0859 227.374 74.0859C226.724 74.0859 226.197 74.6127 226.197 75.2624C226.197 75.9122 226.724 76.4389 227.374 76.4389ZM227.374 77.1059C228.392 77.1059 229.217 76.2806 229.217 75.2624C229.217 74.2443 228.392 73.4189 227.374 73.4189C226.356 73.4189 225.53 74.2443 225.53 75.2624C225.53 76.2806 226.356 77.1059 227.374 77.1059Z" fill="#23024D"/>
<path fill-rule="evenodd" clip-rule="evenodd" d="M407.463 131.799C408.112 131.799 408.639 131.273 408.639 130.623C408.639 129.973 408.112 129.446 407.463 129.446C406.813 129.446 406.286 129.973 406.286 130.623C406.286 131.273 406.813 131.799 407.463 131.799ZM407.463 132.466C408.481 132.466 409.306 131.641 409.306 130.623C409.306 129.605 408.481 128.779 407.463 128.779C406.445 128.779 405.619 129.605 405.619 130.623C405.619 131.641 406.445 132.466 407.463 132.466Z" fill="#23024D"/>
<path fill-rule="evenodd" clip-rule="evenodd" d="M319.93 83.6665C320.58 83.6665 321.107 83.1397 321.107 82.49C321.107 81.8402 320.58 81.3135 319.93 81.3135C319.281 81.3135 318.754 81.8402 318.754 82.49C318.754 83.1397 319.281 83.6665 319.93 83.6665ZM319.93 84.3335C320.949 84.3335 321.774 83.5081 321.774 82.49C321.774 81.4718 320.949 80.6465 319.93 80.6465C318.912 80.6465 318.087 81.4718 318.087 82.49C318.087 83.5081 318.912 84.3335 319.93 84.3335Z" fill="#000636"/>
<path d="M287.521 38.6262L294.788 65.7561L295.445 65.5801L288.177 38.4502L287.521 38.6262Z" fill="#23024D"/>
<path d="M258.373 41.2466L260.815 45.4768L261.404 45.1368L258.962 40.9066L258.373 41.2466Z" fill="#23024D"/>
<path d="M380.304 177.804L384.533 180.246L384.873 179.657L380.644 177.215L380.304 177.804Z" fill="#23024D"/>
<path d="M388.059 182.281L398.985 188.591L399.324 188.002L388.399 181.693L388.059 182.281Z" fill="#23024D"/>
<path d="M413.787 197.139L402.861 190.829L403.201 190.24L414.127 196.55L413.787 197.139Z" fill="#23024D"/>
<path d="M269.156 59.9303L262.848 49.0022L263.437 48.6622L269.745 59.5903L269.156 59.9303Z" fill="#23024D"/>
<path d="M271.397 63.8081L277.704 74.7363L278.293 74.3963L271.985 63.4681L271.397 63.8081Z" fill="#23024D"/>
<path d="M239.355 118.377L242.5 119.22L242.676 118.563L239.531 117.72L239.355 118.377Z" fill="#23024D"/>
<path d="M236.605 117.639L228.35 115.427L228.526 114.77L236.78 116.982L236.605 117.639Z" fill="#23024D"/>
<path d="M217.342 112.477L225.597 114.689L225.773 114.033L217.518 111.82L217.342 112.477Z" fill="#23024D"/>
<path d="M364.654 225.624L363.027 222.803L363.615 222.463L365.243 225.284L364.654 225.624Z" fill="#23024D"/>
<path d="M357.329 212.933L361.602 220.336L362.191 219.996L357.918 212.593L357.329 212.933Z" fill="#23024D"/>
<path d="M355.904 210.465L351.631 203.062L352.22 202.722L356.493 210.125L355.904 210.465Z" fill="#23024D"/>
<path d="M233.261 92.7347L222.336 86.4253L222.676 85.8364L233.601 92.1458L233.261 92.7347Z" fill="#23024D"/>
<path d="M237.138 94.9738L248.063 101.283L248.403 100.694L237.478 94.3849L237.138 94.9738Z" fill="#23024D"/>
<path d="M377.101 201.268L368.18 192.345L368.661 191.864L377.582 200.787L377.101 201.268Z" fill="#23024D"/>
<path d="M380.267 204.434L389.188 213.357L389.669 212.876L380.748 203.953L380.267 204.434Z" fill="#23024D"/>
<path d="M255.07 79.2064L259.674 83.8117L260.155 83.3309L255.55 78.7256L255.07 79.2064Z" fill="#23024D"/>
<path d="M251.039 75.1769L238.665 62.8001L239.146 62.3193L251.52 74.6961L251.039 75.1769Z" fill="#23024D"/>
<path d="M222.266 46.3934L234.352 58.4824L234.833 58.0015L222.746 45.9126L222.266 46.3934Z" fill="#23024D"/>
<path d="M346.892 260.44L345.207 254.149L345.864 253.973L347.549 260.264L346.892 260.44Z" fill="#23024D"/>
<path d="M339.205 231.737L343.734 248.644L344.391 248.468L339.862 231.561L339.205 231.737Z" fill="#23024D"/>
<path d="M337.625 225.839L333.202 209.326L333.858 209.15L338.282 225.663L337.625 225.839Z" fill="#23024D"/>
<path d="M413.855 165.435L386.731 158.166L386.907 157.509L414.031 164.778L413.855 165.435Z" fill="#23024D"/>
<path d="M245.58 180.247L249.81 177.805L249.47 177.216L245.24 179.658L245.58 180.247Z" fill="#23024D"/>
<path d="M242.055 182.281L231.129 188.59L230.789 188.001L241.715 181.692L242.055 182.281Z" fill="#23024D"/>
<path d="M216.327 197.139L227.253 190.829L226.913 190.24L215.987 196.55L216.327 197.139Z" fill="#23024D"/>
<path d="M371.741 41.2466L369.299 45.4768L368.71 45.1368L371.152 40.9066L371.741 41.2466Z" fill="#23024D"/>
<path d="M360.955 59.9303L367.263 49.0022L366.675 48.6622L360.367 59.5903L360.955 59.9303Z" fill="#23024D"/>
<path d="M358.718 63.8081L352.41 74.7363L351.822 74.3963L358.13 63.4681L358.718 63.8081Z" fill="#23024D"/>
<path d="M390.759 118.377L387.614 119.22L387.438 118.563L390.583 117.72L390.759 118.377Z" fill="#23024D"/>
<path d="M393.509 117.639L401.764 115.427L401.588 114.77L393.333 116.982L393.509 117.639Z" fill="#23024D"/>
<path d="M412.772 112.477L404.517 114.689L404.341 114.033L412.596 111.82L412.772 112.477Z" fill="#23024D"/>
<path d="M265.459 225.624L267.087 222.803L266.498 222.463L264.87 225.284L265.459 225.624Z" fill="#23024D"/>
<path d="M272.785 212.933L268.512 220.336L267.923 219.996L272.196 212.593L272.785 212.933Z" fill="#23024D"/>
<path d="M274.209 210.465L278.482 203.062L277.894 202.722L273.621 210.125L274.209 210.465Z" fill="#23024D"/>
<path d="M396.851 92.7354L407.776 86.426L407.436 85.8371L396.511 92.1465L396.851 92.7354Z" fill="#23024D"/>
<path d="M392.975 94.9738L382.05 101.283L381.71 100.694L392.635 94.3849L392.975 94.9738Z" fill="#23024D"/>
<path d="M253.011 201.268L261.932 192.345L261.451 191.864L252.53 200.787L253.011 201.268Z" fill="#23024D"/>
<path d="M249.844 204.433L240.923 213.356L240.443 212.875L249.363 203.953L249.844 204.433Z" fill="#23024D"/>
<path d="M375.042 79.2064L370.438 83.8117L369.957 83.3309L374.561 78.7256L375.042 79.2064Z" fill="#23024D"/>
<path d="M379.072 75.1769L391.446 62.8001L390.966 62.3193L378.592 74.6961L379.072 75.1769Z" fill="#23024D"/>
<path d="M407.846 46.3934L395.76 58.4824L395.279 58.0015L407.365 45.9126L407.846 46.3934Z" fill="#23024D"/>
<path d="M283.222 260.44L284.907 254.149L284.251 253.973L282.565 260.264L283.222 260.44Z" fill="#23024D"/>
<path d="M290.909 231.737L286.38 248.644L285.723 248.468L290.253 231.561L290.909 231.737Z" fill="#23024D"/>
<path d="M292.489 225.839L296.913 209.326L296.256 209.15L291.832 225.663L292.489 225.839Z" fill="#23024D"/>
<path d="M216.26 165.435L243.383 158.166L243.207 157.509L216.084 164.778L216.26 165.435Z" fill="#23024D"/>
<path d="M342.592 38.6262L335.325 65.7561L334.668 65.5801L341.936 38.4502L342.592 38.6262Z" fill="#23024D"/>
<path d="M155.022 137.75H149.232V137.291H155.022V137.75Z" fill="#000636"/>
<path d="M181.653 137.75H160.811V137.291H181.653V137.75Z" fill="#000636"/>
<path d="M433.499 137.75H188.601V137.291H433.499V137.75Z" fill="#000636"/>
<path d="M467.657 137.75H446.815V137.291H467.657V137.75Z" fill="#000636"/>
<path d="M479.236 137.75H473.446V137.291H479.236V137.75Z" fill="#000636"/>
<path d="M312.515 17.123L312.515 20.9975H312.057L312.057 17.123H312.515Z" fill="#000636"/>
<path d="M312.515 24.8719L312.515 38.8199H312.057L312.057 24.8719H312.515Z" fill="#000636"/>
<path d="M312.515 47.7313L312.515 211.62H312.057L312.057 47.7313H312.515Z" fill="#000636"/>
<path d="M312.515 216.269L312.515 230.217H312.057L312.057 216.269H312.515Z" fill="#000636"/>
<path d="M312.515 234.092L312.515 237.966H312.057L312.057 234.092H312.515Z" fill="#000636"/>
<path d="M362.973 138.543C362.973 166.434 340.207 189.044 312.123 189.044C284.04 189.044 261.273 166.434 261.273 138.543C261.273 110.651 284.04 88.041 312.123 88.041C340.207 88.041 362.973 110.651 362.973 138.543Z" fill="#8620B9"/>
<path fill-rule="evenodd" clip-rule="evenodd" d="M310.891 70.3379C311.301 70.3308 311.712 70.3271 312.123 70.3271C312.535 70.3271 312.946 70.3308 313.356 70.3379L313.345 70.9408C312.939 70.9337 312.531 70.9301 312.123 70.9301C311.715 70.9301 311.308 70.9337 310.902 70.9408L310.891 70.3379ZM315.194 70.3943C316.016 70.4304 316.833 70.4808 317.647 70.5453L317.599 71.1464C316.793 71.0824 315.982 71.0324 315.168 70.9967L315.194 70.3943ZM306.6 70.5453C307.413 70.4808 308.231 70.4304 309.053 70.3943L309.079 70.9967C308.265 71.0324 307.454 71.0824 306.647 71.1464L306.6 70.5453ZM319.478 70.715C320.295 70.8017 321.108 70.9027 321.916 71.0177L321.831 71.6146C321.03 71.5006 320.224 71.4006 319.415 71.3146L319.478 70.715ZM302.331 71.0177C303.139 70.9027 303.952 70.8017 304.769 70.715L304.832 71.3146C304.022 71.4006 303.217 71.5006 302.416 71.6146L302.331 71.0177ZM323.737 71.3016C324.545 71.4389 325.349 71.5902 326.148 71.7554L326.026 72.3458C325.234 72.1821 324.437 72.0321 323.636 71.8961L323.737 71.3016ZM298.099 71.7554C298.898 71.5902 299.701 71.4389 300.51 71.3016L300.611 71.8961C299.809 72.0321 299.013 72.1821 298.221 72.3458L298.099 71.7554ZM293.919 72.7577C294.707 72.5425 295.5 72.3408 296.298 72.1531L296.436 72.7401C295.645 72.9261 294.859 73.126 294.078 73.3393L293.919 72.7577ZM327.948 72.1531C328.747 72.3408 329.54 72.5425 330.328 72.7577L330.169 73.3393C329.388 73.126 328.602 72.9261 327.81 72.7401L327.948 72.1531ZM289.812 74.0204C290.585 73.7557 291.364 73.5045 292.15 73.2669L292.325 73.844C291.546 74.0795 290.773 74.3285 290.007 74.5908L289.812 74.0204ZM332.097 73.2669C332.882 73.5045 333.662 73.7557 334.435 74.0204L334.24 74.5908C333.473 74.3285 332.701 74.0795 331.922 73.844L332.097 73.2669ZM285.793 75.5384C286.548 75.2257 287.31 74.9261 288.078 74.6398L288.289 75.2048C287.527 75.4886 286.772 75.7855 286.024 76.0955L285.793 75.5384ZM336.168 74.6398C336.937 74.9261 337.699 75.2257 338.454 75.5384L338.223 76.0955C337.475 75.7855 336.719 75.4886 335.958 75.2048L336.168 74.6398ZM281.877 77.3065C282.611 76.947 283.352 76.6002 284.1 76.2663L284.346 76.817C283.604 77.1479 282.869 77.4917 282.142 77.848L281.877 77.3065ZM340.146 76.2663C340.895 76.6002 341.636 76.947 342.37 77.3065L342.105 77.848C341.377 77.4917 340.643 77.1479 339.901 76.817L340.146 76.2663ZM278.079 79.3171C278.789 78.912 279.507 78.5192 280.233 78.139L280.513 78.6732C279.793 79.05 279.081 79.4394 278.377 79.8409L278.079 79.3171ZM344.013 78.1391C344.739 78.5192 345.458 78.912 346.168 79.3171L345.869 79.8409C345.165 79.4394 344.453 79.05 343.734 78.6732L344.013 78.1391ZM274.415 81.5611C275.099 81.1122 275.791 80.6752 276.492 80.2503L276.805 80.7658C276.11 81.187 275.423 81.6202 274.746 82.0652L274.415 81.5611ZM347.755 80.2503C348.456 80.6752 349.148 81.1122 349.832 81.5611L349.501 82.0652C348.823 81.6202 348.137 81.187 347.442 80.7658L347.755 80.2503ZM270.898 84.0298C271.553 83.5391 272.216 83.0599 272.889 82.5923L273.233 83.0873C272.566 83.5508 271.909 84.0258 271.26 84.5122L270.898 84.0298ZM351.358 82.5923C352.03 83.0599 352.694 83.5391 353.348 84.0298L352.987 84.5122C352.338 84.0259 351.68 83.5508 351.014 83.0873L351.358 82.5923ZM267.542 86.7135C268.165 86.1828 268.797 85.663 269.439 85.1544L269.814 85.627C269.178 86.1311 268.551 86.6464 267.933 87.1725L267.542 86.7135ZM354.807 85.1544C355.449 85.663 356.082 86.1828 356.704 86.7136L356.313 87.1725C355.696 86.6464 355.069 86.1311 354.433 85.627L354.807 85.1544ZM264.361 89.6012C264.949 89.0325 265.548 88.4742 266.157 87.9266L266.56 88.3749C265.957 88.9177 265.363 89.4711 264.779 90.0348L264.361 89.6012ZM358.09 87.9266C358.699 88.4742 359.298 89.0325 359.886 89.6012L359.467 90.0348C358.884 89.4711 358.29 88.9177 357.687 88.3749L358.09 87.9266ZM261.365 92.6818C261.917 92.0773 262.48 91.4828 263.053 90.8984L263.484 91.3207C262.915 91.8999 262.358 92.4893 261.81 93.0884L261.365 92.6818ZM361.193 90.8985C361.767 91.4828 362.33 92.0773 362.882 92.6818L362.436 93.0884C361.889 92.4893 361.331 91.8999 360.763 91.3207L361.193 90.8985ZM258.568 95.9434C259.081 95.3055 259.606 94.677 260.141 94.0581L260.597 94.4527C260.067 95.0661 259.547 95.6891 259.038 96.3214L258.568 95.9434ZM364.105 94.0581C364.641 94.677 365.165 95.3055 365.679 95.9434L365.209 96.3214C364.7 95.6891 364.18 95.0661 363.649 94.4527L364.105 94.0581ZM255.981 99.3738C256.453 98.7049 256.937 98.0448 257.433 97.3938L257.913 97.7591C257.421 98.4043 256.941 99.0586 256.473 99.7216L255.981 99.3738ZM366.814 97.3938C367.31 98.0448 367.794 98.7049 368.266 99.3738L367.773 99.7216C367.305 99.0586 366.825 98.4043 366.334 97.7591L366.814 97.3938ZM253.613 102.96C254.043 102.263 254.485 101.573 254.939 100.893L255.44 101.227C254.991 101.902 254.553 102.585 254.127 103.277L253.613 102.96ZM369.308 100.893C369.762 101.573 370.204 102.263 370.633 102.96L370.12 103.277C369.694 102.585 369.256 101.902 368.806 101.227L369.308 100.893ZM251.477 106.688C251.862 105.965 252.26 105.249 252.669 104.541L253.191 104.843C252.785 105.545 252.391 106.254 252.01 106.971L251.477 106.688ZM371.577 104.541C371.987 105.249 372.385 105.965 372.769 106.688L372.237 106.971C371.856 106.254 371.462 105.545 371.055 104.843L371.577 104.541ZM249.581 110.544C249.919 109.797 250.271 109.058 250.635 108.326L251.175 108.595C250.814 109.32 250.466 110.053 250.131 110.793L249.581 110.544ZM373.612 108.326C373.976 109.058 374.327 109.797 374.665 110.544L374.116 110.793C373.781 110.053 373.433 109.32 373.072 108.595L373.612 108.326ZM247.933 114.513C248.223 113.746 248.527 112.986 248.844 112.233L249.4 112.467C249.086 113.213 248.785 113.967 248.497 114.726L247.933 114.513ZM375.403 112.233C375.72 112.986 376.023 113.746 376.313 114.513L375.75 114.726C375.462 113.967 375.161 113.213 374.847 112.467L375.403 112.233ZM246.541 118.579C246.782 117.794 247.037 117.016 247.305 116.244L247.875 116.442C247.609 117.207 247.356 117.978 247.117 118.756L246.541 118.579ZM376.941 116.244C377.21 117.016 377.465 117.794 377.706 118.579L377.129 118.756C376.89 117.978 376.638 117.207 376.372 116.442L376.941 116.244ZM245.411 122.723C245.602 121.925 245.806 121.132 246.025 120.345L246.606 120.507C246.389 121.287 246.186 122.072 245.998 122.863L245.411 122.723ZM378.222 120.345C378.44 121.132 378.645 121.925 378.835 122.723L378.249 122.863C378.06 122.072 377.857 121.287 377.641 120.507L378.222 120.345ZM244.547 126.932C244.686 126.124 244.84 125.32 245.008 124.522L245.598 124.646C245.432 125.437 245.279 126.234 245.141 127.035L244.547 126.932ZM379.239 124.522C379.407 125.32 379.56 126.124 379.7 126.932L379.105 127.035C378.967 126.234 378.815 125.437 378.649 124.646L379.239 124.522ZM243.952 131.19C244.04 130.373 244.142 129.56 244.259 128.752L244.856 128.839C244.74 129.639 244.638 130.445 244.551 131.254L243.952 131.19ZM379.988 128.752C380.105 129.56 380.207 130.373 380.295 131.19L379.696 131.254C379.608 130.445 379.507 129.639 379.391 128.839L379.988 128.752ZM243.626 135.474C243.662 134.652 243.714 133.834 243.779 133.021L244.38 133.069C244.315 133.876 244.264 134.686 244.228 135.501L243.626 135.474ZM380.468 133.021C380.533 133.834 380.584 134.652 380.621 135.474L380.018 135.501C379.982 134.686 379.931 133.876 379.867 133.069L380.468 133.021ZM243.558 138.545C243.558 138.133 243.561 137.722 243.569 137.312L244.171 137.323C244.164 137.729 244.161 138.137 244.161 138.545C244.161 138.953 244.164 139.36 244.171 139.766L243.569 139.777C243.561 139.367 243.558 138.956 243.558 138.545ZM380.678 137.312C380.685 137.722 380.689 138.133 380.689 138.545C380.689 138.956 380.685 139.367 380.678 139.777L380.075 139.766C380.082 139.36 380.086 138.953 380.086 138.545C380.086 138.137 380.082 137.729 380.075 137.323L380.678 137.312ZM243.779 144.068C243.714 143.255 243.662 142.437 243.626 141.615L244.228 141.589C244.264 142.403 244.315 143.214 244.38 144.02L243.779 144.068ZM380.621 141.615C380.584 142.437 380.533 143.255 380.468 144.069L379.867 144.02C379.931 143.214 379.982 142.403 380.018 141.589L380.621 141.615ZM244.259 148.337C244.142 147.529 244.04 146.716 243.952 145.9L244.551 145.835C244.638 146.645 244.74 147.45 244.856 148.251L244.259 148.337ZM380.295 145.9C380.207 146.716 380.105 147.529 379.988 148.337L379.391 148.251C379.507 147.45 379.608 146.645 379.696 145.835L380.295 145.9ZM245.008 152.567C244.84 151.769 244.686 150.965 244.547 150.157L245.141 150.055C245.279 150.856 245.432 151.652 245.598 152.443L245.008 152.567ZM379.7 150.157C379.56 150.965 379.407 151.769 379.239 152.567L378.649 152.443C378.815 151.652 378.967 150.856 379.105 150.055L379.7 150.157ZM246.025 156.744C245.806 155.957 245.602 155.164 245.411 154.366L245.998 154.226C246.186 155.017 246.389 155.803 246.606 156.582L246.025 156.744ZM378.835 154.366C378.645 155.164 378.44 155.957 378.222 156.744L377.641 156.582C377.857 155.803 378.06 155.017 378.249 154.226L378.835 154.366ZM247.305 160.845C247.037 160.073 246.782 159.295 246.541 158.51L247.117 158.333C247.356 159.111 247.609 159.882 247.875 160.648L247.305 160.845ZM377.706 158.51C377.465 159.295 377.21 160.073 376.941 160.845L376.372 160.648C376.638 159.882 376.89 159.111 377.129 158.333L377.706 158.51ZM248.844 164.856C248.527 164.103 248.223 163.343 247.933 162.576L248.497 162.363C248.785 163.123 249.086 163.876 249.4 164.623L248.844 164.856ZM376.313 162.576C376.023 163.343 375.72 164.103 375.403 164.856L374.847 164.623C375.161 163.876 375.462 163.123 375.75 162.363L376.313 162.576ZM250.635 168.763C250.271 168.031 249.919 167.292 249.581 166.545L250.131 166.296C250.466 167.036 250.814 167.769 251.175 168.494L250.635 168.763ZM374.665 166.545C374.327 167.292 373.976 168.031 373.612 168.763L373.072 168.494C373.433 167.769 373.781 167.036 374.116 166.296L374.665 166.545ZM252.669 172.548C252.26 171.84 251.862 171.124 251.477 170.401L252.01 170.118C252.391 170.835 252.785 171.544 253.191 172.246L252.669 172.548ZM372.769 170.401C372.385 171.124 371.987 171.84 371.577 172.548L371.055 172.246C371.462 171.544 371.856 170.835 372.237 170.118L372.769 170.401ZM254.939 176.197C254.485 175.516 254.043 174.826 253.613 174.129L254.127 173.813C254.553 174.504 254.991 175.187 255.44 175.862L254.939 176.197ZM370.633 174.129C370.204 174.826 369.762 175.516 369.308 176.197L368.806 175.862C369.256 175.187 369.694 174.504 370.12 173.813L370.633 174.129ZM257.433 179.695C256.937 179.044 256.453 178.384 255.981 177.715L256.473 177.368C256.941 178.031 257.421 178.685 257.913 179.33L257.433 179.695ZM368.266 177.715C367.794 178.384 367.31 179.044 366.814 179.695L366.334 179.33C366.825 178.685 367.305 178.031 367.773 177.368L368.266 177.715ZM260.141 183.031C259.606 182.412 259.081 181.784 258.568 181.146L259.038 180.768C259.547 181.4 260.067 182.023 260.597 182.636L260.141 183.031ZM365.679 181.146C365.165 181.784 364.641 182.412 364.105 183.031L363.649 182.636C364.18 182.023 364.7 181.4 365.209 180.768L365.679 181.146ZM263.053 186.191C262.48 185.606 261.917 185.012 261.365 184.407L261.81 184.001C262.358 184.6 262.915 185.189 263.484 185.768L263.053 186.191ZM362.882 184.407C362.329 185.012 361.767 185.606 361.193 186.191L360.763 185.768C361.331 185.189 361.889 184.6 362.436 184.001L362.882 184.407ZM266.157 189.163C265.548 188.615 264.949 188.057 264.361 187.488L264.779 187.054C265.363 187.618 265.957 188.171 266.56 188.714L266.157 189.163ZM359.886 187.488C359.298 188.057 358.699 188.615 358.09 189.163L357.687 188.714C358.29 188.171 358.884 187.618 359.467 187.054L359.886 187.488ZM269.439 191.935C268.797 191.426 268.165 190.906 267.542 190.376L267.933 189.917C268.551 190.443 269.178 190.958 269.814 191.462L269.439 191.935ZM356.704 190.376C356.082 190.906 355.449 191.426 354.807 191.935L354.433 191.462C355.069 190.958 355.696 190.443 356.313 189.917L356.704 190.376ZM272.889 194.497C272.216 194.029 271.553 193.55 270.898 193.059L271.26 192.577C271.909 193.063 272.566 193.538 273.233 194.002L272.889 194.497ZM353.348 193.059C352.694 193.55 352.03 194.029 351.358 194.497L351.014 194.002C351.68 193.538 352.338 193.063 352.987 192.577L353.348 193.059ZM276.492 196.839C275.791 196.414 275.099 195.977 274.415 195.528L274.746 195.024C275.423 195.469 276.11 195.902 276.804 196.323L276.492 196.839ZM349.832 195.528C349.148 195.977 348.456 196.414 347.755 196.839L347.442 196.323C348.137 195.902 348.823 195.469 349.501 195.024L349.832 195.528ZM280.233 198.95C279.507 198.57 278.789 198.177 278.079 197.772L278.377 197.248C279.081 197.65 279.793 198.039 280.513 198.416L280.233 198.95ZM346.168 197.772C345.458 198.177 344.739 198.57 344.013 198.95L343.734 198.416C344.453 198.039 345.165 197.65 345.869 197.248L346.168 197.772ZM284.1 200.823C283.352 200.489 282.611 200.142 281.877 199.783L282.142 199.241C282.869 199.597 283.604 199.941 284.346 200.272L284.1 200.823ZM342.37 199.783C341.636 200.142 340.895 200.489 340.146 200.823L339.901 200.272C340.643 199.941 341.377 199.597 342.105 199.241L342.37 199.783ZM288.078 202.449C287.31 202.163 286.548 201.863 285.793 201.551L286.024 200.994C286.772 201.304 287.527 201.601 288.289 201.884L288.078 202.449ZM338.454 201.551C337.699 201.863 336.937 202.163 336.168 202.449L335.958 201.884C336.719 201.601 337.475 201.304 338.223 200.994L338.454 201.551ZM292.15 203.822C291.364 203.585 290.585 203.333 289.812 203.069L290.007 202.498C290.773 202.761 291.546 203.01 292.325 203.245L292.15 203.822ZM334.435 203.069C333.662 203.333 332.882 203.585 332.097 203.822L331.922 203.245C332.701 203.01 333.473 202.761 334.24 202.498L334.435 203.069ZM296.298 204.936C295.5 204.748 294.707 204.547 293.919 204.331L294.078 203.75C294.859 203.963 295.645 204.163 296.436 204.349L296.298 204.936ZM330.328 204.331C329.54 204.547 328.747 204.748 327.948 204.936L327.81 204.349C328.602 204.163 329.388 203.963 330.169 203.75L330.328 204.331ZM300.51 205.788C299.701 205.65 298.898 205.499 298.099 205.334L298.221 204.743C299.013 204.907 299.809 205.057 300.611 205.193L300.51 205.788ZM326.148 205.334C325.349 205.499 324.545 205.65 323.737 205.788L323.636 205.193C324.437 205.057 325.234 204.907 326.026 204.743L326.148 205.334ZM304.769 206.374C303.952 206.287 303.139 206.186 302.331 206.071L302.416 205.475C303.217 205.589 304.022 205.689 304.832 205.775L304.769 206.374ZM321.916 206.071C321.108 206.186 320.295 206.287 319.478 206.374L319.415 205.775C320.224 205.689 321.03 205.589 321.831 205.475L321.916 206.071ZM309.053 206.695C308.231 206.659 307.413 206.608 306.6 206.544L306.647 205.943C307.454 206.007 308.265 206.057 309.079 206.092L309.053 206.695ZM317.647 206.544C316.833 206.608 316.016 206.659 315.194 206.695L315.168 206.092C315.982 206.057 316.793 206.007 317.599 205.943L317.647 206.544ZM312.123 206.762C311.712 206.762 311.301 206.758 310.891 206.751L310.902 206.148C311.308 206.155 311.715 206.159 312.123 206.159C312.531 206.159 312.939 206.155 313.345 206.148L313.356 206.751C312.946 206.758 312.535 206.762 312.123 206.762Z" fill="#23024D"/>
<path d="M269.238 181.731C269.238 158.24 288.436 139.193 312.124 139.193C335.811 139.193 355.01 158.24 355.01 181.731C355.01 205.221 335.811 224.268 312.124 224.268C311.722 224.268 311.322 224.263 310.922 224.252L310.906 224.855C311.311 224.866 311.717 224.871 312.124 224.871C336.14 224.871 355.613 205.559 355.613 181.731C355.613 157.902 336.14 138.59 312.124 138.59C288.108 138.59 268.635 157.902 268.635 181.731H269.238Z" fill="#23024D"/>
<path d="M268.635 181.731C268.635 182.138 268.64 182.544 268.652 182.949L269.254 182.932C269.243 182.533 269.238 182.132 269.238 181.731H268.635Z" fill="#23024D"/>
<path d="M268.741 184.769C268.798 185.581 268.878 186.387 268.979 187.187L269.577 187.111C269.477 186.323 269.399 185.528 269.342 184.726L268.741 184.769Z" fill="#23024D"/>
<path d="M269.248 188.989C269.385 189.791 269.544 190.586 269.725 191.372L270.313 191.237C270.134 190.462 269.977 189.678 269.842 188.888L269.248 188.989Z" fill="#23024D"/>
<path d="M270.172 193.139C270.388 193.922 270.625 194.697 270.884 195.462L271.455 195.269C271.2 194.515 270.966 193.751 270.753 192.979L270.172 193.139Z" fill="#23024D"/>
<path d="M271.505 197.176C271.798 197.933 272.112 198.68 272.446 199.417L272.995 199.168C272.665 198.442 272.356 197.705 272.067 196.958L271.505 197.176Z" fill="#23024D"/>
<path d="M273.234 201.06C273.6 201.784 273.986 202.496 274.392 203.196L274.914 202.894C274.514 202.204 274.133 201.501 273.772 200.788L273.234 201.06Z" fill="#23024D"/>
<path d="M275.339 204.753C275.775 205.437 276.229 206.108 276.702 206.765L277.191 206.413C276.725 205.765 276.277 205.104 275.847 204.429L275.339 204.753Z" fill="#23024D"/>
<path d="M277.797 208.222C278.298 208.859 278.816 209.482 279.351 210.09L279.803 209.691C279.276 209.092 278.765 208.478 278.271 207.849L277.797 208.222Z" fill="#23024D"/>
<path d="M280.583 211.432C281.143 212.017 281.72 212.587 282.312 213.14L282.723 212.699C282.139 212.154 281.571 211.592 281.019 211.015L280.583 211.432Z" fill="#23024D"/>
<path d="M283.669 214.356C284.283 214.884 284.912 215.394 285.555 215.887L285.922 215.409C285.288 214.923 284.667 214.419 284.062 213.899L283.669 214.356Z" fill="#23024D"/>
<path d="M287.025 216.966C287.687 217.431 288.362 217.878 289.051 218.306L289.37 217.794C288.69 217.372 288.024 216.931 287.371 216.472L287.025 216.966Z" fill="#23024D"/>
<path d="M290.618 219.236C291.322 219.634 292.038 220.013 292.766 220.373L293.033 219.832C292.316 219.478 291.609 219.104 290.915 218.711L290.618 219.236Z" fill="#23024D"/>
<path d="M294.417 221.145C295.155 221.472 295.905 221.78 296.665 222.066L296.878 221.502C296.129 221.219 295.389 220.916 294.661 220.594L294.417 221.145Z" fill="#23024D"/>
<path d="M298.383 222.674C299.15 222.927 299.926 223.159 300.711 223.371L300.868 222.788C300.094 222.58 299.328 222.351 298.572 222.101L298.383 222.674Z" fill="#23024D"/>
<path d="M302.48 223.807C303.267 223.984 304.062 224.139 304.865 224.273L304.964 223.678C304.172 223.546 303.388 223.393 302.612 223.219L302.48 223.807Z" fill="#23024D"/>
<path d="M306.668 224.535C307.467 224.634 308.274 224.712 309.086 224.768L309.127 224.166C308.326 224.111 307.531 224.035 306.742 223.937L306.668 224.535Z" fill="#23024D"/>
<path fill-rule="evenodd" clip-rule="evenodd" d="M312.124 137.197C335.811 137.197 355.01 118.15 355.01 94.6593H355.613C355.613 118.488 336.14 137.8 312.124 137.8C288.108 137.8 268.635 118.488 268.635 94.6593C268.635 70.831 288.108 51.5186 312.124 51.5186V52.1215C288.436 52.1215 269.238 71.1686 269.238 94.6593C269.238 118.15 288.436 137.197 312.124 137.197Z" fill="#23024D"/>
<path fill-rule="evenodd" clip-rule="evenodd" d="M355.596 93.4413C355.607 93.8459 355.613 94.252 355.613 94.6593H355.01C355.01 94.2576 355.004 93.8572 354.993 93.4581L355.596 93.4413ZM355.268 89.2031C355.37 90.0026 355.45 90.8089 355.507 91.6213L354.905 91.6635C354.849 90.8624 354.771 90.0674 354.67 89.2792L355.268 89.2031ZM354.523 85.0179C354.704 85.8042 354.863 86.5987 355 87.4008L354.406 87.5023C354.271 86.7116 354.113 85.9283 353.935 85.1531L354.523 85.0179ZM353.363 80.9276C353.622 81.6928 353.86 82.4675 354.076 83.2511L353.495 83.4113C353.282 82.6388 353.047 81.8751 352.792 81.1208L353.363 80.9276ZM351.802 76.9734C352.136 77.7095 352.45 78.4567 352.743 79.2141L352.18 79.4316C351.892 78.6849 351.582 77.9482 351.253 77.2225L351.802 76.9734ZM349.856 73.1938C350.261 73.8938 350.648 74.6061 351.014 75.3301L350.476 75.6023C350.115 74.8885 349.734 74.1862 349.334 73.4961L349.856 73.1938ZM347.546 69.625C348.019 70.282 348.473 70.9528 348.909 71.6365L348.4 71.9606C347.971 71.2864 347.522 70.625 347.056 69.9771L347.546 69.625ZM344.897 66.3002C345.432 66.9081 345.95 67.5311 346.451 68.1683L345.976 68.5408C345.483 67.9123 344.972 67.298 344.444 66.6985L344.897 66.3002ZM341.936 63.2499C342.528 63.8031 343.104 64.3726 343.664 64.9576L343.229 65.3745C342.677 64.7976 342.108 64.236 341.524 63.6905L341.936 63.2499ZM338.692 60.5025C339.336 60.9957 339.965 61.5064 340.579 62.0338L340.186 62.4912C339.58 61.971 338.96 61.4674 338.325 60.981L338.692 60.5025ZM335.196 58.0838C335.885 58.5123 336.561 58.9593 337.223 59.4243L336.877 59.9177C336.224 59.4592 335.557 59.0183 334.878 58.5958L335.196 58.0838ZM331.481 56.0174C332.209 56.3768 332.925 56.7559 333.629 57.1539L333.332 57.6787C332.638 57.2862 331.932 56.9124 331.214 56.558L331.481 56.0174ZM327.582 54.3236C328.342 54.6104 329.092 54.9177 329.831 55.2448L329.587 55.7962C328.858 55.4736 328.119 55.1705 327.37 54.8877L327.582 54.3236ZM323.537 53.0194C324.322 53.2307 325.098 53.4632 325.865 53.7163L325.676 54.2888C324.919 54.0392 324.154 53.81 323.38 53.6017L323.537 53.0194ZM319.383 52.1169C320.185 52.2506 320.981 52.4062 321.768 52.583L321.635 53.1713C320.859 52.997 320.075 52.8435 319.284 52.7116L319.383 52.1169ZM315.161 51.6221C315.974 51.6778 316.78 51.7555 317.58 51.8548L317.506 52.4532C316.717 52.3552 315.922 52.2785 315.12 52.2237L315.161 51.6221ZM312.124 51.5186C312.531 51.5186 312.937 51.5241 313.342 51.5351L313.325 52.1379C312.926 52.127 312.526 52.1215 312.124 52.1215V51.5186Z" fill="#23024D"/>
<path fill-rule="evenodd" clip-rule="evenodd" d="M318.825 118.266L328.112 127.501L337.333 118.325L341.809 122.752L328.113 136.381L318.825 127.144L304.18 141.709L296.322 133.894L286.915 143.249L282.44 138.82L296.322 125.015L304.18 132.83L318.825 118.266ZM318.825 119.116L304.18 133.681L296.322 125.865L283.297 138.819L286.914 142.399L296.322 133.043L304.18 140.858L318.825 126.294L328.113 135.53L340.953 122.754L337.334 119.175L328.112 128.352L318.825 119.116ZM318.825 133.837L328.112 143.073L337.333 133.897L341.809 138.324L328.113 151.953L318.825 142.716L304.18 157.28L296.322 149.465L286.915 158.82L282.44 154.392L296.322 140.587L304.18 148.402L318.825 133.837ZM318.825 134.688L304.18 149.252L296.322 141.437L283.297 154.391L286.914 157.971L296.322 148.615L304.18 156.43L318.825 141.865L328.113 151.102L340.953 138.325L337.334 134.746L328.112 143.923L318.825 134.688Z" fill="white"/>
<path fill-rule="evenodd" clip-rule="evenodd" d="M65.2358 147.852L60.9384 152.188L62.4921 158.092L58.1562 153.794L52.2524 155.348L56.5499 151.012L54.9962 145.108L59.3321 149.406L65.2358 147.852ZM57.2264 156.863L57.6837 155.156L57.8813 155.209L57.424 156.916L57.2264 156.863ZM57.1507 157.147L56.9982 157.716L57.1959 157.769L57.3483 157.2L57.1507 157.147ZM56.7704 158.569L56.9228 158L57.1205 158.053L56.968 158.622L56.7704 158.569ZM59.6504 147.818L60.1077 146.111L60.3054 146.164L59.8481 147.871L59.6504 147.818ZM60.3368 145.258L60.1844 145.827L60.3821 145.88L60.5345 145.311L60.3368 145.258ZM60.4134 144.974L60.5658 144.406L60.7635 144.459L60.6111 145.027L60.4134 144.974ZM64.1771 153.161L62.4705 152.704L62.5235 152.506L64.2301 152.963L64.1771 153.161ZM64.4613 153.238L65.0302 153.39L65.0831 153.192L64.5143 153.04L64.4613 153.238ZM65.8839 153.618L65.315 153.465L65.368 153.268L65.9368 153.42L65.8839 153.618ZM55.1331 150.739L53.4265 150.282L53.4794 150.084L55.186 150.541L55.1331 150.739ZM52.5723 150.052L53.1411 150.204L53.1941 150.006L52.6252 149.854L52.5723 150.052ZM52.2886 149.976L51.7197 149.824L51.7727 149.626L52.3416 149.778L52.2886 149.976Z" fill="#5F0E8E"/>
<path d="M131.253 115.861L129.251 117.881L129.975 120.63L127.956 118.629L125.206 119.353L127.207 117.333L126.484 114.583L128.503 116.585L131.253 115.861Z" fill="#5F0E8E"/>
<path fill-rule="evenodd" clip-rule="evenodd" d="M127.467 120.043L127.68 119.248L127.878 119.301L127.665 120.096L127.467 120.043Z" fill="#5F0E8E"/>
<path fill-rule="evenodd" clip-rule="evenodd" d="M127.362 120.441L127.433 120.175L127.631 120.229L127.56 120.494L127.362 120.441Z" fill="#5F0E8E"/>
<path fill-rule="evenodd" clip-rule="evenodd" d="M127.256 120.838L127.327 120.573L127.525 120.626L127.454 120.891L127.256 120.838Z" fill="#5F0E8E"/>
<path fill-rule="evenodd" clip-rule="evenodd" d="M128.812 115.037L128.599 115.832L128.797 115.885L129.01 115.09L128.812 115.037Z" fill="#5F0E8E"/>
<path fill-rule="evenodd" clip-rule="evenodd" d="M128.918 114.639L128.847 114.904L129.045 114.957L129.116 114.692L128.918 114.639Z" fill="#5F0E8E"/>
<path fill-rule="evenodd" clip-rule="evenodd" d="M129.024 114.241L128.953 114.507L129.151 114.56L129.222 114.294L129.024 114.241Z" fill="#5F0E8E"/>
<path fill-rule="evenodd" clip-rule="evenodd" d="M130.745 118.385L129.95 118.172L130.003 117.975L130.798 118.188L130.745 118.385Z" fill="#5F0E8E"/>
<path fill-rule="evenodd" clip-rule="evenodd" d="M131.143 118.492L130.878 118.421L130.931 118.223L131.196 118.294L131.143 118.492Z" fill="#5F0E8E"/>
<path fill-rule="evenodd" clip-rule="evenodd" d="M131.54 118.6L131.275 118.529L131.328 118.331L131.594 118.402L131.54 118.6Z" fill="#5F0E8E"/>
<path fill-rule="evenodd" clip-rule="evenodd" d="M125.738 117.044L126.533 117.257L126.586 117.06L125.791 116.847L125.738 117.044Z" fill="#5F0E8E"/>
<path fill-rule="evenodd" clip-rule="evenodd" d="M125.34 116.938L125.605 117.01L125.658 116.812L125.393 116.74L125.34 116.938Z" fill="#5F0E8E"/>
<path fill-rule="evenodd" clip-rule="evenodd" d="M124.942 116.831L125.208 116.902L125.261 116.704L124.995 116.633L124.942 116.831Z" fill="#5F0E8E"/>
<path d="M95.335 121.962L93.8076 123.503L94.3598 125.601L92.8189 124.074L90.7207 124.626L92.248 123.085L91.6958 120.987L93.2368 122.514L95.335 121.962Z" fill="#5F0E8E"/>
<path fill-rule="evenodd" clip-rule="evenodd" d="M92.425 125.15L92.5875 124.544L92.7852 124.597L92.6226 125.203L92.425 125.15Z" fill="#5F0E8E"/>
<path fill-rule="evenodd" clip-rule="evenodd" d="M92.3434 125.453L92.3977 125.251L92.5957 125.304L92.5414 125.506L92.3434 125.453Z" fill="#5F0E8E"/>
<path fill-rule="evenodd" clip-rule="evenodd" d="M92.2633 125.756L92.3176 125.553L92.5156 125.606L92.4614 125.809L92.2633 125.756Z" fill="#5F0E8E"/>
<path fill-rule="evenodd" clip-rule="evenodd" d="M93.4482 121.329L93.2857 121.935L93.4834 121.988L93.6459 121.382L93.4482 121.329Z" fill="#5F0E8E"/>
<path fill-rule="evenodd" clip-rule="evenodd" d="M93.5301 121.026L93.4758 121.228L93.6738 121.281L93.7281 121.079L93.5301 121.026Z" fill="#5F0E8E"/>
<path fill-rule="evenodd" clip-rule="evenodd" d="M93.6111 120.721L93.5569 120.924L93.7549 120.977L93.8091 120.774L93.6111 120.721Z" fill="#5F0E8E"/>
<path fill-rule="evenodd" clip-rule="evenodd" d="M94.9432 123.912L94.3367 123.749L94.3896 123.552L94.9962 123.714L94.9432 123.912Z" fill="#5F0E8E"/>
<path fill-rule="evenodd" clip-rule="evenodd" d="M95.2452 123.993L95.0426 123.939L95.0957 123.741L95.2982 123.795L95.2452 123.993Z" fill="#5F0E8E"/>
<path fill-rule="evenodd" clip-rule="evenodd" d="M95.5489 124.076L95.3464 124.021L95.3994 123.823L95.6019 123.878L95.5489 124.076Z" fill="#5F0E8E"/>
<path fill-rule="evenodd" clip-rule="evenodd" d="M91.1218 122.887L91.7283 123.049L91.7812 122.852L91.1747 122.689L91.1218 122.887Z" fill="#5F0E8E"/>
<path fill-rule="evenodd" clip-rule="evenodd" d="M90.8177 122.806L91.0202 122.86L91.0732 122.662L90.8707 122.608L90.8177 122.806Z" fill="#5F0E8E"/>
<path fill-rule="evenodd" clip-rule="evenodd" d="M90.5149 122.725L90.7175 122.779L90.7705 122.581L90.568 122.527L90.5149 122.725Z" fill="#5F0E8E"/>
<path d="M152.011 192.085L150.061 194.052L150.766 196.729L148.8 194.78L146.122 195.485L148.071 193.518L147.366 190.84L149.333 192.79L152.011 192.085Z" fill="#5F0E8E"/>
<path fill-rule="evenodd" clip-rule="evenodd" d="M148.325 196.161L148.533 195.386L148.73 195.439L148.523 196.214L148.325 196.161Z" fill="#5F0E8E"/>
<path fill-rule="evenodd" clip-rule="evenodd" d="M148.221 196.547L148.29 196.289L148.488 196.342L148.419 196.6L148.221 196.547Z" fill="#5F0E8E"/>
<path fill-rule="evenodd" clip-rule="evenodd" d="M148.117 196.934L148.187 196.675L148.385 196.729L148.316 196.987L148.117 196.934Z" fill="#5F0E8E"/>
<path fill-rule="evenodd" clip-rule="evenodd" d="M149.63 191.284L149.422 192.058L149.62 192.111L149.828 191.337L149.63 191.284Z" fill="#5F0E8E"/>
<path fill-rule="evenodd" clip-rule="evenodd" d="M149.735 190.896L149.665 191.155L149.863 191.208L149.933 190.95L149.735 190.896Z" fill="#5F0E8E"/>
<path fill-rule="evenodd" clip-rule="evenodd" d="M149.837 190.508L149.768 190.766L149.966 190.819L150.035 190.561L149.837 190.508Z" fill="#5F0E8E"/>
<path fill-rule="evenodd" clip-rule="evenodd" d="M151.517 194.549L150.743 194.341L150.796 194.144L151.57 194.351L151.517 194.549Z" fill="#5F0E8E"/>
<path fill-rule="evenodd" clip-rule="evenodd" d="M151.906 194.653L151.647 194.584L151.7 194.386L151.959 194.455L151.906 194.653Z" fill="#5F0E8E"/>
<path fill-rule="evenodd" clip-rule="evenodd" d="M152.291 194.757L152.033 194.687L152.086 194.489L152.344 194.559L152.291 194.757Z" fill="#5F0E8E"/>
<path fill-rule="evenodd" clip-rule="evenodd" d="M146.642 193.241L147.416 193.449L147.469 193.251L146.695 193.044L146.642 193.241Z" fill="#5F0E8E"/>
<path fill-rule="evenodd" clip-rule="evenodd" d="M146.254 193.138L146.512 193.207L146.565 193.009L146.307 192.94L146.254 193.138Z" fill="#5F0E8E"/>
<path fill-rule="evenodd" clip-rule="evenodd" d="M145.867 193.034L146.126 193.103L146.179 192.905L145.92 192.836L145.867 193.034Z" fill="#5F0E8E"/>
<path d="M110.231 207.536L108.224 209.561L108.95 212.319L106.925 210.311L104.168 211.037L106.175 209.012L105.449 206.255L107.474 208.262L110.231 207.536Z" fill="#5F0E8E"/>
<path fill-rule="evenodd" clip-rule="evenodd" d="M106.438 211.73L106.652 210.933L106.85 210.986L106.636 211.783L106.438 211.73Z" fill="#5F0E8E"/>
<path fill-rule="evenodd" clip-rule="evenodd" d="M106.331 212.129L106.403 211.863L106.601 211.916L106.529 212.182L106.331 212.129Z" fill="#5F0E8E"/>
<path fill-rule="evenodd" clip-rule="evenodd" d="M106.224 212.529L106.295 212.262L106.493 212.315L106.422 212.582L106.224 212.529Z" fill="#5F0E8E"/>
<path fill-rule="evenodd" clip-rule="evenodd" d="M107.784 206.71L107.571 207.507L107.769 207.56L107.982 206.763L107.784 206.71Z" fill="#5F0E8E"/>
<path fill-rule="evenodd" clip-rule="evenodd" d="M107.892 206.312L107.821 206.578L108.019 206.631L108.09 206.365L107.892 206.312Z" fill="#5F0E8E"/>
<path fill-rule="evenodd" clip-rule="evenodd" d="M107.998 205.912L107.927 206.178L108.125 206.231L108.196 205.965L107.998 205.912Z" fill="#5F0E8E"/>
<path fill-rule="evenodd" clip-rule="evenodd" d="M109.725 210.071L108.928 209.858L108.98 209.66L109.778 209.874L109.725 210.071Z" fill="#5F0E8E"/>
<path fill-rule="evenodd" clip-rule="evenodd" d="M110.123 210.179L109.857 210.107L109.91 209.909L110.176 209.98L110.123 210.179Z" fill="#5F0E8E"/>
<path fill-rule="evenodd" clip-rule="evenodd" d="M110.521 210.284L110.255 210.213L110.308 210.015L110.574 210.086L110.521 210.284Z" fill="#5F0E8E"/>
<path fill-rule="evenodd" clip-rule="evenodd" d="M104.702 208.725L105.499 208.939L105.552 208.741L104.755 208.528L104.702 208.725Z" fill="#5F0E8E"/>
<path fill-rule="evenodd" clip-rule="evenodd" d="M104.303 208.618L104.569 208.689L104.622 208.491L104.356 208.42L104.303 208.618Z" fill="#5F0E8E"/>
<path fill-rule="evenodd" clip-rule="evenodd" d="M103.905 208.511L104.172 208.583L104.225 208.385L103.958 208.313L103.905 208.511Z" fill="#5F0E8E"/>
<path opacity="0.3" fill-rule="evenodd" clip-rule="evenodd" d="M93.3854 124.247L128.834 118.557L128.51 116.537L92.5055 122.316L58.5596 150.665L-13.9659 146.259L-14.09 148.302L58.4014 152.706L106.666 210.386L149.878 193.583L60.7881 151.471L93.3854 124.247ZM62.6773 154.627L144.702 193.4L107.293 207.947L62.6773 154.627Z" fill="#B83FC3"/>
<path d="M109.43 176.383C108.756 176.772 107.895 176.542 107.506 175.868C107.117 175.194 107.348 174.333 108.021 173.944C108.695 173.555 109.557 173.785 109.946 174.459C110.335 175.133 110.104 175.994 109.43 176.383Z" fill="#5F0E8E"/>
<path d="M92.7288 192.531C92.055 192.92 91.1935 192.689 90.8045 192.015C90.4156 191.342 90.6464 190.48 91.3201 190.091C91.9939 189.702 92.8554 189.933 93.2444 190.607C93.6333 191.28 93.4025 192.142 92.7288 192.531Z" fill="#5F0E8E"/>
<path fill-rule="evenodd" clip-rule="evenodd" d="M168.223 114.337C169.408 114.453 170.651 114.671 171.578 115.022C172.043 115.198 172.413 115.401 172.657 115.63C172.898 115.854 173.006 116.091 172.985 116.349C172.883 117.616 172.739 118.808 172.269 120.049C171.801 121.288 171.005 122.586 169.587 124.051C166.339 127.405 161.372 128.344 156.486 128.373C153.071 128.393 149.74 127.971 147.093 127.635L147.092 127.635L147.091 127.635C145.946 127.49 144.93 127.361 144.09 127.291C143.444 127.237 142.724 127.156 141.946 127.067L141.945 127.067L141.945 127.067C139.438 126.782 136.33 126.429 133.156 126.726C128.982 127.117 124.661 128.632 121.362 132.905C119.674 135.091 119.682 137.988 120.705 141.158C121.729 144.332 123.784 147.824 126.263 151.255C131.222 158.118 137.919 164.781 141.614 168.219C144.289 170.708 148.768 174.188 154.074 178.309C154.644 178.752 155.223 179.203 155.811 179.66C161.821 184.334 168.709 189.743 175.205 195.441C174.952 195.718 174.707 196.002 174.468 196.289C173.395 197.582 172.447 198.969 171.538 200.315L171.368 200.233C171.169 200.136 170.881 199.997 170.524 199.824C169.81 199.479 168.821 198.999 167.723 198.463C165.524 197.39 162.887 196.093 161.123 195.192C159.366 194.294 156.946 192.863 154.962 191.654C153.971 191.051 153.09 190.503 152.457 190.107C152.167 189.925 151.929 189.775 151.756 189.665C151.841 188.934 151.846 188.078 151.804 187.28C151.748 186.216 151.607 185.219 151.444 184.725L151.055 184.854C151.2 185.293 151.34 186.244 151.395 187.301C151.437 188.087 151.431 188.911 151.351 189.603C151.344 189.614 151.337 189.625 151.329 189.637C151.219 189.81 151.22 189.81 151.22 189.81L151.29 189.855C151.298 189.86 151.306 189.865 151.316 189.871C151.295 190.009 151.271 190.139 151.243 190.261C151.175 190.561 151.087 190.903 150.994 191.27C150.841 191.871 150.672 192.536 150.544 193.178C150.337 194.213 150.216 195.267 150.441 196.015L150.833 195.897C150.64 195.258 150.737 194.297 150.945 193.259C151.073 192.621 151.235 191.984 151.385 191.395C151.479 191.024 151.569 190.673 151.642 190.352C151.66 190.274 151.676 190.192 151.691 190.109C151.843 190.204 152.028 190.32 152.24 190.453C152.874 190.851 153.757 191.399 154.749 192.004C156.733 193.213 159.164 194.65 160.937 195.556C162.704 196.46 165.345 197.758 167.543 198.831C168.642 199.367 169.631 199.847 170.345 200.193C170.702 200.366 170.991 200.505 171.19 200.601L171.307 200.658C171.241 200.755 171.175 200.853 171.109 200.95C170.083 202.466 169.091 203.898 167.994 205.073C167.222 205.049 165.992 205.063 164.686 205.179C163.33 205.3 161.874 205.533 160.764 205.958C160.396 206.099 159.973 206.262 159.515 206.44L150.343 203.64L150.223 204.032L158.897 206.679C156.764 207.507 154.132 208.54 152.773 209.075L139.511 207.284L141.576 206.675L141.461 206.283L138.051 207.289C137.738 207.381 137.383 207.443 136.999 207.5C136.9 207.515 136.799 207.53 136.696 207.545C136.405 207.587 136.102 207.631 135.801 207.687C134.985 207.839 134.139 208.088 133.458 208.679L133.727 208.988C134.324 208.47 135.081 208.238 135.876 208.09C136.168 208.035 136.459 207.993 136.748 207.951C136.833 207.939 136.919 207.926 137.004 207.914L137.06 207.905C137.446 207.847 137.824 207.782 138.167 207.681L138.551 207.568L152.824 209.495L152.874 209.475C154.65 208.776 158.744 207.17 160.91 206.341C161.967 205.936 163.378 205.707 164.723 205.587C166.064 205.467 167.325 205.458 168.072 205.485L168.165 205.489L168.228 205.422C169.377 204.206 170.405 202.721 171.448 201.18C171.537 201.048 171.626 200.917 171.715 200.784C172.675 199.362 173.66 197.903 174.783 196.551C177.232 193.601 180.321 191.174 185.18 190.803C186.489 190.703 187.466 191.245 188.164 191.974C188.838 192.676 189.245 193.547 189.422 194.16L178.503 213.402C174.889 215.086 169.381 217.619 164.524 219.778C162.083 220.863 159.807 221.854 158.019 222.594C157.125 222.965 156.355 223.272 155.747 223.498C155.134 223.726 154.703 223.864 154.479 223.904C152.021 224.342 146.027 225.25 143.392 225.204C142.88 225.195 141.797 225.038 140.358 224.781C138.926 224.525 137.159 224.175 135.289 223.788C131.691 223.041 127.718 222.156 125.043 221.543L125.044 221.537C118.321 220.079 117.256 219.653 112.124 217.604L112.043 217.571C108.809 216.28 102.478 212.438 96.1451 208.184C89.8159 203.933 83.5126 199.289 80.3352 196.407C80.0634 196.16 79.7629 195.884 79.4346 195.582C77.1769 193.504 73.6096 190.22 69.0921 187.233C63.9178 183.811 57.4807 180.766 50.3101 180.361C45.3837 180.083 24.2999 178.631 12.9773 177.696L12.9729 177.695L-27.9517 175.188L-27.9768 175.596L12.9436 178.104L12.9457 178.104C24.2718 179.039 45.3569 180.492 50.287 180.77C57.3578 181.169 63.7243 184.174 68.8664 187.574C73.3543 190.542 76.8969 193.803 79.1556 195.881C79.4847 196.184 79.7866 196.462 80.0602 196.71C83.2608 199.614 89.5848 204.271 95.9169 208.524C102.245 212.775 108.61 216.641 111.891 217.951L111.954 217.977C117.039 220.008 118.166 220.458 124.647 221.869L124.646 221.872C127.32 222.487 131.464 223.412 135.206 224.188C137.077 224.576 138.849 224.927 140.286 225.184C141.717 225.439 142.834 225.604 143.385 225.613C144.504 225.633 146.205 225.485 147.986 225.274L147.983 225.282C147.903 225.47 147.904 225.471 147.904 225.471L147.909 225.473L147.924 225.479L147.985 225.504C148.038 225.526 148.116 225.559 148.217 225.6C148.42 225.682 148.714 225.8 149.082 225.942C149.817 226.228 150.846 226.612 152.024 227.01C154.375 227.804 157.334 228.655 159.721 228.863C162.118 229.072 165.817 228.478 169.155 227.691C170.829 227.296 172.419 226.851 173.721 226.43C174.892 226.052 175.842 225.689 176.408 225.395C178.997 225.821 181.808 226.282 184.57 226.735L184.575 226.736L184.58 226.737C191.91 227.939 198.885 229.082 200.391 229.362C203.34 229.909 206.339 230.932 209.127 231.882C209.989 232.176 210.83 232.463 211.643 232.726C213.36 233.283 214.954 233.737 216.337 233.926C217.717 234.115 218.923 234.046 219.838 233.517C220.773 232.977 221.153 232.076 221.146 231.032C221.139 229.997 220.754 228.807 220.153 227.628C219.751 226.843 219.249 226.053 218.686 225.308C218.702 225.221 218.703 225.124 218.695 225.025C218.678 224.809 218.616 224.537 218.529 224.247C218.354 223.665 218.062 222.968 217.748 222.425C216.104 219.577 212.785 217.825 209.146 216.411C207.75 215.868 206.297 215.372 204.865 214.882C204.426 214.732 203.988 214.582 203.555 214.433C201.835 213.837 200.177 213.233 198.703 212.546C203.374 209.804 211.193 204.339 214.83 201.722L214.943 201.64L214.908 201.504C214.898 201.465 214.887 201.424 214.877 201.382C214.474 199.821 213.644 196.607 209.872 195.515C208.265 195.049 206.322 195.279 204.307 195.878C202.288 196.478 200.172 197.456 198.205 198.516C196.238 199.577 194.415 200.723 192.981 201.663C192.34 202.084 191.78 202.461 191.321 202.77L191.319 202.771L191.318 202.771L191.316 202.773C190.744 203.158 190.328 203.438 190.102 203.568C189.55 203.887 188.42 204.451 187.139 205.07L184.678 203.348L189.861 194.216L189.839 194.135C189.662 193.466 189.219 192.483 188.46 191.691C187.696 190.893 186.604 190.283 185.148 190.395C180.796 190.727 177.823 192.668 175.483 195.141C168.975 189.432 162.075 184.013 156.063 179.337C155.476 178.881 154.898 178.432 154.329 177.99C149.017 173.863 144.554 170.395 141.893 167.92C138.204 164.488 131.531 157.846 126.594 151.015C124.125 147.598 122.1 144.146 121.095 141.033C120.089 137.916 120.119 135.185 121.686 133.155C124.896 128.998 129.097 127.517 133.194 127.133C136.321 126.841 139.367 127.187 141.868 127.471C142.656 127.56 143.39 127.644 144.056 127.699C144.869 127.767 145.868 127.893 147.001 128.037C149.657 128.373 153.046 128.802 156.488 128.782C161.403 128.753 166.514 127.812 169.881 124.335C171.332 122.837 172.161 121.492 172.652 120.194C173.143 118.897 173.291 117.657 173.393 116.382C173.426 115.966 173.241 115.615 172.937 115.331C172.637 115.05 172.21 114.824 171.723 114.639C170.746 114.269 169.462 114.047 168.263 113.93C165.984 113.707 161.981 113.114 157.848 112.278C153.711 111.442 149.46 110.367 146.677 109.186C146.425 109.079 146.043 108.981 145.559 108.891C145.071 108.8 144.466 108.713 143.761 108.632C142.351 108.469 140.531 108.324 138.422 108.2C134.203 107.952 128.821 107.786 123.236 107.722C112.076 107.596 100.083 107.877 94.9732 108.736C86.2728 110.198 82.0574 111.662 78.9729 113.082C78.0441 113.509 77.2234 113.929 76.4176 114.342C74.541 115.302 72.745 116.221 69.8501 117.097C62.9972 119.169 53.5329 119.632 44.1984 119.39C34.8692 119.149 25.6916 118.203 19.4221 117.469L19.4171 117.469L-15.8375 114.207L-15.8752 114.615L19.3745 117.876L19.377 117.876C25.6507 118.611 34.8415 119.557 44.1878 119.799C53.53 120.041 63.0496 119.581 69.9686 117.489C72.8999 116.602 74.7432 115.659 76.633 114.692C77.4329 114.283 78.2413 113.869 79.144 113.454C82.1868 112.053 86.3653 110.597 95.041 109.14C100.108 108.288 112.064 108.005 123.232 108.132C128.812 108.195 134.188 108.361 138.398 108.609C140.503 108.732 142.315 108.877 143.714 109.039C144.414 109.119 145.009 109.205 145.484 109.293C145.963 109.383 146.308 109.474 146.517 109.562C149.341 110.761 153.626 111.842 157.766 112.679C161.91 113.517 165.927 114.113 168.223 114.337ZM218.137 224.365C218.178 224.499 218.21 224.624 218.235 224.737C217.206 223.488 216.026 222.41 214.908 221.758C212.734 220.49 208.504 219.009 204.126 217.832C200.074 216.742 195.863 215.904 192.997 215.734C194.674 214.78 196.177 213.939 197.324 213.324C197.619 213.166 197.937 212.989 198.273 212.796C199.832 213.543 201.601 214.189 203.422 214.819C203.858 214.97 204.297 215.12 204.737 215.271L204.738 215.271L204.738 215.271C206.169 215.76 207.611 216.253 208.998 216.792C212.634 218.206 215.827 219.915 217.393 222.629C217.69 223.143 217.971 223.81 218.137 224.365ZM184.475 203.706L186.716 205.274C185.219 205.993 183.584 206.757 182.446 207.283L184.475 203.706ZM192.328 216.116C187.961 218.611 182.634 221.745 179.356 223.673L179.348 223.678C178.325 224.279 177.503 224.763 176.972 225.073C179.389 225.471 181.983 225.896 184.538 226.315L184.63 226.33L184.66 226.335L184.677 226.338C191.995 227.538 198.958 228.68 200.465 228.959C203.447 229.513 206.487 230.549 209.279 231.501L209.281 231.502L209.285 231.503L209.293 231.506C210.145 231.796 210.973 232.079 211.77 232.337C213.483 232.892 215.047 233.337 216.393 233.521C217.743 233.705 218.837 233.623 219.634 233.163C220.411 232.714 220.743 231.97 220.737 231.035C220.73 230.09 220.375 228.965 219.788 227.815C218.613 225.513 216.548 223.189 214.702 222.111C212.578 220.873 208.394 219.404 204.02 218.227C199.651 217.053 195.13 216.179 192.328 216.116ZM176.337 224.968L176.347 224.963L176.36 224.956L176.373 224.948C176.815 224.693 177.783 224.124 179.083 223.359L179.136 223.328C183.869 220.543 192.911 215.225 197.131 212.964C201.396 210.678 210.391 204.408 214.477 201.471C214.072 199.905 213.283 196.929 209.759 195.908C208.262 195.475 206.409 195.68 204.424 196.27C202.442 196.859 200.353 197.823 198.4 198.876C196.447 199.929 194.634 201.069 193.206 202.006C192.588 202.41 192.039 202.78 191.581 203.088L191.578 203.09L191.574 203.093L191.574 203.093C190.982 203.491 190.543 203.786 190.307 203.923C188.974 204.692 184.388 206.84 182.27 207.814L182.213 207.692L178.794 213.718L178.735 213.745C175.121 215.43 169.577 217.979 164.691 220.152C162.248 221.238 159.968 222.23 158.176 222.973C157.28 223.344 156.504 223.654 155.89 223.882C155.282 224.107 154.817 224.259 154.551 224.307C153.198 224.548 150.754 224.935 148.385 225.226C148.585 225.307 148.872 225.422 149.23 225.561C149.961 225.844 150.984 226.227 152.155 226.622C154.501 227.414 157.421 228.252 159.757 228.455C162.083 228.658 165.726 228.079 169.061 227.292C170.725 226.9 172.305 226.458 173.595 226.041C174.848 225.636 175.814 225.259 176.322 224.977L176.324 224.966L176.337 224.968Z" fill="#23024D"/>
<path d="M64.4426 130.504C64.2476 130.441 64.2476 130.441 64.2476 130.442L64.2469 130.444L64.2449 130.45L64.2371 130.475C64.2302 130.497 64.2202 130.529 64.2072 130.572C64.1811 130.658 64.1432 130.785 64.0954 130.95C63.9998 131.282 63.8646 131.769 63.706 132.392C63.3886 133.64 62.9771 135.435 62.5995 137.627C61.8446 142.012 61.2246 147.991 61.7679 154.364C62.3102 160.727 63.3453 166.092 64.245 169.866C64.6949 171.754 65.111 173.244 65.4148 174.263C65.5667 174.772 65.6906 175.164 65.7766 175.428C65.8196 175.561 65.8532 175.661 65.876 175.729L65.8861 175.759L65.9021 175.806L65.9106 175.83L65.9112 175.832C65.9112 175.832 65.9112 175.832 66.1044 175.764C66.2976 175.697 66.2975 175.697 66.2975 175.697L66.2955 175.691L66.2891 175.673C66.2835 175.656 66.275 175.631 66.2638 175.598C66.2524 175.564 66.2382 175.522 66.2214 175.471C66.2053 175.423 66.1867 175.366 66.1659 175.302C66.0808 175.04 65.958 174.652 65.807 174.146C65.5052 173.133 65.0911 171.651 64.6431 169.771C63.7472 166.013 62.7159 160.669 62.1757 154.33C61.6363 148.001 62.2518 142.059 63.0029 137.697C63.3784 135.516 63.7875 133.732 64.1026 132.493C64.2602 131.874 64.3942 131.391 64.4887 131.064C64.5359 130.9 64.5733 130.775 64.5987 130.691C64.6082 130.66 64.616 130.635 64.6221 130.615L64.6278 130.597L64.6352 130.573L64.6376 130.566C64.6376 130.566 64.6376 130.566 64.4426 130.504Z" fill="#23024D"/>
<path d="M104.93 150.554C108.612 150.44 112.79 152.077 115.509 153.613L115.307 153.969C112.617 152.45 108.516 150.852 104.943 150.963C103.161 151.019 101.526 151.498 100.257 152.607C98.9898 153.714 98.0631 155.471 97.7387 158.131C97.0879 163.467 98.8222 169.084 101.273 173.952C103.721 178.817 106.874 182.91 109.026 185.187L108.728 185.468C106.552 183.165 103.375 179.04 100.907 174.136C98.4398 169.235 96.6677 163.532 97.3324 158.082C97.6657 155.349 98.6258 153.489 99.9877 152.299C101.348 151.11 103.085 150.611 104.93 150.554Z" fill="#23024D"/>
<path d="M150.861 201.268C150.727 201.62 150.328 202.619 149.791 203.82C149.504 204.462 149.104 204.807 148.703 204.963C148.308 205.116 147.93 205.08 147.691 204.992L147.833 204.608C147.985 204.665 148.26 204.696 148.554 204.581C148.842 204.469 149.168 204.21 149.417 203.653C149.952 202.458 150.348 201.467 150.478 201.123L150.861 201.268Z" fill="#23024D"/>
<path fill-rule="evenodd" clip-rule="evenodd" d="M558.765 137.815L563.063 133.479L561.509 127.575L565.845 131.873L571.749 130.319L567.451 134.655L569.005 140.559L564.669 136.261L558.765 137.815ZM566.774 128.801L566.316 130.508L566.119 130.455L566.576 128.748L566.774 128.801ZM566.848 128.517L567.001 127.948L566.803 127.895L566.65 128.464L566.848 128.517ZM567.23 127.095L567.077 127.664L566.879 127.611L567.032 127.043L567.23 127.095ZM564.349 137.848L563.892 139.554L563.694 139.501L564.152 137.795L564.349 137.848ZM563.664 140.407L563.817 139.838L563.619 139.786L563.466 140.354L563.664 140.407ZM563.588 140.691L563.435 141.26L563.237 141.207L563.39 140.638L563.588 140.691ZM559.823 132.506L561.529 132.964L561.477 133.161L559.77 132.704L559.823 132.506ZM559.538 132.43L558.969 132.277L558.916 132.475L559.485 132.627L559.538 132.43ZM558.116 132.049L558.685 132.202L558.632 132.399L558.063 132.247L558.116 132.049ZM568.867 134.928L570.573 135.385L570.52 135.583L568.814 135.126L568.867 134.928ZM571.427 135.616L570.859 135.463L570.806 135.661L571.375 135.813L571.427 135.616ZM571.711 135.691L572.28 135.843L572.227 136.041L571.658 135.889L571.711 135.691Z" fill="#5F0E8E"/>
<path d="M492.749 169.806L494.751 167.786L494.027 165.037L496.046 167.038L498.796 166.314L496.794 168.334L497.518 171.084L495.499 169.082L492.749 169.806Z" fill="#5F0E8E"/>
<path fill-rule="evenodd" clip-rule="evenodd" d="M496.533 165.623L496.32 166.418L496.122 166.365L496.335 165.57L496.533 165.623Z" fill="#5F0E8E"/>
<path fill-rule="evenodd" clip-rule="evenodd" d="M496.638 165.225L496.567 165.491L496.369 165.438L496.44 165.172L496.638 165.225Z" fill="#5F0E8E"/>
<path fill-rule="evenodd" clip-rule="evenodd" d="M496.744 164.828L496.673 165.093L496.475 165.04L496.546 164.775L496.744 164.828Z" fill="#5F0E8E"/>
<path fill-rule="evenodd" clip-rule="evenodd" d="M495.19 170.628L495.403 169.833L495.205 169.78L494.992 170.575L495.19 170.628Z" fill="#5F0E8E"/>
<path fill-rule="evenodd" clip-rule="evenodd" d="M495.083 171.026L495.154 170.761L494.956 170.708L494.885 170.973L495.083 171.026Z" fill="#5F0E8E"/>
<path fill-rule="evenodd" clip-rule="evenodd" d="M494.977 171.424L495.048 171.159L494.85 171.105L494.778 171.371L494.977 171.424Z" fill="#5F0E8E"/>
<path fill-rule="evenodd" clip-rule="evenodd" d="M493.255 167.281L494.05 167.494L493.997 167.691L493.202 167.478L493.255 167.281Z" fill="#5F0E8E"/>
<path fill-rule="evenodd" clip-rule="evenodd" d="M492.857 167.174L493.122 167.245L493.069 167.443L492.804 167.372L492.857 167.174Z" fill="#5F0E8E"/>
<path fill-rule="evenodd" clip-rule="evenodd" d="M492.46 167.066L492.725 167.137L492.672 167.335L492.406 167.264L492.46 167.066Z" fill="#5F0E8E"/>
<path fill-rule="evenodd" clip-rule="evenodd" d="M498.26 168.621L497.465 168.408L497.412 168.605L498.207 168.818L498.26 168.621Z" fill="#5F0E8E"/>
<path fill-rule="evenodd" clip-rule="evenodd" d="M498.658 168.726L498.393 168.655L498.34 168.853L498.605 168.924L498.658 168.726Z" fill="#5F0E8E"/>
<path fill-rule="evenodd" clip-rule="evenodd" d="M499.056 168.834L498.79 168.763L498.737 168.961L499.003 169.032L499.056 168.834Z" fill="#5F0E8E"/>
<path d="M528.667 163.703L530.194 162.162L529.642 160.064L531.183 161.591L533.281 161.039L531.754 162.58L532.306 164.678L530.765 163.151L528.667 163.703Z" fill="#5F0E8E"/>
<path fill-rule="evenodd" clip-rule="evenodd" d="M531.577 160.516L531.414 161.122L531.217 161.069L531.379 160.463L531.577 160.516Z" fill="#5F0E8E"/>
<path fill-rule="evenodd" clip-rule="evenodd" d="M531.659 160.213L531.604 160.415L531.406 160.362L531.461 160.16L531.659 160.213Z" fill="#5F0E8E"/>
<path fill-rule="evenodd" clip-rule="evenodd" d="M531.739 159.91L531.684 160.113L531.486 160.06L531.541 159.857L531.739 159.91Z" fill="#5F0E8E"/>
<path fill-rule="evenodd" clip-rule="evenodd" d="M530.552 164.338L530.714 163.732L530.517 163.679L530.354 164.285L530.552 164.338Z" fill="#5F0E8E"/>
<path fill-rule="evenodd" clip-rule="evenodd" d="M530.47 164.642L530.524 164.44L530.326 164.387L530.272 164.589L530.47 164.642Z" fill="#5F0E8E"/>
<path fill-rule="evenodd" clip-rule="evenodd" d="M530.389 164.945L530.443 164.743L530.245 164.689L530.191 164.892L530.389 164.945Z" fill="#5F0E8E"/>
<path fill-rule="evenodd" clip-rule="evenodd" d="M529.059 161.751L529.665 161.914L529.612 162.111L529.006 161.949L529.059 161.751Z" fill="#5F0E8E"/>
<path fill-rule="evenodd" clip-rule="evenodd" d="M528.756 161.67L528.958 161.724L528.905 161.922L528.703 161.868L528.756 161.67Z" fill="#5F0E8E"/>
<path fill-rule="evenodd" clip-rule="evenodd" d="M528.453 161.59L528.656 161.644L528.603 161.842L528.4 161.788L528.453 161.59Z" fill="#5F0E8E"/>
<path fill-rule="evenodd" clip-rule="evenodd" d="M532.881 162.776L532.275 162.614L532.222 162.812L532.828 162.974L532.881 162.776Z" fill="#5F0E8E"/>
<path fill-rule="evenodd" clip-rule="evenodd" d="M533.184 162.857L532.982 162.803L532.929 163.001L533.131 163.055L533.184 162.857Z" fill="#5F0E8E"/>
<path fill-rule="evenodd" clip-rule="evenodd" d="M533.489 162.938L533.286 162.884L533.233 163.082L533.436 163.136L533.489 162.938Z" fill="#5F0E8E"/>
<path d="M471.991 93.582L473.94 91.6153L473.236 88.9375L475.202 90.8868L477.88 90.182L475.931 92.1487L476.636 94.8265L474.669 92.8773L471.991 93.582Z" fill="#5F0E8E"/>
<path fill-rule="evenodd" clip-rule="evenodd" d="M475.676 89.5084L475.468 90.2825L475.271 90.2295L475.478 89.4554L475.676 89.5084Z" fill="#5F0E8E"/>
<path fill-rule="evenodd" clip-rule="evenodd" d="M475.78 89.1217L475.711 89.3802L475.513 89.3271L475.582 89.0687L475.78 89.1217Z" fill="#5F0E8E"/>
<path fill-rule="evenodd" clip-rule="evenodd" d="M475.884 88.735L475.815 88.9935L475.617 88.9404L475.686 88.682L475.884 88.735Z" fill="#5F0E8E"/>
<path fill-rule="evenodd" clip-rule="evenodd" d="M474.369 94.3847L474.577 93.6106L474.379 93.5576L474.171 94.3317L474.369 94.3847Z" fill="#5F0E8E"/>
<path fill-rule="evenodd" clip-rule="evenodd" d="M474.264 94.7725L474.334 94.514L474.136 94.4609L474.066 94.7194L474.264 94.7725Z" fill="#5F0E8E"/>
<path fill-rule="evenodd" clip-rule="evenodd" d="M474.162 95.1611L474.231 94.9027L474.033 94.8496L473.964 95.1081L474.162 95.1611Z" fill="#5F0E8E"/>
<path fill-rule="evenodd" clip-rule="evenodd" d="M472.484 91.1203L473.258 91.3277L473.205 91.5254L472.431 91.318L472.484 91.1203Z" fill="#5F0E8E"/>
<path fill-rule="evenodd" clip-rule="evenodd" d="M472.096 91.0169L472.355 91.0862L472.302 91.2842L472.043 91.2149L472.096 91.0169Z" fill="#5F0E8E"/>
<path fill-rule="evenodd" clip-rule="evenodd" d="M471.71 90.9124L471.968 90.9817L471.915 91.1797L471.657 91.1104L471.71 90.9124Z" fill="#5F0E8E"/>
<path fill-rule="evenodd" clip-rule="evenodd" d="M477.359 92.4277L476.585 92.2203L476.532 92.418L477.306 92.6254L477.359 92.4277Z" fill="#5F0E8E"/>
<path fill-rule="evenodd" clip-rule="evenodd" d="M477.748 92.5314L477.49 92.4621L477.437 92.6602L477.695 92.7294L477.748 92.5314Z" fill="#5F0E8E"/>
<path fill-rule="evenodd" clip-rule="evenodd" d="M478.134 92.6349L477.875 92.5657L477.822 92.7637L478.081 92.8329L478.134 92.6349Z" fill="#5F0E8E"/>
<path d="M513.771 78.1299L515.779 76.1048L515.053 73.3475L517.078 75.3546L519.835 74.6289L517.828 76.654L518.554 79.4113L516.529 77.4042L513.771 78.1299Z" fill="#5F0E8E"/>
<path fill-rule="evenodd" clip-rule="evenodd" d="M517.564 73.9356L517.35 74.7327L517.152 74.6797L517.366 73.8826L517.564 73.9356Z" fill="#5F0E8E"/>
<path fill-rule="evenodd" clip-rule="evenodd" d="M517.671 73.5369L517.599 73.8031L517.401 73.75L517.473 73.4839L517.671 73.5369Z" fill="#5F0E8E"/>
<path fill-rule="evenodd" clip-rule="evenodd" d="M517.778 73.1375L517.707 73.4036L517.509 73.3506L517.58 73.0844L517.778 73.1375Z" fill="#5F0E8E"/>
<path fill-rule="evenodd" clip-rule="evenodd" d="M516.217 78.9575L516.43 78.1604L516.232 78.1074L516.019 78.9045L516.217 78.9575Z" fill="#5F0E8E"/>
<path fill-rule="evenodd" clip-rule="evenodd" d="M516.109 79.3553L516.18 79.0892L515.982 79.0361L515.911 79.3023L516.109 79.3553Z" fill="#5F0E8E"/>
<path fill-rule="evenodd" clip-rule="evenodd" d="M516.003 79.7547L516.074 79.4886L515.876 79.4355L515.805 79.7017L516.003 79.7547Z" fill="#5F0E8E"/>
<path fill-rule="evenodd" clip-rule="evenodd" d="M514.277 75.5975L515.074 75.8111L515.021 76.0088L514.224 75.7952L514.277 75.5975Z" fill="#5F0E8E"/>
<path fill-rule="evenodd" clip-rule="evenodd" d="M513.879 75.4904L514.145 75.5618L514.092 75.7598L513.826 75.6885L513.879 75.4904Z" fill="#5F0E8E"/>
<path fill-rule="evenodd" clip-rule="evenodd" d="M513.48 75.384L513.746 75.4553L513.693 75.6533L513.427 75.582L513.48 75.384Z" fill="#5F0E8E"/>
<path fill-rule="evenodd" clip-rule="evenodd" d="M519.301 76.9436L518.504 76.7301L518.451 76.9277L519.248 77.1413L519.301 76.9436Z" fill="#5F0E8E"/>
<path fill-rule="evenodd" clip-rule="evenodd" d="M519.7 77.051L519.434 76.9797L519.381 77.1777L519.647 77.249L519.7 77.051Z" fill="#5F0E8E"/>
<path fill-rule="evenodd" clip-rule="evenodd" d="M520.098 77.1575L519.832 77.0862L519.779 77.2842L520.045 77.3555L520.098 77.1575Z" fill="#5F0E8E"/>
<path opacity="0.3" fill-rule="evenodd" clip-rule="evenodd" d="M530.616 161.42L495.167 167.11L495.491 169.13L531.496 163.351L565.441 135.001L637.967 139.408L638.091 137.365L565.6 132.961L517.335 75.2805L474.123 92.0839L563.213 134.196L530.616 161.42ZM561.324 131.04L479.299 92.2669L516.708 77.7201L561.324 131.04Z" fill="#B83FC3"/>
<path d="M514.571 109.285C515.245 108.896 516.106 109.126 516.495 109.8C516.884 110.474 516.653 111.335 515.98 111.724C515.306 112.113 514.444 111.883 514.055 111.209C513.666 110.535 513.897 109.674 514.571 109.285Z" fill="#5F0E8E"/>
<path d="M531.272 93.1361C531.946 92.7472 532.807 92.978 533.196 93.6517C533.585 94.3255 533.355 95.187 532.681 95.576C532.007 95.9649 531.146 95.7341 530.757 95.0604C530.368 94.3866 530.598 93.5251 531.272 93.1361Z" fill="#5F0E8E"/>
<path fill-rule="evenodd" clip-rule="evenodd" d="M455.778 171.33C454.593 171.214 453.35 170.996 452.423 170.645C451.958 170.469 451.588 170.266 451.344 170.037C451.103 169.813 450.995 169.576 451.016 169.317C451.117 168.051 451.262 166.859 451.731 165.618C452.2 164.379 452.996 163.081 454.414 161.616C457.662 158.262 462.629 157.323 467.515 157.294C470.93 157.274 474.261 157.696 476.908 158.032L476.909 158.032L476.91 158.032C478.055 158.177 479.071 158.306 479.911 158.376C480.557 158.43 481.277 158.511 482.055 158.6L482.056 158.6L482.056 158.6C484.562 158.885 487.671 159.238 490.845 158.941C495.019 158.55 499.34 157.035 502.639 152.762C504.327 150.576 504.319 147.679 503.296 144.509C502.271 141.335 500.217 137.843 497.738 134.412C492.779 127.549 486.082 120.886 482.387 117.448C479.712 114.959 475.233 111.479 469.927 107.358C469.357 106.915 468.777 106.464 468.19 106.007C462.18 101.333 455.292 95.9238 448.796 90.226C449.049 89.9487 449.294 89.6655 449.533 89.3778C450.606 88.0852 451.553 86.698 452.463 85.3522L452.633 85.4344C452.832 85.5305 453.12 85.6698 453.477 85.8427C454.191 86.1884 455.18 86.6681 456.278 87.2042C458.477 88.2766 461.114 89.5738 462.878 90.475C464.635 91.3734 467.055 92.804 469.039 94.0126C470.03 94.6164 470.911 95.1639 471.544 95.5604C471.834 95.7423 472.072 95.8924 472.245 96.0016C472.16 96.733 472.155 97.5889 472.197 98.3873C472.253 99.4511 472.394 100.448 472.557 100.942L472.946 100.813C472.801 100.374 472.661 99.4225 472.605 98.3658C472.564 97.5803 472.57 96.7563 472.65 96.0636C472.657 96.0531 472.664 96.0418 472.672 96.0296C472.782 95.857 472.781 95.8569 472.781 95.8568L472.711 95.8122C472.703 95.8072 472.695 95.8017 472.685 95.7959C472.706 95.6585 472.73 95.5278 472.758 95.4055C472.826 95.1064 472.914 94.7635 473.007 94.3966C473.16 93.7958 473.329 93.1307 473.457 92.4885C473.664 91.4543 473.785 90.4003 473.56 89.6517L473.168 89.7696C473.361 90.4093 473.264 91.3698 473.056 92.4082C472.928 93.0459 472.766 93.683 472.616 94.2724C472.522 94.6426 472.432 94.9939 472.359 95.3146C472.341 95.3931 472.325 95.4745 472.31 95.5585C472.158 95.4628 471.973 95.3467 471.761 95.2135C471.127 94.8163 470.244 94.2679 469.252 93.6631C467.267 92.4543 464.837 91.0166 463.064 90.1106C461.297 89.2074 458.656 87.9087 456.458 86.8364C455.359 86.3 454.37 85.8201 453.656 85.4743C453.299 85.3014 453.01 85.162 452.811 85.0658L452.694 85.0095C452.76 84.9115 452.826 84.8139 452.892 84.7165C453.918 83.2012 454.91 81.7691 456.007 80.5938C456.779 80.618 458.009 80.6042 459.315 80.4877C460.671 80.3667 462.127 80.1335 463.237 79.7085C463.605 79.5677 464.028 79.4045 464.486 79.2272L473.658 82.0269L473.778 81.6354L465.104 78.9878C467.237 78.1596 469.869 77.127 471.228 76.5921L484.49 78.3826L482.425 78.9916L482.54 79.3842L485.95 78.3785C486.263 78.2861 486.618 78.2244 487.002 78.1666C487.101 78.1516 487.202 78.137 487.305 78.1221C487.596 78.0799 487.899 78.0359 488.2 77.9798C489.016 77.8275 489.862 77.5788 490.543 76.9884L490.274 76.6792C489.677 77.1972 488.92 77.4292 488.125 77.5774C487.833 77.6319 487.542 77.6741 487.253 77.716C487.168 77.7284 487.082 77.7407 486.997 77.7534L486.941 77.7618C486.555 77.8199 486.177 77.8849 485.834 77.9859L485.45 78.0992L471.177 76.1723L471.127 76.1918C469.351 76.8912 465.257 78.497 463.091 79.3263C462.034 79.7309 460.623 79.9601 459.278 80.0801C457.937 80.1997 456.676 80.2093 455.929 80.1816L455.836 80.1781L455.773 80.2455C454.624 81.4609 453.596 82.9457 452.553 84.4872C452.464 84.6186 452.375 84.7504 452.286 84.8826C451.326 86.3051 450.341 87.7637 449.218 89.1164C446.769 92.0661 443.68 94.4933 438.821 94.8643C437.512 94.9643 436.535 94.4218 435.837 93.6932C435.163 92.9906 434.756 92.1196 434.579 91.5069L445.498 72.2652C449.112 70.5807 454.62 68.0484 459.477 65.8894C461.918 64.804 464.194 63.8134 465.982 63.0726C466.876 62.7021 467.646 62.3946 468.253 62.1691C468.866 61.9415 469.298 61.8033 469.522 61.7633C471.98 61.3248 477.974 60.4167 480.609 60.4628C481.121 60.4717 482.204 60.6295 483.643 60.8862C485.075 61.1416 486.842 61.4918 488.712 61.8795C492.31 62.6259 496.283 63.5106 498.958 64.1241L498.957 64.1304C505.68 65.5883 506.745 66.0136 511.877 68.0632L511.958 68.0957C515.192 69.3872 521.523 73.2289 527.856 77.4828C534.185 81.7341 540.488 86.3776 543.666 89.26C543.938 89.5065 544.238 89.7832 544.566 90.0853C546.824 92.1632 550.391 95.4466 554.909 98.434C560.083 101.856 566.52 104.901 573.691 105.306C578.617 105.584 599.701 107.036 611.024 107.971L611.028 107.972L651.953 110.479L651.978 110.071L611.057 107.563L611.055 107.563C599.729 106.628 578.644 105.175 573.714 104.897C566.643 104.498 560.277 101.493 555.135 98.0926C550.647 95.1248 547.104 91.8645 544.845 89.7858C544.516 89.4829 544.214 89.205 543.941 88.9568C540.74 86.0535 534.416 81.3963 528.084 77.1431C521.756 72.8924 515.391 69.0257 512.11 67.7156L512.047 67.6903C506.962 65.6594 505.835 65.2094 499.354 63.7979L499.355 63.7953C496.681 63.18 492.537 62.2548 488.795 61.4787C486.924 61.0907 485.152 60.7396 483.715 60.4832C482.284 60.228 481.167 60.0632 480.616 60.0535C479.497 60.034 477.796 60.182 476.015 60.3929L476.018 60.3851C476.098 60.1965 476.097 60.1964 476.097 60.1964L476.092 60.1942L476.077 60.1878L476.016 60.1626C475.963 60.1406 475.885 60.1084 475.784 60.0673C475.581 59.985 475.287 59.8672 474.919 59.7246C474.184 59.4393 473.155 59.0547 471.977 58.6571C469.626 57.8634 466.667 57.0122 464.28 56.8038C461.883 56.5946 458.184 57.1892 454.846 57.9764C453.172 58.3709 451.582 58.8157 450.28 59.2366C449.109 59.6151 448.159 59.9783 447.593 60.2721C445.004 59.8459 442.193 59.3848 439.431 58.932L439.426 58.9311L439.421 58.9303C432.091 57.7284 425.116 56.5845 423.61 56.3051C420.661 55.7577 417.662 54.7353 414.874 53.785C414.012 53.4913 413.171 53.2045 412.357 52.9407C410.641 52.3842 409.047 51.9301 407.664 51.7408C406.284 51.5521 405.078 51.6214 404.163 52.15C403.228 52.6897 402.848 53.5907 402.855 54.6352C402.862 55.6699 403.247 56.8601 403.848 58.0385C404.25 58.8243 404.752 59.6139 405.315 60.359C405.299 60.4455 405.298 60.5432 405.306 60.642C405.323 60.8576 405.385 61.1296 405.472 61.4198C405.647 62.0024 405.939 62.6987 406.253 63.2425C407.897 66.0904 411.216 67.8416 414.855 69.2562C416.251 69.7989 417.704 70.2954 419.136 70.7852C419.575 70.9352 420.013 71.0846 420.446 71.2345C422.166 71.8301 423.824 72.434 425.298 73.1206C420.627 75.8631 412.808 81.328 409.171 83.9452L409.058 84.0271L409.093 84.1628C409.103 84.2023 409.114 84.243 409.124 84.2849C409.527 85.8458 410.357 89.0596 414.129 90.152C415.736 90.6175 417.679 90.3876 419.694 89.789C421.713 89.1891 423.829 88.2111 425.796 87.1508C427.763 86.09 429.586 84.9436 431.02 84.0036C431.661 83.583 432.221 83.2064 432.68 82.8972L432.682 82.8962L432.683 82.8956L432.685 82.8944C433.257 82.5094 433.673 82.2292 433.899 82.0989C434.451 81.7798 435.581 81.2159 436.862 80.5968L439.323 82.3187L434.14 91.4514L434.161 91.5321C434.339 92.2012 434.782 93.1839 435.541 93.9763C436.305 94.7738 437.397 95.3836 438.853 95.2724C443.205 94.9401 446.178 92.9994 448.518 90.5261C455.026 96.2355 461.926 101.654 467.938 106.33C468.525 106.786 469.103 107.235 469.671 107.677C474.984 111.804 479.447 115.272 482.108 117.747C485.797 121.179 492.47 127.821 497.407 134.652C499.876 138.069 501.901 141.521 502.906 144.634C503.912 147.75 503.882 150.482 502.315 152.512C499.105 156.669 494.904 158.15 490.807 158.534C487.68 158.826 484.634 158.48 482.133 158.196C481.345 158.107 480.611 158.023 479.945 157.968C479.132 157.9 478.132 157.774 477 157.63C474.344 157.294 470.955 156.865 467.513 156.885C462.598 156.914 457.487 157.855 454.12 161.332C452.669 162.83 451.84 164.175 451.349 165.473C450.858 166.77 450.71 168.01 450.608 169.285C450.575 169.701 450.76 170.052 451.064 170.336C451.364 170.617 451.79 170.843 452.278 171.028C453.255 171.398 454.539 171.62 455.738 171.737C458.017 171.96 462.02 172.553 466.153 173.389C470.29 174.225 474.541 175.3 477.324 176.481C477.576 176.588 477.958 176.686 478.442 176.776C478.93 176.867 479.535 176.954 480.239 177.035C481.65 177.198 483.47 177.343 485.579 177.467C489.798 177.715 495.18 177.881 500.764 177.945C511.925 178.071 523.918 177.79 529.028 176.931C537.728 175.469 541.944 174.005 545.028 172.585C545.957 172.158 546.778 171.738 547.583 171.325C549.46 170.365 551.256 169.446 554.151 168.57C561.004 166.498 570.468 166.035 579.803 166.277C589.132 166.518 598.309 167.464 604.579 168.198L604.584 168.198L639.838 171.46L639.876 171.052L604.626 167.791L604.624 167.791C598.35 167.056 589.16 166.11 579.813 165.868C570.471 165.626 560.951 166.086 554.032 168.178C551.101 169.065 549.258 170.008 547.368 170.975C546.568 171.384 545.76 171.798 544.857 172.213C541.814 173.614 537.636 175.07 528.96 176.527C523.893 177.379 511.937 177.662 500.769 177.535C495.189 177.472 489.813 177.306 485.603 177.058C483.498 176.935 481.686 176.79 480.287 176.628C479.587 176.548 478.992 176.462 478.517 176.374C478.038 176.284 477.693 176.193 477.484 176.105C474.66 174.906 470.375 173.825 466.234 172.988C462.091 172.15 458.074 171.554 455.778 171.33ZM405.864 61.3021C405.823 61.1682 405.791 61.0431 405.766 60.9299C406.795 62.1795 407.975 63.2569 409.093 63.9091C411.267 65.1773 415.497 66.6575 419.875 67.835C423.927 68.9247 428.138 69.7634 431.004 69.9328C429.327 70.8873 427.824 71.728 426.677 72.3425C426.382 72.5006 426.064 72.6776 425.728 72.871C424.169 72.1235 422.4 71.478 420.579 70.8477C420.143 70.6968 419.704 70.5467 419.264 70.3963L419.263 70.3959L419.263 70.3958C417.832 69.9066 416.39 69.4139 415.003 68.8747C411.367 67.4612 408.174 65.7516 406.607 63.0378C406.311 62.5236 406.03 61.8569 405.864 61.3021ZM439.526 81.9611L437.285 80.3931C438.782 79.674 440.417 78.9098 441.555 78.3844L439.526 81.9611ZM431.673 69.5512C436.04 67.0558 441.367 63.9221 444.644 61.9941L444.653 61.9893C445.676 61.3876 446.498 60.9038 447.029 60.594C444.612 60.1963 442.018 59.7709 439.463 59.352L439.371 59.3368L439.341 59.332L439.324 59.3292C432.006 58.1291 425.043 56.9873 423.536 56.7075C420.554 56.1541 417.514 55.1179 414.722 54.1658L414.72 54.1652L414.716 54.1638L414.708 54.1609C413.856 53.8707 413.028 53.5884 412.231 53.33C410.518 52.7746 408.953 52.3303 407.608 52.1463C406.258 51.9617 405.164 52.0443 404.367 52.5044C403.59 52.9533 403.258 53.6971 403.264 54.6323C403.271 55.5774 403.626 56.702 404.213 57.8524C405.388 60.1543 407.453 62.4784 409.299 63.5556C411.423 64.7943 415.607 66.2633 419.981 67.4397C424.35 68.6145 428.871 69.4877 431.673 69.5512ZM447.664 60.6986L447.654 60.7043L447.641 60.7112L447.628 60.7186C447.186 60.9739 446.218 61.5432 444.918 62.308L444.865 62.3395C440.132 65.1235 431.09 70.4423 426.87 72.7033C422.605 74.9886 413.61 81.2589 409.524 84.1957C409.929 85.7623 410.718 88.7379 414.242 89.7589C415.739 90.1922 417.592 89.9867 419.577 89.3966C421.559 88.8079 423.648 87.8441 425.601 86.7906C427.554 85.7375 429.367 84.5981 430.795 83.6613C431.413 83.2566 431.962 82.8871 432.42 82.5788L432.423 82.5768L432.427 82.5745L432.427 82.5742C433.019 82.1761 433.458 81.8807 433.694 81.7444C435.027 80.9748 439.613 78.8267 441.731 77.8526L441.788 77.9751L445.207 71.9494L445.266 71.9218C448.88 70.2369 454.424 67.6875 459.31 65.5154C461.753 64.4295 464.033 63.4373 465.825 62.6944C466.721 62.3231 467.497 62.0135 468.111 61.7854C468.719 61.5596 469.184 61.4078 469.45 61.3603C470.803 61.119 473.247 60.7317 475.616 60.441C475.416 60.3597 475.129 60.2448 474.771 60.1061C474.04 59.8225 473.017 59.4401 471.846 59.0449C469.5 58.2529 466.58 57.4155 464.244 57.2116C461.918 57.0085 458.275 57.5882 454.94 58.3747C453.276 58.767 451.696 59.2089 450.406 59.6261C449.153 60.0312 448.187 60.4084 447.679 60.69L447.677 60.7009L447.664 60.6986Z" fill="#23024D"/>
<path d="M559.558 155.163C559.753 155.226 559.753 155.225 559.753 155.225L559.754 155.223L559.756 155.217L559.764 155.192C559.771 155.17 559.781 155.138 559.794 155.095C559.82 155.009 559.858 154.882 559.906 154.717C560.001 154.385 560.136 153.898 560.295 153.275C560.612 152.027 561.024 150.232 561.401 148.04C562.156 143.655 562.776 137.676 562.233 131.303C561.691 124.94 560.656 119.575 559.756 115.801C559.306 113.913 558.89 112.423 558.586 111.404C558.434 110.895 558.31 110.503 558.224 110.239C558.181 110.106 558.148 110.006 558.125 109.938L558.115 109.908L558.099 109.861L558.09 109.837L558.09 109.835C558.09 109.835 558.09 109.835 557.897 109.902C557.703 109.97 557.703 109.97 557.704 109.97L557.705 109.976L557.712 109.994C557.718 110.011 557.726 110.036 557.737 110.069C557.749 110.103 557.763 110.145 557.78 110.196C557.796 110.244 557.814 110.301 557.835 110.365C557.92 110.627 558.043 111.015 558.194 111.521C558.496 112.534 558.91 114.016 559.358 115.896C560.254 119.654 561.285 124.998 561.825 131.337C562.365 137.666 561.749 143.608 560.998 147.97C560.623 150.151 560.213 151.935 559.898 153.174C559.741 153.793 559.607 154.276 559.512 154.603C559.465 154.767 559.428 154.892 559.402 154.976C559.393 155.007 559.385 155.032 559.379 155.052L559.373 155.07L559.366 155.094L559.363 155.101C559.363 155.101 559.363 155.101 559.558 155.163Z" fill="#23024D"/>
<path d="M519.071 135.113C515.389 135.227 511.211 133.59 508.492 132.054L508.694 131.698C511.384 133.217 515.485 134.815 519.058 134.704C520.84 134.648 522.475 134.169 523.744 133.06C525.011 131.953 525.938 130.196 526.262 127.536C526.913 122.2 525.179 116.583 522.728 111.715C520.279 106.85 517.127 102.757 514.975 100.48L515.273 100.199C517.449 102.502 520.626 106.627 523.094 111.531C525.561 116.432 527.333 122.135 526.669 127.585C526.335 130.318 525.375 132.178 524.013 133.368C522.653 134.557 520.916 135.056 519.071 135.113Z" fill="#23024D"/>
<path d="M473.14 84.3986C473.274 84.0469 473.673 83.0482 474.21 81.8466C474.497 81.2051 474.897 80.8604 475.298 80.7042C475.693 80.5505 476.071 80.5865 476.31 80.675L476.168 81.0588C476.016 81.0024 475.741 80.971 475.447 81.0856C475.159 81.1977 474.833 81.457 474.584 82.0137C474.049 83.2085 473.653 84.1998 473.523 84.5436L473.14 84.3986Z" fill="#23024D"/>
</g>
<defs>
<clipPath id="clip0_8564_41437">
<rect width="624" height="282" fill="white"/>
</clipPath>
</defs>
</svg>
