<svg width="24" height="24" viewBox="0 0 24 24" fill="none" xmlns="http://www.w3.org/2000/svg">
    <path d="M20.7796 14.3488C20.361 14.6047 19.8726 14.6512 19.5005 14.4419C19.0354 14.1628 18.7563 13.5349 18.7563 12.6744V10.0465C18.7563 8.7907 18.2679 7.88372 17.4307 7.65116C16.0121 7.23256 14.9424 8.97674 14.547 9.6279L12.0354 13.6512V8.69767C12.0121 7.55814 11.64 6.88372 10.9424 6.67442C10.4772 6.53489 9.77957 6.60465 9.10515 7.62791L3.5005 16.6046C2.75632 15.186 2.36097 13.6047 2.36097 12C2.36097 6.5814 6.70981 2.18604 12.0354 2.18604C17.361 2.18604 21.7098 6.5814 21.7098 12V12.0233V12.0465C21.7563 13.093 21.4307 13.9302 20.7796 14.3488ZM23.8493 12V11.9767V11.9535C23.8261 5.37209 18.5238 0 12.0354 0C5.52376 0 0.221436 5.37209 0.221436 12C0.221436 18.6047 5.52376 24 12.0354 24C15.0354 24 17.8726 22.8605 20.0586 20.7907C20.5005 20.3721 20.5238 19.6977 20.1052 19.2558C19.7098 18.814 19.0354 18.7907 18.5935 19.186C18.5935 19.186 18.5935 19.186 18.5703 19.2093C16.8028 20.8837 14.4307 21.8372 11.9889 21.8372C9.12841 21.8372 6.57027 20.5814 4.80283 18.5814L9.84934 10.4884V14.2326C9.84934 16.0233 10.547 16.6047 11.1284 16.7674C11.7098 16.9302 12.5935 16.814 13.547 15.3023L16.3145 10.814C16.4075 10.6744 16.4772 10.5349 16.5703 10.4419V12.7209C16.5703 14.3954 17.2447 15.7442 18.4075 16.3953C19.454 17 20.7796 16.9302 21.8726 16.2558C23.2214 15.3721 23.9424 13.8372 23.8493 12Z" fill="#25044F"/>
</svg>
