<svg width="25" height="24" viewBox="0 0 25 24" fill="none" xmlns="http://www.w3.org/2000/svg">
    <mask id="mask0_9877_20996" style="mask-type:luminance" maskUnits="userSpaceOnUse" x="0" y="0" width="25" height="24">
        <path d="M24.2214 0H0.221436V24H24.2214V0Z" fill="white"/>
    </mask>
    <g mask="url(#mask0_9877_20996)">
        <path d="M12.2525 0.000119572C5.67225 0.0302248 0.362415 5.4266 0.391476 12.054C0.421367 18.6813 5.78018 24.0292 12.3596 23.9999C18.9398 23.9698 24.2496 18.5734 24.2206 11.9469C24.1907 5.31873 18.8327 -0.0291495 12.2525 0.000119572ZM10.7438 11.4117C9.56723 11.4117 8.6132 10.4517 8.6132 9.2667C8.6132 8.08173 9.56723 7.1217 10.7438 7.1217C11.9203 7.1217 12.8736 8.08255 12.8736 9.2667C12.8736 10.4508 11.9195 11.4117 10.7438 11.4117ZM12.4426 13.7306L12.4534 13.7172L12.465 13.7039C13.0728 14.0986 13.767 14.2382 14.4603 14.2583C15.1544 14.2767 15.8618 14.224 16.5576 14.0827C17.2526 13.9372 17.9359 13.7223 18.596 13.448C18.9664 13.2941 19.335 13.126 19.6862 12.9287C19.6887 12.927 19.6904 12.9261 19.6929 12.9245C19.9113 12.7923 20.1246 12.6527 20.3339 12.5089C20.3795 12.4762 20.4236 12.4419 20.4667 12.4068L20.4717 12.4127L20.49 12.4344C19.9544 12.9253 19.3168 13.2899 18.6675 13.6119C18.0115 13.923 17.3273 14.178 16.6207 14.362C15.9166 14.5452 15.1818 14.684 14.4378 14.6154C13.7055 14.5502 12.9342 14.2918 12.441 13.7315L12.4426 13.7306ZM17.9094 11.4117C17.9085 11.1541 18.1145 10.9467 18.3685 10.9442C18.6243 10.9434 18.8302 11.15 18.8327 11.4067C18.8335 11.6634 18.6276 11.8733 18.3735 11.8742C18.1186 11.875 17.9119 11.6676 17.9094 11.4117ZM14.2602 22.9211C13.8002 19.6739 16.6158 16.4936 18.2033 14.8663C18.5637 14.4975 19.1208 13.989 19.6389 13.4488C21.6998 11.5079 22.1099 9.18892 17.8919 8.02987C17.0924 7.79655 16.2637 7.46622 15.4243 7.13255C15.3977 7.0548 15.3678 6.9812 15.3329 6.9118C15.2366 6.74455 15.0681 6.5522 14.8131 6.33392C14.2651 5.85475 13.2347 5.8673 12.3455 6.07972C11.3624 5.8464 10.3926 5.7636 9.46013 5.98855C5.3808 7.12085 4.72488 9.12453 4.56628 11.5388C4.3504 14.1479 4.2242 16.0922 3.2436 18.3133C2.01972 16.5354 1.29818 14.3787 1.28822 12.0514C1.26082 5.92333 6.17125 0.933383 12.2558 0.905788C18.3403 0.87819 23.2948 5.82383 23.3222 11.9519C23.3471 17.4252 19.4313 21.992 14.2593 22.9228L14.2602 22.9211Z" fill="#25044F"/>
        <path d="M12.2415 9.28594C12.2415 10.1197 11.5706 10.7945 10.7436 10.7945C9.9166 10.7945 9.24487 10.1197 9.24487 9.28594C9.24487 8.45219 9.91577 7.77734 10.7436 7.77734C11.5714 7.77734 12.2415 8.45219 12.2415 9.28594Z" fill="#8620B9"/>
    </g>
</svg>
