<svg width="22" height="24" viewBox="0 0 22 24" fill="none" xmlns="http://www.w3.org/2000/svg">
    <path d="M9.99994 0C16.6274 0 21.9999 5.37258 21.9999 12C21.9999 16.5468 19.471 20.5022 15.7431 22.5381L15.3828 11.8125V11.6982C15.4093 11.685 15.4362 11.6694 15.4609 11.6523C15.8817 11.3991 16.1717 10.8257 16.1718 10.1611C16.1718 10.0831 16.1676 10.0028 16.1581 9.9248C16.0858 9.23724 15.7013 8.69193 15.2099 8.55664C15.1375 8.07672 14.968 7.61742 14.7109 7.20605C14.9565 7.17932 15.1751 7.0385 15.3027 6.82715C15.7941 6.09953 16.4572 5.34887 16.9677 4.16602L16.9892 4.11523C17.0577 3.96677 17.0382 3.78966 16.9355 3.66016C16.9089 3.62213 16.8748 3.58719 16.8349 3.56055C16.6559 3.43864 16.4151 3.46388 16.2646 3.61816C15.5047 4.3455 14.6282 4.49383 14.1445 5.16992C14.1045 5.08246 14.053 4.99891 13.9941 4.92285C13.8532 4.74587 13.6651 4.61445 13.4501 4.54395C13.2025 4.46014 12.9314 4.47341 12.6933 4.58008C12.5162 3.98404 11.8899 3.6425 11.2939 3.81934C10.9282 3.92791 10.6417 4.21436 10.5331 4.58008C10.0722 4.38592 9.53703 4.52482 9.23041 4.92285C9.1677 4.99702 9.11806 5.08058 9.08002 5.16992C8.55426 4.45205 7.60374 4.22699 6.81146 3.47852C6.69527 3.34735 6.49555 3.33613 6.3642 3.45215C6.3642 3.45215 6.3641 3.45225 6.36224 3.4541C6.3451 3.46743 6.33163 3.48481 6.3183 3.50195C6.17936 3.6886 6.15283 3.9361 6.24994 4.14746C6.76035 5.35294 7.42857 6.09584 7.92377 6.82715C8.05139 7.03858 8.27078 7.17748 8.51459 7.20605C8.2594 7.6174 8.09177 8.07674 8.01556 8.55664C7.4708 8.70521 7.05365 9.36685 7.05365 10.1611C7.05378 10.8676 7.38285 11.4716 7.84174 11.6982L7.42865 24H4.11029C2.31385 24 0.857361 22.5435 0.857361 20.7471V3.25293C0.857361 1.45649 2.31385 0 4.11029 0H9.99994ZM6.10443 16.2891C5.93115 16.051 5.59837 15.9977 5.36029 16.1689L4.01166 17.1406C3.86126 17.2491 3.81695 17.4543 3.9101 17.6162C4.00343 17.7781 4.20542 17.8428 4.37494 17.7666L5.88959 17.085L5.93842 17.0605H5.94037C6.19365 16.9139 6.2793 16.5883 6.13275 16.335C6.12515 16.3198 6.11583 16.3043 6.10443 16.2891ZM17.4589 16.1348C17.2056 15.99 16.882 16.0797 16.7372 16.333L16.7099 16.3857C16.59 16.6542 16.7121 16.9667 16.9785 17.085L18.4931 17.7666C18.643 17.8332 18.8147 17.7924 18.9179 17.6729L18.9599 17.6143C19.053 17.4525 19.0094 17.2473 18.8593 17.1387L17.5107 16.167L17.4648 16.1387C17.4631 16.137 17.4596 16.1351 17.4589 16.1348ZM9.33685 8.41016C9.37682 8.46344 9.42317 8.51086 9.47455 8.55273C9.85159 8.84789 10.3789 8.85585 10.7636 8.57227C10.7637 8.98547 11.181 9.31824 11.6913 9.31836C11.7371 9.32217 11.7853 9.32217 11.8329 9.31836C12.2802 9.26299 12.6208 8.95505 12.621 8.58008C13.0115 8.87144 13.5506 8.86128 13.9296 8.55273L13.9814 8.50781C14.0498 8.7115 14.0244 8.93447 13.914 9.11719C13.7123 9.45423 13.6074 9.83922 13.6093 10.2314C13.6094 10.6066 13.7028 10.9743 13.8818 11.3037L13.9208 11.3936C14.0053 11.6137 13.9763 11.8628 13.8378 12.0596C13.3198 12.8157 12.5945 13.3915 11.6708 13.3916H11.4745C10.6765 13.323 9.8383 12.8004 9.3183 12.1719C9.12605 11.9376 9.0996 11.6104 9.25189 11.3477C9.45568 11.0086 9.56242 10.6198 9.56244 10.2256C9.56244 9.85435 9.47095 9.48862 9.29779 9.16113C9.1664 8.9231 9.18268 8.63109 9.33685 8.41016ZM4.27631 12.0244C4.16012 11.6835 3.79011 11.502 3.44916 11.6182L2.87006 11.8164C2.74065 11.8603 2.63747 11.9633 2.59369 12.0928C2.51583 12.325 2.63987 12.5761 2.87006 12.6543L3.44916 12.8525C3.64725 12.9211 3.8666 12.8866 4.03802 12.7646C4.27204 12.5971 4.36937 12.2966 4.27631 12.0244ZM19.5995 11.6201C19.4625 11.5745 19.3157 11.5744 19.1806 11.6201C18.8474 11.7364 18.6688 12.1004 18.7792 12.4355C18.8917 12.7763 19.2568 12.9647 19.5995 12.8525L20.1806 12.6543C20.3374 12.6009 20.4493 12.4645 20.4745 12.3047L20.4794 12.2373C20.4794 12.0469 20.3596 11.8793 20.1806 11.8184L19.5995 11.6201ZM11.7089 10.2285L11.6376 10.2383H11.5888L10.6796 10.1143C10.6226 10.1087 10.5652 10.1291 10.5253 10.1709C10.4549 10.2433 10.4549 10.3582 10.5253 10.4287L11.1318 10.9844C11.1832 11.032 11.2211 11.0956 11.2382 11.166L11.4306 11.9395C11.4498 12.0229 11.5258 12.08 11.6113 12.0781C11.6949 12.08 11.7708 12.023 11.7919 11.9395C11.8547 11.6406 11.9335 11.3261 11.9736 11.166C11.9907 11.0974 12.0286 11.0339 12.08 10.9844L12.6855 10.4268C12.7445 10.3734 12.7618 10.2872 12.7275 10.2148C12.695 10.1465 12.6228 10.1067 12.5468 10.1143L11.7089 10.2285ZM18.9658 7.07324C18.8819 6.89242 18.6661 6.8107 18.4833 6.89258L16.9697 7.57227C16.9506 7.57798 16.9331 7.58818 16.916 7.59961C16.6647 7.75014 16.5849 8.07574 16.7353 8.3252L16.7597 8.36523C16.9312 8.60515 17.2668 8.66164 17.5068 8.49023L18.8476 7.51758C18.9885 7.41663 19.0362 7.23134 18.9658 7.07324ZM4.37689 6.88867C4.2208 6.81832 4.03449 6.86798 3.93353 7.00684C3.81544 7.17065 3.85171 7.39753 4.01361 7.51562L5.36127 8.48926C5.48317 8.57688 5.63843 8.60855 5.7851 8.57617C5.89347 8.55182 5.99262 8.49484 6.06732 8.41309L6.13666 8.31934C6.14428 8.30219 6.16205 8.28667 6.16205 8.26953C6.27992 8.00104 6.15998 7.68833 5.89154 7.56836L4.37689 6.88867Z" fill="#25044F"/>
</svg>
