<svg width="100%" height="100%" viewBox="0 0 476 413" fill="none" xmlns="http://www.w3.org/2000/svg">
    <g clip-path="url(#clip0_10694_28106)">
        <path opacity="0.1" d="M151.827 189.881C151.827 190.671 152.467 191.311 153.257 191.311C154.046 191.311 154.686 190.671 154.686 189.881C154.686 189.091 154.046 188.45 153.257 188.45C152.467 188.45 151.827 189.091 151.827 189.881Z" fill="#3B2B5F"/>
        <path opacity="0.1" d="M350.852 171.29C350.852 172.08 351.492 172.721 352.281 172.721C353.07 172.721 353.71 172.08 353.71 171.29C353.71 170.5 353.07 169.859 352.281 169.859C351.492 169.859 350.852 170.5 350.852 171.29Z" fill="#3B2B5F"/>
        <path d="M323.553 254.863C323.553 255.851 324.353 256.652 325.34 256.652C326.326 256.652 327.126 255.851 327.126 254.863C327.126 253.876 326.326 253.075 325.34 253.075C324.353 253.075 323.553 253.876 323.553 254.863Z" fill="#3B2B5F"/>
        <path d="M30.5475 360.886C30.5475 361.874 31.3475 362.674 32.3343 362.674C33.3211 362.674 34.1211 361.874 34.1211 360.886C34.1211 359.898 33.3211 359.098 32.3343 359.098C31.3475 359.098 30.5475 359.898 30.5475 360.886Z" fill="#3B2B5F"/>
        <path d="M193.995 218.136C193.995 219.124 194.795 219.924 195.782 219.924C196.768 219.924 197.568 219.124 197.568 218.136C197.568 217.148 196.768 216.348 195.782 216.348C194.795 216.348 193.995 217.148 193.995 218.136Z" fill="#3B2B5F"/>
        <path fill-rule="evenodd" clip-rule="evenodd" d="M297.985 303.287C298.758 303.287 299.384 303.914 299.384 304.687C299.384 305.46 298.758 306.087 297.985 306.087C297.213 306.087 296.587 305.46 296.587 304.687C296.587 303.914 297.213 303.287 297.985 303.287ZM300.16 304.687C300.16 303.485 299.187 302.511 297.985 302.511C296.784 302.511 295.811 303.485 295.811 304.687C295.811 305.889 296.784 306.864 297.985 306.864C299.187 306.864 300.16 305.889 300.16 304.687Z" fill="#3B2B5F"/>
        <path d="M379.82 26.0771C379.82 26.8672 380.46 27.5077 381.249 27.5077C382.039 27.5077 382.679 26.8672 382.679 26.0771C382.679 25.287 382.039 24.6465 381.249 24.6465C380.46 24.6465 379.82 25.287 379.82 26.0771Z" fill="#3B2B5F"/>
        <path fill-rule="evenodd" clip-rule="evenodd" d="M297.629 269.933C296.873 269.933 296.26 269.32 296.26 268.564C296.26 267.808 296.873 267.194 297.629 267.194C298.385 267.194 298.997 267.808 298.997 268.564C298.997 269.32 298.385 269.933 297.629 269.933ZM297.629 270.71C296.445 270.71 295.485 269.749 295.485 268.564C295.485 267.379 296.445 266.418 297.629 266.418C298.813 266.418 299.773 267.379 299.773 268.564C299.773 269.749 298.813 270.71 297.629 270.71Z" fill="#3B2B5F"/>
        <path fill-rule="evenodd" clip-rule="evenodd" d="M218.133 97.2869C217.377 97.2869 216.764 96.6737 216.764 95.9174C216.764 95.161 217.377 94.5479 218.133 94.5479C218.888 94.5479 219.501 95.161 219.501 95.9174C219.501 96.6737 218.888 97.2869 218.133 97.2869ZM218.133 98.0633C216.949 98.0633 215.989 97.1025 215.989 95.9174C215.989 94.7322 216.949 93.7715 218.133 93.7715C219.317 93.7715 220.277 94.7322 220.277 95.9174C220.277 97.1025 219.317 98.0633 218.133 98.0633Z" fill="#3B2B5F"/>
        <path fill-rule="evenodd" clip-rule="evenodd" d="M335.275 121.355C334.519 121.355 333.906 120.742 333.906 119.986C333.906 119.229 334.519 118.616 335.275 118.616C336.031 118.616 336.643 119.229 336.643 119.986C336.643 120.742 336.031 121.355 335.275 121.355ZM335.275 122.132C334.091 122.132 333.131 121.171 333.131 119.986C333.131 118.801 334.091 117.84 335.275 117.84C336.459 117.84 337.419 118.801 337.419 119.986C337.419 121.171 336.459 122.132 335.275 122.132Z" fill="#3B2B5F"/>
        <path fill-rule="evenodd" clip-rule="evenodd" d="M125.815 185.799C125.06 185.799 124.447 185.185 124.447 184.429C124.447 183.673 125.06 183.06 125.815 183.06C126.571 183.06 127.184 183.673 127.184 184.429C127.184 185.185 126.571 185.799 125.815 185.799ZM125.815 186.575C124.631 186.575 123.671 185.614 123.671 184.429C123.671 183.244 124.631 182.283 125.815 182.283C127 182.283 127.959 183.244 127.959 184.429C127.959 185.614 127 186.575 125.815 186.575Z" fill="#3B2B5F"/>
        <path d="M229.016 131.943C229.016 133.128 229.976 134.089 231.16 134.089C232.344 134.089 233.304 133.128 233.304 131.943C233.304 130.758 232.344 129.797 231.16 129.797C229.976 129.797 229.016 130.758 229.016 131.943Z" fill="#3B2B5F"/>
        <path fill-rule="evenodd" clip-rule="evenodd" d="M231.16 133.312C230.404 133.312 229.792 132.699 229.792 131.943C229.792 131.186 230.404 130.573 231.16 130.573C231.916 130.573 232.528 131.186 232.528 131.943C232.528 132.699 231.916 133.312 231.16 133.312ZM231.16 134.089C229.976 134.089 229.016 133.128 229.016 131.943C229.016 130.758 229.976 129.797 231.16 129.797C232.344 129.797 233.304 130.758 233.304 131.943C233.304 133.128 232.344 134.089 231.16 134.089Z" fill="#3B2B5F"/>
        <path d="M263.072 81.2244L254.778 112.201L254.029 112L262.322 81.0234L263.072 81.2244Z" fill="#3B2B5F"/>
        <path d="M296.332 84.2163L293.546 89.0463L292.874 88.6581L295.66 83.8281L296.332 84.2163Z" fill="#3B2B5F"/>
        <path d="M157.195 240.134L152.368 242.923L151.981 242.25L156.807 239.462L157.195 240.134Z" fill="#3B2B5F"/>
        <path d="M148.345 245.247L135.878 252.451L135.49 251.778L147.957 244.574L148.345 245.247Z" fill="#3B2B5F"/>
        <path d="M118.986 262.21L131.454 255.006L131.066 254.334L118.598 261.538L118.986 262.21Z" fill="#3B2B5F"/>
        <path d="M284.028 105.549L291.226 93.0714L290.554 92.6832L283.356 105.161L284.028 105.549Z" fill="#3B2B5F"/>
        <path d="M281.471 109.977L274.273 122.454L273.601 122.066L280.799 109.588L281.471 109.977Z" fill="#3B2B5F"/>
        <path d="M318.034 172.282L314.446 173.244L314.245 172.494L317.833 171.532L318.034 172.282Z" fill="#3B2B5F"/>
        <path d="M321.173 171.44L330.593 168.913L330.392 168.164L320.972 170.69L321.173 171.44Z" fill="#3B2B5F"/>
        <path d="M343.154 165.545L333.734 168.072L333.533 167.322L342.953 164.796L343.154 165.545Z" fill="#3B2B5F"/>
        <path d="M175.052 294.734L176.91 291.514L176.238 291.126L174.381 294.346L175.052 294.734Z" fill="#3B2B5F"/>
        <path d="M183.412 280.244L178.536 288.696L177.864 288.308L182.74 279.856L183.412 280.244Z" fill="#3B2B5F"/>
        <path d="M185.038 277.426L189.914 268.974L189.242 268.585L184.366 277.038L185.038 277.426Z" fill="#3B2B5F"/>
        <path d="M324.988 143.004L337.455 135.8L337.067 135.128L324.6 142.332L324.988 143.004Z" fill="#3B2B5F"/>
        <path d="M320.565 145.561L308.097 152.765L307.709 152.092L320.177 144.888L320.565 145.561Z" fill="#3B2B5F"/>
        <path d="M160.849 266.925L171.029 256.737L170.48 256.188L160.301 266.376L160.849 266.925Z" fill="#3B2B5F"/>
        <path d="M157.236 270.54L147.057 280.728L146.508 280.179L156.688 269.991L157.236 270.54Z" fill="#3B2B5F"/>
        <path d="M300.102 127.558L294.848 132.816L294.3 132.267L299.554 127.009L300.102 127.558Z" fill="#3B2B5F"/>
        <path d="M304.701 122.957L318.821 108.826L318.273 108.277L304.153 122.408L304.701 122.957Z" fill="#3B2B5F"/>
        <path d="M334.708 92.6832L323.744 103.896L323.195 103.347L334.159 92.1342L334.708 92.6832Z" fill="#3B2B5F"/>
        <path d="M195.321 334.486L197.244 327.303L196.495 327.102L194.572 334.285L195.321 334.486Z" fill="#3B2B5F"/>
        <path d="M204.094 301.714L198.925 321.018L198.176 320.817L203.344 301.513L204.094 301.714Z" fill="#3B2B5F"/>
        <path d="M205.896 294.98L210.944 276.125L210.195 275.924L205.147 294.779L205.896 294.98Z" fill="#3B2B5F"/>
        <path d="M118.909 226.012L149.86 217.712L149.659 216.962L118.708 225.262L118.909 226.012Z" fill="#3B2B5F"/>
        <path d="M310.93 242.924L306.104 240.136L306.492 239.463L311.318 242.252L310.93 242.924Z" fill="#3B2B5F"/>
        <path d="M314.954 245.246L327.421 252.45L327.809 251.778L315.342 244.574L314.954 245.246Z" fill="#3B2B5F"/>
        <path d="M344.312 262.21L331.844 255.006L332.232 254.334L344.7 261.538L344.312 262.21Z" fill="#3B2B5F"/>
        <path d="M166.966 84.2163L169.752 89.0463L170.424 88.6581L167.638 83.8281L166.966 84.2163Z" fill="#3B2B5F"/>
        <path d="M179.273 105.549L172.075 93.0714L172.747 92.6832L179.945 105.161L179.273 105.549Z" fill="#3B2B5F"/>
        <path d="M181.826 109.977L189.024 122.454L189.696 122.066L182.498 109.588L181.826 109.977Z" fill="#3B2B5F"/>
        <path d="M145.264 172.282L148.853 173.244L149.053 172.494L145.465 171.532L145.264 172.282Z" fill="#3B2B5F"/>
        <path d="M142.126 171.44L132.706 168.913L132.907 168.164L142.327 170.69L142.126 171.44Z" fill="#3B2B5F"/>
        <path d="M120.144 165.545L129.564 168.072L129.765 167.322L120.345 164.796L120.144 165.545Z" fill="#3B2B5F"/>
        <path d="M288.246 294.734L286.389 291.514L287.061 291.126L288.918 294.346L288.246 294.734Z" fill="#3B2B5F"/>
        <path d="M279.887 280.244L284.763 288.696L285.435 288.308L280.559 279.856L279.887 280.244Z" fill="#3B2B5F"/>
        <path d="M278.261 277.426L273.385 268.974L274.057 268.585L278.933 277.038L278.261 277.426Z" fill="#3B2B5F"/>
        <path d="M138.313 143.005L125.845 135.801L126.233 135.129L138.701 142.333L138.313 143.005Z" fill="#3B2B5F"/>
        <path d="M142.735 145.561L155.202 152.765L155.59 152.092L143.123 144.888L142.735 145.561Z" fill="#3B2B5F"/>
        <path d="M302.451 266.925L292.271 256.737L292.82 256.188L303 266.376L302.451 266.925Z" fill="#3B2B5F"/>
        <path d="M306.065 270.539L316.245 280.727L316.793 280.178L306.613 269.99L306.065 270.539Z" fill="#3B2B5F"/>
        <path d="M163.199 127.558L168.453 132.816L169.002 132.267L163.748 127.009L163.199 127.558Z" fill="#3B2B5F"/>
        <path d="M158.6 122.957L144.48 108.826L145.028 108.277L159.148 122.408L158.6 122.957Z" fill="#3B2B5F"/>
        <path d="M130.574 95.0683L139.558 103.896L140.106 103.347L131.123 94.5193L130.574 95.0683Z" fill="#3B2B5F"/>
        <path d="M267.977 334.486L266.054 327.303L266.803 327.102L268.726 334.285L267.977 334.486Z" fill="#3B2B5F"/>
        <path d="M259.205 301.714L264.373 321.018L265.122 320.817L259.954 301.513L259.205 301.714Z" fill="#3B2B5F"/>
        <path d="M257.402 294.98L252.354 276.125L253.104 275.924L258.152 294.779L257.402 294.98Z" fill="#3B2B5F"/>
        <path d="M344.389 226.012L313.438 217.712L313.639 216.962L344.59 225.262L344.389 226.012Z" fill="#3B2B5F"/>
        <path d="M200.228 81.2244L208.521 112.201L209.271 112L200.977 81.0234L200.228 81.2244Z" fill="#3B2B5F"/>
        <path d="M428.204 192.735H435.311V191.959H428.204V192.735Z" fill="#3B2B5F"/>
        <path d="M395.512 192.735H421.097V191.959H395.512V192.735Z" fill="#3B2B5F"/>
        <path d="M86.3552 192.735H386.983V191.959H86.3552V192.735Z" fill="#3B2B5F"/>
        <path d="M44.4234 192.735H70.0088V191.959H44.4234V192.735Z" fill="#3B2B5F"/>
        <path d="M30.21 192.735H37.317V191.959H30.21V192.735Z" fill="#3B2B5F"/>
        <path d="M235.065 -38.7754L235.065 -29.1762H235.84L235.84 -38.7754H235.065Z" fill="#3B2B5F"/>
        <path d="M235.065 -19.5772L235.065 14.9798H235.84L235.84 -19.5772H235.065Z" fill="#3B2B5F"/>
        <path d="M235.065 37.0584L235.065 443.103H235.84L235.84 37.0584H235.065Z" fill="#3B2B5F"/>
        <path d="M235.065 454.622L235.065 489.179H235.84L235.84 454.622H235.065Z" fill="#3B2B5F"/>
        <path d="M235.065 498.778L235.065 508.377H235.84L235.84 498.778H235.065Z" fill="#3B2B5F"/>
        <path fill-rule="evenodd" clip-rule="evenodd" d="M237.037 105.864C236.51 105.854 235.981 105.85 235.451 105.85C234.922 105.85 234.393 105.854 233.866 105.864L233.88 106.64C234.402 106.631 234.926 106.626 235.451 106.626C235.977 106.626 236.5 106.631 237.023 106.64L237.037 105.864ZM231.5 105.936C230.444 105.983 229.391 106.047 228.344 106.131L228.406 106.905C229.444 106.822 230.487 106.758 231.534 106.712L231.5 105.936ZM242.559 106.131C241.512 106.047 240.459 105.983 239.402 105.936L239.368 106.712C240.416 106.758 241.459 106.822 242.497 106.905L242.559 106.131ZM225.988 106.349C224.937 106.461 223.892 106.591 222.852 106.739L222.961 107.507C223.992 107.361 225.028 107.232 226.07 107.121L225.988 106.349ZM248.051 106.739C247.011 106.591 245.966 106.461 244.914 106.349L244.833 107.121C245.875 107.232 246.911 107.361 247.942 107.507L248.051 106.739ZM220.509 107.104C219.469 107.281 218.435 107.476 217.407 107.689L217.564 108.449C218.583 108.238 219.608 108.045 220.639 107.87L220.509 107.104ZM253.496 107.689C252.468 107.476 251.434 107.281 250.394 107.104L250.264 107.87C251.295 108.045 252.32 108.238 253.339 108.449L253.496 107.689ZM258.874 108.979C257.861 108.702 256.84 108.443 255.812 108.201L255.635 108.957C256.653 109.196 257.665 109.454 258.67 109.728L258.874 108.979ZM215.091 108.201C214.063 108.443 213.042 108.702 212.029 108.979L212.233 109.728C213.238 109.454 214.249 109.196 215.268 108.957L215.091 108.201ZM264.159 110.605C263.164 110.265 262.161 109.941 261.15 109.635L260.925 110.378C261.927 110.681 262.921 111.002 263.907 111.34L264.159 110.605ZM209.753 109.635C208.742 109.941 207.739 110.265 206.744 110.605L206.995 111.34C207.982 111.002 208.976 110.681 209.978 110.378L209.753 109.635ZM269.329 112.56C268.358 112.157 267.377 111.772 266.389 111.403L266.118 112.13C267.098 112.496 268.069 112.878 269.032 113.277L269.329 112.56ZM204.514 111.403C203.525 111.772 202.545 112.157 201.574 112.56L201.871 113.277C202.834 112.878 203.805 112.496 204.785 112.13L204.514 111.403ZM274.368 114.837C273.424 114.374 272.47 113.927 271.507 113.497L271.191 114.206C272.146 114.633 273.091 115.075 274.027 115.534L274.368 114.837ZM199.396 113.497C198.433 113.927 197.479 114.374 196.535 114.837L196.876 115.534C197.812 115.075 198.757 114.633 199.712 114.206L199.396 113.497ZM279.255 117.426C278.341 116.904 277.417 116.398 276.482 115.909L276.123 116.597C277.048 117.082 277.965 117.583 278.871 118.1L279.255 117.426ZM194.42 115.909C193.486 116.398 192.562 116.904 191.648 117.426L192.032 118.1C192.938 117.583 193.854 117.082 194.78 116.597L194.42 115.909ZM283.969 120.315C283.089 119.737 282.198 119.175 281.296 118.627L280.894 119.291C281.788 119.834 282.671 120.392 283.543 120.965L283.969 120.315ZM189.607 118.628C188.705 119.175 187.814 119.737 186.934 120.315L187.36 120.965C188.232 120.392 189.115 119.834 190.009 119.291L189.607 118.628ZM288.493 123.494C287.651 122.863 286.798 122.245 285.932 121.643L285.49 122.281C286.347 122.878 287.193 123.489 288.028 124.116L288.493 123.494ZM184.97 121.643C184.105 122.245 183.252 122.863 182.41 123.494L182.875 124.116C183.71 123.489 184.556 122.878 185.413 122.281L184.97 121.643ZM292.811 126.95C292.01 126.267 291.196 125.597 290.37 124.943L289.889 125.551C290.707 126.2 291.514 126.864 292.308 127.541L292.811 126.95ZM180.532 124.943C179.707 125.597 178.893 126.267 178.092 126.95L178.595 127.541C179.389 126.864 180.196 126.2 181.014 125.551L180.532 124.943ZM296.905 130.669C296.148 129.936 295.377 129.217 294.594 128.512L294.075 129.09C294.852 129.788 295.615 130.501 296.366 131.227L296.905 130.669ZM176.309 128.512C175.526 129.217 174.755 129.936 173.998 130.669L174.537 131.227C175.288 130.501 176.051 129.788 176.828 129.09L176.309 128.512ZM300.759 134.635C300.049 133.857 299.325 133.091 298.587 132.339L298.033 132.883C298.764 133.629 299.482 134.388 300.186 135.159L300.759 134.635ZM172.316 132.339C171.578 133.091 170.854 133.857 170.144 134.635L170.717 135.159C171.421 134.388 172.139 133.629 172.87 132.883L172.316 132.339ZM304.358 138.835C303.697 138.014 303.022 137.205 302.333 136.408L301.747 136.916C302.43 137.706 303.099 138.508 303.753 139.322L304.358 138.835ZM168.569 136.408C167.88 137.205 167.206 138.014 166.545 138.835L167.15 139.322C167.804 138.508 168.473 137.706 169.156 136.916L168.569 136.408ZM307.687 143.253C307.079 142.391 306.456 141.541 305.819 140.703L305.201 141.173C305.833 142.004 306.451 142.847 307.053 143.701L307.687 143.253ZM165.084 140.703C164.447 141.541 163.824 142.391 163.216 143.253L163.85 143.701C164.452 142.847 165.07 142.004 165.702 141.173L165.084 140.703ZM310.733 147.871C310.18 146.973 309.611 146.085 309.028 145.208L308.382 145.639C308.961 146.508 309.524 147.388 310.072 148.278L310.733 147.871ZM161.875 145.208C161.291 146.085 160.723 146.973 160.17 147.871L160.831 148.278C161.379 147.388 161.942 146.508 162.521 145.639L161.875 145.208ZM313.481 152.672C312.986 151.74 312.475 150.818 311.947 149.907L311.276 150.296C311.799 151.199 312.305 152.113 312.796 153.036L313.481 152.672ZM158.956 149.907C158.428 150.818 157.917 151.74 157.422 152.672L158.107 153.036C158.598 152.113 159.104 151.199 159.627 150.296L158.956 149.907ZM315.921 157.636C315.485 156.675 315.034 155.723 314.565 154.781L313.871 155.126C314.335 156.06 314.783 157.004 315.214 157.957L315.921 157.636ZM156.338 154.781C155.869 155.723 155.417 156.675 154.982 157.636L155.689 157.957C156.12 157.004 156.568 156.06 157.032 155.126L156.338 154.781ZM318.041 162.747C317.668 161.76 317.277 160.781 316.869 159.811L316.154 160.112C316.558 161.073 316.945 162.044 317.315 163.022L318.041 162.747ZM154.033 159.811C153.626 160.781 153.235 161.76 152.862 162.747L153.587 163.022C153.957 162.044 154.345 161.073 154.749 160.112L154.033 159.811ZM319.832 167.983C319.522 166.973 319.194 165.97 318.849 164.976L318.116 165.231C318.458 166.216 318.783 167.21 319.091 168.211L319.832 167.983ZM152.054 164.976C151.709 165.97 151.381 166.973 151.071 167.983L151.812 168.211C152.12 167.21 152.444 166.216 152.787 165.231L152.054 164.976ZM321.286 173.319C321.041 172.292 320.778 171.271 320.497 170.258L319.749 170.465C320.028 171.47 320.288 172.481 320.531 173.5L321.286 173.319ZM150.406 170.258C150.125 171.271 149.862 172.292 149.617 173.319L150.372 173.5C150.614 172.481 150.875 171.47 151.154 170.465L150.406 170.258ZM322.398 178.739C322.219 177.698 322.021 176.664 321.805 175.636L321.046 175.795C321.26 176.814 321.456 177.84 321.633 178.871L322.398 178.739ZM149.098 175.636C148.882 176.664 148.684 177.698 148.505 178.739L149.27 178.871C149.447 177.84 149.643 176.814 149.857 175.796L149.098 175.636ZM323.164 184.221C323.051 183.17 322.919 182.123 322.769 181.083L322.001 181.194C322.15 182.225 322.281 183.262 322.393 184.305L323.164 184.221ZM148.134 181.083C147.984 182.123 147.852 183.17 147.739 184.221L148.51 184.305C148.622 183.262 148.753 182.225 148.902 181.194L148.134 181.083ZM323.583 189.738C323.536 188.68 323.47 187.627 323.386 186.579L322.613 186.642C322.696 187.68 322.761 188.724 322.808 189.773L323.583 189.738ZM147.517 186.579C147.433 187.627 147.367 188.68 147.32 189.738L148.095 189.773C148.141 188.724 148.207 187.68 148.29 186.642L147.517 186.579ZM323.671 193.692C323.671 193.162 323.666 192.633 323.657 192.106L322.881 192.119C322.89 192.643 322.895 193.167 322.895 193.692C322.895 194.218 322.89 194.742 322.881 195.265L323.657 195.279C323.666 194.751 323.671 194.222 323.671 193.692ZM147.246 192.106C147.237 192.633 147.232 193.162 147.232 193.692C147.232 194.222 147.237 194.751 147.246 195.279L148.022 195.265C148.012 194.742 148.008 194.218 148.008 193.692C148.008 193.167 148.012 192.643 148.022 192.119L147.246 192.106ZM323.386 200.806C323.47 199.758 323.536 198.705 323.583 197.647L322.808 197.612C322.761 198.661 322.696 199.705 322.613 200.743L323.386 200.806ZM147.32 197.647C147.367 198.705 147.433 199.758 147.517 200.806L148.29 200.743C148.207 199.705 148.141 198.661 148.095 197.612L147.32 197.647ZM322.769 206.302C322.919 205.261 323.051 204.215 323.164 203.163L322.393 203.08C322.281 204.123 322.15 205.16 322.001 206.191L322.769 206.302ZM147.739 203.163C147.852 204.215 147.984 205.261 148.134 206.302L148.902 206.191C148.753 205.16 148.622 204.123 148.51 203.08L147.739 203.163ZM321.805 211.749C322.021 210.721 322.219 209.686 322.398 208.646L321.633 208.514C321.456 209.545 321.26 210.571 321.046 211.589L321.805 211.749ZM148.505 208.646C148.684 209.686 148.882 210.721 149.098 211.749L149.857 211.589C149.643 210.571 149.447 209.545 149.27 208.514L148.505 208.646ZM320.497 217.127C320.778 216.114 321.041 215.093 321.286 214.066L320.531 213.885C320.288 214.904 320.028 215.915 319.749 216.92L320.497 217.127ZM149.617 214.066C149.862 215.093 150.125 216.114 150.406 217.127L151.154 216.92C150.875 215.915 150.614 214.904 150.372 213.885L149.617 214.066ZM318.849 222.409C319.194 221.415 319.522 220.412 319.832 219.402L319.091 219.174C318.783 220.175 318.458 221.169 318.116 222.154L318.849 222.409ZM151.071 219.402C151.381 220.412 151.709 221.415 152.054 222.409L152.787 222.154C152.444 221.169 152.12 220.175 151.812 219.174L151.071 219.402ZM316.869 227.574C317.277 226.604 317.668 225.625 318.041 224.638L317.315 224.363C316.945 225.341 316.558 226.311 316.154 227.273L316.869 227.574ZM152.862 224.638C153.235 225.625 153.626 226.604 154.033 227.574L154.749 227.273C154.345 226.311 153.957 225.341 153.587 224.363L152.862 224.638ZM314.565 232.604C315.034 231.662 315.485 230.71 315.921 229.749L315.214 229.428C314.783 230.381 314.335 231.324 313.871 232.258L314.565 232.604ZM154.982 229.749C155.417 230.71 155.869 231.662 156.338 232.604L157.032 232.258C156.568 231.324 156.12 230.381 155.689 229.428L154.982 229.749ZM311.947 237.478C312.475 236.567 312.986 235.645 313.481 234.713L312.796 234.349C312.305 235.272 311.799 236.186 311.276 237.089L311.947 237.478ZM157.422 234.713C157.917 235.645 158.428 236.567 158.956 237.478L159.627 237.089C159.104 236.186 158.598 235.272 158.107 234.349L157.422 234.713ZM309.028 242.176C309.611 241.3 310.18 240.412 310.733 239.514L310.072 239.107C309.524 239.997 308.961 240.877 308.382 241.746L309.028 242.176ZM160.17 239.514C160.723 240.412 161.291 241.3 161.875 242.176L162.521 241.746C161.942 240.877 161.379 239.997 160.831 239.107L160.17 239.514ZM305.819 246.682C306.456 245.844 307.079 244.994 307.687 244.132L307.053 243.684C306.451 244.538 305.833 245.381 305.201 246.211L305.819 246.682ZM163.216 244.132C163.824 244.994 164.447 245.844 165.084 246.682L165.702 246.211C165.07 245.381 164.452 244.538 163.85 243.684L163.216 244.132ZM302.333 250.977C303.022 250.18 303.697 249.371 304.358 248.549L303.753 248.063C303.099 248.877 302.43 249.679 301.747 250.469L302.333 250.977ZM166.545 248.549C167.206 249.371 167.88 250.18 168.569 250.977L169.156 250.469C168.473 249.679 167.804 248.877 167.15 248.063L166.545 248.549ZM298.587 255.046C299.325 254.293 300.049 253.528 300.759 252.749L300.186 252.226C299.482 252.997 298.764 253.756 298.033 254.502L298.587 255.046ZM170.144 252.749C170.854 253.528 171.578 254.293 172.316 255.046L172.87 254.502C172.139 253.756 171.421 252.997 170.717 252.226L170.144 252.749ZM294.594 258.873C295.377 258.167 296.148 257.449 296.905 256.716L296.366 256.158C295.615 256.884 294.852 257.596 294.075 258.295L294.594 258.873ZM173.998 256.716C174.755 257.449 175.526 258.168 176.309 258.873L176.828 258.295C176.051 257.596 175.288 256.884 174.537 256.158L173.998 256.716ZM290.371 262.442C291.196 261.787 292.01 261.118 292.811 260.435L292.308 259.844C291.514 260.521 290.707 261.185 289.889 261.834L290.371 262.442ZM178.092 260.435C178.893 261.118 179.707 261.787 180.532 262.442L181.014 261.834C180.196 261.185 179.389 260.521 178.595 259.844L178.092 260.435ZM285.932 265.742C286.798 265.139 287.651 264.522 288.493 263.891L288.028 263.269C287.193 263.896 286.347 264.507 285.49 265.104L285.932 265.742ZM182.41 263.891C183.252 264.522 184.105 265.139 184.97 265.742L185.413 265.104C184.556 264.507 183.71 263.896 182.875 263.269L182.41 263.891ZM281.296 268.757C282.198 268.21 283.089 267.647 283.969 267.069L283.543 266.42C282.671 266.993 281.788 267.551 280.894 268.093L281.296 268.757ZM186.934 267.069C187.814 267.647 188.705 268.21 189.607 268.757L190.009 268.093C189.115 267.551 188.232 266.993 187.36 266.42L186.934 267.069ZM276.482 271.476C277.417 270.986 278.341 270.481 279.255 269.959L278.871 269.285C277.965 269.802 277.048 270.303 276.123 270.788L276.482 271.476ZM191.648 269.959C192.562 270.481 193.486 270.986 194.421 271.476L194.78 270.788C193.854 270.303 192.938 269.802 192.032 269.285L191.648 269.959ZM271.507 273.887C272.47 273.458 273.424 273.011 274.368 272.548L274.027 271.851C273.091 272.31 272.146 272.752 271.191 273.178L271.507 273.887ZM196.535 272.548C197.479 273.011 198.433 273.458 199.396 273.887L199.712 273.178C198.757 272.752 197.812 272.31 196.876 271.851L196.535 272.548ZM266.389 275.982C267.377 275.613 268.358 275.227 269.329 274.825L269.032 274.107C268.069 274.507 267.098 274.889 266.118 275.254L266.389 275.982ZM201.574 274.825C202.545 275.227 203.525 275.613 204.514 275.982L204.785 275.254C203.805 274.889 202.834 274.507 201.871 274.107L201.574 274.825ZM261.15 277.75C262.161 277.444 263.164 277.12 264.159 276.78L263.907 276.045C262.921 276.383 261.927 276.703 260.925 277.007L261.15 277.75ZM206.744 276.78C207.739 277.12 208.742 277.444 209.753 277.75L209.978 277.007C208.976 276.703 207.982 276.383 206.995 276.045L206.744 276.78ZM255.812 279.184C256.84 278.942 257.861 278.683 258.874 278.405L258.67 277.656C257.665 277.931 256.653 278.189 255.635 278.428L255.812 279.184ZM212.029 278.405C213.042 278.683 214.063 278.942 215.091 279.184L215.268 278.428C214.249 278.189 213.238 277.931 212.233 277.656L212.029 278.405ZM250.394 280.28C251.434 280.104 252.468 279.909 253.496 279.696L253.339 278.936C252.32 279.147 251.295 279.34 250.264 279.515L250.394 280.28ZM217.407 279.696C218.435 279.909 219.469 280.104 220.509 280.28L220.639 279.515C219.608 279.34 218.583 279.147 217.564 278.936L217.407 279.696ZM244.914 281.036C245.966 280.924 247.011 280.794 248.051 280.646L247.942 279.877C246.911 280.024 245.875 280.153 244.833 280.264L244.914 281.036ZM222.852 280.646C223.892 280.794 224.937 280.924 225.988 281.036L226.07 280.264C225.028 280.153 223.992 280.024 222.961 279.877L222.852 280.646ZM239.402 281.449C240.459 281.402 241.512 281.337 242.559 281.254L242.497 280.48C241.459 280.563 240.416 280.627 239.368 280.673L239.402 281.449ZM228.344 281.254C229.391 281.337 230.444 281.402 231.5 281.449L231.534 280.673C230.487 280.627 229.444 280.563 228.406 280.48L228.344 281.254ZM235.451 281.535C235.981 281.535 236.51 281.531 237.037 281.521L237.023 280.745C236.5 280.754 235.977 280.759 235.451 280.759C234.926 280.759 234.402 280.754 233.88 280.745L233.866 281.521C234.393 281.531 234.922 281.535 235.451 281.535Z" fill="#3B2B5F"/>
        <path d="M290.629 249.305C290.629 219.056 265.928 194.529 235.45 194.529C204.973 194.529 180.271 219.056 180.271 249.305C180.271 279.554 204.973 304.08 235.45 304.08C235.967 304.08 236.483 304.073 236.996 304.059L237.017 304.835C236.497 304.85 235.975 304.857 235.45 304.857C204.55 304.857 179.496 279.988 179.496 249.305C179.496 218.621 204.55 193.753 235.45 193.753C266.35 193.753 291.405 218.621 291.405 249.305H290.629Z" fill="#3B2B5F"/>
        <path d="M291.405 249.305C291.405 249.829 291.398 250.352 291.383 250.873L290.608 250.852C290.622 250.338 290.629 249.822 290.629 249.305H291.405Z" fill="#3B2B5F"/>
        <path d="M291.269 253.217C291.195 254.263 291.093 255.301 290.962 256.331L290.192 256.233C290.321 255.218 290.423 254.194 290.495 253.162L291.269 253.217Z" fill="#3B2B5F"/>
        <path d="M290.617 258.652C290.44 259.684 290.235 260.707 290.003 261.72L289.247 261.546C289.476 260.548 289.678 259.539 289.852 258.521L290.617 258.652Z" fill="#3B2B5F"/>
        <path d="M289.428 263.995C289.15 265.004 288.844 266.002 288.511 266.987L287.776 266.738C288.104 265.767 288.406 264.783 288.68 263.789L289.428 263.995Z" fill="#3B2B5F"/>
        <path d="M287.712 269.193C287.336 270.169 286.932 271.131 286.502 272.079L285.796 271.758C286.219 270.824 286.617 269.875 286.989 268.913L287.712 269.193Z" fill="#3B2B5F"/>
        <path d="M285.488 274.195C285.017 275.127 284.52 276.044 283.998 276.946L283.327 276.557C283.841 275.668 284.331 274.763 284.796 273.844L285.488 274.195Z" fill="#3B2B5F"/>
        <path d="M282.78 278.951C282.219 279.831 281.634 280.695 281.026 281.541L280.396 281.088C280.996 280.254 281.573 279.402 282.125 278.534L282.78 278.951Z" fill="#3B2B5F"/>
        <path d="M279.617 283.417C278.973 284.238 278.306 285.04 277.618 285.823L277.035 285.31C277.714 284.538 278.371 283.747 279.006 282.937L279.617 283.417Z" fill="#3B2B5F"/>
        <path d="M276.032 287.551C275.311 288.305 274.57 289.038 273.808 289.75L273.278 289.183C274.03 288.481 274.761 287.757 275.472 287.015L276.032 287.551Z" fill="#3B2B5F"/>
        <path d="M272.062 291.316C271.272 291.996 270.462 292.653 269.634 293.288L269.162 292.672C269.979 292.046 270.777 291.397 271.556 290.727L272.062 291.316Z" fill="#3B2B5F"/>
        <path d="M267.744 294.677C266.892 295.275 266.023 295.851 265.137 296.403L264.727 295.743C265.601 295.199 266.458 294.632 267.298 294.041L267.744 294.677Z" fill="#3B2B5F"/>
        <path d="M263.12 297.6C262.215 298.113 261.293 298.601 260.357 299.064L260.013 298.368C260.937 297.911 261.845 297.43 262.738 296.924L263.12 297.6Z" fill="#3B2B5F"/>
        <path d="M258.233 300.058C257.283 300.48 256.318 300.875 255.34 301.245L255.066 300.518C256.031 300.154 256.982 299.764 257.919 299.349L258.233 300.058Z" fill="#3B2B5F"/>
        <path d="M253.13 302.027C252.143 302.353 251.145 302.652 250.135 302.924L249.933 302.174C250.929 301.906 251.914 301.611 252.887 301.289L253.13 302.027Z" fill="#3B2B5F"/>
        <path d="M247.859 303.486C246.846 303.714 245.823 303.914 244.79 304.086L244.663 303.32C245.681 303.151 246.69 302.953 247.689 302.728L247.859 303.486Z" fill="#3B2B5F"/>
        <path d="M242.47 304.424C241.442 304.552 240.404 304.652 239.359 304.723L239.306 303.949C240.337 303.878 241.36 303.779 242.375 303.653L242.47 304.424Z" fill="#3B2B5F"/>
        <path fill-rule="evenodd" clip-rule="evenodd" d="M235.45 191.958C204.972 191.958 180.271 167.431 180.271 137.183H179.495C179.495 167.866 204.55 192.735 235.45 192.735C266.35 192.735 291.405 167.866 291.405 137.183C291.405 106.499 266.35 81.6309 235.45 81.6309V82.4073C265.927 82.4073 290.629 106.934 290.629 137.183C290.629 167.431 265.927 191.958 235.45 191.958Z" fill="#3B2B5F"/>
        <path fill-rule="evenodd" clip-rule="evenodd" d="M179.517 135.614C179.503 136.135 179.495 136.658 179.495 137.183H180.271C180.271 136.665 180.278 136.15 180.293 135.636L179.517 135.614ZM179.938 130.157C179.808 131.186 179.705 132.225 179.632 133.271L180.406 133.325C180.478 132.294 180.579 131.27 180.708 130.255L179.938 130.157ZM180.898 124.768C180.665 125.78 180.46 126.803 180.284 127.836L181.049 127.967C181.222 126.949 181.424 125.94 181.654 124.942L180.898 124.768ZM182.389 119.501C182.056 120.486 181.751 121.483 181.473 122.492L182.22 122.699C182.495 121.704 182.796 120.721 183.124 119.749L182.389 119.501ZM184.398 114.409C183.969 115.357 183.565 116.319 183.188 117.294L183.912 117.574C184.283 116.613 184.681 115.664 185.105 114.729L184.398 114.409ZM186.903 109.542C186.381 110.443 185.884 111.36 185.412 112.293L186.105 112.643C186.569 111.724 187.059 110.82 187.574 109.931L186.903 109.542ZM189.875 104.946C189.266 105.792 188.682 106.656 188.121 107.537L188.775 107.954C189.328 107.086 189.905 106.234 190.504 105.4L189.875 104.946ZM193.283 100.665C192.594 101.448 191.928 102.25 191.284 103.071L191.894 103.55C192.529 102.741 193.186 101.95 193.865 101.178L193.283 100.665ZM197.092 96.7372C196.331 97.4495 195.589 98.1828 194.869 98.9362L195.429 99.4731C196.139 98.7301 196.871 98.007 197.622 97.3045L197.092 96.7372ZM201.266 93.1994C200.438 93.8345 199.629 94.4921 198.839 95.1713L199.344 95.7602C200.123 95.0904 200.922 94.4419 201.738 93.8156L201.266 93.1994ZM205.764 90.0849C204.878 90.6366 204.008 91.2123 203.156 91.811L203.602 92.4464C204.442 91.8559 205.3 91.2882 206.174 90.7442L205.764 90.0849ZM210.544 87.4239C209.607 87.8868 208.686 88.3749 207.78 88.8874L208.162 89.5632C209.055 89.0578 209.964 88.5765 210.887 88.12L210.544 87.4239ZM215.56 85.2429C214.582 85.6122 213.618 86.0079 212.667 86.4292L212.981 87.1391C213.919 86.7237 214.87 86.3335 215.834 85.9693L215.56 85.2429ZM220.766 83.5635C219.756 83.8355 218.757 84.1349 217.771 84.4608L218.014 85.1981C218.987 84.8767 219.971 84.5815 220.968 84.3133L220.766 83.5635ZM226.11 82.4013C225.078 82.5736 224.055 82.7739 223.042 83.0015L223.212 83.7591C224.211 83.5346 225.219 83.337 226.238 83.1671L226.11 82.4013ZM231.542 81.7643C230.496 81.8359 229.459 81.936 228.43 82.0638L228.526 82.8343C229.54 82.7082 230.564 82.6095 231.595 82.5388L231.542 81.7643ZM235.45 81.6309C234.926 81.6309 234.404 81.638 233.883 81.6522L233.904 82.4283C234.418 82.4143 234.933 82.4073 235.45 82.4073V81.6309Z" fill="#3B2B5F"/>
        <path d="M411.569 477.706L411.172 478.043L377.386 438.236L377.384 438.234C367.787 427.4 350.215 407.011 346.168 402.197C340.365 395.293 332.446 391.096 325.058 388.451C318.61 386.142 312.586 385.02 308.745 384.304L308.745 384.304C308.185 384.2 307.672 384.104 307.21 384.015C301.811 382.969 292.241 380.078 283.076 376.871C273.917 373.665 265.121 370.128 261.283 367.784L261.209 367.739L261.209 367.739C255.259 364.105 253.941 363.299 247.557 357.77L247.555 357.773C244.888 355.516 240.782 351.998 237.136 348.775C235.313 347.164 233.603 345.626 232.245 344.356C230.893 343.092 229.872 342.079 229.442 341.524C228.569 340.399 227.421 338.551 226.276 336.574L226.271 336.583C226.139 336.809 226.139 336.808 226.139 336.808L226.133 336.805L226.114 336.794L226.043 336.752C225.98 336.714 225.887 336.659 225.768 336.587C225.53 336.444 225.185 336.234 224.759 335.968C223.908 335.436 222.73 334.68 221.426 333.783C218.823 331.992 215.698 329.625 213.664 327.35C211.622 325.066 209.404 320.841 207.658 316.836C206.782 314.828 206.022 312.867 205.456 311.218C204.948 309.735 204.593 308.489 204.46 307.687C202.064 305.386 199.463 302.886 196.908 300.429L196.866 300.389L196.861 300.384L196.856 300.38C190.038 293.825 183.549 287.586 182.116 286.265C179.307 283.675 175.976 281.398 172.881 279.282C171.924 278.628 170.99 277.989 170.101 277.361C168.224 276.036 166.545 274.758 165.296 273.491C164.051 272.229 163.201 270.946 163.041 269.609C162.877 268.244 163.504 267.168 164.574 266.378C165.633 265.595 167.138 265.078 168.798 264.791C169.904 264.6 171.092 264.51 172.281 264.515C172.356 264.432 172.455 264.357 172.562 264.289C172.795 264.142 173.118 263.997 173.48 263.864C174.207 263.597 175.139 263.364 175.933 263.268C180.088 262.77 184.405 264.816 188.623 267.446C190.241 268.454 191.855 269.557 193.448 270.644C193.936 270.977 194.421 271.308 194.905 271.635C196.825 272.935 198.705 274.164 200.529 275.142C199.757 268.285 199.355 256.139 199.245 250.432L199.241 250.253L199.406 250.186C199.454 250.166 199.504 250.146 199.555 250.125C201.452 249.343 205.358 247.735 209.349 250.746C211.05 252.029 212.299 254.186 213.227 256.697C214.157 259.214 214.777 262.119 215.198 264.934C215.619 267.75 215.843 270.484 215.98 272.664C216.041 273.636 216.084 274.492 216.12 275.196L216.12 275.202L216.12 275.204L216.12 275.206L216.121 275.209C216.165 276.086 216.198 276.724 216.237 277.054C216.334 277.861 216.622 279.443 216.969 281.223L220.601 282.416L225.946 270.157L226.045 270.117C226.861 269.787 228.2 269.488 229.587 269.657C230.982 269.827 232.436 270.474 233.434 272.043C236.418 276.734 236.711 281.248 235.977 285.523C246.759 287.798 257.545 290.695 266.895 293.254C267.808 293.503 268.706 293.75 269.59 293.992C277.848 296.256 284.786 298.159 289.338 298.981C295.649 300.12 307.506 301.852 318.231 301.668C323.595 301.576 328.657 301.005 332.594 299.651C336.536 298.297 339.295 296.18 340.166 293.032C341.95 286.584 340.251 281.169 337.515 276.699C335.427 273.287 332.75 270.446 330.551 268.112L330.551 268.112L330.55 268.111C329.858 267.376 329.213 266.692 328.649 266.056C327.959 265.279 327.068 264.356 326.057 263.311L326.057 263.311C323.687 260.86 320.663 257.732 318.057 254.207C314.335 249.174 311.392 243.244 312.364 237.156C312.782 234.532 313.519 232.659 314.466 231.167C315.413 229.676 316.562 228.578 317.783 227.501C318.181 227.149 318.68 227.069 319.202 227.163C319.717 227.254 320.273 227.516 320.833 227.872C321.955 228.585 323.162 229.725 324.196 230.858C326.162 233.012 329.822 236.639 333.828 240.216C337.836 243.795 342.175 247.308 345.503 249.243C345.804 249.419 346.195 249.734 346.656 250.158C347.122 250.586 347.671 251.137 348.292 251.793C349.534 253.106 351.071 254.852 352.807 256.908C356.28 261.019 360.557 266.381 364.884 272.026C373.531 283.308 382.398 295.752 385.423 301.617C390.575 311.605 392.301 317.021 393.209 321.25C393.483 322.524 393.682 323.682 393.877 324.818C394.331 327.465 394.765 329.999 396.083 333.619C399.204 342.188 405.955 352.192 413.326 361.525C420.693 370.852 428.66 379.488 434.193 385.32L434.197 385.324L509.289 463.352L513.371 468.789L411.569 477.706Z" fill="#24034F"/>
        <path opacity="0.3" fill-rule="evenodd" clip-rule="evenodd" d="M370.837 315.067L349.576 274.579L351.881 273.366L373.475 314.489L370.512 370.751L430.353 441.33L428.367 443.017L368.555 372.471L272.977 367.315L257.109 310.424L367.991 369.094L370.837 315.067ZM363.335 369.578L261.246 315.561L274.983 364.812L363.335 369.578Z" fill="#461685"/>
        <path d="M305.5 338.531C305.618 339.515 306.511 340.217 307.494 340.099C308.477 339.981 309.178 339.088 309.06 338.104C308.942 337.12 308.049 336.418 307.066 336.536C306.083 336.654 305.382 337.547 305.5 338.531Z" fill="#461685"/>
        <path d="M301.798 367.894C301.916 368.879 302.809 369.581 303.792 369.463C304.775 369.345 305.476 368.451 305.358 367.467C305.24 366.483 304.347 365.781 303.364 365.899C302.381 366.017 301.68 366.91 301.798 367.894Z" fill="#461685"/>
        <path fill-rule="evenodd" clip-rule="evenodd" d="M323.812 231.207C322.789 230.087 321.618 228.987 320.553 228.31C320.02 227.971 319.53 227.749 319.111 227.674C318.698 227.6 318.375 227.671 318.128 227.89C316.915 228.96 315.812 230.019 314.906 231.444C314.002 232.868 313.287 234.671 312.878 237.236C311.941 243.11 314.776 248.892 318.476 253.895C321.061 257.392 324.034 260.466 326.396 262.909L326.396 262.909L326.398 262.911C327.419 263.967 328.326 264.905 329.038 265.708C329.586 266.325 330.219 266.997 330.902 267.723L330.903 267.723L330.904 267.724C333.107 270.062 335.839 272.961 337.959 276.424C340.746 280.978 342.501 286.542 340.668 293.169C339.73 296.56 336.773 298.764 332.763 300.142C328.75 301.521 323.625 302.095 318.24 302.187C307.465 302.372 295.568 300.634 289.245 299.492C284.669 298.665 277.707 296.756 269.46 294.495C268.574 294.252 267.672 294.005 266.758 293.754C257.412 291.197 246.645 288.305 235.884 286.034C235.795 286.503 235.693 286.97 235.583 287.433C235.085 289.514 234.396 291.54 233.719 293.495L233.933 293.606C234.183 293.735 234.545 293.923 234.993 294.155C235.89 294.618 237.133 295.26 238.518 295.971C241.288 297.393 244.622 299.092 246.886 300.201C249.142 301.307 252.446 302.682 255.191 303.781C256.562 304.33 257.792 304.81 258.679 305.153C259.086 305.31 259.42 305.438 259.664 305.531C260.343 304.886 261.211 304.227 262.056 303.66C263.183 302.904 264.306 302.287 264.933 302.076L265.099 302.571C264.541 302.758 263.465 303.343 262.346 304.093C261.515 304.651 260.68 305.286 260.036 305.897C260.03 305.912 260.024 305.927 260.018 305.945C259.926 306.189 259.925 306.188 259.925 306.188L259.826 306.151C259.815 306.147 259.803 306.142 259.79 306.137C259.666 306.264 259.552 306.388 259.448 306.51C259.196 306.808 258.913 307.158 258.611 307.534C258.115 308.148 257.567 308.829 257.011 309.45C256.116 310.451 255.135 311.38 254.2 311.722L254.021 311.232C254.82 310.94 255.724 310.108 256.623 309.102C257.175 308.485 257.7 307.833 258.186 307.23C258.491 306.851 258.78 306.492 259.051 306.172C259.117 306.094 259.188 306.015 259.262 305.936C259.049 305.854 258.789 305.755 258.491 305.639C257.603 305.296 256.371 304.815 254.997 304.265C252.252 303.165 248.932 301.785 246.657 300.67C244.388 299.558 241.05 297.857 238.28 296.435C236.895 295.724 235.651 295.082 234.754 294.618C234.305 294.386 233.943 294.198 233.694 294.069L233.547 293.993C233.498 294.135 233.449 294.277 233.4 294.418C232.639 296.621 231.938 298.726 231.578 300.743C232.192 301.512 233.117 302.776 233.995 304.197C234.907 305.672 235.78 307.334 236.195 308.791C236.332 309.274 236.489 309.83 236.658 310.432L246.51 317.645L246.202 318.066L236.886 311.245C237.671 314.053 238.628 317.525 239.12 319.318L251.066 331.473L250.11 328.902L250.598 328.72L252.176 332.965C252.321 333.355 252.529 333.763 252.763 334.199C252.823 334.311 252.886 334.426 252.949 334.542C253.128 334.871 253.315 335.214 253.487 335.564C253.955 336.512 254.347 337.564 254.266 338.709L253.746 338.672C253.818 337.667 253.476 336.718 253.02 335.794C252.853 335.455 252.674 335.126 252.496 334.8C252.443 334.703 252.391 334.606 252.339 334.51L252.304 334.446C252.069 334.008 251.846 333.573 251.688 333.147L251.51 332.668L238.654 319.587L238.636 319.522C237.992 317.176 236.503 311.776 235.694 308.934C235.299 307.547 234.456 305.934 233.552 304.471C232.65 303.011 231.698 301.719 231.099 300.978L231.025 300.886L231.045 300.77C231.406 298.671 232.134 296.489 232.907 294.248C232.973 294.057 233.04 293.865 233.106 293.674C233.822 291.608 234.556 289.489 235.076 287.311C236.211 282.562 236.326 277.559 232.995 272.321C232.098 270.91 230.799 270.328 229.524 270.172C228.295 270.023 227.097 270.272 226.338 270.56L215.076 296.39C216.118 301.361 217.743 308.911 219.251 315.511C220.009 318.83 220.738 321.907 221.348 324.296C221.653 325.49 221.928 326.51 222.161 327.302C222.397 328.101 222.586 328.646 222.716 328.906C224.145 331.746 227.796 338.551 229.853 341.202C230.253 341.718 231.241 342.702 232.601 343.973C233.954 345.238 235.659 346.772 237.481 348.382C240.988 351.481 244.92 354.856 247.587 357.115L247.593 357.109C254.209 362.85 255.455 363.611 261.459 367.278L261.555 367.337C265.338 369.648 274.082 373.168 283.248 376.376C292.409 379.582 301.949 382.463 307.309 383.501C307.768 383.59 308.279 383.685 308.837 383.789C312.676 384.504 318.743 385.633 325.233 387.957C332.667 390.62 340.681 394.857 346.567 401.859C350.61 406.67 368.181 427.057 377.776 437.888L377.779 437.892L411.568 477.703L411.172 478.041L377.386 438.233L377.384 438.231C367.787 427.398 350.215 407.009 346.168 402.195C340.365 395.29 332.446 391.094 325.058 388.448C318.61 386.139 312.586 385.017 308.745 384.302C308.185 384.198 307.672 384.102 307.21 384.013C301.811 382.967 292.241 380.076 283.076 376.868C273.917 373.662 265.121 370.126 261.283 367.782L261.209 367.737C255.26 364.103 253.941 363.297 247.557 357.768L247.555 357.771C244.888 355.514 240.783 351.995 237.136 348.773C235.313 347.162 233.603 345.624 232.245 344.354C230.893 343.09 229.873 342.077 229.442 341.522C228.569 340.397 227.421 338.549 226.276 336.572L226.271 336.581C226.139 336.806 226.139 336.806 226.139 336.806L226.133 336.803L226.114 336.792L226.043 336.749C225.98 336.712 225.887 336.657 225.768 336.585C225.53 336.441 225.185 336.231 224.759 335.965C223.908 335.434 222.73 334.678 221.426 333.78C218.824 331.989 215.699 329.623 213.664 327.348C211.622 325.064 209.404 320.839 207.658 316.834C206.783 314.826 206.022 312.865 205.457 311.216C204.949 309.733 204.593 308.487 204.46 307.685C202.051 305.371 199.435 302.857 196.866 300.387L196.861 300.382L196.857 300.378C190.038 293.822 183.549 287.584 182.116 286.262C179.307 283.673 175.977 281.396 172.881 279.28C171.925 278.625 170.99 277.987 170.101 277.359C168.224 276.034 166.545 274.756 165.296 273.489C164.051 272.227 163.201 270.944 163.041 269.607C162.877 268.242 163.505 267.166 164.574 266.376C165.633 265.593 167.139 265.076 168.798 264.789C169.904 264.598 171.092 264.507 172.281 264.513C172.356 264.43 172.455 264.355 172.562 264.287C172.795 264.14 173.118 263.995 173.481 263.862C174.207 263.595 175.14 263.362 175.933 263.266C180.089 262.768 184.405 264.814 188.623 267.444C190.241 268.452 191.856 269.554 193.448 270.641C193.936 270.974 194.422 271.306 194.905 271.633C196.825 272.933 198.705 274.162 200.529 275.14C199.757 268.283 199.355 256.137 199.245 250.43L199.241 250.251L199.406 250.184C199.454 250.164 199.504 250.143 199.555 250.122C201.452 249.341 205.358 247.732 209.349 250.743C211.05 252.027 212.299 254.184 213.227 256.695C214.158 259.212 214.777 262.117 215.198 264.931C215.619 267.748 215.843 270.482 215.98 272.662C216.041 273.637 216.085 274.495 216.12 275.2L216.12 275.202L216.121 275.203L216.121 275.206C216.165 276.084 216.198 276.722 216.237 277.052C216.334 277.859 216.622 279.441 216.969 281.22L220.601 282.414L225.946 270.155L226.045 270.115C226.862 269.785 228.2 269.486 229.587 269.655C230.982 269.825 232.436 270.472 233.434 272.041C236.418 276.732 236.711 281.246 235.977 285.521C246.759 287.796 257.545 290.693 266.895 293.251C267.808 293.501 268.706 293.748 269.59 293.99C277.848 296.254 284.786 298.157 289.338 298.979C295.649 300.118 307.506 301.85 318.231 301.666C323.595 301.574 328.656 301.002 332.594 299.649C336.535 298.294 339.295 296.178 340.166 293.03C341.95 286.581 340.251 281.167 337.515 276.696C335.427 273.285 332.749 270.444 330.551 268.11C329.858 267.375 329.213 266.69 328.649 266.054C327.959 265.276 327.067 264.354 326.057 263.309C323.687 260.858 320.663 257.73 318.057 254.205C314.335 249.172 311.392 243.242 312.364 237.154C312.782 234.53 313.518 232.657 314.466 231.165C315.413 229.674 316.562 228.576 317.783 227.499C318.181 227.147 318.68 227.067 319.202 227.161C319.716 227.252 320.272 227.514 320.832 227.87C321.955 228.583 323.162 229.723 324.196 230.856C326.162 233.01 329.822 236.637 333.827 240.214C337.836 243.793 342.175 247.306 345.502 249.241C345.804 249.417 346.195 249.732 346.656 250.156C347.121 250.584 347.671 251.135 348.292 251.791C349.534 253.104 351.071 254.85 352.807 256.905C356.28 261.017 360.557 266.379 364.884 272.024C373.531 283.306 382.397 295.75 385.423 301.615C390.575 311.602 392.3 317.019 393.209 321.248C393.483 322.522 393.681 323.679 393.876 324.816C394.33 327.463 394.765 329.996 396.083 333.616C399.203 342.186 405.955 352.19 413.326 361.523C420.692 370.85 428.66 379.486 434.192 385.317L434.197 385.322L534.468 488.037L534.133 488.988L433.815 385.676L433.812 385.674C428.276 379.838 420.297 371.19 412.917 361.846C405.54 352.505 398.744 342.447 395.594 333.795C394.259 330.129 393.813 327.529 393.355 324.864C393.162 323.736 392.966 322.595 392.7 321.358C391.803 317.186 390.098 311.813 384.96 301.854C381.96 296.037 373.123 283.63 364.47 272.341C360.147 266.7 355.875 261.346 352.409 257.242C350.676 255.19 349.146 253.453 347.914 252.15C347.297 251.498 346.757 250.957 346.304 250.54C345.847 250.12 345.491 249.838 345.241 249.692C341.865 247.729 337.493 244.186 333.481 240.603C329.465 237.018 325.792 233.377 323.812 231.207ZM173.66 264.351C173.493 264.413 173.34 264.475 173.206 264.536C175.264 264.631 177.262 265.011 178.78 265.653C181.731 266.901 186.466 270.083 191.007 273.648C195.21 276.947 199.278 280.6 201.638 283.393C201.33 280.954 201.039 278.779 200.789 277.14C200.725 276.719 200.663 276.26 200.603 275.769C198.652 274.751 196.645 273.44 194.613 272.065C194.126 271.736 193.638 271.402 193.149 271.069L193.148 271.068L193.148 271.068C191.557 269.982 189.955 268.888 188.348 267.886C184.133 265.259 179.955 263.309 175.995 263.784C175.245 263.874 174.352 264.098 173.66 264.351ZM220.392 282.894L217.084 281.807C217.495 283.883 217.965 286.134 218.298 287.696L220.392 282.894ZM201.76 284.366C202.551 290.724 203.426 298.55 203.964 303.364L203.965 303.376C204.133 304.878 204.268 306.086 204.357 306.864C202.108 304.703 199.695 302.383 197.318 300.099L197.232 300.016L197.205 299.989L197.189 299.974C190.381 293.429 183.904 287.202 182.469 285.879C179.629 283.262 176.254 280.954 173.153 278.834L173.151 278.832L173.146 278.829L173.137 278.823C172.192 278.177 171.272 277.548 170.401 276.933C168.528 275.61 166.881 274.354 165.667 273.123C164.449 271.888 163.698 270.709 163.558 269.545C163.422 268.409 163.926 267.503 164.883 266.795C165.851 266.08 167.267 265.583 168.887 265.303C172.128 264.743 176.07 265.073 178.577 266.133C181.459 267.352 186.149 270.496 190.686 274.058C195.216 277.615 199.557 281.558 201.76 284.366ZM204.949 307.432L204.947 307.417L204.945 307.399L204.942 307.38C204.865 306.735 204.706 305.313 204.492 303.403L204.484 303.324C203.707 296.372 202.222 283.091 201.304 277.062C200.376 270.968 199.897 257.007 199.769 250.598C201.674 249.815 205.306 248.346 209.036 251.16C210.619 252.354 211.824 254.401 212.739 256.876C213.652 259.346 214.264 262.212 214.682 265.009C215.101 267.804 215.323 270.522 215.46 272.694C215.519 273.633 215.562 274.475 215.598 275.178L215.598 275.183L215.598 275.188L215.598 275.188C215.644 276.096 215.679 276.769 215.72 277.114C215.954 279.061 217.266 285.378 217.891 288.281L218.059 288.245L214.532 296.334L214.549 296.415C215.591 301.387 217.226 308.987 218.743 315.628C219.502 318.948 220.232 322.03 220.843 324.425C221.149 325.622 221.425 326.649 221.662 327.45C221.896 328.242 222.096 328.832 222.251 329.14C223.038 330.703 224.508 333.491 226.021 336.129C225.785 335.987 225.449 335.782 225.035 335.523C224.188 334.994 223.017 334.243 221.721 333.351C219.124 331.563 216.043 329.226 214.052 327C212.07 324.784 209.88 320.627 208.135 316.625C207.265 314.629 206.509 312.681 205.949 311.047C205.405 309.46 205.053 308.187 204.952 307.454L204.961 307.444L204.949 307.432Z" fill="#3B2B5F"/>
        <path d="M386.557 349.37C386.769 349.521 386.768 349.521 386.768 349.521L386.767 349.523L386.762 349.53L386.742 349.557C386.725 349.581 386.7 349.616 386.666 349.662C386.599 349.754 386.499 349.89 386.366 350.065C386.102 350.416 385.709 350.925 385.195 351.563C384.167 352.84 382.653 354.63 380.708 356.69C376.819 360.808 371.203 366.007 364.298 370.321C357.404 374.628 351.15 377.67 346.619 379.635C344.354 380.618 342.519 381.332 341.249 381.8C340.614 382.035 340.121 382.207 339.786 382.322C339.618 382.379 339.49 382.422 339.404 382.45L339.366 382.462L339.306 382.482L339.274 382.492L339.272 382.493C339.272 382.493 339.272 382.493 339.193 382.244C339.115 381.996 339.115 381.996 339.115 381.996L339.122 381.993L339.146 381.986C339.167 381.979 339.199 381.969 339.241 381.955C339.284 381.941 339.338 381.923 339.403 381.901C339.465 381.88 339.536 381.856 339.618 381.828C339.949 381.715 340.438 381.544 341.069 381.311C342.33 380.846 344.156 380.136 346.412 379.157C350.924 377.2 357.154 374.169 364.022 369.879C370.878 365.595 376.46 360.429 380.33 356.332C382.264 354.283 383.769 352.503 384.79 351.236C385.3 350.602 385.689 350.097 385.951 349.751C386.081 349.577 386.18 349.444 386.246 349.354C386.271 349.321 386.29 349.293 386.306 349.272L386.32 349.252L386.339 349.226L386.344 349.218C386.344 349.218 386.344 349.218 386.557 349.37Z" fill="#3B2B5F"/>
        <path d="M335.235 323.403C332.541 319.562 327.685 316.552 324.046 314.953L323.836 315.431C327.438 317.013 332.194 319.974 334.809 323.702C336.112 325.561 336.872 327.595 336.711 329.735C336.551 331.873 335.468 334.16 333.007 336.522C328.07 341.261 321.026 343.783 314.198 345.002C307.374 346.221 300.8 346.133 296.838 345.678L296.779 346.196C300.786 346.657 307.411 346.744 314.289 345.516C321.164 344.288 328.325 341.739 333.368 336.899C335.896 334.472 337.058 332.072 337.231 329.774C337.403 327.479 336.585 325.328 335.235 323.403Z" fill="#3B2B5F"/>
        <path d="M248.53 315.306C248.274 315.711 247.561 316.88 246.748 318.346C246.313 319.129 246.267 319.8 246.415 320.328C246.559 320.848 246.885 321.206 247.157 321.382L247.439 320.944C247.266 320.832 247.024 320.576 246.916 320.188C246.811 319.809 246.826 319.279 247.203 318.599C248.012 317.142 248.719 315.981 248.97 315.586L248.53 315.306Z" fill="#3B2B5F"/>
        <path d="M275.135 361.731L273.071 364.719L269.451 364.456L272.436 366.521L272.173 370.144L274.237 367.156L277.857 367.419L274.872 365.354L275.135 361.731Z" fill="#461685"/>
        <path fill-rule="evenodd" clip-rule="evenodd" d="M270.773 367.463L271.72 367.008L271.608 366.773L270.661 367.227L270.773 367.463Z" fill="#461685"/>
        <path fill-rule="evenodd" clip-rule="evenodd" d="M270.3 367.69L270.616 367.539L270.503 367.304L270.188 367.455L270.3 367.69Z" fill="#461685"/>
        <path fill-rule="evenodd" clip-rule="evenodd" d="M269.826 367.917L270.142 367.765L270.029 367.53L269.714 367.682L269.826 367.917Z" fill="#461685"/>
        <path fill-rule="evenodd" clip-rule="evenodd" d="M276.741 364.602L275.794 365.056L275.681 364.821L276.628 364.367L276.741 364.602Z" fill="#461685"/>
        <path fill-rule="evenodd" clip-rule="evenodd" d="M277.214 364.376L276.899 364.527L276.786 364.292L277.102 364.141L277.214 364.376Z" fill="#461685"/>
        <path fill-rule="evenodd" clip-rule="evenodd" d="M277.688 364.149L277.373 364.301L277.26 364.065L277.576 363.914L277.688 364.149Z" fill="#461685"/>
        <path fill-rule="evenodd" clip-rule="evenodd" d="M272.084 362.961L272.537 363.909L272.772 363.796L272.319 362.848L272.084 362.961Z" fill="#461685"/>
        <path fill-rule="evenodd" clip-rule="evenodd" d="M271.858 362.486L272.009 362.802L272.244 362.689L272.092 362.373L271.858 362.486Z" fill="#461685"/>
        <path fill-rule="evenodd" clip-rule="evenodd" d="M271.631 362.012L271.783 362.328L272.018 362.216L271.866 361.9L271.631 362.012Z" fill="#461685"/>
        <path fill-rule="evenodd" clip-rule="evenodd" d="M274.942 368.934L274.488 367.986L274.723 367.873L275.177 368.821L274.942 368.934Z" fill="#461685"/>
        <path fill-rule="evenodd" clip-rule="evenodd" d="M275.17 369.408L275.018 369.092L275.253 368.979L275.405 369.295L275.17 369.408Z" fill="#461685"/>
        <path fill-rule="evenodd" clip-rule="evenodd" d="M275.396 369.882L275.245 369.566L275.48 369.453L275.631 369.769L275.396 369.882Z" fill="#461685"/>
        <path d="M258.933 307.328L256.928 310.229L253.413 309.974L256.312 311.98L256.056 315.498L258.061 312.597L261.576 312.852L258.677 310.846L258.933 307.328Z" fill="#461685"/>
        <path fill-rule="evenodd" clip-rule="evenodd" d="M254.697 312.896L255.617 312.455L255.504 312.22L254.584 312.661L254.697 312.896Z" fill="#461685"/>
        <path fill-rule="evenodd" clip-rule="evenodd" d="M254.238 313.116L254.545 312.969L254.432 312.734L254.125 312.881L254.238 313.116Z" fill="#461685"/>
        <path fill-rule="evenodd" clip-rule="evenodd" d="M253.778 313.337L254.085 313.19L253.972 312.955L253.665 313.102L253.778 313.337Z" fill="#461685"/>
        <path fill-rule="evenodd" clip-rule="evenodd" d="M260.492 310.118L259.572 310.559L259.46 310.324L260.38 309.883L260.492 310.118Z" fill="#461685"/>
        <path fill-rule="evenodd" clip-rule="evenodd" d="M260.952 309.898L260.645 310.045L260.533 309.81L260.839 309.663L260.952 309.898Z" fill="#461685"/>
        <path fill-rule="evenodd" clip-rule="evenodd" d="M261.413 309.678L261.107 309.825L260.994 309.59L261.301 309.443L261.413 309.678Z" fill="#461685"/>
        <path fill-rule="evenodd" clip-rule="evenodd" d="M255.966 308.523L256.406 309.444L256.641 309.331L256.201 308.41L255.966 308.523Z" fill="#461685"/>
        <path fill-rule="evenodd" clip-rule="evenodd" d="M255.746 308.062L255.893 308.368L256.128 308.256L255.981 307.949L255.746 308.062Z" fill="#461685"/>
        <path fill-rule="evenodd" clip-rule="evenodd" d="M255.525 307.602L255.672 307.909L255.907 307.796L255.76 307.489L255.525 307.602Z" fill="#461685"/>
        <path fill-rule="evenodd" clip-rule="evenodd" d="M258.742 314.322L258.301 313.402L258.536 313.289L258.977 314.21L258.742 314.322Z" fill="#461685"/>
        <path fill-rule="evenodd" clip-rule="evenodd" d="M258.963 314.783L258.816 314.476L259.051 314.363L259.198 314.67L258.963 314.783Z" fill="#461685"/>
        <path fill-rule="evenodd" clip-rule="evenodd" d="M259.183 315.244L259.036 314.937L259.271 314.824L259.418 315.131L259.183 315.244Z" fill="#461685"/>
        <path d="M370.672 373.888L378.421 374.453L372.03 370.029L372.593 362.273L368.174 368.669L360.424 368.104L366.815 372.528L366.253 380.284L370.672 373.888ZM377.997 367.315L377.884 367.079L377.208 367.403L377.321 367.639L377.997 367.315ZM376.983 367.8L376.871 367.565L376.195 367.889L376.307 368.124L376.983 367.8ZM375.969 368.286L375.856 368.051L373.828 369.023L373.941 369.258L375.969 368.286ZM365.784 363.374L365.461 362.697L365.226 362.81L365.549 363.487L365.784 363.374ZM366.27 364.389L365.946 363.712L365.711 363.825L366.035 364.501L366.27 364.389ZM367.403 366.757L366.432 364.728L366.197 364.84L367.169 366.87L367.403 366.757ZM372.551 377.515L371.58 375.485L371.345 375.598L372.316 377.628L372.551 377.515ZM373.038 378.531L372.714 377.854L372.48 377.967L372.803 378.644L373.038 378.531ZM365.22 373.438L365.108 373.203L363.079 374.174L363.192 374.41L365.22 373.438ZM373.524 379.546L373.2 378.869L372.965 378.982L373.289 379.658L373.524 379.546ZM362.854 374.571L362.741 374.336L362.065 374.66L362.178 374.895L362.854 374.571ZM361.84 375.056L361.727 374.821L361.051 375.145L361.164 375.38L361.84 375.056Z" fill="#461685"/>
        <path d="M352.52 270.299L350.42 273.249L346.815 272.938L349.763 275.038L349.451 278.647L351.55 275.696L355.156 276.007L352.208 273.907L352.52 270.299Z" fill="#461685"/>
        <path fill-rule="evenodd" clip-rule="evenodd" d="M348.094 275.957L349.044 275.517L348.935 275.28L347.984 275.72L348.094 275.957Z" fill="#461685"/>
        <path fill-rule="evenodd" clip-rule="evenodd" d="M347.617 276.175L347.934 276.029L347.825 275.792L347.508 275.939L347.617 276.175Z" fill="#461685"/>
        <path fill-rule="evenodd" clip-rule="evenodd" d="M347.141 276.395L347.458 276.248L347.349 276.012L347.032 276.158L347.141 276.395Z" fill="#461685"/>
        <path fill-rule="evenodd" clip-rule="evenodd" d="M354.081 273.183L353.131 273.623L353.021 273.387L353.972 272.947L354.081 273.183Z" fill="#461685"/>
        <path fill-rule="evenodd" clip-rule="evenodd" d="M354.557 272.963L354.24 273.11L354.13 272.873L354.447 272.726L354.557 272.963Z" fill="#461685"/>
        <path fill-rule="evenodd" clip-rule="evenodd" d="M355.032 272.743L354.715 272.89L354.606 272.653L354.923 272.507L355.032 272.743Z" fill="#461685"/>
        <path fill-rule="evenodd" clip-rule="evenodd" d="M349.461 271.484L349.9 272.436L350.137 272.326L349.697 271.375L349.461 271.484Z" fill="#461685"/>
        <path fill-rule="evenodd" clip-rule="evenodd" d="M349.242 271.008L349.388 271.325L349.625 271.216L349.478 270.899L349.242 271.008Z" fill="#461685"/>
        <path fill-rule="evenodd" clip-rule="evenodd" d="M349.02 270.532L349.167 270.849L349.403 270.739L349.257 270.422L349.02 270.532Z" fill="#461685"/>
        <path fill-rule="evenodd" clip-rule="evenodd" d="M352.229 277.477L351.789 276.525L352.026 276.416L352.465 277.367L352.229 277.477Z" fill="#461685"/>
        <path fill-rule="evenodd" clip-rule="evenodd" d="M352.448 277.952L352.301 277.635L352.538 277.525L352.684 277.843L352.448 277.952Z" fill="#461685"/>
        <path fill-rule="evenodd" clip-rule="evenodd" d="M352.669 278.428L352.522 278.111L352.759 278.002L352.905 278.319L352.669 278.428Z" fill="#461685"/>
        <path d="M373.192 311.503L371.619 313.775L368.865 313.572L371.135 315.146L370.932 317.902L372.505 315.63L375.259 315.833L372.989 314.259L373.192 311.503Z" fill="#461685"/>
        <path fill-rule="evenodd" clip-rule="evenodd" d="M369.881 315.889L370.602 315.544L370.49 315.309L369.769 315.653L369.881 315.889Z" fill="#461685"/>
        <path fill-rule="evenodd" clip-rule="evenodd" d="M369.521 316.061L369.762 315.946L369.649 315.711L369.409 315.826L369.521 316.061Z" fill="#461685"/>
        <path fill-rule="evenodd" clip-rule="evenodd" d="M369.16 316.234L369.4 316.119L369.288 315.884L369.048 315.999L369.16 316.234Z" fill="#461685"/>
        <path fill-rule="evenodd" clip-rule="evenodd" d="M374.425 313.716L373.704 314.061L373.592 313.826L374.313 313.481L374.425 313.716Z" fill="#461685"/>
        <path fill-rule="evenodd" clip-rule="evenodd" d="M374.785 313.543L374.544 313.658L374.432 313.423L374.673 313.308L374.785 313.543Z" fill="#461685"/>
        <path fill-rule="evenodd" clip-rule="evenodd" d="M375.145 313.37L374.905 313.485L374.792 313.25L375.033 313.135L375.145 313.37Z" fill="#461685"/>
        <path fill-rule="evenodd" clip-rule="evenodd" d="M370.841 312.45L371.186 313.172L371.421 313.06L371.076 312.338L370.841 312.45Z" fill="#461685"/>
        <path fill-rule="evenodd" clip-rule="evenodd" d="M370.67 312.09L370.784 312.33L371.02 312.218L370.905 311.977L370.67 312.09Z" fill="#461685"/>
        <path fill-rule="evenodd" clip-rule="evenodd" d="M370.497 311.728L370.612 311.969L370.847 311.856L370.732 311.616L370.497 311.728Z" fill="#461685"/>
        <path fill-rule="evenodd" clip-rule="evenodd" d="M373.013 316.997L372.669 316.275L372.904 316.163L373.248 316.885L373.013 316.997Z" fill="#461685"/>
        <path fill-rule="evenodd" clip-rule="evenodd" d="M373.185 317.358L373.07 317.117L373.305 317.005L373.42 317.245L373.185 317.358Z" fill="#461685"/>
        <path fill-rule="evenodd" clip-rule="evenodd" d="M373.357 317.719L373.243 317.479L373.478 317.366L373.592 317.607L373.357 317.719Z" fill="#461685"/>
        <path d="M247.176 134.421C251.674 139.166 264.641 167.586 273.38 160.722C276.419 158.335 285.522 142.059 286.811 138.944C288.812 134.11 275.789 118.471 273.898 115.923L251.007 85.0535C251.007 85.0535 239.865 71.0749 234.713 69.2573C229.561 67.4397 146.32 40.8653 146.32 40.8653L129.189 150.562L146.552 171.245L145.606 181.331L150.869 194.911L150.638 205.343L152.592 209.567L168.182 207.81L181.054 124.479L179.415 118.04L192.624 112.745C192.624 112.745 211.095 104.654 216.491 105.441C221.886 106.228 247.176 134.421 247.176 134.421Z" fill="#24034F"/>
        <g clip-path="url(#clip1_10694_28106)">
            <path d="M198.052 138.119L189.214 144.835C176.261 154.639 167.849 170.417 167.362 189.243C166.426 224.638 193.77 257.57 228.37 262.717C244.506 265.132 259.369 261.129 270.722 252.526L279.561 245.809C268.208 254.413 261.539 236.257 245.429 233.767C210.855 228.545 196.906 217.258 197.741 181.912C198.228 163.086 185.1 147.923 198.052 138.119Z" fill="#24034F"/>
            <path d="M197.894 137.91L189.055 144.626L189.055 144.626C176.036 154.48 167.589 170.334 167.1 189.236C166.16 224.762 193.598 257.811 228.331 262.977L228.332 262.977C244.535 265.402 259.47 261.384 270.881 252.736L270.882 252.736L279.72 246.019L279.402 245.6C276.617 247.71 274.149 248.163 271.759 247.65C269.346 247.132 266.985 245.624 264.436 243.737C259.404 240.012 253.695 234.846 245.66 233.537L245.469 233.507L245.469 233.507C228.192 230.898 216.136 226.78 208.495 218.953C200.863 211.134 197.588 199.563 198.005 181.919C198.127 177.181 197.393 172.68 196.431 168.448C195.949 166.332 195.411 164.28 194.893 162.301C194.375 160.32 193.879 158.413 193.479 156.577C192.68 152.901 192.279 149.541 192.867 146.501C193.45 143.482 195.014 140.759 198.184 138.35L198.212 138.329L197.894 137.909L197.894 137.91ZM194.814 140.911C193.501 142.613 192.728 144.446 192.35 146.4C191.741 149.549 192.162 152.994 192.965 156.688C193.367 158.537 193.867 160.455 194.384 162.434C194.902 164.415 195.439 166.458 195.917 168.564C196.875 172.776 197.599 177.229 197.478 181.905L197.478 181.905C197.06 199.608 200.341 211.353 208.119 219.32C215.887 227.278 228.093 231.415 245.389 234.027L245.576 234.057C253.451 235.339 259.034 240.394 264.123 244.16C266.673 246.048 269.115 247.621 271.649 248.165C273.204 248.499 274.784 248.444 276.433 247.856L270.563 252.316L270.563 252.317C259.269 260.876 244.478 264.862 228.409 262.457L228.409 262.457C193.943 257.33 166.693 224.514 167.626 189.25L167.626 189.25C168.111 170.501 176.487 154.799 189.373 145.045L189.373 145.045L194.814 140.911Z" fill="#3B2B5F"/>
            <path d="M240.664 127.431C206.091 122.209 177.296 146.682 176.434 182.104C175.498 217.499 202.842 250.431 237.441 255.578C272.015 260.799 300.81 236.326 301.671 200.905C302.533 165.483 275.238 132.652 240.664 127.431Z" fill="#24034F"/>
            <path d="M301.934 200.911C302.799 165.359 275.41 132.412 240.703 127.17C205.97 121.924 177.037 146.52 176.171 182.096L176.171 182.096C175.231 217.622 202.669 250.671 237.402 255.837C272.136 261.083 301.069 236.487 301.934 200.911ZM240.625 127.69C275.065 132.892 302.267 165.607 301.408 200.898C300.55 236.164 271.894 260.514 237.48 255.317L237.48 255.317C203.014 250.19 175.764 217.375 176.697 182.11L176.697 182.11C177.555 146.843 206.211 122.493 240.625 127.69Z" fill="#3B2B5F"/>
            <path opacity="0.1" d="M227.413 227.549C235.167 221.46 231.927 212.025 228.817 207.835L184.099 143.886L170.863 181.495L207.224 225.162C211.722 229.907 218.674 234.412 227.413 227.549Z" fill="black"/>
        </g>
        <path d="M228.359 223.142C236.112 217.054 232.873 207.619 229.763 203.43L185.045 139.483L154.996 164.882L208.171 220.755C212.669 225.5 219.62 230.005 228.359 223.142Z" fill="#24034F"/>
        <path d="M217.71 105.467C216.891 105.178 215.684 105.186 214.239 105.388C212.782 105.591 211.043 105.998 209.137 106.544C205.323 107.635 200.811 109.29 196.494 111.009C192.176 112.728 188.048 114.514 184.999 115.869C183.475 116.547 182.221 117.118 181.347 117.519C180.91 117.719 180.569 117.877 180.336 117.986C180.22 118.04 180.131 118.081 180.071 118.109C180.041 118.123 180.018 118.134 180.003 118.141C179.996 118.145 179.99 118.147 179.986 118.149L179.98 118.152C179.98 118.152 179.982 118.156 180.092 118.39C180.203 118.626 180.204 118.628 180.204 118.628L180.21 118.626C180.213 118.624 180.219 118.621 180.227 118.618C180.242 118.611 180.264 118.6 180.294 118.586C180.354 118.558 180.442 118.517 180.558 118.463C180.79 118.355 181.131 118.197 181.567 117.997C182.439 117.597 183.691 117.027 185.213 116.35C188.258 114.996 192.379 113.214 196.689 111.498C200.999 109.782 205.493 108.134 209.282 107.05C211.177 106.507 212.889 106.107 214.312 105.909C215.745 105.709 216.844 105.72 217.535 105.964C218.737 106.388 220.28 107.359 222.034 108.741C223.783 110.118 225.725 111.889 227.723 113.893C231.719 117.902 235.93 122.831 239.263 127.386L239.687 127.075C236.339 122.499 232.111 117.549 228.095 113.522C226.087 111.508 224.13 109.722 222.359 108.327C220.593 106.937 218.996 105.921 217.71 105.467ZM54.4149 -72.401C54.4144 -72.4017 54.4141 -72.4021 54.1983 -72.2516C53.9825 -72.1012 53.9828 -72.1007 53.9833 -72.1L53.9942 -72.0844C54.0019 -72.0733 54.0135 -72.0566 54.0289 -72.0345C54.0597 -71.9904 54.1058 -71.9245 54.1665 -71.8376C54.2878 -71.6636 54.468 -71.4054 54.7036 -71.0682C55.1747 -70.3937 55.8673 -69.4031 56.7526 -68.139C58.5234 -65.6109 61.0656 -61.9886 64.1514 -57.6117C70.3231 -48.8579 78.6696 -37.0852 87.3691 -25.0101C96.0684 -12.9353 105.122 -0.556769 112.706 9.40822C116.498 14.3906 119.924 18.7711 122.756 22.2094C125.584 25.6422 127.831 28.151 129.262 29.3769C130.7 30.6091 133.22 32.0789 136.531 33.7139C139.849 35.3521 143.98 37.1656 148.655 39.0819C158.005 42.9145 169.544 47.1633 181.124 51.2491C192.705 55.3351 204.331 59.2591 213.857 62.4423C223.386 65.6263 230.808 68.0673 233.989 69.1897C235.532 69.7342 237.431 71.0251 239.589 72.9099C241.742 74.7901 244.134 77.2432 246.665 80.0876C251.725 85.7761 257.326 93.0135 262.655 100.324C273.315 114.945 282.879 129.838 284.859 133.168C286.005 135.095 286.552 136.206 286.744 137.061C286.929 137.889 286.784 138.49 286.461 139.429C286.315 139.851 286.126 140.258 285.901 140.647L281.044 149.074L281.5 149.337L286.357 140.91C286.597 140.495 286.801 140.057 286.958 139.601C287.289 138.639 287.476 137.922 287.257 136.946C287.044 135.997 286.452 134.818 285.311 132.899C283.321 129.553 273.748 114.646 263.081 100.014C257.746 92.6977 252.135 85.4447 247.058 79.7377C244.519 76.8845 242.111 74.4136 239.935 72.5134C237.764 70.6178 235.804 69.2721 234.164 68.6932C230.977 67.5689 223.546 65.1248 214.023 61.9429C204.498 58.7601 192.876 54.8372 181.299 50.7526C169.721 46.6679 158.192 42.4225 148.854 38.5948C144.185 36.6809 140.066 34.8725 136.764 33.242C133.456 31.6084 130.988 30.1627 129.604 28.9771C128.213 27.7852 125.992 25.3111 123.162 21.8748C120.336 18.444 116.915 14.0693 113.125 9.08938C105.544 -0.870152 96.4943 -13.2443 87.796 -25.3177C79.0978 -37.3909 70.7523 -49.162 64.5812 -57.915C61.4957 -62.2914 58.954 -65.9133 57.1835 -68.441C56.2983 -69.7048 55.6059 -70.6951 55.1349 -71.3695C54.8994 -71.7066 54.7191 -71.9648 54.5978 -72.1387C54.5371 -72.2256 54.4913 -72.2914 54.4605 -72.3355C54.4451 -72.3576 54.4335 -72.3743 54.4258 -72.3854L54.4149 -72.401Z" fill="#3B2B5F"/>
        <path d="M179.925 118.039L180.373 118.315L191.915 99.5888L191.466 99.3122L179.925 118.039Z" fill="#3B2B5F"/>
        <path d="M-69.7843 -82.0363L47.9079 39.3535L47.9104 39.3562L47.9131 39.3586C58.6405 49.8292 65.0789 64.2309 72.3163 80.1471C79.5475 96.0495 87.5662 113.435 101.459 129.783C106.187 135.346 115.688 142.136 125.749 148.424C135.82 154.718 146.485 160.53 153.572 164.136C154.317 164.515 154.989 165.013 155.566 165.618L208.033 220.615C210.296 223.002 213.2 225.357 216.664 226.237C220.147 227.121 224.152 226.504 228.578 223.027C232.534 219.92 233.69 215.949 233.456 212.231C233.223 208.527 231.612 205.072 230.033 202.944C217.808 186.474 193.486 150.543 187.737 142.069C186.321 139.982 185.063 137.001 183.949 133.527C182.837 130.057 181.875 126.113 181.045 122.111C179.384 114.107 178.255 105.892 177.512 100.81L176.991 100.886C177.733 105.962 178.865 114.195 180.529 122.218C181.362 126.23 182.329 130.194 183.448 133.688C184.567 137.178 185.844 140.216 187.301 142.365C193.047 150.833 217.377 186.776 229.61 203.258C231.141 205.32 232.705 208.679 232.931 212.264C233.155 215.836 232.053 219.629 228.253 222.613C223.938 226.003 220.097 226.565 216.794 225.727C213.472 224.883 210.651 222.612 208.415 220.253L208.414 220.252L155.947 165.254C155.328 164.606 154.608 164.073 153.81 163.667C146.734 160.066 136.083 154.262 126.028 147.977C115.963 141.687 106.529 134.936 101.86 129.442C88.0201 113.157 80.0273 95.8337 72.7952 79.9293C65.5702 64.0405 59.0943 49.5389 48.2845 38.9858L-69.4069 -82.4027L-69.7843 -82.0363Z" fill="#3B2B5F"/>
        <path d="M167.137 177.401C163.936 179.668 160.881 182.084 158.43 184.23C155.987 186.37 154.123 188.26 153.326 189.473C148.548 196.747 149.511 204.743 152.724 211.069C153.961 213.506 157.077 214.028 159.385 212.714C162.756 210.795 167.029 208.471 168.86 207.261L168.57 206.822C166.759 208.019 162.519 210.323 159.125 212.256C157.011 213.46 154.262 212.936 153.193 210.831C150.04 204.621 149.119 196.836 153.766 189.762C154.519 188.616 156.332 186.767 158.777 184.627C161.213 182.493 164.254 180.088 167.442 177.831L167.137 177.401Z" fill="#3B2B5F"/>
        <path d="M152.469 163.263C151.744 163.906 151.163 164.452 150.751 164.867C144.316 171.345 144.371 180.663 146.703 185.981C147.165 187.036 148.044 187.645 149.044 187.841C150.037 188.035 151.147 187.823 152.106 187.254C156.646 184.561 162.162 181.218 167.534 177.876L167.255 177.429C161.887 180.769 156.374 184.11 151.837 186.801C150.978 187.311 149.998 187.491 149.145 187.324C148.297 187.158 147.571 186.651 147.185 185.769C144.921 180.606 144.873 171.532 151.124 165.239C151.527 164.833 152.099 164.295 152.818 163.657L152.469 163.263Z" fill="#3B2B5F"/>
        <path opacity="0.3" d="M4.05392 -64.0659L123.798 76.9808L134.396 134.152L192.745 178.045L193.798 176.643L135.995 133.161L125.691 77.57L225.05 86.5997L263.311 135.015L264.686 133.928L225.958 84.9202L125.054 75.7501L5.3904 -65.2015L4.05392 -64.0659Z" fill="#461685"/>
        <path d="M227.402 87.0401C226.737 88.0115 225.411 88.2591 224.44 87.5933C223.469 86.9275 223.22 85.6003 223.885 84.6289C224.55 83.6576 225.876 83.4099 226.847 84.0757C227.818 84.7415 228.067 86.0687 227.402 87.0401Z" fill="#461685"/>
        <path d="M137.39 134.984C136.725 135.956 135.399 136.203 134.428 135.538C133.457 134.872 133.209 133.545 133.873 132.573C134.538 131.602 135.864 131.354 136.835 132.02C137.807 132.686 138.055 134.013 137.39 134.984Z" fill="#461685"/>
        <path d="M120.182 78.8023L109.57 72.086L122.118 72.4856L128.826 61.8751L128.435 74.4261L139.046 81.1424L126.498 80.743L119.79 91.3533L120.182 78.8023ZM116.969 63.2255L117.34 63.0283L117.908 64.0988L117.536 64.2959L116.969 63.2255ZM117.82 64.8323L118.192 64.6352L118.76 65.7056L118.388 65.9027L117.82 64.8323ZM118.671 66.4378L119.043 66.2406L120.746 69.4519L120.374 69.649L118.671 66.4378ZM136.619 69.8495L137.688 69.2823L137.886 69.6542L136.816 70.2215L136.619 69.8495ZM135.015 70.6965L136.085 70.1293L136.282 70.5012L135.212 71.0684L135.015 70.6965ZM131.269 72.6829L134.479 70.9811L134.676 71.353L131.467 73.0548L131.269 72.6829ZM114.261 81.7012L117.471 79.9993L117.668 80.3712L114.458 82.0731L114.261 81.7012ZM112.653 82.5542L113.723 81.9871L113.92 82.3589L112.85 82.9263L112.653 82.5542ZM127.699 83.4587L128.071 83.2615L129.774 86.4728L129.403 86.6699L127.699 83.4587ZM111.049 83.4052L112.119 82.838L112.316 83.2099L111.246 83.7772L111.049 83.4052ZM129.686 87.205L130.058 87.008L130.626 88.0783L130.254 88.2756L129.686 87.205ZM130.538 88.8088L130.91 88.6117L131.478 89.6821L131.106 89.8791L130.538 88.8088Z" fill="#461685"/>
        <path d="M190.802 178.045L187.38 175.627L191.554 175.973L193.969 172.552L193.626 176.727L197.047 179.145L192.873 178.799L190.458 182.22L190.802 178.045ZM189.996 172.798L190.123 172.739L190.294 173.105L190.167 173.164L189.996 172.798ZM190.252 173.348L190.379 173.289L190.55 173.655L190.423 173.715L190.252 173.348ZM190.508 173.898L190.635 173.839L191.148 174.938L191.021 174.997L190.508 173.898ZM196.43 175.341L196.796 175.17L196.855 175.297L196.489 175.468L196.43 175.341ZM195.881 175.596L196.247 175.425L196.307 175.552L195.941 175.723L195.881 175.596ZM194.599 176.194L195.698 175.681L195.757 175.808L194.659 176.321L194.599 176.194ZM188.78 178.91L189.878 178.398L189.937 178.525L188.839 179.037L188.78 178.91ZM188.229 179.166L188.595 178.995L188.655 179.123L188.289 179.293L188.229 179.166ZM193.227 179.722L193.354 179.663L193.867 180.762L193.74 180.821L193.227 179.722ZM187.681 179.423L188.047 179.252L188.106 179.379L187.74 179.55L187.681 179.423ZM193.826 181.005L193.953 180.946L194.124 181.312L193.997 181.372L193.826 181.005ZM194.082 181.554L194.209 181.494L194.381 181.861L194.253 181.92L194.082 181.554Z" fill="#461685"/>
        <path d="M261.295 135.925L253.697 130.667L262.909 131.34L268.161 123.742L267.494 132.957L275.092 138.215L265.88 137.542L260.628 145.14L261.295 135.925ZM259.403 124.376L259.682 124.242L260.068 125.046L259.788 125.18L259.403 124.376ZM259.981 125.583L260.26 125.449L260.645 126.253L260.366 126.387L259.981 125.583ZM260.558 126.789L260.837 126.655L261.992 129.067L261.713 129.201L260.558 126.789ZM273.648 129.839L274.452 129.455L274.586 129.734L273.782 130.119L273.648 129.839ZM272.444 130.414L273.248 130.029L273.382 130.309L272.578 130.694L272.444 130.414ZM269.631 131.761L272.041 130.607L272.175 130.887L269.764 132.041L269.631 131.761ZM256.856 137.877L259.266 136.723L259.4 137.002L256.989 138.157L256.856 137.877ZM255.648 138.455L256.451 138.07L256.585 138.349L255.782 138.734L255.648 138.455ZM266.681 139.573L266.961 139.44L268.116 141.852L267.837 141.985L266.681 139.573ZM254.443 139.032L255.246 138.647L255.38 138.927L254.577 139.311L254.443 139.032ZM268.029 142.388L268.308 142.255L268.693 143.059L268.414 143.192L268.029 142.388ZM268.607 143.593L268.886 143.459L269.271 144.263L268.992 144.397L268.607 143.593Z" fill="#461685"/>
    </g>
    <defs>
        <clipPath id="clip0_10694_28106">
            <rect width="476" height="439" fill="white" transform="matrix(-1 0 0 1 476 -26)"/>
        </clipPath>
        <clipPath id="clip1_10694_28106">
            <rect width="138.257" height="135.632" fill="white" transform="matrix(-0.943024 -0.332725 -0.331978 0.943287 322.183 154.091)"/>
        </clipPath>
    </defs>
</svg>
