<svg width="100%" height="100%" viewBox="0 0 476 413" fill="none" xmlns="http://www.w3.org/2000/svg">
    <g clip-path="url(#clip0_10694_27948)">
        <path opacity="0.1" d="M324.173 189.881C324.173 190.671 323.533 191.311 322.743 191.311C321.954 191.311 321.314 190.671 321.314 189.881C321.314 189.091 321.954 188.45 322.743 188.45C323.533 188.45 324.173 189.091 324.173 189.881Z" fill="#3B2B5F"/>
        <path opacity="0.1" d="M125.148 171.29C125.148 172.08 124.508 172.721 123.719 172.721C122.93 172.721 122.29 172.08 122.29 171.29C122.29 170.5 122.93 169.859 123.719 169.859C124.508 169.859 125.148 170.5 125.148 171.29Z" fill="#3B2B5F"/>
        <path d="M152.447 254.863C152.447 255.851 151.647 256.652 150.66 256.652C149.674 256.652 148.874 255.851 148.874 254.863C148.874 253.876 149.674 253.075 150.66 253.075C151.647 253.075 152.447 253.876 152.447 254.863Z" fill="#3B2B5F"/>
        <path d="M445.452 360.886C445.452 361.874 444.653 362.674 443.666 362.674C442.679 362.674 441.879 361.874 441.879 360.886C441.879 359.898 442.679 359.098 443.666 359.098C444.653 359.098 445.452 359.898 445.452 360.886Z" fill="#3B2B5F"/>
        <path d="M282.005 218.136C282.005 219.124 281.205 219.924 280.218 219.924C279.232 219.924 278.432 219.124 278.432 218.136C278.432 217.148 279.232 216.348 280.218 216.348C281.205 216.348 282.005 217.148 282.005 218.136Z" fill="#3B2B5F"/>
        <path fill-rule="evenodd" clip-rule="evenodd" d="M178.015 303.287C177.242 303.287 176.616 303.914 176.616 304.687C176.616 305.46 177.242 306.087 178.015 306.087C178.787 306.087 179.413 305.46 179.413 304.687C179.413 303.914 178.787 303.287 178.015 303.287ZM175.84 304.687C175.84 303.485 176.813 302.511 178.015 302.511C179.216 302.511 180.189 303.485 180.189 304.687C180.189 305.889 179.216 306.864 178.015 306.864C176.813 306.864 175.84 305.889 175.84 304.687Z" fill="#3B2B5F"/>
        <path d="M96.1802 26.0771C96.1802 26.8672 95.5402 27.5077 94.7507 27.5077C93.9613 27.5077 93.3213 26.8672 93.3213 26.0771C93.3213 25.287 93.9613 24.6465 94.7507 24.6465C95.5402 24.6465 96.1802 25.287 96.1802 26.0771Z" fill="#3B2B5F"/>
        <path fill-rule="evenodd" clip-rule="evenodd" d="M178.371 269.933C179.127 269.933 179.74 269.32 179.74 268.564C179.74 267.808 179.127 267.194 178.371 267.194C177.615 267.194 177.003 267.808 177.003 268.564C177.003 269.32 177.615 269.933 178.371 269.933ZM178.371 270.71C179.555 270.71 180.515 269.749 180.515 268.564C180.515 267.379 179.555 266.418 178.371 266.418C177.187 266.418 176.227 267.379 176.227 268.564C176.227 269.749 177.187 270.71 178.371 270.71Z" fill="#3B2B5F"/>
        <path fill-rule="evenodd" clip-rule="evenodd" d="M257.867 97.2869C258.623 97.2869 259.236 96.6737 259.236 95.9174C259.236 95.161 258.623 94.5479 257.867 94.5479C257.112 94.5479 256.499 95.161 256.499 95.9174C256.499 96.6737 257.112 97.2869 257.867 97.2869ZM257.867 98.0633C259.051 98.0633 260.011 97.1025 260.011 95.9174C260.011 94.7322 259.051 93.7715 257.867 93.7715C256.683 93.7715 255.723 94.7322 255.723 95.9174C255.723 97.1025 256.683 98.0633 257.867 98.0633Z" fill="#3B2B5F"/>
        <path fill-rule="evenodd" clip-rule="evenodd" d="M140.725 121.355C141.481 121.355 142.094 120.742 142.094 119.986C142.094 119.229 141.481 118.616 140.725 118.616C139.969 118.616 139.357 119.229 139.357 119.986C139.357 120.742 139.969 121.355 140.725 121.355ZM140.725 122.132C141.909 122.132 142.869 121.171 142.869 119.986C142.869 118.801 141.909 117.84 140.725 117.84C139.541 117.84 138.581 118.801 138.581 119.986C138.581 121.171 139.541 122.132 140.725 122.132Z" fill="#3B2B5F"/>
        <path fill-rule="evenodd" clip-rule="evenodd" d="M350.185 185.799C350.94 185.799 351.553 185.185 351.553 184.429C351.553 183.673 350.94 183.06 350.185 183.06C349.429 183.06 348.816 183.673 348.816 184.429C348.816 185.185 349.429 185.799 350.185 185.799ZM350.185 186.575C351.369 186.575 352.329 185.614 352.329 184.429C352.329 183.244 351.369 182.283 350.185 182.283C349 182.283 348.041 183.244 348.041 184.429C348.041 185.614 349 186.575 350.185 186.575Z" fill="#3B2B5F"/>
        <path d="M246.984 131.943C246.984 133.128 246.024 134.089 244.84 134.089C243.656 134.089 242.696 133.128 242.696 131.943C242.696 130.758 243.656 129.797 244.84 129.797C246.024 129.797 246.984 130.758 246.984 131.943Z" fill="#3B2B5F"/>
        <path fill-rule="evenodd" clip-rule="evenodd" d="M244.84 133.312C245.596 133.312 246.208 132.699 246.208 131.943C246.208 131.186 245.596 130.573 244.84 130.573C244.084 130.573 243.472 131.186 243.472 131.943C243.472 132.699 244.084 133.312 244.84 133.312ZM244.84 134.089C246.024 134.089 246.984 133.128 246.984 131.943C246.984 130.758 246.024 129.797 244.84 129.797C243.656 129.797 242.696 130.758 242.696 131.943C242.696 133.128 243.656 134.089 244.84 134.089Z" fill="#3B2B5F"/>
        <path d="M212.928 81.2244L221.222 112.201L221.971 112L213.678 81.0234L212.928 81.2244Z" fill="#3B2B5F"/>
        <path d="M179.668 84.2163L182.454 89.0463L183.126 88.6581L180.34 83.8281L179.668 84.2163Z" fill="#3B2B5F"/>
        <path d="M318.805 240.134L323.632 242.923L324.019 242.25L319.193 239.462L318.805 240.134Z" fill="#3B2B5F"/>
        <path d="M327.655 245.247L340.122 252.451L340.51 251.778L328.043 244.574L327.655 245.247Z" fill="#3B2B5F"/>
        <path d="M357.014 262.21L344.546 255.006L344.934 254.334L357.402 261.538L357.014 262.21Z" fill="#3B2B5F"/>
        <path d="M191.972 105.549L184.774 93.0714L185.446 92.6832L192.644 105.161L191.972 105.549Z" fill="#3B2B5F"/>
        <path d="M194.529 109.977L201.727 122.454L202.399 122.066L195.201 109.588L194.529 109.977Z" fill="#3B2B5F"/>
        <path d="M157.966 172.282L161.554 173.244L161.755 172.494L158.167 171.532L157.966 172.282Z" fill="#3B2B5F"/>
        <path d="M154.827 171.44L145.407 168.913L145.608 168.164L155.028 170.69L154.827 171.44Z" fill="#3B2B5F"/>
        <path d="M132.846 165.545L142.266 168.072L142.467 167.322L133.047 164.796L132.846 165.545Z" fill="#3B2B5F"/>
        <path d="M300.948 294.734L299.09 291.514L299.762 291.126L301.619 294.346L300.948 294.734Z" fill="#3B2B5F"/>
        <path d="M292.588 280.244L297.464 288.696L298.136 288.308L293.26 279.856L292.588 280.244Z" fill="#3B2B5F"/>
        <path d="M290.962 277.426L286.086 268.974L286.758 268.585L291.634 277.038L290.962 277.426Z" fill="#3B2B5F"/>
        <path d="M151.012 143.004L138.545 135.8L138.933 135.128L151.4 142.332L151.012 143.004Z" fill="#3B2B5F"/>
        <path d="M155.435 145.561L167.903 152.765L168.291 152.092L155.823 144.888L155.435 145.561Z" fill="#3B2B5F"/>
        <path d="M315.151 266.925L304.971 256.737L305.52 256.188L315.699 266.376L315.151 266.925Z" fill="#3B2B5F"/>
        <path d="M318.764 270.54L328.943 280.728L329.492 280.179L319.312 269.991L318.764 270.54Z" fill="#3B2B5F"/>
        <path d="M175.898 127.558L181.152 132.816L181.7 132.267L176.446 127.009L175.898 127.558Z" fill="#3B2B5F"/>
        <path d="M171.299 122.957L157.179 108.826L157.727 108.277L171.847 122.408L171.299 122.957Z" fill="#3B2B5F"/>
        <path d="M141.292 92.6832L152.256 103.896L152.805 103.347L141.841 92.1342L141.292 92.6832Z" fill="#3B2B5F"/>
        <path d="M280.679 334.486L278.756 327.303L279.505 327.102L281.428 334.285L280.679 334.486Z" fill="#3B2B5F"/>
        <path d="M271.906 301.714L277.075 321.018L277.824 320.817L272.656 301.513L271.906 301.714Z" fill="#3B2B5F"/>
        <path d="M270.104 294.98L265.056 276.125L265.805 275.924L270.853 294.779L270.104 294.98Z" fill="#3B2B5F"/>
        <path d="M357.091 226.012L326.14 217.712L326.341 216.962L357.292 225.262L357.091 226.012Z" fill="#3B2B5F"/>
        <path d="M165.07 242.924L169.896 240.136L169.508 239.463L164.682 242.252L165.07 242.924Z" fill="#3B2B5F"/>
        <path d="M161.046 245.246L148.579 252.45L148.191 251.778L160.658 244.574L161.046 245.246Z" fill="#3B2B5F"/>
        <path d="M131.688 262.21L144.156 255.006L143.768 254.334L131.3 261.538L131.688 262.21Z" fill="#3B2B5F"/>
        <path d="M309.034 84.2163L306.248 89.0463L305.576 88.6581L308.362 83.8281L309.034 84.2163Z" fill="#3B2B5F"/>
        <path d="M296.727 105.549L303.925 93.0714L303.253 92.6832L296.055 105.161L296.727 105.549Z" fill="#3B2B5F"/>
        <path d="M294.174 109.977L286.976 122.454L286.304 122.066L293.502 109.588L294.174 109.977Z" fill="#3B2B5F"/>
        <path d="M330.736 172.282L327.147 173.244L326.947 172.494L330.535 171.532L330.736 172.282Z" fill="#3B2B5F"/>
        <path d="M333.874 171.44L343.294 168.913L343.093 168.164L333.673 170.69L333.874 171.44Z" fill="#3B2B5F"/>
        <path d="M355.856 165.545L346.436 168.072L346.235 167.322L355.655 164.796L355.856 165.545Z" fill="#3B2B5F"/>
        <path d="M187.754 294.734L189.611 291.514L188.939 291.126L187.082 294.346L187.754 294.734Z" fill="#3B2B5F"/>
        <path d="M196.113 280.244L191.237 288.696L190.565 288.308L195.441 279.856L196.113 280.244Z" fill="#3B2B5F"/>
        <path d="M197.739 277.426L202.615 268.974L201.943 268.585L197.067 277.038L197.739 277.426Z" fill="#3B2B5F"/>
        <path d="M337.687 143.005L350.155 135.801L349.767 135.129L337.299 142.333L337.687 143.005Z" fill="#3B2B5F"/>
        <path d="M333.265 145.561L320.798 152.765L320.41 152.092L332.877 144.888L333.265 145.561Z" fill="#3B2B5F"/>
        <path d="M173.549 266.925L183.729 256.737L183.18 256.188L173 266.376L173.549 266.925Z" fill="#3B2B5F"/>
        <path d="M169.935 270.539L159.755 280.727L159.207 280.178L169.387 269.99L169.935 270.539Z" fill="#3B2B5F"/>
        <path d="M312.801 127.558L307.547 132.816L306.998 132.267L312.252 127.009L312.801 127.558Z" fill="#3B2B5F"/>
        <path d="M317.4 122.957L331.52 108.826L330.972 108.277L316.852 122.408L317.4 122.957Z" fill="#3B2B5F"/>
        <path d="M345.426 95.0683L336.442 103.896L335.894 103.347L344.877 94.5193L345.426 95.0683Z" fill="#3B2B5F"/>
        <path d="M208.023 334.486L209.946 327.303L209.197 327.102L207.274 334.285L208.023 334.486Z" fill="#3B2B5F"/>
        <path d="M216.795 301.714L211.627 321.018L210.878 320.817L216.046 301.513L216.795 301.714Z" fill="#3B2B5F"/>
        <path d="M218.598 294.98L223.646 276.125L222.896 275.924L217.848 294.779L218.598 294.98Z" fill="#3B2B5F"/>
        <path d="M131.611 226.012L162.562 217.712L162.361 216.962L131.41 225.262L131.611 226.012Z" fill="#3B2B5F"/>
        <path d="M275.772 81.2244L267.479 112.201L266.729 112L275.023 81.0234L275.772 81.2244Z" fill="#3B2B5F"/>
        <path d="M47.7965 192.735H40.6895V191.959H47.7965V192.735Z" fill="#3B2B5F"/>
        <path d="M80.4882 192.735H54.9029V191.959H80.4882V192.735Z" fill="#3B2B5F"/>
        <path d="M389.645 192.735H89.0172V191.959H389.645V192.735Z" fill="#3B2B5F"/>
        <path d="M431.577 192.735H405.991V191.959H431.577V192.735Z" fill="#3B2B5F"/>
        <path d="M445.79 192.735H438.683V191.959H445.79V192.735Z" fill="#3B2B5F"/>
        <path d="M240.935 -38.7754L240.935 -29.1762H240.16L240.16 -38.7754H240.935Z" fill="#3B2B5F"/>
        <path d="M240.935 -19.5772L240.935 14.9798H240.16L240.16 -19.5772H240.935Z" fill="#3B2B5F"/>
        <path d="M240.935 37.0584L240.935 443.103H240.16L240.16 37.0584H240.935Z" fill="#3B2B5F"/>
        <path d="M240.935 454.622L240.935 489.179H240.16L240.16 454.622H240.935Z" fill="#3B2B5F"/>
        <path d="M240.935 498.778L240.935 508.377H240.16L240.16 498.778H240.935Z" fill="#3B2B5F"/>
        <path fill-rule="evenodd" clip-rule="evenodd" d="M238.963 105.864C239.49 105.854 240.019 105.85 240.549 105.85C241.078 105.85 241.607 105.854 242.134 105.864L242.12 106.64C241.598 106.631 241.074 106.626 240.549 106.626C240.023 106.626 239.5 106.631 238.977 106.64L238.963 105.864ZM244.5 105.936C245.556 105.983 246.609 106.047 247.656 106.131L247.594 106.905C246.556 106.822 245.513 106.758 244.466 106.712L244.5 105.936ZM233.441 106.131C234.488 106.047 235.541 105.983 236.598 105.936L236.632 106.712C235.584 106.758 234.541 106.822 233.503 106.905L233.441 106.131ZM250.012 106.349C251.063 106.461 252.108 106.591 253.148 106.739L253.039 107.507C252.008 107.361 250.972 107.232 249.93 107.121L250.012 106.349ZM227.949 106.739C228.989 106.591 230.034 106.461 231.086 106.349L231.167 107.121C230.125 107.232 229.089 107.361 228.058 107.507L227.949 106.739ZM255.491 107.104C256.531 107.281 257.565 107.476 258.593 107.689L258.436 108.449C257.417 108.238 256.392 108.045 255.361 107.87L255.491 107.104ZM222.504 107.689C223.532 107.476 224.566 107.281 225.606 107.104L225.736 107.87C224.705 108.045 223.68 108.238 222.661 108.449L222.504 107.689ZM217.126 108.979C218.139 108.702 219.16 108.443 220.188 108.201L220.365 108.957C219.347 109.196 218.335 109.454 217.33 109.728L217.126 108.979ZM260.909 108.201C261.937 108.443 262.958 108.702 263.971 108.979L263.767 109.728C262.762 109.454 261.751 109.196 260.732 108.957L260.909 108.201ZM211.841 110.605C212.836 110.265 213.839 109.941 214.85 109.635L215.075 110.378C214.073 110.681 213.079 111.002 212.093 111.34L211.841 110.605ZM266.247 109.635C267.258 109.941 268.261 110.265 269.256 110.605L269.005 111.34C268.018 111.002 267.024 110.681 266.022 110.378L266.247 109.635ZM206.671 112.56C207.642 112.157 208.623 111.772 209.611 111.403L209.882 112.13C208.902 112.496 207.931 112.878 206.968 113.277L206.671 112.56ZM271.486 111.403C272.475 111.772 273.455 112.157 274.426 112.56L274.129 113.277C273.166 112.878 272.195 112.496 271.215 112.13L271.486 111.403ZM201.632 114.837C202.576 114.374 203.53 113.927 204.493 113.497L204.809 114.206C203.854 114.633 202.909 115.075 201.973 115.534L201.632 114.837ZM276.604 113.497C277.567 113.927 278.521 114.374 279.465 114.837L279.124 115.534C278.188 115.075 277.243 114.633 276.288 114.206L276.604 113.497ZM196.745 117.426C197.659 116.904 198.583 116.398 199.518 115.909L199.877 116.597C198.952 117.082 198.035 117.583 197.129 118.1L196.745 117.426ZM281.58 115.909C282.514 116.398 283.438 116.904 284.352 117.426L283.968 118.1C283.062 117.583 282.146 117.082 281.22 116.597L281.58 115.909ZM192.031 120.315C192.911 119.737 193.802 119.175 194.704 118.627L195.106 119.291C194.212 119.834 193.329 120.392 192.457 120.965L192.031 120.315ZM286.393 118.628C287.295 119.175 288.186 119.737 289.066 120.315L288.64 120.965C287.768 120.392 286.885 119.834 285.991 119.291L286.393 118.628ZM187.507 123.494C188.349 122.863 189.202 122.245 190.068 121.643L190.51 122.281C189.653 122.878 188.807 123.489 187.972 124.116L187.507 123.494ZM291.03 121.643C291.895 122.245 292.748 122.863 293.59 123.494L293.125 124.116C292.29 123.489 291.444 122.878 290.587 122.281L291.03 121.643ZM183.189 126.95C183.99 126.267 184.804 125.597 185.63 124.943L186.111 125.551C185.293 126.2 184.486 126.864 183.692 127.541L183.189 126.95ZM295.468 124.943C296.293 125.597 297.107 126.267 297.908 126.95L297.405 127.541C296.611 126.864 295.804 126.2 294.986 125.551L295.468 124.943ZM179.095 130.669C179.852 129.936 180.623 129.217 181.406 128.512L181.925 129.09C181.148 129.788 180.385 130.501 179.634 131.227L179.095 130.669ZM299.691 128.512C300.474 129.217 301.245 129.936 302.002 130.669L301.463 131.227C300.712 130.501 299.949 129.788 299.172 129.09L299.691 128.512ZM175.241 134.635C175.951 133.857 176.675 133.091 177.413 132.339L177.967 132.883C177.236 133.629 176.518 134.388 175.814 135.159L175.241 134.635ZM303.684 132.339C304.422 133.091 305.146 133.857 305.856 134.635L305.283 135.159C304.579 134.388 303.861 133.629 303.13 132.883L303.684 132.339ZM171.642 138.835C172.303 138.014 172.978 137.205 173.667 136.408L174.253 136.916C173.57 137.706 172.901 138.508 172.247 139.322L171.642 138.835ZM307.431 136.408C308.12 137.205 308.794 138.014 309.455 138.835L308.85 139.322C308.196 138.508 307.527 137.706 306.844 136.916L307.431 136.408ZM168.313 143.253C168.921 142.391 169.544 141.541 170.181 140.703L170.799 141.173C170.167 142.004 169.549 142.847 168.947 143.701L168.313 143.253ZM310.916 140.703C311.553 141.541 312.176 142.391 312.784 143.253L312.15 143.701C311.548 142.847 310.93 142.004 310.298 141.173L310.916 140.703ZM165.267 147.871C165.82 146.973 166.389 146.085 166.972 145.208L167.618 145.639C167.039 146.508 166.476 147.388 165.928 148.278L165.267 147.871ZM314.125 145.208C314.709 146.085 315.277 146.973 315.83 147.871L315.169 148.278C314.621 147.388 314.058 146.508 313.479 145.639L314.125 145.208ZM162.519 152.672C163.014 151.74 163.525 150.818 164.053 149.907L164.724 150.296C164.201 151.199 163.695 152.113 163.204 153.036L162.519 152.672ZM317.044 149.907C317.572 150.818 318.083 151.74 318.578 152.672L317.893 153.036C317.402 152.113 316.896 151.199 316.373 150.296L317.044 149.907ZM160.079 157.636C160.515 156.675 160.966 155.723 161.435 154.781L162.129 155.126C161.665 156.06 161.217 157.004 160.786 157.957L160.079 157.636ZM319.662 154.781C320.131 155.723 320.583 156.675 321.018 157.636L320.311 157.957C319.88 157.004 319.432 156.06 318.968 155.126L319.662 154.781ZM157.959 162.747C158.332 161.76 158.723 160.781 159.131 159.811L159.846 160.112C159.442 161.073 159.055 162.044 158.685 163.022L157.959 162.747ZM321.967 159.811C322.374 160.781 322.765 161.76 323.138 162.747L322.413 163.022C322.043 162.044 321.655 161.073 321.251 160.112L321.967 159.811ZM156.168 167.983C156.478 166.973 156.806 165.97 157.151 164.976L157.884 165.231C157.542 166.216 157.217 167.21 156.909 168.211L156.168 167.983ZM323.946 164.976C324.291 165.97 324.619 166.973 324.929 167.983L324.188 168.211C323.88 167.21 323.556 166.216 323.213 165.231L323.946 164.976ZM154.714 173.319C154.959 172.292 155.222 171.271 155.503 170.258L156.251 170.465C155.972 171.47 155.712 172.481 155.469 173.5L154.714 173.319ZM325.594 170.258C325.875 171.271 326.138 172.292 326.383 173.319L325.628 173.5C325.386 172.481 325.125 171.47 324.846 170.465L325.594 170.258ZM153.602 178.739C153.781 177.698 153.979 176.664 154.195 175.636L154.954 175.795C154.74 176.814 154.544 177.84 154.367 178.871L153.602 178.739ZM326.902 175.636C327.118 176.664 327.316 177.698 327.495 178.739L326.73 178.871C326.553 177.84 326.357 176.814 326.143 175.796L326.902 175.636ZM152.836 184.221C152.949 183.17 153.081 182.123 153.231 181.083L153.999 181.194C153.85 182.225 153.719 183.262 153.607 184.305L152.836 184.221ZM327.866 181.083C328.016 182.123 328.148 183.17 328.261 184.221L327.49 184.305C327.378 183.262 327.247 182.225 327.098 181.194L327.866 181.083ZM152.417 189.738C152.464 188.68 152.53 187.627 152.614 186.579L153.387 186.642C153.304 187.68 153.239 188.724 153.192 189.773L152.417 189.738ZM328.483 186.579C328.567 187.627 328.633 188.68 328.68 189.738L327.905 189.773C327.859 188.724 327.793 187.68 327.71 186.642L328.483 186.579ZM152.329 193.692C152.329 193.162 152.334 192.633 152.343 192.106L153.119 192.119C153.11 192.643 153.105 193.167 153.105 193.692C153.105 194.218 153.11 194.742 153.119 195.265L152.343 195.279C152.334 194.751 152.329 194.222 152.329 193.692ZM328.754 192.106C328.763 192.633 328.768 193.162 328.768 193.692C328.768 194.222 328.763 194.751 328.754 195.279L327.978 195.265C327.988 194.742 327.992 194.218 327.992 193.692C327.992 193.167 327.988 192.643 327.978 192.119L328.754 192.106ZM152.614 200.806C152.53 199.758 152.464 198.705 152.417 197.647L153.192 197.612C153.239 198.661 153.304 199.705 153.387 200.743L152.614 200.806ZM328.68 197.647C328.633 198.705 328.567 199.758 328.483 200.806L327.71 200.743C327.793 199.705 327.859 198.661 327.905 197.612L328.68 197.647ZM153.231 206.302C153.081 205.261 152.949 204.215 152.836 203.163L153.607 203.08C153.719 204.123 153.85 205.16 153.999 206.191L153.231 206.302ZM328.261 203.163C328.148 204.215 328.016 205.261 327.866 206.302L327.098 206.191C327.247 205.16 327.378 204.123 327.49 203.08L328.261 203.163ZM154.195 211.749C153.979 210.721 153.781 209.686 153.602 208.646L154.367 208.514C154.544 209.545 154.74 210.571 154.954 211.589L154.195 211.749ZM327.495 208.646C327.316 209.686 327.118 210.721 326.902 211.749L326.143 211.589C326.357 210.571 326.553 209.545 326.73 208.514L327.495 208.646ZM155.503 217.127C155.222 216.114 154.959 215.093 154.714 214.066L155.469 213.885C155.712 214.904 155.972 215.915 156.251 216.92L155.503 217.127ZM326.383 214.066C326.138 215.093 325.875 216.114 325.594 217.127L324.846 216.92C325.125 215.915 325.386 214.904 325.628 213.885L326.383 214.066ZM157.151 222.409C156.806 221.415 156.478 220.412 156.168 219.402L156.909 219.174C157.217 220.175 157.542 221.169 157.884 222.154L157.151 222.409ZM324.929 219.402C324.619 220.412 324.291 221.415 323.946 222.409L323.213 222.154C323.556 221.169 323.88 220.175 324.188 219.174L324.929 219.402ZM159.131 227.574C158.723 226.604 158.332 225.625 157.959 224.638L158.685 224.363C159.055 225.341 159.442 226.311 159.846 227.273L159.131 227.574ZM323.138 224.638C322.765 225.625 322.374 226.604 321.967 227.574L321.251 227.273C321.655 226.311 322.043 225.341 322.413 224.363L323.138 224.638ZM161.435 232.604C160.966 231.662 160.515 230.71 160.079 229.749L160.786 229.428C161.217 230.381 161.665 231.324 162.129 232.258L161.435 232.604ZM321.018 229.749C320.583 230.71 320.131 231.662 319.662 232.604L318.968 232.258C319.432 231.324 319.88 230.381 320.311 229.428L321.018 229.749ZM164.053 237.478C163.525 236.567 163.014 235.645 162.519 234.713L163.204 234.349C163.695 235.272 164.201 236.186 164.724 237.089L164.053 237.478ZM318.578 234.713C318.083 235.645 317.572 236.567 317.044 237.478L316.373 237.089C316.896 236.186 317.402 235.272 317.893 234.349L318.578 234.713ZM166.972 242.176C166.389 241.3 165.82 240.412 165.267 239.514L165.928 239.107C166.476 239.997 167.039 240.877 167.618 241.746L166.972 242.176ZM315.83 239.514C315.277 240.412 314.709 241.3 314.125 242.176L313.479 241.746C314.058 240.877 314.621 239.997 315.169 239.107L315.83 239.514ZM170.181 246.682C169.544 245.844 168.921 244.994 168.313 244.132L168.947 243.684C169.549 244.538 170.167 245.381 170.799 246.211L170.181 246.682ZM312.784 244.132C312.176 244.994 311.553 245.844 310.916 246.682L310.298 246.211C310.93 245.381 311.548 244.538 312.15 243.684L312.784 244.132ZM173.667 250.977C172.978 250.18 172.303 249.371 171.642 248.549L172.247 248.063C172.901 248.877 173.57 249.679 174.253 250.469L173.667 250.977ZM309.455 248.549C308.794 249.371 308.12 250.18 307.431 250.977L306.844 250.469C307.527 249.679 308.196 248.877 308.85 248.063L309.455 248.549ZM177.413 255.046C176.675 254.293 175.951 253.528 175.241 252.749L175.814 252.226C176.518 252.997 177.236 253.756 177.967 254.502L177.413 255.046ZM305.856 252.749C305.146 253.528 304.422 254.293 303.684 255.046L303.13 254.502C303.861 253.756 304.579 252.997 305.283 252.226L305.856 252.749ZM181.406 258.873C180.623 258.167 179.852 257.449 179.095 256.716L179.634 256.158C180.385 256.884 181.148 257.596 181.925 258.295L181.406 258.873ZM302.002 256.716C301.245 257.449 300.474 258.168 299.691 258.873L299.172 258.295C299.949 257.596 300.712 256.884 301.463 256.158L302.002 256.716ZM185.629 262.442C184.804 261.787 183.99 261.118 183.189 260.435L183.692 259.844C184.486 260.521 185.293 261.185 186.111 261.834L185.629 262.442ZM297.908 260.435C297.107 261.118 296.293 261.787 295.468 262.442L294.986 261.834C295.804 261.185 296.611 260.521 297.405 259.844L297.908 260.435ZM190.068 265.742C189.202 265.139 188.349 264.522 187.507 263.891L187.972 263.269C188.807 263.896 189.653 264.507 190.51 265.104L190.068 265.742ZM293.59 263.891C292.748 264.522 291.895 265.139 291.03 265.742L290.587 265.104C291.444 264.507 292.29 263.896 293.125 263.269L293.59 263.891ZM194.704 268.757C193.802 268.21 192.911 267.647 192.031 267.069L192.457 266.42C193.329 266.993 194.212 267.551 195.106 268.093L194.704 268.757ZM289.066 267.069C288.186 267.647 287.295 268.21 286.393 268.757L285.991 268.093C286.885 267.551 287.768 266.993 288.64 266.42L289.066 267.069ZM199.518 271.476C198.583 270.986 197.659 270.481 196.745 269.959L197.129 269.285C198.035 269.802 198.952 270.303 199.877 270.788L199.518 271.476ZM284.352 269.959C283.438 270.481 282.514 270.986 281.579 271.476L281.22 270.788C282.146 270.303 283.062 269.802 283.968 269.285L284.352 269.959ZM204.493 273.887C203.53 273.458 202.576 273.011 201.632 272.548L201.973 271.851C202.909 272.31 203.854 272.752 204.809 273.178L204.493 273.887ZM279.465 272.548C278.521 273.011 277.567 273.458 276.604 273.887L276.288 273.178C277.243 272.752 278.188 272.31 279.124 271.851L279.465 272.548ZM209.611 275.982C208.623 275.613 207.642 275.227 206.671 274.825L206.968 274.107C207.931 274.507 208.902 274.889 209.882 275.254L209.611 275.982ZM274.426 274.825C273.455 275.227 272.475 275.613 271.486 275.982L271.215 275.254C272.195 274.889 273.166 274.507 274.129 274.107L274.426 274.825ZM214.85 277.75C213.839 277.444 212.836 277.12 211.841 276.78L212.093 276.045C213.079 276.383 214.073 276.703 215.075 277.007L214.85 277.75ZM269.256 276.78C268.261 277.12 267.258 277.444 266.247 277.75L266.022 277.007C267.024 276.703 268.018 276.383 269.005 276.045L269.256 276.78ZM220.188 279.184C219.16 278.942 218.139 278.683 217.126 278.405L217.33 277.656C218.335 277.931 219.347 278.189 220.365 278.428L220.188 279.184ZM263.971 278.405C262.958 278.683 261.937 278.942 260.909 279.184L260.732 278.428C261.751 278.189 262.762 277.931 263.767 277.656L263.971 278.405ZM225.606 280.28C224.566 280.104 223.532 279.909 222.504 279.696L222.661 278.936C223.68 279.147 224.705 279.34 225.736 279.515L225.606 280.28ZM258.593 279.696C257.565 279.909 256.531 280.104 255.491 280.28L255.361 279.515C256.392 279.34 257.417 279.147 258.436 278.936L258.593 279.696ZM231.086 281.036C230.034 280.924 228.989 280.794 227.949 280.646L228.058 279.877C229.089 280.024 230.125 280.153 231.167 280.264L231.086 281.036ZM253.148 280.646C252.108 280.794 251.063 280.924 250.012 281.036L249.93 280.264C250.972 280.153 252.008 280.024 253.039 279.877L253.148 280.646ZM236.598 281.449C235.541 281.402 234.488 281.337 233.441 281.254L233.503 280.48C234.541 280.563 235.584 280.627 236.632 280.673L236.598 281.449ZM247.656 281.254C246.609 281.337 245.556 281.402 244.5 281.449L244.466 280.673C245.513 280.627 246.556 280.563 247.594 280.48L247.656 281.254ZM240.549 281.535C240.019 281.535 239.49 281.531 238.963 281.521L238.977 280.745C239.5 280.754 240.023 280.759 240.549 280.759C241.074 280.759 241.598 280.754 242.12 280.745L242.134 281.521C241.607 281.531 241.078 281.535 240.549 281.535Z" fill="#3B2B5F"/>
        <path d="M185.371 249.305C185.371 219.056 210.072 194.529 240.55 194.529C271.027 194.529 295.729 219.056 295.729 249.305C295.729 279.554 271.027 304.08 240.55 304.08C240.033 304.08 239.517 304.073 239.004 304.059L238.983 304.835C239.503 304.85 240.025 304.857 240.55 304.857C271.45 304.857 296.504 279.988 296.504 249.305C296.504 218.621 271.45 193.753 240.55 193.753C209.65 193.753 184.595 218.621 184.595 249.305H185.371Z" fill="#3B2B5F"/>
        <path d="M184.595 249.305C184.595 249.829 184.602 250.352 184.617 250.873L185.392 250.852C185.378 250.338 185.371 249.822 185.371 249.305H184.595Z" fill="#3B2B5F"/>
        <path d="M184.731 253.217C184.805 254.263 184.907 255.301 185.038 256.331L185.808 256.233C185.679 255.218 185.577 254.194 185.505 253.162L184.731 253.217Z" fill="#3B2B5F"/>
        <path d="M185.383 258.652C185.56 259.684 185.765 260.707 185.997 261.72L186.753 261.546C186.524 260.548 186.322 259.539 186.148 258.521L185.383 258.652Z" fill="#3B2B5F"/>
        <path d="M186.572 263.995C186.85 265.004 187.156 266.002 187.489 266.987L188.224 266.738C187.896 265.767 187.594 264.783 187.32 263.789L186.572 263.995Z" fill="#3B2B5F"/>
        <path d="M188.288 269.193C188.664 270.169 189.068 271.131 189.498 272.079L190.204 271.758C189.781 270.824 189.383 269.875 189.011 268.913L188.288 269.193Z" fill="#3B2B5F"/>
        <path d="M190.512 274.195C190.983 275.127 191.48 276.044 192.002 276.946L192.673 276.557C192.159 275.668 191.669 274.763 191.204 273.844L190.512 274.195Z" fill="#3B2B5F"/>
        <path d="M193.22 278.951C193.781 279.831 194.366 280.695 194.974 281.541L195.604 281.088C195.004 280.254 194.427 279.402 193.875 278.534L193.22 278.951Z" fill="#3B2B5F"/>
        <path d="M196.383 283.417C197.027 284.238 197.694 285.04 198.382 285.823L198.965 285.31C198.286 284.538 197.629 283.747 196.994 282.937L196.383 283.417Z" fill="#3B2B5F"/>
        <path d="M199.968 287.551C200.689 288.305 201.43 289.038 202.192 289.75L202.722 289.183C201.97 288.481 201.239 287.757 200.528 287.015L199.968 287.551Z" fill="#3B2B5F"/>
        <path d="M203.938 291.316C204.728 291.996 205.538 292.653 206.366 293.288L206.838 292.672C206.021 292.046 205.223 291.397 204.444 290.727L203.938 291.316Z" fill="#3B2B5F"/>
        <path d="M208.256 294.677C209.108 295.275 209.977 295.851 210.863 296.403L211.273 295.743C210.399 295.199 209.542 294.632 208.702 294.041L208.256 294.677Z" fill="#3B2B5F"/>
        <path d="M212.88 297.6C213.785 298.113 214.707 298.601 215.643 299.064L215.987 298.368C215.063 297.911 214.155 297.43 213.262 296.924L212.88 297.6Z" fill="#3B2B5F"/>
        <path d="M217.767 300.058C218.717 300.48 219.682 300.875 220.66 301.245L220.934 300.518C219.969 300.154 219.018 299.764 218.081 299.349L217.767 300.058Z" fill="#3B2B5F"/>
        <path d="M222.87 302.027C223.857 302.353 224.855 302.652 225.865 302.924L226.067 302.174C225.071 301.906 224.086 301.611 223.113 301.289L222.87 302.027Z" fill="#3B2B5F"/>
        <path d="M228.141 303.486C229.154 303.714 230.177 303.914 231.21 304.086L231.337 303.32C230.319 303.151 229.31 302.953 228.311 302.728L228.141 303.486Z" fill="#3B2B5F"/>
        <path d="M233.53 304.424C234.558 304.552 235.596 304.652 236.641 304.723L236.694 303.949C235.663 303.878 234.64 303.779 233.625 303.653L233.53 304.424Z" fill="#3B2B5F"/>
        <path fill-rule="evenodd" clip-rule="evenodd" d="M240.55 191.958C271.028 191.958 295.729 167.431 295.729 137.183H296.505C296.505 167.866 271.45 192.735 240.55 192.735C209.65 192.735 184.595 167.866 184.595 137.183C184.595 106.499 209.65 81.6309 240.55 81.6309V82.4073C210.073 82.4073 185.371 106.934 185.371 137.183C185.371 167.431 210.073 191.958 240.55 191.958Z" fill="#3B2B5F"/>
        <path fill-rule="evenodd" clip-rule="evenodd" d="M296.483 135.614C296.497 136.135 296.505 136.658 296.505 137.183H295.729C295.729 136.665 295.722 136.15 295.707 135.636L296.483 135.614ZM296.062 130.157C296.192 131.186 296.295 132.225 296.368 133.271L295.594 133.325C295.522 132.294 295.421 131.27 295.292 130.255L296.062 130.157ZM295.102 124.768C295.335 125.78 295.54 126.803 295.716 127.836L294.951 127.967C294.778 126.949 294.576 125.94 294.346 124.942L295.102 124.768ZM293.611 119.501C293.944 120.486 294.249 121.483 294.527 122.492L293.78 122.699C293.505 121.704 293.204 120.721 292.876 119.749L293.611 119.501ZM291.602 114.409C292.031 115.357 292.435 116.319 292.812 117.294L292.088 117.574C291.717 116.613 291.319 115.664 290.895 114.729L291.602 114.409ZM289.097 109.542C289.619 110.443 290.116 111.36 290.588 112.293L289.895 112.643C289.431 111.724 288.941 110.82 288.426 109.931L289.097 109.542ZM286.125 104.946C286.734 105.792 287.318 106.656 287.879 107.537L287.225 107.954C286.672 107.086 286.095 106.234 285.496 105.4L286.125 104.946ZM282.717 100.665C283.406 101.448 284.072 102.25 284.716 103.071L284.106 103.55C283.471 102.741 282.814 101.95 282.135 101.178L282.717 100.665ZM278.908 96.7372C279.669 97.4495 280.411 98.1828 281.131 98.9362L280.571 99.4731C279.861 98.7301 279.129 98.007 278.378 97.3045L278.908 96.7372ZM274.734 93.1994C275.562 93.8345 276.371 94.4921 277.161 95.1713L276.656 95.7602C275.877 95.0904 275.078 94.4419 274.262 93.8156L274.734 93.1994ZM270.236 90.0849C271.122 90.6366 271.992 91.2123 272.844 91.811L272.398 92.4464C271.558 91.8559 270.7 91.2882 269.826 90.7442L270.236 90.0849ZM265.456 87.4239C266.393 87.8868 267.314 88.3749 268.22 88.8874L267.838 89.5632C266.945 89.0578 266.036 88.5765 265.113 88.12L265.456 87.4239ZM260.44 85.2429C261.418 85.6122 262.382 86.0079 263.333 86.4292L263.019 87.1391C262.081 86.7237 261.13 86.3335 260.166 85.9693L260.44 85.2429ZM255.234 83.5635C256.244 83.8355 257.243 84.1349 258.229 84.4608L257.986 85.1981C257.013 84.8767 256.029 84.5815 255.032 84.3133L255.234 83.5635ZM249.89 82.4013C250.922 82.5736 251.945 82.7739 252.958 83.0015L252.788 83.7591C251.789 83.5346 250.781 83.337 249.762 83.1671L249.89 82.4013ZM244.458 81.7643C245.504 81.8359 246.541 81.936 247.57 82.0638L247.474 82.8343C246.46 82.7082 245.436 82.6095 244.405 82.5388L244.458 81.7643ZM240.55 81.6309C241.074 81.6309 241.596 81.638 242.117 81.6522L242.096 82.4283C241.582 82.4143 241.067 82.4073 240.55 82.4073V81.6309Z" fill="#3B2B5F"/>
        <path d="M64.4312 477.706L64.8282 478.043L98.6139 438.236L98.6157 438.234C108.213 427.4 125.785 407.011 129.832 402.197C135.635 395.293 143.554 391.096 150.942 388.451C157.39 386.142 163.414 385.02 167.255 384.304L167.255 384.304C167.815 384.2 168.328 384.104 168.79 384.015C174.189 382.969 183.759 380.078 192.924 376.871C202.083 373.665 210.879 370.128 214.717 367.784L214.791 367.739L214.791 367.739C220.741 364.105 222.059 363.299 228.443 357.77L228.445 357.773C231.112 355.516 235.218 351.998 238.864 348.775C240.687 347.164 242.397 345.626 243.755 344.356C245.107 343.092 246.128 342.079 246.558 341.524C247.431 340.399 248.579 338.551 249.724 336.574L249.729 336.583C249.861 336.809 249.861 336.808 249.861 336.808L249.867 336.805L249.886 336.794L249.957 336.752C250.02 336.714 250.113 336.659 250.232 336.587C250.47 336.444 250.815 336.234 251.241 335.968C252.092 335.436 253.27 334.68 254.574 333.783C257.177 331.992 260.302 329.625 262.336 327.35C264.378 325.066 266.596 320.841 268.342 316.836C269.218 314.828 269.978 312.867 270.544 311.218C271.052 309.735 271.407 308.489 271.54 307.687C273.936 305.386 276.537 302.886 279.092 300.429L279.134 300.389L279.139 300.384L279.144 300.38C285.962 293.825 292.451 287.586 293.884 286.265C296.693 283.675 300.024 281.398 303.119 279.282C304.076 278.628 305.01 277.989 305.899 277.361C307.776 276.036 309.455 274.758 310.704 273.491C311.949 272.229 312.799 270.946 312.959 269.609C313.123 268.244 312.496 267.168 311.426 266.378C310.367 265.595 308.862 265.078 307.202 264.791C306.096 264.6 304.908 264.51 303.719 264.515C303.644 264.432 303.545 264.357 303.438 264.289C303.205 264.142 302.882 263.997 302.52 263.864C301.793 263.597 300.861 263.364 300.067 263.268C295.912 262.77 291.595 264.816 287.377 267.446C285.759 268.454 284.145 269.557 282.552 270.644C282.064 270.977 281.579 271.308 281.095 271.635C279.175 272.935 277.295 274.164 275.471 275.142C276.243 268.285 276.645 256.139 276.755 250.432L276.759 250.253L276.594 250.186C276.546 250.166 276.496 250.146 276.445 250.125C274.548 249.343 270.642 247.735 266.651 250.746C264.95 252.029 263.701 254.186 262.773 256.697C261.843 259.214 261.223 262.119 260.802 264.934C260.381 267.75 260.157 270.484 260.02 272.664C259.959 273.636 259.916 274.492 259.88 275.196L259.88 275.202L259.88 275.204L259.88 275.206L259.879 275.209C259.835 276.086 259.802 276.724 259.763 277.054C259.666 277.861 259.378 279.443 259.031 281.223L255.399 282.416L250.054 270.157L249.955 270.117C249.139 269.787 247.8 269.488 246.413 269.657C245.018 269.827 243.564 270.474 242.566 272.043C239.582 276.734 239.289 281.248 240.023 285.523C229.241 287.798 218.455 290.695 209.105 293.254C208.192 293.503 207.294 293.75 206.41 293.992C198.152 296.256 191.214 298.159 186.662 298.981C180.351 300.12 168.494 301.852 157.769 301.668C152.405 301.576 147.343 301.005 143.406 299.651C139.464 298.297 136.705 296.18 135.834 293.032C134.05 286.584 135.749 281.169 138.485 276.699C140.573 273.287 143.25 270.446 145.449 268.112L145.449 268.112L145.45 268.111C146.142 267.376 146.787 266.692 147.351 266.056C148.041 265.279 148.932 264.356 149.943 263.311L149.943 263.311C152.313 260.86 155.337 257.732 157.943 254.207C161.665 249.174 164.608 243.244 163.636 237.156C163.218 234.532 162.481 232.659 161.534 231.167C160.587 229.676 159.438 228.578 158.217 227.501C157.819 227.149 157.32 227.069 156.798 227.163C156.283 227.254 155.727 227.516 155.167 227.872C154.045 228.585 152.838 229.725 151.804 230.858C149.838 233.012 146.178 236.639 142.172 240.216C138.164 243.795 133.825 247.308 130.497 249.243C130.196 249.419 129.805 249.734 129.344 250.158C128.878 250.586 128.329 251.137 127.708 251.793C126.466 253.106 124.929 254.852 123.193 256.908C119.72 261.019 115.443 266.381 111.116 272.026C102.469 283.308 93.6023 295.752 90.5767 301.617C85.4248 311.605 83.6993 317.021 82.7906 321.25C82.5169 322.524 82.3183 323.682 82.1234 324.818C81.6693 327.465 81.2347 329.999 79.9166 333.619C76.7964 342.188 70.0447 352.192 62.6739 361.525C55.3073 370.852 47.34 379.488 41.8072 385.32L41.8029 385.324L-33.2887 463.352L-37.371 468.789L64.4312 477.706Z" fill="#24034F"/>
        <path opacity="0.3" fill-rule="evenodd" clip-rule="evenodd" d="M105.163 315.067L126.424 274.579L124.119 273.366L102.525 314.489L105.488 370.751L45.6474 441.33L47.6329 443.017L107.445 372.471L203.023 367.315L218.891 310.424L108.009 369.094L105.163 315.067ZM112.665 369.578L214.754 315.561L201.017 364.812L112.665 369.578Z" fill="#461685"/>
        <path d="M170.5 338.531C170.382 339.515 169.489 340.217 168.506 340.099C167.523 339.981 166.822 339.088 166.94 338.104C167.058 337.12 167.951 336.418 168.934 336.536C169.917 336.654 170.618 337.547 170.5 338.531Z" fill="#461685"/>
        <path d="M174.202 367.894C174.084 368.879 173.191 369.581 172.208 369.463C171.225 369.345 170.524 368.451 170.642 367.467C170.76 366.483 171.653 365.781 172.636 365.899C173.619 366.017 174.32 366.91 174.202 367.894Z" fill="#461685"/>
        <path fill-rule="evenodd" clip-rule="evenodd" d="M152.188 231.207C153.211 230.087 154.382 228.987 155.447 228.31C155.98 227.971 156.47 227.749 156.889 227.674C157.302 227.6 157.625 227.671 157.872 227.89C159.085 228.96 160.188 230.019 161.094 231.444C161.998 232.868 162.713 234.671 163.122 237.236C164.059 243.11 161.224 248.892 157.524 253.895C154.939 257.392 151.966 260.466 149.604 262.909L149.604 262.909L149.602 262.911C148.581 263.967 147.674 264.905 146.962 265.708C146.414 266.325 145.781 266.997 145.098 267.723L145.097 267.723L145.096 267.724C142.893 270.062 140.161 272.961 138.041 276.424C135.254 280.978 133.499 286.542 135.332 293.169C136.27 296.56 139.227 298.764 143.237 300.142C147.25 301.521 152.375 302.095 157.76 302.187C168.535 302.372 180.432 300.634 186.755 299.492C191.331 298.665 198.293 296.756 206.54 294.495C207.426 294.252 208.328 294.005 209.242 293.754C218.588 291.197 229.355 288.305 240.116 286.034C240.205 286.503 240.307 286.97 240.417 287.433C240.915 289.514 241.604 291.54 242.281 293.495L242.067 293.606C241.817 293.735 241.455 293.923 241.007 294.155C240.11 294.618 238.867 295.26 237.482 295.971C234.712 297.393 231.378 299.092 229.114 300.201C226.858 301.307 223.554 302.682 220.809 303.781C219.438 304.33 218.208 304.81 217.321 305.153C216.914 305.31 216.58 305.438 216.336 305.531C215.657 304.886 214.789 304.227 213.944 303.66C212.817 302.904 211.694 302.287 211.067 302.076L210.901 302.571C211.459 302.758 212.535 303.343 213.654 304.093C214.485 304.651 215.32 305.286 215.964 305.897C215.97 305.912 215.976 305.927 215.982 305.945C216.074 306.189 216.075 306.188 216.075 306.188L216.174 306.151C216.185 306.147 216.197 306.142 216.21 306.137C216.334 306.264 216.448 306.388 216.552 306.51C216.804 306.808 217.087 307.158 217.389 307.534C217.885 308.148 218.433 308.829 218.989 309.45C219.884 310.451 220.865 311.38 221.8 311.722L221.979 311.232C221.18 310.94 220.276 310.108 219.377 309.102C218.825 308.485 218.3 307.833 217.814 307.23C217.509 306.851 217.22 306.492 216.949 306.172C216.883 306.094 216.812 306.015 216.738 305.936C216.951 305.854 217.211 305.755 217.509 305.639C218.397 305.296 219.629 304.815 221.003 304.265C223.748 303.165 227.068 301.785 229.343 300.67C231.612 299.558 234.95 297.857 237.72 296.435C239.105 295.724 240.349 295.082 241.246 294.618C241.695 294.386 242.057 294.198 242.306 294.069L242.453 293.993C242.502 294.135 242.551 294.277 242.6 294.418C243.361 296.621 244.062 298.726 244.422 300.743C243.808 301.512 242.883 302.776 242.005 304.197C241.093 305.672 240.22 307.334 239.805 308.791C239.668 309.274 239.511 309.83 239.342 310.432L229.49 317.645L229.798 318.066L239.114 311.245C238.329 314.053 237.372 317.525 236.88 319.318L224.934 331.473L225.89 328.902L225.402 328.72L223.824 332.965C223.679 333.355 223.471 333.763 223.237 334.199C223.177 334.311 223.114 334.426 223.051 334.542C222.872 334.871 222.685 335.214 222.513 335.564C222.045 336.512 221.653 337.564 221.734 338.709L222.254 338.672C222.182 337.667 222.524 336.718 222.98 335.794C223.147 335.455 223.326 335.126 223.504 334.8C223.557 334.703 223.609 334.606 223.661 334.51L223.696 334.446C223.931 334.008 224.154 333.573 224.312 333.147L224.49 332.668L237.346 319.587L237.364 319.522C238.008 317.176 239.497 311.776 240.306 308.934C240.701 307.547 241.544 305.934 242.448 304.471C243.35 303.011 244.302 301.719 244.901 300.978L244.975 300.886L244.955 300.77C244.594 298.671 243.866 296.489 243.093 294.248C243.027 294.057 242.96 293.865 242.894 293.674C242.178 291.608 241.444 289.489 240.924 287.311C239.789 282.562 239.674 277.559 243.005 272.321C243.902 270.91 245.201 270.328 246.476 270.172C247.705 270.023 248.903 270.272 249.662 270.56L260.924 296.39C259.882 301.361 258.257 308.911 256.749 315.511C255.991 318.83 255.262 321.907 254.652 324.296C254.347 325.49 254.072 326.51 253.839 327.302C253.603 328.101 253.414 328.646 253.284 328.906C251.855 331.746 248.204 338.551 246.147 341.202C245.747 341.718 244.759 342.702 243.399 343.973C242.046 345.238 240.341 346.772 238.519 348.382C235.012 351.481 231.08 354.856 228.413 357.115L228.407 357.109C221.791 362.85 220.545 363.611 214.541 367.278L214.445 367.337C210.662 369.648 201.918 373.168 192.752 376.376C183.591 379.582 174.051 382.463 168.691 383.501C168.232 383.59 167.721 383.685 167.163 383.789C163.324 384.504 157.257 385.633 150.767 387.957C143.333 390.62 135.319 394.857 129.433 401.859C125.39 406.67 107.819 427.057 98.2244 437.888L98.2208 437.892L64.4316 477.703L64.8285 478.041L98.6141 438.233L98.6159 438.231C108.213 427.398 125.785 407.009 129.832 402.195C135.635 395.29 143.554 391.094 150.942 388.448C157.39 386.139 163.414 385.017 167.255 384.302C167.815 384.198 168.328 384.102 168.79 384.013C174.189 382.967 183.759 380.076 192.924 376.868C202.083 373.662 210.879 370.126 214.717 367.782L214.791 367.737C220.74 364.103 222.059 363.297 228.443 357.768L228.445 357.771C231.112 355.514 235.217 351.995 238.864 348.773C240.687 347.162 242.397 345.624 243.755 344.354C245.107 343.09 246.127 342.077 246.558 341.522C247.431 340.397 248.579 338.549 249.724 336.572L249.729 336.581C249.861 336.806 249.861 336.806 249.861 336.806L249.867 336.803L249.886 336.792L249.957 336.749C250.02 336.712 250.113 336.657 250.232 336.585C250.47 336.441 250.815 336.231 251.241 335.965C252.092 335.434 253.27 334.678 254.574 333.78C257.176 331.989 260.301 329.623 262.336 327.348C264.378 325.064 266.596 320.839 268.342 316.834C269.217 314.826 269.978 312.865 270.543 311.216C271.051 309.733 271.407 308.487 271.54 307.685C273.949 305.371 276.565 302.857 279.134 300.387L279.139 300.382L279.143 300.378C285.962 293.822 292.451 287.584 293.884 286.262C296.693 283.673 300.023 281.396 303.119 279.28C304.075 278.625 305.01 277.987 305.899 277.359C307.776 276.034 309.455 274.756 310.704 273.489C311.949 272.227 312.799 270.944 312.959 269.607C313.123 268.242 312.495 267.166 311.426 266.376C310.367 265.593 308.861 265.076 307.202 264.789C306.096 264.598 304.908 264.507 303.719 264.513C303.644 264.43 303.545 264.355 303.438 264.287C303.205 264.14 302.882 263.995 302.519 263.862C301.793 263.595 300.86 263.362 300.067 263.266C295.911 262.768 291.595 264.814 287.377 267.444C285.759 268.452 284.144 269.554 282.552 270.641C282.064 270.974 281.578 271.306 281.095 271.633C279.175 272.933 277.295 274.162 275.471 275.14C276.243 268.283 276.645 256.137 276.755 250.43L276.759 250.251L276.594 250.184C276.546 250.164 276.496 250.143 276.445 250.122C274.548 249.341 270.642 247.732 266.651 250.743C264.95 252.027 263.701 254.184 262.773 256.695C261.842 259.212 261.223 262.117 260.802 264.931C260.381 267.748 260.157 270.482 260.02 272.662C259.959 273.637 259.915 274.495 259.88 275.2L259.88 275.202L259.879 275.203L259.879 275.206C259.835 276.084 259.802 276.722 259.763 277.052C259.666 277.859 259.378 279.441 259.031 281.22L255.399 282.414L250.054 270.155L249.955 270.115C249.138 269.785 247.8 269.486 246.413 269.655C245.018 269.825 243.564 270.472 242.566 272.041C239.582 276.732 239.289 281.246 240.023 285.521C229.241 287.796 218.455 290.693 209.105 293.251C208.192 293.501 207.294 293.748 206.41 293.99C198.152 296.254 191.214 298.157 186.662 298.979C180.351 300.118 168.494 301.85 157.769 301.666C152.405 301.574 147.344 301.002 143.406 299.649C139.465 298.294 136.705 296.178 135.834 293.03C134.05 286.581 135.749 281.167 138.485 276.696C140.573 273.285 143.251 270.444 145.449 268.11C146.142 267.375 146.787 266.69 147.351 266.054C148.041 265.276 148.933 264.354 149.943 263.309C152.313 260.858 155.337 257.73 157.943 254.205C161.665 249.172 164.608 243.242 163.636 237.154C163.218 234.53 162.482 232.657 161.534 231.165C160.587 229.674 159.438 228.576 158.217 227.499C157.819 227.147 157.32 227.067 156.798 227.161C156.284 227.252 155.728 227.514 155.168 227.87C154.045 228.583 152.838 229.723 151.804 230.856C149.838 233.01 146.178 236.637 142.173 240.214C138.164 243.793 133.825 247.306 130.498 249.241C130.196 249.417 129.805 249.732 129.344 250.156C128.879 250.584 128.329 251.135 127.708 251.791C126.466 253.104 124.929 254.85 123.193 256.905C119.72 261.017 115.443 266.379 111.116 272.024C102.469 283.306 93.6026 295.75 90.577 301.615C85.4251 311.602 83.6995 317.019 82.7908 321.248C82.5172 322.522 82.3186 323.679 82.1236 324.816C81.6696 327.463 81.235 329.996 79.9169 333.616C76.7967 342.186 70.0451 352.19 62.6743 361.523C55.3077 370.85 47.3404 379.486 41.8076 385.317L41.8033 385.322L-58.4676 488.037L-58.1331 488.988L42.1853 385.676L42.1875 385.674C47.7239 379.838 55.7028 371.19 63.0829 361.846C70.4598 352.505 77.256 342.447 80.4063 333.795C81.741 330.129 82.1872 327.529 82.6447 324.864C82.8384 323.736 83.0341 322.595 83.3001 321.358C84.1965 317.186 85.9025 311.813 91.0398 301.854C94.0404 296.037 102.877 283.63 111.53 272.341C115.853 266.7 120.125 261.346 123.591 257.242C125.324 255.19 126.854 253.453 128.086 252.15C128.703 251.498 129.243 250.957 129.696 250.54C130.153 250.12 130.509 249.838 130.759 249.692C134.135 247.729 138.507 244.186 142.519 240.603C146.535 237.018 150.208 233.377 152.188 231.207ZM302.34 264.351C302.507 264.413 302.66 264.475 302.794 264.536C300.736 264.631 298.738 265.011 297.22 265.653C294.269 266.901 289.534 270.083 284.993 273.648C280.79 276.947 276.722 280.6 274.362 283.393C274.67 280.954 274.961 278.779 275.211 277.14C275.275 276.719 275.337 276.26 275.397 275.769C277.348 274.751 279.355 273.44 281.387 272.065C281.874 271.736 282.362 271.402 282.851 271.069L282.852 271.068L282.852 271.068C284.443 269.982 286.045 268.888 287.652 267.886C291.867 265.259 296.045 263.309 300.005 263.784C300.755 263.874 301.648 264.098 302.34 264.351ZM255.608 282.894L258.916 281.807C258.505 283.883 258.035 286.134 257.702 287.696L255.608 282.894ZM274.24 284.366C273.449 290.724 272.574 298.55 272.036 303.364L272.035 303.376C271.867 304.878 271.732 306.086 271.643 306.864C273.892 304.703 276.305 302.383 278.682 300.099L278.768 300.016L278.795 299.989L278.811 299.974C285.619 293.429 292.096 287.202 293.531 285.879C296.371 283.262 299.746 280.954 302.847 278.834L302.849 278.832L302.854 278.829L302.863 278.823C303.808 278.177 304.728 277.548 305.599 276.933C307.472 275.61 309.119 274.354 310.333 273.123C311.551 271.888 312.302 270.709 312.442 269.545C312.578 268.409 312.074 267.503 311.117 266.795C310.149 266.08 308.733 265.583 307.113 265.303C303.872 264.743 299.93 265.073 297.423 266.133C294.541 267.352 289.851 270.496 285.314 274.058C280.784 277.615 276.443 281.558 274.24 284.366ZM271.051 307.432L271.053 307.417L271.055 307.399L271.058 307.38C271.135 306.735 271.294 305.313 271.508 303.403L271.516 303.324C272.293 296.372 273.778 283.091 274.696 277.062C275.624 270.968 276.103 257.007 276.231 250.598C274.326 249.815 270.694 248.346 266.964 251.16C265.381 252.354 264.176 254.401 263.261 256.876C262.348 259.346 261.736 262.212 261.318 265.009C260.899 267.804 260.677 270.522 260.54 272.694C260.481 273.633 260.438 274.475 260.402 275.178L260.402 275.183L260.402 275.188L260.402 275.188C260.356 276.096 260.321 276.769 260.28 277.114C260.046 279.061 258.734 285.378 258.109 288.281L257.941 288.245L261.468 296.334L261.451 296.415C260.409 301.387 258.774 308.987 257.257 315.628C256.498 318.948 255.768 322.03 255.157 324.425C254.851 325.622 254.575 326.649 254.338 327.45C254.104 328.242 253.904 328.832 253.749 329.14C252.962 330.703 251.492 333.491 249.979 336.129C250.215 335.987 250.551 335.782 250.965 335.523C251.812 334.994 252.983 334.243 254.279 333.351C256.876 331.563 259.957 329.226 261.948 327C263.93 324.784 266.12 320.627 267.865 316.625C268.735 314.629 269.491 312.681 270.051 311.047C270.595 309.46 270.947 308.187 271.048 307.454L271.039 307.444L271.051 307.432Z" fill="#3B2B5F"/>
        <path d="M89.4435 349.37C89.2314 349.521 89.2315 349.521 89.2315 349.521L89.2332 349.523L89.2382 349.53L89.2576 349.557C89.2747 349.581 89.3001 349.616 89.3337 349.662C89.401 349.754 89.5013 349.89 89.6335 350.065C89.8981 350.416 90.2908 350.925 90.8049 351.563C91.8331 352.84 93.347 354.63 95.2918 356.69C99.1805 360.808 104.797 366.007 111.702 370.321C118.596 374.628 124.85 377.67 129.381 379.635C131.646 380.618 133.481 381.332 134.751 381.8C135.386 382.035 135.879 382.207 136.214 382.322C136.382 382.379 136.51 382.422 136.596 382.45L136.634 382.462L136.694 382.482L136.726 382.492L136.728 382.493C136.728 382.493 136.728 382.493 136.807 382.244C136.885 381.996 136.885 381.996 136.885 381.996L136.878 381.993L136.854 381.986C136.833 381.979 136.801 381.969 136.759 381.955C136.716 381.941 136.662 381.923 136.597 381.901C136.535 381.88 136.464 381.856 136.382 381.828C136.051 381.715 135.562 381.544 134.931 381.311C133.67 380.846 131.844 380.136 129.588 379.157C125.076 377.2 118.846 374.169 111.978 369.879C105.122 365.595 99.5395 360.429 95.6704 356.332C93.7362 354.283 92.2313 352.503 91.2104 351.236C90.7 350.602 90.3107 350.097 90.0492 349.751C89.9185 349.577 89.8198 349.444 89.7539 349.354C89.7295 349.321 89.7096 349.293 89.6943 349.272L89.6798 349.252L89.6614 349.226L89.6557 349.218C89.6557 349.218 89.6556 349.218 89.4435 349.37Z" fill="#3B2B5F"/>
        <path d="M140.765 323.403C143.459 319.562 148.315 316.552 151.954 314.953L152.164 315.431C148.562 317.013 143.806 319.974 141.191 323.702C139.888 325.561 139.128 327.595 139.289 329.735C139.449 331.873 140.532 334.16 142.993 336.522C147.93 341.261 154.974 343.783 161.802 345.002C168.626 346.221 175.2 346.133 179.162 345.678L179.221 346.196C175.214 346.657 168.589 346.744 161.711 345.516C154.836 344.288 147.675 341.739 142.632 336.899C140.104 334.472 138.942 332.072 138.769 329.774C138.597 327.479 139.415 325.328 140.765 323.403Z" fill="#3B2B5F"/>
        <path d="M227.47 315.306C227.726 315.711 228.439 316.88 229.252 318.346C229.687 319.129 229.733 319.8 229.585 320.328C229.441 320.848 229.115 321.206 228.843 321.382L228.561 320.944C228.734 320.832 228.976 320.576 229.084 320.188C229.189 319.809 229.174 319.279 228.797 318.599C227.988 317.142 227.281 315.981 227.03 315.586L227.47 315.306Z" fill="#3B2B5F"/>
        <path d="M200.865 361.732L202.929 364.72L206.549 364.457L203.564 366.522L203.827 370.145L201.763 367.157L198.143 367.42L201.128 365.355L200.865 361.732Z" fill="#461685"/>
        <path fill-rule="evenodd" clip-rule="evenodd" d="M205.227 367.463L204.28 367.008L204.392 366.773L205.339 367.227L205.227 367.463Z" fill="#461685"/>
        <path fill-rule="evenodd" clip-rule="evenodd" d="M205.7 367.69L205.384 367.539L205.497 367.304L205.812 367.455L205.7 367.69Z" fill="#461685"/>
        <path fill-rule="evenodd" clip-rule="evenodd" d="M206.174 367.917L205.858 367.765L205.971 367.53L206.286 367.682L206.174 367.917Z" fill="#461685"/>
        <path fill-rule="evenodd" clip-rule="evenodd" d="M199.259 364.602L200.206 365.056L200.319 364.821L199.372 364.367L199.259 364.602Z" fill="#461685"/>
        <path fill-rule="evenodd" clip-rule="evenodd" d="M198.786 364.376L199.101 364.527L199.214 364.292L198.898 364.141L198.786 364.376Z" fill="#461685"/>
        <path fill-rule="evenodd" clip-rule="evenodd" d="M198.312 364.149L198.627 364.301L198.74 364.065L198.424 363.914L198.312 364.149Z" fill="#461685"/>
        <path fill-rule="evenodd" clip-rule="evenodd" d="M203.917 362.961L203.463 363.909L203.228 363.797L203.682 362.849L203.917 362.961Z" fill="#461685"/>
        <path fill-rule="evenodd" clip-rule="evenodd" d="M204.143 362.486L203.992 362.802L203.757 362.689L203.908 362.373L204.143 362.486Z" fill="#461685"/>
        <path fill-rule="evenodd" clip-rule="evenodd" d="M204.369 362.012L204.218 362.328L203.983 362.216L204.134 361.9L204.369 362.012Z" fill="#461685"/>
        <path fill-rule="evenodd" clip-rule="evenodd" d="M201.058 368.933L201.512 367.985L201.277 367.872L200.823 368.82L201.058 368.933Z" fill="#461685"/>
        <path fill-rule="evenodd" clip-rule="evenodd" d="M200.83 369.407L200.982 369.091L200.747 368.979L200.595 369.294L200.83 369.407Z" fill="#461685"/>
        <path fill-rule="evenodd" clip-rule="evenodd" d="M200.604 369.881L200.755 369.565L200.521 369.452L200.369 369.768L200.604 369.881Z" fill="#461685"/>
        <path d="M217.067 307.329L219.072 310.23L222.588 309.975L219.689 311.981L219.945 315.499L217.94 312.598L214.425 312.853L217.323 310.847L217.067 307.329Z" fill="#461685"/>
        <path fill-rule="evenodd" clip-rule="evenodd" d="M221.303 312.897L220.383 312.456L220.496 312.221L221.416 312.662L221.303 312.897Z" fill="#461685"/>
        <path fill-rule="evenodd" clip-rule="evenodd" d="M221.762 313.117L221.455 312.97L221.568 312.735L221.875 312.882L221.762 313.117Z" fill="#461685"/>
        <path fill-rule="evenodd" clip-rule="evenodd" d="M222.222 313.338L221.915 313.191L222.028 312.956L222.335 313.103L222.222 313.338Z" fill="#461685"/>
        <path fill-rule="evenodd" clip-rule="evenodd" d="M215.508 310.119L216.428 310.56L216.54 310.325L215.62 309.884L215.508 310.119Z" fill="#461685"/>
        <path fill-rule="evenodd" clip-rule="evenodd" d="M215.049 309.899L215.355 310.046L215.468 309.811L215.161 309.664L215.049 309.899Z" fill="#461685"/>
        <path fill-rule="evenodd" clip-rule="evenodd" d="M214.587 309.679L214.893 309.826L215.006 309.591L214.699 309.444L214.587 309.679Z" fill="#461685"/>
        <path fill-rule="evenodd" clip-rule="evenodd" d="M220.034 308.523L219.594 309.444L219.359 309.331L219.799 308.41L220.034 308.523Z" fill="#461685"/>
        <path fill-rule="evenodd" clip-rule="evenodd" d="M220.254 308.063L220.108 308.369L219.873 308.257L220.019 307.95L220.254 308.063Z" fill="#461685"/>
        <path fill-rule="evenodd" clip-rule="evenodd" d="M220.475 307.602L220.328 307.909L220.093 307.796L220.24 307.489L220.475 307.602Z" fill="#461685"/>
        <path fill-rule="evenodd" clip-rule="evenodd" d="M217.259 314.323L217.699 313.403L217.464 313.29L217.024 314.211L217.259 314.323Z" fill="#461685"/>
        <path fill-rule="evenodd" clip-rule="evenodd" d="M217.038 314.784L217.185 314.477L216.95 314.364L216.803 314.671L217.038 314.784Z" fill="#461685"/>
        <path fill-rule="evenodd" clip-rule="evenodd" d="M216.818 315.245L216.964 314.938L216.729 314.825L216.583 315.132L216.818 315.245Z" fill="#461685"/>
        <path d="M105.328 373.888L97.5786 374.453L103.97 370.029L103.407 362.273L107.826 368.669L115.576 368.104L109.185 372.528L109.747 380.284L105.328 373.888ZM98.0032 367.315L98.1158 367.079L98.7918 367.403L98.6793 367.639L98.0032 367.315ZM99.0168 367.8L99.1294 367.565L99.8054 367.889L99.6928 368.124L99.0168 367.8ZM100.031 368.286L100.144 368.051L102.172 369.023L102.059 369.258L100.031 368.286ZM110.216 363.374L110.539 362.697L110.774 362.81L110.451 363.487L110.216 363.374ZM109.73 364.389L110.054 363.712L110.289 363.825L109.965 364.501L109.73 364.389ZM108.597 366.757L109.568 364.728L109.803 364.84L108.831 366.87L108.597 366.757ZM103.449 377.515L104.42 375.485L104.655 375.598L103.684 377.628L103.449 377.515ZM102.962 378.531L103.286 377.854L103.52 377.967L103.197 378.644L102.962 378.531ZM110.78 373.438L110.892 373.203L112.921 374.174L112.808 374.41L110.78 373.438ZM102.476 379.546L102.8 378.869L103.035 378.982L102.711 379.658L102.476 379.546ZM113.146 374.571L113.259 374.336L113.935 374.66L113.822 374.895L113.146 374.571ZM114.16 375.056L114.273 374.821L114.949 375.145L114.836 375.38L114.16 375.056Z" fill="#461685"/>
        <path d="M123.48 270.299L125.58 273.249L129.185 272.938L126.237 275.038L126.549 278.647L124.45 275.696L120.844 276.007L123.792 273.907L123.48 270.299Z" fill="#461685"/>
        <path fill-rule="evenodd" clip-rule="evenodd" d="M127.906 275.957L126.956 275.517L127.065 275.28L128.016 275.72L127.906 275.957Z" fill="#461685"/>
        <path fill-rule="evenodd" clip-rule="evenodd" d="M128.382 276.174L128.066 276.028L128.175 275.791L128.492 275.938L128.382 276.174Z" fill="#461685"/>
        <path fill-rule="evenodd" clip-rule="evenodd" d="M128.858 276.394L128.541 276.247L128.65 276.011L128.967 276.157L128.858 276.394Z" fill="#461685"/>
        <path fill-rule="evenodd" clip-rule="evenodd" d="M121.919 273.182L122.87 273.622L122.979 273.386L122.028 272.946L121.919 273.182Z" fill="#461685"/>
        <path fill-rule="evenodd" clip-rule="evenodd" d="M121.443 272.963L121.76 273.11L121.87 272.873L121.553 272.726L121.443 272.963Z" fill="#461685"/>
        <path fill-rule="evenodd" clip-rule="evenodd" d="M120.968 272.743L121.285 272.89L121.394 272.653L121.077 272.507L120.968 272.743Z" fill="#461685"/>
        <path fill-rule="evenodd" clip-rule="evenodd" d="M126.539 271.483L126.1 272.435L125.863 272.325L126.303 271.374L126.539 271.483Z" fill="#461685"/>
        <path fill-rule="evenodd" clip-rule="evenodd" d="M126.758 271.007L126.612 271.324L126.375 271.215L126.522 270.898L126.758 271.007Z" fill="#461685"/>
        <path fill-rule="evenodd" clip-rule="evenodd" d="M126.98 270.531L126.833 270.848L126.597 270.738L126.743 270.421L126.98 270.531Z" fill="#461685"/>
        <path fill-rule="evenodd" clip-rule="evenodd" d="M123.771 277.477L124.211 276.525L123.974 276.416L123.535 277.367L123.771 277.477Z" fill="#461685"/>
        <path fill-rule="evenodd" clip-rule="evenodd" d="M123.552 277.952L123.699 277.635L123.462 277.525L123.316 277.843L123.552 277.952Z" fill="#461685"/>
        <path fill-rule="evenodd" clip-rule="evenodd" d="M123.331 278.428L123.478 278.111L123.241 278.002L123.095 278.319L123.331 278.428Z" fill="#461685"/>
        <path d="M102.808 311.503L104.381 313.775L107.135 313.572L104.865 315.146L105.068 317.902L103.495 315.63L100.741 315.833L103.011 314.259L102.808 311.503Z" fill="#461685"/>
        <path fill-rule="evenodd" clip-rule="evenodd" d="M106.119 315.889L105.398 315.544L105.51 315.309L106.231 315.653L106.119 315.889Z" fill="#461685"/>
        <path fill-rule="evenodd" clip-rule="evenodd" d="M106.478 316.061L106.238 315.946L106.35 315.711L106.59 315.826L106.478 316.061Z" fill="#461685"/>
        <path fill-rule="evenodd" clip-rule="evenodd" d="M106.84 316.234L106.599 316.119L106.711 315.884L106.952 315.999L106.84 316.234Z" fill="#461685"/>
        <path fill-rule="evenodd" clip-rule="evenodd" d="M101.575 313.716L102.296 314.061L102.408 313.826L101.687 313.481L101.575 313.716Z" fill="#461685"/>
        <path fill-rule="evenodd" clip-rule="evenodd" d="M101.215 313.544L101.455 313.659L101.567 313.424L101.327 313.309L101.215 313.544Z" fill="#461685"/>
        <path fill-rule="evenodd" clip-rule="evenodd" d="M100.855 313.371L101.095 313.486L101.208 313.251L100.967 313.136L100.855 313.371Z" fill="#461685"/>
        <path fill-rule="evenodd" clip-rule="evenodd" d="M105.159 312.449L104.814 313.171L104.579 313.059L104.924 312.337L105.159 312.449Z" fill="#461685"/>
        <path fill-rule="evenodd" clip-rule="evenodd" d="M105.33 312.089L105.216 312.329L104.98 312.217L105.095 311.976L105.33 312.089Z" fill="#461685"/>
        <path fill-rule="evenodd" clip-rule="evenodd" d="M105.503 311.728L105.388 311.969L105.153 311.856L105.268 311.616L105.503 311.728Z" fill="#461685"/>
        <path fill-rule="evenodd" clip-rule="evenodd" d="M102.987 316.996L103.331 316.275L103.096 316.162L102.752 316.884L102.987 316.996Z" fill="#461685"/>
        <path fill-rule="evenodd" clip-rule="evenodd" d="M102.815 317.357L102.929 317.116L102.694 317.004L102.58 317.244L102.815 317.357Z" fill="#461685"/>
        <path fill-rule="evenodd" clip-rule="evenodd" d="M102.643 317.718L102.757 317.478L102.522 317.365L102.408 317.606L102.643 317.718Z" fill="#461685"/>
        <path d="M228.823 134.421C224.326 139.166 211.359 167.586 202.619 160.722C199.58 158.335 190.477 142.059 189.188 138.944C187.188 134.11 200.211 118.471 202.102 115.923L224.993 85.0535C224.993 85.0535 236.134 71.0749 241.286 69.2573C246.438 67.4397 329.68 40.8653 329.68 40.8653L346.81 150.562L329.447 171.245L330.394 181.331L325.13 194.911L325.361 205.343L323.407 209.567L307.817 207.81L294.945 124.479L296.584 118.04L283.375 112.745C283.375 112.745 264.904 104.654 259.509 105.441C254.113 106.228 228.823 134.421 228.823 134.421Z" fill="#24034F"/>
        <g clip-path="url(#clip1_10694_27948)">
            <path d="M277.948 138.119L286.787 144.835C299.739 154.639 308.151 170.417 308.638 189.243C309.575 224.638 282.231 257.57 247.631 262.717C231.494 265.132 216.631 261.129 205.279 252.526L196.44 245.809C207.793 254.413 214.461 236.257 230.571 233.767C265.145 228.545 279.095 217.258 278.259 181.912C277.773 163.086 290.901 147.923 277.948 138.119Z" fill="#24034F"/>
            <path d="M278.107 137.91L286.946 144.626L286.945 144.626C299.964 154.48 308.412 170.334 308.901 189.236C309.841 224.762 282.403 257.811 247.669 262.977L247.669 262.977C231.465 265.402 216.53 261.384 205.119 252.736L205.119 252.736L196.28 246.019L196.598 245.6C199.383 247.71 201.852 248.163 204.241 247.65C206.654 247.132 209.015 245.624 211.565 243.737C216.597 240.012 222.305 234.846 230.341 233.537L230.531 233.507L230.532 233.507C247.809 230.898 259.864 226.78 267.505 218.953C275.137 211.134 278.413 199.563 277.996 181.919C277.873 177.181 278.608 172.68 279.57 168.448C280.051 166.332 280.59 164.28 281.107 162.301C281.625 160.32 282.122 158.413 282.521 156.577C283.32 152.901 283.722 149.541 283.134 146.501C282.55 143.482 280.987 140.759 277.817 138.35L277.788 138.329L278.106 137.909L278.107 137.91ZM281.187 140.911C282.499 142.613 283.273 144.446 283.651 146.4C284.259 149.549 283.838 152.994 283.035 156.688C282.633 158.537 282.134 160.455 281.616 162.434C281.098 164.415 280.562 166.458 280.083 168.564C279.125 172.776 278.401 177.229 278.522 181.905L278.522 181.905C278.94 199.608 275.659 211.353 267.882 219.32C260.113 227.278 247.907 231.415 230.611 234.027L230.425 234.057C222.549 235.339 216.966 240.394 211.878 244.16C209.327 246.048 206.886 247.621 204.352 248.165C202.796 248.499 201.217 248.444 199.567 247.856L205.438 252.316L205.437 252.317C216.732 260.876 231.523 264.862 247.592 262.457L247.592 262.457C282.058 257.33 309.308 224.514 308.375 189.25L308.375 189.25C307.89 170.501 299.514 154.799 286.628 145.045L286.627 145.045L281.187 140.911Z" fill="#3B2B5F"/>
            <path d="M235.336 127.431C269.91 122.209 298.705 146.682 299.566 182.104C300.503 217.499 273.159 250.431 238.559 255.578C203.986 260.799 175.191 236.326 174.329 200.905C173.467 165.483 200.763 132.652 235.336 127.431Z" fill="#24034F"/>
            <path d="M174.066 200.911C173.201 165.359 200.59 132.412 235.297 127.17C270.031 121.924 298.963 146.52 299.829 182.096L299.829 182.096C300.769 217.622 273.332 250.671 238.598 255.837C203.865 261.083 174.932 236.487 174.066 200.911ZM235.376 127.69C200.936 132.892 173.734 165.607 174.592 200.898C175.45 236.164 204.106 260.514 238.52 255.317L238.521 255.317C272.986 250.19 300.236 217.375 299.303 182.11L299.303 182.11C298.445 146.843 269.789 122.493 235.376 127.69Z" fill="#3B2B5F"/>
            <path opacity="0.1" d="M248.587 227.549C240.833 221.46 244.073 212.025 247.183 207.835L291.902 143.886L305.138 181.495L268.776 225.162C264.278 229.907 257.326 234.412 248.587 227.549Z" fill="black"/>
        </g>
        <path d="M247.641 223.142C239.888 217.054 243.127 207.619 246.237 203.43L290.955 139.483L321.004 164.882L267.829 220.755C263.331 225.5 256.38 230.005 247.641 223.142Z" fill="#24034F"/>
        <path d="M258.29 105.466C259.109 105.178 260.316 105.185 261.761 105.387C263.218 105.59 264.957 105.997 266.863 106.543C270.677 107.635 275.189 109.289 279.506 111.008C283.824 112.727 287.952 114.513 291.001 115.868C292.525 116.546 293.779 117.117 294.653 117.518C295.09 117.718 295.431 117.876 295.664 117.985C295.78 118.039 295.869 118.08 295.929 118.108C295.959 118.122 295.982 118.133 295.997 118.14C296.004 118.144 296.01 118.146 296.014 118.148L296.02 118.151C296.02 118.151 296.018 118.155 295.908 118.389C295.797 118.625 295.796 118.627 295.796 118.627L295.79 118.625C295.787 118.623 295.781 118.62 295.773 118.617C295.758 118.61 295.736 118.599 295.706 118.585C295.646 118.557 295.558 118.516 295.442 118.462C295.21 118.354 294.869 118.196 294.433 117.996C293.561 117.596 292.309 117.026 290.787 116.349C287.742 114.995 283.621 113.213 279.311 111.497C275.001 109.781 270.507 108.133 266.718 107.049C264.823 106.506 263.111 106.106 261.688 105.908C260.255 105.708 259.156 105.719 258.465 105.963C257.263 106.387 255.72 107.358 253.966 108.74C252.217 110.117 250.275 111.888 248.277 113.892C244.281 117.901 240.07 122.831 236.737 127.385L236.313 127.074C239.661 122.498 243.889 117.548 247.905 113.521C249.913 111.507 251.87 109.721 253.641 108.326C255.407 106.936 257.004 105.92 258.29 105.466ZM421.585 -72.402C421.586 -72.4027 421.586 -72.4031 421.802 -72.2526C422.017 -72.1022 422.017 -72.1017 422.017 -72.101L422.006 -72.0854C421.998 -72.0742 421.986 -72.0576 421.971 -72.0355C421.94 -71.9913 421.894 -71.9255 421.834 -71.8386C421.712 -71.6646 421.532 -71.4064 421.296 -71.0692C420.825 -70.3947 420.133 -69.404 419.247 -68.14C417.477 -65.6119 414.934 -61.9896 411.849 -57.6127C405.677 -48.8589 397.33 -37.0862 388.631 -25.0111C379.932 -12.9363 370.878 -0.557745 363.294 9.40725C359.502 14.3896 356.076 18.7701 353.244 22.2084C350.416 25.6412 348.169 28.15 346.738 29.376C345.3 30.6081 342.78 32.078 339.469 33.713C336.151 35.3511 332.02 37.1647 327.345 39.0809C317.995 42.9136 306.456 47.1623 294.876 51.2481C283.295 55.3341 271.669 59.2581 262.143 62.4413C252.614 65.6253 245.192 68.0663 242.011 69.1887C240.468 69.7332 238.569 71.0242 236.411 72.9089C234.258 74.7891 231.866 77.2422 229.335 80.0866C224.275 85.7751 218.674 93.0125 213.345 100.323C202.685 114.944 193.121 129.837 191.141 133.167C189.995 135.094 189.448 136.205 189.256 137.06C189.071 137.888 189.216 138.489 189.539 139.428C189.685 139.85 189.874 140.257 190.099 140.646L194.956 149.073L194.5 149.336L189.643 140.909C189.403 140.494 189.199 140.056 189.042 139.6C188.711 138.638 188.524 137.921 188.743 136.945C188.956 135.996 189.548 134.817 190.689 132.898C192.679 129.552 202.252 114.645 212.919 100.013C218.254 92.6967 223.865 85.4437 228.942 79.7368C231.481 76.8835 233.889 74.4126 236.065 72.5124C238.236 70.6168 240.196 69.2711 241.836 68.6922C245.023 67.5679 252.454 65.1238 261.977 61.9419C271.502 58.7591 283.124 54.8362 294.701 50.7517C306.279 46.6669 317.808 42.4216 327.146 38.5938C331.815 36.6799 335.934 34.8715 339.236 33.241C342.544 31.6074 345.012 30.1618 346.396 28.9761C347.787 27.7842 350.008 25.3101 352.838 21.8739C355.664 18.443 359.085 14.0683 362.875 9.08841C370.456 -0.871128 379.506 -13.2453 388.204 -25.3187C396.902 -37.3919 405.248 -49.163 411.419 -57.9159C414.504 -62.2924 417.046 -65.9143 418.817 -68.442C419.702 -69.7058 420.394 -70.6961 420.865 -71.3704C421.101 -71.7076 421.281 -71.9658 421.402 -72.1397C421.463 -72.2265 421.509 -72.2924 421.539 -72.3365C421.555 -72.3586 421.566 -72.3753 421.574 -72.3864L421.585 -72.402Z" fill="#3B2B5F"/>
        <path d="M296.075 118.038L295.627 118.314L284.085 99.5878L284.534 99.3112L296.075 118.038Z" fill="#3B2B5F"/>
        <path d="M545.784 -82.0373L428.092 39.3525L428.09 39.3552L428.087 39.3576C417.36 49.8282 410.921 64.2299 403.684 80.1461C396.453 96.0486 388.434 113.434 374.541 129.782C369.813 135.345 360.312 142.135 350.251 148.423C340.18 154.717 329.515 160.529 322.428 164.135C321.683 164.514 321.011 165.012 320.434 165.617L267.967 220.614C265.704 223.001 262.8 225.356 259.336 226.236C255.853 227.12 251.848 226.503 247.422 223.026C243.466 219.919 242.31 215.948 242.544 212.23C242.777 208.526 244.388 205.071 245.967 202.943C258.192 186.473 282.514 150.542 288.263 142.068C289.679 139.981 290.937 137 292.051 133.526C293.163 130.056 294.125 126.112 294.955 122.11C296.616 114.106 297.745 105.891 298.488 100.809L299.009 100.885C298.267 105.961 297.135 114.194 295.471 122.217C294.638 126.229 293.671 130.193 292.552 133.687C291.433 137.177 290.156 140.215 288.699 142.364C282.953 150.832 258.623 186.775 246.39 203.257C244.859 205.319 243.295 208.678 243.069 212.263C242.845 215.835 243.947 219.628 247.747 222.612C252.062 226.002 255.903 226.564 259.206 225.726C262.528 224.882 265.349 222.611 267.585 220.252L267.586 220.252L320.053 165.254C320.672 164.605 321.392 164.072 322.19 163.666C329.266 160.065 339.917 154.261 349.972 147.976C360.037 141.686 369.471 134.935 374.14 129.441C387.98 113.156 395.973 95.8327 403.205 79.9283C410.43 64.0395 416.906 49.5379 427.715 38.9849L545.407 -82.4037L545.784 -82.0373Z" fill="#3B2B5F"/>
        <path d="M308.863 177.4C312.064 179.667 315.119 182.083 317.57 184.229C320.013 186.369 321.877 188.259 322.674 189.472C327.452 196.746 326.489 204.742 323.276 211.068C322.039 213.505 318.923 214.027 316.615 212.713C313.244 210.794 308.971 208.47 307.14 207.26L307.43 206.821C309.241 208.018 313.481 210.322 316.875 212.255C318.989 213.459 321.738 212.935 322.807 210.83C325.96 204.62 326.881 196.835 322.234 189.761C321.481 188.615 319.668 186.766 317.223 184.626C314.787 182.492 311.746 180.087 308.558 177.83L308.863 177.4Z" fill="#3B2B5F"/>
        <path d="M323.531 163.262C324.256 163.905 324.837 164.451 325.249 164.866C331.684 171.344 331.629 180.662 329.297 185.98C328.835 187.035 327.956 187.644 326.956 187.84C325.963 188.034 324.853 187.822 323.894 187.253C319.354 184.56 313.838 181.217 308.466 177.875L308.745 177.428C314.113 180.768 319.626 184.109 324.163 186.8C325.022 187.31 326.002 187.49 326.855 187.323C327.703 187.157 328.429 186.65 328.815 185.768C331.079 180.605 331.127 171.531 324.876 165.238C324.473 164.832 323.901 164.294 323.182 163.656L323.531 163.262Z" fill="#3B2B5F"/>
        <path opacity="0.3" d="M471.946 -64.0659L352.202 76.9808L341.604 134.152L283.255 178.045L282.202 176.643L340.005 133.161L350.309 77.57L250.95 86.5997L212.689 135.015L211.314 133.928L250.042 84.9202L350.946 75.7501L470.61 -65.2015L471.946 -64.0659Z" fill="#461685"/>
        <path d="M248.598 87.0401C249.263 88.0115 250.589 88.2591 251.56 87.5933C252.531 86.9275 252.78 85.6003 252.115 84.6289C251.45 83.6576 250.124 83.4099 249.153 84.0757C248.182 84.7415 247.933 86.0687 248.598 87.0401Z" fill="#461685"/>
        <path d="M338.61 134.984C339.275 135.956 340.601 136.203 341.572 135.538C342.543 134.872 342.791 133.545 342.127 132.573C341.462 131.602 340.136 131.354 339.165 132.02C338.193 132.686 337.945 134.013 338.61 134.984Z" fill="#461685"/>
        <path d="M355.818 78.8013L366.43 72.085L353.882 72.4846L347.174 61.8741L347.565 74.4252L336.954 81.1414L349.502 80.742L356.21 91.3523L355.818 78.8013ZM359.031 63.2245L358.66 63.0273L358.092 64.0978L358.464 64.2949L359.031 63.2245ZM358.18 64.8313L357.808 64.6342L357.24 65.7046L357.612 65.9017L358.18 64.8313ZM357.329 66.4368L356.957 66.2396L355.254 69.4509L355.626 69.648L357.329 66.4368ZM339.381 69.8485L338.312 69.2813L338.114 69.6532L339.184 70.2206L339.381 69.8485ZM340.985 70.6955L339.915 70.1284L339.718 70.5003L340.788 71.0674L340.985 70.6955ZM344.731 72.6819L341.521 70.9801L341.324 71.352L344.533 73.0538L344.731 72.6819ZM361.739 81.7002L358.529 79.9984L358.332 80.3703L361.542 82.0721L361.739 81.7002ZM363.347 82.5533L362.277 81.9861L362.08 82.358L363.15 82.9253L363.347 82.5533ZM348.301 83.4577L347.929 83.2605L346.226 86.4718L346.597 86.6689L348.301 83.4577ZM364.951 83.4042L363.881 82.837L363.684 83.2089L364.754 83.7763L364.951 83.4042ZM346.314 87.2041L345.942 87.007L345.374 88.0774L345.746 88.2746L346.314 87.2041ZM345.462 88.8078L345.09 88.6107L344.522 89.6811L344.894 89.8782L345.462 88.8078Z" fill="#461685"/>
        <path d="M285.198 178.044L288.62 175.626L284.446 175.972L282.031 172.551L282.374 176.726L278.953 179.144L283.127 178.798L285.542 182.219L285.198 178.044ZM286.004 172.797L285.877 172.738L285.706 173.104L285.833 173.163L286.004 172.797ZM285.748 173.347L285.621 173.288L285.45 173.654L285.577 173.714L285.748 173.347ZM285.492 173.897L285.365 173.838L284.852 174.937L284.979 174.996L285.492 173.897ZM279.57 175.34L279.204 175.169L279.145 175.296L279.511 175.467L279.57 175.34ZM280.119 175.595L279.753 175.424L279.693 175.551L280.059 175.722L280.119 175.595ZM281.401 176.193L280.302 175.68L280.243 175.807L281.341 176.32L281.401 176.193ZM287.22 178.909L286.122 178.397L286.063 178.524L287.161 179.036L287.22 178.909ZM287.771 179.165L287.405 178.994L287.345 179.122L287.711 179.292L287.771 179.165ZM282.773 179.721L282.646 179.662L282.133 180.761L282.26 180.82L282.773 179.721ZM288.319 179.422L287.953 179.251L287.894 179.378L288.26 179.549L288.319 179.422ZM282.174 181.004L282.047 180.945L281.876 181.311L282.003 181.371L282.174 181.004ZM281.918 181.553L281.791 181.493L281.619 181.86L281.747 181.919L281.918 181.553Z" fill="#461685"/>
        <path d="M214.705 135.924L222.303 130.667L213.091 131.339L207.839 123.741L208.506 132.956L200.908 138.214L210.12 137.542L215.372 145.139L214.705 135.924ZM216.597 124.375L216.318 124.241L215.932 125.045L216.212 125.179L216.597 124.375ZM216.019 125.582L215.74 125.448L215.355 126.252L215.634 126.386L216.019 125.582ZM215.442 126.788L215.163 126.654L214.008 129.066L214.287 129.2L215.442 126.788ZM202.352 129.838L201.548 129.454L201.414 129.733L202.218 130.118L202.352 129.838ZM203.556 130.413L202.752 130.028L202.618 130.308L203.422 130.693L203.556 130.413ZM206.369 131.76L203.959 130.606L203.825 130.886L206.236 132.04L206.369 131.76ZM219.144 137.876L216.734 136.722L216.6 137.001L219.011 138.156L219.144 137.876ZM220.352 138.454L219.549 138.069L219.415 138.349L220.218 138.733L220.352 138.454ZM209.319 139.572L209.039 139.439L207.884 141.851L208.163 141.984L209.319 139.572ZM221.557 139.031L220.754 138.646L220.62 138.926L221.423 139.31L221.557 139.031ZM207.971 142.387L207.692 142.254L207.307 143.058L207.586 143.191L207.971 142.387ZM207.393 143.592L207.114 143.458L206.729 144.262L207.008 144.396L207.393 143.592Z" fill="#461685"/>
    </g>
    <defs>
        <clipPath id="clip0_10694_27948">
            <rect width="476" height="439" fill="white" transform="translate(0 -26)"/>
        </clipPath>
        <clipPath id="clip1_10694_27948">
            <rect width="138.257" height="135.632" fill="white" transform="matrix(0.943024 -0.332725 0.331978 0.943287 153.817 154.091)"/>
        </clipPath>
    </defs>
</svg>
