<svg width="100%" height="100%" viewBox="0 0 154 154" fill="none" xmlns="http://www.w3.org/2000/svg">
    <path d="M67.3754 5.55746C73.3313 2.11878 80.6694 2.11878 86.6254 5.55747L134.059 32.9435C140.015 36.3822 143.684 42.7371 143.684 49.6145V104.386C143.684 111.264 140.015 117.619 134.059 121.057L86.6254 148.443C80.6694 151.882 73.3313 151.882 67.3754 148.443L19.9414 121.057C13.9854 117.619 10.3164 111.264 10.3164 104.386L10.3164 49.6145C10.3164 42.7371 13.9854 36.3822 19.9414 32.9435L67.3754 5.55746Z" fill="#1E1F81"/>
    <path fill-rule="evenodd" clip-rule="evenodd" d="M72.6527 113.306L72.7137 40.6725L81.3708 40.68L81.3099 113.314L72.6527 113.306Z" fill="white"/>
    <path fill-rule="evenodd" clip-rule="evenodd" d="M106.068 98.9513L43.6208 62.5798L47.9557 55.0352L110.403 91.4067L106.068 98.9513Z" fill="white"/>
    <path fill-rule="evenodd" clip-rule="evenodd" d="M47.9189 98.9005L110.427 62.6381L106.105 55.0859L43.5967 91.3484L47.9189 98.9005Z" fill="white"/>
    <path d="M47.9277 74.206L45.4994 95L64.5064 103.079" stroke="white" stroke-width="8"/>
    <path d="M106.5 79L108.928 58.206L89.9213 50.1272" stroke="white" stroke-width="8"/>
</svg>
