<svg width="24" height="22" viewBox="0 0 24 22" fill="none" xmlns="http://www.w3.org/2000/svg">
    <path d="M23.9999 8.56967C23.9854 9.56881 23.8839 10.5648 23.6966 11.5463C22.3801 18.3893 18.4502 21.8108 11.9067 21.8108H8.37988V21.7614L9.39308 17.0391H11.6416C15.1852 17.0391 17.3306 15.0247 18.078 10.9959C18.1319 10.7376 18.1746 10.477 18.2083 10.2141L23.892 6.92969C23.9659 7.47319 24.002 8.02117 23.9999 8.56967Z" fill="#23024D"/>
    <path d="M21.9196 2.63445L16.8222 5.58192C16.1122 5.10565 15.1477 4.86677 13.9286 4.86527H5.69501L5.71972 4.74845L6.69247 0.190206H15.2294C16.3191 0.177943 17.4054 0.315521 18.4576 0.599078C19.6678 0.922019 20.7792 1.53946 21.6927 2.39632C21.7713 2.48168 21.8454 2.55582 21.9196 2.63445Z" fill="#23024D"/>
    <path d="M13.7938 8.92383L13.039 13.6393H9.50739L7.78204 21.7606L7.77081 21.81H0L2.91826 17.8741L4.83232 8.92383H13.7938Z" fill="#23024D"/>
</svg>
