<svg width="624" height="282" viewBox="0 0 624 282" fill="none" xmlns="http://www.w3.org/2000/svg">
    <g clip-path="url(#clip0_12379_81915)">
        <rect width="624" height="282" rx="10" fill="#FAFAFB"/>
        <g opacity="0.1">
            <path d="M286.712 25.4477L294.835 55.7648L295.569 55.5682L287.446 25.251L286.712 25.4477Z" fill="#23024D"/>
            <path d="M254.132 28.3759L256.862 33.1031L257.52 32.7232L254.79 27.9959L254.132 28.3759Z" fill="#23024D"/>
            <path d="M390.42 180.976L395.147 183.705L395.527 183.047L390.8 180.318L390.42 180.976Z" fill="#23024D"/>
            <path d="M399.088 185.98L411.3 193.03L411.68 192.372L399.468 185.322L399.088 185.98Z" fill="#23024D"/>
            <path d="M427.846 202.582L415.634 195.532L416.014 194.874L428.226 201.924L427.846 202.582Z" fill="#23024D"/>
            <path d="M266.185 49.2546L259.134 37.0426L259.792 36.6627L266.843 48.8747L266.185 49.2546Z" fill="#23024D"/>
            <path d="M268.689 53.588L275.74 65.8L276.398 65.4201L269.347 53.208L268.689 53.588Z" fill="#23024D"/>
            <path d="M232.875 114.567L236.39 115.509L236.587 114.775L233.072 113.833L232.875 114.567Z" fill="#23024D"/>
            <path d="M229.8 113.743L220.573 111.271L220.77 110.537L229.997 113.009L229.8 113.743Z" fill="#23024D"/>
            <path d="M208.27 107.974L217.497 110.447L217.693 109.713L208.466 107.24L208.27 107.974Z" fill="#23024D"/>
            <path d="M372.928 234.414L371.108 231.262L371.767 230.882L373.586 234.034L372.928 234.414Z" fill="#23024D"/>
            <path d="M364.74 220.232L369.516 228.505L370.174 228.125L365.398 219.852L364.74 220.232Z" fill="#23024D"/>
            <path d="M363.147 217.474L358.371 209.202L359.029 208.822L363.805 217.094L363.147 217.474Z" fill="#23024D"/>
            <path d="M226.064 85.9129L213.852 78.8623L214.231 78.2042L226.444 85.2548L226.064 85.9129Z" fill="#23024D"/>
            <path d="M230.396 88.415L242.608 95.4657L242.988 94.8076L230.776 87.757L230.396 88.415Z" fill="#23024D"/>
            <path d="M386.84 207.196L376.869 197.225L377.406 196.688L387.377 206.659L386.84 207.196Z" fill="#23024D"/>
            <path d="M390.379 210.735L400.35 220.706L400.888 220.169L390.917 210.198L390.379 210.735Z" fill="#23024D"/>
            <path d="M250.44 70.7953L255.586 75.9416L256.123 75.4043L250.977 70.2579L250.44 70.7953Z" fill="#23024D"/>
            <path d="M245.934 66.2924L232.104 52.4615L232.641 51.9242L246.472 65.7551L245.934 66.2924Z" fill="#23024D"/>
            <path d="M216.543 36.6627L227.282 47.6366L227.82 47.0992L217.08 36.1253L216.543 36.6627Z" fill="#23024D"/>
            <path d="M353.074 273.32L351.191 266.29L351.924 266.094L353.808 273.124L353.074 273.32Z" fill="#23024D"/>
            <path d="M344.482 241.245L349.544 260.139L350.278 259.942L345.216 241.049L344.482 241.245Z" fill="#23024D"/>
            <path d="M342.716 234.655L337.772 216.201L338.506 216.004L343.45 234.458L342.716 234.655Z" fill="#23024D"/>
            <path d="M427.921 167.154L397.604 159.031L397.801 158.297L428.118 166.42L427.921 167.154Z" fill="#23024D"/>
            <path d="M239.833 183.707L244.56 180.977L244.18 180.319L239.453 183.049L239.833 183.707Z" fill="#23024D"/>
            <path d="M235.892 185.979L223.68 193.03L223.3 192.372L235.512 185.321L235.892 185.979Z" fill="#23024D"/>
            <path d="M207.135 202.582L219.347 195.532L218.967 194.874L206.755 201.924L207.135 202.582Z" fill="#23024D"/>
            <path d="M380.849 28.3759L378.119 33.1031L377.461 32.7232L380.191 27.9959L380.849 28.3759Z" fill="#23024D"/>
            <path d="M368.793 49.2546L375.844 37.0426L375.186 36.6627L368.135 48.8747L368.793 49.2546Z" fill="#23024D"/>
            <path d="M366.293 53.588L359.242 65.8L358.584 65.4201L365.635 53.208L366.293 53.588Z" fill="#23024D"/>
            <path d="M402.106 114.567L398.591 115.509L398.394 114.775L401.91 113.833L402.106 114.567Z" fill="#23024D"/>
            <path d="M405.18 113.743L414.407 111.271L414.21 110.537L404.983 113.009L405.18 113.743Z" fill="#23024D"/>
            <path d="M426.711 107.974L417.484 110.447L417.288 109.713L426.515 107.24L426.711 107.974Z" fill="#23024D"/>
            <path d="M262.052 234.414L263.872 231.262L263.214 230.882L261.394 234.034L262.052 234.414Z" fill="#23024D"/>
            <path d="M270.241 220.232L265.464 228.505L264.806 228.125L269.583 219.852L270.241 220.232Z" fill="#23024D"/>
            <path d="M271.833 217.474L276.609 209.202L275.951 208.822L271.175 217.094L271.833 217.474Z" fill="#23024D"/>
            <path d="M408.915 85.9136L421.127 78.863L420.747 78.2049L408.535 85.2555L408.915 85.9136Z" fill="#23024D"/>
            <path d="M404.583 88.415L392.371 95.4657L391.991 94.8076L404.203 87.757L404.583 88.415Z" fill="#23024D"/>
            <path d="M248.139 207.196L258.11 197.225L257.573 196.688L247.601 206.659L248.139 207.196Z" fill="#23024D"/>
            <path d="M244.599 210.734L234.628 220.705L234.09 220.168L244.062 210.197L244.599 210.734Z" fill="#23024D"/>
            <path d="M384.538 70.7953L379.392 75.9416L378.855 75.4043L384.001 70.2579L384.538 70.7953Z" fill="#23024D"/>
            <path d="M389.044 66.2924L402.874 52.4615L402.337 51.9242L388.506 65.7551L389.044 66.2924Z" fill="#23024D"/>
            <path d="M416.495 38.997L407.696 47.6366L407.158 47.0992L415.958 38.4597L416.495 38.997Z" fill="#23024D"/>
            <path d="M281.907 273.32L283.791 266.29L283.057 266.094L281.173 273.124L281.907 273.32Z" fill="#23024D"/>
            <path d="M290.499 241.245L285.437 260.139L284.703 259.942L289.765 241.049L290.499 241.245Z" fill="#23024D"/>
            <path d="M292.265 234.655L297.209 216.201L296.475 216.004L291.531 234.458L292.265 234.655Z" fill="#23024D"/>
            <path d="M207.06 167.154L237.377 159.031L237.18 158.297L206.863 166.42L207.06 167.154Z" fill="#23024D"/>
            <path d="M348.268 25.4477L340.144 55.7648L339.41 55.5682L347.534 25.251L348.268 25.4477Z" fill="#23024D"/>
            <path d="M124.961 134.586H118V133.826H124.961V134.586Z" fill="#000636"/>
            <path d="M156.984 134.586H131.922V133.826H156.984V134.586Z" fill="#000636"/>
            <path d="M459.808 134.586H165.338V133.826H459.808V134.586Z" fill="#000636"/>
            <path d="M500.881 134.586H475.82V133.826H500.881V134.586Z" fill="#000636"/>
            <path d="M514.803 134.586H507.842V133.826H514.803V134.586Z" fill="#000636"/>
            <path d="M314.145 -92L314.145 -82.6051H313.385L313.385 -92H314.145Z" fill="#000636"/>
            <path d="M314.145 -73.2103L314.145 -39.3887H313.385L313.385 -73.2103H314.145Z" fill="#000636"/>
            <path d="M314.145 -17.7799L314.145 379.624H313.385L313.385 -17.7799H314.145Z" fill="#000636"/>
            <path d="M314.145 390.898L314.145 424.719H313.385L313.385 390.898H314.145Z" fill="#000636"/>
            <path d="M314.145 434.114L314.145 443.509H313.385L313.385 434.114H314.145Z" fill="#000636"/>
            <path fill-rule="evenodd" clip-rule="evenodd" d="M312.214 49.5617C312.73 49.5526 313.248 49.5481 313.767 49.5481C314.285 49.5481 314.803 49.5526 315.32 49.5617L315.306 50.3215C314.794 50.3125 314.281 50.308 313.767 50.308C313.252 50.308 312.739 50.3125 312.227 50.3215L312.214 49.5617ZM317.637 49.6328C318.672 49.6782 319.703 49.7417 320.728 49.8231L320.668 50.5806C319.651 50.4999 318.63 50.437 317.603 50.3919L317.637 49.6328ZM306.805 49.8231C307.831 49.7417 308.861 49.6782 309.896 49.6328L309.93 50.3919C308.903 50.437 307.882 50.4999 306.865 50.5806L306.805 49.8231ZM323.036 50.0369C324.065 50.1462 325.09 50.2734 326.108 50.4184L326.001 51.1707C324.992 51.027 323.976 50.9009 322.956 50.7926L323.036 50.0369ZM301.425 50.4184C302.443 50.2734 303.468 50.1462 304.497 50.0369L304.578 50.7926C303.557 50.9009 302.542 51.027 301.532 51.1707L301.425 50.4184ZM328.403 50.7762C329.422 50.9492 330.435 51.1399 331.441 51.3481L331.287 52.0922C330.29 51.8859 329.286 51.6969 328.275 51.5254L328.403 50.7762ZM296.092 51.3481C297.098 51.1399 298.111 50.9492 299.13 50.7762L299.258 51.5254C298.248 51.6969 297.244 51.8859 296.246 52.0922L296.092 51.3481ZM290.824 52.6113C291.816 52.34 292.816 52.0859 293.823 51.8493L293.997 52.5891C292.999 52.8236 292.008 53.0754 291.024 53.3443L290.824 52.6113ZM333.71 51.8493C334.717 52.0859 335.717 52.34 336.709 52.6113L336.509 53.3443C335.525 53.0754 334.534 52.8236 333.537 52.5891L333.71 51.8493ZM285.647 54.2026C286.622 53.8691 287.604 53.5524 288.594 53.253L288.814 53.9803C287.833 54.2771 286.859 54.591 285.893 54.9216L285.647 54.2026ZM338.939 53.253C339.929 53.5524 340.911 53.8691 341.886 54.2026L341.64 54.9216C340.674 54.591 339.7 54.2771 338.719 53.9803L338.939 53.253ZM280.583 56.1158C281.534 55.7217 282.494 55.3441 283.463 54.9832L283.728 55.6953C282.768 56.0529 281.817 56.4272 280.874 56.8178L280.583 56.1158ZM344.07 54.9832C345.039 55.3441 345.999 55.7217 346.95 56.1158L346.66 56.8178C345.716 56.4272 344.765 56.053 343.805 55.6953L344.07 54.9832ZM275.647 58.3441C276.572 57.891 277.506 57.4539 278.449 57.0332L278.759 57.7271C277.824 58.1442 276.898 58.5774 275.981 59.0265L275.647 58.3441ZM349.084 57.0332C350.027 57.4539 350.961 57.891 351.886 58.3441L351.552 59.0265C350.635 58.5775 349.709 58.1442 348.774 57.7271L349.084 57.0332ZM270.86 60.878C271.756 60.3675 272.661 59.8725 273.576 59.3933L273.929 60.0665C273.022 60.5414 272.124 61.0321 271.237 61.5381L270.86 60.878ZM353.957 59.3933C354.872 59.8725 355.777 60.3675 356.673 60.878L356.296 61.5381C355.409 61.0321 354.512 60.5415 353.605 60.0665L353.957 59.3933ZM266.243 63.7061C267.105 63.1404 267.978 62.5896 268.861 62.0541L269.255 62.7039C268.379 63.2346 267.514 63.7806 266.66 64.3414L266.243 63.7061ZM358.672 62.0541C359.556 62.5896 360.428 63.1404 361.29 63.7061L360.873 64.3414C360.019 63.7806 359.154 63.2346 358.278 62.7039L358.672 62.0541ZM261.811 66.8174C262.636 66.199 263.472 65.595 264.319 65.0057L264.753 65.6296C263.913 66.2137 263.084 66.8124 262.267 67.4253L261.811 66.8174ZM363.214 65.0057C364.061 65.595 364.897 66.199 365.722 66.8174L365.266 67.4253C364.449 66.8124 363.62 66.2137 362.78 65.6296L363.214 65.0057ZM257.582 70.1997C258.366 69.5308 259.163 68.8757 259.972 68.2347L260.444 68.8303C259.642 69.4657 258.852 70.115 258.074 70.778L257.582 70.1997ZM367.561 68.2347C368.37 68.8757 369.167 69.5308 369.952 70.1997L369.459 70.778C368.681 70.115 367.891 69.4657 367.089 68.8303L367.561 68.2347ZM253.572 73.8389C254.313 73.1222 255.068 72.4186 255.835 71.7285L256.344 72.2935C255.583 72.9775 254.835 73.675 254.1 74.3854L253.572 73.8389ZM371.698 71.7285C372.465 72.4186 373.22 73.1222 373.961 73.8389L373.433 74.3854C372.698 73.675 371.95 72.9775 371.189 72.2935L371.698 71.7285ZM249.797 77.7214C250.492 76.9596 251.202 76.2103 251.924 75.4739L252.467 76.006C251.75 76.736 251.047 77.4787 250.358 78.2338L249.797 77.7214ZM375.609 75.4739C376.331 76.2103 377.041 76.9596 377.737 77.7214L377.175 78.2338C376.486 77.4787 375.783 76.736 375.066 76.006L375.609 75.4739ZM246.272 81.8319C246.918 81.028 247.58 80.2359 248.254 79.4559L248.829 79.9532C248.16 80.7263 247.505 81.5114 246.864 82.3083L246.272 81.8319ZM379.279 79.4559C379.954 80.2359 380.615 81.028 381.262 81.832L380.67 82.3083C380.028 81.5115 379.373 80.7263 378.704 79.9532L379.279 79.4559ZM243.011 86.1553C243.606 85.3122 244.216 84.4803 244.841 83.6599L245.445 84.1202C244.826 84.9334 244.221 85.758 243.631 86.5936L243.011 86.1553ZM382.692 83.6599C383.317 84.4803 383.927 85.3122 384.522 86.1553L383.902 86.5936C383.312 85.758 382.707 84.9334 382.088 84.1202L382.692 83.6599ZM240.027 90.6754C240.569 89.7962 241.125 88.9274 241.697 88.0694L242.33 88.4908C241.763 89.3412 241.211 90.2024 240.674 91.0738L240.027 90.6754ZM385.836 88.0694C386.408 88.9274 386.964 89.7962 387.506 90.6754L386.859 91.0739C386.322 90.2024 385.77 89.3413 385.203 88.4908L385.836 88.0694ZM237.335 95.3737C237.82 94.4618 238.321 93.5596 238.838 92.6675L239.495 93.0483C238.983 93.9325 238.487 94.8266 238.006 95.7304L237.335 95.3737ZM388.696 92.6676C389.212 93.5596 389.713 94.4618 390.198 95.3737L389.527 95.7305C389.046 94.8267 388.55 93.9325 388.038 93.0483L388.696 92.6676ZM234.946 100.233C235.372 99.292 235.814 98.3602 236.273 97.4378L236.954 97.7763C236.499 98.6905 236.06 99.6139 235.638 100.546L234.946 100.233ZM391.26 97.4379C391.719 98.3603 392.161 99.292 392.588 100.233L391.895 100.546C391.473 99.614 391.034 98.6905 390.579 97.7763L391.26 97.4379ZM232.869 105.235C233.234 104.269 233.617 103.311 234.016 102.361L234.717 102.656C234.321 103.597 233.942 104.546 233.579 105.504L232.869 105.235ZM393.517 102.361C393.916 103.311 394.299 104.269 394.665 105.235L393.954 105.504C393.591 104.546 393.212 103.597 392.817 102.656L393.517 102.361ZM231.114 110.359C231.418 109.37 231.739 108.389 232.077 107.416L232.795 107.666C232.46 108.63 232.141 109.602 231.84 110.582L231.114 110.359ZM395.456 107.416C395.794 108.389 396.115 109.37 396.419 110.359L395.693 110.582C395.392 109.602 395.073 108.63 394.738 107.666L395.456 107.416ZM229.69 115.582C229.93 114.576 230.188 113.577 230.463 112.586L231.195 112.789C230.923 113.772 230.667 114.762 230.429 115.758L229.69 115.582ZM397.07 112.586C397.345 113.577 397.603 114.576 397.843 115.582L397.104 115.758C396.866 114.762 396.61 113.772 396.338 112.789L397.07 112.586ZM228.601 120.887C228.777 119.868 228.97 118.855 229.182 117.849L229.925 118.006C229.716 119.003 229.524 120.006 229.35 121.016L228.601 120.887ZM398.352 117.849C398.563 118.856 398.757 119.868 398.932 120.887L398.183 121.016C398.009 120.006 397.817 119.003 397.608 118.006L398.352 117.849ZM227.85 126.252C227.961 125.223 228.091 124.199 228.238 123.181L228.99 123.289C228.844 124.298 228.716 125.313 228.606 126.334L227.85 126.252ZM399.295 123.181C399.443 124.199 399.572 125.223 399.683 126.252L398.927 126.334C398.817 125.313 398.689 124.299 398.543 123.289L399.295 123.181ZM227.44 131.651C227.486 130.616 227.551 129.585 227.633 128.56L228.391 128.621C228.309 129.637 228.245 130.659 228.199 131.685L227.44 131.651ZM399.9 128.56C399.982 129.586 400.047 130.616 400.093 131.652L399.334 131.685C399.288 130.659 399.224 129.637 399.142 128.621L399.9 128.56ZM227.354 135.522C227.354 135.003 227.359 134.485 227.368 133.969L228.128 133.982C228.118 134.494 228.114 135.007 228.114 135.522C228.114 136.036 228.118 136.549 228.128 137.061L227.368 137.075C227.359 136.558 227.354 136.04 227.354 135.522ZM400.165 133.969C400.174 134.485 400.179 135.003 400.179 135.522C400.179 136.04 400.174 136.558 400.165 137.075L399.406 137.061C399.415 136.549 399.419 136.036 399.419 135.522C399.419 135.007 399.415 134.494 399.406 133.982L400.165 133.969ZM227.633 142.483C227.551 141.458 227.486 140.427 227.44 139.392L228.199 139.358C228.245 140.384 228.309 141.406 228.391 142.422L227.633 142.483ZM400.093 139.392C400.047 140.427 399.982 141.458 399.9 142.483L399.142 142.422C399.224 141.406 399.288 140.384 399.334 139.358L400.093 139.392ZM228.238 147.863C228.091 146.844 227.961 145.82 227.85 144.791L228.606 144.71C228.716 145.73 228.844 146.745 228.99 147.754L228.238 147.863ZM399.683 144.791C399.572 145.821 399.443 146.844 399.295 147.863L398.543 147.754C398.689 146.745 398.817 145.73 398.927 144.71L399.683 144.791ZM229.182 153.194C228.97 152.188 228.777 151.175 228.601 150.157L229.35 150.028C229.524 151.037 229.716 152.041 229.925 153.038L229.182 153.194ZM398.932 150.157C398.756 151.175 398.563 152.188 398.352 153.194L397.608 153.038C397.817 152.041 398.009 151.037 398.183 150.028L398.932 150.157ZM230.463 158.458C230.188 157.466 229.93 156.467 229.69 155.461L230.429 155.285C230.667 156.282 230.923 157.272 231.195 158.255L230.463 158.458ZM397.843 155.461C397.603 156.467 397.345 157.466 397.07 158.458L396.338 158.255C396.61 157.272 396.866 156.282 397.104 155.285L397.843 155.461ZM232.077 163.627C231.739 162.654 231.418 161.673 231.114 160.684L231.84 160.461C232.141 161.441 232.46 162.413 232.795 163.378L232.077 163.627ZM396.419 160.684C396.115 161.673 395.794 162.654 395.456 163.627L394.738 163.378C395.073 162.413 395.392 161.441 395.693 160.461L396.419 160.684ZM234.016 168.682C233.617 167.733 233.234 166.775 232.869 165.808L233.579 165.539C233.942 166.497 234.321 167.447 234.717 168.387L234.016 168.682ZM394.665 165.808C394.299 166.775 393.916 167.733 393.517 168.682L392.817 168.387C393.212 167.447 393.591 166.497 393.954 165.539L394.665 165.808ZM236.273 173.606C235.814 172.683 235.372 171.751 234.946 170.811L235.638 170.497C236.06 171.429 236.499 172.353 236.954 173.267L236.273 173.606ZM392.588 170.811C392.161 171.751 391.719 172.683 391.26 173.606L390.579 173.267C391.034 172.353 391.473 171.429 391.895 170.497L392.588 170.811ZM238.838 178.376C238.321 177.484 237.82 176.582 237.335 175.67L238.006 175.313C238.487 176.217 238.983 177.111 239.495 177.995L238.838 178.376ZM390.198 175.67C389.713 176.582 389.212 177.484 388.696 178.376L388.038 177.995C388.55 177.111 389.046 176.217 389.527 175.313L390.198 175.67ZM241.697 182.974C241.125 182.116 240.569 181.247 240.027 180.368L240.674 179.97C241.211 180.841 241.763 181.702 242.33 182.553L241.697 182.974ZM387.506 180.368C386.964 181.247 386.408 182.116 385.836 182.974L385.203 182.553C385.77 181.702 386.322 180.841 386.859 179.97L387.506 180.368ZM244.841 187.383C244.216 186.563 243.606 185.731 243.011 184.888L243.631 184.45C244.221 185.285 244.826 186.11 245.445 186.923L244.841 187.383ZM384.522 184.888C383.927 185.731 383.317 186.563 382.692 187.383L382.088 186.923C382.707 186.11 383.312 185.285 383.902 184.45L384.522 184.888ZM248.254 191.587C247.58 190.807 246.918 190.015 246.272 189.211L246.864 188.735C247.505 189.532 248.16 190.317 248.829 191.09L248.254 191.587ZM381.262 189.211C380.615 190.015 379.954 190.807 379.279 191.587L378.704 191.09C379.373 190.317 380.028 189.532 380.67 188.735L381.262 189.211ZM251.924 195.57C251.202 194.833 250.492 194.084 249.797 193.322L250.358 192.81C251.047 193.565 251.75 194.307 252.467 195.037L251.924 195.57ZM377.736 193.322C377.041 194.084 376.331 194.833 375.609 195.57L375.066 195.037C375.783 194.307 376.486 193.565 377.175 192.81L377.736 193.322ZM255.835 199.315C255.068 198.625 254.313 197.921 253.572 197.204L254.1 196.658C254.835 197.368 255.583 198.066 256.344 198.75L255.835 199.315ZM373.961 197.204C373.22 197.921 372.465 198.625 371.698 199.315L371.189 198.75C371.95 198.066 372.698 197.368 373.433 196.658L373.961 197.204ZM259.972 202.809C259.163 202.168 258.366 201.513 257.582 200.844L258.074 200.265C258.852 200.928 259.642 201.578 260.444 202.213L259.972 202.809ZM369.952 200.844C369.167 201.513 368.37 202.168 367.561 202.809L367.089 202.213C367.891 201.578 368.681 200.928 369.459 200.265L369.952 200.844ZM264.319 206.038C263.472 205.448 262.636 204.844 261.811 204.226L262.267 203.618C263.084 204.231 263.913 204.83 264.753 205.414L264.319 206.038ZM365.722 204.226C364.897 204.844 364.061 205.448 363.214 206.038L362.78 205.414C363.62 204.83 364.449 204.231 365.266 203.618L365.722 204.226ZM268.861 208.989C267.977 208.454 267.105 207.903 266.243 207.337L266.66 206.702C267.514 207.263 268.379 207.809 269.255 208.339L268.861 208.989ZM361.29 207.337C360.428 207.903 359.556 208.454 358.672 208.989L358.278 208.34C359.154 207.809 360.019 207.263 360.873 206.702L361.29 207.337ZM273.576 211.65C272.661 211.171 271.756 210.676 270.86 210.165L271.237 209.505C272.124 210.011 273.022 210.502 273.928 210.977L273.576 211.65ZM356.673 210.165C355.777 210.676 354.872 211.171 353.957 211.65L353.605 210.977C354.512 210.502 355.409 210.011 356.296 209.505L356.673 210.165ZM278.449 214.01C277.506 213.589 276.572 213.152 275.647 212.699L275.981 212.017C276.898 212.466 277.824 212.899 278.759 213.316L278.449 214.01ZM351.886 212.699C350.961 213.152 350.027 213.589 349.084 214.01L348.774 213.316C349.709 212.899 350.635 212.466 351.552 212.017L351.886 212.699ZM283.463 216.06C282.494 215.699 281.534 215.322 280.583 214.928L280.874 214.226C281.817 214.616 282.768 214.99 283.728 215.348L283.463 216.06ZM346.95 214.928C345.999 215.322 345.039 215.699 344.07 216.06L343.805 215.348C344.765 214.99 345.716 214.616 346.66 214.226L346.95 214.928ZM288.594 217.79C287.604 217.491 286.622 217.174 285.647 216.841L285.893 216.122C286.859 216.452 287.833 216.766 288.814 217.063L288.594 217.79ZM341.886 216.841C340.911 217.174 339.929 217.491 338.939 217.79L338.719 217.063C339.7 216.766 340.674 216.452 341.64 216.122L341.886 216.841ZM293.823 219.194C292.816 218.957 291.816 218.703 290.824 218.432L291.024 217.699C292.008 217.968 292.999 218.22 293.997 218.454L293.823 219.194ZM336.709 218.432C335.717 218.703 334.717 218.957 333.71 219.194L333.537 218.454C334.534 218.22 335.525 217.968 336.509 217.699L336.709 218.432ZM299.13 220.267C298.111 220.094 297.098 219.903 296.092 219.695L296.246 218.951C297.244 219.157 298.248 219.346 299.258 219.518L299.13 220.267ZM331.441 219.695C330.435 219.903 329.422 220.094 328.403 220.267L328.275 219.518C329.286 219.346 330.29 219.157 331.287 218.951L331.441 219.695ZM304.497 221.006C303.468 220.897 302.443 220.77 301.425 220.625L301.532 219.873C302.542 220.016 303.557 220.142 304.578 220.251L304.497 221.006ZM326.108 220.625C325.09 220.77 324.065 220.897 323.036 221.006L322.956 220.251C323.976 220.142 324.992 220.016 326.001 219.873L326.108 220.625ZM309.896 221.411C308.861 221.365 307.831 221.302 306.805 221.22L306.865 220.463C307.882 220.543 308.903 220.606 309.93 220.651L309.896 221.411ZM320.728 221.22C319.703 221.302 318.672 221.365 317.637 221.411L317.603 220.651C318.63 220.606 319.651 220.543 320.668 220.463L320.728 221.22ZM313.767 221.495C313.248 221.495 312.73 221.491 312.214 221.482L312.227 220.722C312.739 220.731 313.252 220.735 313.767 220.735C314.281 220.735 314.794 220.731 315.306 220.722L315.32 221.482C314.803 221.491 314.285 221.495 313.767 221.495Z" fill="#23024D"/>
            <path d="M259.717 189.952C259.717 160.347 283.913 136.342 313.766 136.342C343.62 136.342 367.815 160.347 367.815 189.952C367.815 219.557 343.62 243.561 313.766 243.561C313.26 243.562 312.755 243.555 312.252 243.541L312.231 244.3C312.741 244.314 313.253 244.321 313.766 244.321C344.033 244.321 368.575 219.982 368.575 189.952C368.575 159.921 344.033 135.582 313.766 135.582C283.499 135.582 258.958 159.921 258.958 189.952H259.717Z" fill="#23024D"/>
            <path d="M258.958 189.952C258.958 190.465 258.965 190.977 258.979 191.487L259.739 191.465C259.724 190.963 259.717 190.458 259.717 189.952H258.958Z" fill="#23024D"/>
            <path d="M259.091 193.78C259.163 194.804 259.264 195.82 259.392 196.828L260.146 196.732C260.019 195.739 259.92 194.737 259.849 193.727L259.091 193.78Z" fill="#23024D"/>
            <path d="M259.73 199.099C259.903 200.11 260.103 201.112 260.332 202.103L261.072 201.932C260.847 200.955 260.649 199.968 260.479 198.972L259.73 199.099Z" fill="#23024D"/>
            <path d="M260.894 204.329C261.167 205.317 261.466 206.293 261.793 207.257L262.512 207.014C262.191 206.063 261.895 205.101 261.627 204.127L260.894 204.329Z" fill="#23024D"/>
            <path d="M262.575 209.417C262.944 210.372 263.339 211.313 263.76 212.241L264.452 211.927C264.037 211.012 263.647 210.084 263.284 209.143L262.575 209.417Z" fill="#23024D"/>
            <path d="M264.754 214.312C265.215 215.224 265.702 216.122 266.213 217.004L266.871 216.623C266.367 215.754 265.887 214.868 265.432 213.969L264.754 214.312Z" fill="#23024D"/>
            <path d="M267.406 218.967C267.956 219.829 268.529 220.674 269.124 221.502L269.741 221.058C269.154 220.242 268.589 219.408 268.047 218.559L267.406 218.967Z" fill="#23024D"/>
            <path d="M270.505 223.338C271.136 224.141 271.788 224.926 272.463 225.692L273.033 225.19C272.368 224.435 271.724 223.66 271.102 222.868L270.505 223.338Z" fill="#23024D"/>
            <path d="M274.016 227.384C274.722 228.122 275.448 228.839 276.194 229.536L276.713 228.981C275.977 228.294 275.261 227.586 274.565 226.859L274.016 227.384Z" fill="#23024D"/>
            <path d="M277.905 231.069C278.679 231.734 279.472 232.377 280.282 232.999L280.745 232.396C279.945 231.783 279.163 231.148 278.4 230.493L277.905 231.069Z" fill="#23024D"/>
            <path d="M282.134 234.358C282.968 234.944 283.82 235.507 284.688 236.047L285.09 235.402C284.234 234.87 283.394 234.314 282.571 233.736L282.134 234.358Z" fill="#23024D"/>
            <path d="M286.663 237.219C287.55 237.721 288.453 238.199 289.37 238.652L289.707 237.97C288.802 237.524 287.912 237.052 287.037 236.558L286.663 237.219Z" fill="#23024D"/>
            <path d="M291.45 239.625C292.381 240.037 293.326 240.425 294.284 240.786L294.552 240.075C293.608 239.719 292.676 239.337 291.758 238.93L291.45 239.625Z" fill="#23024D"/>
            <path d="M296.449 241.552C297.415 241.871 298.394 242.164 299.383 242.43L299.58 241.696C298.605 241.434 297.64 241.145 296.687 240.83L296.449 241.552Z" fill="#23024D"/>
            <path d="M301.612 242.98C302.604 243.203 303.606 243.399 304.618 243.567L304.743 242.818C303.745 242.652 302.757 242.458 301.779 242.238L301.612 242.98Z" fill="#23024D"/>
            <path d="M306.89 243.898C307.898 244.023 308.914 244.121 309.938 244.191L309.99 243.433C308.98 243.364 307.978 243.267 306.984 243.144L306.89 243.898Z" fill="#23024D"/>
            <path fill-rule="evenodd" clip-rule="evenodd" d="M313.767 133.822C343.62 133.822 367.816 109.817 367.816 80.2121H368.576C368.576 110.243 344.034 134.582 313.767 134.582C283.5 134.582 258.958 110.243 258.958 80.2121C258.958 50.1816 283.5 25.8423 313.767 25.8423V26.6022C283.914 26.6022 259.718 50.607 259.718 80.2121C259.718 109.817 283.914 133.822 313.767 133.822Z" fill="#23024D"/>
            <path fill-rule="evenodd" clip-rule="evenodd" d="M368.555 78.677C368.569 79.187 368.576 79.6987 368.576 80.2121H367.816C367.816 79.7058 367.809 79.2011 367.795 78.6982L368.555 78.677ZM368.142 73.3356C368.27 74.3432 368.37 75.3594 368.442 76.3833L367.684 76.4365C367.613 75.4269 367.514 74.425 367.388 73.4316L368.142 73.3356ZM367.202 68.061C367.43 69.0521 367.631 70.0534 367.803 71.0642L367.054 71.1921C366.884 70.1956 366.686 69.2085 366.461 68.2315L367.202 68.061ZM365.741 62.9062C366.067 63.8705 366.367 64.8468 366.639 65.8344L365.906 66.0364C365.638 65.0628 365.343 64.1003 365.021 63.1496L365.741 62.9062ZM363.773 57.9227C364.194 58.8505 364.59 59.7921 364.959 60.7467L364.25 61.0207C363.886 60.0796 363.496 59.1513 363.081 58.2366L363.773 57.9227ZM361.32 53.1593C361.831 54.0415 362.318 54.9392 362.78 55.8516L362.102 56.1948C361.647 55.2952 361.167 54.41 360.663 53.5403L361.32 53.1593ZM358.409 48.6616C359.005 49.4897 359.578 50.335 360.127 51.1967L359.486 51.6051C358.945 50.7555 358.38 49.9219 357.792 49.1054L358.409 48.6616ZM355.071 44.4713C355.745 45.2375 356.398 46.0227 357.029 46.8258L356.431 47.2952C355.809 46.5032 355.165 45.7289 354.5 44.9734L355.071 44.4713ZM351.339 40.6272C352.085 41.3243 352.812 42.042 353.518 42.7793L352.969 43.3048C352.273 42.5777 351.556 41.8699 350.82 41.1824L351.339 40.6272ZM347.251 37.1646C348.062 37.7862 348.855 38.4298 349.629 39.0946L349.133 39.671C348.37 39.0154 347.588 38.3807 346.789 37.7677L347.251 37.1646ZM342.845 34.1164C343.713 34.6564 344.565 35.2198 345.399 35.8058L344.963 36.4277C344.14 35.8498 343.3 35.2942 342.444 34.7617L342.845 34.1164ZM338.163 31.5121C339.081 31.9651 339.983 32.4428 340.87 32.9444L340.496 33.6059C339.621 33.1112 338.731 32.6401 337.827 32.1934L338.163 31.5121ZM333.25 29.3775C334.207 29.7389 335.152 30.1262 336.083 30.5385L335.776 31.2333C334.858 30.8267 333.926 30.4448 332.981 30.0884L333.25 29.3775ZM328.151 27.7338C329.14 28 330.118 28.293 331.084 28.612L330.846 29.3336C329.893 29.0191 328.929 28.7301 327.953 28.4676L328.151 27.7338ZM322.916 26.5963C323.927 26.7649 324.929 26.961 325.921 27.1838L325.755 27.9252C324.776 27.7055 323.788 27.5122 322.791 27.3459L322.916 26.5963ZM317.595 25.9728C318.619 26.0429 319.636 26.1409 320.643 26.2661L320.55 27.0202C319.556 26.8967 318.554 26.8001 317.544 26.731L317.595 25.9728ZM313.767 25.8423C314.281 25.8423 314.792 25.8493 315.302 25.8632L315.281 26.6228C314.778 26.6091 314.274 26.6022 313.767 26.6022V25.8423Z" fill="#23024D"/>
        </g>
        <path d="M386.328 149.358C425.477 140.535 514.174 120.541 569.929 107.974C585.958 104.362 595.99 88.445 592.375 72.4169C588.761 56.3962 572.879 46.3267 556.853 49.9185C500.817 62.4777 411.184 82.4893 372 91.3123" stroke="#23024D"/>
        <path d="M471.115 86.8574C455.131 90.4601 431.504 95.7861 415.468 99.4001C409.716 100.697 406.116 106.408 407.414 112.16C408.71 117.91 414.41 121.523 420.161 120.234C436.149 116.651 459.757 111.377 475.829 107.775C481.693 106.461 485.314 100.586 483.874 94.7516C482.475 89.0836 476.81 85.5736 471.115 86.8574Z" fill="#E5E1EA"/>
        <path d="M535 115L511 121L503 109L524 85L582.5 52.5L590 66.5C589 67.3333 590 65.5 583 70C576 74.5 569.5 80.5 561.5 90C553.5 99.5 540 112 535 115Z" fill="#E5E1EA"/>
        <path d="M397.156 78.9583C392.977 72.3881 394.35 63.9983 397.765 61.696L422.907 44.7265C422.907 44.7265 434.87 37.2461 439.184 37.2461C443.498 37.2461 513.499 37.5 513.499 37.5L526.499 35.5L575.499 6.5L610.999 -19L662.999 23L591.5 60.5L572.999 72.5C572.999 72.5 553.5 90.5 545 99.5C536.5 108.5 520.999 118 520.999 118L513.499 121L496.465 125.487L468.621 130.474L464.673 92.4488L467.582 88.0853L459.132 80.6741C459.132 80.6741 447.496 69.7998 443.271 68.9686C439.046 68.1375 413.999 80.6741 413.999 80.6741C411.499 80.6741 401.866 86.3637 397.156 78.9583Z" fill="#FAFAFB"/>
        <path d="M403.578 153.471C399.399 146.901 404.285 140.728 407.699 138.425L457 102.999L470 84.9989L486.5 81.9989L473.488 129.366L419.239 156.998C414.646 159.349 408.288 160.877 403.578 153.471Z" fill="#FCFCFD"/>
        <path d="M648.941 -43.7762C648.941 -43.7762 539.072 30.8307 528.13 35.0666C517.187 39.3025 450.428 37.1845 439.764 37.1845C429.1 37.1845 389.677 67.5807 384.97 71.5091C381.911 74.0621 383.049 78.2966 384.937 81.8052L388 87.4991M467.011 88.1887C467.011 88.1887 447.439 68.8908 442.379 68.8908C438.213 68.8908 420.87 76.4565 413.5 81.4991" stroke="#23024D"/>
        <path d="M467.01 87.995L463.325 71.0244" stroke="#23024D"/>
        <path d="M473.73 75.8435C469.961 83.0172 461.74 99.1522 455.238 103.95C448.736 108.748 421.198 129.117 407.77 138.172C404.355 140.476 399.468 146.652 403.648 153.225C408.359 160.634 414.718 159.106 419.313 156.754L467.083 132.493C471.481 130.259 476.229 128.825 481.103 128.063C494.438 125.978 514.075 122.025 522.492 117.122C551.703 100.109 564.541 73.8443 586.096 63.8481L749.941 -23.2135" stroke="#23024D"/>
        <path d="M456.5 138.5C461.137 143 464.464 145.99 465 148.153C467.717 159.123 453.149 160.889 444.069 154.16C440.23 151.314 437.068 148.904 436.5 148.153" stroke="#23024D"/>
        <path d="M470.705 131.001C471.075 131.667 471.362 132.222 471.558 132.635C472.073 133.719 472.431 134.814 472.656 135.902C474.702 145.8 462.321 145.58 456 137.692" stroke="#23024D"/>
        <path opacity="0.3" d="M519.287 71.6216L722.287 -50M519.287 71.6216L441.741 51.9441L400.301 78.1024M519.287 71.6216L496.45 111.334L441.741 128.607" stroke="#872AB0" stroke-width="5"/>
        <path d="M439.977 52.4145C440.218 53.3123 441.141 53.8451 442.039 53.6045C442.936 53.364 443.469 52.4412 443.229 51.5434C442.988 50.6456 442.065 50.1129 441.167 50.3534C440.27 50.594 439.737 51.5168 439.977 52.4145Z" fill="#5F0E8E"/>
        <path d="M494.455 111.73C494.696 112.627 495.618 113.16 496.516 112.92C497.414 112.679 497.947 111.756 497.706 110.858C497.466 109.961 496.543 109.428 495.645 109.668C494.747 109.909 494.214 110.832 494.455 111.73Z" fill="#5F0E8E"/>
        <path d="M522.009 74.4287L531.671 72.2153L522.222 69.2162L520.008 59.5536L517.01 69.0025L507.347 71.2168L516.796 74.2151L519.01 83.8773L522.009 74.4287ZM528.485 63.6754L528.26 63.4313L527.557 64.0791L527.782 64.3234L528.485 63.6754ZM527.43 64.6482L527.205 64.4039L526.502 65.0519L526.726 65.296L527.43 64.6482ZM526.375 65.6201L526.15 65.3758L524.04 67.3193L524.265 67.5637L526.375 65.6201ZM512.114 63.4459L511.466 62.7422L511.222 62.9677L511.87 63.6714L512.114 63.4459ZM513.086 64.4975L512.438 63.7947L512.194 64.0192L512.842 64.7229L513.086 64.4975ZM515.355 66.961L513.411 64.8505L513.166 65.076L515.11 67.1862L515.355 66.961ZM525.655 78.1421L523.712 76.032L523.467 76.2574L525.411 78.3676L525.655 78.1421ZM526.629 79.2004L525.981 78.4967L525.736 78.7219L526.385 79.425L526.629 79.2004ZM515.19 75.922L514.965 75.6779L512.855 77.6214L513.079 77.8665L515.19 75.922ZM527.6 80.2548L526.952 79.5511L526.708 79.7765L527.356 80.4802L527.6 80.2548ZM512.727 78.1903L512.503 77.9462L511.799 78.594L512.025 78.8384L512.727 78.1903ZM511.673 79.1604L511.448 78.916L510.745 79.564L510.97 79.8081L511.673 79.1604Z" fill="#5F0E8E"/>
        <path d="M443.49 129.617L446.5 128.247L443.212 127.899L441.841 124.889L441.494 128.177L438.484 129.548L441.772 129.896L443.143 132.906L443.49 129.617ZM444.886 125.67L444.796 125.605L444.609 125.863L444.699 125.929L444.886 125.67ZM444.606 126.057L444.516 125.993L444.329 126.251L444.42 126.316L444.606 126.057ZM444.326 126.446L444.236 126.381L443.677 127.158L443.767 127.222L444.326 126.446ZM439.521 126.688L439.262 126.502L439.197 126.591L439.456 126.778L439.521 126.688ZM439.909 126.968L439.65 126.781L439.585 126.871L439.844 127.058L439.909 126.968ZM440.816 127.621L440.039 127.061L439.975 127.151L440.751 127.711L440.816 127.621ZM444.93 130.586L444.154 130.026L444.089 130.116L444.865 130.676L444.93 130.586ZM445.319 130.867L445.06 130.681L444.995 130.77L445.254 130.956L445.319 130.867ZM441.36 130.562L441.27 130.497L440.711 131.273L440.8 131.338L441.36 130.562ZM445.707 131.147L445.448 130.96L445.384 131.05L445.643 131.236L445.707 131.147ZM440.708 131.468L440.618 131.403L440.431 131.661L440.522 131.726L440.708 131.468ZM440.428 131.856L440.338 131.791L440.151 132.05L440.241 132.115L440.428 131.856Z" fill="#5F0E8E"/>
        <path d="M401.776 80.0268L408.923 78.5748L402.029 76.1964L400.576 69.0488L398.198 75.9435L391.051 77.3964L397.946 79.7738L399.398 86.9211L401.776 80.0268ZM406.735 72.2335L406.574 72.0488L406.045 72.5126L406.206 72.6973L406.735 72.2335ZM405.941 72.9289L405.78 72.7455L405.25 73.209L405.412 73.3928L405.941 72.9289ZM405.148 73.625L404.987 73.4403L403.399 74.8314L403.56 75.0161L405.148 73.625ZM394.7 71.7674L394.236 71.2384L394.052 71.3998L394.516 71.9287L394.7 71.7674ZM395.395 72.5596L394.931 72.0306L394.748 72.191L395.211 72.7209L395.395 72.5596ZM397.019 74.4122L395.628 72.8244L395.444 72.9857L396.835 74.5735L397.019 74.4122ZM404.393 82.8234L403.002 81.2365L402.818 81.3979L404.209 82.9848L404.393 82.8234ZM405.09 83.6193L404.627 83.0895L404.443 83.2508L404.907 83.7798L405.09 83.6193ZM396.733 80.9986L396.572 80.8148L394.984 82.206L395.145 82.3897L396.733 80.9986ZM405.785 84.4125L405.321 83.8835L405.138 84.0439L405.601 84.5738L405.785 84.4125ZM394.881 82.6229L394.72 82.4391L394.191 82.903L394.351 83.0864L394.881 82.6229ZM394.087 83.3174L393.926 83.1336L393.397 83.5974L393.558 83.7812L394.087 83.3174Z" fill="#5F0E8E"/>
        <path d="M265.118 171.114L325.34 159.836C339.725 157.142 349.203 143.297 346.509 128.911C343.815 114.526 329.97 105.048 315.584 107.742L255.786 118.94C261.657 93.8751 281.784 73.3763 308.713 68.3333C345.084 61.5222 380.089 85.485 386.901 121.856C393.712 158.227 369.749 193.232 333.378 200.044C306.07 205.158 279.531 192.923 265.118 171.114Z" fill="#FAFAFB" stroke="#23024D"/>
        <path d="M5.36663 165.64C3.91693 166.022 2.48405 166.488 1.03331 167.066C0.438485 167.303 -0.244375 167.162 -0.680544 166.693C-1.62094 165.682 -3.31269 166.355 -3.30222 167.736L-2.71852 244.672C-2.70958 245.85 -2.04735 246.935 -0.97551 247.423C0.198431 247.958 0.989574 249.104 0.994221 250.394L1.02188 258.066C1.02904 259.565 2.25978 260.929 3.74569 261.106L17.8348 262.74C19.3303 262.915 20.8276 261.863 21.1821 260.407L22.1403 256.404C22.9385 253.07 25.6818 250.637 28.9797 249.699C32.2703 248.764 35.9292 249.37 38.357 251.78L41.3021 254.704C42.3726 255.761 44.1989 255.869 45.3748 254.938L56.4913 246.137C57.6706 245.203 57.9885 243.392 57.2009 242.116L55.0392 238.596C53.2455 235.675 53.5012 231.963 55.1704 228.969C56.8407 225.973 59.8372 223.864 63.2672 223.854L67.3738 223.842C68.8809 223.835 70.2488 222.613 70.4201 221.129L72.0515 207.027C72.2235 205.538 71.1705 204.032 69.7139 203.681L65.7049 202.718C62.3719 201.917 59.9411 199.182 59.0019 195.885C58.0608 192.582 58.6624 188.901 61.0813 186.463L63.9761 183.545C65.0333 182.485 65.1332 180.652 64.2008 179.474L55.386 168.34C54.4535 167.163 52.646 166.839 51.3692 167.622L47.8618 169.774C44.9377 171.568 41.2235 171.31 38.228 169.638C35.2381 167.968 33.1315 164.977 33.1179 161.553L33.1016 157.416C33.089 155.911 31.8617 154.544 30.3751 154.373L16.2812 152.727C14.783 152.548 13.2857 153.6 12.934 155.059L11.9198 159.318C11.1632 162.495 8.52472 164.807 5.36663 165.64Z" fill="#FAFAFB" stroke="#23024D"/>
        <path d="M-9.67028 214.199C-6.26963 228.912 8.41137 238.081 23.1233 234.68C37.8351 231.28 47.0034 216.598 43.6027 201.886C40.2021 187.173 25.5211 178.005 10.8092 181.405C-3.90268 184.806 -13.0719 199.483 -9.67028 214.199Z" stroke="#23024D"/>
        <path opacity="0.3" d="M103.672 147.065L104.606 149.652C105.385 151.807 107.429 153.222 109.689 153.599C111.949 153.976 114.3 153.289 115.735 151.503L117.451 149.368C118.081 148.589 119.286 148.382 120.139 148.917L128.173 153.932C129.021 154.459 129.37 155.634 128.947 156.545L127.774 159.041C126.802 161.11 127.218 163.517 128.545 165.378C129.872 167.24 132.036 168.455 134.309 168.208L137.05 167.911C138.044 167.803 139.043 168.514 139.268 169.49L141.401 178.718C141.627 179.694 141.042 180.771 140.1 181.108L137.511 182.044C135.358 182.822 133.944 184.866 133.567 187.124C133.191 189.381 133.875 191.726 135.658 193.161L137.8 194.885C138.578 195.512 138.783 196.72 138.253 197.569L133.232 205.604C132.705 206.449 131.529 206.796 130.618 206.37L128.134 205.204C126.062 204.232 123.653 204.647 121.789 205.976C119.923 207.305 118.706 209.474 118.953 211.751L119.249 214.483C119.359 215.477 118.649 216.478 117.67 216.704L108.443 218.837C107.467 219.062 106.395 218.476 106.052 217.533L105.114 214.937C104.337 212.787 102.3 211.375 100.045 210.999C97.7879 210.623 95.4389 211.306 94.0032 213.088L92.2781 215.229C91.6476 216.005 90.4429 216.212 89.5906 215.679L81.5559 210.674C80.7098 210.143 80.3578 208.969 80.7822 208.064L81.9556 205.569C82.9293 203.499 82.5141 201.09 81.1852 199.228C79.8558 197.364 77.6905 196.148 75.4149 196.393L72.6801 196.689C71.6828 196.797 70.6881 196.088 70.4625 195.112L68.3296 185.884C68.1034 184.905 68.6862 183.832 69.6304 183.494L72.2183 182.559C74.371 181.781 75.7848 179.736 76.1611 177.478C76.5375 175.221 75.8526 172.876 74.0699 171.441L71.9274 169.716C71.1481 169.086 70.9442 167.88 71.4743 167.031L76.4954 158.999C77.022 158.148 78.1973 157.801 79.1116 158.227L81.5935 159.394C83.6667 160.369 86.0803 159.951 87.9457 158.621C89.8061 157.295 91.017 155.133 90.7717 152.861L90.4756 150.118C90.3676 149.121 91.0699 148.124 92.0516 147.898L101.279 145.765C102.26 145.535 103.33 146.119 103.672 147.065Z" fill="#FAFAFB" stroke="#23024D"/>
        <path opacity="0.3" d="M87.0915 186.389C89.3556 196.184 99.1297 202.289 108.924 200.025C118.719 197.761 124.823 187.986 122.559 178.191C120.295 168.396 110.521 162.292 100.726 164.556C90.9314 166.82 84.8268 176.591 87.0915 186.389Z" stroke="#23024D" stroke-dasharray="3 5"/>
        <path d="M282.304 134.656C280.66 125.373 279.838 120.731 282.211 117.336C284.585 113.941 289.226 113.119 298.51 111.475L310.766 109.304C320.05 107.66 324.692 106.838 328.087 109.211C331.481 111.584 332.304 116.226 333.948 125.51L336.118 137.766C337.763 147.05 338.585 151.692 336.211 155.086C333.838 158.481 329.196 159.303 319.913 160.948L307.656 163.118C298.373 164.763 293.731 165.585 290.336 163.211C286.941 160.838 286.119 156.196 284.475 146.913L282.304 134.656Z" fill="#872AB0"/>
        <path fill-rule="evenodd" clip-rule="evenodd" d="M313.529 133.199L320.384 137.941L325.159 131.177L328.144 133.23L321.274 142.962L314.419 138.219L306.834 148.955L301.034 144.942L296.162 151.839L293.178 149.785L300.145 139.922L305.945 143.935L313.529 133.199Z" fill="white"/>
        <path fill-rule="evenodd" clip-rule="evenodd" d="M311.805 123.461L318.66 128.203L323.435 121.44L326.42 123.493L319.55 133.224L312.694 128.481L305.11 139.218L299.309 135.205L294.437 142.102L291.453 140.048L298.42 130.185L304.221 134.198L311.805 123.461Z" fill="white"/>
        <path opacity="0.2" d="M322.128 63.11L318.805 60.4924C318.297 60.0884 318.159 59.3082 318.496 58.7578L321.688 53.5329C322.026 52.9766 322.783 52.7473 323.372 53.0154L324.982 53.7527C326.329 54.3696 327.887 54.086 329.084 53.2138C330.282 52.3417 331.053 50.9319 330.88 49.4607L330.671 47.6947C330.594 47.0488 331.044 46.4016 331.678 46.2503L337.629 44.8117C338.262 44.6587 338.957 45.0313 339.183 45.639L339.806 47.3104C340.322 48.6946 341.648 49.5937 343.107 49.8219C344.571 50.0507 346.087 49.5932 347.003 48.4294L348.1 47.0362C348.505 46.5256 349.285 46.3856 349.836 46.7251L355.064 49.9147C355.616 50.2519 355.847 51.0076 355.579 51.5974L354.84 53.2149C354.225 54.5608 354.508 56.1145 355.379 57.3106C356.25 58.5067 357.659 59.2795 359.129 59.1059L360.896 58.8972C361.539 58.8191 362.187 59.2708 362.34 59.9022L363.778 65.8538C363.93 66.4834 363.561 67.181 362.953 67.4073C360.56 68.2992 359.049 70.5909 358.416 73.0646C358.36 73.2814 358.301 73.497 358.238 73.7113M351.495 71.6491C352.04 69.7539 352.115 67.6955 351.619 65.6414C350.091 59.322 343.733 55.4409 337.416 56.968C333.375 57.9448 330.33 60.8985 329.06 64.5538" stroke="#23024D"/>
        <path opacity="0.2" d="M598.638 89.7933L602.629 88.3909C603.243 88.1783 603.975 88.4798 604.259 89.0598L606.959 94.5552C607.247 95.1389 607.036 95.9002 606.493 96.2543L605.008 97.2183C603.765 98.0249 603.17 99.4916 603.264 100.97C603.358 102.449 604.135 103.856 605.47 104.497L607.073 105.268C607.659 105.549 607.965 106.276 607.753 106.892L605.777 112.687C605.567 113.304 604.88 113.69 604.246 113.556L602.501 113.186C601.056 112.879 599.586 113.517 598.611 114.627C597.634 115.739 597.207 117.264 597.699 118.662L598.287 120.334C598.501 120.95 598.201 121.683 597.619 121.967L592.124 124.67C591.543 124.956 590.782 124.746 590.427 124.203L589.458 122.713C588.651 121.472 587.188 120.878 585.711 120.972C584.235 121.067 582.827 121.842 582.186 123.176L581.415 124.779C581.136 125.364 580.407 125.669 579.792 125.46L573.997 123.484C573.384 123.275 572.993 122.589 573.128 121.954C573.657 119.456 572.533 116.953 570.784 115.092C570.631 114.929 570.48 114.763 570.333 114.595M575.688 110.008C576.996 111.484 578.694 112.651 580.694 113.333C586.848 115.43 593.532 112.143 595.629 105.992C596.97 102.057 596.109 97.9029 593.704 94.8715" stroke="#23024D"/>
        <g opacity="0.1">
            <path d="M538.635 202.784C538.652 205.452 536.505 207.629 533.839 207.646C531.173 207.664 528.998 205.515 528.981 202.847C528.963 200.179 531.11 198.002 533.776 197.984C536.442 197.967 538.617 200.115 538.635 202.784Z" stroke="#23024D" stroke-miterlimit="10"/>
            <path d="M567.64 232.727C567.658 235.395 565.511 237.572 562.845 237.59C560.179 237.607 558.004 235.459 557.986 232.79C557.969 230.122 560.116 227.945 562.782 227.928C565.447 227.91 567.623 230.059 567.64 232.727Z" stroke="#23024D" stroke-miterlimit="10"/>
            <path d="M538.633 202.781L590.581 202.439L606.869 185.921L678.719 185.272L686.805 185.002" stroke="#23024D" stroke-miterlimit="10"/>
            <path d="M670.379 198.861L611.942 200.075L595.654 216.593L533.363 217.003L515.323 235.297" stroke="#23024D" stroke-miterlimit="10"/>
            <path d="M623.589 229.203C625.303 229.171 626.667 227.756 626.635 226.044C626.602 224.331 625.187 222.969 623.472 223.001C621.758 223.033 620.395 224.448 620.427 226.161C620.459 227.873 621.875 229.236 623.589 229.203Z" stroke="#23024D" stroke-miterlimit="10"/>
            <path d="M612.602 229.411C614.317 229.378 615.68 227.964 615.648 226.251C615.615 224.538 614.2 223.176 612.486 223.208C610.771 223.241 609.408 224.655 609.44 226.368C609.473 228.081 610.888 229.443 612.602 229.411Z" stroke="#23024D" stroke-miterlimit="10"/>
            <path d="M601.567 229.618C603.281 229.586 604.645 228.172 604.613 226.459C604.58 224.746 603.165 223.384 601.45 223.416C599.736 223.448 598.373 224.863 598.405 226.576C598.437 228.288 599.853 229.651 601.567 229.618Z" stroke="#23024D" stroke-miterlimit="10" stroke-dasharray="12 12"/>
            <path d="M567.641 232.727L586.183 232.605L593.355 239.69L628.6 239.458" stroke="#23024D" stroke-miterlimit="10"/>
        </g>
        <path opacity="0.1" d="M36.3327 19.2581L23 19.3398L23.0327 24.6729L36.3654 24.5912L36.3327 19.2581Z" stroke="#23024D" stroke-miterlimit="10"/>
        <path opacity="0.1" d="M56.1403 19.1331L42.8076 19.2148L42.8403 24.5479L56.173 24.4662L56.1403 19.1331Z" fill="#23024D"/>
        <path opacity="0.1" d="M77.8542 19.0003L64.5215 19.082L64.5542 24.4151L77.8868 24.3334L77.8542 19.0003Z" stroke="#23024D" stroke-miterlimit="10"/>
        <path opacity="0.1" d="M32.5505 114.761C30.8364 114.797 29.4758 116.214 29.5114 117.927C29.5471 119.639 30.9655 120.999 32.6796 120.963C34.3937 120.927 35.7543 119.51 35.7186 117.797C35.683 116.085 34.2645 114.725 32.5505 114.761Z" stroke="#23024D" stroke-miterlimit="10"/>
        <path opacity="0.1" d="M32.5518 114.762L32.3037 102.85L27.6269 98.3677L27.1555 75.7255" stroke="#23024D" stroke-miterlimit="10"/>
        <g opacity="0.1">
            <path d="M24.0838 72.594C24.0982 74.3084 25.4986 75.6864 27.2115 75.672C28.9245 75.6575 30.3014 74.256 30.2869 72.5417C30.2725 70.8273 28.8721 69.4492 27.1592 69.4637C25.4462 69.4781 24.0693 70.8796 24.0838 72.594Z" stroke="#23024D" stroke-miterlimit="10"/>
            <path d="M23.9908 61.6057C24.0052 63.3201 25.4056 64.6982 27.1185 64.6837C28.8315 64.6693 30.2084 63.2678 30.1939 61.5534C30.1794 59.839 28.7791 58.4609 27.0662 58.4754C25.3532 58.4898 23.9763 59.8913 23.9908 61.6057Z" stroke="#23024D" stroke-miterlimit="10"/>
            <path d="M23.8978 50.5688C23.9122 52.2832 25.3126 53.6613 27.0255 53.6468C28.7385 53.6324 30.1154 52.2309 30.1009 50.5165C30.0864 48.8021 28.6861 47.4241 26.9731 47.4385C25.2602 47.453 23.8833 48.8545 23.8978 50.5688Z" stroke="#23024D" stroke-miterlimit="10" stroke-dasharray="12 12"/>
        </g>
        <path d="M264.623 37.1308L264.15 38.8669L262.413 39.3403L264.15 39.8138L264.623 41.5499L265.097 39.8138L266.834 39.3403L265.097 38.8669L264.623 37.1308Z" fill="#E6E6EB"/>
        <path d="M90.9233 10.4985C90.9233 9.67089 91.5943 9 92.4222 9C93.25 9 93.9211 9.67089 93.9211 10.4985C93.9211 11.326 93.25 11.9969 92.4222 11.9969C91.5943 11.9969 90.9233 11.326 90.9233 10.4985Z" fill="#E6E6EB"/>
        <path d="M547.146 112.065L546.32 115.093L543.292 115.918L546.32 116.744L547.146 119.771L547.972 116.744L551 115.918L547.972 115.093L547.146 112.065Z" fill="#E6E6EB"/>
        <path d="M545.203 117.957L545.845 117.315L545.749 117.218L545.106 117.861L545.203 117.957Z" fill="#E6E6EB"/>
        <path d="M545.096 118.064L544.882 118.278L544.785 118.182L544.999 117.968L545.096 118.064Z" fill="#E6E6EB"/>
        <path d="M544.56 118.599L544.774 118.385L544.678 118.289L544.464 118.503L544.56 118.599Z" fill="#E6E6EB"/>
        <path d="M548.607 114.553L549.25 113.911L549.153 113.815L548.511 114.457L548.607 114.553Z" fill="#E6E6EB"/>
        <path d="M549.571 113.59L549.357 113.804L549.26 113.708L549.474 113.494L549.571 113.59Z" fill="#E6E6EB"/>
        <path d="M549.678 113.483L549.892 113.269L549.796 113.173L549.581 113.387L549.678 113.483Z" fill="#E6E6EB"/>
        <path d="M545.042 113.911L545.685 114.554L545.781 114.457L545.139 113.815L545.042 113.911Z" fill="#E6E6EB"/>
        <path d="M544.935 113.804L544.721 113.59L544.817 113.494L545.031 113.708L544.935 113.804Z" fill="#E6E6EB"/>
        <path d="M544.4 113.269L544.614 113.483L544.71 113.387L544.496 113.173L544.4 113.269Z" fill="#E6E6EB"/>
        <path d="M548.447 117.315L549.089 117.957L549.185 117.861L548.543 117.219L548.447 117.315Z" fill="#E6E6EB"/>
        <path d="M549.41 118.278L549.196 118.064L549.292 117.968L549.507 118.182L549.41 118.278Z" fill="#E6E6EB"/>
        <path d="M549.517 118.385L549.731 118.599L549.828 118.503L549.614 118.289L549.517 118.385Z" fill="#E6E6EB"/>
        <path d="M51.8541 178.611L51.0282 181.639L48 182.464L51.0282 183.29L51.8541 186.317L52.6801 183.29L55.7083 182.464L52.6801 181.639L51.8541 178.611Z" fill="#E6E6EB"/>
        <path d="M50.5533 183.861L49.9109 184.503L49.8146 184.407L50.457 183.764L50.5533 183.861Z" fill="#E6E6EB"/>
        <path d="M49.5898 184.824L49.8039 184.61L49.7076 184.514L49.4934 184.728L49.5898 184.824Z" fill="#E6E6EB"/>
        <path d="M49.4827 184.931L49.2686 185.145L49.1722 185.049L49.3864 184.835L49.4827 184.931Z" fill="#E6E6EB"/>
        <path d="M53.9578 180.457L53.3155 181.099L53.2191 181.003L53.8615 180.361L53.9578 180.457Z" fill="#E6E6EB"/>
        <path d="M54.0649 180.35L54.279 180.136L54.1826 180.04L53.9685 180.254L54.0649 180.35Z" fill="#E6E6EB"/>
        <path d="M54.6002 179.815L54.3861 180.029L54.2897 179.933L54.5038 179.719L54.6002 179.815Z" fill="#E6E6EB"/>
        <path d="M50.3928 181.099L49.7505 180.457L49.8468 180.361L50.4892 181.003L50.3928 181.099Z" fill="#E6E6EB"/>
        <path d="M49.4293 180.136L49.6434 180.35L49.7398 180.254L49.5256 180.04L49.4293 180.136Z" fill="#E6E6EB"/>
        <path d="M49.3222 180.029L49.1081 179.815L49.2045 179.719L49.4186 179.933L49.3222 180.029Z" fill="#E6E6EB"/>
        <path d="M53.7973 184.503L53.155 183.861L53.2513 183.764L53.8937 184.407L53.7973 184.503Z" fill="#E6E6EB"/>
        <path d="M53.9044 184.61L54.1185 184.824L54.2149 184.728L54.0007 184.514L53.9044 184.61Z" fill="#E6E6EB"/>
        <path d="M54.4397 185.145L54.2256 184.931L54.3219 184.835L54.536 185.049L54.4397 185.145Z" fill="#E6E6EB"/>
        <path d="M513.754 254.003C512.926 254.003 512.255 254.674 512.255 255.502C512.255 256.329 512.926 257 513.754 257C514.582 257 515.253 256.329 515.253 255.502C515.253 254.674 514.582 254.003 513.754 254.003Z" fill="#E6E6EB"/>
        <path d="M499.79 239.929C500.137 239.929 500.418 239.648 500.418 239.302C500.418 238.955 500.137 238.674 499.79 238.674C499.444 238.674 499.163 238.955 499.163 239.302C499.163 239.648 499.444 239.929 499.79 239.929Z" fill="#E6E6EB"/>
        <path d="M276.186 230.968L275.36 233.995L272.332 234.821L275.36 235.647L276.186 238.674L277.012 235.647L280.04 234.821L277.012 233.995L276.186 230.968Z" fill="#E6E6EB"/>
        <path d="M274.885 236.218L274.243 236.86L274.146 236.764L274.789 236.121L274.885 236.218Z" fill="#E6E6EB"/>
        <path d="M273.921 237.181L274.136 236.967L274.039 236.871L273.825 237.085L273.921 237.181Z" fill="#E6E6EB"/>
        <path d="M273.814 237.288L273.6 237.502L273.504 237.406L273.718 237.192L273.814 237.288Z" fill="#E6E6EB"/>
        <path d="M278.29 232.814L277.647 233.456L277.551 233.36L278.193 232.718L278.29 232.814Z" fill="#E6E6EB"/>
        <path d="M278.397 232.707L278.611 232.493L278.514 232.397L278.3 232.611L278.397 232.707Z" fill="#E6E6EB"/>
        <path d="M278.932 232.172L278.718 232.386L278.621 232.29L278.836 232.076L278.932 232.172Z" fill="#E6E6EB"/>
        <path d="M274.725 233.456L274.082 232.814L274.179 232.718L274.821 233.36L274.725 233.456Z" fill="#E6E6EB"/>
        <path d="M273.761 232.493L273.975 232.707L274.071 232.611L273.857 232.397L273.761 232.493Z" fill="#E6E6EB"/>
        <path d="M273.654 232.386L273.44 232.172L273.536 232.076L273.75 232.29L273.654 232.386Z" fill="#E6E6EB"/>
        <path d="M278.129 236.86L277.487 236.218L277.583 236.121L278.225 236.764L278.129 236.86Z" fill="#E6E6EB"/>
        <path d="M278.236 236.967L278.45 237.181L278.547 237.085L278.332 236.871L278.236 236.967Z" fill="#E6E6EB"/>
        <path d="M278.771 237.502L278.557 237.288L278.654 237.192L278.868 237.406L278.771 237.502Z" fill="#E6E6EB"/>
        <path d="M192.415 102.114L193.241 99.0871L194.067 102.114L197.095 102.94L194.067 103.766L193.241 106.793L192.415 103.766L189.387 102.94L192.415 102.114Z" fill="#E6E6EB"/>
        <path d="M191.298 104.979L191.94 104.337L191.844 104.24L191.201 104.882L191.298 104.979Z" fill="#E6E6EB"/>
        <path d="M191.191 105.086L190.977 105.3L190.88 105.204L191.094 104.99L191.191 105.086Z" fill="#E6E6EB"/>
        <path d="M190.655 105.621L190.87 105.407L190.773 105.311L190.559 105.525L190.655 105.621Z" fill="#E6E6EB"/>
        <path d="M194.702 101.575L195.345 100.933L195.248 100.837L194.606 101.479L194.702 101.575Z" fill="#E6E6EB"/>
        <path d="M195.666 100.612L195.452 100.826L195.355 100.73L195.57 100.516L195.666 100.612Z" fill="#E6E6EB"/>
        <path d="M195.773 100.505L195.987 100.291L195.891 100.195L195.677 100.409L195.773 100.505Z" fill="#E6E6EB"/>
        <path d="M191.137 100.933L191.78 101.575L191.876 101.479L191.234 100.837L191.137 100.933Z" fill="#E6E6EB"/>
        <path d="M191.03 100.826L190.816 100.612L190.913 100.516L191.127 100.73L191.03 100.826Z" fill="#E6E6EB"/>
        <path d="M190.495 100.291L190.709 100.505L190.805 100.409L190.591 100.195L190.495 100.291Z" fill="#E6E6EB"/>
        <path d="M194.542 104.337L195.184 104.979L195.281 104.883L194.638 104.24L194.542 104.337Z" fill="#E6E6EB"/>
        <path d="M195.505 105.3L195.291 105.086L195.388 104.99L195.602 105.204L195.505 105.3Z" fill="#E6E6EB"/>
        <path d="M195.612 105.407L195.827 105.621L195.923 105.525L195.709 105.311L195.612 105.407Z" fill="#E6E6EB"/>
        <path d="M263.898 40.1618L263.53 40.5301L263.433 40.4337L263.802 40.0655L263.898 40.1618Z" fill="#E6E6EB"/>
        <path d="M263.346 40.7143L263.468 40.5916L263.372 40.4953L263.249 40.618L263.346 40.7143Z" fill="#E6E6EB"/>
        <path d="M263.284 40.7757L263.161 40.8985L263.065 40.8021L263.188 40.6794L263.284 40.7757Z" fill="#E6E6EB"/>
        <path d="M265.85 38.2102L265.482 38.5784L265.386 38.4821L265.754 38.1138L265.85 38.2102Z" fill="#E6E6EB"/>
        <path d="M265.912 38.1488L266.035 38.0261L265.938 37.9297L265.816 38.0525L265.912 38.1488Z" fill="#E6E6EB"/>
        <path d="M266.219 37.8419L266.096 37.9647L266 37.8683L266.123 37.7456L266.219 37.8419Z" fill="#E6E6EB"/>
        <path d="M263.765 38.5782L263.396 38.21L263.493 38.1136L263.861 38.4819L263.765 38.5782Z" fill="#E6E6EB"/>
        <path d="M263.212 38.026L263.335 38.1488L263.431 38.0525L263.308 37.9297L263.212 38.026Z" fill="#E6E6EB"/>
        <path d="M263.151 37.9646L263.028 37.8419L263.124 37.7456L263.247 37.8683L263.151 37.9646Z" fill="#E6E6EB"/>
        <path d="M265.717 40.53L265.349 40.1617L265.445 40.0654L265.813 40.4337L265.717 40.53Z" fill="#E6E6EB"/>
        <path d="M265.778 40.5914L265.901 40.7141L265.997 40.6178L265.875 40.495L265.778 40.5914Z" fill="#E6E6EB"/>
        <path d="M266.085 40.8983L265.963 40.7755L266.059 40.6792L266.182 40.8019L266.085 40.8983Z" fill="#E6E6EB"/>
        <path d="M61.2293 75.6453L61.7029 73.9093L62.1765 75.6453L63.9131 76.1188L62.1765 76.5923L61.7029 78.3284L61.2293 76.5923L59.4927 76.1188L61.2293 75.6453Z" fill="#E6E6EB"/>
        <path d="M60.609 77.3085L60.9774 76.9403L60.881 76.844L60.5126 77.2122L60.609 77.3085Z" fill="#E6E6EB"/>
        <path d="M60.5476 77.3701L60.4248 77.4928L60.3285 77.3965L60.4513 77.2737L60.5476 77.3701Z" fill="#E6E6EB"/>
        <path d="M60.2408 77.6769L60.3636 77.5542L60.2672 77.4579L60.1444 77.5806L60.2408 77.6769Z" fill="#E6E6EB"/>
        <path d="M62.5615 75.3569L62.9298 74.9886L62.8335 74.8923L62.4651 75.2606L62.5615 75.3569Z" fill="#E6E6EB"/>
        <path d="M63.114 74.8045L62.9912 74.9273L62.8949 74.831L63.0176 74.7082L63.114 74.8045Z" fill="#E6E6EB"/>
        <path d="M63.1756 74.7431L63.2984 74.6204L63.2021 74.5241L63.0793 74.6468L63.1756 74.7431Z" fill="#E6E6EB"/>
        <path d="M60.4758 74.9884L60.8441 75.3567L60.9405 75.2604L60.5721 74.8921L60.4758 74.9884Z" fill="#E6E6EB"/>
        <path d="M60.4142 74.9273L60.2914 74.8045L60.3877 74.7082L60.5105 74.8309L60.4142 74.9273Z" fill="#E6E6EB"/>
        <path d="M60.1073 74.6204L60.2301 74.7431L60.3264 74.6468L60.2036 74.524L60.1073 74.6204Z" fill="#E6E6EB"/>
        <path d="M62.4279 76.9402L62.7962 77.3085L62.8926 77.2121L62.5242 76.8439L62.4279 76.9402Z" fill="#E6E6EB"/>
        <path d="M62.9804 77.4926L62.8577 77.3699L62.954 77.2735L63.0768 77.3963L62.9804 77.4926Z" fill="#E6E6EB"/>
        <path d="M63.042 77.554L63.1648 77.6767L63.2612 77.5804L63.1384 77.4577L63.042 77.554Z" fill="#E6E6EB"/>
    </g>
    <defs>
        <clipPath id="clip0_12379_81915">
            <rect width="624" height="282" rx="10" fill="white"/>
        </clipPath>
    </defs>
</svg>
