<svg width="100%" height="100%" viewBox="0 0 777 624" fill="none" xmlns="http://www.w3.org/2000/svg">
    <g opacity="0.1">
        <path fill-rule="evenodd" clip-rule="evenodd" d="M197.116 434.082H181.66L181.66 432.228H197.116V434.082Z" fill="#26144E"/>
        <path fill-rule="evenodd" clip-rule="evenodd" d="M194.055 426.927L186.327 440.31L184.721 439.383L192.449 426L194.055 426.927Z" fill="#26144E"/>
        <path fill-rule="evenodd" clip-rule="evenodd" d="M194.055 439.383L186.327 426L184.721 426.927L192.449 440.31L194.055 439.383Z" fill="#26144E"/>
        <path fill-rule="evenodd" clip-rule="evenodd" d="M288.302 20.0826L272.846 20.0826V18.2281L288.302 18.2281V20.0826Z" fill="#26144E"/>
        <path fill-rule="evenodd" clip-rule="evenodd" d="M285.241 12.9272L277.513 26.3107L275.907 25.3834L283.635 12L285.241 12.9272Z" fill="#26144E"/>
        <path fill-rule="evenodd" clip-rule="evenodd" d="M285.241 25.3834L277.513 12L275.907 12.9272L283.635 26.3107L285.241 25.3834Z" fill="#26144E"/>
        <path fill-rule="evenodd" clip-rule="evenodd" d="M275.85 569.654L281.004 565.185L282.885 567.356L281.246 568.777L301.953 570.953L300.645 569.222L302.937 567.491L307.05 572.933L301.895 577.401L300.014 575.231L301.653 573.81L280.946 571.633L282.254 573.364L279.962 575.096L275.85 569.654Z" fill="#26144E"/>
        <path fill-rule="evenodd" clip-rule="evenodd" d="M282.23 583.983L280.937 577.286L283.757 576.741L284.168 578.871L296.407 562.026L294.254 562.294L293.9 559.443L300.67 558.603L301.962 565.301L299.142 565.845L298.731 563.715L286.492 580.56L288.645 580.292L288.999 583.143L282.23 583.983Z" fill="#26144E"/>
        <path fill-rule="evenodd" clip-rule="evenodd" d="M285.07 556.963L282.413 563.246L285.058 564.365L285.903 562.367L294.372 581.388L292.322 580.679L291.383 583.393L297.83 585.623L300.486 579.34L297.841 578.222L296.996 580.22L288.527 561.198L290.577 561.907L291.516 559.193L285.07 556.963Z" fill="#26144E"/>
        <path fill-rule="evenodd" clip-rule="evenodd" d="M367.133 180.349L365.907 181.728L366.971 182.673L368.509 180.943L378.401 180.077L380.217 181.514L381.1 180.399L379.653 179.253L380.879 177.874L379.816 176.929L378.277 178.66L368.385 179.525L366.57 178.088L365.686 179.204L367.133 180.349Z" fill="#26144E"/>
        <path fill-rule="evenodd" clip-rule="evenodd" d="M370.75 185.469L371.421 187.311L372.758 186.824L371.945 184.591L376.131 175.613L378.365 174.8L377.878 173.463L376.036 174.133L375.366 172.291L374.029 172.778L374.842 175.011L370.655 183.989L368.422 184.802L368.908 186.14L370.75 185.469Z" fill="#26144E"/>
        <path fill-rule="evenodd" clip-rule="evenodd" d="M369.806 174.678L370.147 172.748L371.548 172.995L371.135 175.336L376.817 183.45L379.158 183.863L378.911 185.264L376.98 184.924L376.64 186.854L375.239 186.607L375.651 184.267L369.969 176.152L367.629 175.739L367.876 174.338L369.806 174.678Z" fill="#26144E"/>
        <path fill-rule="evenodd" clip-rule="evenodd" d="M266.491 131.488L264.111 134.165L266.175 136L269.162 132.641L288.363 130.961L291.888 133.75L293.602 131.585L290.794 129.362L293.173 126.685L291.109 124.85L288.123 128.209L268.921 129.889L265.397 127.099L263.682 129.265L266.491 131.488Z" fill="#26144E"/>
        <path fill-rule="evenodd" clip-rule="evenodd" d="M273.512 141.427L274.813 145.003L277.409 144.058L275.831 139.722L283.957 122.295L288.293 120.717L287.348 118.121L283.773 119.423L282.471 115.847L279.876 116.792L281.454 121.127L273.327 138.555L268.991 140.133L269.936 142.728L273.512 141.427Z" fill="#26144E"/>
        <path fill-rule="evenodd" clip-rule="evenodd" d="M271.679 120.481L272.34 116.733L275.06 117.213L274.259 121.757L285.288 137.508L289.832 138.31L289.353 141.03L285.605 140.369L284.944 144.116L282.224 143.637L283.026 139.093L271.996 123.341L267.452 122.54L267.932 119.82L271.679 120.481Z" fill="#26144E"/>
        <path fill-rule="evenodd" clip-rule="evenodd" d="M718.953 222.87L717.529 224.473L718.764 225.572L720.552 223.56L732.048 222.555L734.158 224.225L735.184 222.928L733.503 221.597L734.927 219.995L733.691 218.896L731.904 220.907L720.408 221.913L718.298 220.243L717.272 221.539L718.953 222.87Z" fill="#26144E"/>
        <path fill-rule="evenodd" clip-rule="evenodd" d="M723.157 228.821L723.936 230.961L725.49 230.396L724.545 227.8L729.41 217.367L732.005 216.422L731.44 214.868L729.299 215.647L728.52 213.507L726.966 214.072L727.911 216.668L723.046 227.101L720.45 228.046L721.016 229.6L723.157 228.821Z" fill="#26144E"/>
        <path fill-rule="evenodd" clip-rule="evenodd" d="M722.059 216.281L722.455 214.037L724.083 214.324L723.604 217.045L730.207 226.475L732.927 226.954L732.64 228.583L730.396 228.187L730.001 230.431L728.372 230.143L728.852 227.423L722.249 217.993L719.529 217.514L719.816 215.885L722.059 216.281Z" fill="#26144E"/>
        <path fill-rule="evenodd" clip-rule="evenodd" d="M634.799 453.012V457.47H636.399V456.041H650.085V457.47H651.685V453.012H650.085V454.441H636.399V453.012H634.799Z" fill="#26144E"/>
        <path fill-rule="evenodd" clip-rule="evenodd" d="M641.013 463.684H645.471V462.084H644.042V448.398H645.471V446.798H641.013V448.398H642.442V462.084L641.013 462.084V463.684Z" fill="#26144E"/>
        <path fill-rule="evenodd" clip-rule="evenodd" d="M635.695 459.635L638.848 462.788L639.979 461.656L638.969 460.646L648.647 450.968L649.657 451.979L650.789 450.847L647.636 447.694L646.504 448.826L647.515 449.836L637.837 459.514L636.827 458.504L635.695 459.635Z" fill="#26144E"/>
        <path fill-rule="evenodd" clip-rule="evenodd" d="M647.636 462.788L650.788 459.635L649.657 458.503L648.646 459.514L638.969 449.836L639.979 448.826L638.848 447.694L635.695 450.847L636.827 451.978L637.837 450.968L647.515 460.646L646.504 461.656L647.636 462.788Z" fill="#26144E"/>
        <path fill-rule="evenodd" clip-rule="evenodd" d="M569.885 533.083V537.844H571.594V536.318H586.208V537.844H587.917V533.083H586.208V534.609H571.594V533.083H569.885Z" fill="#26144E"/>
        <path fill-rule="evenodd" clip-rule="evenodd" d="M576.521 544.479H581.281V542.771H579.755V528.156H581.281V526.448H576.521V528.156H578.047V542.771H576.521V544.479Z" fill="#26144E"/>
        <path fill-rule="evenodd" clip-rule="evenodd" d="M570.843 540.155L574.209 543.522L575.417 542.313L574.338 541.234L584.672 530.9L585.751 531.98L586.959 530.771L583.593 527.405L582.385 528.613L583.464 529.692L573.13 540.026L572.051 538.947L570.843 540.155Z" fill="#26144E"/>
        <path fill-rule="evenodd" clip-rule="evenodd" d="M583.593 543.521L586.959 540.155L585.751 538.947L584.672 540.026L574.338 529.692L575.417 528.613L574.209 527.405L570.843 530.771L572.051 531.979L573.13 530.9L583.464 541.234L582.385 542.313L583.593 543.521Z" fill="#26144E"/>
        <path fill-rule="evenodd" clip-rule="evenodd" d="M498.249 22.008V26.4666H499.849V25.0374H513.536V26.4666H515.136V22.008H513.536V23.4373L499.849 23.4373V22.008H498.249Z" fill="#26144E"/>
        <path fill-rule="evenodd" clip-rule="evenodd" d="M504.463 32.6807H508.922V31.0806H507.492V17.3942H508.922V15.7941L504.463 15.7941V17.3942L505.892 17.3942V31.0806H504.463V32.6807Z" fill="#26144E"/>
        <path fill-rule="evenodd" clip-rule="evenodd" d="M499.146 28.6312L502.298 31.7839L503.43 30.6524L502.419 29.6418L512.097 19.9641L513.108 20.9747L514.239 19.8433L511.086 16.6906L509.955 17.822L510.965 18.8327L501.288 28.5104L500.277 27.4998L499.146 28.6312Z" fill="#26144E"/>
        <path fill-rule="evenodd" clip-rule="evenodd" d="M511.086 31.7838L514.239 28.6311L513.107 27.4997L512.097 28.5103L502.419 18.8325L503.43 17.8219L502.298 16.6905L499.146 19.8432L500.277 20.9746L501.288 19.964L510.965 29.6417L509.955 30.6523L511.086 31.7838Z" fill="#26144E"/>
    </g>
    <g opacity="0.2">
        <path d="M389.264 465.494C387.94 465.139 387.154 463.779 387.509 462.455C387.864 461.131 389.225 460.345 390.548 460.7C391.872 461.055 392.658 462.415 392.303 463.739C391.948 465.063 390.588 465.849 389.264 465.494Z" fill="#070F5B"/>
        <path d="M509.832 140.116C508.508 139.761 507.722 138.4 508.077 137.077C508.432 135.753 509.793 134.967 511.116 135.322C512.44 135.677 513.226 137.037 512.871 138.361C512.516 139.685 511.156 140.47 509.832 140.116Z" fill="#070F5B"/>
        <path d="M733.052 307.54C731.729 307.185 730.943 305.824 731.298 304.5C731.652 303.177 733.013 302.391 734.337 302.746C735.661 303.101 736.446 304.461 736.092 305.785C735.737 307.109 734.376 307.894 733.052 307.54Z" fill="#070F5B"/>
        <path d="M357.547 148.372C355.892 147.929 354.91 146.228 355.353 144.573C355.797 142.918 357.498 141.936 359.152 142.38C360.807 142.823 361.789 144.524 361.346 146.179C360.902 147.833 359.201 148.815 357.547 148.372Z" fill="#070F5B"/>
        <path d="M76.2392 543.267C80.1905 544.326 82.5354 548.387 81.4766 552.338C80.4179 556.29 76.3564 558.635 72.4051 557.576C68.4537 556.517 66.1088 552.456 67.1676 548.504C68.2264 544.553 72.2878 542.208 76.2392 543.267Z" fill="#070F5B"/>
        <path d="M360.87 382.102C359.216 381.658 358.234 379.957 358.677 378.303C359.121 376.648 360.821 375.666 362.476 376.109C364.131 376.553 365.113 378.254 364.669 379.908C364.226 381.563 362.525 382.545 360.87 382.102Z" fill="#070F5B"/>
        <path fill-rule="evenodd" clip-rule="evenodd" d="M264.927 169.504C265.274 168.209 264.505 166.877 263.21 166.53C261.914 166.183 260.583 166.952 260.236 168.247C259.888 169.542 260.657 170.874 261.953 171.221C263.248 171.568 264.58 170.8 264.927 169.504ZM263.558 165.229C265.572 165.769 266.767 167.839 266.228 169.853C265.688 171.867 263.618 173.062 261.604 172.522C259.59 171.982 258.395 169.912 258.935 167.898C259.474 165.885 261.544 164.689 263.558 165.229Z" fill="#070F5B"/>
        <path d="M766.141 156.733C764.817 156.378 764.032 155.017 764.386 153.693C764.741 152.37 766.102 151.584 767.425 151.939C768.749 152.293 769.535 153.654 769.18 154.978C768.825 156.302 767.465 157.087 766.141 156.733Z" fill="#070F5B"/>
        <path fill-rule="evenodd" clip-rule="evenodd" d="M320.649 185.075C320.31 186.343 321.062 187.645 322.329 187.985C323.596 188.324 324.899 187.572 325.238 186.305C325.578 185.038 324.826 183.735 323.559 183.396C322.291 183.056 320.989 183.808 320.649 185.075ZM319.349 184.727C318.816 186.712 319.995 188.753 321.98 189.286C323.966 189.818 326.007 188.639 326.539 186.654C327.071 184.668 325.893 182.627 323.907 182.095C321.922 181.563 319.881 182.741 319.349 184.727Z" fill="#070F5B"/>
        <path fill-rule="evenodd" clip-rule="evenodd" d="M574.19 395.88C573.85 397.147 574.602 398.45 575.869 398.789C577.137 399.129 578.439 398.377 578.779 397.11C579.118 395.842 578.366 394.54 577.099 394.2C575.832 393.861 574.529 394.613 574.19 395.88ZM572.889 395.531C572.357 397.517 573.535 399.558 575.521 400.09C577.506 400.622 579.547 399.444 580.079 397.458C580.611 395.473 579.433 393.432 577.448 392.9C575.462 392.367 573.421 393.546 572.889 395.531Z" fill="#070F5B"/>
        <path fill-rule="evenodd" clip-rule="evenodd" d="M586.496 188.652C586.156 189.919 586.908 191.222 588.176 191.562C589.443 191.901 590.745 191.149 591.085 189.882C591.424 188.615 590.672 187.312 589.405 186.973C588.138 186.633 586.835 187.385 586.496 188.652ZM585.195 188.304C584.663 190.289 585.841 192.33 587.827 192.862C589.813 193.394 591.854 192.216 592.386 190.23C592.918 188.245 591.739 186.204 589.754 185.672C587.768 185.14 585.727 186.318 585.195 188.304Z" fill="#070F5B"/>
        <path fill-rule="evenodd" clip-rule="evenodd" d="M384.417 510.942C384.077 512.209 384.829 513.512 386.096 513.852C387.363 514.191 388.666 513.439 389.006 512.172C389.345 510.905 388.593 509.602 387.326 509.263C386.059 508.923 384.756 509.675 384.417 510.942ZM383.116 510.594C382.584 512.579 383.762 514.62 385.748 515.152C387.733 515.684 389.774 514.506 390.306 512.52C390.838 510.535 389.66 508.494 387.674 507.962C385.689 507.43 383.648 508.608 383.116 510.594Z" fill="#070F5B"/>
        <path d="M521.016 362.073C519.03 361.54 517.852 359.5 518.384 357.514C518.916 355.528 520.957 354.35 522.943 354.882C524.928 355.414 526.107 357.455 525.575 359.441C525.042 361.426 523.002 362.605 521.016 362.073Z" fill="#070F5B"/>
        <path fill-rule="evenodd" clip-rule="evenodd" d="M519.685 357.862C519.345 359.13 520.097 360.432 521.364 360.772C522.632 361.111 523.934 360.359 524.274 359.092C524.613 357.825 523.861 356.522 522.594 356.183C521.327 355.843 520.024 356.595 519.685 357.862ZM518.384 357.514C517.852 359.5 519.03 361.54 521.016 362.073C523.002 362.605 525.042 361.426 525.575 359.441C526.107 357.455 524.928 355.414 522.943 354.882C520.957 354.35 518.916 355.528 518.384 357.514Z" fill="#1127E9"/>
        <path d="M616.469 334.809H569.382V335.949H616.469V334.809Z" fill="#070F5B"/>
        <path d="M624.875 286.461L616.965 288.581L617.26 289.682L625.17 287.562L624.875 286.461Z" fill="#070F5B"/>
        <path d="M350.823 424.704L345.033 430.494L345.839 431.3L351.63 425.51L350.823 424.704Z" fill="#070F5B"/>
        <path d="M340.207 435.322L325.248 450.281L326.054 451.087L341.013 436.128L340.207 435.322Z" fill="#070F5B"/>
        <path d="M304.982 470.548L319.94 455.589L320.747 456.395L305.788 471.354L304.982 470.548Z" fill="#070F5B"/>
        <path d="M589.94 295.819L610.374 290.344L610.669 291.445L590.235 296.92L589.94 295.819Z" fill="#070F5B"/>
        <path d="M582.688 297.766L562.254 303.241L562.549 304.342L582.983 298.867L582.688 297.766Z" fill="#070F5B"/>
        <path d="M508.229 222.19L505.499 226.918L506.486 227.488L509.216 222.76L508.229 222.19Z" fill="#070F5B"/>
        <path d="M510.617 218.055L517.783 205.644L518.77 206.214L511.604 218.625L510.617 218.055Z" fill="#070F5B"/>
        <path d="M527.337 189.094L520.171 201.505L521.158 202.075L528.324 189.664L527.337 189.094Z" fill="#070F5B"/>
        <path d="M280.178 378.607L285.452 377.194L285.747 378.295L280.473 379.708L280.178 378.607Z" fill="#070F5B"/>
        <path d="M303.909 372.248L290.066 375.957L290.361 377.058L304.204 373.349L303.909 372.248Z" fill="#070F5B"/>
        <path d="M308.523 371.011L322.366 367.302L322.661 368.403L308.818 372.112L308.523 371.011Z" fill="#070F5B"/>
        <path d="M552.397 223.446L567.356 208.487L568.162 209.293L553.203 224.252L552.397 223.446Z" fill="#070F5B"/>
        <path d="M547.089 228.753L532.13 243.712L532.936 244.518L547.895 229.559L547.089 228.753Z" fill="#070F5B"/>
        <path d="M314.217 409.335L332.538 398.757L333.108 399.745L314.787 410.322L314.217 409.335Z" fill="#070F5B"/>
        <path d="M307.715 413.09L289.395 423.667L289.965 424.654L308.285 414.077L307.715 413.09Z" fill="#070F5B"/>
        <path d="M564.839 264.639L555.383 270.099L555.953 271.086L565.409 265.626L564.839 264.639Z" fill="#070F5B"/>
        <path d="M573.113 259.859L598.526 245.187L599.096 246.174L573.683 260.847L573.113 259.859Z" fill="#070F5B"/>
        <path d="M627.462 228.773L607.39 240.074L607.96 241.061L628.032 229.76L627.462 228.773Z" fill="#070F5B"/>
        <path d="M231.508 334.73H242.427V335.87H231.508V334.73Z" fill="#070F5B"/>
        <path d="M281.324 334.733L251.98 334.732V335.872H281.324L281.324 334.733Z" fill="#070F5B"/>
        <path d="M291.56 334.733H320.221L320.221 335.873L291.56 335.873L291.56 334.733Z" fill="#070F5B"/>
        <path d="M356.292 484.414L379.835 443.635L380.822 444.205L357.279 484.984L356.292 484.414Z" fill="#070F5B"/>
        <path d="M405.337 205.427L407.457 213.337L408.558 213.042L406.438 205.132L405.337 205.427Z" fill="#070F5B"/>
        <path d="M403.575 198.834L398.099 178.4L399.2 178.105L404.676 198.539L403.575 198.834Z" fill="#070F5B"/>
        <path d="M390.68 150.716L396.156 171.15L397.257 170.855L391.782 150.421L390.68 150.716Z" fill="#070F5B"/>
        <path d="M575.673 470.086L569.883 464.296L570.689 463.49L576.479 469.28L575.673 470.086Z" fill="#070F5B"/>
        <path d="M550.099 444.51L565.057 459.469L565.863 458.663L550.905 443.704L550.099 444.51Z" fill="#070F5B"/>
        <path d="M544.79 439.204L529.831 424.245L530.637 423.439L545.596 438.398L544.79 439.204Z" fill="#070F5B"/>
        <path d="M442.519 467.424L442.519 461.964L443.659 461.964L443.659 467.424L442.519 467.424Z" fill="#070F5B"/>
        <path d="M442.52 472.198V486.529H443.66V472.198L442.52 472.198Z" fill="#070F5B"/>
        <path d="M442.519 505.639V491.308H443.659V505.639L442.519 505.639Z" fill="#070F5B"/>
        <path d="M323.23 217.936L327.09 221.797L327.896 220.991L324.036 217.13L323.23 217.936Z" fill="#070F5B"/>
        <path d="M340.601 235.309L330.468 225.175L331.274 224.369L341.407 234.503L340.601 235.309Z" fill="#070F5B"/>
        <path d="M343.979 238.687L354.113 248.82L354.919 248.014L344.785 237.881L343.979 238.687Z" fill="#070F5B"/>
        <path d="M481.397 488.417L486.872 508.851L487.974 508.556L482.498 488.121L481.397 488.417Z" fill="#070F5B"/>
        <path d="M479.454 481.168L473.979 460.734L475.08 460.439L480.555 480.873L479.454 481.168Z" fill="#070F5B"/>
        <path d="M368.073 208.342L378.651 226.663L379.638 226.093L369.06 207.772L368.073 208.342Z" fill="#070F5B"/>
        <path d="M364.321 201.839L353.744 183.518L354.731 182.948L365.308 201.269L364.321 201.839Z" fill="#070F5B"/>
        <path d="M512.77 458.962L507.311 449.506L508.298 448.936L513.758 458.392L512.77 458.962Z" fill="#070F5B"/>
        <path d="M517.546 467.239L532.218 492.652L533.205 492.082L518.533 466.669L517.546 467.239Z" fill="#070F5B"/>
        <path d="M546.441 517.618L537.338 501.512L538.325 500.942L547.428 517.048L546.441 517.618Z" fill="#070F5B"/>
        <path d="M259.141 231.601L268.597 237.06L269.167 236.073L259.711 230.614L259.141 231.601Z" fill="#070F5B"/>
        <path d="M302.285 256.507L276.872 241.835L277.442 240.847L302.855 255.519L302.285 256.507Z" fill="#070F5B"/>
        <path d="M311.149 261.624L335.971 275.955L336.541 274.967L311.719 260.636L311.149 261.624Z" fill="#070F5B"/>
        <path d="M442.049 164.363V211.449H443.189V164.363H442.049Z" fill="#070F5B"/>
        <path d="M592.567 424.01L551.789 400.467L552.359 399.48L593.137 423.023L592.567 424.01Z" fill="#070F5B"/>
        <path d="M521.121 58.0395L523.824 47.9517L524.926 48.2467L522.223 58.3346L521.121 58.0395Z" fill="#000636"/>
        <path d="M508.688 104.443L518.419 68.1266L519.52 68.4216L509.789 104.738L508.688 104.443Z" fill="#000636"/>
        <path d="M391.105 543.267L505.444 116.549L506.545 116.844L392.206 543.562L391.105 543.267Z" fill="#000636"/>
        <path d="M375.157 602.786L384.888 566.469L385.989 566.764L376.258 603.081L375.157 602.786Z" fill="#000636"/>
        <path d="M369.751 622.961L372.454 612.873L373.555 613.168L370.852 623.256L369.751 622.961Z" fill="#000636"/>
        <path d="M776.008 420.165L762.394 416.518L762.689 415.416L776.303 419.064L776.008 420.165Z" fill="#000636"/>
        <path d="M748.78 412.87L699.769 399.737L700.064 398.636L749.075 411.768L748.78 412.87Z" fill="#000636"/>
        <path d="M668.455 391.347L92.5759 237.04L92.8709 235.939L668.75 390.246L668.455 391.347Z" fill="#000636"/>
        <path d="M76.2392 232.663L27.2282 219.531L27.5233 218.429L76.5342 231.562L76.2392 232.663Z" fill="#000636"/>
        <path d="M13.6142 215.883L0 212.235L0.295055 211.134L13.9092 214.781L13.6142 215.883Z" fill="#000636"/>
        <path fill-rule="evenodd" clip-rule="evenodd" d="M571.622 362.399C571.434 363.151 571.24 363.903 571.038 364.655C570.837 365.407 570.629 366.155 570.415 366.9L569.32 366.586C569.532 365.847 569.737 365.105 569.937 364.36C570.137 363.615 570.33 362.869 570.515 362.123L571.622 362.399ZM569.413 370.23C568.945 371.713 568.453 373.182 567.937 374.636L566.862 374.255C567.374 372.813 567.862 371.357 568.326 369.887L569.413 370.23ZM573.343 354.46C573.062 355.978 572.754 357.496 572.418 359.014L571.305 358.767C571.638 357.263 571.944 355.758 572.222 354.253L573.343 354.46ZM566.731 377.897C566.173 379.347 565.591 380.782 564.985 382.201L563.936 381.754C564.537 380.347 565.114 378.925 565.667 377.488L566.731 377.897ZM574.569 346.433C574.384 347.965 574.17 349.499 573.929 351.033L572.803 350.856C573.042 349.335 573.254 347.814 573.437 346.296L574.569 346.433ZM563.576 385.387C562.929 386.797 562.259 388.191 561.567 389.568L560.548 389.056C561.235 387.691 561.899 386.309 562.539 384.912L563.576 385.387ZM575.293 338.344C575.203 339.883 575.086 341.425 574.941 342.969L573.806 342.862C573.95 341.332 574.066 339.804 574.155 338.278L575.293 338.344ZM575.508 330.219C575.515 331.763 575.495 333.31 575.447 334.861L574.308 334.825C574.356 333.289 574.375 331.755 574.368 330.225L575.508 330.219ZM559.96 392.662C559.226 394.029 558.469 395.379 557.691 396.712L556.706 396.137C557.478 394.816 558.228 393.478 558.955 392.123L559.96 392.662ZM575.212 322.1C575.316 323.642 575.394 325.188 575.443 326.739L574.304 326.776C574.255 325.239 574.178 323.706 574.074 322.177L575.212 322.1ZM555.895 399.693C555.077 401.012 554.237 402.312 553.375 403.595L552.429 402.96C553.283 401.688 554.116 400.399 554.927 399.092L555.895 399.693ZM574.406 314.018C574.607 315.55 574.782 317.088 574.929 318.631L573.794 318.739C573.648 317.21 573.475 315.685 573.276 314.167L574.406 314.018ZM551.396 406.458C550.497 407.721 549.577 408.966 548.636 410.191L547.732 409.497C548.664 408.282 549.576 407.049 550.467 405.797L551.396 406.458ZM573.093 306C573.391 307.517 573.661 309.04 573.905 310.57L572.779 310.75C572.538 309.233 572.269 307.723 571.974 306.22L573.093 306ZM546.478 412.927C545.502 414.13 544.506 415.314 543.491 416.479L542.631 415.729C543.638 414.575 544.626 413.402 545.593 412.209L546.478 412.927ZM571.28 298.08C571.672 299.576 572.038 301.08 572.377 302.592L571.265 302.841C570.928 301.343 570.566 299.852 570.177 298.369L571.28 298.08ZM541.166 419.072C540.116 420.212 539.048 421.332 537.96 422.431L537.15 421.629C538.228 420.54 539.287 419.43 540.327 418.3L541.166 419.072ZM568.975 290.291C569.46 291.759 569.919 293.238 570.352 294.726L569.258 295.044C568.828 293.57 568.373 292.104 567.892 290.648L568.975 290.291ZM535.479 424.872C534.361 425.944 533.224 426.995 532.069 428.024L531.31 427.173C532.455 426.153 533.582 425.112 534.691 424.049L535.479 424.872ZM566.187 282.661C566.763 284.096 567.313 285.542 567.838 286.999L566.766 287.386C566.245 285.942 565.7 284.508 565.129 283.085L566.187 282.661ZM529.439 430.307C528.256 431.306 527.056 432.283 525.84 433.238L525.136 432.342C526.341 431.395 527.531 430.426 528.703 429.436L529.439 430.307ZM562.928 275.218C563.592 276.615 564.232 278.025 564.847 279.446L563.801 279.898C563.191 278.49 562.557 277.093 561.898 275.708L562.928 275.218ZM523.072 435.353C521.829 436.276 520.57 437.176 519.296 438.054L518.649 437.115C519.912 436.245 521.16 435.353 522.392 434.437L523.072 435.353ZM559.211 267.995C559.962 269.348 560.688 270.715 561.39 272.094L560.374 272.611C559.678 271.244 558.958 269.889 558.214 268.547L559.211 267.995ZM516.403 439.991C515.105 440.835 513.792 441.655 512.465 442.452L511.879 441.474C513.194 440.685 514.495 439.871 515.781 439.035L516.403 439.991ZM555.051 261.017C555.885 262.321 556.695 263.639 557.482 264.972L556.5 265.552C555.72 264.231 554.917 262.923 554.09 261.631L555.051 261.017ZM509.457 444.204C508.109 444.965 506.748 445.702 505.374 446.415L504.849 445.403C506.211 444.696 507.56 443.966 508.896 443.212L509.457 444.204ZM550.463 254.312C551.377 255.562 552.268 256.827 553.136 258.108L552.192 258.748C551.332 257.478 550.449 256.224 549.543 254.985L550.463 254.312ZM502.261 447.976C500.869 448.651 499.464 449.302 498.048 449.927L497.588 448.884C498.991 448.264 500.384 447.619 501.764 446.95L502.261 447.976ZM545.464 247.908C546.455 249.098 547.423 250.305 548.37 251.529L547.468 252.227C546.53 251.014 545.57 249.817 544.588 248.638L545.464 247.908ZM494.844 451.29C493.412 451.877 491.97 452.438 490.517 452.973L490.123 451.904C491.563 451.373 492.993 450.817 494.411 450.236L494.844 451.29ZM540.072 241.83C541.136 242.956 542.179 244.1 543.2 245.262L542.344 246.015C541.332 244.863 540.298 243.729 539.244 242.613L540.072 241.83ZM487.233 454.133C485.768 454.629 484.293 455.098 482.809 455.542L482.482 454.449C483.954 454.01 485.416 453.545 486.868 453.053L487.233 454.133ZM534.309 236.105C535.443 237.161 536.555 238.238 537.648 239.332L536.84 240.138C535.758 239.052 534.655 237.986 533.532 236.938L534.309 236.105ZM479.46 456.492C477.966 456.894 476.465 457.27 474.955 457.618L474.698 456.508C476.195 456.162 477.683 455.79 479.163 455.391L479.46 456.492ZM528.196 230.755C529.394 231.738 530.572 232.741 531.731 233.764L530.976 234.619C529.828 233.605 528.66 232.61 527.473 231.636L528.196 230.755ZM471.551 458.356C470.037 458.663 468.514 458.942 466.986 459.194L466.8 458.07C468.315 457.82 469.824 457.542 471.325 457.238L471.551 458.356ZM521.754 225.803C523.012 226.708 524.252 227.635 525.472 228.582L524.774 229.482C523.564 228.544 522.335 227.625 521.088 226.728L521.754 225.803ZM463.54 459.715C462.01 459.925 460.473 460.107 458.931 460.262L458.817 459.128C460.345 458.974 461.868 458.794 463.386 458.585L463.54 459.715ZM515.01 221.271C516.324 222.095 517.621 222.941 518.9 223.809L518.26 224.752C516.993 223.892 515.707 223.053 514.404 222.237L515.01 221.271ZM455.463 460.562C453.921 460.674 452.375 460.759 450.824 460.815L450.783 459.676C452.319 459.62 453.852 459.536 455.38 459.425L455.463 460.562ZM507.994 217.179C509.358 217.918 510.706 218.679 512.036 219.463L511.457 220.445C510.139 219.669 508.803 218.914 507.451 218.182L507.994 217.179ZM447.345 460.893C445.801 460.907 444.253 460.893 442.702 460.85L442.734 459.711C444.271 459.753 445.805 459.767 447.335 459.753L447.345 460.893ZM500.73 213.541C502.138 214.191 503.53 214.865 504.906 215.562L504.391 216.579C503.027 215.888 501.647 215.221 500.252 214.577L500.73 213.541ZM439.219 460.707C437.679 460.622 436.137 460.51 434.593 460.369L434.696 459.233C436.227 459.373 437.756 459.485 439.282 459.569L439.219 460.707ZM493.246 210.37C494.695 210.931 496.128 211.516 497.547 212.124L497.097 213.172C495.691 212.569 494.271 211.989 492.835 211.434L493.246 210.37ZM431.127 460.005C429.595 459.822 428.061 459.612 426.526 459.373L426.701 458.247C428.223 458.483 429.743 458.692 431.262 458.873L431.127 460.005ZM485.581 207.679C487.064 208.148 488.532 208.642 489.986 209.16L489.604 210.234C488.163 209.72 486.707 209.231 485.238 208.766L485.581 207.679ZM423.098 458.792C421.579 458.513 420.061 458.207 418.543 457.871L418.788 456.758C420.293 457.09 421.798 457.394 423.303 457.671L423.098 458.792ZM480.006 206.052C480.758 206.253 481.507 206.461 482.252 206.675L481.937 207.771C481.198 207.559 480.457 207.353 479.711 207.153C478.966 206.953 478.221 206.761 477.475 206.575L477.75 205.469C478.503 205.656 479.255 205.85 480.006 206.052ZM415.157 457.076C414.405 456.889 413.653 456.695 412.901 456.493C412.149 456.292 411.401 456.084 410.656 455.87L410.97 454.774C411.709 454.987 412.451 455.192 413.196 455.392C413.941 455.592 414.687 455.784 415.432 455.97L415.157 457.076ZM469.81 203.753C471.328 204.032 472.846 204.339 474.365 204.674L474.119 205.787C472.614 205.455 471.109 205.151 469.604 204.875L469.81 203.753ZM407.326 454.866C405.843 454.397 404.375 453.903 402.921 453.385L403.303 452.312C404.745 452.825 406.2 453.314 407.67 453.779L407.326 454.866ZM461.78 202.541C463.312 202.723 464.846 202.933 466.381 203.172L466.206 204.299C464.685 204.062 463.164 203.853 461.645 203.673L461.78 202.541ZM399.661 452.175C398.213 451.614 396.779 451.029 395.361 450.421L395.81 449.373C397.216 449.976 398.637 450.556 400.073 451.111L399.661 452.175ZM453.688 201.838C455.228 201.923 456.77 202.035 458.315 202.176L458.211 203.312C456.68 203.172 455.152 203.06 453.625 202.977L453.688 201.838ZM392.177 449.004C390.77 448.354 389.377 447.68 388.001 446.983L388.517 445.966C389.88 446.657 391.26 447.324 392.655 447.969L392.177 449.004ZM445.562 201.652C447.106 201.638 448.654 201.652 450.205 201.695L450.173 202.834C448.637 202.792 447.103 202.778 445.573 202.792L445.562 201.652ZM384.913 445.366C383.549 444.627 382.202 443.866 380.871 443.082L381.45 442.1C382.768 442.877 384.104 443.631 385.456 444.363L384.913 445.366ZM437.445 201.983C438.986 201.871 440.533 201.787 442.083 201.73L442.125 202.87C440.588 202.925 439.055 203.009 437.527 203.12L437.445 201.983ZM377.898 441.274C376.583 440.45 375.286 439.604 374.007 438.736L374.647 437.793C375.915 438.653 377.2 439.492 378.503 440.308L377.898 441.274ZM429.367 202.83C430.898 202.62 432.434 202.438 433.977 202.283L434.09 203.417C432.562 203.571 431.039 203.752 429.522 203.96L429.367 202.83ZM371.154 436.742C369.895 435.837 368.656 434.911 367.435 433.963L368.134 433.063C369.344 434.002 370.572 434.92 371.819 435.817L371.154 436.742ZM421.356 204.189C422.871 203.883 424.393 203.603 425.921 203.351L426.107 204.476C424.592 204.726 423.083 205.003 421.582 205.307L421.356 204.189ZM364.711 431.79C363.514 430.807 362.335 429.804 361.177 428.781L361.931 427.926C363.079 428.94 364.247 429.935 365.434 430.909L364.711 431.79ZM413.447 206.053C414.941 205.651 416.443 205.275 417.952 204.927L418.209 206.038C416.712 206.383 415.224 206.755 413.744 207.154L413.447 206.053ZM358.598 426.441C357.465 425.384 356.352 424.308 355.26 423.213L356.067 422.408C357.149 423.493 358.252 424.559 359.375 425.607L358.598 426.441ZM405.674 208.412C407.139 207.916 408.614 207.447 410.099 207.004L410.425 208.096C408.954 208.535 407.491 209.001 406.039 209.492L405.674 208.412ZM352.835 420.715C351.771 419.589 350.728 418.445 349.707 417.283L350.563 416.531C351.575 417.682 352.609 418.816 353.663 419.932L352.835 420.715ZM398.064 211.255C399.495 210.668 400.937 210.107 402.39 209.572L402.784 210.641C401.344 211.172 399.915 211.728 398.496 212.31L398.064 211.255ZM347.443 414.637C346.453 413.447 345.484 412.24 344.538 411.016L345.439 410.319C346.377 411.532 347.337 412.728 348.319 413.908L347.443 414.637ZM390.646 214.569C392.038 213.894 393.443 213.244 394.859 212.618L395.319 213.661C393.916 214.281 392.524 214.926 391.143 215.595L390.646 214.569ZM342.444 408.233C341.53 406.983 340.639 405.718 339.771 404.437L340.715 403.797C341.575 405.067 342.459 406.321 343.364 407.56L342.444 408.233ZM383.451 218.341C384.798 217.58 386.16 216.843 387.534 216.13L388.058 217.143C386.696 217.849 385.347 218.579 384.011 219.334L383.451 218.341ZM337.856 401.529C337.023 400.225 336.212 398.906 335.426 397.573L336.407 396.993C337.187 398.315 337.99 399.622 338.817 400.914L337.856 401.529ZM376.505 222.554C377.802 221.711 379.115 220.89 380.442 220.093L381.029 221.071C379.714 221.86 378.413 222.674 377.126 223.51L376.505 222.554ZM333.696 394.551C332.946 393.197 332.219 391.83 331.517 390.451L332.533 389.934C333.229 391.301 333.949 392.656 334.693 393.998L333.696 394.551ZM369.835 227.193C371.078 226.269 372.337 225.369 373.611 224.491L374.258 225.43C372.995 226.3 371.747 227.193 370.515 228.108L369.835 227.193ZM329.979 387.327C329.315 385.93 328.675 384.52 328.06 383.099L329.107 382.647C329.716 384.055 330.35 385.452 331.009 386.837L329.979 387.327ZM363.468 232.238C364.651 231.239 365.851 230.262 367.068 229.307L367.772 230.203C366.566 231.15 365.376 232.119 364.204 233.109L363.468 232.238ZM326.72 379.884C326.145 378.449 325.594 377.003 325.069 375.546L326.142 375.16C326.662 376.604 327.208 378.037 327.778 379.46L326.72 379.884ZM357.428 237.673C358.547 236.601 359.684 235.55 360.838 234.521L361.597 235.372C360.453 236.392 359.326 237.434 358.216 238.496L357.428 237.673ZM323.933 372.254C323.448 370.786 322.988 369.307 322.555 367.819L323.65 367.501C324.079 368.975 324.534 370.441 325.015 371.897L323.933 372.254ZM351.741 243.473C352.791 242.333 353.86 241.213 354.947 240.114L355.758 240.916C354.68 242.005 353.62 243.115 352.58 244.245L351.741 243.473ZM321.627 364.465C321.235 362.969 320.869 361.465 320.53 359.953L321.643 359.704C321.979 361.203 322.341 362.693 322.73 364.176L321.627 364.465ZM346.429 249.618C347.405 248.415 348.401 247.231 349.417 246.066L350.276 246.816C349.269 247.97 348.282 249.144 347.314 250.336L346.429 249.618ZM319.814 356.545C319.517 355.029 319.246 353.505 319.003 351.975L320.128 351.796C320.37 353.312 320.638 354.823 320.933 356.325L319.814 356.545ZM341.512 256.087C342.41 254.824 343.331 253.58 344.271 252.354L345.175 253.048C344.243 254.263 343.331 255.496 342.44 256.748L341.512 256.087ZM318.501 348.527C318.3 346.995 318.125 345.457 317.979 343.914L319.113 343.806C319.259 345.336 319.432 346.86 319.632 348.378L318.501 348.527ZM337.012 262.852C337.83 261.533 338.67 260.233 339.532 258.95L340.478 259.586C339.624 260.857 338.791 262.146 337.98 263.453L337.012 262.852ZM317.696 340.445C317.591 338.903 317.513 337.357 317.464 335.806L318.603 335.769C318.652 337.307 318.729 338.84 318.833 340.368L317.696 340.445ZM332.948 269.883C333.681 268.516 334.438 267.166 335.216 265.833L336.201 266.408C335.429 267.729 334.679 269.068 333.952 270.422L332.948 269.883ZM317.4 332.326C317.392 330.782 317.412 329.235 317.46 327.685L318.599 327.72C318.552 329.257 318.532 330.79 318.54 332.321L317.4 332.326ZM329.332 277.158C329.978 275.748 330.648 274.355 331.34 272.977L332.359 273.489C331.672 274.854 331.009 276.236 330.368 277.633L329.332 277.158ZM317.615 324.201C317.704 322.662 317.821 321.12 317.966 319.576L319.101 319.683C318.957 321.213 318.841 322.742 318.753 324.267L317.615 324.201ZM326.177 284.648C326.735 283.198 327.317 281.764 327.922 280.344L328.971 280.791C328.371 282.198 327.794 283.621 327.24 285.058L326.177 284.648ZM318.338 316.112C318.524 314.58 318.737 313.047 318.978 311.512L320.104 311.689C319.865 313.21 319.654 314.731 319.47 316.249L318.338 316.112ZM323.494 292.315C323.962 290.832 324.454 289.364 324.971 287.909L326.045 288.29C325.533 289.732 325.045 291.188 324.582 292.658L323.494 292.315ZM319.564 308.085C319.845 306.567 320.153 305.049 320.489 303.531L321.602 303.778C321.269 305.283 320.963 306.788 320.685 308.292L319.564 308.085ZM321.869 297.89C322.07 297.139 322.278 296.39 322.492 295.645L323.588 295.959C323.376 296.698 323.17 297.44 322.97 298.185C322.77 298.931 322.578 299.676 322.392 300.422L321.286 300.146C321.473 299.394 321.668 298.642 321.869 297.89Z" fill="#070F5B"/>
        <path d="M388.566 231.818C431.467 243.313 456.857 287.696 445.266 330.956C433.674 374.217 389.494 399.958 346.593 388.463C303.692 376.968 278.302 332.585 289.893 289.325C290.09 288.591 290.296 287.862 290.511 287.138L289.418 286.813C289.2 287.547 288.991 288.286 288.792 289.029C277.04 332.89 302.781 377.904 346.298 389.564C389.815 401.224 434.615 375.112 446.367 331.252C458.119 287.391 432.378 242.377 388.861 230.717L388.566 231.818Z" fill="#070F5B"/>
        <path d="M388.861 230.717C388.117 230.518 387.373 230.329 386.628 230.152L386.364 231.261C387.098 231.436 387.832 231.622 388.566 231.818L388.861 230.717Z" fill="#070F5B"/>
        <path d="M383.261 229.424C381.749 229.131 380.237 228.882 378.728 228.676L378.574 229.806C380.062 230.008 381.553 230.254 383.043 230.543L383.261 229.424Z" fill="#070F5B"/>
        <path d="M375.305 228.284C373.773 228.142 372.244 228.044 370.719 227.99L370.679 229.129C372.182 229.183 373.689 229.279 375.199 229.42L375.305 228.284Z" fill="#070F5B"/>
        <path d="M367.274 227.941C365.737 227.952 364.206 228.007 362.682 228.106L362.755 229.243C364.258 229.146 365.767 229.092 367.282 229.081L367.274 227.941Z" fill="#070F5B"/>
        <path d="M359.249 228.401C357.722 228.565 356.204 228.772 354.696 229.022L354.883 230.147C356.369 229.9 357.866 229.696 359.371 229.534L359.249 228.401Z" fill="#070F5B"/>
        <path d="M351.31 229.657C349.808 229.972 348.318 230.329 346.841 230.727L347.138 231.828C348.594 231.435 350.063 231.083 351.544 230.773L351.31 229.657Z" fill="#070F5B"/>
        <path d="M343.534 231.694C342.072 232.155 340.625 232.657 339.193 233.199L339.597 234.265C341.008 233.731 342.435 233.236 343.877 232.781L343.534 231.694Z" fill="#070F5B"/>
        <path d="M335.997 234.487C334.588 235.089 333.197 235.73 331.825 236.41L332.331 237.431C333.684 236.761 335.056 236.129 336.445 235.535L335.997 234.487Z" fill="#070F5B"/>
        <path d="M328.77 238.004C327.427 238.74 326.105 239.514 324.805 240.325L325.409 241.292C326.691 240.493 327.994 239.729 329.318 239.003L328.77 238.004Z" fill="#070F5B"/>
        <path d="M321.92 242.208C320.657 243.072 319.416 243.971 318.201 244.904L318.895 245.808C320.094 244.888 321.317 244.001 322.563 243.15L321.92 242.208Z" fill="#070F5B"/>
        <path d="M315.512 247.06C314.339 248.041 313.192 249.057 312.073 250.105L312.852 250.937C313.956 249.904 315.087 248.902 316.244 247.934L315.512 247.06Z" fill="#070F5B"/>
        <path d="M309.607 252.512C308.536 253.603 307.493 254.725 306.481 255.878L307.337 256.63C308.336 255.493 309.364 254.386 310.421 253.311L309.607 252.512Z" fill="#070F5B"/>
        <path d="M304.262 258.514C303.303 259.704 302.375 260.923 301.48 262.17L302.406 262.835C303.289 261.605 304.204 260.403 305.15 259.23L304.262 258.514Z" fill="#070F5B"/>
        <path d="M299.53 265.01C298.692 266.287 297.888 267.591 297.118 268.921L298.104 269.492C298.864 268.18 299.657 266.895 300.483 265.636L299.53 265.01Z" fill="#070F5B"/>
        <path d="M295.455 271.938C294.747 273.289 294.074 274.665 293.437 276.065L294.474 276.537C295.103 275.156 295.767 273.799 296.465 272.467L295.455 271.938Z" fill="#070F5B"/>
        <path d="M292.076 279.23C291.503 280.641 290.967 282.076 290.468 283.533L291.546 283.902C292.038 282.465 292.568 281.051 293.132 279.658L292.076 279.23Z" fill="#070F5B"/>
        <path fill-rule="evenodd" clip-rule="evenodd" d="M448.912 331.934C437.32 375.194 462.711 419.577 505.612 431.072L505.317 432.173C461.799 420.513 436.058 375.499 447.811 331.639C459.563 287.779 504.362 261.666 547.879 273.326C591.397 284.987 617.138 330.001 605.385 373.861L604.284 373.566C615.876 330.305 590.485 285.923 547.584 274.427C504.684 262.932 460.503 288.673 448.912 331.934Z" fill="#070F5B"/>
        <path fill-rule="evenodd" clip-rule="evenodd" d="M507.549 432.738C506.805 432.561 506.06 432.373 505.317 432.173L505.612 431.072C506.345 431.269 507.079 431.454 507.814 431.629L507.549 432.738ZM515.45 434.214C513.94 434.009 512.428 433.759 510.917 433.466L511.134 432.347C512.625 432.636 514.115 432.882 515.604 433.084L515.45 434.214ZM523.458 434.9C521.933 434.846 520.405 434.748 518.873 434.606L518.978 433.471C520.488 433.611 521.996 433.707 523.499 433.761L523.458 434.9ZM531.495 434.785C529.971 434.883 528.44 434.938 526.903 434.949L526.895 433.809C528.41 433.798 529.92 433.744 531.422 433.647L531.495 434.785ZM539.481 433.868C537.973 434.118 536.455 434.325 534.928 434.49L534.807 433.356C536.312 433.194 537.808 432.99 539.295 432.744L539.481 433.868ZM547.336 432.163C545.859 432.561 544.369 432.918 542.868 433.233L542.634 432.117C544.114 431.807 545.583 431.455 547.039 431.062L547.336 432.163ZM554.984 429.691C553.553 430.233 552.105 430.735 550.643 431.196L550.3 430.109C551.742 429.654 553.169 429.159 554.581 428.625L554.984 429.691ZM562.352 426.48C560.98 427.16 559.589 427.801 558.18 428.404L557.732 427.355C559.121 426.761 560.493 426.129 561.846 425.459L562.352 426.48ZM569.372 422.566C568.072 423.376 566.75 424.15 565.407 424.887L564.859 423.887C566.183 423.161 567.487 422.398 568.769 421.598L569.372 422.566ZM575.977 417.986C574.761 418.92 573.521 419.819 572.257 420.682L571.614 419.741C572.86 418.889 574.084 418.003 575.282 417.082L575.977 417.986ZM582.105 412.785C580.985 413.833 579.838 414.849 578.665 415.83L577.933 414.956C579.09 413.988 580.222 412.987 581.326 411.953L582.105 412.785ZM587.697 407.012C586.684 408.165 585.641 409.288 584.57 410.378L583.757 409.579C584.813 408.504 585.841 407.397 586.84 406.26L587.697 407.012ZM592.698 400.72C591.802 401.968 590.874 403.187 589.915 404.376L589.028 403.66C589.973 402.487 590.889 401.285 591.772 400.055L592.698 400.72ZM597.06 393.969C596.29 395.3 595.485 396.603 594.648 397.88L593.695 397.254C594.52 395.996 595.314 394.71 596.073 393.398L597.06 393.969ZM600.741 386.825C600.103 388.225 599.43 389.601 598.722 390.952L597.713 390.423C598.411 389.091 599.075 387.734 599.703 386.353L600.741 386.825ZM603.71 379.358C603.211 380.814 602.674 382.249 602.101 383.661L601.045 383.232C601.61 381.84 602.139 380.425 602.631 378.988L603.71 379.358ZM605.385 373.861C605.186 374.605 604.977 375.343 604.759 376.077L603.666 375.752C603.882 375.028 604.088 374.299 604.284 373.566L605.385 373.861Z" fill="#070F5B"/>
    </g>
    <path d="M492.866 502.637L602.649 210.412L392.204 153.968L341.152 462.023C339.221 469.231 371.607 484.185 413.501 495.41C455.395 506.636 490.934 509.844 492.866 502.637Z" fill="white" stroke="#070F5B" stroke-miterlimit="10"/>
    <ellipse cx="497.425" cy="182.2" rx="108.93" ry="18.5773" transform="rotate(15 497.425 182.2)" stroke="#070F5B" stroke-miterlimit="10"/>
    <path d="M503.878 308.26C507.989 314.267 490.046 336.319 480.562 346.594C469.628 340.14 447.207 325.728 444.994 319.721C442.781 313.714 460.67 291.135 469.891 280.597C479.508 287.315 499.768 302.253 503.878 308.26Z" fill="white" stroke="#070F5B" stroke-miterlimit="10"/>
    <path d="M503.683 307.666C498.677 314.252 487.559 327.583 483.133 328.216" stroke="#070F5B" stroke-miterlimit="10"/>
    <path d="M406.193 285.908C401.443 286.277 398.69 290.51 397.908 292.58L440.395 344.7C452.777 346.958 459.681 331.705 457.987 318.29C457.185 311.943 457.06 299.424 452.5 281.559C439.043 282.855 410.943 285.539 406.193 285.908Z" fill="white" stroke="#070F5B" stroke-miterlimit="10"/>
    <path d="M439.485 293.119C441.559 295.59 440.946 328.507 440.381 344.656C429.017 345.373 414.592 350.68 401.123 344.396C390.882 339.619 395.652 293.343 397.908 292.58C400.164 291.817 436.893 290.031 439.485 293.119Z" fill="white" stroke="#070F5B" stroke-miterlimit="10"/>
    <path d="M439.352 292.894C441.264 290.44 449.275 282.967 451.985 282.05" stroke="#070F5B" stroke-miterlimit="10"/>
    <path d="M435.382 413.667C431.816 415.468 431.031 419.629 431.085 421.484L480.66 448.356C490.983 446.158 491.474 432.126 485.881 422.262C483.235 417.596 479.145 407.926 469.91 395.525C459.887 400.822 438.949 411.866 435.382 413.667Z" fill="white" stroke="#070F5B" stroke-miterlimit="10"/>
    <path d="M463.503 408.641C465.9 409.896 475.923 435.62 480.635 448.326C472.05 452.506 462.555 461.223 450.105 460.646C440.638 460.207 429.578 422.795 431.085 421.483C432.591 420.172 460.507 407.072 463.503 408.641Z" fill="white" stroke="#070F5B" stroke-miterlimit="10"/>
    <path d="M463.328 408.509C464.029 405.996 467.858 397.645 469.668 396.07" stroke="#070F5B" stroke-miterlimit="10"/>
    <path d="M501.244 293.729C503.764 288.631 504.425 284.394 507.114 270.359L441.066 252.662C441.044 253.939 441.064 249.013 435.618 269.338C432.205 279.2 452.084 300.049 462.45 309.241C477.591 304.799 498.723 298.826 501.244 293.729Z" fill="white" stroke="#070F5B" stroke-miterlimit="10"/>
    <path d="M506.464 273.272C502.32 284.325 478.131 289.137 466.333 293.482C459.755 287.216 438.234 265.71 439.829 255.418C441.423 245.125 453.037 242.256 462.43 238.017C471.822 233.778 480.648 233.593 487.188 232.53C492.992 244.719 510.607 262.22 506.464 273.272Z" fill="white" stroke="#070F5B" stroke-miterlimit="10"/>
    <path d="M466.463 293.417L463.052 308.79" stroke="#070F5B" stroke-miterlimit="10"/>
    <ellipse opacity="0.3" cx="484.396" cy="245.874" rx="97.6094" ry="17.5361" stroke="#070F5B" stroke-miterlimit="10"/>
    <path opacity="0.3" d="M569.323 245.873C569.323 247.635 566.539 249.308 561.548 250.809C551.069 253.963 530.861 256.365 506.268 257.273M413.993 252.471C404.825 250.588 399.47 248.317 399.47 245.873C399.47 240.911 421.532 236.664 452.776 234.922" stroke="#070F5B" stroke-miterlimit="10"/>
    <path opacity="0.3" d="M536.451 242.946C527.639 241.88 514.149 241.098 498.42 240.803C496.584 240.768 494.719 240.741 492.826 240.72M448.582 250.151C456.492 250.603 465.717 250.909 475.687 251.023C478.534 251.056 481.442 251.073 484.397 251.073C487.07 251.073 489.703 251.059 492.288 251.032C493.674 251.018 495.046 251 496.402 250.978" stroke="#070F5B" stroke-miterlimit="10"/>
    <path opacity="0.3" d="M399.018 163.614C406.796 161.665 422.714 162.562 442.957 165.949" stroke="#070F5B" stroke-miterlimit="10"/>
    <path opacity="0.3" d="M399.04 165.849C399.04 165.849 369.444 357.786 364.155 395.347C358.866 432.907 383.028 453.17 422.1 463.639C461.172 474.108 492.721 466.959 506.442 433.437C520.164 399.915 592.369 221.658 592.369 221.658C586.775 223.016 581.187 223.28 574.348 222.695" stroke="#070F5B" stroke-miterlimit="10"/>
    <path fill-rule="evenodd" clip-rule="evenodd" d="M435.829 368.151L424.951 349.307L406.238 360.12L401.487 351.943L428.411 336.385L439.29 355.232L469.005 338.073L478.211 354.019L497.298 342.997L502.046 351.176L474.749 366.938L465.544 350.992L435.829 368.151Z" fill="#26144E"/>
    <path fill-rule="evenodd" clip-rule="evenodd" d="M429.114 393.209L418.236 374.365L399.523 385.178L394.773 377.001L421.696 361.444L432.576 380.29L462.291 363.132L471.496 379.077L490.583 368.056L495.332 376.234L468.034 391.996L458.829 376.051L429.114 393.209Z" fill="#26144E"/>
    <circle cx="507.411" cy="325.428" r="2.75801" transform="rotate(15 507.411 325.428)" fill="white" stroke="#070F5B" stroke-miterlimit="10"/>
    <circle cx="418.27" cy="301.427" r="1.59462" transform="rotate(15 418.27 301.427)" fill="white" stroke="#070F5B" stroke-miterlimit="10"/>
    <circle cx="416.305" cy="295.165" r="1.08294" transform="rotate(15 416.305 295.165)" fill="white" stroke="#070F5B" stroke-miterlimit="10"/>
    <circle cx="511.475" cy="313.126" r="0.741257" transform="rotate(15 511.475 313.126)" fill="white" stroke="#070F5B" stroke-miterlimit="10"/>
    <circle cx="515.008" cy="320.474" r="1.8388" transform="rotate(15 515.008 320.474)" fill="white" stroke="#070F5B" stroke-miterlimit="10"/>
    <circle cx="413.137" cy="302.803" r="1.06315" transform="rotate(15 413.137 302.803)" fill="white" stroke="#070F5B" stroke-miterlimit="10"/>
    <circle cx="534.554" cy="289.806" r="3.90242" transform="rotate(15 534.554 289.806)" fill="white" stroke="#070F5B" stroke-miterlimit="10"/>
    <circle r="3.90242" transform="matrix(0.954643 -0.297754 -0.297754 -0.954643 427.059 415.179)" fill="white" stroke="#070F5B" stroke-miterlimit="10"/>
    <circle cx="532.374" cy="281.015" r="1.89522" transform="rotate(15 532.374 281.015)" fill="white" stroke="#070F5B" stroke-miterlimit="10"/>
    <circle r="1.89522" transform="matrix(0.954643 -0.297754 -0.297754 -0.954643 426.216 430.2)" fill="white" stroke="#070F5B" stroke-miterlimit="10"/>
    <circle cx="540.925" cy="274.195" r="0.947612" transform="rotate(15 540.925 274.195)" fill="white" stroke="#070F5B" stroke-miterlimit="10"/>
    <circle r="0.947612" transform="matrix(0.954643 -0.297754 -0.297754 -0.954643 423.043 408.225)" fill="white" stroke="#070F5B" stroke-miterlimit="10"/>
    <path d="M540.42 282.99C540.217 283.748 540.667 284.527 541.425 284.731C542.183 284.934 542.963 284.484 543.166 283.725C543.369 282.967 542.919 282.188 542.161 281.985" stroke="#070F5B" stroke-miterlimit="10"/>
    <path d="M429.235 436.534C429.001 435.785 429.419 434.988 430.168 434.754C430.918 434.52 431.715 434.938 431.949 435.688C432.182 436.437 431.764 437.234 431.015 437.468" stroke="#070F5B" stroke-miterlimit="10"/>
    <ellipse cx="497.425" cy="182.2" rx="108.93" ry="18.5773" transform="rotate(15 497.425 182.2)" fill="white" stroke="#070F5B" stroke-miterlimit="10"/>
    <path d="M602.644 210.393C599.988 220.303 550.728 215.715 492.617 200.144C434.506 184.573 389.551 163.917 392.206 154.006" stroke="#070F5B" stroke-miterlimit="10"/>
    <path d="M501.685 249.365L576.214 121.969L587.911 127.995L518.915 249.365C518.915 249.365 517.38 250.732 509.254 250.732C501.685 250.732 501.685 249.365 501.685 249.365Z" fill="white" stroke="#070F5B" stroke-miterlimit="10"/>
    <ellipse cx="581.269" cy="126.691" rx="8.61443" ry="3.02305" transform="rotate(27.3415 581.269 126.691)" fill="white" stroke="#070F5B" stroke-miterlimit="10"/>
    <ellipse cx="583.334" cy="122.922" rx="8.61443" ry="3.02305" transform="rotate(35.1819 583.334 122.922)" fill="white" stroke="#070F5B" stroke-miterlimit="10"/>
    <ellipse cx="586.091" cy="119.425" rx="8.61443" ry="3.02305" transform="rotate(41.8583 586.091 119.425)" fill="white" stroke="#070F5B" stroke-miterlimit="10"/>
    <ellipse cx="589.59" cy="116.539" rx="8.61443" ry="3.02305" transform="rotate(54.5958 589.59 116.539)" fill="white" stroke="#070F5B" stroke-miterlimit="10"/>
    <ellipse cx="593.123" cy="114.626" rx="8.61443" ry="3.02305" transform="rotate(68.0525 593.123 114.626)" fill="white" stroke="#070F5B" stroke-miterlimit="10"/>
    <path d="M693.852 98.801L694.981 111.531L599.244 120.034C598.809 121.273 598.193 122.04 597.463 122.088C595.797 122.205 594.175 118.454 593.84 113.708C593.504 108.962 594.582 105.019 596.248 104.902C597.082 104.843 597.905 105.754 598.561 107.274L693.852 98.801Z" fill="white" stroke="#070F5B" stroke-miterlimit="10"/>
    <ellipse cx="694.898" cy="105.124" rx="6.42213" ry="2.23606" transform="rotate(84.9648 694.898 105.124)" fill="white" stroke="#070F5B" stroke-miterlimit="10"/>
    <path d="M343.748 110.489C321.872 136.745 325.423 175.763 351.678 197.638C360.535 205.017 367.413 208.591 378.026 210.288L390.358 152.464L392.665 152.41L392.675 211.73C412.272 213.536 425.277 205.97 438.827 189.708C460.703 163.453 457.152 124.435 430.897 102.559C404.641 80.6834 365.623 84.2339 343.748 110.489Z" fill="white" stroke="#070F5B" stroke-miterlimit="10"/>
    <path d="M393.393 153.031L419.97 186.664C420.999 187.966 420.779 189.863 419.438 190.841C411.171 196.877 402.696 200.574 393 200.679" stroke="#B5B7CE"/>
    <path d="M393.897 152.305L422.795 184.485C423.833 185.642 425.59 185.819 426.798 184.841C434.845 178.324 439.114 171.721 441.083 161.494C441.454 159.565 439.788 157.842 437.824 157.864C434.018 157.909 427.648 157.604 419.804 155.778C406.849 152.762 394.373 150.372 394.373 150.372" stroke="#B5B7CE"/>
    <path d="M390.126 146.713C390.126 146.713 383.09 135.909 379.956 128.491C377.614 122.948 373.711 111.988 371.889 106.804C371.337 105.236 369.61 104.4 368.074 105.036C358.415 109.034 353.487 114.626 348.642 124.462C347.979 125.808 348.46 127.424 349.759 128.175C352.926 130.007 359.109 133.345 366.141 135.866C376.347 139.525 388.836 148.178 388.836 148.178" stroke="#B5B7CE"/>
    <path d="M388.061 149.278C388.061 149.278 375.388 141.98 371.329 140.134C368.126 138.677 354.179 133.873 348.434 131.91C347.008 131.422 345.441 132.071 344.849 133.457C340.472 143.704 339.868 154.721 343.117 165.697C343.585 167.277 345.297 168.093 346.839 167.514C353.144 165.144 358.46 162.595 363.619 160.801C370.003 158.58 379.507 153.771 387.683 150.927" stroke="#B5B7CE"/>
    <path d="M387.987 151.946L365.295 161.852L347.393 170.293C346.1 170.903 345.41 172.342 345.78 173.724C348.715 184.697 352.835 192.432 371.429 196.781C372.873 197.119 374.335 196.305 374.846 194.913L390.058 153.475" stroke="#B5B7CE"/>
    <path d="M394.766 149.023C394.766 149.023 411.841 153.175 421.853 154.42C429.05 155.315 436.123 154.471 439.531 153.926C440.795 153.724 441.75 152.691 441.832 151.414C442.542 140.359 438.356 131.097 431.447 121.966C430.409 120.593 428.421 120.436 427.131 121.574C424.126 124.226 418.702 128.931 413.53 133.007C405.828 139.077 393.799 148.063 393.799 148.063" stroke="#B5B7CE"/>
    <path d="M392.914 146.917C404.851 139.173 413.562 129.897 423.712 119.801C425.606 117.918 425.72 114.856 423.835 112.964C406.03 95.0958 390.775 97.4173 378.12 101.195C376.639 101.637 375.764 103.15 376.098 104.659C377.029 108.857 378.938 117.24 380.814 124.084C383.43 133.629 391.215 147.162 391.215 147.162" stroke="#B5B7CE"/>
    <circle cx="391.288" cy="150.099" r="3.34055" transform="rotate(39.8006 391.288 150.099)" fill="white" stroke="#B5B7CE"/>
    <path d="M341.152 462.023L392.046 154.75" stroke="#070F5B" stroke-miterlimit="10"/>
    <path d="M602.644 210.393C599.988 220.304 550.728 215.715 492.617 200.144C434.506 184.574 389.457 164.267 392.113 154.357" stroke="#070F5B" stroke-miterlimit="10"/>
</svg>
