<svg width="239" height="114" viewBox="0 0 239 114" fill="none" xmlns="http://www.w3.org/2000/svg">
    <mask id="mask0_5746_58815" style="mask-type:alpha" maskUnits="userSpaceOnUse" x="0" y="0" width="239" height="114">
        <path d="M0 5C0 2.23858 2.23858 0 5 0H234C236.761 0 239 2.23858 239 5V109C239 111.761 236.761 114 234 114H5C2.23858 114 0 111.761 0 109V5Z" fill="white"/>
    </mask>
    <g mask="url(#mask0_5746_58815)">
        <g opacity="0.2">
            <path fill-rule="evenodd" clip-rule="evenodd" d="M32.1759 15.998V10.998H32.8238V15.998H32.1759Z" fill="#26144E"/>
            <path fill-rule="evenodd" clip-rule="evenodd" d="M34.6759 15.0079L29.9999 12.5079L30.3238 11.9882L34.9999 14.4882L34.6759 15.0079Z" fill="#26144E"/>
            <path fill-rule="evenodd" clip-rule="evenodd" d="M30.3238 15.0079L34.9999 12.5079L34.6759 11.9882L29.9999 14.4882L30.3238 15.0079Z" fill="#26144E"/>
        </g>
        <g opacity="0.1">
            <path fill-rule="evenodd" clip-rule="evenodd" d="M87.176 15.998V10.998H87.824V15.998H87.176Z" fill="#26144E"/>
            <path fill-rule="evenodd" clip-rule="evenodd" d="M89.676 15.0079L85 12.5079L85.324 11.9882L90 14.4882L89.676 15.0079Z" fill="#26144E"/>
            <path fill-rule="evenodd" clip-rule="evenodd" d="M85.324 15.0079L90 12.5079L89.676 11.9882L85 14.4882L85.324 15.0079Z" fill="#26144E"/>
        </g>
        <g opacity="0.05">
            <path fill-rule="evenodd" clip-rule="evenodd" d="M190.909 0.371229L192.286 1.95977L191.617 2.53963L191.179 2.0344L190.509 8.41651L191.042 8.01339L191.576 8.71964L189.899 9.98715L188.521 8.39861L189.19 7.81876L189.628 8.32398L190.299 1.94187L189.766 2.34499L189.232 1.63874L190.909 0.371229Z" fill="#26144E"/>
            <path fill-rule="evenodd" clip-rule="evenodd" d="M186.493 2.33757L188.557 1.93924L188.725 2.80844L188.068 2.93512L193.26 6.70709L193.177 6.04355L194.056 5.93448L194.315 8.02081L192.251 8.41914L192.083 7.54995L192.74 7.42326L187.548 3.65129L187.63 4.31483L186.752 4.42391L186.493 2.33757Z" fill="#26144E"/>
            <path fill-rule="evenodd" clip-rule="evenodd" d="M194.82 3.21284L192.884 2.39403L192.539 3.20936L193.155 3.46977L187.293 6.07991L187.511 5.448L186.675 5.15866L185.987 7.14554L187.924 7.96435L188.268 7.14902L187.653 6.88861L193.515 4.27847L193.297 4.91038L194.133 5.19972L194.82 3.21284Z" fill="#26144E"/>
        </g>
        <g opacity="0.05">
            <path fill-rule="evenodd" clip-rule="evenodd" d="M236.817 52.119L237.536 52.9478L237.187 53.2504L236.958 52.9867L236.608 56.3167L236.886 56.1064L237.165 56.4749L236.29 57.1362L235.571 56.3074L235.92 56.0048L236.149 56.2684L236.499 52.9385L236.22 53.1488L235.942 52.7803L236.817 52.119Z" fill="#26144E"/>
            <path fill-rule="evenodd" clip-rule="evenodd" d="M234.513 53.1449L235.59 52.9371L235.677 53.3906L235.335 53.4567L238.044 55.4248L238.001 55.0786L238.459 55.0217L238.594 56.1102L237.517 56.3181L237.43 55.8646L237.772 55.7985L235.063 53.8304L235.106 54.1766L234.648 54.2335L234.513 53.1449Z" fill="#26144E"/>
            <path fill-rule="evenodd" clip-rule="evenodd" d="M238.858 53.6016L237.847 53.1744L237.668 53.5998L237.989 53.7357L234.93 55.0975L235.044 54.7678L234.608 54.6169L234.249 55.6535L235.259 56.0808L235.439 55.6554L235.118 55.5195L238.177 54.1576L238.063 54.4873L238.499 54.6383L238.858 53.6016Z" fill="#26144E"/>
        </g>
        <g opacity="0.1">
            <path fill-rule="evenodd" clip-rule="evenodd" d="M89.5215 42.0905L89.0964 41.7127L88.8051 42.0404L89.3385 42.5146L89.6052 45.5634L89.1622 46.123L89.5061 46.3952L89.8591 45.9492L90.2841 46.3271L90.5755 45.9993L90.0421 45.5251L89.7753 42.4764L90.2183 41.9168L89.8744 41.6446L89.5215 42.0905Z" fill="#26144E"/>
            <path fill-rule="evenodd" clip-rule="evenodd" d="M87.9434 43.2053L87.3757 43.4119L87.5257 43.824L88.2141 43.5735L90.9811 44.8638L91.2317 45.5522L91.6438 45.4022L91.4372 44.8345L92.0049 44.6278L91.8549 44.2157L91.1665 44.4663L88.3994 43.176L88.1489 42.4876L87.7368 42.6376L87.9434 43.2053Z" fill="#26144E"/>
            <path fill-rule="evenodd" clip-rule="evenodd" d="M91.2692 42.9143L91.8641 43.0193L91.788 43.4511L91.0665 43.3239L88.5656 45.0751L88.4384 45.7966L88.0065 45.7204L88.1114 45.1254L87.5164 45.0205L87.5926 44.5886L88.314 44.7159L90.815 42.9647L90.9422 42.2432L91.3741 42.3194L91.2692 42.9143Z" fill="#26144E"/>
        </g>
        <g opacity="0.1">
            <path fill-rule="evenodd" clip-rule="evenodd" d="M219.453 75.5766L218.959 75.1376L218.621 75.5184L219.241 76.0695L219.551 79.6124L219.036 80.2627L219.435 80.579L219.846 80.0608L220.34 80.4999L220.678 80.119L220.058 79.5679L219.748 76.0251L220.263 75.3748L219.864 75.0585L219.453 75.5766Z" fill="#26144E"/>
            <path fill-rule="evenodd" clip-rule="evenodd" d="M217.619 76.8721L216.96 77.1122L217.134 77.5911L217.934 77.2999L221.15 78.7994L221.441 79.5994L221.92 79.4251L221.679 78.7653L222.339 78.5252L222.165 78.0463L221.365 78.3375L218.149 76.8381L217.858 76.0381L217.379 76.2124L217.619 76.8721Z" fill="#26144E"/>
            <path fill-rule="evenodd" clip-rule="evenodd" d="M221.484 76.534L222.176 76.6559L222.087 77.1578L221.249 77.0099L218.342 79.0449L218.195 79.8834L217.693 79.7949L217.815 79.1035L217.123 78.9815L217.212 78.4797L218.05 78.6275L220.956 76.5925L221.104 75.7541L221.606 75.8426L221.484 76.534Z" fill="#26144E"/>
        </g>
        <g opacity="0.1">
            <path fill-rule="evenodd" clip-rule="evenodd" d="M119.16 82.998H117.84V83.4718H118.263V87.5243H117.84V87.998H119.16V87.5243H118.737V83.4718H119.16V82.998Z" fill="#26144E"/>
            <path fill-rule="evenodd" clip-rule="evenodd" d="M116 84.838V86.1581L116.474 86.1581V85.7349L120.526 85.7349V86.1581H121L121 84.838H120.526L120.526 85.2611L116.474 85.2611V84.838H116Z" fill="#26144E"/>
            <path fill-rule="evenodd" clip-rule="evenodd" d="M117.199 83.2635L116.266 84.197L116.601 84.532L116.9 84.2328L119.765 87.0983L119.466 87.3975L119.801 87.7325L120.735 86.7991L120.4 86.464L120.1 86.7633L117.235 83.8978L117.534 83.5985L117.199 83.2635Z" fill="#26144E"/>
            <path fill-rule="evenodd" clip-rule="evenodd" d="M116.266 86.799L117.199 87.7325L117.534 87.3975L117.235 87.0983L120.1 84.2328L120.4 84.532L120.735 84.197L119.801 83.2635L119.466 83.5985L119.765 83.8978L116.9 86.7633L116.601 86.464L116.266 86.799Z" fill="#26144E"/>
        </g>
        <g opacity="0.1" filter="url(#filter0_f_5746_58815)">
            <path opacity="0.1" d="M126 111.5C126 111.776 125.776 112 125.5 112C125.224 112 125 111.776 125 111.5C125 111.224 125.224 111 125.5 111C125.776 111 126 111.224 126 111.5Z" fill="#23024D"/>
            <path opacity="0.1" d="M33 103C33 103.552 32.7761 104 32.5 104C32.2239 104 32 103.552 32 103C32 102.448 32.2239 102 32.5 102C32.7761 102 33 102.448 33 103Z" fill="#23024D"/>
            <path d="M20 34C20 34.5523 19.5523 35 19 35C18.4477 35 18 34.5523 18 34C18 33.4477 18.4477 33 19 33C19.5523 33 20 33.4477 20 34Z" fill="#23024D"/>
            <path fill-rule="evenodd" clip-rule="evenodd" d="M195.5 56.6382C195.676 56.6382 195.819 56.3525 195.819 56C195.819 55.6475 195.676 55.3618 195.5 55.3618C195.324 55.3618 195.181 55.6475 195.181 56C195.181 56.3525 195.324 56.6382 195.5 56.6382ZM195.5 57C195.776 57 196 56.5523 196 56C196 55.4477 195.776 55 195.5 55C195.224 55 195 55.4477 195 56C195 56.5523 195.224 57 195.5 57Z" fill="#23024D"/>
            <path fill-rule="evenodd" clip-rule="evenodd" d="M39 93.2764C39.7049 93.2764 40.2764 92.7049 40.2764 92C40.2764 91.2951 39.7049 90.7236 39 90.7236C38.2951 90.7236 37.7236 91.2951 37.7236 92C37.7236 92.7049 38.2951 93.2764 39 93.2764ZM39 94C40.1046 94 41 93.1046 41 92C41 90.8954 40.1046 90 39 90C37.8954 90 37 90.8954 37 92C37 93.1046 37.8954 94 39 94Z" fill="#23024D"/>
        </g>
        <path d="M125.494 153.324L165.071 47.9752L89.2047 27.627L70.8003 138.682C70.1041 141.281 81.7795 146.672 96.8824 150.718C111.985 154.765 124.797 155.922 125.494 153.324Z" fill="white"/>
        <path fill-rule="evenodd" clip-rule="evenodd" d="M89.0267 27.3516L165.363 47.8258L125.704 153.392C125.589 153.802 125.247 154.104 124.777 154.324C124.301 154.547 123.659 154.703 122.881 154.801C121.323 154.998 119.166 154.969 116.57 154.733C111.377 154.262 104.385 152.958 96.8251 150.932C89.2654 148.906 82.5583 146.543 77.8241 144.358C75.4586 143.266 73.5759 142.215 72.3247 141.267C71.7 140.793 71.2216 140.337 70.9207 139.906C70.6239 139.481 70.4785 139.049 70.5842 138.637L89.0267 27.3516ZM89.3823 27.9036L71.0159 138.73L71.0132 138.74C70.9503 138.975 71.0175 139.275 71.2823 139.654C71.5456 140.031 71.9832 140.454 72.5911 140.915C73.8051 141.835 75.6547 142.871 78.0089 143.958C82.7141 146.129 89.3961 148.485 96.9393 150.506C104.482 152.527 111.448 153.825 116.61 154.294C119.193 154.529 121.314 154.555 122.826 154.364C123.583 154.268 124.173 154.12 124.59 153.925C125.009 153.728 125.218 153.502 125.28 153.267L125.283 153.257L164.779 48.1258L89.3823 27.9036Z" fill="#070F5B"/>
        <path fill-rule="evenodd" clip-rule="evenodd" d="M90.4179 26.7463C89.827 27.0195 89.5137 27.3448 89.4184 27.7005C89.3231 28.0561 89.4317 28.4944 89.8069 29.0265C90.1805 29.5562 90.7965 30.1461 91.6442 30.7839C93.3378 32.0582 95.912 33.4917 99.1818 34.9942C105.718 37.9975 114.995 41.2587 125.461 44.0631C135.927 46.8676 145.592 48.6816 152.754 49.3487C156.337 49.6825 159.283 49.7282 161.387 49.4714C162.44 49.3428 163.268 49.14 163.856 48.868C164.447 48.5948 164.761 48.2695 164.856 47.9139C164.951 47.5582 164.843 47.1199 164.467 46.5878C164.094 46.0581 163.478 45.4683 162.63 44.8304C160.937 43.5561 158.362 42.1226 155.093 40.6202C148.556 37.6168 139.28 34.3557 128.813 31.5512C118.347 28.7467 108.683 26.9328 101.521 26.2656C97.9377 25.9318 94.9916 25.8862 92.8877 26.143C91.8347 26.2715 91.0063 26.4743 90.4179 26.7463ZM101.562 25.8264C108.755 26.4965 118.445 28.3163 128.928 31.1252C139.41 33.934 148.712 37.2029 155.277 40.2194C158.558 41.7269 161.165 43.1758 162.895 44.478C163.76 45.1284 164.417 45.7504 164.828 46.3336C165.238 46.9146 165.426 47.4905 165.282 48.028C165.138 48.5656 164.687 48.9701 164.042 49.2684C163.394 49.5678 162.514 49.7781 161.44 49.9092C159.29 50.1716 156.308 50.1228 152.713 49.7879C145.519 49.1178 135.83 47.298 125.347 44.4892C114.864 41.6803 105.563 38.4115 98.9976 35.3949C95.7168 33.8874 93.1096 32.4385 91.379 31.1363C90.5146 30.4859 89.8578 29.864 89.4465 29.2807C89.0368 28.6997 88.8484 28.1238 88.9924 27.5863C89.1364 27.0488 89.5876 26.6442 90.2329 26.346C90.8807 26.0465 91.7605 25.8362 92.8343 25.7052C94.9841 25.4427 97.9664 25.4916 101.562 25.8264Z" fill="#070F5B"/>
        <path d="M129.463 83.2491C130.945 85.4147 124.477 93.3645 121.058 97.0687C117.116 94.7417 109.033 89.5463 108.235 87.3808C107.438 85.2152 113.887 77.0754 117.211 73.2762C120.678 75.6982 127.982 81.0836 129.463 83.2491Z" fill="white"/>
        <path fill-rule="evenodd" clip-rule="evenodd" d="M127.559 80.956C128.506 81.8033 129.259 82.5614 129.646 83.1271C129.871 83.4563 129.932 83.8761 129.888 84.3364C129.843 84.7978 129.69 85.3225 129.46 85.8868C129 87.016 128.214 88.3435 127.281 89.7088C125.413 92.4418 122.934 95.364 121.22 97.2208L121.099 97.3516L120.946 97.2611C118.971 96.0955 115.96 94.2114 113.34 92.3464C112.03 91.4141 110.815 90.4837 109.875 89.6482C109.405 89.2305 109.001 88.8337 108.687 88.4699C108.376 88.1092 108.142 87.7673 108.029 87.4595C107.906 87.1276 107.931 86.7117 108.042 86.2591C108.153 85.8009 108.36 85.275 108.635 84.7042C109.187 83.562 110.03 82.2119 110.996 80.8179C112.931 78.0284 115.38 75.0369 117.045 73.1334L117.175 72.9847L117.337 73.0979C119.073 74.3106 121.769 76.2649 124.218 78.1879C125.442 79.1492 126.606 80.1043 127.559 80.956ZM117.247 73.5729C115.593 75.4733 113.231 78.3693 111.359 81.0693C110.397 82.4558 109.57 83.7842 109.032 84.896C108.764 85.4522 108.571 85.9472 108.47 86.3635C108.367 86.7854 108.365 87.0976 108.442 87.307C108.529 87.5406 108.722 87.8348 109.021 88.1819C109.317 88.5257 109.706 88.9083 110.168 89.3185C111.091 90.139 112.292 91.0589 113.596 91.987C116.135 93.7952 119.049 95.6236 121.016 96.7905C122.716 94.9386 125.109 92.1061 126.917 89.46C127.843 88.1041 128.609 86.8067 129.052 85.7204C129.273 85.177 129.41 84.6964 129.449 84.294C129.488 83.8906 129.427 83.5883 129.282 83.3761C128.928 82.859 128.212 82.1319 127.265 81.2847C126.322 80.4418 125.166 79.4931 123.946 78.5347C121.58 76.677 118.981 74.7884 117.247 73.5729Z" fill="#070F5B"/>
        <path fill-rule="evenodd" clip-rule="evenodd" d="M125.449 87.3955C126.87 85.8757 128.318 84.0867 129.218 82.9035L129.569 83.1703C128.663 84.3616 127.205 86.1629 125.772 87.6967C125.055 88.4632 124.341 89.1672 123.702 89.6955C123.383 89.9596 123.079 90.1829 122.8 90.3486C122.524 90.5124 122.257 90.6292 122.016 90.6637L121.953 90.2271C122.111 90.2046 122.319 90.1212 122.574 89.9694C122.827 89.8193 123.112 89.6112 123.421 89.3556C124.039 88.8444 124.739 88.1558 125.449 87.3955Z" fill="#070F5B"/>
        <path d="M94.2478 75.1906C92.5355 75.3236 91.5432 76.8494 91.261 77.5957L106.578 96.3854C111.042 97.1992 113.531 91.7006 112.92 86.8643C112.631 84.5763 112.586 80.0631 110.942 73.6228C106.09 74.09 95.9602 75.0577 94.2478 75.1906Z" fill="white"/>
        <path fill-rule="evenodd" clip-rule="evenodd" d="M111.109 73.3864L111.155 73.5694C112.427 78.5509 112.747 82.3962 112.958 84.9324C113.02 85.684 113.073 86.3207 113.139 86.8379C113.449 89.2976 112.974 91.9316 111.842 93.8566C110.707 95.7875 108.888 97.032 106.539 96.6036L106.459 96.589L91.01 77.6378L91.0549 77.519C91.2062 77.1187 91.5414 76.523 92.0633 76.0075C92.587 75.4901 93.3095 75.0435 94.2309 74.972C95.9406 74.8393 106.068 73.8719 110.921 73.4045L111.109 73.3864ZM110.775 73.8616C105.856 74.3352 95.9581 75.2803 94.265 75.4117C93.4741 75.4731 92.8443 75.856 92.3732 76.3213C91.9503 76.7391 91.664 77.2154 91.5147 77.5589L106.697 96.1835C108.773 96.5274 110.403 95.4343 111.462 93.6331C112.538 91.8032 113.001 89.2697 112.701 86.8932C112.634 86.3589 112.58 85.7092 112.516 84.9467C112.307 82.4391 111.997 78.712 110.775 73.8616Z" fill="#070F5B"/>
        <path d="M106.25 77.7897C106.998 78.6804 106.777 90.547 106.573 96.369C102.476 96.6274 97.2759 98.5404 92.4201 96.2753C88.7283 94.5532 90.4477 77.8705 91.2612 77.5953C92.0746 77.3202 105.315 76.6763 106.25 77.7897Z" fill="white"/>
        <path fill-rule="evenodd" clip-rule="evenodd" d="M106.015 77.3935C106.173 77.4535 106.323 77.5327 106.419 77.6465C106.497 77.7399 106.55 77.8769 106.591 78.019C106.634 78.1687 106.672 78.3547 106.705 78.5699C106.772 79.0008 106.824 79.568 106.865 80.2349C106.946 81.57 106.983 83.3238 106.989 85.228C107.002 89.0375 106.895 93.4626 106.793 96.3753L106.786 96.5751L106.587 96.5877C105.575 96.6515 104.492 96.8178 103.351 96.9983C103.286 97.0086 103.221 97.0188 103.156 97.0291C102.077 97.2001 100.951 97.3787 99.802 97.4866C97.3649 97.7158 94.8057 97.63 92.3271 96.4738C91.8009 96.2283 91.3946 95.7285 91.0792 95.0852C90.7625 94.4392 90.5253 93.6241 90.3507 92.7087C90.0014 90.877 89.8957 88.6047 89.9309 86.3878C89.966 84.1692 90.1425 81.9957 90.3615 80.3574C90.471 79.5389 90.5916 78.8495 90.7118 78.3531C90.7717 78.1059 90.8331 77.8994 90.8957 77.7466C90.9267 77.6707 90.9612 77.6003 91.0003 77.5428C91.0346 77.4924 91.0951 77.4174 91.1907 77.385C91.2643 77.3602 91.3838 77.3393 91.5234 77.3201C91.6696 77.2999 91.8574 77.2791 92.0799 77.2581C92.525 77.216 93.1154 77.1724 93.802 77.1315C95.1754 77.0497 96.9392 76.9781 98.7068 76.9499C100.473 76.9218 102.249 76.937 103.643 77.0295C104.339 77.0757 104.947 77.1416 105.413 77.2326C105.646 77.278 105.85 77.3309 106.015 77.3935ZM91.3625 77.7946C91.3479 77.817 91.3278 77.8552 91.3039 77.9137C91.2536 78.0364 91.1983 78.2182 91.1405 78.4569C91.0254 78.9322 90.9072 79.6047 90.7987 80.4158C90.5819 82.0368 90.4068 84.1931 90.3719 86.3948C90.3369 88.5983 90.4428 90.8367 90.784 92.626C90.9547 93.5211 91.1825 94.2939 91.4752 94.891C91.7692 95.4907 92.1168 95.889 92.5135 96.0741C94.8907 97.1829 97.3595 97.2733 99.7607 97.0475C100.895 96.9409 102.009 96.7644 103.09 96.593C103.154 96.5829 103.218 96.5728 103.282 96.5627C104.347 96.3941 105.382 96.2346 106.359 96.1613C106.459 93.2521 106.56 88.9459 106.548 85.2295C106.541 83.328 106.505 81.5842 106.425 80.2619C106.384 79.6001 106.333 79.0486 106.269 78.6373C106.237 78.4314 106.203 78.2655 106.167 78.1407C106.129 78.0082 106.096 77.9481 106.081 77.9301C106.06 77.9048 105.997 77.8585 105.858 77.8058C105.726 77.7556 105.549 77.7084 105.329 77.6655C104.889 77.5797 104.303 77.5153 103.614 77.4696C102.237 77.3783 100.476 77.3629 98.7138 77.3909C96.9527 77.419 95.1954 77.4903 93.8282 77.5718C93.1445 77.6125 92.5596 77.6557 92.1214 77.6972C91.9021 77.7179 91.7211 77.7381 91.5836 77.757C91.4751 77.772 91.4034 77.785 91.3625 77.7946ZM91.3731 77.7799C91.3744 77.7783 91.3751 77.7777 91.3751 77.7778C91.3751 77.7778 91.3745 77.7786 91.3731 77.7799Z" fill="#070F5B"/>
        <path fill-rule="evenodd" clip-rule="evenodd" d="M108.517 75.7116C107.589 76.5356 106.707 77.4191 106.376 77.8445L106.028 77.5733C106.386 77.1142 107.293 76.2084 108.225 75.3816C108.693 74.9665 109.172 74.5668 109.597 74.249C110.015 73.9369 110.404 73.6861 110.685 73.5909L110.827 74.0087C110.619 74.0788 110.281 74.2887 109.861 74.6023C109.449 74.9103 108.98 75.3013 108.517 75.7116Z" fill="#070F5B"/>
        <path d="M104.771 121.251C103.485 121.9 103.202 123.4 103.222 124.069L121.094 133.756C124.815 132.964 124.992 127.905 122.976 124.349C122.022 122.667 120.548 119.181 117.218 114.71C113.605 116.62 106.057 120.602 104.771 121.251Z" fill="white"/>
        <path fill-rule="evenodd" clip-rule="evenodd" d="M117.282 114.428L117.395 114.579C119.972 118.04 121.449 120.924 122.421 122.824C122.709 123.386 122.953 123.862 123.168 124.241C124.196 126.056 124.67 128.258 124.405 130.121C124.139 131.99 123.118 133.551 121.14 133.973L121.06 133.99L103.005 124.203L103.001 124.076C102.991 123.712 103.061 123.138 103.304 122.567C103.547 121.993 103.97 121.409 104.672 121.055C105.955 120.406 113.5 116.426 117.115 114.516L117.282 114.428ZM117.154 114.994C113.481 116.935 106.139 120.808 104.87 121.448C104.286 121.743 103.925 122.234 103.71 122.739C103.522 123.183 103.451 123.629 103.442 123.938L121.126 133.524C122.819 133.129 123.723 131.779 123.968 130.059C124.218 128.305 123.771 126.2 122.784 124.459C122.56 124.065 122.311 123.577 122.018 123.005C121.058 121.131 119.636 118.353 117.154 114.994Z" fill="#070F5B"/>
        <path d="M128.513 78.0098C129.422 76.1721 129.66 74.6445 130.63 69.5851L106.819 63.2051C106.811 63.6655 106.818 61.8897 104.855 69.217C103.625 72.7722 110.791 80.2885 114.528 83.6022C119.987 82.0008 127.605 79.8475 128.513 78.0098Z" fill="white"/>
        <path fill-rule="evenodd" clip-rule="evenodd" d="M106.603 62.9176L130.885 69.4238L130.846 69.6252C130.761 70.0694 130.682 70.4867 130.607 70.8795C129.832 74.9466 129.555 76.3994 128.711 78.1062C128.576 78.379 128.328 78.6381 128.011 78.8848C127.691 79.1336 127.285 79.3816 126.815 79.6277C125.874 80.12 124.655 80.6154 123.301 81.1008C120.844 81.9817 117.919 82.8378 115.362 83.5863C115.101 83.6628 114.843 83.7382 114.59 83.8124L114.473 83.8467L114.382 83.7658C112.506 82.1028 109.77 79.3852 107.654 76.6332C106.597 75.2578 105.688 73.8656 105.12 72.5866C104.558 71.3192 104.312 70.1199 104.644 69.1511C105.624 65.4953 106.117 64.091 106.37 63.5421C106.434 63.4038 106.487 63.3103 106.534 63.2462C106.554 63.2183 106.576 63.1928 106.599 63.1706L106.603 62.9176ZM106.597 63.2584C106.597 63.2583 106.597 63.2565 106.597 63.2534C106.597 63.257 106.597 63.2585 106.597 63.2584ZM106.951 63.4674C106.948 63.4703 106.944 63.4731 106.941 63.4758C106.923 63.4889 106.906 63.4978 106.892 63.5037C106.891 63.5045 106.891 63.5054 106.89 63.5062C106.868 63.5366 106.829 63.6006 106.771 63.727C106.535 64.2368 106.05 65.6067 105.068 69.2727L105.066 69.2803L105.063 69.2877C104.784 70.0953 104.973 71.1657 105.524 72.4078C106.071 73.6415 106.956 75.0021 108.004 76.3643C110.064 79.0436 112.725 81.6977 114.583 83.3548C114.798 83.2917 115.016 83.2279 115.237 83.1633C117.797 82.4141 120.709 81.5618 123.153 80.6856C124.499 80.2028 125.696 79.7153 126.61 79.2369C127.067 78.9977 127.448 78.7635 127.74 78.5366C128.035 78.3075 128.223 78.0973 128.316 77.9107C129.132 76.2603 129.396 74.8733 130.18 70.761C130.242 70.4391 130.306 70.1004 130.375 69.7436L106.951 63.4674Z" fill="#070F5B"/>
        <path d="M130.395 70.6357C128.901 74.6203 120.181 76.3549 115.928 77.9213C113.557 75.6623 105.798 67.9095 106.373 64.1989C106.948 60.4883 111.135 59.4541 114.521 57.926C117.907 56.3979 121.089 56.331 123.446 55.948C125.539 60.3421 131.889 66.651 130.395 70.6357Z" fill="white"/>
        <path fill-rule="evenodd" clip-rule="evenodd" d="M123.574 55.7024L123.646 55.8518C124.161 56.9334 124.941 58.1391 125.807 59.4108C126.048 59.7645 126.296 60.1233 126.546 60.4856C127.191 61.4202 127.851 62.3772 128.452 63.326C129.286 64.6427 130.016 65.9596 130.443 67.2047C130.869 68.4487 131.001 69.6477 130.602 70.7117C130.206 71.7681 129.339 72.6557 128.227 73.4155C127.113 74.1765 125.733 74.823 124.276 75.3894C122.819 75.9563 121.277 76.4464 119.838 76.8917C119.621 76.9588 119.407 77.0248 119.195 77.0899C118 77.458 116.902 77.7962 116.004 78.1268L115.875 78.1742L115.776 78.0795C114.588 76.9475 112.047 74.4369 109.874 71.7414C108.788 70.3942 107.788 68.9944 107.095 67.693C106.408 66.4013 106 65.1662 106.155 64.1637C106.457 62.2168 107.71 60.9833 109.28 60.0529C110.065 59.5883 110.935 59.1951 111.815 58.8243C112.116 58.6971 112.418 58.5729 112.719 58.4494C113.3 58.2107 113.874 57.9744 114.43 57.7235C117.088 56.5241 119.634 56.2122 121.727 55.9559C122.329 55.8822 122.893 55.8131 123.411 55.7289L123.574 55.7024ZM121.744 56.3991C119.658 56.6552 117.201 56.9568 114.612 58.1255C114.049 58.3793 113.462 58.6208 112.877 58.8614C112.578 58.9843 112.28 59.1069 111.986 59.2308C111.11 59.5997 110.263 59.9835 109.505 60.4323C107.992 61.3287 106.864 62.4676 106.591 64.2313C106.459 65.0841 106.805 66.2096 107.485 67.4857C108.159 68.7522 109.14 70.1275 110.218 71.4646C112.314 74.0656 114.761 76.498 115.981 77.6657C116.866 77.3457 117.93 77.0181 119.068 76.6676C119.279 76.6026 119.492 76.5369 119.708 76.4703C121.146 76.0253 122.675 75.5391 124.117 74.9784C125.559 74.4173 126.904 73.7851 127.978 73.0513C129.054 72.3161 129.838 71.4927 130.189 70.5568C130.537 69.6284 130.435 68.5446 130.025 67.3477C129.616 66.1519 128.908 64.8698 128.079 63.562C127.483 62.6211 126.831 61.6753 126.188 60.7432C125.937 60.3794 125.687 60.0176 125.443 59.6591C124.615 58.4437 123.849 57.2657 123.319 56.19C122.823 56.2667 122.297 56.3313 121.744 56.3991Z" fill="#070F5B"/>
        <path fill-rule="evenodd" clip-rule="evenodd" d="M114.53 83.3888L115.759 77.8466L116.19 77.9422L114.961 83.4843L114.53 83.3888Z" fill="#070F5B"/>
        <path opacity="0.3" fill-rule="evenodd" clip-rule="evenodd" d="M88.0682 59.8141C87.6285 60.232 87.4357 60.6287 87.4357 61C87.4357 61.3713 87.6285 61.768 88.0682 62.1859C88.5068 62.6027 89.1664 63.0157 90.0363 63.4157C91.7744 64.2148 94.3029 64.9399 97.4437 65.5507C103.722 66.7716 112.404 67.5281 122 67.5281C131.596 67.5281 140.278 66.7716 146.556 65.5507C149.697 64.9399 152.225 64.2148 153.963 63.4157C154.833 63.0157 155.493 62.6027 155.931 62.1859C156.371 61.768 156.564 61.3713 156.564 61C156.564 60.6287 156.371 60.232 155.931 59.8141C155.493 59.3973 154.833 58.9843 153.963 58.5843C152.225 57.7852 149.697 57.0601 146.556 56.4493C140.278 55.2284 131.596 54.4719 122 54.4719C112.404 54.4719 103.722 55.2284 97.4437 56.4493C94.3029 57.0601 91.7744 57.7852 90.0363 58.5843C89.1664 58.9843 88.5068 59.3973 88.0682 59.8141ZM97.3666 55.9849C103.677 54.7577 112.386 54 122 54C131.613 54 140.322 54.7577 146.633 55.9849C149.786 56.5981 152.352 57.3306 154.134 58.15C155.024 58.5592 155.731 58.9957 156.219 59.4595C156.706 59.9223 157 60.4374 157 61C157 61.5626 156.706 62.0777 156.219 62.5405C155.731 63.0043 155.024 63.4408 154.134 63.85C152.352 64.6694 149.786 65.4019 146.633 66.0151C140.322 67.2423 131.613 68 122 68C112.386 68 103.677 67.2423 97.3666 66.0151C94.2131 65.4019 91.6479 64.6694 89.8659 63.85C88.9757 63.4408 88.2686 63.0043 87.7806 62.5405C87.2936 62.0777 86.9998 61.5626 86.9998 61C86.9998 60.4374 87.2936 59.9223 87.7806 59.4595C88.2686 58.9957 88.9757 58.5592 89.8659 58.15C91.6479 57.3306 94.2131 56.5981 97.3666 55.9849Z" fill="#070F5B"/>
        <path opacity="0.3" fill-rule="evenodd" clip-rule="evenodd" d="M92.7231 58.8918C92.5097 59.0962 92.436 59.2705 92.436 59.414C92.436 59.5554 92.5075 59.7267 92.7139 59.9274C92.9197 60.1275 93.237 60.3339 93.67 60.5408C94.5345 60.9538 95.811 61.3463 97.4402 61.7046L97.3524 62.1621C95.7123 61.8014 94.3997 61.4009 93.4922 60.9673C93.0393 60.7509 92.675 60.5206 92.4206 60.2732C92.1669 60.0264 91.9998 59.7393 91.9998 59.414C91.9998 59.0839 92.1718 58.7931 92.4322 58.5437C92.6934 58.2934 93.0677 58.0602 93.5334 57.8412C94.4662 57.4024 95.8156 56.9974 97.5006 56.6336C100.874 55.9053 105.637 55.3328 111.213 55L111.237 55.4664C105.672 55.7986 100.932 56.3693 97.5868 57.0915C95.9126 57.453 94.5991 57.8501 93.7088 58.2689C93.2629 58.4786 92.9356 58.6882 92.7231 58.8918ZM151.947 60.1958C152.407 59.8877 152.564 59.6206 152.564 59.414H153C153 59.8805 152.66 60.269 152.179 60.5918C151.684 60.9234 150.969 61.2335 150.072 61.5225C146.307 62.7359 139.077 63.6533 130.306 64L130.29 63.5332C139.057 63.1867 146.239 62.2701 149.947 61.0753C150.829 60.7908 151.501 60.495 151.947 60.1958Z" fill="#070F5B"/>
        <path opacity="0.3" fill-rule="evenodd" clip-rule="evenodd" d="M126.569 59.4514C125.923 59.4395 125.266 59.4299 124.6 59.4227L124.604 59C125.272 59.0072 125.93 59.0169 126.577 59.0288C132.123 59.1309 136.884 59.4011 140 59.7707L139.948 60.1904C136.854 59.8233 132.108 59.5534 126.569 59.4514ZM109.024 62.259C111.808 62.415 115.055 62.5209 118.565 62.5602C119.568 62.5715 120.591 62.5773 121.632 62.5773C122.573 62.5773 123.5 62.5725 124.41 62.5633C124.898 62.5584 125.381 62.5521 125.859 62.5447L125.865 62.9674C125.387 62.9748 124.903 62.9811 124.415 62.986C123.503 62.9952 122.574 63 121.632 63C120.59 63 119.564 62.9942 118.56 62.9829C115.044 62.9436 111.791 62.8375 109 62.681L109.024 62.259Z" fill="#070F5B"/>
        <path opacity="0.3" fill-rule="evenodd" clip-rule="evenodd" d="M97.8843 31.0236C95.1923 30.8783 93.0837 30.9747 91.7149 31.3176L91.6077 30.8898C93.0428 30.5303 95.2055 30.4373 97.9081 30.5832C100.616 30.7294 103.883 31.1167 107.538 31.7281L107.465 32.1631C103.822 31.5536 100.571 31.1687 97.8843 31.0236Z" fill="#070F5B"/>
        <path opacity="0.3" fill-rule="evenodd" clip-rule="evenodd" d="M86.3141 68.2344C83.4082 87.2263 80.2643 107.908 79.3112 114.677C78.3661 121.389 80.0518 126.532 83.7021 130.469C87.3617 134.416 93.0149 137.171 100.039 139.053C107.06 140.934 113.378 141.225 118.545 139.559C123.701 137.897 127.734 134.28 130.184 128.294C132.657 122.253 140.401 103.166 147.527 85.5898C151.09 76.8017 154.498 68.3912 157.016 62.1778C158.275 59.071 159.311 56.5136 160.032 54.7328C160.393 53.8424 160.675 53.1462 160.867 52.6726L161.002 52.3404C159.094 52.7531 157.164 52.8223 154.849 52.6244L154.887 52.185C157.336 52.3943 159.325 52.299 161.313 51.8164L161.731 51.715L161.569 52.1135L161.365 52.0307C161.569 52.1135 161.569 52.1138 161.569 52.1142L161.276 52.8382C161.084 53.3118 160.802 54.008 160.441 54.8984C159.72 56.6792 158.684 59.2367 157.425 62.3434C154.907 68.5568 151.499 76.9673 147.936 85.7555C140.81 103.332 133.066 122.419 130.592 128.462C128.096 134.56 123.968 138.275 118.68 139.979C113.402 141.68 106.991 141.372 99.9253 139.479C92.8642 137.587 87.1192 134.803 83.3787 130.769C79.629 126.724 77.9128 121.445 78.8744 114.616C79.8281 107.844 82.9724 87.1581 85.8781 68.1677C87.331 58.672 88.7243 49.5995 89.7544 42.9009C90.2694 39.5516 90.6936 36.7958 90.9891 34.8773C91.1369 33.9181 91.2524 33.1682 91.331 32.6581L91.4512 31.8784C91.4513 31.8779 91.4513 31.8776 91.6693 31.9112C91.8872 31.9449 91.8872 31.9451 91.8871 31.9456L91.7669 32.7252C91.6883 33.2353 91.5728 33.9852 91.425 34.9445C91.1296 36.8629 90.7053 39.6187 90.1903 42.968C89.1602 49.6665 87.7669 58.7389 86.3141 68.2344Z" fill="#070F5B"/>
        <path fill-rule="evenodd" clip-rule="evenodd" d="M104.931 104.842L101.01 98.0486L94.2637 101.947L92.5511 98.9988L102.257 93.3903L106.179 100.185L116.892 93.9988L120.21 99.7473L127.091 95.774L128.803 98.7223L118.962 104.405L115.644 98.6561L104.931 104.842Z" fill="#26144E"/>
        <path fill-rule="evenodd" clip-rule="evenodd" d="M102.511 113.876L98.5892 107.082L91.8432 110.98L90.1305 108.033L99.8367 102.424L103.759 109.218L114.471 103.032L117.79 108.781L124.671 104.808L126.383 107.756L116.542 113.438L113.223 107.69L102.511 113.876Z" fill="#26144E"/>
        <path d="M131.697 89.6997C131.555 90.2301 131.01 90.5449 130.48 90.4027C129.949 90.2606 129.634 89.7154 129.777 89.185C129.919 88.6546 130.464 88.3398 130.994 88.4819C131.525 88.6241 131.84 89.1693 131.697 89.6997Z" fill="white"/>
        <path fill-rule="evenodd" clip-rule="evenodd" d="M130.937 88.6936C130.525 88.583 130.1 88.8279 129.99 89.2407C129.879 89.6535 130.124 90.0777 130.537 90.1883C130.95 90.2989 131.374 90.054 131.484 89.6412C131.595 89.2284 131.35 88.8042 130.937 88.6936ZM129.564 89.1265C129.737 88.4785 130.403 88.0939 131.051 88.2675C131.7 88.4412 132.084 89.1073 131.91 89.7554C131.737 90.4034 131.071 90.788 130.423 90.6144C129.775 90.4407 129.39 89.7746 129.564 89.1265Z" fill="#070F5B"/>
        <path d="M99.1567 80.9349C99.0745 81.2416 98.7593 81.4235 98.4527 81.3414C98.146 81.2592 97.964 80.944 98.0462 80.6373C98.1283 80.3306 98.4436 80.1486 98.7502 80.2308C99.0569 80.313 99.2389 80.6282 99.1567 80.9349Z" fill="white"/>
        <path fill-rule="evenodd" clip-rule="evenodd" d="M98.6932 80.4463C98.5042 80.3957 98.3099 80.5079 98.2592 80.6969C98.2086 80.8859 98.3208 81.0802 98.5098 81.1309C98.6988 81.1815 98.8931 81.0693 98.9438 80.8803C98.9944 80.6913 98.8822 80.497 98.6932 80.4463ZM97.8332 80.5827C97.9469 80.1584 98.383 79.9066 98.8074 80.0203C99.2317 80.134 99.4835 80.5702 99.3698 80.9945C99.2561 81.4188 98.8199 81.6706 98.3956 81.5569C97.9713 81.4432 97.7195 81.0071 97.8332 80.5827Z" fill="#070F5B"/>
        <path d="M98.2701 78.6319C98.2143 78.8402 98.0002 78.9638 97.792 78.908C97.5837 78.8522 97.4601 78.6381 97.5159 78.4298C97.5717 78.2216 97.7858 78.098 97.994 78.1538C98.2023 78.2096 98.3259 78.4237 98.2701 78.6319Z" fill="white"/>
        <path fill-rule="evenodd" clip-rule="evenodd" d="M97.9371 78.3674C97.8465 78.3431 97.7534 78.3969 97.7291 78.4875C97.7048 78.5781 97.7586 78.6712 97.8492 78.6955C97.9398 78.7198 98.033 78.666 98.0573 78.5754C98.0815 78.4848 98.0278 78.3916 97.9371 78.3674ZM97.3031 78.3733C97.3904 78.0474 97.7254 77.854 98.0513 77.9413C98.3772 78.0287 98.5706 78.3636 98.4833 78.6896C98.396 79.0155 98.061 79.2089 97.7351 79.1216C97.4091 79.0342 97.2157 78.6992 97.3031 78.3733Z" fill="#070F5B"/>
        <path d="M132.46 85.0742C132.422 85.2167 132.276 85.3013 132.133 85.2631C131.991 85.2249 131.906 85.0784 131.944 84.9359C131.982 84.7933 132.129 84.7087 132.271 84.7469C132.414 84.7851 132.499 84.9316 132.46 85.0742Z" fill="white"/>
        <path fill-rule="evenodd" clip-rule="evenodd" d="M132.214 84.9605C132.189 84.9538 132.164 84.9686 132.157 84.9935C132.15 85.0184 132.165 85.044 132.19 85.0507C132.215 85.0574 132.24 85.0426 132.247 85.0177C132.254 84.9928 132.239 84.9671 132.214 84.9605ZM131.731 84.8793C131.801 84.6191 132.068 84.4647 132.328 84.5344C132.588 84.6042 132.743 84.8716 132.673 85.1318C132.603 85.392 132.336 85.5464 132.076 85.4767C131.816 85.407 131.661 85.1395 131.731 84.8793Z" fill="#070F5B"/>
        <path d="M134.116 87.8272C134.021 88.1808 133.658 88.3907 133.304 88.2959C132.951 88.2012 132.741 87.8377 132.836 87.4841C132.93 87.1304 133.294 86.9206 133.647 87.0153C134.001 87.1101 134.211 87.4736 134.116 87.8272Z" fill="white"/>
        <path fill-rule="evenodd" clip-rule="evenodd" d="M133.59 87.2289C133.354 87.1657 133.112 87.3057 133.048 87.5417C132.985 87.7777 133.125 88.0203 133.361 88.0835C133.597 88.1467 133.84 88.0067 133.903 87.7707C133.966 87.5347 133.826 87.2921 133.59 87.2289ZM132.622 87.4275C132.749 86.9563 133.233 86.6766 133.704 86.8029C134.176 86.9291 134.455 87.4136 134.329 87.8848C134.203 88.3561 133.718 88.6358 133.247 88.5095C132.776 88.3832 132.496 87.8988 132.622 87.4275Z" fill="#070F5B"/>
        <path d="M97.1212 81.3811C97.0664 81.5856 96.8563 81.7069 96.6518 81.6521C96.4473 81.5973 96.326 81.3872 96.3808 81.1827C96.4356 80.9782 96.6457 80.8569 96.8502 80.9117C97.0547 80.9665 97.176 81.1766 97.1212 81.3811Z" fill="white"/>
        <path fill-rule="evenodd" clip-rule="evenodd" d="M96.7932 81.1272C96.7064 81.104 96.6171 81.1555 96.5939 81.2423C96.5706 81.3291 96.6221 81.4184 96.7089 81.4416C96.7957 81.4649 96.885 81.4134 96.9082 81.3265C96.9315 81.2397 96.88 81.1505 96.7932 81.1272ZM96.1678 81.1281C96.2541 80.806 96.5852 80.6149 96.9073 80.7012C97.2294 80.7875 97.4206 81.1186 97.3343 81.4407C97.248 81.7628 96.9169 81.954 96.5948 81.8677C96.2727 81.7813 96.0815 81.4503 96.1678 81.1281Z" fill="#070F5B"/>
        <path d="M141.881 76.9582C141.68 77.7087 140.909 78.1541 140.158 77.953C139.408 77.7519 138.962 76.9805 139.163 76.23C139.364 75.4795 140.136 75.0341 140.886 75.2352C141.637 75.4363 142.082 76.2077 141.881 76.9582Z" fill="white"/>
        <path fill-rule="evenodd" clip-rule="evenodd" d="M140.829 75.4546C140.196 75.2851 139.546 75.6606 139.376 76.2935C139.207 76.9263 139.582 77.5768 140.215 77.7464C140.848 77.916 141.498 77.5404 141.668 76.9076C141.838 76.2747 141.462 75.6242 140.829 75.4546ZM138.95 76.1793C139.183 75.3112 140.075 74.796 140.943 75.0286C141.812 75.2612 142.327 76.1536 142.094 77.0217C141.861 77.8899 140.969 78.4051 140.101 78.1724C139.233 77.9398 138.718 77.0475 138.95 76.1793Z" fill="#070F5B"/>
        <path d="M140.396 73.6054C140.298 73.9699 139.924 74.1862 139.559 74.0885C139.195 73.9909 138.979 73.6162 139.076 73.2518C139.174 72.8873 139.549 72.671 139.913 72.7686C140.277 72.8663 140.494 73.2409 140.396 73.6054Z" fill="white"/>
        <path fill-rule="evenodd" clip-rule="evenodd" d="M139.856 72.9822C139.609 72.9161 139.356 73.0626 139.29 73.3094C139.223 73.5562 139.37 73.8099 139.617 73.8761C139.864 73.9422 140.117 73.7957 140.183 73.5489C140.25 73.3021 140.103 73.0483 139.856 72.9822ZM138.864 73.1952C138.993 72.7131 139.488 72.427 139.97 72.5562C140.453 72.6854 140.739 73.1809 140.609 73.6631C140.48 74.1452 139.985 74.4313 139.503 74.3021C139.02 74.1729 138.734 73.6774 138.864 73.1952Z" fill="#070F5B"/>
        <path d="M143.149 71.0595C143.1 71.2418 142.913 71.3499 142.731 71.3011C142.548 71.2523 142.44 71.065 142.489 70.8827C142.538 70.7005 142.725 70.5923 142.907 70.6412C143.09 70.69 143.198 70.8773 143.149 71.0595Z" fill="white"/>
        <path fill-rule="evenodd" clip-rule="evenodd" d="M142.85 70.8528C142.786 70.8355 142.719 70.8738 142.702 70.9384C142.685 71.003 142.723 71.0694 142.788 71.0867C142.852 71.104 142.919 71.0657 142.936 71.0011C142.953 70.9365 142.915 70.8701 142.85 70.8528ZM142.276 70.8242C142.356 70.5244 142.665 70.3464 142.965 70.4267C143.264 70.5071 143.442 70.8153 143.362 71.1152C143.282 71.4151 142.973 71.5931 142.674 71.5127C142.374 71.4324 142.196 71.1241 142.276 70.8242Z" fill="#070F5B"/>
        <path fill-rule="evenodd" clip-rule="evenodd" d="M143.414 74.3482C143.456 74.1925 143.363 74.0325 143.207 73.9907L143.322 73.5647C143.713 73.6695 143.945 74.0714 143.84 74.4624C143.735 74.8534 143.333 75.0854 142.942 74.9807C142.551 74.8759 142.319 74.474 142.424 74.083L142.85 74.1971C142.808 74.3529 142.901 74.5129 143.056 74.5546C143.212 74.5964 143.372 74.504 143.414 74.3482Z" fill="#070F5B"/>
        <path d="M165.069 47.9704C164.112 51.5431 146.353 49.8889 125.404 44.2756C104.455 38.6623 88.2482 31.2155 89.2055 27.6428C90.1628 24.0701 107.921 25.7243 128.871 31.3376C149.82 36.9509 166.026 44.3977 165.069 47.9704Z" fill="white"/>
        <path fill-rule="evenodd" clip-rule="evenodd" d="M90.4179 26.7463C89.827 27.0195 89.5137 27.3448 89.4184 27.7005C89.3231 28.0561 89.4317 28.4944 89.8069 29.0265C90.1805 29.5562 90.7965 30.1461 91.6442 30.7839C93.3378 32.0582 95.912 33.4917 99.1818 34.9942C105.718 37.9975 114.995 41.2587 125.461 44.0631C135.927 46.8676 145.592 48.6816 152.754 49.3487C156.337 49.6825 159.283 49.7282 161.387 49.4714C162.44 49.3428 163.268 49.14 163.856 48.868C164.447 48.5948 164.761 48.2695 164.856 47.9139C164.951 47.5582 164.843 47.1199 164.467 46.5878C164.094 46.0581 163.478 45.4683 162.63 44.8304C160.937 43.5561 158.362 42.1226 155.093 40.6202C148.556 37.6168 139.28 34.3557 128.813 31.5512C118.347 28.7467 108.683 26.9328 101.521 26.2656C97.9377 25.9318 94.9916 25.8862 92.8877 26.143C91.8347 26.2715 91.0063 26.4743 90.4179 26.7463ZM101.562 25.8264C108.755 26.4965 118.445 28.3163 128.928 31.1252C139.41 33.934 148.712 37.2029 155.277 40.2194C158.558 41.7269 161.165 43.1758 162.895 44.478C163.76 45.1284 164.417 45.7504 164.828 46.3336C165.238 46.9146 165.426 47.4905 165.282 48.028C165.138 48.5656 164.687 48.9701 164.042 49.2684C163.394 49.5678 162.514 49.7781 161.44 49.9092C159.29 50.1716 156.308 50.1228 152.713 49.7879C145.519 49.1178 135.83 47.298 125.347 44.4892C114.864 41.6803 105.563 38.4115 98.9976 35.3949C95.7168 33.8874 93.1096 32.4385 91.379 31.1363C90.5146 30.4859 89.8578 29.864 89.4465 29.2807C89.0368 28.6997 88.8484 28.1238 88.9924 27.5863C89.1364 27.0488 89.5876 26.6442 90.2329 26.346C90.8807 26.0465 91.7605 25.8362 92.8343 25.7052C94.9841 25.4427 97.9664 25.4916 101.562 25.8264Z" fill="#070F5B"/>
        <path fill-rule="evenodd" clip-rule="evenodd" d="M99.1818 34.9899C105.718 37.9932 114.995 41.2544 125.461 44.0589C135.927 46.8633 145.592 48.6773 152.754 49.3445C156.337 49.6782 159.283 49.7239 161.387 49.4671C162.44 49.3385 163.268 49.1357 163.857 48.8637C164.447 48.5906 164.761 48.2653 164.856 47.9096L165.282 48.0238C165.138 48.5613 164.687 48.9658 164.042 49.2641C163.394 49.5636 162.514 49.7738 161.44 49.9049C159.29 50.1673 156.308 50.1185 152.713 49.7836C145.519 49.1135 135.83 47.2937 125.347 44.4849C114.864 41.6761 105.563 38.4072 98.9977 35.3907C95.7168 33.8831 93.1096 32.4342 91.379 31.1321C90.5146 30.4816 89.8579 29.8597 89.4465 29.2764C89.0368 28.6955 88.8484 28.1196 88.9924 27.582L89.4185 27.6962C89.3232 28.0518 89.4318 28.4902 89.807 29.0222C90.1805 29.552 90.7965 30.1418 91.6442 30.7796C93.3378 32.054 95.9121 33.4875 99.1818 34.9899Z" fill="#070F5B"/>
        <path d="M128.673 62.0201L155.541 16.0936L159.758 18.2658L134.885 62.0201C134.885 62.0201 134.331 62.5132 131.402 62.5132C128.673 62.5132 128.673 62.0201 128.673 62.0201Z" fill="white"/>
        <path fill-rule="evenodd" clip-rule="evenodd" d="M155.456 15.7975L160.063 18.1707L135.058 62.1563L135.031 62.1805L134.884 62.0158C135.031 62.1805 135.031 62.1807 135.031 62.1808L135.03 62.1812L135.029 62.182L135.027 62.1838C135.026 62.185 135.024 62.1863 135.023 62.1877C135.019 62.1905 135.015 62.1936 135.011 62.1971C135.001 62.2042 134.989 62.2126 134.975 62.2222C134.945 62.2414 134.903 62.2653 134.847 62.2922C134.733 62.3459 134.558 62.4121 134.294 62.4766C133.767 62.6053 132.877 62.7294 131.402 62.7294C130.03 62.7294 129.317 62.6063 128.939 62.4697C128.749 62.401 128.628 62.3235 128.554 62.2424C128.515 62.201 128.489 62.1589 128.473 62.1181C128.465 62.0979 128.46 62.0788 128.457 62.0614C128.455 62.0527 128.454 62.0445 128.453 62.0368C128.453 62.033 128.453 62.0294 128.453 62.0258C128.453 62.0241 128.453 62.0224 128.453 62.0207L128.453 62.0182L128.453 62.017C128.453 62.0164 128.453 62.0158 128.673 62.0158L128.453 62.0158L128.453 61.956L155.456 15.7975ZM128.943 61.9903C128.976 62.0087 129.023 62.031 129.089 62.0549C129.393 62.1649 130.044 62.2883 131.402 62.2883C132.855 62.2883 133.707 62.1659 134.189 62.0481C134.43 61.9893 134.576 61.9323 134.658 61.8935C134.684 61.8809 134.704 61.8703 134.718 61.8623L159.452 18.3523L155.626 16.3811L128.943 61.9903Z" fill="#070F5B"/>
        <path d="M160.122 19.2212C159.845 19.7558 158.386 19.5506 156.863 18.7629C155.339 17.9751 154.328 16.9031 154.605 16.3685C154.881 15.8338 156.34 16.039 157.864 16.8267C159.387 17.6145 160.398 18.6865 160.122 19.2212Z" fill="white"/>
        <path fill-rule="evenodd" clip-rule="evenodd" d="M155.063 16.3175C154.897 16.3539 154.828 16.4159 154.801 16.4681C154.774 16.5203 154.763 16.613 154.83 16.7696C154.895 16.9246 155.025 17.1116 155.219 17.3178C155.607 17.7287 156.218 18.1798 156.964 18.5653C157.71 18.9509 158.431 19.1893 158.991 19.2679C159.271 19.3074 159.499 19.3048 159.663 19.2688C159.829 19.2325 159.899 19.1704 159.926 19.1182C159.953 19.066 159.963 18.9733 159.897 18.8167C159.831 18.6617 159.702 18.4747 159.507 18.2685C159.12 17.8577 158.508 17.4066 157.763 17.021C157.017 16.6354 156.295 16.3971 155.736 16.3184C155.455 16.279 155.228 16.2815 155.063 16.3175ZM155.797 15.8817C156.418 15.9689 157.187 16.227 157.965 16.6292C158.743 17.0314 159.398 17.5102 159.828 17.9659C160.042 18.193 160.209 18.4235 160.303 18.6445C160.396 18.8639 160.429 19.1057 160.318 19.3208C160.207 19.5359 159.99 19.6488 159.757 19.6997C159.523 19.751 159.238 19.7481 158.929 19.7047C158.309 19.6174 157.539 19.3593 156.761 18.9571C155.984 18.555 155.328 18.0762 154.898 17.6204C154.684 17.3933 154.517 17.1628 154.424 16.9418C154.331 16.7224 154.298 16.4806 154.409 16.2655C154.52 16.0504 154.736 15.9376 154.969 15.8867C155.204 15.8354 155.488 15.8382 155.797 15.8817Z" fill="#070F5B"/>
        <path d="M160.646 18.2253C160.299 18.7172 158.882 18.3149 157.48 17.3267C156.078 16.3385 155.223 15.1385 155.569 14.6466C155.916 14.1547 157.334 14.557 158.736 15.5452C160.137 16.5334 160.993 17.7333 160.646 18.2253Z" fill="white"/>
        <path fill-rule="evenodd" clip-rule="evenodd" d="M156.03 14.6571C155.861 14.6705 155.783 14.7224 155.75 14.7704C155.716 14.8185 155.693 14.9089 155.737 15.0731C155.781 15.2356 155.884 15.4385 156.048 15.6693C156.376 16.1292 156.921 16.6595 157.607 17.1432C158.293 17.6269 158.975 17.9615 159.519 18.1156C159.791 18.193 160.017 18.2215 160.185 18.2083C160.354 18.1949 160.432 18.143 160.466 18.095C160.499 18.0469 160.522 17.9565 160.478 17.7923C160.434 17.6298 160.331 17.4269 160.167 17.1961C159.839 16.7362 159.295 16.2059 158.608 15.7222C157.922 15.2385 157.24 14.9039 156.697 14.7497C156.424 14.6724 156.198 14.6439 156.03 14.6571ZM156.817 14.3254C157.42 14.4965 158.147 14.8572 158.863 15.3617C159.578 15.8662 160.162 16.43 160.526 16.9401C160.707 17.1943 160.841 17.4454 160.904 17.6771C160.966 17.9071 160.966 18.1512 160.826 18.3491C160.686 18.547 160.457 18.6293 160.219 18.648C159.98 18.6668 159.698 18.6252 159.398 18.5399C158.795 18.3689 158.068 18.0082 157.353 17.5037C156.637 16.9991 156.053 16.4354 155.689 15.9253C155.508 15.6711 155.374 15.42 155.311 15.1883C155.249 14.9583 155.25 14.7142 155.389 14.5163C155.529 14.3184 155.758 14.2361 155.996 14.2174C156.235 14.1986 156.517 14.2402 156.817 14.3254Z" fill="#070F5B"/>
        <path d="M161.414 17.2473C161.013 17.6956 159.651 17.1312 158.374 15.9867C157.097 14.8422 156.387 13.551 156.788 13.1027C157.19 12.6544 158.551 13.2188 159.829 14.3633C161.106 15.5078 161.816 16.799 161.414 17.2473Z" fill="white"/>
        <path fill-rule="evenodd" clip-rule="evenodd" d="M157.245 13.1689C157.075 13.1624 156.992 13.205 156.953 13.2488C156.913 13.2926 156.88 13.3797 156.905 13.548C156.93 13.7145 157.008 13.9279 157.145 14.1763C157.417 14.6712 157.896 15.2612 158.521 15.8214C159.147 16.3815 159.785 16.7932 160.307 17.0095C160.569 17.1181 160.79 17.1726 160.958 17.1789C161.128 17.1854 161.211 17.1428 161.25 17.0991C161.289 17.0553 161.323 16.9681 161.298 16.7999C161.273 16.6333 161.194 16.4199 161.058 16.1716C160.786 15.6767 160.307 15.0867 159.681 14.5265C159.056 13.9663 158.417 13.5546 157.896 13.3383C157.634 13.2298 157.413 13.1753 157.245 13.1689ZM158.065 12.9309C158.643 13.1709 159.324 13.6137 159.976 14.198C160.628 14.7823 161.143 15.4101 161.444 15.959C161.595 16.2326 161.699 16.4976 161.734 16.735C161.769 16.9707 161.74 17.213 161.579 17.3934C161.417 17.5737 161.179 17.6287 160.941 17.6197C160.701 17.6106 160.427 17.5365 160.138 17.4169C159.56 17.177 158.879 16.7342 158.227 16.1499C157.575 15.5655 157.06 14.9377 156.758 14.3888C156.608 14.1153 156.504 13.8503 156.469 13.6129C156.434 13.3772 156.463 13.1348 156.624 12.9545C156.786 12.7741 157.024 12.7191 157.262 12.7282C157.501 12.7373 157.776 12.8114 158.065 12.9309Z" fill="#070F5B"/>
        <path d="M162.162 16.6646C161.671 17.0133 160.468 16.1627 159.475 14.7647C158.481 13.3668 158.073 11.9508 158.564 11.6021C159.054 11.2534 160.258 12.104 161.251 13.502C162.245 14.9 162.653 16.3159 162.162 16.6646Z" fill="white"/>
        <path fill-rule="evenodd" clip-rule="evenodd" d="M158.994 11.7673C158.83 11.7235 158.739 11.7467 158.692 11.7808C158.644 11.8148 158.592 11.8925 158.579 12.0621C158.567 12.23 158.596 12.4554 158.674 12.7278C158.831 13.2705 159.168 13.9516 159.654 14.6359C160.141 15.3201 160.673 15.8625 161.134 16.1885C161.366 16.3522 161.569 16.454 161.732 16.4973C161.896 16.5411 161.986 16.5179 162.034 16.4838C162.082 16.4498 162.134 16.3721 162.147 16.2024C162.159 16.0345 162.13 15.8091 162.051 15.5367C161.895 14.9941 161.558 14.3129 161.071 13.6287C160.585 12.9444 160.053 12.402 159.592 12.076C159.36 11.9124 159.157 11.8106 158.994 11.7673ZM159.846 11.7159C160.358 12.0775 160.924 12.6594 161.431 13.3731C161.938 14.0869 162.302 14.8127 162.475 15.4147C162.562 15.7146 162.604 15.996 162.586 16.2353C162.569 16.4729 162.487 16.703 162.29 16.8433C162.092 16.9836 161.848 16.9848 161.618 16.9235C161.386 16.8617 161.135 16.7289 160.88 16.5487C160.368 16.1871 159.802 15.6052 159.295 14.8914C158.788 14.1777 158.424 13.4519 158.251 12.8499C158.164 12.5499 158.122 12.2686 158.139 12.0292C158.157 11.7916 158.239 11.5616 158.436 11.4213C158.633 11.281 158.877 11.2797 159.108 11.3411C159.34 11.4028 159.591 11.5357 159.846 11.7159Z" fill="#070F5B"/>
        <path d="M162.797 16.3265C162.239 16.5514 161.267 15.4442 160.626 13.8533C159.985 12.2625 159.918 10.7905 160.476 10.5655C161.034 10.3406 162.006 11.4478 162.648 13.0387C163.289 14.6295 163.356 16.1015 162.797 16.3265Z" fill="white"/>
        <path fill-rule="evenodd" clip-rule="evenodd" d="M160.856 10.8253C160.706 10.7445 160.613 10.746 160.558 10.768C160.504 10.79 160.436 10.8535 160.384 11.0155C160.333 11.1759 160.309 11.4019 160.322 11.6851C160.347 12.2493 160.517 12.9902 160.83 13.7688C161.144 14.5475 161.536 15.1989 161.908 15.6232C162.095 15.8362 162.269 15.9825 162.418 16.0625C162.567 16.1434 162.661 16.1418 162.715 16.1198C162.77 16.0979 162.838 16.0343 162.89 15.8723C162.941 15.7119 162.965 15.4859 162.952 15.2027C162.926 14.6386 162.757 13.8977 162.443 13.119C162.129 12.3404 161.738 11.689 161.365 11.2646C161.178 11.0516 161.004 10.9053 160.856 10.8253ZM161.696 10.9736C162.11 11.4443 162.525 12.142 162.852 12.9542C163.179 13.7664 163.364 14.5569 163.393 15.1826C163.407 15.4945 163.383 15.778 163.31 16.0066C163.237 16.2336 163.105 16.4384 162.88 16.5289C162.655 16.6194 162.418 16.5638 162.208 16.4506C161.997 16.3366 161.783 16.1488 161.577 15.9142C161.164 15.4435 160.749 14.7459 160.421 13.9337C160.094 13.1215 159.909 12.331 159.881 11.7052C159.867 11.3934 159.891 11.1098 159.964 10.8812C160.036 10.6542 160.169 10.4494 160.394 10.3589C160.618 10.2684 160.856 10.324 161.066 10.4372C161.277 10.5513 161.491 10.739 161.696 10.9736Z" fill="#070F5B"/>
        <path d="M197.95 7.74039L198.357 12.3296L163.843 15.3948C163.687 15.8418 163.465 16.1182 163.201 16.1353C162.601 16.1777 162.016 14.8252 161.895 13.1143C161.774 11.4035 162.163 9.98211 162.763 9.93967C163.064 9.91842 163.361 10.2468 163.597 10.7948L197.95 7.74039Z" fill="white"/>
        <path fill-rule="evenodd" clip-rule="evenodd" d="M198.15 7.50315L198.596 12.5317L164.001 15.6042C163.926 15.7863 163.837 15.9459 163.73 16.071C163.598 16.2267 163.426 16.3434 163.216 16.3573C162.975 16.3741 162.766 16.2482 162.602 16.0761C162.436 15.9027 162.29 15.6583 162.166 15.3718C161.917 14.7968 161.737 14.0053 161.675 13.1318C161.613 12.2584 161.681 11.4494 161.846 10.8451C161.928 10.544 162.038 10.2816 162.178 10.0865C162.317 9.89283 162.506 9.73872 162.748 9.72165C162.99 9.70455 163.199 9.83085 163.364 10.0034C163.501 10.147 163.624 10.339 163.733 10.5633L198.15 7.50315ZM197.75 7.98154L163.458 11.0305L163.395 10.8841C163.282 10.6233 163.161 10.4301 163.045 10.3081C162.927 10.1847 162.838 10.1575 162.779 10.1616C162.72 10.1658 162.636 10.2052 162.537 10.3435C162.438 10.4803 162.346 10.6881 162.271 10.9615C162.123 11.5062 162.056 12.2633 162.115 13.1007C162.174 13.9381 162.347 14.6784 162.571 15.1967C162.683 15.4569 162.804 15.6496 162.92 15.7713C163.038 15.8942 163.127 15.9214 163.186 15.9173L163.187 15.9172C163.24 15.9137 163.311 15.8837 163.394 15.7854C163.479 15.6862 163.562 15.5327 163.635 15.3239L163.682 15.1897L198.118 12.1314L197.75 7.98154Z" fill="#070F5B"/>
        <path d="M198.53 12.3259C198.087 12.3649 197.636 11.3641 197.524 10.0903C197.412 8.81663 197.681 7.7524 198.124 7.71333C198.567 7.67425 199.018 8.67513 199.13 9.94885C199.242 11.2226 198.974 12.2868 198.53 12.3259Z" fill="white"/>
        <path fill-rule="evenodd" clip-rule="evenodd" d="M198.295 8.02234C198.213 7.9382 198.162 7.9321 198.143 7.93376C198.125 7.93542 198.076 7.95023 198.009 8.04753C197.944 8.14322 197.88 8.29227 197.83 8.49356C197.729 8.894 197.689 9.45275 197.744 10.0717C197.799 10.6907 197.935 11.234 198.104 11.6106C198.189 11.7999 198.278 11.9356 198.359 12.0184C198.442 12.1025 198.492 12.1086 198.511 12.1069C198.53 12.1053 198.579 12.0905 198.645 11.9932C198.711 11.8975 198.774 11.7484 198.825 11.5471C198.926 11.1467 198.965 10.588 198.911 9.96896C198.856 9.34996 198.72 8.80667 198.55 8.43006C198.465 8.24076 198.377 8.10509 198.295 8.02234ZM198.953 8.24903C199.147 8.68152 199.292 9.27552 199.35 9.93025C199.408 10.585 199.369 11.1952 199.253 11.6551C199.195 11.8839 199.115 12.0879 199.009 12.2425C198.904 12.3956 198.753 12.5284 198.55 12.5463C198.347 12.5642 198.175 12.4598 198.045 12.3275C197.913 12.1938 197.799 12.0069 197.702 11.7917C197.507 11.3592 197.362 10.7652 197.305 10.1105C197.247 9.45573 197.286 8.84551 197.402 8.38564C197.46 8.15677 197.54 7.95283 197.646 7.79818C197.751 7.64515 197.902 7.51228 198.105 7.4944C198.308 7.47652 198.48 7.58088 198.61 7.71322C198.741 7.84695 198.856 8.03378 198.953 8.24903Z" fill="#070F5B"/>
        <path d="M71.7357 11.9507C63.8494 21.4159 65.1294 35.482 74.5946 43.3683C77.7875 46.0285 80.267 47.3168 84.0931 47.9287L88.5388 27.0828L89.3705 27.0635L89.3743 48.4484C96.439 49.0994 101.127 46.3721 106.012 40.5094C113.898 31.0442 112.618 16.9781 103.153 9.09183C93.6881 1.20557 79.6219 2.48555 71.7357 11.9507Z" fill="white"/>
        <path fill-rule="evenodd" clip-rule="evenodd" d="M103.012 9.26325C93.6403 1.45496 79.7132 2.72229 71.9049 12.0939C64.0966 21.4655 65.364 35.3926 74.7356 43.2009C77.8467 45.793 80.2588 47.0616 83.9211 47.679L88.3593 26.8684L89.5908 26.8398L89.5946 48.2484C93.0023 48.5331 95.8379 48.0137 98.4119 46.7263C101.04 45.4118 103.411 43.2892 105.843 40.3702C113.651 30.9986 112.384 17.0715 103.012 9.26325ZM71.5661 11.8116C79.5303 2.25281 93.7355 0.960181 103.294 8.9244C112.853 16.8886 114.146 31.0938 106.181 40.6526C103.729 43.5963 101.313 45.7687 98.6092 47.1208C95.9018 48.4748 92.9215 48.9988 89.3539 48.67L89.1536 48.6516L89.1498 27.2912L88.7179 27.3012L84.2649 48.1815L84.0581 48.1485C80.1849 47.5291 77.6698 46.2197 74.4533 43.5397C64.8945 35.5755 63.6019 21.3703 71.5661 11.8116Z" fill="#070F5B"/>
        <path fill-rule="evenodd" clip-rule="evenodd" d="M89.8062 27.1519L98.963 38.7398C99.6412 39.5981 99.5052 40.8644 98.5902 41.4973C95.7603 43.4549 92.8274 44.6501 89.4939 44.6865L89.4891 44.2454C92.7108 44.2103 95.5594 43.0576 98.3393 41.1346C99.0296 40.657 99.149 39.6866 98.617 39.0133L89.4602 27.4253L89.8062 27.1519Z" fill="#B5B7CE"/>
        <path fill-rule="evenodd" clip-rule="evenodd" d="M92.8634 26.6782C94.5727 27.0297 96.8667 27.5174 99.2042 28.0616C101.476 28.5905 103.402 28.7625 104.773 28.8005C106.031 28.8354 107.166 29.96 106.852 31.2523C106.11 34.3095 104.703 36.4598 102.299 38.5213C101.507 39.2005 100.335 39.0697 99.6509 38.308L89.6507 27.1717L89.9789 26.877L99.9791 38.0133C100.516 38.6115 101.417 38.6971 102.012 38.1865C104.352 36.1794 105.705 34.1073 106.424 31.1482C106.655 30.1959 105.812 29.2705 104.761 29.2414C103.364 29.2027 101.409 29.0277 99.1042 28.4912C96.7716 27.9481 94.4816 27.4613 92.7745 27.1102C91.921 26.9347 91.2134 26.7931 90.7193 26.6955C90.4722 26.6466 90.2785 26.6088 90.1466 26.5831C90.0807 26.5703 90.0302 26.5605 89.9962 26.554L89.9449 26.5441C89.9448 26.5441 89.9448 26.5441 89.9863 26.3275C90.0278 26.1109 90.0278 26.1109 90.0279 26.1109L90.0797 26.1209C90.1139 26.1275 90.1646 26.1373 90.2308 26.1502C90.3631 26.1759 90.5572 26.2139 90.8048 26.2628C91.2999 26.3606 92.0086 26.5024 92.8634 26.6782Z" fill="#B5B7CE"/>
        <path fill-rule="evenodd" clip-rule="evenodd" d="M85.1663 24.0044C83.5843 23.0617 81.5534 21.9607 79.7341 21.3084C77.525 20.5163 75.5487 19.5034 74.3138 18.8152C73.4388 18.3276 73.113 17.245 73.5731 16.3554C75.1452 13.316 76.8234 11.4313 79.7848 10.0613C80.8039 9.5898 81.9521 10.1667 82.3163 11.1963C83.0326 13.2211 84.2387 16.573 84.9923 18.3565C85.551 19.679 86.4611 21.3105 87.2357 22.6171C87.6222 23.2691 87.9735 23.8379 88.2283 24.2436C88.3556 24.4464 88.4587 24.6085 88.53 24.7197C88.5656 24.7753 88.5932 24.8182 88.6119 24.8471C88.6213 24.8616 88.6284 24.8726 88.6332 24.8799L88.6402 24.8908C88.6403 24.8909 88.6403 24.8909 88.4555 25.0112C88.2707 25.1316 88.2707 25.1315 88.2706 25.1315L88.2631 25.12C88.2582 25.1124 88.251 25.1012 88.2415 25.0865C88.2225 25.0571 88.1945 25.0137 88.1586 24.9576C88.0867 24.8454 87.9828 24.6822 87.8547 24.4781C87.5985 24.07 87.2451 23.4979 86.8563 22.842C86.0801 21.5326 85.157 19.8797 84.586 18.5282C83.8264 16.7302 82.6157 13.3651 81.9005 11.3434C81.6125 10.5292 80.7258 10.1119 79.9699 10.4616C77.1187 11.7807 75.504 13.5822 73.9649 16.5581C73.6142 17.2361 73.8617 18.0584 74.5284 18.4299C75.7516 19.1115 77.7048 20.1122 79.8829 20.8932C81.743 21.5602 83.8031 22.6786 85.3921 23.6255C86.188 24.0998 86.8684 24.5326 87.35 24.8469C87.5908 25.0041 87.7819 25.1317 87.9131 25.2202C87.9786 25.2644 88.0292 25.2988 88.0635 25.3222C88.0806 25.3339 88.0936 25.3429 88.1024 25.349L88.1125 25.3559L88.1159 25.3583C88.116 25.3583 88.116 25.3583 87.9904 25.5396C87.8648 25.7209 87.8648 25.7209 87.8648 25.7209L87.8618 25.7188L87.8523 25.7123C87.8439 25.7064 87.8312 25.6977 87.8145 25.6863C87.781 25.6634 87.7312 25.6295 87.6665 25.5858C87.537 25.4985 87.3477 25.3721 87.1089 25.2162C86.6312 24.9044 85.956 24.4749 85.1663 24.0044Z" fill="#B5B7CE"/>
        <path fill-rule="evenodd" clip-rule="evenodd" d="M82.8004 28.7178C81.3948 29.3331 80.0602 29.9172 78.9722 30.2957C77.9774 30.6418 76.9757 31.0621 75.9054 31.5112C75.1644 31.8221 74.3906 32.1468 73.5633 32.4702C72.5458 32.8681 71.3911 32.3298 71.1145 31.2551C70.1915 27.6689 70.3933 24.0801 71.7013 20.7056C72.0685 19.7581 73.1262 19.336 74.0652 19.658C76.3625 20.4458 80.6983 21.9487 81.7704 22.4362C82.5122 22.7735 84.0291 23.6028 85.3515 24.3422C86.0147 24.7131 86.6321 25.063 87.0836 25.3203C87.3094 25.4489 87.4937 25.5544 87.6216 25.6277C87.6856 25.6644 87.7355 25.693 87.7694 25.7125L87.8211 25.7423C87.8212 25.7423 87.8212 25.7423 87.7111 25.9334C87.6011 26.1245 87.6011 26.1245 87.601 26.1245L87.5496 26.0949C87.5159 26.0755 87.4661 26.047 87.4023 26.0104C87.2747 25.9372 87.0907 25.8319 86.8653 25.7035C86.4144 25.4467 85.7982 25.0973 85.1363 24.7272C83.8085 23.9848 82.3094 23.1658 81.5878 22.8377C80.5409 22.3616 76.2345 20.8682 73.9221 20.0752C73.1847 19.8224 72.3859 20.1598 72.1126 20.865C70.8386 24.1518 70.6411 27.6462 71.5417 31.1451C71.7481 31.9471 72.6155 32.3672 73.4027 32.0594C74.2054 31.7456 74.9719 31.4242 75.7121 31.1138C76.7969 30.659 77.825 30.2279 78.8273 29.8792C79.8982 29.5066 81.2177 28.9291 82.6303 28.3108C82.722 28.2707 82.8141 28.2304 82.9065 28.1899C84.4182 27.5288 86.0193 26.8356 87.5025 26.3196L87.6474 26.7361C86.1829 27.2457 84.597 27.932 83.0833 28.594C82.9887 28.6354 82.8944 28.6767 82.8004 28.7178Z" fill="#B5B7CE"/>
        <path fill-rule="evenodd" clip-rule="evenodd" d="M88.6379 27.5193L83.0947 42.6188C82.9073 43.1293 82.3723 43.432 81.836 43.3097C78.3444 42.5142 76.2011 41.3908 74.7964 39.9275C73.3922 38.4647 72.7506 36.6865 72.2134 34.642C72.0791 34.1308 72.3333 33.6005 72.808 33.3766L79.4126 30.2627L87.5959 26.6903L87.7724 27.0945L79.5949 30.6644L72.9961 33.7756C72.7103 33.9103 72.5606 34.2278 72.64 34.5299C73.1729 36.5581 73.7916 38.2439 75.1146 39.6221C76.4371 40.9998 78.4878 42.0945 81.934 42.8797C82.2479 42.9512 82.5676 42.7749 82.6807 42.4668L88.2239 27.3673L88.6379 27.5193Z" fill="#B5B7CE"/>
        <path fill-rule="evenodd" clip-rule="evenodd" d="M92.1618 23.4264C93.5927 22.3431 95.3696 20.9873 96.7562 19.8945C98.5108 18.5117 100.347 16.9264 101.459 15.9495C102.12 15.3684 103.147 15.441 103.682 16.1594C106.063 19.3617 107.528 22.6457 107.326 26.5429C107.291 27.2139 106.788 27.7532 106.129 27.8536C104.837 28.0505 102.375 28.3179 99.8659 28.006C98.0508 27.7803 95.6013 27.2921 93.6107 26.8617C92.6143 26.6463 91.7309 26.4449 91.0965 26.2974C90.7794 26.2236 90.5244 26.1633 90.3487 26.1214C90.2608 26.1005 90.1928 26.0841 90.1466 26.073C90.1236 26.0674 90.106 26.0632 90.0942 26.0603L90.0763 26.056C90.0762 26.056 90.0762 26.056 90.1283 25.8417C90.1804 25.6274 90.1804 25.6274 90.1804 25.6274L90.1979 25.6317C90.2096 25.6345 90.227 25.6387 90.2499 25.6442C90.2957 25.6552 90.3634 25.6715 90.451 25.6924C90.626 25.7341 90.8801 25.7942 91.1964 25.8678C91.8291 26.0149 92.7102 26.2158 93.7039 26.4306C95.6934 26.8608 98.1263 27.3453 99.9204 27.5683C102.372 27.8731 104.788 27.6118 106.063 27.4176C106.52 27.3479 106.862 26.9767 106.885 26.5201C107.08 22.7617 105.674 19.5774 103.328 16.4226C102.956 15.9231 102.229 15.8597 101.75 16.2807C100.636 17.2595 98.7931 18.8508 97.0292 20.2409C95.6391 21.3365 93.8594 22.6945 92.428 23.778C91.7121 24.3199 91.083 24.7934 90.6329 25.1314C90.4079 25.3004 90.2275 25.4356 90.1035 25.5285C90.0414 25.5749 89.9934 25.6108 89.961 25.6351L89.9116 25.6721C89.9115 25.6721 89.9115 25.6721 89.7795 25.4954C89.6475 25.3188 89.6476 25.3187 89.6476 25.3187L89.6968 25.2819C89.7292 25.2577 89.7771 25.2218 89.8391 25.1754C89.963 25.0826 90.1432 24.9476 90.3681 24.7787C90.8178 24.441 91.4464 23.9678 92.1618 23.4264Z" fill="#B5B7CE"/>
        <path fill-rule="evenodd" clip-rule="evenodd" d="M84.8856 16.9088C84.3773 15.0542 83.8626 12.8886 83.4955 11.2838C83.1667 9.84593 83.9964 8.3697 85.4432 8.00578C87.5291 7.4811 89.8114 7.17948 92.2785 7.67868C94.7475 8.17828 97.3826 9.47605 100.182 12.1194C101.31 13.1848 101.226 14.9546 100.149 16.0314C99.9198 16.2605 99.6923 16.4883 99.466 16.715C96.3187 19.8678 93.4068 22.7848 89.5805 25.2672L89.3404 24.8972C93.1261 22.4412 96.0069 19.5555 99.1604 16.3969C99.3844 16.1724 99.6099 15.9466 99.8371 15.7195C100.759 14.7979 100.806 13.3155 99.8789 12.4401C97.1303 9.84444 94.5674 8.59184 92.191 8.11098C89.8127 7.62972 87.6021 7.91754 85.5508 8.43352C84.3528 8.73483 83.6463 9.96477 83.9255 11.1854C84.2921 12.7883 84.8052 14.9468 85.311 16.7923C85.7766 18.4912 86.7059 20.5553 87.5243 22.2028C87.9326 23.0248 88.3115 23.7397 88.5884 24.249C88.7268 24.5037 88.8397 24.7068 88.9178 24.8462C88.9569 24.9159 88.9873 24.9696 89.0079 25.0058C89.0182 25.0239 89.026 25.0377 89.0313 25.0468L89.0372 25.0571L89.039 25.0604C89.0391 25.0604 89.0391 25.0604 88.8479 25.1704C88.6567 25.2804 88.6567 25.2803 88.6567 25.2803L88.6484 25.2658C88.6429 25.2563 88.6349 25.2422 88.6244 25.2237C88.6034 25.1868 88.5726 25.1324 88.5331 25.0619C88.4541 24.921 88.3403 24.7162 88.2009 24.4597C87.9221 23.9467 87.5405 23.2269 87.1293 22.3991C86.3086 20.747 85.3631 18.6511 84.8856 16.9088Z" fill="#B5B7CE"/>
        <path d="M89.9378 27.1194C89.4483 27.7069 88.5753 27.7863 87.9878 27.2969C87.4004 26.8074 87.3209 25.9344 87.8104 25.3469C88.2999 24.7594 89.1729 24.68 89.7604 25.1695C90.3478 25.6589 90.4273 26.532 89.9378 27.1194Z" fill="white"/>
        <path fill-rule="evenodd" clip-rule="evenodd" d="M88.2702 26.958C88.6705 27.2916 89.2654 27.2374 89.5989 26.8371C89.9325 26.4368 89.8784 25.8419 89.478 25.5083C89.0777 25.1748 88.4828 25.2289 88.1492 25.6292C87.8157 26.0296 87.8698 26.6245 88.2702 26.958ZM87.9878 27.2969C88.5753 27.7863 89.4483 27.7069 89.9378 27.1194C90.4273 26.532 90.3478 25.6589 89.7604 25.1695C89.1729 24.68 88.2999 24.7594 87.8104 25.3469C87.3209 25.9344 87.4004 26.8074 87.9878 27.2969Z" fill="#B5B7CE"/>
        <path fill-rule="evenodd" clip-rule="evenodd" d="M89.3652 27.9456L71.0178 138.719L70.5827 138.647L88.93 27.8736L89.3652 27.9456Z" fill="#070F5B"/>
        <path fill-rule="evenodd" clip-rule="evenodd" d="M163.857 48.8638C164.447 48.5906 164.761 48.2653 164.856 47.9096L165.282 48.0238C165.138 48.5613 164.687 48.9658 164.042 49.2641C163.394 49.5636 162.514 49.7738 161.44 49.9049C159.29 50.1673 156.308 50.1185 152.713 49.7836C145.519 49.1135 135.83 47.2938 125.347 44.4849C114.864 41.6762 105.555 38.439 98.9817 35.4542C95.6967 33.9625 93.0852 32.5295 91.3514 31.2392C90.4854 30.5948 89.8272 29.9778 89.4147 29.3979C89.0038 28.8202 88.8145 28.2461 88.9586 27.7082L89.3847 27.8224C89.2894 28.1777 89.3983 28.6139 89.7741 29.1423C90.1484 29.6685 90.7655 30.2534 91.6147 30.8854C93.3114 32.148 95.8899 33.5658 99.164 35.0526C105.709 38.0245 114.994 41.2543 125.461 44.0589C135.927 46.8633 145.592 48.6773 152.754 49.3445C156.337 49.6782 159.283 49.7239 161.387 49.4671C162.44 49.3385 163.268 49.1357 163.857 48.8638Z" fill="#070F5B"/>
    </g>
    <defs>
        <filter id="filter0_f_5746_58815" x="-49" y="-28" width="306" height="236" filterUnits="userSpaceOnUse" color-interpolation-filters="sRGB">
            <feFlood flood-opacity="0" result="BackgroundImageFix"/>
            <feBlend mode="normal" in="SourceGraphic" in2="BackgroundImageFix" result="shape"/>
            <feGaussianBlur stdDeviation="10" result="effect1_foregroundBlur_5746_58815"/>
        </filter>
    </defs>
</svg>
