<svg width="143" height="32" viewBox="0 0 143 32" fill="none" xmlns="http://www.w3.org/2000/svg">
<path fill-rule="evenodd" clip-rule="evenodd" d="M24.025 28.562C26.0224 28.562 27.6417 26.9043 27.6417 24.8595C27.6417 22.8147 26.0224 21.157 24.025 21.157C22.0276 21.157 20.4083 22.8147 20.4083 24.8595C20.4083 26.9043 22.0276 28.562 24.025 28.562ZM24.025 32C27.8772 32 31 28.8031 31 24.8595C31 20.9159 27.8772 17.719 24.025 17.719C20.1728 17.719 17.05 20.9159 17.05 24.8595C17.05 28.8031 20.1728 32 24.025 32Z" fill="#25044F"/>
<path fill-rule="evenodd" clip-rule="evenodd" d="M0 23.1405H17.4375V26.5785H0V23.1405Z" fill="#25044F"/>
<path fill-rule="evenodd" clip-rule="evenodd" d="M2.19583 24.3306L2.19583 17.1901H5.55417L5.55417 24.3306H2.19583Z" fill="#25044F"/>
<path fill-rule="evenodd" clip-rule="evenodd" d="M7.87917 24.3306L7.87917 17.1901H11.2375V24.3306H7.87917Z" fill="#25044F"/>
<path fill-rule="evenodd" clip-rule="evenodd" d="M6.975 3.43802C4.97757 3.43802 3.35833 5.09567 3.35833 7.1405C3.35833 9.18532 4.97757 10.843 6.975 10.843C8.97243 10.843 10.5917 9.18532 10.5917 7.1405C10.5917 5.09567 8.97243 3.43802 6.975 3.43802ZM6.975 0C3.12281 -3.44759e-07 9.91711e-07 3.19691 6.54942e-07 7.1405C3.18173e-07 11.0841 3.12281 14.281 6.975 14.281C10.8272 14.281 13.95 11.0841 13.95 7.1405C13.95 3.19691 10.8272 3.44759e-07 6.975 0Z" fill="#25044F"/>
<path fill-rule="evenodd" clip-rule="evenodd" d="M31 8.85951L13.5625 8.8595V5.42149L31 5.42149V8.85951Z" fill="#25044F"/>
<path fill-rule="evenodd" clip-rule="evenodd" d="M28.8042 7.66942V14.8099L25.4458 14.8099V7.66942L28.8042 7.66942Z" fill="#25044F"/>
<path fill-rule="evenodd" clip-rule="evenodd" d="M23.1208 7.66942V14.8099H19.7625V7.66942L23.1208 7.66942Z" fill="#25044F"/>
<path d="M46.38 24.748V14.455H43V11.724H46.38V9.30904C46.38 8.41604 46.649 7.70704 47.185 7.18204C47.74 6.63904 48.455 6.36804 49.331 6.36804H52.819V9.09804H50.512C50.011 9.09804 49.761 9.36104 49.761 9.88604V11.724H53.248V14.455H49.761V24.748H46.38Z" fill="#25044F"/>
<path d="M53.719 24.748V11.724H57.046V13.195H57.528C57.725 12.67 58.047 12.284 58.494 12.039C58.959 11.794 59.496 11.672 60.104 11.672H61.714V14.613H60.05C59.192 14.613 58.485 14.84 57.931 15.295C57.376 15.733 57.099 16.416 57.099 17.344V24.748H53.719Z" fill="#25044F"/>
<path d="M67.801 25.1161C66.477 25.1161 65.306 24.8451 64.287 24.3021C63.285 23.7421 62.498 22.9631 61.926 21.9651C61.371 20.9501 61.094 19.7591 61.094 18.3941V18.0791C61.094 16.7131 61.371 15.5321 61.926 14.5341C62.48 13.5191 63.258 12.7401 64.26 12.1971C65.261 11.6371 66.424 11.3571 67.747 11.3571C69.053 11.3571 70.189 11.6461 71.154 12.2231C72.12 12.7831 72.871 13.5711 73.408 14.5861C73.945 15.5841 74.213 16.7481 74.213 18.0791V19.2081H64.528C64.564 20.1011 64.904 20.8271 65.547 21.3871C66.191 21.9471 66.978 22.2281 67.908 22.2281C68.856 22.2281 69.554 22.0261 70.001 21.6241C70.448 21.2211 70.788 20.7751 71.02 20.2851L73.784 21.7021C73.533 22.1581 73.166 22.6571 72.684 23.1991C72.219 23.7241 71.593 24.1791 70.806 24.5651C70.019 24.9321 69.017 25.1161 67.801 25.1161ZM64.555 16.7401H70.779C70.707 15.9871 70.394 15.3831 69.84 14.9281C69.303 14.4731 68.597 14.2451 67.72 14.2451C66.808 14.2451 66.084 14.4731 65.547 14.9281C65.011 15.3831 64.68 15.9871 64.555 16.7401Z" fill="#25044F"/>
<path d="M75.075 24.748V11.724H78.455V24.748H75.075ZM76.765 10.201C76.157 10.201 75.639 10.009 75.209 9.624C74.798 9.239 74.592 8.731 74.592 8.101C74.592 7.47 74.798 6.963 75.209 6.578C75.639 6.193 76.157 6 76.765 6C77.391 6 77.91 6.193 78.321 6.578C78.733 6.963 78.938 7.47 78.938 8.101C78.938 8.731 78.733 9.239 78.321 9.624C77.91 10.009 77.391 10.201 76.765 10.201Z" fill="#25044F"/>
<path d="M79.411 18.2891V17.8691C79.411 16.5031 79.688 15.3391 80.243 14.3761C80.797 13.3961 81.531 12.6521 82.443 12.1441C83.373 11.6191 84.383 11.3571 85.474 11.3571C86.691 11.3571 87.612 11.5671 88.238 11.9871C88.864 12.4071 89.32 12.8451 89.606 13.3001H90.089V11.7241H93.415V27.0591C93.415 27.9521 93.147 28.6611 92.611 29.1861C92.074 29.7291 91.358 30.0001 90.464 30.0001H81.557V27.1121H89.284C89.785 27.1121 90.035 26.8491 90.035 26.3241V22.9361H89.552C89.373 23.2171 89.123 23.5061 88.801 23.8031C88.479 24.0831 88.05 24.3201 87.513 24.5121C86.977 24.7051 86.297 24.8011 85.474 24.8011C84.383 24.8011 83.373 24.5471 82.443 24.0391C81.531 23.5141 80.797 22.7701 80.243 21.8071C79.688 20.8271 79.411 19.6541 79.411 18.2891ZM86.44 21.9131C87.477 21.9131 88.345 21.5891 89.042 20.9411C89.74 20.2931 90.089 19.3831 90.089 18.2101V17.9481C90.089 16.7571 89.74 15.8471 89.042 15.2171C88.363 14.5691 87.495 14.2451 86.44 14.2451C85.403 14.2451 84.535 14.5691 83.838 15.2171C83.14 15.8471 82.792 16.7571 82.792 17.9481V18.2101C82.792 19.3831 83.14 20.2931 83.838 20.9411C84.535 21.5891 85.403 21.9131 86.44 21.9131Z" fill="#25044F"/>
<path d="M95.017 24.748V6.36804H98.397V13.326H98.88C99.023 13.046 99.247 12.766 99.551 12.486C99.855 12.206 100.257 11.978 100.758 11.803C101.277 11.611 101.929 11.514 102.716 11.514C103.754 11.514 104.657 11.751 105.426 12.223C106.213 12.678 106.821 13.317 107.25 14.14C107.68 14.945 107.894 15.891 107.894 16.976V24.748H104.514V17.239C104.514 16.258 104.263 15.523 103.763 15.033C103.28 14.543 102.582 14.298 101.67 14.298C100.633 14.298 99.828 14.639 99.256 15.322C98.683 15.987 98.397 16.923 98.397 18.131V24.748H95.017Z" fill="#25044F"/>
<path d="M114.133 24.748C113.256 24.748 112.541 24.486 111.986 23.961C111.45 23.418 111.181 22.7 111.181 21.807V14.455H107.855V11.724H111.181V7.68103H114.562V11.724H118.21V14.455H114.562V21.23C114.562 21.755 114.812 22.017 115.313 22.017H117.888V24.748H114.133Z" fill="#25044F"/>
<path d="M124.716 25.1161C123.392 25.1161 122.221 24.8451 121.201 24.3021C120.2 23.7421 119.412 22.9631 118.84 21.9651C118.286 20.9501 118.008 19.7591 118.008 18.3941V18.0791C118.008 16.7131 118.286 15.5321 118.84 14.5341C119.395 13.5191 120.173 12.7401 121.174 12.1971C122.176 11.6371 123.338 11.3571 124.662 11.3571C125.967 11.3571 127.103 11.6461 128.069 12.2231C129.035 12.7831 129.786 13.5711 130.322 14.5861C130.859 15.5841 131.127 16.7481 131.127 18.0791V19.2081H121.442C121.478 20.1011 121.818 20.8271 122.462 21.3871C123.106 21.9471 123.893 22.2281 124.823 22.2281C125.771 22.2281 126.468 22.0261 126.915 21.6241C127.362 21.2211 127.702 20.7751 127.935 20.2851L130.698 21.7021C130.448 22.1581 130.081 22.6571 129.598 23.1991C129.133 23.7241 128.507 24.1791 127.72 24.5651C126.933 24.9321 125.932 25.1161 124.716 25.1161ZM121.469 16.7401H127.693C127.622 15.9871 127.309 15.3831 126.754 14.9281C126.218 14.4731 125.511 14.2451 124.635 14.2451C123.723 14.2451 122.998 14.4731 122.462 14.9281C121.925 15.3831 121.594 15.9871 121.469 16.7401Z" fill="#25044F"/>
<path d="M131.99 24.748V11.724H135.316V13.195H135.799C135.996 12.67 136.318 12.284 136.765 12.039C137.23 11.794 137.767 11.672 138.375 11.672H139.984V14.613H138.321C137.463 14.613 136.756 14.84 136.202 15.295C135.647 15.733 135.37 16.416 135.37 17.344V24.748H131.99Z" fill="#25044F"/>
<path d="M140.451 25.116C139.736 25.116 139.128 24.888 138.627 24.433C138.144 23.961 137.903 23.357 137.903 22.621C137.903 21.886 138.144 21.291 138.627 20.836C139.128 20.363 139.736 20.127 140.451 20.127C141.185 20.127 141.793 20.363 142.276 20.836C142.758 21.291 143 21.886 143 22.621C143 23.357 142.758 23.961 142.276 24.433C141.793 24.888 141.185 25.116 140.451 25.116Z" fill="#25044F"/>
</svg>
