<svg width="101" height="22" viewBox="0 0 101 22" fill="none" xmlns="http://www.w3.org/2000/svg">
    <path fill-rule="evenodd" clip-rule="evenodd" d="M31.177 0C26.2114 0 22.3218 3.64198 22.3218 8.29151C22.3218 12.8915 26.1704 16.4949 31.0839 16.4949C36.0494 16.4949 39.9389 12.853 39.9389 8.20343C39.9389 3.52677 36.172 0 31.177 0ZM31.1304 13.5698C27.9853 13.5698 25.6135 11.2817 25.6135 8.24727C25.6135 5.21311 27.9853 2.9251 31.1304 2.9251C34.275 2.9251 36.6467 5.21311 36.6467 8.24727C36.6467 11.2817 34.275 13.5698 31.1304 13.5698Z" fill="#25044F"/>
    <path fill-rule="evenodd" clip-rule="evenodd" d="M53.4009 0.00939941H46.5502C46.3946 0.00939941 46.2685 0.129012 46.2685 0.27669V16.2723C46.2685 16.4198 46.3946 16.5396 46.5502 16.5396H49.2597C49.415 16.5396 49.5409 16.4204 49.5414 16.2731L49.5602 11.0247C49.5606 10.8774 49.6867 10.7584 49.8419 10.7584H53.3079C56.9406 10.7584 60.0286 8.48866 60.0286 5.36163C60.0286 2.21041 57.0375 0.00939941 53.4009 0.00939941ZM49.5612 7.80908V3.02537C49.5612 2.8777 49.6872 2.75808 49.8429 2.75808H53.1216C55.0135 2.75808 56.6689 3.83099 56.6689 5.42805C56.6689 7.01215 55.0135 8.07637 53.1216 8.07637H49.8429C49.6872 8.07637 49.5612 7.95676 49.5612 7.80908Z" fill="#25044F"/>
    <path fill-rule="evenodd" clip-rule="evenodd" d="M17.468 7.33514H11.4042C11.3158 7.33514 11.2324 7.37456 11.1791 7.44165L9.62964 9.39488C9.48978 9.5709 9.62232 9.82282 9.85458 9.82282H13.8636C14.0576 9.82282 14.196 10.0055 14.1302 10.1787C13.3619 12.2014 11.3945 13.5697 8.96356 13.5697C8.13662 13.5697 7.36532 13.4079 6.67445 13.1196C4.73747 12.3112 3.44671 10.4837 3.44671 8.24714C3.44671 5.21298 5.81836 2.92497 8.96356 2.92497C10.6063 2.92497 12.0379 3.54949 13.0308 4.57843C13.1505 4.70245 13.3581 4.69524 13.4647 4.56092L15.0868 2.51641C15.173 2.40776 15.161 2.25353 15.0556 2.16145C13.5063 0.807754 11.3993 0 9.01018 0C4.04448 0 0.155029 3.64184 0.155029 8.29137C0.155029 11.4713 1.99553 14.1732 4.75451 15.5395C5.98639 16.1495 7.40026 16.4948 8.91708 16.4948C13.8826 16.4948 17.7719 12.8528 17.7719 8.20343C17.7719 7.99334 17.7643 7.78579 17.7494 7.58065C17.7393 7.44165 17.6148 7.33514 17.468 7.33514Z" fill="#25044F"/>
    <path fill-rule="evenodd" clip-rule="evenodd" d="M69.7828 9.45672L71.7222 4.82681C71.8163 4.60228 72.151 4.60202 72.2455 4.82641L74.1948 9.45631C74.2689 9.63192 74.1326 9.82277 73.9334 9.82277H70.0445C69.8455 9.82277 69.7095 9.63219 69.7828 9.45672ZM77.3678 16.5389H80.3288C80.5298 16.5389 80.6662 16.3451 80.5891 16.1691L73.5896 0.174185C73.5459 0.0743514 73.4433 0.00939941 73.3294 0.00939941H70.8046C70.6908 0.00939941 70.5881 0.0743514 70.5444 0.174185L63.545 16.1691C63.468 16.3451 63.6043 16.5389 63.8053 16.5389H66.6253C66.7406 16.5389 66.8444 16.4721 66.887 16.3704L68.517 12.4791C68.5596 12.3773 68.6634 12.3105 68.7787 12.3105H75.2058C75.3211 12.3105 75.4247 12.3772 75.4674 12.4787L77.1061 16.3708C77.1489 16.4723 77.2525 16.5389 77.3678 16.5389Z" fill="#25044F"/>
    <path fill-rule="evenodd" clip-rule="evenodd" d="M97.6127 0.110056L82.3201 19.3854C82.2668 19.4525 82.1834 19.4918 82.095 19.4918H1.75409C1.6655 19.4918 1.58211 19.5313 1.52901 19.5984L0.0571212 21.4534C-0.0826028 21.6297 0.0499379 21.8815 0.282201 21.8815H83.6518C83.7403 21.8815 83.8237 21.842 83.8768 21.775L100.816 0.431607C100.956 0.255462 100.824 0.00354004 100.591 0.00354004H97.8379C97.7493 0.00354004 97.6659 0.0429655 97.6127 0.110056Z" fill="#FFBA00"/>
    <path fill-rule="evenodd" clip-rule="evenodd" d="M88.007 0.00939941H85.2537C85.0213 0.00939941 84.8887 0.261322 85.0286 0.437468L90.6644 7.54102L92.3938 5.36139L88.2321 0.115915C88.1788 0.048825 88.0954 0.00939941 88.007 0.00939941Z" fill="#25044F"/>
    <path fill-rule="evenodd" clip-rule="evenodd" d="M97.9427 16.5388H100.696C100.928 16.5388 101.061 16.2869 100.921 16.1107L95.1789 8.87286L93.4493 11.0521L97.7176 16.4323C97.7709 16.4994 97.8543 16.5388 97.9427 16.5388Z" fill="#25044F"/>
</svg>
