<svg width="24" height="24" viewBox="0 0 24 24" fill="none" xmlns="http://www.w3.org/2000/svg">
    <path d="M12 0C18.6273 0 23.9998 5.37255 24 12C24 18.6276 18.6274 24.001 12 24.001C9.78092 24.001 7.70403 23.3958 5.9209 22.3457C6.1847 21.9703 6.44559 21.5932 6.71484 21.2227C8.17911 19.1954 9.64466 17.1688 11.1113 15.1436C13.3848 12.0017 15.6578 8.85983 17.9297 5.71875C18.0029 5.61799 18.1201 5.51716 18.0381 5.37207C17.9649 5.24325 17.8267 5.27923 17.7109 5.2793C16.8618 5.2775 16.0117 5.28783 15.1631 5.27344C14.9015 5.27344 14.7416 5.3676 14.5928 5.57324C11.8502 9.36784 9.10664 13.1628 6.36328 16.957C5.47458 18.1911 4.58557 19.4257 3.69727 20.6602C1.41998 18.4761 0 15.4046 0 12C0.000211304 5.37256 5.37271 2.78329e-05 12 0ZM3.69727 20.6602C4.36876 21.3042 5.11425 21.8706 5.9209 22.3457C5.91602 22.3526 5.9121 22.3603 5.90723 22.3672C5.09821 21.8925 4.33574 21.3572 3.69531 20.6641C3.69615 20.6629 3.69643 20.6613 3.69727 20.6602ZM14.6162 13.1006C14.4735 12.9022 14.4188 12.9665 14.3115 13.1182C13.8434 13.7778 13.3744 14.4376 12.8877 15.084C12.7574 15.2562 12.7765 15.3585 12.8965 15.5205C13.6648 16.5673 14.4265 17.6194 15.1816 18.6758C15.2388 18.7629 15.3185 18.8332 15.4121 18.8789C15.5059 18.9246 15.6109 18.9443 15.7148 18.9355C16.1348 18.9284 16.5556 18.9355 16.9756 18.9355V18.9316H18.4141C18.5031 18.9291 18.5871 18.911 18.6348 18.8076C18.6924 18.6809 18.5951 18.599 18.5352 18.5146C17.2237 16.7135 15.9168 14.9086 14.6162 13.1006ZM5.89062 5.28027C5.65471 5.28207 5.58961 5.41594 5.72168 5.61523C5.86931 5.83964 6.03554 6.05307 6.19336 6.27148L9.27344 10.5176C9.83581 9.74095 10.3703 8.99566 10.9141 8.25684C11 8.13953 10.9626 8.06809 10.8926 7.97168C10.286 7.1415 9.68217 6.30954 9.08203 5.47656C8.9951 5.35616 8.89089 5.27649 8.73633 5.27637C7.78748 5.27757 6.83888 5.27307 5.89062 5.28027Z" fill="#23024D"/>
</svg>
