<svg width="100%" height="100%" viewBox="0 0 195 33" fill="none" xmlns="http://www.w3.org/2000/svg">
<path fill-rule="evenodd" clip-rule="evenodd" d="M19.638 10.551C19.251 9.08454 18.6712 7.67559 17.9134 6.36079C17.0785 4.86197 15.8196 3.82596 14.5447 2.79422C13.7347 2.13868 12.7588 1.6086 11.9433 1.16561C11.9099 1.14746 11.8767 1.12944 11.8438 1.11157C11.7346 1.05045 11.6294 0.988221 11.5151 0.920571L11.4299 0.87026C10.8633 0.536043 10.1425 0.949581 10.1687 1.6143C10.1765 1.81205 10.1871 1.99549 10.1974 2.17245C10.2058 2.31837 10.4328 2.50263 10.6605 2.68742C10.8939 2.87687 11.128 3.06689 11.128 3.21673V3.22627L11.1283 3.2358C11.1535 4.01992 11.0393 4.80221 10.7911 5.54654C10.1583 7.3098 8.89649 8.65277 7.31091 9.84031L7.30939 9.84144C5.41418 11.2702 4.05362 13.3943 3.25537 15.5633C2.71873 17.0214 2.51868 18.6859 2.59481 20.2493L2.59499 20.2533L2.59524 20.2571C2.65452 21.2163 2.80959 22.1672 3.05815 23.0957L3.06069 23.1051L3.06354 23.1145C3.63381 24.9952 4.60133 26.6361 5.89369 28.0671L5.90094 28.075L5.90847 28.0828C6.68681 28.8848 7.56378 29.6735 8.59959 30.2438C9.2659 30.6534 9.96426 31.0092 10.6878 31.3073L10.6962 31.3107L10.7048 31.314C12.8818 32.1356 15.244 32.3421 17.5313 31.911C20.202 31.4469 22.6093 30.0987 24.4434 28.1241C26.5179 25.8905 27.7325 23.0272 27.805 20.0476C27.8263 19.1721 27.7994 18.2699 27.6064 17.3662C27.4191 16.4156 27.1599 15.4369 26.7151 14.5183C25.4038 11.5793 22.9899 9.80709 21.952 9.44574C21.3898 9.37566 21.2341 10.0609 21.1094 10.6103C21.0621 10.8181 21.0193 11.0065 20.9606 11.1272C20.8923 11.2675 20.9866 11.3141 21.0945 11.3673C21.2494 11.4438 21.4324 11.5342 21.2026 11.936C20.8055 12.6305 20.374 13.2977 20.01 13.6844L19.9938 13.7017L19.9789 13.7202C19.9762 13.7236 19.9729 13.7255 19.9699 13.7264L19.9669 13.7268L19.9646 13.7238C19.9626 13.7203 19.9616 13.716 19.962 13.7117L19.9636 13.6965L19.9644 13.6813C20.021 12.6273 19.9108 11.5709 19.638 10.551ZM6.28662 27.6016C6.3058 27.6231 6.32506 27.6445 6.34439 27.6659C6.37875 27.7013 6.41323 27.7366 6.44786 27.7718C6.4132 27.7366 6.37867 27.7012 6.34428 27.6658C6.32499 27.6444 6.30577 27.623 6.28662 27.6016ZM16.6029 31.4456C16.877 31.4131 17.1505 31.3711 17.4228 31.3197C19.9583 30.8802 22.2493 29.5998 23.9982 27.7167C25.9786 25.5847 27.1311 22.859 27.1999 20.0331C27.2207 19.1755 27.1929 18.3251 27.0132 17.4861C26.8301 16.5552 26.5821 15.6289 26.1667 14.7732C25.4969 13.3117 24.327 12.9142 23.3196 12.7837C24.327 12.9142 25.4968 13.3117 26.1666 14.7732C26.582 15.6289 26.83 16.5552 27.0131 17.4862C27.1928 18.3251 27.2206 19.1756 27.1998 20.0331C27.131 22.8589 25.9785 25.5847 23.9981 27.7167C22.2492 29.5999 19.9582 30.8802 17.4226 31.3197C17.1503 31.3711 16.877 31.4131 16.6029 31.4456ZM11.7332 3.20945C11.7285 2.96589 11.4898 2.67902 11.2516 2.39279C11.0198 2.11424 10.7885 1.83629 10.7739 1.59947C10.7807 1.7702 10.7905 1.94086 10.8003 2.11157L10.8003 2.11181C10.8091 2.26461 11.0364 2.46011 11.2644 2.65624C11.4949 2.85449 11.7262 3.05338 11.7332 3.20945ZM11.0042 1.35354C11.0429 1.3541 11.0829 1.3646 11.1207 1.38691L11.2025 1.43527L11.2053 1.43692C11.3204 1.50498 11.4334 1.57184 11.55 1.63697C11.7339 1.73692 11.9548 1.8514 12.1944 1.97556C12.9967 2.39136 14.0086 2.91577 14.5447 3.36704C15.6273 4.3051 16.6898 5.40487 17.3857 6.65544C18.1183 7.92565 18.6789 9.28711 19.0527 10.7042C19.3095 11.6637 19.4132 12.6576 19.3599 13.6493C19.346 13.7817 19.3753 13.9151 19.4435 14.0296C19.5117 14.1441 19.615 14.2337 19.7383 14.2849C19.778 14.3004 19.8189 14.3117 19.8603 14.3189C19.8188 14.3118 19.7779 14.3004 19.7382 14.2849C19.6149 14.2337 19.5116 14.1441 19.4434 14.0296C19.3752 13.9151 19.3459 13.7817 19.3598 13.6493C19.4131 12.6576 19.3094 11.6637 19.0527 10.7042C18.6787 9.28711 18.1182 7.92563 17.3856 6.65543C16.6897 5.40486 15.6272 4.3051 14.5446 3.36704C14.0085 2.91578 12.9966 2.39136 12.1943 1.97557C11.9547 1.8514 11.7338 1.73692 11.5499 1.63697C11.4329 1.57164 11.3195 1.50455 11.2041 1.43626C11.1764 1.41988 11.1486 1.40343 11.1206 1.38691C11.0828 1.36461 11.0429 1.35412 11.0042 1.35354ZM21.6935 12.0016C21.5748 12.3006 21.498 12.5344 21.5352 12.5628C21.6105 12.6204 21.7311 12.6533 21.8861 12.6744C21.7311 12.6533 21.6106 12.6204 21.5353 12.5628C21.4981 12.5343 21.5752 12.2997 21.6943 11.9998C21.8233 11.7157 21.9408 11.4421 22.0446 11.2005C22.1126 11.0421 22.1747 10.8974 22.2303 10.7726C22.2676 10.6916 22.2972 10.628 22.3154 10.5889C22.332 10.5532 22.3391 10.5378 22.3339 10.5484C22.3311 10.5546 22.3241 10.5696 22.3136 10.5922C22.2961 10.6299 22.2689 10.6884 22.235 10.7621C22.2334 10.7655 22.2319 10.769 22.2303 10.7726C22.2284 10.7767 22.2265 10.7808 22.2246 10.785C22.1705 10.9068 22.1104 11.0469 22.0447 11.1998C21.9412 11.441 21.8239 11.7141 21.6952 11.9977C21.6949 11.9984 21.6946 11.9991 21.6943 11.9998C21.6941 12.0004 21.6938 12.001 21.6935 12.0016Z" fill="#23024D"/>
<path d="M10.479 1.23732C10.4718 1.05419 10.6673 0.939786 10.8258 1.03339C10.9705 1.11875 11.1099 1.20244 11.2547 1.28345C12.054 1.7181 12.8073 2.23233 13.5029 2.81834C14.5844 3.75638 15.4934 4.87593 16.1887 6.12647C16.9206 7.39664 17.4806 8.75809 17.8542 10.1751C18.1108 11.1346 18.2143 12.1285 18.1611 13.1201C18.1473 13.2526 18.1765 13.3859 18.2446 13.5005C18.3127 13.615 18.416 13.7045 18.5392 13.7557C18.6627 13.8041 18.7987 13.8118 18.927 13.7777C19.0554 13.7434 19.1695 13.6691 19.2525 13.5655C20.0852 12.6801 21.0946 10.6798 21.433 9.98394C21.4963 9.85396 21.6557 9.80881 21.7708 9.89686C22.3114 10.3105 23.7447 11.586 24.9619 14.244C25.3769 15.0997 25.6246 16.0258 25.8077 16.9569C25.987 17.7958 26.015 18.6463 25.9941 19.5038C25.9255 22.3297 24.774 25.0552 22.7954 27.1872C21.0479 29.0703 18.7589 30.3506 16.2256 30.7901C14.0489 31.2018 11.8005 31.0055 9.72845 30.2227C9.03102 29.9351 8.35804 29.5916 7.71617 29.1956C6.75291 28.6674 5.92149 27.9246 5.15705 27.1363C3.92075 25.7663 3.00059 24.2021 2.45823 22.412C2.22017 21.522 2.07166 20.6104 2.01487 19.691C1.94199 18.1929 2.135 16.6105 2.63883 15.2404C3.40734 13.1504 4.70783 11.1334 6.48697 9.79096C8.12097 8.56616 9.48488 7.13403 10.1718 5.2129C10.4436 4.39964 10.5687 3.54473 10.5413 2.68785C10.5413 2.2037 10.498 1.72072 10.479 1.23732Z" fill="white"/>
<path fill-rule="evenodd" clip-rule="evenodd" d="M13.7633 2.43506L13.7665 2.43789C14.9011 3.42104 15.8546 4.59412 16.5842 5.90422C17.342 7.21898 17.922 8.62797 18.309 10.0944C18.5818 11.1144 18.6919 12.1707 18.6353 13.2247L18.6345 13.2399L18.6329 13.2552C18.6325 13.2594 18.6335 13.2637 18.6355 13.2672L18.6378 13.2702L18.6406 13.2698C18.6437 13.269 18.6471 13.267 18.6498 13.2636L18.6646 13.2451L18.6809 13.2278C19.045 12.8411 19.4762 12.174 19.8735 11.4794C20.2634 10.7978 20.5942 10.1368 20.7606 9.79496C20.9745 9.35546 21.5644 9.15004 22.0132 9.49324C22.6222 9.95899 24.1224 11.3078 25.3858 14.0617C25.8307 14.9802 26.09 15.9591 26.2773 16.9096C26.4702 17.8134 26.4972 18.7156 26.4759 19.591C26.4034 22.5705 25.1888 25.4339 23.1142 27.6676C21.2802 29.642 18.8729 30.9903 16.2022 31.4543C13.9149 31.8856 11.5527 31.6791 9.37563 30.8573L9.36711 30.8542L9.35871 30.8508C8.63513 30.5526 7.93679 30.1969 7.27046 29.7871C6.23467 29.2169 5.3577 28.4281 4.57938 27.6262L4.57184 27.6185L4.56459 27.6105C3.27223 26.1794 2.30471 24.5387 1.73444 22.658L1.73159 22.6486L1.72905 22.639C1.48048 21.7106 1.32543 20.7598 1.26613 19.8006L1.26589 19.7966L1.2657 19.7928C1.18958 18.2293 1.38963 16.5649 1.92627 15.1067C2.72453 12.9378 4.08509 10.8135 5.98028 9.38486L5.9818 9.38374C7.56736 8.19618 8.82922 6.85321 9.46199 5.08996C9.71016 4.34564 9.82438 3.56334 9.7993 2.77922L9.799 2.76969V2.76016C9.799 2.46415 9.78291 2.18671 9.76576 1.8912C9.75549 1.71424 9.74483 1.53081 9.73705 1.33304C9.71092 0.668335 10.4317 0.254792 10.9983 0.58901C11.0274 0.606141 11.0556 0.62289 11.0834 0.639321C11.1978 0.706971 11.303 0.7692 11.4122 0.830325C12.2469 1.2841 13.0335 1.82079 13.76 2.43226L13.7633 2.43506ZM10.0345 5.28527C9.34693 7.20644 7.98182 8.63861 6.34638 9.86343C4.56568 11.2059 3.26404 13.223 2.49486 15.3129C1.99056 16.6833 1.7974 18.2657 1.87034 19.7638C1.92718 20.6832 2.07583 21.5947 2.31408 22.4847C2.85693 24.275 3.77789 25.839 5.0153 27.2093C5.78041 27.9976 6.61256 28.7402 7.57673 29.2686C8.21919 29.6646 8.89268 30.008 9.59072 30.2958C11.6646 31.0784 13.915 31.2748 16.0936 30.8632C18.6293 30.4236 20.9202 29.1432 22.6692 27.2602C24.6495 25.128 25.8021 22.4024 25.8707 19.5766C25.8916 18.719 25.8638 17.8686 25.6841 17.0295C25.5009 16.0985 25.253 15.1724 24.8377 14.3165C23.6194 11.6585 22.1847 10.383 21.6437 9.96933C21.5287 9.88129 21.3689 9.92643 21.3056 10.0564C20.9669 10.7523 19.9566 12.7527 19.1232 13.6381C19.0401 13.7417 18.9259 13.816 18.7975 13.8502C18.669 13.8844 18.5329 13.8767 18.4092 13.8282C18.2859 13.7771 18.1826 13.6875 18.1144 13.573C18.0462 13.4585 18.017 13.3251 18.0309 13.1927C18.084 12.201 17.9804 11.2071 17.7237 10.2476C17.3497 8.83053 16.7892 7.46906 16.0566 6.19886C15.3607 4.94828 14.4509 3.82872 13.3685 2.89065C12.6722 2.30463 11.9184 1.79038 11.1183 1.35572C11.0009 1.29007 10.8869 1.22265 10.7709 1.15402C10.7438 1.13796 10.7165 1.12184 10.6891 1.10566C10.5304 1.01205 10.3348 1.12646 10.3419 1.30959C10.3488 1.48327 10.3588 1.6569 10.3688 1.83057C10.3865 2.14023 10.4043 2.44996 10.4043 2.76016C10.4317 3.61706 10.3065 4.47199 10.0345 5.28527Z" fill="#23024D"/>
<path fill-rule="evenodd" clip-rule="evenodd" d="M54.5365 16.2253C54.5365 23.5209 58.6441 28.0129 65.4152 28.0129C72.2183 28.0129 76.2614 23.5209 76.2614 16.2253C76.2614 8.86602 72.2183 4.37402 65.4152 4.37402C58.6441 4.37402 54.5365 8.86602 54.5365 16.2253ZM65.4152 24.4129C61.3076 24.4129 58.9009 21.3227 58.9009 16.2253C58.9009 11.0643 61.3076 7.97404 65.4152 7.97404C69.5228 7.97404 71.9616 11.0643 71.9616 16.2253C71.9616 21.3227 69.5228 24.4129 65.4152 24.4129Z" fill="#23024D"/>
<path d="M34.874 5.23047H39.1891V27.507H34.874V5.23047Z" fill="#23024D"/>
<path d="M96.3174 9.51441V5.23047H77.3304V9.51441H84.6666V27.507H88.9818V9.51441H96.3174Z" fill="#23024D"/>
<path d="M47.8197 18.0827V13.7988H39.1895V18.0827H47.8197Z" fill="#23024D"/>
<path d="M47.8202 5.23047H52.1354V27.507H47.8202V5.23047Z" fill="#23024D"/>
<path d="M152.516 5.47852H156.563V27.3474H152.516V5.47852Z" fill="#23024D"/>
<path d="M163.45 5.47852H159.403V27.3474H163.45V5.47852Z" fill="#23024D"/>
<path fill-rule="evenodd" clip-rule="evenodd" d="M132.868 16.0889C133.528 12.622 136.203 10.6543 140.324 10.6543C145.138 10.6543 147.654 13.1218 147.654 17.7756V23.4601C147.654 24.3971 148.064 24.6781 148.693 24.6781H149.353V27.583L148.409 27.6141C147.12 27.6454 144.478 27.6766 144.162 25.0531C143.374 26.7085 141.488 27.9576 138.593 27.9576C135.227 27.9576 132.585 26.1774 132.585 23.2415C132.585 20.0556 135.007 18.9624 138.94 18.2128L143.595 17.307C143.595 14.746 142.494 13.5278 140.324 13.5278C138.531 13.5278 137.367 14.4961 136.989 16.3075L132.868 16.0889ZM136.769 23.1165C136.769 24.2409 137.745 25.1467 139.695 25.1467C141.96 25.1467 143.691 23.4913 143.691 20.2429V20.0244L140.48 20.5924C138.388 20.9644 136.769 21.2523 136.769 23.1165Z" fill="#23024D"/>
<path d="M108.31 5.40723H104L110.009 27.5831H114.508L118.44 12.7158L122.342 27.5831H126.872L132.85 5.40723H128.539L124.481 21.961L120.328 5.40723H116.521L112.431 21.961L108.31 5.40723Z" fill="#23024D"/>
<path d="M185.594 7.28125H189.621V11.0293H194.026V14.1215H189.621V22.492C189.621 23.7726 190.282 24.4909 191.51 24.4909H194.026V27.5831H190.848C187.419 27.5831 185.594 25.8653 185.594 22.492V14.1215H182.952V11.0293H185.594V7.28125Z" fill="#23024D"/>
<path fill-rule="evenodd" clip-rule="evenodd" d="M173.852 10.6543C168.984 10.6543 165.8 14.0588 165.8 19.306C165.8 24.5532 168.984 27.9576 173.852 27.9576C177.343 27.9576 180.281 25.9587 181.261 22.8042L177.249 22.4919C176.668 23.9287 175.321 24.8032 173.852 24.8032C171.526 24.8032 170.117 23.1478 169.934 20.3992H181.475V19.431C181.415 13.5902 178.046 10.6543 173.852 10.6543ZM177.433 17.7443H169.964C170.269 15.2768 171.679 13.8089 173.852 13.8089C175.597 13.8089 177.128 14.902 177.433 17.7443Z" fill="#23024D"/>
</svg>
