<svg width="100%" height="100%" viewBox="0 0 16 16" fill="none" xmlns="http://www.w3.org/2000/svg">
    <path d="M4.81298 3C4.06166 3 3.35527 3.32266 2.8239 3.90828C2.29254 4.4939 2 5.27279 2 6.10105C2 6.92931 2.29268 7.70804 2.8239 8.29382L8 14L13.1761 8.29382C13.7075 7.70804 14 6.92931 14 6.10105C14 5.27279 13.7075 4.49406 13.1761 3.90828C12.6447 3.32266 11.9385 3 11.187 3C10.4357 3 9.72932 3.32266 9.19795 3.90828L8 5.22907L6.8019 3.90828C6.27068 3.32266 5.56429 3 4.81298 3Z" stroke="black"/>
</svg>
