<svg width="32" height="32" viewBox="0 0 32 32" fill="none" xmlns="http://www.w3.org/2000/svg">
    <path d="M0 16C0 7.16344 7.16344 0 16 0C24.8366 0 32 7.16344 32 16C32 24.8366 24.8366 32 16 32C7.16344 32 0 24.8366 0 16Z" fill="url(#paint0_radial_10242_35237)"/>
    <path d="M16 4C22.6274 4 28 9.37258 28 16C28 22.6274 22.6274 28 16 28C9.37258 28 4 22.6274 4 16C4 9.37258 9.37258 4 16 4Z" stroke="url(#paint1_linear_10242_35237)" stroke-opacity="0.1" stroke-width="8" stroke-miterlimit="10"/>
    <path fill-rule="evenodd" clip-rule="evenodd" d="M22.7072 12.7072L14.0001 21.4143L9.29297 16.7072L10.7072 15.293L14.0001 18.5859L21.293 11.293L22.7072 12.7072Z" fill="white"/>
    <defs>
        <radialGradient id="paint0_radial_10242_35237" cx="0" cy="0" r="1" gradientUnits="userSpaceOnUse" gradientTransform="translate(16.0711) rotate(90) scale(48 47.013)">
            <stop stop-color="#872AB0"/>
            <stop offset="1" stop-color="#3918AC"/>
        </radialGradient>
        <linearGradient id="paint1_linear_10242_35237" x1="16" y1="0" x2="16" y2="32" gradientUnits="userSpaceOnUse">
            <stop stop-color="#E8BCFF"/>
            <stop offset="1" stop-color="#AE2173"/>
        </linearGradient>
    </defs>
</svg>
