<svg width="14" height="10" viewBox="0 0 14 10" fill="none" xmlns="http://www.w3.org/2000/svg">
    <path d="M11 3.5C11 3.77614 10.7761 4 10.5 4L6.49998 4C6.22384 4 5.99998 3.77614 5.99998 3.5L5.99998 2.5C5.99998 2.22386 6.22384 2 6.49998 2L10.5 2C10.7761 2 11 2.22386 11 2.5L11 3.5Z" fill="#852AAD"/>
    <path d="M13.8534 2.6931C14.0488 2.85222 14.0488 3.14778 13.8534 3.3069L10.6592 5.90832C10.3964 6.12233 9.99997 5.93777 9.99997 5.60142V0.398576C9.99997 0.0622331 10.3964 -0.122333 10.6592 0.0916768L13.8534 2.6931Z" fill="#852AAD"/>
    <path d="M2.99999 6.5C2.99999 6.22386 3.22385 6 3.49999 6H7.49999C7.77613 6 7.99999 6.22386 7.99999 6.5L7.99999 7.5C7.99999 7.77614 7.77613 8 7.49999 8L3.49999 8C3.22385 8 2.99999 7.77614 2.99999 7.5L2.99999 6.5Z" fill="#852AAD"/>
    <path d="M0.146536 7.3069C-0.0488452 7.14778 -0.0488452 6.85222 0.146536 6.6931L3.34076 4.09168C3.60354 3.87767 4 4.06223 4 4.39858L4 9.60142C4 9.93777 3.60354 10.1223 3.34076 9.90832L0.146536 7.3069Z" fill="#852AAD"/>
</svg>
