<svg width="17" height="16" viewBox="0 0 17 16" fill="none" xmlns="http://www.w3.org/2000/svg">
    <path d="M10.5 7.5L2 7.5L2 10.5H8.5" stroke="white"/>
    <path d="M3 12L3 15H9" stroke="white"/>
    <path d="M7 15L7 8" stroke="white"/>
    <path d="M6 5V5.5H6.5V5H6ZM6 5L6.5 4.99999V4.99997V4.99993V4.99987V4.9998V4.99971V4.99961V4.99949V4.99935V4.9992V4.99904V4.99885V4.99866V4.99844V4.99822V4.99797V4.99771V4.99744V4.99715V4.99684V4.99652V4.99619V4.99584V4.99547V4.9951V4.9947V4.99429V4.99387V4.99343V4.99297V4.99251V4.99202V4.99153V4.99101V4.99049V4.98995V4.98939V4.98882V4.98824V4.98764V4.98703V4.98641V4.98577V4.98511V4.98444V4.98376V4.98307V4.98236V4.98163V4.9809V4.98015V4.97938V4.97861V4.97782V4.97701V4.97619V4.97536V4.97452V4.97366V4.97279V4.97191V4.97101V4.9701V4.96918V4.96824V4.96729V4.96633V4.96536V4.96437V4.96337V4.96236V4.96134V4.9603V4.95925V4.95819V4.95711V4.95602V4.95492V4.95381V4.95269V4.95155V4.95041V4.94925V4.94807V4.94689V4.94569V4.94449V4.94327V4.94204V4.94079V4.93954V4.93827V4.937V4.93571V4.93441V4.93309V4.93177V4.93044V4.92909V4.92773V4.92637V4.92499V4.9236V4.9222V4.92078V4.91936V4.91793V4.91648V4.91503V4.91356V4.91208V4.9106V4.9091V4.90759V4.90607V4.90454V4.903V4.90145V4.89989V4.89832V4.89674V4.89515V4.89355V4.89194V4.89032V4.88869V4.88705V4.8854V4.88374V4.88207V4.88039V4.8787V4.877V4.87529V4.87358V4.87185V4.87011V4.86837V4.86661V4.86485V4.86308V4.8613V4.85951V4.8577V4.8559V4.85408V4.85225V4.85042V4.84857V4.84672V4.84486V4.84299V4.84111V4.83922V4.83732V4.83542V4.83351V4.83159V4.82966V4.82772V4.82577V4.82382V4.82186V4.81989V4.81791V4.81593V4.81393V4.81193V4.80992V4.8079V4.80588V4.80385V4.80181V4.79976V4.79771V4.79564V4.79358V4.7915V4.78941V4.78732V4.78522V4.78312V4.78101V4.77889V4.77676V4.77463V4.77249V4.77034V4.76819V4.76603V4.76386V4.76168V4.7595V4.75732V4.75512V4.75292V4.75072V4.74851V4.74629V4.74406V4.74183V4.73959V4.73735V4.7351V4.73284V4.73058V4.72832V4.72604V4.72376V4.72148V4.71919V4.71689V4.71459V4.71229V4.70997V4.70765V4.70533V4.703V4.70067V4.69833V4.69599V4.69364V4.69128V4.68892V4.68656V4.68419V4.68181V4.67944V4.67705V4.67466V4.67227V4.66987V4.66747V4.66506V4.66265V4.66024V4.65782V4.65539V4.65296V4.65053V4.64809V4.64565V4.6432V4.64075V4.6383V4.63584V4.63338V4.63092V4.62845V4.62597V4.6235V4.62102V4.61853V4.61605V4.61356V4.61106V4.60856V4.60606V4.60356V4.60105V4.59854V4.59603V4.59351V4.59099V4.58847V4.58594V4.58341V4.58088V4.57835V4.57581V4.57327V4.57073V4.56818V4.56564V4.56309V4.56053V4.55798V4.55542V4.55286V4.5503V4.54774V4.54517V4.5426V4.54003V4.53746V4.53489V4.53231V4.52973V4.52715V4.52457V4.52199V4.5194V4.51682V4.51423V4.51164V4.50905V4.50645V4.50386V4.50127V4.49867V4.49607V4.49347V4.49087V4.48827V4.48567V4.48307V4.48046V4.47786V4.47526V4.47265V4.47004V4.46743V4.46483V4.46222V4.45961V4.457V4.45439V4.45178V4.44917V4.44656V4.44395V4.44134V4.43872V4.43611V4.4335V4.43089V4.42828V4.42567V4.42306V4.42045V4.41783V4.41522V4.41262V4.41001V4.4074V4.40479V4.40218V4.39957V4.39697V4.39436V4.39176V4.38915V4.38655V4.38395V4.38135V4.37875V4.37615V4.37355V4.37095V4.36836V4.36576V4.36317V4.36058V4.35799V4.3554V4.35281V4.35023V4.34764V4.34506V4.34248V4.3399V4.33732V4.33475V4.33218V4.3296V4.32704V4.32447V4.3219V4.31934V4.31678V4.31422V4.31167V4.30911V4.30656V4.30401V4.30147V4.29892V4.29638V4.29384V4.29131V4.28878V4.28625V4.28372V4.2812V4.27867V4.27616V4.27364V4.27113V4.26862V4.26611V4.26361V4.26111V4.25862V4.25613V4.25364V4.25115V4.24867V4.24619V4.24372V4.24125V4.23878V4.23632V4.23386V4.2314V4.22895V4.2265V4.22406V4.22162V4.21919V4.21676V4.21433V4.21191V4.20949V4.20708V4.20467V4.20226V4.19986V4.19747V4.19508V4.19269V4.19031V4.18793V4.18556V4.1832V4.18083V4.17848V4.17613V4.17378V4.17144V4.1691V4.16677V4.16445V4.16213V4.15981V4.1575V4.1552V4.1529V4.15061V4.14832V4.14604V4.14376V4.14149V4.13923V4.13697V4.13472V4.13247V4.13023V4.128V4.12577V4.12355V4.12134V4.11913V4.11693V4.11473V4.11254V4.11036V4.10818V4.10601V4.10385V4.10169V4.09954V4.0974V4.09526V4.09313V4.09101V4.08889V4.08678V4.08468V4.08259V4.0805V4.07842V4.07635V4.07428V4.07223V4.07018V4.06813V4.0661V4.06407V4.06205V4.06004V4.05803V4.05604V4.05405V4.05207V4.05009V4.04813V4.04617V4.04422V4.04228V4.04035V4.03842V4.03651V4.0346V4.0327V4.03081V4.02893V4.02705V4.02519V4.02333V4.02148V4.01964V4.01781V4.01599V4.01418V4.01237V4.01058V4.00879V4.00702V4.00525V4.00349V4.00174V4C6.5 3.17157 5.82843 2.5 5 2.5C4.17157 2.5 3.5 3.17157 3.5 4C3.5 4.82843 4.17157 5.5 5 5.5H5.00151H5.00302H5.00455H5.00609H5.00764H5.0092H5.01078H5.01236H5.01395H5.01556H5.01717H5.0188H5.02043H5.02208H5.02374H5.0254H5.02708H5.02877H5.03047H5.03217H5.03389H5.03562H5.03736H5.03911H5.04086H5.04263H5.04441H5.04619H5.04799H5.0498H5.05161H5.05344H5.05527H5.05712H5.05897H5.06083H5.0627H5.06458H5.06647H5.06837H5.07028H5.0722H5.07412H5.07606H5.078H5.07995H5.08191H5.08388H5.08586H5.08784H5.08984H5.09184H5.09385H5.09587H5.0979H5.09993H5.10198H5.10403H5.10609H5.10815H5.11023H5.11231H5.1144H5.1165H5.11861H5.12072H5.12284H5.12497H5.12711H5.12925H5.1314H5.13356H5.13573H5.1379H5.14008H5.14227H5.14446H5.14666H5.14887H5.15108H5.1533H5.15553H5.15776H5.16001H5.16225H5.16451H5.16677H5.16903H5.17131H5.17359H5.17587H5.17816H5.18046H5.18277H5.18508H5.18739H5.18971H5.19204H5.19437H5.19671H5.19906H5.20141H5.20376H5.20612H5.20849H5.21086H5.21324H5.21562H5.21801H5.2204H5.2228H5.22521H5.22761H5.23003H5.23245H5.23487H5.2373H5.23973H5.24217H5.24461H5.24705H5.2495H5.25196H5.25442H5.25688H5.25935H5.26182H5.2643H5.26678H5.26927H5.27175H5.27425H5.27674H5.27924H5.28175H5.28426H5.28677H5.28928H5.2918H5.29432H5.29685H5.29938H5.30191H5.30445H5.30699H5.30953H5.31207H5.31462H5.31717H5.31973H5.32229H5.32485H5.32741H5.32997H5.33254H5.33511H5.33769H5.34026H5.34284H5.34542H5.34801H5.35059H5.35318H5.35577H5.35836H5.36096H5.36355H5.36615H5.36875H5.37135H5.37396H5.37656H5.37917H5.38178H5.38439H5.387H5.38962H5.39223H5.39485H5.39746H5.40008H5.4027H5.40532H5.40795H5.41057H5.41319H5.41582H5.41845H5.42107H5.4237H5.42633H5.42896H5.43159H5.43422H5.43685H5.43948H5.44211H5.44474H5.44737H5.45001H5.45264H5.45527H5.4579H5.46054H5.46317H5.4658H5.46843H5.47107H5.4737H5.47633H5.47896H5.48159H5.48422H5.48685H5.48948H5.49211H5.49473H5.49736H5.49999H5.50261H5.50523H5.50786H5.51048H5.5131H5.51572H5.51834H5.52095H5.52357H5.52618H5.5288H5.53141H5.53402H5.53663H5.53923H5.54184H5.54444H5.54704H5.54964H5.55224H5.55483H5.55743H5.56002H5.56261H5.56519H5.56778H5.57036H5.57294H5.57552H5.57809H5.58067H5.58324H5.5858H5.58837H5.59093H5.59349H5.59604H5.5986H5.60115H5.60369H5.60624H5.60878H5.61132H5.61385H5.61638H5.61891H5.62143H5.62395H5.62647H5.62899H5.6315H5.634H5.6365H5.639H5.6415H5.64399H5.64647H5.64896H5.65144H5.65391H5.65638H5.65885H5.66131H5.66377H5.66622H5.66867H5.67111H5.67355H5.67599H5.67842H5.68084H5.68326H5.68568H5.68809H5.6905H5.6929H5.69529H5.69768H5.70007H5.70245H5.70482H5.70719H5.70956H5.71192H5.71427H5.71662H5.71896H5.7213H5.72363H5.72595H5.72827H5.73058H5.73289H5.73519H5.73749H5.73977H5.74206H5.74433H5.7466H5.74887H5.75112H5.75338H5.75562H5.75786H5.76009H5.76231H5.76453H5.76674H5.76895H5.77114H5.77333H5.77552H5.77769H5.77986H5.78203H5.78418H5.78633H5.78847H5.7906H5.79273H5.79484H5.79695H5.79906H5.80115H5.80324H5.80532H5.80739H5.80945H5.81151H5.81356H5.8156H5.81763H5.81965H5.82167H5.82368H5.82567H5.82766H5.82965H5.83162H5.83358H5.83554H5.83749H5.83943H5.84136H5.84328H5.84519H5.84709H5.84899H5.85087H5.85275H5.85462H5.85648H5.85832H5.86016H5.86199H5.86381H5.86563H5.86743H5.86922H5.871H5.87277H5.87454H5.87629H5.87803H5.87977H5.88149H5.8832H5.88491H5.8866H5.88828H5.88995H5.89162H5.89327H5.89491H5.89654H5.89816H5.89977H5.90137H5.90296H5.90454H5.9061H5.90766H5.90921H5.91074H5.91226H5.91378H5.91528H5.91677H5.91825H5.91971H5.92117H5.92261H5.92405H5.92547H5.92688H5.92828H5.92966H5.93104H5.9324H5.93375H5.93509H5.93642H5.93773H5.93904H5.94033H5.94161H5.94287H5.94413H5.94537H5.9466H5.94782H5.94902H5.95021H5.95139H5.95256H5.95372H5.95486H5.95599H5.9571H5.9582H5.95929H5.96037H5.96143H5.96248H5.96352H5.96454H5.96556H5.96655H5.96754H5.96851H5.96946H5.97041H5.97134H5.97225H5.97315H5.97404H5.97491H5.97577H5.97662H5.97745H5.97827H5.97907H5.97986H5.98064H5.9814H5.98215H5.98288H5.9836H5.9843H5.98499H5.98566H5.98632H5.98697H5.9876H5.98821H5.98881H5.9894H5.98996H5.99052H5.99106H5.99158H5.99209H5.99259H5.99306H5.99353H5.99397H5.99441H5.99482H5.99522H5.99561H5.99598H5.99633H5.99667H5.99699H5.9973H5.99758H5.99786H5.99812H5.99836H5.99858H5.99879H5.99898H5.99916H5.99932H5.99946H5.99959H5.9997H5.99979H5.99986H5.99992H5.99997H5.99999L6 5Z" stroke="white"/>
    <path d="M8 5V5.5H7.5V5H8ZM8 5L7.5 4.99999V4.99997V4.99993V4.99987V4.9998V4.99971V4.99961V4.99949V4.99935V4.9992V4.99904V4.99885V4.99866V4.99844V4.99822V4.99797V4.99771V4.99744V4.99715V4.99684V4.99652V4.99619V4.99584V4.99547V4.9951V4.9947V4.99429V4.99387V4.99343V4.99297V4.99251V4.99202V4.99153V4.99101V4.99049V4.98995V4.98939V4.98882V4.98824V4.98764V4.98703V4.98641V4.98577V4.98511V4.98444V4.98376V4.98307V4.98236V4.98163V4.9809V4.98015V4.97938V4.97861V4.97782V4.97701V4.97619V4.97536V4.97452V4.97366V4.97279V4.97191V4.97101V4.9701V4.96918V4.96824V4.96729V4.96633V4.96536V4.96437V4.96337V4.96236V4.96134V4.9603V4.95925V4.95819V4.95711V4.95602V4.95492V4.95381V4.95269V4.95155V4.95041V4.94925V4.94807V4.94689V4.94569V4.94449V4.94327V4.94204V4.94079V4.93954V4.93827V4.937V4.93571V4.93441V4.93309V4.93177V4.93044V4.92909V4.92773V4.92637V4.92499V4.9236V4.9222V4.92078V4.91936V4.91793V4.91648V4.91503V4.91356V4.91208V4.9106V4.9091V4.90759V4.90607V4.90454V4.903V4.90145V4.89989V4.89832V4.89674V4.89515V4.89355V4.89194V4.89032V4.88869V4.88705V4.8854V4.88374V4.88207V4.88039V4.8787V4.877V4.87529V4.87358V4.87185V4.87011V4.86837V4.86661V4.86485V4.86308V4.8613V4.85951V4.8577V4.8559V4.85408V4.85225V4.85042V4.84857V4.84672V4.84486V4.84299V4.84111V4.83922V4.83732V4.83542V4.83351V4.83159V4.82966V4.82772V4.82577V4.82382V4.82186V4.81989V4.81791V4.81593V4.81393V4.81193V4.80992V4.8079V4.80588V4.80385V4.80181V4.79976V4.79771V4.79564V4.79358V4.7915V4.78941V4.78732V4.78522V4.78312V4.78101V4.77889V4.77676V4.77463V4.77249V4.77034V4.76819V4.76603V4.76386V4.76168V4.7595V4.75732V4.75512V4.75292V4.75072V4.74851V4.74629V4.74406V4.74183V4.73959V4.73735V4.7351V4.73284V4.73058V4.72832V4.72604V4.72376V4.72148V4.71919V4.71689V4.71459V4.71229V4.70997V4.70765V4.70533V4.703V4.70067V4.69833V4.69599V4.69364V4.69128V4.68892V4.68656V4.68419V4.68181V4.67944V4.67705V4.67466V4.67227V4.66987V4.66747V4.66506V4.66265V4.66024V4.65782V4.65539V4.65296V4.65053V4.64809V4.64565V4.6432V4.64075V4.6383V4.63584V4.63338V4.63092V4.62845V4.62597V4.6235V4.62102V4.61853V4.61605V4.61356V4.61106V4.60856V4.60606V4.60356V4.60105V4.59854V4.59603V4.59351V4.59099V4.58847V4.58594V4.58341V4.58088V4.57835V4.57581V4.57327V4.57073V4.56818V4.56564V4.56309V4.56053V4.55798V4.55542V4.55286V4.5503V4.54774V4.54517V4.5426V4.54003V4.53746V4.53489V4.53231V4.52973V4.52715V4.52457V4.52199V4.5194V4.51682V4.51423V4.51164V4.50905V4.50645V4.50386V4.50127V4.49867V4.49607V4.49347V4.49087V4.48827V4.48567V4.48307V4.48046V4.47786V4.47526V4.47265V4.47004V4.46743V4.46483V4.46222V4.45961V4.457V4.45439V4.45178V4.44917V4.44656V4.44395V4.44134V4.43872V4.43611V4.4335V4.43089V4.42828V4.42567V4.42306V4.42045V4.41783V4.41522V4.41262V4.41001V4.4074V4.40479V4.40218V4.39957V4.39697V4.39436V4.39176V4.38915V4.38655V4.38395V4.38135V4.37875V4.37615V4.37355V4.37095V4.36836V4.36576V4.36317V4.36058V4.35799V4.3554V4.35281V4.35023V4.34764V4.34506V4.34248V4.3399V4.33732V4.33475V4.33218V4.3296V4.32704V4.32447V4.3219V4.31934V4.31678V4.31422V4.31167V4.30911V4.30656V4.30401V4.30147V4.29892V4.29638V4.29384V4.29131V4.28878V4.28625V4.28372V4.2812V4.27867V4.27616V4.27364V4.27113V4.26862V4.26611V4.26361V4.26111V4.25862V4.25613V4.25364V4.25115V4.24867V4.24619V4.24372V4.24125V4.23878V4.23632V4.23386V4.2314V4.22895V4.2265V4.22406V4.22162V4.21919V4.21676V4.21433V4.21191V4.20949V4.20708V4.20467V4.20226V4.19986V4.19747V4.19508V4.19269V4.19031V4.18793V4.18556V4.1832V4.18083V4.17848V4.17613V4.17378V4.17144V4.1691V4.16677V4.16445V4.16213V4.15981V4.1575V4.1552V4.1529V4.15061V4.14832V4.14604V4.14376V4.14149V4.13923V4.13697V4.13472V4.13247V4.13023V4.128V4.12577V4.12355V4.12134V4.11913V4.11693V4.11473V4.11254V4.11036V4.10818V4.10601V4.10385V4.10169V4.09954V4.0974V4.09526V4.09313V4.09101V4.08889V4.08678V4.08468V4.08259V4.0805V4.07842V4.07635V4.07428V4.07223V4.07018V4.06813V4.0661V4.06407V4.06205V4.06004V4.05803V4.05604V4.05405V4.05207V4.05009V4.04813V4.04617V4.04422V4.04228V4.04035V4.03842V4.03651V4.0346V4.0327V4.03081V4.02893V4.02705V4.02519V4.02333V4.02148V4.01964V4.01781V4.01599V4.01418V4.01237V4.01058V4.00879V4.00702V4.00525V4.00349V4.00174V4C7.5 3.17157 8.17157 2.5 9 2.5C9.82843 2.5 10.5 3.17157 10.5 4C10.5 4.82843 9.82843 5.5 9 5.5H8.99849H8.99698H8.99545H8.99391H8.99236H8.9908H8.98922H8.98764H8.98605H8.98444H8.98283H8.9812H8.97957H8.97792H8.97626H8.9746H8.97292H8.97123H8.96953H8.96783H8.96611H8.96438H8.96264H8.96089H8.95914H8.95737H8.95559H8.95381H8.95201H8.9502H8.94839H8.94656H8.94473H8.94288H8.94103H8.93917H8.9373H8.93542H8.93353H8.93163H8.92972H8.9278H8.92588H8.92394H8.922H8.92005H8.91809H8.91612H8.91414H8.91216H8.91016H8.90816H8.90615H8.90413H8.9021H8.90007H8.89802H8.89597H8.89391H8.89185H8.88977H8.88769H8.8856H8.8835H8.88139H8.87928H8.87716H8.87503H8.87289H8.87075H8.8686H8.86644H8.86427H8.8621H8.85992H8.85773H8.85554H8.85334H8.85113H8.84892H8.8467H8.84447H8.84224H8.83999H8.83775H8.83549H8.83323H8.83097H8.82869H8.82641H8.82413H8.82184H8.81954H8.81723H8.81492H8.81261H8.81029H8.80796H8.80563H8.80329H8.80094H8.79859H8.79624H8.79388H8.79151H8.78914H8.78676H8.78438H8.78199H8.7796H8.7772H8.77479H8.77239H8.76997H8.76755H8.76513H8.7627H8.76027H8.75783H8.75539H8.75295H8.7505H8.74804H8.74558H8.74312H8.74065H8.73818H8.7357H8.73322H8.73073H8.72825H8.72575H8.72326H8.72076H8.71825H8.71574H8.71323H8.71072H8.7082H8.70568H8.70315H8.70062H8.69809H8.69555H8.69301H8.69047H8.68793H8.68538H8.68283H8.68027H8.67771H8.67515H8.67259H8.67003H8.66746H8.66489H8.66231H8.65974H8.65716H8.65458H8.65199H8.64941H8.64682H8.64423H8.64164H8.63904H8.63645H8.63385H8.63125H8.62865H8.62604H8.62344H8.62083H8.61822H8.61561H8.613H8.61038H8.60777H8.60515H8.60254H8.59992H8.5973H8.59468H8.59205H8.58943H8.58681H8.58418H8.58155H8.57893H8.5763H8.57367H8.57104H8.56841H8.56578H8.56315H8.56052H8.55789H8.55526H8.55263H8.54999H8.54736H8.54473H8.5421H8.53946H8.53683H8.5342H8.53157H8.52893H8.5263H8.52367H8.52104H8.51841H8.51578H8.51315H8.51052H8.50789H8.50527H8.50264H8.50001H8.49739H8.49477H8.49214H8.48952H8.4869H8.48428H8.48166H8.47905H8.47643H8.47382H8.4712H8.46859H8.46598H8.46337H8.46077H8.45816H8.45556H8.45296H8.45036H8.44776H8.44517H8.44257H8.43998H8.43739H8.43481H8.43222H8.42964H8.42706H8.42448H8.42191H8.41933H8.41676H8.4142H8.41163H8.40907H8.40651H8.40396H8.4014H8.39885H8.39631H8.39376H8.39122H8.38868H8.38615H8.38362H8.38109H8.37857H8.37605H8.37353H8.37101H8.3685H8.366H8.3635H8.361H8.3585H8.35601H8.35353H8.35104H8.34856H8.34609H8.34362H8.34115H8.33869H8.33623H8.33378H8.33133H8.32889H8.32645H8.32401H8.32158H8.31916H8.31674H8.31432H8.31191H8.3095H8.3071H8.30471H8.30232H8.29993H8.29755H8.29518H8.29281H8.29044H8.28808H8.28573H8.28338H8.28104H8.2787H8.27637H8.27405H8.27173H8.26942H8.26711H8.26481H8.26251H8.26023H8.25794H8.25567H8.2534H8.25113H8.24888H8.24662H8.24438H8.24214H8.23991H8.23769H8.23547H8.23326H8.23105H8.22886H8.22667H8.22448H8.22231H8.22014H8.21797H8.21582H8.21367H8.21153H8.2094H8.20727H8.20516H8.20305H8.20094H8.19885H8.19676H8.19468H8.19261H8.19055H8.18849H8.18644H8.1844H8.18237H8.18035H8.17833H8.17632H8.17433H8.17234H8.17035H8.16838H8.16642H8.16446H8.16251H8.16057H8.15864H8.15672H8.15481H8.15291H8.15101H8.14913H8.14725H8.14538H8.14352H8.14168H8.13984H8.13801H8.13619H8.13437H8.13257H8.13078H8.129H8.12723H8.12546H8.12371H8.12197H8.12023H8.11851H8.1168H8.11509H8.1134H8.11172H8.11005H8.10838H8.10673H8.10509H8.10346H8.10184H8.10023H8.09863H8.09704H8.09546H8.0939H8.09234H8.09079H8.08926H8.08774H8.08622H8.08472H8.08323H8.08175H8.08029H8.07883H8.07739H8.07595H8.07453H8.07312H8.07172H8.07034H8.06896H8.0676H8.06625H8.06491H8.06358H8.06227H8.06096H8.05967H8.05839H8.05713H8.05587H8.05463H8.0534H8.05218H8.05098H8.04979H8.04861H8.04744H8.04628H8.04514H8.04401H8.0429H8.0418H8.04071H8.03963H8.03857H8.03752H8.03648H8.03546H8.03444H8.03345H8.03246H8.03149H8.03054H8.02959H8.02866H8.02775H8.02685H8.02596H8.02509H8.02423H8.02338H8.02255H8.02173H8.02093H8.02014H8.01936H8.0186H8.01785H8.01712H8.0164H8.0157H8.01501H8.01434H8.01368H8.01303H8.0124H8.01179H8.01119H8.0106H8.01004H8.00948H8.00894H8.00842H8.00791H8.00741H8.00694H8.00647H8.00603H8.00559H8.00518H8.00478H8.00439H8.00402H8.00367H8.00333H8.00301H8.0027H8.00242H8.00214H8.00188H8.00164H8.00142H8.00121H8.00102H8.00084H8.00068H8.00054H8.00041H8.0003H8.00021H8.00014H8.00008H8.00003H8.00001L8 5Z" stroke="white"/>
    <path d="M15.3333 12.5033L12.6667 15.1699L10 12.5033" stroke="white" stroke-linecap="square"/>
    <path d="M12.666 14.834L12.666 8.00067" stroke="white"/>
</svg>
