<svg width="80" height="80" viewBox="0 0 80 80" fill="none" xmlns="http://www.w3.org/2000/svg">
<path d="M39.9997 66.1437C54.7273 66.1437 66.6663 54.3217 66.6663 39.7385C66.6663 25.1553 54.7273 13.3333 39.9997 13.3333C25.2721 13.3333 13.333 25.1553 13.333 39.7385" stroke="#23024D"/>
<path d="M39.9997 66.1437C25.2721 66.1437 13.333 54.2046 13.333 39.4771" stroke="#23024D" stroke-dasharray="4 3"/>
<path d="M40.0002 20.8001C29.3963 20.8001 20.8002 29.3119 20.8002 39.8118C20.8002 50.3118 29.3963 58.8236 40.0002 58.8236C50.6041 58.8236 59.2002 50.3118 59.2002 39.8118" stroke="#23024D"/>
<path d="M40.0002 20.8C50.6041 20.8 59.2002 29.3961 59.2002 40" stroke="#23024D" stroke-dasharray="4 3"/>
<path opacity="0.3" d="M39.6479 74.0289V65.5217M39.6479 65.5217L32.3008 72.8689M39.6479 65.5217L46.9951 72.8689M39.6479 65.5217V40.1934" stroke="#5F0E8E" stroke-width="3"/>
<path opacity="0.3" d="M39.648 5.97106L39.648 14.4783M39.648 14.4783L46.9951 7.13114M39.648 14.4783L32.3008 7.13114M39.648 14.4783L39.648 39.8066" stroke="#5F0E8E" stroke-width="3"/>
<path opacity="0.3" d="M10.4527 23.1613L17.8201 27.415M17.8201 27.415L15.1309 17.3786M17.8201 27.415L7.78374 30.1042M17.8201 27.415L39.7551 40.0791" stroke="#5F0E8E" stroke-width="3"/>
<path opacity="0.3" d="M69.393 57.1903L62.0256 52.9367M62.0256 52.9367L64.7148 62.9731M62.0256 52.9367L72.062 50.2475M62.0256 52.9367L40.0906 40.2726" stroke="#5F0E8E" stroke-width="3"/>
<path opacity="0.3" d="M69.3935 23.1613L62.0261 27.4149M62.0261 27.4149L72.0625 30.1041M62.0261 27.4149L64.7153 17.3785M62.0261 27.4149L40.0911 40.0791" stroke="#5F0E8E" stroke-width="3"/>
<path opacity="0.3" d="M10.4531 57.1905L17.8206 52.9369M17.8206 52.9369L7.78421 50.2477M17.8206 52.9369L15.1314 62.9733M17.8206 52.9369L39.7556 40.2727" stroke="#5F0E8E" stroke-width="3"/>
<path d="M39.7334 33.366L41.1792 38.6673L46.4805 40.1131L41.1792 41.5589L39.7334 46.8602L38.2876 41.5589L32.9863 40.1131L38.2876 38.6673L39.7334 33.366Z" fill="#8620B9"/>
<path d="M42.0928 42.4751L43.2173 43.5996" stroke="#8620B9" stroke-width="0.5" stroke-linejoin="round"/>
<path d="M43.4053 43.7864L43.7801 44.1612" stroke="#8620B9" stroke-width="0.5" stroke-linejoin="round"/>
<path d="M43.9678 44.3485L44.3426 44.7234" stroke="#8620B9" stroke-width="0.5" stroke-linejoin="round"/>
<path d="M37.2588 37.639L36.1343 36.5145" stroke="#8620B9" stroke-width="0.5" stroke-linejoin="round"/>
<path d="M35.9473 36.3271L35.5724 35.9523" stroke="#8620B9" stroke-width="0.5" stroke-linejoin="round"/>
<path d="M35.3848 35.7649L35.0099 35.3901" stroke="#8620B9" stroke-width="0.5" stroke-linejoin="round"/>
<path d="M42.207 37.639L43.3316 36.5145" stroke="#8620B9" stroke-width="0.5" stroke-linejoin="round"/>
<path d="M43.5186 36.327L43.8934 35.9522" stroke="#8620B9" stroke-width="0.5" stroke-linejoin="round"/>
<path d="M44.082 35.7648L44.4569 35.3899" stroke="#8620B9" stroke-width="0.5" stroke-linejoin="round"/>
<path d="M37.3721 42.4746L36.2475 43.5991" stroke="#8620B9" stroke-width="0.5" stroke-linejoin="round"/>
<path d="M36.0596 43.7864L35.6847 44.1612" stroke="#8620B9" stroke-width="0.5" stroke-linejoin="round"/>
<path d="M35.4971 44.3486L35.1222 44.7235" stroke="#8620B9" stroke-width="0.5" stroke-linejoin="round"/>
</svg>
