<svg width="104" height="28" viewBox="0 0 104 28" fill="none" xmlns="http://www.w3.org/2000/svg">
    <path d="M31.3863 21.2763V1.31656H32.7752V19.9598H42.2859V21.2763H31.3863ZM49.1544 21.5526C47.0005 21.5526 45.3349 20.8591 44.0871 19.5426C42.9098 18.226 42.2804 16.3568 42.2804 13.9296C42.2804 11.5728 42.8338 9.63313 44.0166 8.24613C45.1939 6.7887 46.7238 6.0952 48.7366 6.0952C50.4728 6.0952 51.8617 6.71827 52.9033 7.89938C53.945 9.14551 54.4279 10.8088 54.4279 12.8893V14H43.6693C43.6693 16.0101 44.1576 17.6029 45.1288 18.6432C46.0294 19.7539 47.4183 20.2361 49.1544 20.2361C49.9845 20.2361 50.7495 20.1656 51.3734 20.0302C51.9973 19.8893 52.8328 19.6834 53.804 19.2663V20.5828C52.9739 20.9296 52.2089 21.2059 51.5144 21.3468C50.7386 21.4876 49.9465 21.5581 49.1544 21.5526ZM48.7366 7.34675C47.2772 7.34675 46.1704 7.83437 45.2644 8.73375C44.4343 9.70356 43.8755 11.0201 43.7399 12.8243H52.9033C52.9033 11.0906 52.5561 9.77399 51.7911 8.80418C51.0967 7.82895 50.055 7.34675 48.7366 7.34675ZM61.6491 6.16564C62.6907 6.16564 63.6619 6.37152 64.4268 6.71827C65.1918 7.13545 65.8863 7.75851 66.5102 8.72833H66.5807C66.5102 7.55263 66.5102 6.44195 66.5102 5.33127V0H67.8286V21.2763H66.928L66.5807 18.9899C65.4685 20.6533 63.8029 21.5526 61.7196 21.5526C59.6362 21.5526 58.1117 20.9296 56.9995 19.613C55.8873 18.3669 55.4044 16.4923 55.4044 14.0704C55.4044 11.5077 55.9578 9.56269 56.9995 8.18112C58.0412 6.79412 59.6362 6.16564 61.6491 6.16564ZM61.6491 7.34675C60.054 7.34675 58.8062 7.89938 57.9706 9.0805C57.1406 10.1912 56.7228 11.8545 56.7228 14.0704C56.7228 18.2964 58.3884 20.3769 61.6491 20.3769C63.3146 20.3769 64.5625 19.8893 65.3275 18.9195C66.0924 17.9497 66.5048 16.3568 66.5048 14.065V13.8591C66.5048 11.5728 66.087 9.90944 65.3275 8.93963C64.633 7.82895 63.3852 7.34675 61.6491 7.34675ZM82.2601 6.44737V7.41718L79.2056 7.62307C80.0357 8.66331 80.4534 9.774 80.4534 10.9497C80.4534 12.4071 79.9651 13.5124 78.994 14.4172C78.0229 15.3166 76.775 15.7337 75.1745 15.7337C74.4801 15.7337 73.9972 15.7337 73.7856 15.6633C73.2322 15.9396 72.8145 16.2864 72.5378 16.6331C72.2611 17.0503 72.12 17.3971 72.12 17.8793C72.12 18.3615 72.3262 18.7082 72.6734 18.9195C73.0207 19.1254 73.6446 19.2663 74.4801 19.2663H77.0463C78.6414 19.2663 79.8892 19.613 80.7247 20.2361C81.5602 20.8591 82.0431 21.829 82.0431 23.1455C82.0431 24.7384 81.4192 25.9195 80.1713 26.7485C78.9235 27.5774 77.1168 27.9946 74.7568 27.9946C72.885 27.9946 71.4256 27.6478 70.3839 26.8839C69.3422 26.1904 68.8594 25.1502 68.8594 23.904C68.8594 22.8638 69.2066 22.0348 69.8305 21.3413C70.4545 20.6478 71.3551 20.2307 72.3967 19.9543C71.979 19.7485 71.5667 19.4667 71.3551 19.1254C71.0838 18.7895 70.9373 18.3777 70.9373 17.9497C70.9373 16.9799 71.5612 16.0805 72.8091 15.3166C71.979 14.9698 71.2845 14.4172 70.7962 13.6533C70.308 12.8893 70.1018 11.9899 70.1018 11.0201C70.1018 9.56269 70.5901 8.31656 71.4907 7.41718C72.4618 6.5178 73.7097 6.10062 75.3102 6.10062C76.2813 6.10062 77.0463 6.17105 77.5997 6.37694H82.2492V6.44737H82.2601ZM70.1832 23.774C70.1832 25.7841 71.7077 26.8243 74.7622 26.8243C78.6468 26.8243 80.5945 25.5782 80.5945 23.0805C80.5945 22.1811 80.3178 21.5581 79.6939 21.1409C79.07 20.7237 78.0988 20.5178 76.7099 20.5178H74.2794C71.5721 20.5828 70.1832 21.6231 70.1832 23.774ZM71.3659 11.0201C71.3659 12.1958 71.7131 13.0302 72.4076 13.7237C73.102 14.3468 74.0027 14.6935 75.1854 14.6935C76.4332 14.6935 77.4044 14.3468 78.0283 13.7237C78.7227 13.1006 78.9994 12.2012 78.9994 11.0201C78.9994 9.77399 78.6522 8.80418 77.9578 8.18112C77.2633 7.55805 76.3627 7.2113 75.1149 7.2113C73.9375 7.2113 72.961 7.55805 72.3371 8.25155C71.6426 8.8692 71.3659 9.83901 71.3659 11.0201Z" fill="#333745"/>
    <path d="M88.993 21.5527C86.8391 21.5527 85.1735 20.8592 83.9257 19.5426C82.7484 18.226 82.119 16.3568 82.119 13.9296C82.119 11.5728 82.6724 9.63315 83.8552 8.24615C85.0325 6.78872 86.5624 6.09522 88.5752 6.09522C90.3114 6.09522 91.7003 6.71828 92.7419 7.8994C93.7836 9.14553 94.2665 10.8088 94.2665 12.8893V14H83.5785C83.5785 16.0101 84.0667 17.603 85.0379 18.6432C85.9385 19.7539 87.3274 20.2361 89.0635 20.2361C89.8936 20.2361 90.6586 20.1657 91.2825 20.0302C91.9064 19.8893 92.7419 19.6835 93.7131 19.2663V20.5828C92.883 20.9296 92.118 21.2059 91.4236 21.3468C90.6586 21.4876 89.8936 21.5527 88.993 21.5527ZM88.6458 7.34677C87.1863 7.34677 86.0796 7.83438 85.1735 8.73376C84.3434 9.70358 83.7846 11.0201 83.649 12.8243H92.8125C92.8125 11.0906 92.4652 9.77401 91.7003 8.8042C91.0058 7.82896 89.9641 7.34677 88.6458 7.34677ZM101.971 6.16565C102.594 6.16565 103.289 6.23608 103.983 6.37153L103.707 7.6881C103.066 7.54723 102.415 7.4768 101.764 7.48222C100.517 7.48222 99.4748 8.03485 98.6393 9.0751C97.8092 10.1858 97.3915 11.5023 97.3915 13.1657V21.2763H96.0026V6.44738H97.1799L97.321 9.15095H97.3915C98.0154 8.04027 98.6393 7.28175 99.3338 6.86457C100.169 6.37695 100.999 6.16565 101.971 6.16565ZM18.132 0.693512H8.20357V14H21.5283V4.15559C21.5337 2.28639 20.0038 0.693512 18.132 0.693512ZM5.1545 0.693512H3.48891C1.61715 0.693512 0.0166626 2.21596 0.0166626 4.16101V5.82432H5.1545V0.693512ZM0.0166626 8.93965H5.1545V14.0705H0.0166626V8.93965ZM16.3959 22.2462H18.0615C19.9333 22.2462 21.5337 20.7237 21.5337 18.7787V17.1208H16.3959V22.2462ZM8.20357 17.1208H13.3414V22.2516H8.20357V17.1208ZM0.0166626 17.1208V18.7841C0.0166626 20.6533 1.5412 22.2516 3.48891 22.2516H5.1545V17.1208H0.0166626Z" fill="#333745"/>
</svg>
