<svg width="45" height="45" viewBox="0 0 45 45" fill="none" xmlns="http://www.w3.org/2000/svg">
    <rect width="45" height="45" rx="12" fill="url(#paint0_linear_6803_6942)"/>
    <path d="M23.0942 34.04C17.3013 34.04 13.2546 30.4859 13.2546 25.3965C13.2546 20.5799 18.7555 12.6578 24.9673 11C23.5589 12.4051 21.624 14.5233 20.5448 16.8357C19.0145 20.1138 18.8698 25.118 19.0035 25.7059L19.2193 26.6549L20.1377 26.3005C21.1288 25.9177 22.0853 25.3657 22.9799 24.6594C23.3134 24.395 23.641 24.1074 23.9525 23.8046C24.1658 23.597 24.3723 23.3818 24.5721 23.1608C26.5417 20.9752 27.8037 18.1458 28.0076 15.6007C30.8118 17.4728 32.9346 21.5589 32.9346 25.3965C32.9346 30.4859 28.8879 34.04 23.0942 34.04Z" fill="white"/>
    <defs>
        <linearGradient id="paint0_linear_6803_6942" x1="22.5" y1="0" x2="22.5" y2="45" gradientUnits="userSpaceOnUse">
            <stop stop-color="#5CB3CB"/>
            <stop offset="1" stop-color="#4594AF"/>
        </linearGradient>
    </defs>
</svg>
