<svg width="127" height="31" viewBox="0 0 127 31" fill="none" xmlns="http://www.w3.org/2000/svg">
    <path d="M15.942 16.7747L14.2412 20.424H0.873993L2.57418 16.7747L6.9713 7.35005H4.27437L11.9258 0.636932L13.5822 7.35005H10.8701L6.6932 16.7747H15.942Z" fill="#0E41F5"/>
    <path d="M11.442 13.9013L13.1422 10.2521H26.5095L24.8093 13.9013L20.4122 23.326H23.1091L15.4582 30.0391L13.8019 23.326H16.5134L20.6908 13.9013H11.442Z" fill="#0E41F5"/>
    <path d="M32.4455 20.424V9.38678H34.9081V18.2254H39.6132V20.424H32.4455ZM46.546 16.5106V11.9376H48.9356V20.4234H46.546V19.3092C45.96 20.1447 45.1975 20.5554 44.2598 20.5554C43.3215 20.5554 42.5444 20.2622 41.9146 19.6756C41.2836 19.0895 40.9616 18.2248 40.9616 17.0815V11.9376H43.3512V16.5691C43.3512 17.8737 43.8344 18.5333 44.7874 18.5333C45.2559 18.5333 45.6667 18.3575 46.0184 18.0204C46.3701 17.6534 46.546 17.1557 46.546 16.5106V16.5106ZM58.9755 15.851V20.424H56.5859V15.7774C56.5859 15.1032 56.4836 14.6048 56.2785 14.2975C56.0735 13.9896 55.7363 13.8283 55.2818 13.8283C54.8272 13.8283 54.4171 14.0036 54.0654 14.3413C53.7136 14.6784 53.5378 15.1914 53.5378 15.851V20.424H51.1634V11.9376H53.5372V12.904C54.1968 12.1714 54.9295 11.805 55.7796 11.805C56.3054 11.803 56.8185 11.9672 57.2455 12.2742C57.6848 12.5961 58.0073 12.9776 58.227 13.4316C58.5495 12.9186 58.9895 12.5231 59.5463 12.2298C60.1037 11.9371 60.6605 11.805 61.2173 11.805C62.214 11.805 63.0203 12.0977 63.6361 12.6989C64.2513 13.3001 64.5446 14.1502 64.5446 15.2784V20.438H62.155V15.7768C62.155 14.4727 61.6718 13.8131 60.7189 13.8131C60.2503 13.8131 59.8396 13.9884 59.4879 14.3261C59.1361 14.6778 58.9749 15.1762 58.9749 15.8504L58.9755 15.851ZM74.0435 19.193C73.0905 20.1015 71.9618 20.556 70.6723 20.556C69.3823 20.556 68.3119 20.1599 67.4764 19.3688C66.6409 18.5772 66.2162 17.5074 66.2162 16.1729C66.2162 14.8397 66.6415 13.7693 67.5062 12.9782C68.3709 12.1865 69.3817 11.791 70.5403 11.791C71.6983 11.791 72.695 12.1427 73.5153 12.8462C74.3362 13.5496 74.7323 14.5171 74.7323 15.7482V17.009H68.5468C68.6198 17.4776 68.8693 17.8445 69.2794 18.1518C69.6851 18.4428 70.173 18.597 70.6723 18.5918C71.5078 18.5918 72.1814 18.3131 72.7242 17.7563L74.0435 19.193ZM71.7713 14.1508C71.4488 13.8721 71.0527 13.7401 70.5841 13.7401C70.1149 13.7401 69.6902 13.8867 69.294 14.1654C68.8985 14.4435 68.6788 14.8397 68.6198 15.3234H72.3427C72.2843 14.825 72.0938 14.4295 71.7713 14.1508V14.1508ZM78.8215 15.6898V20.424H76.4471V11.9376H78.8215V12.89C79.5402 12.1573 80.3458 11.8056 81.2403 11.8056C82.1343 11.8056 82.8821 12.1281 83.4827 12.7579C84.0833 13.3889 84.3912 14.2385 84.3912 15.279V20.4386H82.0168V15.6307C82.0168 14.3267 81.5331 13.6671 80.5801 13.6671C80.1116 13.6671 79.7008 13.8423 79.3345 14.18C78.9974 14.5171 78.8215 15.0301 78.8215 15.6898ZM92.922 17.7855C92.922 18.621 92.6141 19.2952 91.9989 19.7936C91.3831 20.2919 90.606 20.556 89.6531 20.556C89.0232 20.556 88.3636 20.4386 87.6748 20.2189C87.0022 20.0052 86.3757 19.6671 85.8279 19.2222L86.8679 17.7417C87.7478 18.4311 88.7007 18.7676 89.6975 18.7676C90.0048 18.7676 90.2397 18.7092 90.4301 18.5923C90.606 18.4743 90.6942 18.3131 90.6942 18.108C90.6942 17.9029 90.5768 17.7271 90.3273 17.5512C90.0784 17.3899 89.7267 17.2287 89.2575 17.082C88.8955 16.9708 88.5386 16.8437 88.1878 16.7011C87.9383 16.5983 87.6596 16.437 87.3377 16.2465C86.6926 15.851 86.3701 15.2498 86.3701 14.4733C86.3701 13.6963 86.6926 13.0512 87.3225 12.5529C87.9535 12.0545 88.7738 11.805 89.7705 11.805C90.7673 11.805 91.764 12.1427 92.7753 12.817L91.896 14.4003C91.1628 13.9013 90.4295 13.6378 89.6975 13.6378C88.9642 13.6378 88.5979 13.8423 88.5979 14.2385C88.5979 14.4581 88.7148 14.6346 88.9496 14.766C89.1845 14.8981 89.5654 15.0447 90.1076 15.206C90.6498 15.3672 91.0307 15.4993 91.251 15.5869C91.4707 15.6746 91.7494 15.8218 92.0573 16.0123C92.6287 16.3494 92.922 16.95 92.922 17.7855V17.7855ZM99.1659 20.424H96.7179L93.8305 11.9376H96.2786L97.9349 17.0674L99.5907 11.9376H101.877L103.534 17.0674L105.19 11.9376H107.652L104.765 20.424H102.303L100.734 15.792L99.1659 20.424ZM116.11 20.4234H113.882V19.398C113.266 20.1599 112.519 20.556 111.61 20.556C110.701 20.556 109.954 20.2919 109.338 19.779C108.723 19.2514 108.429 18.5625 108.429 17.6978C108.429 16.8331 108.752 16.1729 109.382 15.7482C110.013 15.3234 110.877 15.1032 111.976 15.1032H113.75V15.0447C113.75 14.1362 113.266 13.6817 112.313 13.6817C111.903 13.6817 111.463 13.7693 111.009 13.9306C110.555 14.0918 110.159 14.2975 109.851 14.5318L108.796 13.0068C109.91 12.2011 111.185 11.791 112.621 11.791C113.647 11.791 114.497 12.0545 115.142 12.5681C115.802 13.0805 116.124 13.9013 116.124 15.0155V20.424H116.11V20.4234ZM113.72 17.1849V16.7741H112.24C111.288 16.7741 110.818 17.0674 110.818 17.6534C110.818 17.9613 110.935 18.1962 111.156 18.3575C111.375 18.5187 111.712 18.6064 112.123 18.6064C112.548 18.6064 112.915 18.4743 113.237 18.2254C113.559 17.9613 113.72 17.6242 113.72 17.1849V17.1849ZM123.204 11.791C124.186 11.791 125.08 12.2011 125.842 13.0366C126.619 13.8575 127 14.8981 127 16.1589C127 17.4045 126.619 18.4597 125.842 19.2952C125.065 20.1307 124.156 20.556 123.131 20.556C122.09 20.556 121.254 20.1453 120.625 19.3098V23.4873H118.25V11.9376H120.624V12.89C121.357 12.1573 122.222 11.791 123.204 11.791V11.791ZM120.61 16.1875C120.61 16.8764 120.8 17.4332 121.181 17.8731C121.562 18.3125 122.031 18.5327 122.574 18.5327C123.116 18.5327 123.6 18.3125 124.01 17.8725C124.42 17.4332 124.626 16.8764 124.626 16.1875C124.626 15.4981 124.42 14.9267 124.025 14.4727C123.629 14.0036 123.145 13.7833 122.588 13.7833C122.031 13.7833 121.562 14.0182 121.181 14.4727C120.8 14.9267 120.609 15.4987 120.609 16.1875H120.61Z" fill="#232323"/>
</svg>
