<svg width="19" height="11" viewBox="0 0 19 11" fill="none" xmlns="http://www.w3.org/2000/svg">
    <path fill-rule="evenodd" clip-rule="evenodd" d="M10.6226 5.31132C10.6226 8.24468 8.24468 10.6226 5.31132 10.6226C2.37796 10.6226 0 8.24468 0 5.31132C0 2.37796 2.37796 0 5.31132 0C8.24468 0 10.6226 2.37796 10.6226 5.31132ZM16.2886 5.31219C16.2886 8.0174 15.126 10.2104 13.6919 10.2104C12.2578 10.2104 11.0953 8.0174 11.0953 5.31219C11.0953 2.60698 12.2578 0.413971 13.6919 0.413971C15.126 0.413971 16.2886 2.60698 16.2886 5.31219ZM17.8817 9.73836C18.3706 9.73836 18.767 7.75672 18.767 5.31226C18.767 2.86779 18.3706 0.886156 17.8817 0.886156C17.3928 0.886156 16.9965 2.86779 16.9965 5.31226C16.9965 7.75672 17.3928 9.73836 17.8817 9.73836Z" fill="#23024D"/>
</svg>