<svg width="100%" height="100%" viewBox="0 0 1755 423" fill="none" xmlns="http://www.w3.org/2000/svg">
    <mask id="mask0_5400_56528" style="mask-type:alpha" maskUnits="userSpaceOnUse" x="0" y="0" width="1755" height="423">
        <rect width="1755" height="423" fill="#5C1283"/>
    </mask>
    <g mask="url(#mask0_5400_56528)">
        <path opacity="0.2" d="M2745.91 -765.608C3071.41 -618.999 2846.18 -74.8542 2837.59 112.953C2837.46 115.713 2837 118.325 2836.15 120.955C2707.49 519.585 2267.88 570.887 1918.17 590.259C1567.29 609.696 1453.15 381.967 1435.46 135.521C1409.4 -227.613 1095.15 -111.005 1052.78 -360.254C1052.15 -363.988 1052.26 -367.828 1053.12 -371.516C1139.94 -742.459 1348.21 -1495.88 1497.47 -1585.27C1684.97 -1697.56 1816.61 -1652.22 1938.63 -1643.7C2060.65 -1635.19 2271.36 -1301.52 2331.59 -1099.99C2391.82 -898.46 2418.08 -913.265 2745.91 -765.608Z" fill="#2F0036"/>
        <path opacity="0.2" d="M213.908 148.392C539.406 295.001 314.179 839.146 305.586 1026.95C305.46 1029.71 304.998 1032.33 304.149 1034.95C175.494 1433.58 -264.121 1484.89 -613.826 1504.26C-964.706 1523.7 -1078.85 1295.97 -1096.54 1049.52C-1122.6 686.387 -1436.85 802.995 -1479.22 553.746C-1479.85 550.012 -1479.74 546.172 -1478.88 542.484C-1392.06 171.541 -1183.79 -581.875 -1034.53 -671.269C-847.03 -783.559 -715.393 -738.219 -593.373 -729.702C-471.353 -721.186 -260.642 -387.525 -200.41 -185.992C-140.178 15.5398 -113.916 0.735403 213.908 148.392Z" fill="#2F0036"/>
        <g opacity="0.2">
            <path d="M830.256 -52.7834L828.581 -46.6442L822.441 -44.9698L828.581 -43.2955L830.256 -37.1562L831.93 -43.2955L838.07 -44.9698L831.93 -46.6442L830.256 -52.7834Z" fill="white"/>
            <path d="M330.924 -168.701C330.924 -171.628 333.297 -174 336.224 -174C339.151 -174 341.523 -171.628 341.523 -168.701C341.523 -165.774 339.151 -163.402 336.224 -163.402C333.297 -163.402 330.924 -165.774 330.924 -168.701Z" fill="white"/>
            <path d="M1562.37 130.008L1559.45 140.714L1548.75 143.634L1559.45 146.553L1562.37 157.259L1565.29 146.553L1576 143.634L1565.29 140.714L1562.37 130.008Z" fill="white"/>
            <path d="M1555.5 150.843L1557.77 148.572L1557.43 148.232L1555.16 150.503L1555.5 150.843Z" fill="white"/>
            <path d="M1555.12 151.222L1554.37 151.979L1554.03 151.638L1554.78 150.881L1555.12 151.222Z" fill="white"/>
            <path d="M1553.23 153.114L1553.99 152.357L1553.65 152.017L1552.89 152.773L1553.23 153.114Z" fill="white"/>
            <path d="M1567.54 138.808L1569.81 136.537L1569.47 136.196L1567.2 138.467L1567.54 138.808Z" fill="white"/>
            <path d="M1570.95 135.401L1570.19 136.158L1569.85 135.818L1570.61 135.061L1570.95 135.401Z" fill="white"/>
            <path d="M1571.33 135.023L1572.08 134.266L1571.74 133.925L1570.98 134.682L1571.33 135.023Z" fill="white"/>
            <path d="M1554.94 136.537L1557.21 138.808L1557.55 138.467L1555.28 136.196L1554.94 136.537Z" fill="white"/>
            <path d="M1554.56 136.158L1553.8 135.401L1554.14 135.061L1554.9 135.818L1554.56 136.158Z" fill="white"/>
            <path d="M1552.66 134.266L1553.42 135.023L1553.76 134.682L1553.01 133.925L1552.66 134.266Z" fill="white"/>
            <path d="M1566.97 148.573L1569.24 150.843L1569.58 150.503L1567.31 148.232L1566.97 148.573Z" fill="white"/>
            <path d="M1570.38 151.979L1569.62 151.222L1569.96 150.881L1570.72 151.638L1570.38 151.979Z" fill="white"/>
            <path d="M1570.76 152.357L1571.51 153.114L1571.86 152.774L1571.1 152.017L1570.76 152.357Z" fill="white"/>
            <path d="M271.851 341.836L268.931 352.542L258.225 355.462L268.931 358.381L271.851 369.087L274.771 358.381L285.478 355.462L274.771 352.542L271.851 341.836Z" fill="white"/>
            <path d="M267.252 360.401L264.981 362.671L264.641 362.331L266.911 360.06L267.252 360.401Z" fill="white"/>
            <path d="M263.845 363.807L264.603 363.05L264.262 362.709L263.505 363.466L263.845 363.807Z" fill="white"/>
            <path d="M263.467 364.185L262.71 364.942L262.369 364.602L263.126 363.845L263.467 364.185Z" fill="white"/>
            <path d="M279.289 348.365L277.018 350.636L276.677 350.295L278.948 348.024L279.289 348.365Z" fill="white"/>
            <path d="M279.668 347.986L280.425 347.229L280.084 346.889L279.327 347.646L279.668 347.986Z" fill="white"/>
            <path d="M281.56 346.094L280.803 346.851L280.463 346.51L281.219 345.753L281.56 346.094Z" fill="white"/>
            <path d="M266.685 350.636L264.414 348.365L264.754 348.024L267.026 350.295L266.685 350.636Z" fill="white"/>
            <path d="M263.278 347.23L264.035 347.987L264.376 347.646L263.619 346.889L263.278 347.23Z" fill="white"/>
            <path d="M262.899 346.851L262.142 346.094L262.483 345.753L263.24 346.51L262.899 346.851Z" fill="white"/>
            <path d="M278.722 362.672L276.451 360.401L276.791 360.06L279.062 362.331L278.722 362.672Z" fill="white"/>
            <path d="M279.1 363.05L279.857 363.807L280.198 363.466L279.441 362.709L279.1 363.05Z" fill="white"/>
            <path d="M280.993 364.943L280.236 364.186L280.576 363.845L281.333 364.602L280.993 364.943Z" fill="white"/>
            <path d="M1326.93 356.844C1324 356.844 1321.63 359.217 1321.63 362.143C1321.63 365.07 1324 367.442 1326.93 367.442C1329.85 367.442 1332.23 365.07 1332.23 362.143C1332.23 359.217 1329.85 356.844 1326.93 356.844Z" fill="white"/>
            <path d="M1120.69 264.089C1121.91 264.089 1122.91 263.095 1122.91 261.87C1122.91 260.644 1121.91 259.65 1120.69 259.65C1119.46 259.65 1118.47 260.644 1118.47 261.87C1118.47 263.095 1119.46 264.089 1120.69 264.089Z" fill="white"/>
            <path d="M871.273 591.375L868.353 602.08L857.647 605L868.353 607.92L871.273 618.625L874.193 607.92L884.9 605L874.193 602.08L871.273 591.375Z" fill="white"/>
            <path d="M866.674 609.939L864.403 612.21L864.062 611.869L866.333 609.598L866.674 609.939Z" fill="white"/>
            <path d="M863.267 613.345L864.025 612.588L863.684 612.247L862.927 613.004L863.267 613.345Z" fill="white"/>
            <path d="M862.889 613.724L862.132 614.481L861.791 614.14L862.548 613.383L862.889 613.724Z" fill="white"/>
            <path d="M878.711 597.903L876.44 600.174L876.099 599.833L878.37 597.562L878.711 597.903Z" fill="white"/>
            <path d="M879.09 597.525L879.847 596.768L879.506 596.427L878.749 597.184L879.09 597.525Z" fill="white"/>
            <path d="M880.982 595.632L880.225 596.389L879.885 596.049L880.641 595.292L880.982 595.632Z" fill="white"/>
            <path d="M866.107 600.174L863.836 597.903L864.176 597.563L866.447 599.834L866.107 600.174Z" fill="white"/>
            <path d="M862.7 596.768L863.457 597.525L863.798 597.184L863.041 596.427L862.7 596.768Z" fill="white"/>
            <path d="M862.321 596.389L861.564 595.632L861.905 595.292L862.662 596.049L862.321 596.389Z" fill="white"/>
            <path d="M878.144 612.21L875.872 609.939L876.213 609.598L878.484 611.869L878.144 612.21Z" fill="white"/>
            <path d="M878.522 612.588L879.279 613.345L879.62 613.005L878.863 612.248L878.522 612.588Z" fill="white"/>
            <path d="M880.415 614.481L879.658 613.724L879.998 613.383L880.755 614.14L880.415 614.481Z" fill="white"/>
            <path d="M653.015 262.224L655.935 251.519L658.855 262.224L669.562 265.144L658.855 268.064L655.935 278.769L653.015 268.064L642.308 265.144L653.015 262.224Z" fill="white"/>
            <path d="M649.065 272.353L651.336 270.083L650.995 269.742L648.724 272.013L649.065 272.353Z" fill="white"/>
            <path d="M648.686 272.732L647.929 273.489L647.589 273.148L648.346 272.391L648.686 272.732Z" fill="white"/>
            <path d="M646.794 274.624L647.551 273.867L647.21 273.527L646.453 274.284L646.794 274.624Z" fill="white"/>
            <path d="M661.102 260.318L663.373 258.047L663.032 257.706L660.761 259.977L661.102 260.318Z" fill="white"/>
            <path d="M664.508 256.911L663.751 257.668L663.411 257.328L664.168 256.571L664.508 256.911Z" fill="white"/>
            <path d="M664.887 256.533L665.644 255.776L665.303 255.435L664.546 256.192L664.887 256.533Z" fill="white"/>
            <path d="M648.497 258.047L650.768 260.318L651.109 259.977L648.838 257.706L648.497 258.047Z" fill="white"/>
            <path d="M648.119 257.669L647.362 256.912L647.702 256.571L648.459 257.328L648.119 257.669Z" fill="white"/>
            <path d="M646.226 255.776L646.983 256.533L647.324 256.192L646.567 255.436L646.226 255.776Z" fill="white"/>
            <path d="M660.534 270.083L662.805 272.354L663.146 272.013L660.875 269.742L660.534 270.083Z" fill="white"/>
            <path d="M663.941 273.489L663.184 272.732L663.524 272.391L664.281 273.148L663.941 273.489Z" fill="white"/>
            <path d="M664.319 273.868L665.077 274.625L665.417 274.284L664.66 273.527L664.319 273.868Z" fill="white"/>
            <path d="M827.691 -42.0648L826.389 -40.7626L826.048 -41.1032L827.351 -42.4055L827.691 -42.0648Z" fill="white"/>
            <path d="M825.738 -40.1109L826.172 -40.545L825.831 -40.8856L825.397 -40.4515L825.738 -40.1109Z" fill="white"/>
            <path d="M825.521 -39.8939L825.087 -39.4598L824.747 -39.8004L825.181 -40.2345L825.521 -39.8939Z" fill="white"/>
            <path d="M834.594 -48.9664L833.292 -47.6641L832.951 -48.0047L834.254 -49.307L834.594 -48.9664Z" fill="white"/>
            <path d="M834.812 -49.1834L835.246 -49.6175L834.905 -49.9581L834.471 -49.524L834.812 -49.1834Z" fill="white"/>
            <path d="M835.897 -50.2686L835.463 -49.8345L835.123 -50.1752L835.557 -50.6093L835.897 -50.2686Z" fill="white"/>
            <path d="M827.22 -47.6648L825.918 -48.9671L826.259 -49.3077L827.561 -48.0055L827.22 -47.6648Z" fill="white"/>
            <path d="M825.266 -49.6176L825.7 -49.1835L826.041 -49.5241L825.607 -49.9582L825.266 -49.6176Z" fill="white"/>
            <path d="M825.049 -49.8346L824.615 -50.2687L824.956 -50.6094L825.39 -50.1753L825.049 -49.8346Z" fill="white"/>
            <path d="M834.122 -40.7628L832.82 -42.0651L833.16 -42.4057L834.463 -41.1035L834.122 -40.7628Z" fill="white"/>
            <path d="M834.339 -40.5458L834.773 -40.1117L835.114 -40.4523L834.68 -40.8864L834.339 -40.5458Z" fill="white"/>
            <path d="M835.425 -39.4605L834.991 -39.8946L835.332 -40.2352L835.766 -39.8012L835.425 -39.4605Z" fill="white"/>
            <path d="M111.14 83.4148L112.814 77.2755L114.489 83.4148L120.629 85.0891L114.489 86.7635L112.814 92.9027L111.14 86.7635L105 85.0891L111.14 83.4148Z" fill="white"/>
            <path d="M108.947 89.2964L110.249 87.9941L109.908 87.6535L108.606 88.9557L108.947 89.2964Z" fill="white"/>
            <path d="M108.73 89.5139L108.296 89.948L107.955 89.6074L108.389 89.1733L108.73 89.5139Z" fill="white"/>
            <path d="M107.645 90.5991L108.079 90.165L107.738 89.8244L107.304 90.2585L107.645 90.5991Z" fill="white"/>
            <path d="M115.849 82.3948L117.152 81.0926L116.811 80.7519L115.509 82.0542L115.849 82.3948Z" fill="white"/>
            <path d="M117.803 80.4415L117.369 80.8756L117.028 80.5349L117.463 80.1009L117.803 80.4415Z" fill="white"/>
            <path d="M118.021 80.2244L118.455 79.7903L118.115 79.4497L117.68 79.8838L118.021 80.2244Z" fill="white"/>
            <path d="M108.475 81.0919L109.778 82.3941L110.118 82.0535L108.816 80.7512L108.475 81.0919Z" fill="white"/>
            <path d="M108.258 80.8755L107.824 80.4414L108.164 80.1007L108.598 80.5348L108.258 80.8755Z" fill="white"/>
            <path d="M107.173 79.7902L107.607 80.2243L107.948 79.8837L107.513 79.4496L107.173 79.7902Z" fill="white"/>
            <path d="M115.377 87.9939L116.68 89.2961L117.02 88.9555L115.718 87.6532L115.377 87.9939Z" fill="white"/>
            <path d="M117.331 89.9472L116.897 89.5132L117.238 89.1725L117.672 89.6066L117.331 89.9472Z" fill="white"/>
            <path d="M117.549 90.1643L117.983 90.5984L118.324 90.2578L117.89 89.8237L117.549 90.1643Z" fill="white"/>
            <path d="M1111.84 403.171L1113.12 398.47L1117.82 397.187L1113.12 395.905L1111.84 391.204L1110.56 395.905L1105.86 397.187L1110.56 398.47L1111.84 403.171Z" fill="white"/>
            <path d="M1494.06 491.942C1494.06 494.183 1492.25 496 1490.01 496C1487.77 496 1485.95 494.183 1485.95 491.942C1485.95 489.701 1487.77 487.884 1490.01 487.884C1492.25 487.884 1494.06 489.701 1494.06 491.942Z" fill="white"/>
            <path d="M551.431 263.188L553.666 254.989L561.862 252.753L553.666 250.517L551.431 242.319L549.196 250.517L541 252.753L549.196 254.989L551.431 263.188Z" fill="white"/>
            <path d="M556.69 247.232L554.951 248.971L555.212 249.232L556.95 247.493L556.69 247.232Z" fill="white"/>
            <path d="M556.979 246.942L557.559 246.362L557.82 246.623L557.24 247.203L556.979 246.942Z" fill="white"/>
            <path d="M558.428 245.493L557.849 246.073L558.109 246.333L558.689 245.754L558.428 245.493Z" fill="white"/>
            <path d="M547.476 256.449L545.737 258.188L545.998 258.449L547.737 256.71L547.476 256.449Z" fill="white"/>
            <path d="M544.868 259.058L545.448 258.478L545.708 258.739L545.129 259.318L544.868 259.058Z" fill="white"/>
            <path d="M544.578 259.347L543.999 259.927L544.26 260.188L544.839 259.608L544.578 259.347Z" fill="white"/>
            <path d="M557.124 258.188L555.386 256.449L555.125 256.71L556.863 258.449L557.124 258.188Z" fill="white"/>
            <path d="M557.414 258.478L557.993 259.057L557.733 259.318L557.153 258.739L557.414 258.478Z" fill="white"/>
            <path d="M558.863 259.927L558.283 259.347L558.022 259.608L558.602 260.188L558.863 259.927Z" fill="white"/>
            <path d="M547.91 248.971L546.172 247.232L545.911 247.493L547.649 249.232L547.91 248.971Z" fill="white"/>
            <path d="M545.303 246.362L545.882 246.942L545.621 247.203L545.042 246.623L545.303 246.362Z" fill="white"/>
            <path d="M545.013 246.072L544.433 245.493L544.172 245.754L544.752 246.333L545.013 246.072Z" fill="white"/>
            <path d="M1539.28 100.967L1541.52 92.769L1549.71 90.5331L1541.52 88.2972L1539.28 80.0988L1537.05 88.2972L1528.85 90.5331L1537.05 92.769L1539.28 100.967Z" fill="white"/>
            <path d="M1542.8 86.751L1544.54 85.0119L1544.8 85.2728L1543.06 87.0118L1542.8 86.751Z" fill="white"/>
            <path d="M1545.41 84.1425L1544.83 84.7221L1545.09 84.9829L1545.67 84.4032L1545.41 84.1425Z" fill="white"/>
            <path d="M1545.7 83.8526L1546.28 83.2729L1546.54 83.5337L1545.96 84.1134L1545.7 83.8526Z" fill="white"/>
            <path d="M1533.59 95.968L1535.33 94.229L1535.59 94.4898L1533.85 96.2289L1533.59 95.968Z" fill="white"/>
            <path d="M1533.3 96.2579L1532.72 96.8376L1532.98 97.0985L1533.56 96.5187L1533.3 96.2579Z" fill="white"/>
            <path d="M1531.85 97.7071L1532.43 97.1274L1532.69 97.3883L1532.11 97.9679L1531.85 97.7071Z" fill="white"/>
            <path d="M1543.24 94.2289L1544.97 95.9679L1544.71 96.2288L1542.97 94.4897L1543.24 94.2289Z" fill="white"/>
            <path d="M1545.84 96.8374L1545.26 96.2578L1545 96.5186L1545.58 97.0983L1545.84 96.8374Z" fill="white"/>
            <path d="M1546.13 97.1273L1546.71 97.707L1546.45 97.9678L1545.87 97.3882L1546.13 97.1273Z" fill="white"/>
            <path d="M1534.02 85.0118L1535.76 86.7509L1535.5 87.0117L1533.76 85.2727L1534.02 85.0118Z" fill="white"/>
            <path d="M1533.73 84.722L1533.15 84.1423L1532.89 84.4031L1533.47 84.9828L1533.73 84.722Z" fill="white"/>
            <path d="M1532.28 83.2727L1532.86 83.8524L1532.6 84.1133L1532.02 83.5335L1532.28 83.2727Z" fill="white"/>
            <path d="M731.656 89.4746C733.897 89.4746 735.713 87.6577 735.713 85.4165C735.713 83.1753 733.897 81.3585 731.656 81.3585C729.416 81.3585 727.6 83.1753 727.6 85.4165C727.6 87.6577 729.416 89.4746 731.656 89.4746Z" fill="white"/>
            <path d="M889.527 160.508C888.589 160.508 887.829 161.268 887.829 162.207C887.829 163.145 888.589 163.906 889.527 163.906C890.466 163.906 891.226 163.145 891.226 162.207C891.226 161.268 890.466 160.508 889.527 160.508Z" fill="white"/>
            <path d="M1080.44 -90.1313L1082.68 -98.3298L1090.87 -100.566L1082.68 -102.802L1080.44 -111L1078.21 -102.802L1070.01 -100.566L1078.21 -98.3298L1080.44 -90.1313Z" fill="white"/>
            <path d="M1083.96 -104.348L1085.7 -106.087L1085.96 -105.826L1084.23 -104.087L1083.96 -104.348Z" fill="white"/>
            <path d="M1086.57 -106.956L1085.99 -106.377L1086.25 -106.116L1086.83 -106.696L1086.57 -106.956Z" fill="white"/>
            <path d="M1086.86 -107.246L1087.44 -107.826L1087.7 -107.565L1087.12 -106.985L1086.86 -107.246Z" fill="white"/>
            <path d="M1074.75 -95.1308L1076.49 -96.8698L1076.75 -96.609L1075.01 -94.8699L1074.75 -95.1308Z" fill="white"/>
            <path d="M1074.46 -94.8409L1073.88 -94.2612L1074.14 -94.0004L1074.72 -94.5801L1074.46 -94.8409Z" fill="white"/>
            <path d="M1073.01 -93.3917L1073.59 -93.9714L1073.85 -93.7105L1073.27 -93.1309L1073.01 -93.3917Z" fill="white"/>
            <path d="M1084.4 -96.8699L1086.14 -95.1309L1085.88 -94.87L1084.14 -96.6091L1084.4 -96.8699Z" fill="white"/>
            <path d="M1087.01 -94.2614L1086.43 -94.841L1086.17 -94.5802L1086.75 -94.0005L1087.01 -94.2614Z" fill="white"/>
            <path d="M1087.3 -93.9715L1087.88 -93.3918L1087.62 -93.1309L1087.04 -93.7106L1087.3 -93.9715Z" fill="white"/>
            <path d="M1075.19 -106.087L1076.92 -104.348L1076.66 -104.087L1074.92 -105.826L1075.19 -106.087Z" fill="white"/>
            <path d="M1074.9 -106.377L1074.32 -106.956L1074.06 -106.696L1074.63 -106.116L1074.9 -106.377Z" fill="white"/>
            <path d="M1073.45 -107.826L1074.03 -107.246L1073.77 -106.986L1073.19 -107.565L1073.45 -107.826Z" fill="white"/>
            <path d="M1247.51 161.935L1245.28 170.134L1243.04 161.935L1234.85 159.699L1243.04 157.463L1245.28 149.265L1247.51 157.463L1255.71 159.699L1247.51 161.935Z" fill="white"/>
            <path d="M1250.54 154.178L1248.8 155.917L1249.06 156.178L1250.8 154.439L1250.54 154.178Z" fill="white"/>
            <path d="M1250.83 153.888L1251.41 153.309L1251.67 153.57L1251.09 154.149L1250.83 153.888Z" fill="white"/>
            <path d="M1252.28 152.439L1251.7 153.019L1251.96 153.28L1252.54 152.7L1252.28 152.439Z" fill="white"/>
            <path d="M1241.32 163.395L1239.58 165.134L1239.85 165.395L1241.58 163.656L1241.32 163.395Z" fill="white"/>
            <path d="M1238.72 166.004L1239.29 165.424L1239.56 165.685L1238.98 166.265L1238.72 166.004Z" fill="white"/>
            <path d="M1238.43 166.294L1237.85 166.873L1238.11 167.134L1238.69 166.555L1238.43 166.294Z" fill="white"/>
            <path d="M1250.97 165.134L1249.23 163.395L1248.97 163.656L1250.71 165.395L1250.97 165.134Z" fill="white"/>
            <path d="M1251.26 165.424L1251.84 166.004L1251.58 166.265L1251 165.685L1251.26 165.424Z" fill="white"/>
            <path d="M1252.71 166.873L1252.13 166.294L1251.87 166.555L1252.45 167.134L1252.71 166.873Z" fill="white"/>
            <path d="M1241.76 155.917L1240.02 154.178L1239.76 154.439L1241.5 156.178L1241.76 155.917Z" fill="white"/>
            <path d="M1239.15 153.309L1239.73 153.888L1239.47 154.149L1238.89 153.569L1239.15 153.309Z" fill="white"/>
            <path d="M1238.86 153.019L1238.28 152.439L1238.02 152.7L1238.6 153.28L1238.86 153.019Z" fill="white"/>
            <path d="M1113.8 394.963L1114.8 393.965L1115.06 394.226L1114.07 395.224L1113.8 394.963Z" fill="white"/>
            <path d="M1115.3 393.466L1114.97 393.799L1115.23 394.06L1115.56 393.727L1115.3 393.466Z" fill="white"/>
            <path d="M1115.47 393.3L1115.8 392.968L1116.06 393.229L1115.73 393.561L1115.47 393.3Z" fill="white"/>
            <path d="M1108.52 400.248L1109.52 399.251L1109.78 399.512L1108.78 400.509L1108.52 400.248Z" fill="white"/>
            <path d="M1108.35 400.414L1108.02 400.747L1108.28 401.008L1108.62 400.675L1108.35 400.414Z" fill="white"/>
            <path d="M1107.52 401.245L1107.86 400.913L1108.12 401.174L1107.78 401.506L1107.52 401.245Z" fill="white"/>
            <path d="M1114.17 399.251L1115.16 400.249L1114.9 400.509L1113.9 399.512L1114.17 399.251Z" fill="white"/>
            <path d="M1115.66 400.747L1115.33 400.414L1115.07 400.675L1115.4 401.008L1115.66 400.747Z" fill="white"/>
            <path d="M1115.83 400.913L1116.16 401.245L1115.9 401.506L1115.57 401.174L1115.83 400.913Z" fill="white"/>
            <path d="M1108.88 393.966L1109.88 394.963L1109.62 395.224L1108.62 394.227L1108.88 393.966Z" fill="white"/>
            <path d="M1108.72 393.799L1108.38 393.467L1108.12 393.728L1108.45 394.06L1108.72 393.799Z" fill="white"/>
            <path d="M1107.88 392.968L1108.22 393.301L1107.96 393.562L1107.62 393.229L1107.88 392.968Z" fill="white"/>
            <path d="M1662.3 298.869L1661.02 303.571L1659.74 298.869L1655.04 297.587L1659.74 296.305L1661.02 291.603L1662.3 296.305L1667 297.587L1662.3 298.869Z" fill="white"/>
            <path d="M1663.98 294.365L1662.98 295.362L1663.24 295.623L1664.24 294.626L1663.98 294.365Z" fill="white"/>
            <path d="M1664.14 294.199L1664.48 293.866L1664.74 294.127L1664.41 294.459L1664.14 294.199Z" fill="white"/>
            <path d="M1664.98 293.367L1664.64 293.7L1664.9 293.961L1665.24 293.628L1664.98 293.367Z" fill="white"/>
            <path d="M1658.69 299.65L1657.7 300.648L1657.96 300.909L1658.96 299.911L1658.69 299.65Z" fill="white"/>
            <path d="M1657.2 301.146L1657.53 300.814L1657.79 301.075L1657.46 301.407L1657.2 301.146Z" fill="white"/>
            <path d="M1657.03 301.313L1656.7 301.645L1656.96 301.906L1657.29 301.573L1657.03 301.313Z" fill="white"/>
            <path d="M1664.34 300.648L1663.34 299.651L1663.08 299.912L1664.08 300.909L1664.34 300.648Z" fill="white"/>
            <path d="M1664.51 300.814L1664.84 301.146L1664.58 301.407L1664.25 301.075L1664.51 300.814Z" fill="white"/>
            <path d="M1665.34 301.645L1665 301.313L1664.74 301.573L1665.08 301.906L1665.34 301.645Z" fill="white"/>
            <path d="M1659.06 295.363L1658.06 294.365L1657.8 294.626L1658.8 295.623L1659.06 295.363Z" fill="white"/>
            <path d="M1657.56 293.867L1657.89 294.199L1657.63 294.46L1657.3 294.128L1657.56 293.867Z" fill="white"/>
            <path d="M1657.39 293.7L1657.06 293.368L1656.8 293.629L1657.13 293.961L1657.39 293.7Z" fill="white"/>
        </g>
        <g opacity="0.2">
            <path d="M1080.95 5.90195C1074.5 -14.4502 1083.97 -36.4503 1103.17 -45.7697L1258.71 -121.235C1282.3 -132.681 1310.55 -120.53 1318.47 -95.5329L1355.22 20.4856C1361.67 40.8377 1352.21 62.8379 1333 72.1572L1177.47 147.622C1153.87 159.068 1125.62 146.917 1117.7 121.92L1080.95 5.90195Z" stroke="white" stroke-width="2"/>
            <rect x="1069.72" y="-29.542" width="289.697" height="208.612" rx="29" transform="rotate(-17.5763 1069.72 -29.542)" fill="#5C1283" stroke="white" stroke-width="2"/>
            <rect x="1310.3" y="-30.6992" width="69.5372" height="65.5206" rx="17" transform="rotate(-17.5763 1310.3 -30.6992)" fill="#5C1283" stroke="white" stroke-width="2"/>
            <circle cx="1348.47" cy="-8.29422" r="7.78214" transform="rotate(-17.5763 1348.47 -8.29422)" fill="white"/>
            <path d="M1195.71 -13.0278C1209.65 -25.5967 1229.47 -29.2761 1246.99 -22.542L1239.18 -15.5174C1225.13 -19.0643 1210.26 -14.9104 1200.09 -4.61554C1189.93 5.69937 1185.97 20.6125 1189.69 34.6025C1190.15 36.3231 1190.73 38.0115 1191.42 39.6731L1274.36 -35.0002L1276.99 -25.157L1192.55 50.8831L1189.15 53.9599L1178.64 63.4466L1176 53.6034L1179.57 50.373C1182.31 47.9254 1183.27 44.0858 1182.06 40.6143C1181.63 39.4207 1181.27 38.211 1180.94 36.9906C1176.08 18.8645 1181.8 -0.444267 1195.74 -13.0132L1195.71 -13.0278Z" fill="white"/>
            <path d="M1279.63 -15.3138L1282.26 -5.49054L1278.69 -2.26016C1275.98 0.182014 1274.99 4.02705 1276.2 7.49854C1276.63 8.69214 1277 9.92183 1277.33 11.1622C1282.19 29.2883 1276.45 48.6025 1262.51 61.1513C1248.57 73.7002 1228.75 77.3797 1211.26 70.6602L1218.62 64.0351L1219.03 63.6463C1233.08 67.2132 1247.97 63.074 1258.16 52.7737C1268.35 42.4535 1272.32 27.5149 1268.57 13.5103C1268.11 11.7697 1267.52 10.0813 1266.84 8.41967L1183.86 83.1038L1181.23 73.2605L1279.62 -15.2885L1279.63 -15.3138Z" fill="white"/>
        </g>
        <g opacity="0.3">
            <path d="M1756.9 276.131L1835.96 388.812L1622.13 302.646L1543.07 189.965L1756.9 276.131Z" fill="white" stroke="white" stroke-width="2" stroke-miterlimit="10"/>
            <path d="M1835.19 387.833L1706.88 613.904L1492.08 528.058L1620.4 301.988L1835.19 387.833Z" fill="#5C1283" stroke="white" stroke-width="2" stroke-miterlimit="10"/>
            <path d="M1622.29 301.556L1493.44 527.26L1413.64 415.49L1542.49 189.786L1622.29 301.556Z" fill="#5C1283" stroke="white" stroke-width="2" stroke-miterlimit="10"/>
            <path d="M1756.62 276.617C1756.62 276.617 1741.11 303.473 1718.98 341.979L1835.76 388.812L1756.62 276.617Z" fill="#1C0C40" stroke="white" stroke-width="2" stroke-miterlimit="10"/>
            <path d="M1756.9 276.131L1543.07 189.965L1622.13 302.646L1835.96 388.812L1756.9 276.131ZM1549.2 194.842L1755.49 277.966L1829.83 383.934L1623.54 300.802L1549.2 194.842Z" fill="#5C1283" stroke="white" stroke-width="2" stroke-miterlimit="10"/>
            <path d="M1572.56 560.291L1629.97 582.978L1758.85 357.275L1701.44 334.588L1572.56 560.291Z" fill="#561279" stroke="white" stroke-width="2" stroke-miterlimit="10"/>
            <path d="M1434.39 444.762L1465.53 488.094L1594.68 262.411L1563.53 219.076L1434.39 444.762Z" fill="#561279" stroke="white" stroke-width="2" stroke-miterlimit="10"/>
            <path d="M1772.29 259.495L1856.52 380.08L1627.57 287.257L1544.72 170.13C1544.14 169.315 1544.98 168.248 1545.9 168.619L1772.29 259.495Z" fill="#5C1283" stroke="white" stroke-width="2" stroke-miterlimit="10"/>
            <path d="M1856.23 379.964L1827.43 430.34L1598.11 337.622L1626.9 287.239L1856.23 379.964Z" fill="#5C1283" stroke="white" stroke-width="2" stroke-miterlimit="10"/>
            <path d="M1627.05 286.251C1627.27 286.569 1627.29 286.987 1627.1 287.324L1599.4 335.787C1599.03 336.422 1598.14 336.463 1597.71 335.862L1514.6 217.231C1514.38 216.913 1514.36 216.494 1514.55 216.157L1542.26 167.688C1542.62 167.053 1543.52 167.013 1543.94 167.613L1627.05 286.251Z" fill="#5C1283" stroke="white" stroke-width="2" stroke-miterlimit="10"/>
            <path d="M1856.24 380.07L1827.34 430.407L1598.1 337.518L1626.99 287.175L1856.24 380.07Z" stroke="white" stroke-width="2" stroke-miterlimit="10"/>
            <path d="M1538.2 250.932L1568.67 294.419L1597.54 244.015L1567.07 200.528L1538.2 250.932Z" fill="#561279" stroke="white" stroke-width="2" stroke-miterlimit="10"/>
            <path d="M1682.17 371.599L1738.88 394.512L1767.71 344.167L1711 321.254L1682.17 371.599Z" fill="#561279" stroke="white" stroke-width="2" stroke-miterlimit="10"/>
            <path d="M1694.1 227.793L1637.81 204.93L1711.41 321.271L1767.96 344.231L1694.1 227.793Z" fill="#561279" stroke="white" stroke-width="2" stroke-miterlimit="10"/>
            <path d="M1791.59 287.049L1567.25 200.801L1577.33 215.255L1597.64 244.361L1822.01 330.668L1791.59 287.049Z" fill="#561279" stroke="white" stroke-width="2" stroke-miterlimit="10"/>
            <path d="M1667.86 243.114C1671.92 242.664 1737.71 282.101 1739.14 285.108L1740.71 306.401C1716.67 280.746 1647.95 252.552 1650.76 251.388L1667.86 243.114Z" fill="#E6E6EB" stroke="white" stroke-width="2" stroke-miterlimit="10"/>
            <path d="M1817.72 206.032C1795.43 172.351 1687.27 236.043 1706.74 272.315L1710.94 279.766L1713.39 296.081C1729.3 240.638 1831.58 246.777 1840.35 272.414C1840.35 272.423 1840.35 272.432 1840.36 272.441L1840.7 273.685C1840.61 273.266 1840.5 272.851 1840.36 272.441C1840.35 272.432 1840.35 272.423 1840.35 272.414L1817.72 206.032Z" fill="#561279"/>
            <path d="M1840.36 272.441C1840.5 272.851 1840.61 273.266 1840.7 273.685L1840.36 272.441ZM1840.36 272.441C1831.65 246.782 1729.31 240.618 1713.39 296.081L1710.94 279.766L1706.74 272.315C1687.27 236.043 1795.43 172.351 1817.72 206.032L1840.36 272.441Z" stroke="white" stroke-width="2" stroke-miterlimit="10"/>
            <path d="M1819.19 222.903C1808.19 259.939 1721.38 292.424 1706.85 272.739L1706.83 272.733L1711.06 280.232L1713.5 296.512C1713.91 298.328 1714.83 299.992 1716.13 301.318C1736.04 322.339 1854.46 322.043 1840.81 274.11C1833.75 249.276 1817.62 205.666 1817.62 205.666C1817.62 205.666 1821.02 216.839 1819.19 222.903Z" fill="#561279" stroke="white" stroke-width="2" stroke-miterlimit="10"/>
            <path d="M1722.42 125.108C1767.79 133.391 1749.49 275.528 1702.67 271.381L1692.96 270.316L1674.73 275.064C1725.79 233.472 1673.43 128.86 1642.58 131.162C1642.57 131.162 1642.56 131.163 1642.55 131.164L1641.08 131.36C1641.57 131.267 1642.05 131.202 1642.55 131.164C1642.56 131.163 1642.57 131.162 1642.58 131.162L1722.42 125.108Z" fill="#561279"/>
            <path d="M1642.55 131.164C1642.05 131.202 1641.57 131.267 1641.08 131.36L1642.55 131.164ZM1642.55 131.164C1673.39 128.787 1725.81 233.457 1674.73 275.064L1692.96 270.316L1702.67 271.381C1749.49 275.528 1767.79 133.391 1722.42 125.108L1642.55 131.164Z" stroke="white" stroke-width="2" stroke-miterlimit="10"/>
            <path d="M1704.06 131.148C1670.11 159.321 1674.99 265.038 1702.17 271.454L1702.19 271.475L1692.42 270.401L1674.23 275.141C1672.14 275.525 1669.98 275.315 1668 274.539C1637 263.073 1584.14 138.63 1640.59 131.432C1669.83 127.703 1722.85 125.054 1722.85 125.054C1722.85 125.054 1709.6 126.501 1704.06 131.148Z" fill="#561279" stroke="white" stroke-width="2" stroke-miterlimit="10"/>
            <path d="M1772.13 249.49C1766.52 236.017 1693.77 261.417 1698.22 275.582L1705.35 296.681C1722.96 278.686 1779.7 271.466 1778.81 269.204L1772.13 249.49Z" fill="#561279" stroke="white" stroke-width="2" stroke-miterlimit="10"/>
            <path d="M1698.22 275.581C1706.85 278.974 1775.95 260.968 1772.13 249.489L1778.79 269.199C1782.86 284.902 1714.99 304.428 1706.59 298.223C1706.04 297.836 1705.61 297.301 1705.35 296.68L1698.22 275.581Z" fill="#561279" stroke="white" stroke-width="2" stroke-miterlimit="10"/>
            <path d="M1702.11 271.393C1712.19 260.865 1659.93 204.269 1648.74 213.986L1632.22 228.912C1655.74 237.893 1684.97 287.09 1686.68 285.333L1702.11 271.393Z" fill="#561279" stroke="white" stroke-width="2" stroke-miterlimit="10"/>
            <path d="M1648.74 213.985C1649.08 223.251 1693.11 279.461 1702.11 271.391L1686.68 285.355C1673.9 295.343 1628.95 240.86 1631.3 230.669C1631.43 230.011 1631.75 229.404 1632.22 228.918L1648.74 213.985Z" fill="#561279" stroke="white" stroke-width="2" stroke-miterlimit="10"/>
            <path d="M1732.56 288.387C1731.06 285.201 1672.63 254.667 1669.79 254.97L1653.54 263.404C1683.1 269.495 1734.64 307.242 1734.22 304.66L1732.56 288.387Z" fill="#561279" stroke="white" stroke-width="2" stroke-miterlimit="10"/>
            <path d="M1669.78 254.966C1672.25 260.124 1733.37 296.904 1732.55 288.383L1734.2 304.685C1734.76 323.906 1650.17 273.636 1652.45 264.747C1652.53 264.466 1652.67 264.205 1652.85 263.978C1653.03 263.752 1653.26 263.565 1653.52 263.428L1669.77 254.995" fill="#561279"/>
            <path d="M1669.78 254.966C1672.25 260.124 1733.37 296.904 1732.55 288.383L1734.2 304.685C1734.76 323.906 1650.17 273.636 1652.45 264.747C1652.53 264.466 1652.67 264.205 1652.85 263.978C1653.03 263.752 1653.26 263.565 1653.52 263.428L1669.77 254.995" stroke="white" stroke-width="2" stroke-miterlimit="10"/>
        </g>
        <g opacity="0.3">
            <path d="M-54.3091 187.926C-44.746 168.839 -22.6272 159.659 -2.35876 166.364L312.867 270.65C337.761 278.886 349.552 307.293 337.806 330.736L226.043 553.805C216.48 572.893 194.361 582.073 174.092 575.368L-141.134 471.082C-166.028 462.846 -177.818 434.439 -166.072 410.996L-54.3091 187.926Z" stroke="white" stroke-width="2"/>
            <path d="M135.323 168.427C157.818 186.427 171.368 205.72 165.596 211.48C159.824 217.239 136.868 207.241 114.374 189.241C91.8342 171.2 78.3294 151.947 84.1015 146.188C89.9194 140.469 112.87 150.38 135.323 168.427Z" stroke="white" stroke-width="2" stroke-miterlimit="10"/>
            <path d="M165.805 210.787L154.633 224.983C154.508 225.124 154.384 225.265 154.301 225.358C148.459 231.226 125.506 221.434 103.085 203.58C81.1622 186.084 67.8362 167.252 72.74 160.972L83.8713 146.823C78.9674 153.103 92.2477 171.895 114.216 189.431C136.637 207.285 159.59 217.077 165.432 211.209C165.556 211.069 165.681 210.928 165.805 210.787Z" stroke="white" stroke-width="2" stroke-miterlimit="10"/>
            <path d="M165.805 210.787L154.633 224.983C154.508 225.124 154.384 225.265 154.301 225.358C148.459 231.226 125.506 221.434 103.085 203.58C81.1622 186.084 67.8362 167.252 72.74 160.972L83.8713 146.823C78.9674 153.103 92.2477 171.895 114.216 189.431C136.637 207.285 159.59 217.077 165.432 211.209C165.556 211.069 165.681 210.928 165.805 210.787Z" fill="#5C1283" stroke="white" stroke-width="2" stroke-miterlimit="10"/>
            <rect x="-37.6533" y="154.686" width="467.174" height="336.414" rx="43" transform="rotate(26.612 -37.6533 154.686)" fill="#530E76" stroke="white" stroke-width="2"/>
            <rect x="241.84" y="423.767" width="112.138" height="105.661" rx="25" transform="rotate(26.612 241.84 423.767)" fill="#530E76" stroke="white" stroke-width="2"/>
            <path d="M329.629 258.198L311.59 256.902C309.526 256.742 307.757 253.764 306.489 247.734C303.036 231.367 304.706 198.722 310.229 174.809C313.661 159.701 317.85 151.753 321.317 151.987L339.356 153.284C335.89 153.05 331.701 160.998 328.222 176.066C322.699 199.978 321.03 232.623 324.483 248.99C325.796 255.061 327.565 258.039 329.629 258.198Z" stroke="white" stroke-width="2" stroke-miterlimit="10"/>
            <path d="M344.123 162.662C347.721 179.08 346.327 211.722 341.041 235.536C335.755 259.35 328.497 265.382 324.899 248.964C321.302 232.547 322.695 199.905 328.022 176.044C333.349 152.184 340.525 146.245 344.123 162.662Z" stroke="white" stroke-width="2" stroke-miterlimit="10"/>
            <path d="M257.402 74.183C284.165 85.4664 289.045 102.095 268.325 111.473C247.605 120.851 209.114 119.285 182.351 108.002C155.589 96.7181 150.708 80.0893 171.429 70.7113C192.203 61.3814 230.64 62.8996 257.402 74.183Z" stroke="white" stroke-width="2" stroke-miterlimit="10"/>
            <path d="M175.382 69.0936C175.635 69.0274 175.887 68.9612 176.133 68.7928C176.536 68.6664 176.987 68.486 177.389 68.3596C177.642 68.2934 177.942 68.1731 178.195 68.1068C178.597 67.9805 179.102 67.8481 179.505 67.7217C179.805 67.6014 180.112 67.5832 180.412 67.4629C180.869 67.3846 181.32 67.2041 181.776 67.1258C182.029 67.0596 182.383 66.9873 182.636 66.9211C183.345 66.7766 184.054 66.6321 184.763 66.4876C184.866 66.4815 185.016 66.4214 185.118 66.4153C185.677 66.331 186.182 66.1986 186.741 66.1142C187.504 66.0177 188.261 65.8191 189.024 65.7227C189.229 65.7106 189.481 65.6444 189.686 65.6323C190.599 65.4756 191.567 65.3671 192.534 65.2585C192.739 65.2464 192.841 65.2404 193.045 65.2283C193.808 65.1319 194.572 65.0354 195.287 64.9931C195.696 64.9689 196.104 64.9447 196.513 64.9205C197.024 64.8902 197.535 64.86 198.094 64.7756C198.605 64.7454 199.115 64.7151 199.626 64.6849C200.035 64.6607 200.444 64.6365 200.804 64.6664C201.417 64.6301 202.03 64.5938 202.595 64.6117C202.902 64.5935 203.208 64.5754 203.515 64.5572C204.435 64.5028 205.36 64.5505 206.28 64.4961C206.484 64.484 206.64 64.526 206.791 64.4658C207.56 64.4715 208.329 64.4773 208.996 64.489C209.303 64.4709 209.664 64.5008 209.922 64.5368C210.487 64.5546 211.154 64.5664 211.719 64.5842C212.08 64.6141 212.386 64.5959 212.747 64.6259C213.312 64.6437 213.877 64.6615 214.496 64.7274C214.857 64.7573 215.217 64.7872 215.578 64.8171C216.143 64.835 216.762 64.9008 217.327 64.9186C217.688 64.9486 217.946 64.9845 218.307 65.0144C218.926 65.0803 219.593 65.0921 220.266 65.206C220.525 65.242 220.783 65.278 221.042 65.3139C221.919 65.4158 222.797 65.5176 223.674 65.6195C223.83 65.6615 224.035 65.6494 224.191 65.6914C224.912 65.7512 225.586 65.8652 226.361 65.9731C226.619 66.009 226.878 66.045 227.136 66.081C227.81 66.1949 228.483 66.3089 229.156 66.4228C229.414 66.4588 229.571 66.5008 229.829 66.5367C230.761 66.6867 231.59 66.8426 232.522 66.9925C232.678 67.0345 232.835 67.0765 232.937 67.0705C233.664 67.2325 234.439 67.3404 235.113 67.4543C235.684 67.5743 236.255 67.6943 236.826 67.8143C237.24 67.8923 237.655 67.9703 238.022 68.1024C239.32 68.3844 240.571 68.7205 241.869 69.0025C242.338 69.1285 242.807 69.2546 243.275 69.3806C243.588 69.4646 243.955 69.5967 244.267 69.6808C244.892 69.8488 245.415 70.0229 246.04 70.191C246.299 70.2269 246.563 70.3651 246.822 70.401C247.657 70.6592 248.493 70.9173 249.383 71.2235C249.485 71.2174 249.593 71.3136 249.695 71.3075C250.429 71.5717 251.162 71.8359 251.841 72.052C252.418 72.2742 253.098 72.4903 253.675 72.7124C253.987 72.7965 254.252 72.9346 254.564 73.0186C255.454 73.3248 256.35 73.7332 257.191 74.0935C257.612 74.2737 257.979 74.4058 258.351 74.64C259.139 74.9523 259.878 75.3186 260.618 75.685C260.774 75.727 260.882 75.8231 261.038 75.8651C261.778 76.2315 262.463 76.5498 263.203 76.9161C263.311 77.0122 263.413 77.0062 263.521 77.1023C264.05 77.3786 264.525 77.6068 265.006 77.9372C265.114 78.0333 265.271 78.0753 265.379 78.1715C265.962 78.4958 266.491 78.7721 266.972 79.1025C267.08 79.1986 267.236 79.2406 267.345 79.3367C267.663 79.5229 267.982 79.7091 268.301 79.8953C268.409 79.9915 268.619 80.0815 268.727 80.1777C269.046 80.3639 269.262 80.5561 269.581 80.7423C269.689 80.8385 269.9 80.9285 270.008 81.0247C270.224 81.2169 270.435 81.307 270.651 81.4992C270.814 81.6434 270.97 81.6854 271.132 81.8296C271.349 82.0219 271.559 82.1119 271.775 82.3042C271.884 82.4003 271.992 82.4964 272.1 82.5926C272.689 83.0191 273.23 83.4997 273.717 83.9323C273.772 83.9803 273.826 84.0284 273.88 84.0765C274.313 84.461 274.8 84.8935 275.184 85.3321C275.239 85.3802 275.347 85.4763 275.401 85.5244C275.78 85.8608 276.11 86.2514 276.441 86.6419C276.495 86.69 276.549 86.738 276.658 86.8342C276.934 87.1767 277.265 87.5672 277.541 87.9097C277.596 87.9578 277.596 87.9578 277.65 88.0058C277.926 88.3483 278.155 88.7449 278.431 89.0874C278.486 89.1355 278.546 89.2857 278.6 89.3338C278.828 89.7304 279.051 90.0248 279.279 90.4214L279.334 90.4694C279.508 90.818 279.682 91.1665 279.857 91.515C279.863 91.6172 279.917 91.6653 279.977 91.8155C280.152 92.1641 280.272 92.4645 280.398 92.8672L280.404 92.9693C280.525 93.2698 280.597 93.6244 280.717 93.9249C280.723 94.0271 280.777 94.0751 280.783 94.1773C280.856 94.5319 280.928 94.8865 281 95.241C281.054 95.2891 281.006 95.3432 281.06 95.3913C281.079 95.6978 281.151 96.0524 281.169 96.3589C281.175 96.4611 281.175 96.4611 281.181 96.5633C281.151 96.9239 281.223 97.2785 281.193 97.6391C281.206 97.8435 281.164 97.9997 281.128 98.2582L283.434 78.333C283.476 78.1767 283.464 77.9723 283.506 77.816L283.5 77.7139C283.53 77.3532 283.512 77.0467 283.488 76.638C283.488 76.638 283.536 76.5839 283.481 76.5359L283.475 76.4337C283.457 76.1272 283.439 75.8206 283.367 75.466L283.361 75.3639C283.289 75.0093 283.216 74.6547 283.144 74.3001L283.138 74.1979C283.084 74.1499 283.132 74.0958 283.078 74.0477C282.958 73.7472 282.885 73.3926 282.765 73.0922C282.765 73.0922 282.711 73.0441 282.759 72.99C282.639 72.6895 282.512 72.2869 282.338 71.9383C282.284 71.8903 282.332 71.8362 282.278 71.7881C282.223 71.74 282.272 71.6859 282.217 71.6379C282.043 71.2893 281.869 70.9408 281.694 70.5923C281.694 70.5923 281.694 70.5923 281.64 70.5442C281.466 70.1957 281.189 69.8532 281.015 69.5046C280.96 69.4566 280.96 69.4566 280.954 69.3544C280.9 69.3063 280.9 69.3063 280.846 69.2583C280.57 68.9158 280.341 68.5192 280.064 68.1767L280.01 68.1287C279.734 67.7862 279.457 67.4437 279.126 67.0531C279.072 67.0051 279.018 66.957 279.018 66.957L278.964 66.9089C278.633 66.5184 278.255 66.182 277.924 65.7914C277.87 65.7433 277.87 65.7433 277.816 65.6953C277.762 65.6472 277.707 65.5991 277.707 65.5991C277.274 65.2146 276.89 64.776 276.403 64.3435L276.349 64.2954C276.294 64.2473 276.294 64.2474 276.24 64.1993C275.753 63.7667 275.212 63.2861 274.623 62.8596L274.569 62.8115C274.461 62.7154 274.352 62.6193 274.244 62.5231C274.028 62.3309 273.865 62.1867 273.601 62.0486C273.439 61.9044 273.33 61.8083 273.12 61.7182C272.958 61.574 272.693 61.4359 272.477 61.2436C272.423 61.1955 272.369 61.1475 272.369 61.1475C272.314 61.0994 272.206 61.0033 272.104 61.0093C271.785 60.8231 271.569 60.6309 271.25 60.4447C271.142 60.3486 270.932 60.2585 270.823 60.1624C270.505 59.9762 270.186 59.79 269.868 59.6038C269.759 59.5076 269.705 59.4596 269.549 59.4176C269.495 59.3695 269.495 59.3695 269.441 59.3214C268.912 59.0451 268.377 58.6667 267.848 58.3904C267.739 58.2943 267.583 58.2523 267.475 58.1562C267 57.9279 266.519 57.5976 265.99 57.3213C265.936 57.2732 265.834 57.2793 265.726 57.1831L265.671 57.1351C264.986 56.8168 264.247 56.4504 263.507 56.0841C263.351 56.0421 263.243 55.9459 263.087 55.9039C262.347 55.5376 261.56 55.2253 260.82 54.859C260.766 54.8109 260.712 54.7628 260.664 54.817C260.297 54.6849 259.979 54.4987 259.666 54.4146C258.824 54.0543 257.881 53.7001 257.039 53.3398C256.727 53.2557 256.462 53.1176 256.149 53.0336C255.572 52.8114 254.941 52.5412 254.316 52.3731C254.262 52.3251 254.16 52.3311 254.106 52.283C253.426 52.0669 252.747 51.8508 252.116 51.5806C252.014 51.5866 251.96 51.5386 251.803 51.4966C250.968 51.2384 250.132 50.9803 249.243 50.6741C248.984 50.6381 248.72 50.5 248.461 50.464C247.836 50.296 247.259 50.0738 246.688 49.9538C246.375 49.8698 246.063 49.7858 245.696 49.6537C245.384 49.5696 245.017 49.4375 244.656 49.4076C244.5 49.3656 244.398 49.3717 244.242 49.3297C242.991 48.9935 241.693 48.7115 240.443 48.3754C240.389 48.3274 240.34 48.3815 240.286 48.3334C239.974 48.2494 239.613 48.2195 239.246 48.0874C238.675 47.9674 238.104 47.8474 237.533 47.7274C237.431 47.7335 237.377 47.6854 237.221 47.6434C236.596 47.4753 235.977 47.4094 235.303 47.2955C235.147 47.2535 235.045 47.2595 234.889 47.2175C234.889 47.2175 234.835 47.1695 234.786 47.2236C234.011 47.1157 233.23 46.9056 232.454 46.7977C232.352 46.8038 232.298 46.7557 232.196 46.7617C231.937 46.7258 231.781 46.6838 231.523 46.6478C231.108 46.5698 230.693 46.4918 230.278 46.4139C230.02 46.3779 229.761 46.3419 229.503 46.306C229.245 46.27 228.986 46.234 228.728 46.1981C228.523 46.2102 228.313 46.1201 228.109 46.1322C227.592 46.0603 227.075 45.9883 226.558 45.9164C226.401 45.8744 226.197 45.8865 226.041 45.8445C225.987 45.7964 225.939 45.8505 225.885 45.8025C225.109 45.6946 224.388 45.6347 223.667 45.5749C223.564 45.581 223.51 45.5329 223.408 45.5389C223.15 45.503 222.891 45.467 222.633 45.431C222.17 45.4072 221.755 45.3292 221.292 45.3053C221.088 45.3174 220.932 45.2754 220.727 45.2875C220.367 45.2576 220.108 45.2216 219.748 45.1917C219.489 45.1557 219.183 45.1739 218.924 45.1379C218.618 45.1561 218.305 45.072 217.999 45.0902C217.638 45.0603 217.277 45.0304 216.917 45.0004C216.712 45.0125 216.556 44.9705 216.352 44.9826C215.991 44.9527 215.528 44.9288 215.168 44.8989C214.807 44.869 214.501 44.8872 214.14 44.8572C214.038 44.8633 213.936 44.8693 213.779 44.8273C213.317 44.8035 212.752 44.7856 212.289 44.7618C211.982 44.7799 211.622 44.75 211.363 44.714C211.261 44.7201 211.261 44.7201 211.159 44.7261C210.492 44.7144 209.776 44.7567 209.109 44.7449C208.905 44.757 208.749 44.715 208.544 44.7271C207.673 44.7274 206.801 44.7278 205.882 44.7822C205.882 44.7822 205.882 44.7822 205.779 44.7883C205.473 44.8064 205.166 44.8246 204.86 44.8427C204.295 44.8249 203.682 44.8612 203.171 44.8914L203.069 44.8975C202.66 44.9217 202.251 44.9459 201.891 44.9159C201.38 44.9462 200.971 44.9704 200.46 45.0006C200.358 45.0067 200.358 45.0067 200.31 45.0608C199.799 45.091 199.288 45.1213 198.729 45.2056C198.321 45.2298 198.014 45.248 197.606 45.2722L197.503 45.2782C196.74 45.3747 195.923 45.4231 195.159 45.5195C195.009 45.5797 194.853 45.5377 194.703 45.5978C193.735 45.7064 192.822 45.863 191.854 45.9715L191.752 45.9776C191.547 45.9897 191.397 46.0498 191.193 46.0619C190.43 46.1584 189.618 46.309 188.909 46.4535C188.807 46.4595 188.657 46.5197 188.554 46.5257C188.098 46.604 187.743 46.6763 187.286 46.7546C187.136 46.8148 187.034 46.8208 186.884 46.881C186.277 47.0194 185.616 47.1098 184.961 47.3024C184.858 47.3085 184.81 47.3626 184.708 47.3686C184.456 47.4348 184.101 47.5071 183.849 47.5733C183.392 47.6516 182.941 47.8321 182.484 47.9104C182.184 48.0307 181.877 48.0489 181.577 48.1692C181.325 48.2354 181.024 48.3557 180.772 48.4219C180.621 48.4821 180.471 48.5422 180.267 48.5543C180.014 48.6205 179.714 48.7409 179.462 48.8071C179.059 48.9334 178.608 49.1139 178.206 49.2403C177.953 49.3065 177.701 49.3727 177.454 49.5411C177.004 49.7216 176.553 49.9021 176.15 50.0284C175.952 50.1427 175.748 50.1548 175.549 50.2691C174.948 50.5097 174.299 50.8045 173.699 51.0451C165.658 54.6483 161.477 59.356 160.956 64.4109L158.733 84.0236C159.356 78.9626 163.49 74.3091 171.476 70.6578C172.077 70.4171 172.726 70.1224 173.327 69.8817C173.525 69.7675 173.73 69.7554 173.928 69.6411C174.427 69.4065 174.877 69.226 175.382 69.0936Z" stroke="white" stroke-width="2" stroke-miterlimit="10"/>
            <path fill-rule="evenodd" clip-rule="evenodd" d="M148.195 384.071C145.696 378.939 144.235 376.377 141.142 374.829C138.026 373.27 135.066 373.623 129.482 374.657C129.316 374.688 129.148 374.719 128.977 374.751C123.909 375.697 116.455 377.087 108.674 373.194C100.882 369.295 97.5247 362.483 95.2418 357.852C95.1649 357.696 95.0891 357.542 95.0145 357.391C92.4929 352.291 90.9988 349.704 87.8776 348.142C84.79 346.597 81.8687 346.963 76.2628 348.036C76.1082 348.065 75.9511 348.095 75.7917 348.126C70.7007 349.105 63.2039 350.548 55.3397 346.607L61.8508 333.612C64.9994 335.189 67.9671 334.825 73.5366 333.76C73.7121 333.726 73.8907 333.692 74.0725 333.657C79.1291 332.682 86.5896 331.244 94.3817 335.143C102.173 339.042 105.531 345.853 107.813 350.485C107.89 350.641 107.966 350.795 108.041 350.946C110.562 356.046 112.057 358.633 115.178 360.195C118.294 361.754 121.254 361.401 126.838 360.366C127.003 360.336 127.172 360.304 127.342 360.272C132.41 359.327 139.865 357.937 147.646 361.83C155.452 365.736 158.773 372.581 161.025 377.221C161.105 377.385 161.183 377.546 161.26 377.705C163.747 382.811 165.231 385.408 168.379 386.985L161.868 399.981C154.008 396.043 150.673 389.174 148.409 384.511C148.336 384.362 148.265 384.215 148.195 384.071ZM74.3417 398.652C71.8202 393.552 70.3261 390.965 67.2049 389.403C64.1173 387.858 61.196 388.224 55.5901 389.296C55.4354 389.326 55.2784 389.356 55.119 389.387C50.028 390.366 42.5312 391.809 34.667 387.868L41.178 374.873C44.3267 376.45 47.2944 376.086 52.8639 375.021C53.0393 374.987 53.218 374.953 53.3998 374.918C58.4564 373.943 65.9169 372.505 73.709 376.404C81.5002 380.303 84.8579 387.114 87.1408 391.746C87.2177 391.902 87.2935 392.056 87.3681 392.207C89.8897 397.307 91.3838 399.894 94.505 401.455C97.621 403.015 100.581 402.662 106.165 401.627C106.331 401.596 106.499 401.565 106.67 401.533C111.738 400.588 119.192 399.197 126.973 403.091C134.779 406.997 138.101 413.842 140.352 418.482C140.432 418.646 140.51 418.807 140.587 418.965C143.074 424.072 144.559 426.669 147.707 428.246L141.196 441.242C133.335 437.304 130 430.435 127.736 425.772C127.664 425.623 127.592 425.476 127.522 425.332C125.023 420.199 123.563 417.638 120.469 416.09C117.353 414.531 114.393 414.884 108.809 415.918C108.644 415.949 108.475 415.98 108.305 416.012C103.237 416.958 95.7823 418.348 88.0009 414.454C80.2096 410.556 76.852 403.744 74.5691 399.113C74.4921 398.957 74.4164 398.803 74.3417 398.652ZM34.4462 430.648C29.3552 431.627 21.8585 433.069 13.9942 429.129L20.5053 416.134C23.654 417.711 26.6216 417.347 32.1911 416.282C32.3666 416.248 32.5453 416.214 32.7271 416.179C37.7837 415.204 45.2442 413.766 53.0363 417.665C60.8275 421.563 64.1852 428.375 66.468 433.007C66.545 433.163 66.6207 433.317 66.6954 433.468C69.2169 438.568 70.7111 441.155 73.8323 442.716C76.9483 444.275 79.9085 443.923 85.4927 442.888C85.658 442.857 85.8261 442.826 85.9969 442.794C91.0649 441.849 98.5192 440.458 106.301 444.352C114.106 448.257 117.428 455.102 119.68 459.743C119.759 459.907 119.838 460.068 119.915 460.226C122.401 465.333 123.886 467.93 127.034 469.507L120.523 482.503C112.663 478.565 109.328 471.696 107.063 467.033C106.991 466.884 106.92 466.737 106.85 466.593C104.351 461.46 102.89 458.899 99.7966 457.351C96.6805 455.792 93.7203 456.145 88.1361 457.179C87.9708 457.21 87.8028 457.241 87.632 457.273C82.564 458.218 75.1096 459.609 67.3281 455.715C59.5369 451.817 56.1792 445.005 53.8964 440.374C53.8194 440.218 53.7437 440.064 53.669 439.913C51.1475 434.813 49.6533 432.226 46.5321 430.664C43.4446 429.119 40.5233 429.485 34.9174 430.557C34.7627 430.587 34.6057 430.617 34.4462 430.648Z" fill="white"/>
        </g>
        <g opacity="0.2">
            <path d="M659.748 453.755C696.221 444.348 718.162 407.155 708.756 370.683C699.349 334.21 662.156 312.269 625.684 321.676C589.211 331.082 567.27 368.275 576.677 404.748" stroke="white" stroke-width="2" stroke-miterlimit="10"/>
            <path d="M628.7 333.371C598.686 341.112 580.63 371.718 588.371 401.732C596.112 431.746 626.718 449.802 656.732 442.061C686.746 434.32 704.802 403.714 697.061 373.7" stroke="white" stroke-width="2" stroke-miterlimit="10"/>
            <path d="M659.747 453.753C623.275 463.16 586.082 441.219 576.675 404.746" stroke="white" stroke-width="2" stroke-miterlimit="10" stroke-dasharray="11.75 11.75"/>
            <path fill-rule="evenodd" clip-rule="evenodd" d="M630.705 409.087L662.636 399.283L660.634 372.272L640.954 377.198L637.327 364.728L628.315 367.495L627.656 382.073L624.267 388.117L630.705 409.087ZM633.287 404.217L628.482 388.568L631.507 383.172L632.084 370.414L634.689 369.614L638.26 381.89L657.09 377.177L658.519 396.47L633.287 404.217Z" fill="white"/>
            <path fill-rule="evenodd" clip-rule="evenodd" d="M619.081 389.755L625.378 410.265L629.104 409.121L622.806 388.611L619.081 389.755Z" fill="white"/>
        </g>
        <g opacity="0.1">
            <path d="M1543.71 93.6857C1580 103.776 1617.6 82.5365 1627.69 46.2469C1637.78 9.95735 1616.54 -27.6406 1580.25 -37.7305C1543.96 -47.8203 1506.36 -26.5813 1496.27 9.70831" stroke="white" stroke-width="2" stroke-miterlimit="10"/>
            <path d="M1577.01 -26.0939C1547.15 -34.397 1516.21 -16.9191 1507.91 12.9442C1499.6 42.8075 1517.08 73.7475 1546.94 82.0506C1576.81 90.3537 1607.75 72.8757 1616.05 43.0124" stroke="white" stroke-width="2" stroke-miterlimit="10"/>
            <path d="M1543.71 93.6839C1507.42 83.5941 1486.18 45.9961 1496.27 9.70654" stroke="white" stroke-width="2" stroke-miterlimit="10" stroke-dasharray="11.75 11.75"/>
            <path fill-rule="evenodd" clip-rule="evenodd" d="M1540.89 40.4808L1573.45 47.9553L1585.22 23.5628L1565.71 17.9887L1568.8 5.37502L1559.62 3.26549L1551.76 15.5609L1545.8 19.1014L1540.89 40.4808ZM1545.56 37.5543L1549.22 21.5995L1554.54 18.439L1561.42 7.6787L1564.08 8.28846L1561.03 20.705L1579.69 26.0383L1571.29 43.4608L1545.56 37.5543Z" fill="white"/>
            <path fill-rule="evenodd" clip-rule="evenodd" d="M1540.49 17.9262L1535.69 38.8373L1539.49 39.7095L1544.29 18.7984L1540.49 17.9262Z" fill="white"/>
        </g>
        <g opacity="0.1">
            <path d="M379.053 62.0745C402.83 68.6855 427.464 54.7695 434.075 30.9925C440.686 7.21539 426.77 -17.419 402.993 -24.0299C379.216 -30.6408 354.581 -16.7249 347.97 7.0522" stroke="white" stroke-width="2" stroke-miterlimit="10"/>
            <path d="M400.873 -16.4052C381.306 -21.8454 361.034 -10.3938 355.594 9.17279C350.154 28.7393 361.605 49.0113 381.172 54.4516C400.739 59.8918 421.011 48.4402 426.451 28.8736" stroke="white" stroke-width="2" stroke-miterlimit="10"/>
            <path d="M379.052 62.0738C355.275 55.4629 341.359 30.8286 347.97 7.05151" stroke="white" stroke-width="2" stroke-miterlimit="10" stroke-dasharray="11.75 11.75"/>
            <path fill-rule="evenodd" clip-rule="evenodd" d="M377.206 27.2146L398.536 32.1119L406.249 16.1299L393.468 12.4777L395.495 4.21318L389.475 2.831L384.325 10.887L380.422 13.2067L377.206 27.2146ZM380.266 25.2972L382.666 14.8435L386.15 12.7727L390.657 5.72256L392.398 6.12208L390.402 14.2575L402.63 17.7518L397.121 29.1671L380.266 25.2972Z" fill="white"/>
            <path fill-rule="evenodd" clip-rule="evenodd" d="M376.943 12.4368L373.797 26.1378L376.286 26.7092L379.432 13.0082L376.943 12.4368Z" fill="white"/>
        </g>
        <g opacity="0.1">
            <path d="M1288.84 270.907C1267.35 283.045 1259.77 310.304 1271.91 331.792C1284.05 353.28 1311.3 360.859 1332.79 348.72C1354.28 336.582 1361.86 309.323 1349.72 287.835" stroke="white" stroke-width="2" stroke-miterlimit="10"/>
            <path d="M1328.9 341.83C1346.58 331.841 1352.82 309.409 1342.83 291.727C1332.84 274.044 1310.41 267.807 1292.73 277.796C1275.04 287.785 1268.81 310.217 1278.8 327.899" stroke="white" stroke-width="2" stroke-miterlimit="10"/>
            <path d="M1288.84 270.907C1310.32 258.769 1337.58 266.348 1349.72 287.836" stroke="white" stroke-width="2" stroke-miterlimit="10" stroke-dasharray="11.75 11.75"/>
            <path fill-rule="evenodd" clip-rule="evenodd" d="M1314.79 294.251L1296.25 305.871L1302.09 322.625L1313.71 316.171L1318.12 323.448L1323.36 320.168L1321.3 310.83L1322.42 306.43L1314.79 294.251ZM1313.98 297.771L1319.68 306.86L1318.68 310.788L1320.48 318.96L1318.96 319.908L1314.62 312.744L1303.5 318.92L1299.33 306.953L1313.98 297.771Z" fill="white"/>
            <path fill-rule="evenodd" clip-rule="evenodd" d="M1325.43 304.514L1317.96 292.602L1315.8 293.958L1323.26 305.87L1325.43 304.514Z" fill="white"/>
        </g>
    </g>
</svg>
