<svg width="24" height="28" viewBox="0 0 24 28" fill="none" xmlns="http://www.w3.org/2000/svg">
    <path d="M11.47 0.12185C11.6508 0.0339682 11.8496 -0.00746919 12.0494 0.00110468C12.2492 0.00967854 12.444 0.0680065 12.617 0.171069C16.2114 2.29261 19.8054 4.41414 23.3991 6.53568C23.7376 6.74677 24 7.12467 23.9963 7.54303C24.0012 11.82 24.0012 16.0974 23.9963 20.3751C24.0192 20.8224 23.7557 21.2544 23.3762 21.4634C19.9078 23.5087 16.4417 25.5553 12.9779 27.6032C12.5175 27.9384 11.8926 28.1851 11.3774 27.8165L0.911459 21.6367C0.605953 21.4645 0.27277 21.2818 0.121614 20.9389C-0.04338 20.6753 0.00984494 20.3554 0.00292583 20.0595V7.54303C-0.00825119 7.10553 0.277562 6.70083 0.646936 6.50396C4.25499 4.38042 7.85665 2.24211 11.47 0.12185ZM11.5861 1.56945C11.0581 1.83195 10.5647 2.16336 10.0516 2.45485C7.30525 4.0758 4.55996 5.69676 1.81573 7.31772C1.35268 7.58733 1.2175 8.15718 1.24677 8.66687C1.21856 12.226 1.25688 15.7834 1.23453 19.3415C1.22335 19.7374 1.29467 20.1618 1.56877 20.4587C1.80243 20.7092 2.12496 20.8416 2.40865 21.022L11.3583 26.3049C11.5498 26.424 11.7692 26.4873 11.9931 26.4882C12.2169 26.4891 12.4368 26.4274 12.6292 26.3098C15.7993 24.4355 18.97 22.5631 22.1414 20.6928C22.5337 20.468 22.7636 19.9994 22.7492 19.5443C22.7471 15.8161 22.7471 12.0882 22.7492 8.36062C22.7419 8.13533 22.6775 7.91591 22.5623 7.72407C22.4471 7.53223 22.2851 7.37463 22.0925 7.26686C18.9395 5.40746 15.7881 3.54715 12.6383 1.68593C12.3285 1.47921 11.9304 1.46827 11.5861 1.56945ZM11.4429 5.19527C11.6342 5.08546 11.8507 5.03056 12.0697 5.03633C12.2887 5.04211 12.5022 5.10834 12.6878 5.22808C14.78 6.49685 16.9021 7.7153 18.9783 9.01032C19.0111 9.03025 19.0389 9.05771 19.0596 9.09054C19.0802 9.12337 19.0932 9.16068 19.0975 9.19954C19.113 9.35376 19.0661 9.5129 18.9123 9.57798C16.843 10.838 14.7672 12.086 12.6915 13.3411C12.5078 13.4634 12.295 13.5318 12.0762 13.5386C11.8574 13.5455 11.6409 13.4906 11.4503 13.3799C10.0835 12.5581 8.7187 11.734 7.35581 10.9074C7.24085 10.8325 7.10353 10.8391 6.97313 10.8489C6.95937 10.8499 6.94598 10.854 6.93393 10.8609C6.92187 10.8678 6.91145 10.8773 6.90341 10.8889C6.83315 10.9911 6.7762 11.1043 6.79164 11.235C6.78738 13.7321 6.79483 16.2281 6.78844 18.7273C6.78844 18.9417 6.69158 19.1052 6.51274 19.1725C6.46969 19.1887 6.42217 19.1872 6.38022 19.1681C6.00392 18.9958 5.64732 18.782 5.28061 18.5911C5.08705 18.4891 4.9239 18.3352 4.80839 18.1458C4.69289 17.9563 4.6293 17.7384 4.62436 17.5149C4.62223 15.0116 4.62223 12.508 4.62436 10.004C4.62801 9.77728 4.68875 9.55539 4.80069 9.35997C4.91262 9.16455 5.07191 9.00225 5.26305 8.88891C7.32246 7.65733 9.3824 6.42612 11.4429 5.19527ZM11.4429 7.45225C10.6222 7.94043 9.80252 8.43008 8.98393 8.92118C8.85034 8.98625 8.77104 9.10985 8.70664 9.24165C8.70016 9.2557 8.69712 9.27116 8.69777 9.28669C8.69842 9.30222 8.70274 9.31736 8.71036 9.33079C8.77388 9.45699 8.87193 9.56136 8.99245 9.63103C9.81316 10.1287 10.6349 10.6245 11.4578 11.1185C11.6331 11.2217 11.8315 11.2762 12.0335 11.2768C12.2355 11.2774 12.4342 11.224 12.6101 11.1218C13.3259 10.692 14.0386 10.2561 14.7555 9.82517C14.9754 9.68626 15.2377 9.57634 15.3618 9.33024C15.3678 9.31728 15.371 9.30307 15.371 9.28868C15.371 9.27429 15.3678 9.26008 15.3618 9.24712C15.3005 9.1104 15.2202 8.98188 15.0802 8.91899C14.2641 8.4308 13.448 7.9428 12.6319 7.45499C12.4511 7.34924 12.2466 7.29359 12.0385 7.29349C11.8305 7.2934 11.6259 7.34886 11.445 7.45444L11.4429 7.45225Z" fill="#23024D"/>
</svg>
