<svg width="184" height="144" viewBox="0 0 184 144" fill="none" xmlns="http://www.w3.org/2000/svg">
    <g clip-path="url(#clip0_7385_47802)">
        <g opacity="0.3">
            <path opacity="0.1" d="M139.211 70.5547C139.211 70.9787 138.867 71.3224 138.443 71.3224C138.019 71.3224 137.676 70.9787 137.676 70.5547C137.676 70.1308 138.019 69.7871 138.443 69.7871C138.867 69.7871 139.211 70.1308 139.211 70.5547Z" fill="#23024D"/>
            <path opacity="0.1" d="M32.3518 60.5821C32.3518 61.006 32.0082 61.3497 31.5843 61.3497C31.1604 61.3497 30.8168 61.006 30.8168 60.5821C30.8168 60.1581 31.1604 59.8145 31.5843 59.8145C32.0082 59.8145 32.3518 60.1581 32.3518 60.5821Z" fill="#23024D"/>
            <path d="M47.008 105.426C47.008 105.956 46.5785 106.386 46.0486 106.386C45.5188 106.386 45.0893 105.956 45.0893 105.426C45.0893 104.896 45.5188 104.467 46.0486 104.467C46.5785 104.467 47.008 104.896 47.008 105.426Z" fill="#23024D"/>
            <path d="M116.571 85.7193C116.571 86.2492 116.141 86.6788 115.612 86.6788C115.082 86.6788 114.652 86.2492 114.652 85.7193C114.652 85.1894 115.082 84.7598 115.612 84.7598C116.141 84.7598 116.571 85.1894 116.571 85.7193Z" fill="#23024D"/>
            <path fill-rule="evenodd" clip-rule="evenodd" d="M60.7359 131.411C60.3211 131.411 59.9848 131.747 59.9848 132.162C59.9848 132.577 60.3211 132.913 60.7359 132.913C61.1507 132.913 61.487 132.577 61.487 132.162C61.487 131.747 61.1507 131.411 60.7359 131.411ZM59.5683 132.162C59.5683 131.517 60.0911 130.994 60.7359 130.994C61.3808 130.994 61.9035 131.517 61.9035 132.162C61.9035 132.807 61.3808 133.33 60.7359 133.33C60.0911 133.33 59.5683 132.807 59.5683 132.162Z" fill="#23024D"/>
            <path fill-rule="evenodd" clip-rule="evenodd" d="M60.927 113.509C61.3328 113.509 61.6617 113.18 61.6617 112.774C61.6617 112.369 61.3328 112.04 60.927 112.04C60.5213 112.04 60.1923 112.369 60.1923 112.774C60.1923 113.18 60.5213 113.509 60.927 113.509ZM60.927 113.926C61.5629 113.926 62.0783 113.41 62.0783 112.774C62.0783 112.139 61.5629 111.623 60.927 111.623C60.2912 111.623 59.7758 112.139 59.7758 112.774C59.7758 113.41 60.2912 113.926 60.927 113.926Z" fill="#23024D"/>
            <path fill-rule="evenodd" clip-rule="evenodd" d="M103.611 20.8745C104.016 20.8745 104.345 20.5455 104.345 20.1397C104.345 19.7339 104.016 19.4049 103.611 19.4049C103.205 19.4049 102.876 19.7339 102.876 20.1397C102.876 20.5455 103.205 20.8745 103.611 20.8745ZM103.611 21.2911C104.246 21.2911 104.762 20.7756 104.762 20.1397C104.762 19.5038 104.246 18.9883 103.611 18.9883C102.975 18.9883 102.459 19.5038 102.459 20.1397C102.459 20.7756 102.975 21.2911 103.611 21.2911Z" fill="#23024D"/>
            <path fill-rule="evenodd" clip-rule="evenodd" d="M40.7146 33.7867C41.1204 33.7867 41.4493 33.4577 41.4493 33.0518C41.4493 32.646 41.1204 32.317 40.7146 32.317C40.3089 32.317 39.9799 32.646 39.9799 33.0518C39.9799 33.4577 40.3089 33.7867 40.7146 33.7867ZM40.7146 34.2033C41.3504 34.2033 41.8659 33.6877 41.8659 33.0518C41.8659 32.4159 41.3504 31.9004 40.7146 31.9004C40.0788 31.9004 39.5634 32.4159 39.5634 33.0518C39.5634 33.6877 40.0788 34.2033 40.7146 34.2033Z" fill="#23024D"/>
            <path fill-rule="evenodd" clip-rule="evenodd" d="M153.178 68.3648C153.583 68.3648 153.912 68.0358 153.912 67.6299C153.912 67.2241 153.583 66.8951 153.178 66.8951C152.772 66.8951 152.443 67.2241 152.443 67.6299C152.443 68.0358 152.772 68.3648 153.178 68.3648ZM153.178 68.7814C153.813 68.7814 154.329 68.2659 154.329 67.6299C154.329 66.994 153.813 66.4785 153.178 66.4785C152.542 66.4785 152.026 66.994 152.026 67.6299C152.026 68.2659 152.542 68.7814 153.178 68.7814Z" fill="#23024D"/>
            <path d="M97.7668 39.4678C97.7668 40.1038 97.2513 40.6193 96.6155 40.6193C95.9797 40.6193 95.4643 40.1038 95.4643 39.4678C95.4643 38.8319 95.9797 38.3164 96.6155 38.3164C97.2513 38.3164 97.7668 38.8319 97.7668 39.4678Z" fill="#23024D"/>
            <path fill-rule="evenodd" clip-rule="evenodd" d="M96.6155 40.2027C97.0213 40.2027 97.3502 39.8737 97.3502 39.4678C97.3502 39.062 97.0213 38.733 96.6155 38.733C96.2097 38.733 95.8808 39.062 95.8808 39.4678C95.8808 39.8737 96.2097 40.2027 96.6155 40.2027ZM96.6155 40.6193C97.2513 40.6193 97.7668 40.1038 97.7668 39.4678C97.7668 38.8319 97.2513 38.3164 96.6155 38.3164C95.9797 38.3164 95.4643 38.8319 95.4643 39.4678C95.4643 40.1038 95.9797 40.6193 96.6155 40.6193Z" fill="#23024D"/>
            <path d="M79.4791 12.2543L83.9319 28.8754L84.3343 28.7675L79.8814 12.1465L79.4791 12.2543Z" fill="#23024D"/>
            <path d="M61.6209 13.8597L63.1169 16.4513L63.4777 16.243L61.9816 13.6514L61.6209 13.8597Z" fill="#23024D"/>
            <path d="M136.326 97.521L138.918 99.0173L139.126 98.6565L136.535 97.1602L136.326 97.521Z" fill="#23024D"/>
            <path d="M141.078 100.264L147.772 104.13L147.98 103.769L141.286 99.9035L141.078 100.264Z" fill="#23024D"/>
            <path d="M156.841 109.367L150.147 105.501L150.355 105.14L157.049 109.006L156.841 109.367Z" fill="#23024D"/>
            <path d="M68.2273 25.3062L64.3625 18.6111L64.7232 18.4028L68.588 25.0979L68.2273 25.3062Z" fill="#23024D"/>
            <path d="M69.6 27.6819L73.4648 34.3771L73.8255 34.1688L69.9608 27.4736L69.6 27.6819Z" fill="#23024D"/>
            <path d="M49.9687 61.1133L51.8954 61.6296L52.0032 61.2272L50.0765 60.7108L49.9687 61.1133Z" fill="#23024D"/>
            <path d="M48.2833 60.6613L43.2256 59.3059L43.3334 58.9035L48.3911 60.2589L48.2833 60.6613Z" fill="#23024D"/>
            <path d="M36.4814 57.4987L41.5391 58.8542L41.6469 58.4518L36.5892 57.0963L36.4814 57.4987Z" fill="#23024D"/>
            <path d="M126.738 126.818L125.741 125.09L126.102 124.882L127.099 126.609L126.738 126.818Z" fill="#23024D"/>
            <path d="M122.25 119.043L124.868 123.578L125.229 123.37L122.611 118.834L122.25 119.043Z" fill="#23024D"/>
            <path d="M121.377 117.531L118.759 112.996L119.12 112.787L121.738 117.323L121.377 117.531Z" fill="#23024D"/>
            <path d="M46.2351 45.4037L39.5411 41.5383L39.7494 41.1775L46.4433 45.0429L46.2351 45.4037Z" fill="#23024D"/>
            <path d="M48.61 46.7755L55.3039 50.6409L55.5122 50.2801L48.8182 46.4147L48.61 46.7755Z" fill="#23024D"/>
            <path d="M134.364 111.896L128.898 106.43L129.193 106.135L134.659 111.602L134.364 111.896Z" fill="#23024D"/>
            <path d="M136.304 113.836L141.77 119.303L142.064 119.008L136.599 113.541L136.304 113.836Z" fill="#23024D"/>
            <path d="M59.5967 37.1157L62.4176 39.9371L62.7122 39.6425L59.8912 36.8211L59.5967 37.1157Z" fill="#23024D"/>
            <path d="M57.1272 34.647L49.5459 27.0644L49.8404 26.7698L57.4218 34.3524L57.1272 34.647Z" fill="#23024D"/>
            <path d="M41.0163 18.4028L46.9031 24.4191L47.1977 24.1246L41.3109 18.1082L41.0163 18.4028Z" fill="#23024D"/>
            <path d="M115.855 148.148L114.823 144.294L115.225 144.186L116.258 148.04L115.855 148.148Z" fill="#23024D"/>
            <path d="M111.145 130.563L113.92 140.921L114.323 140.813L111.548 130.455L111.145 130.563Z" fill="#23024D"/>
            <path d="M110.178 126.95L107.467 116.833L107.87 116.725L110.58 126.842L110.178 126.95Z" fill="#23024D"/>
            <path d="M156.883 89.9433L140.264 85.4897L140.372 85.0873L156.99 89.5409L156.883 89.9433Z" fill="#23024D"/>
            <path d="M53.7827 99.0181L56.3739 97.5218L56.1657 97.161L53.5744 98.6573L53.7827 99.0181Z" fill="#23024D"/>
            <path d="M51.6225 100.264L44.9285 104.129L44.7202 103.769L51.4142 99.9031L51.6225 100.264Z" fill="#23024D"/>
            <path d="M35.8596 109.367L42.5536 105.501L42.3453 105.14L35.6514 109.006L35.8596 109.367Z" fill="#23024D"/>
            <path d="M131.08 13.8597L129.584 16.4513L129.223 16.243L130.719 13.6514L131.08 13.8597Z" fill="#23024D"/>
            <path d="M124.472 25.3062L128.337 18.6111L127.976 18.4028L124.111 25.0979L124.472 25.3062Z" fill="#23024D"/>
            <path d="M123.101 27.6819L119.236 34.3771L118.876 34.1687L122.74 27.4736L123.101 27.6819Z" fill="#23024D"/>
            <path d="M142.732 61.1132L140.805 61.6296L140.698 61.2272L142.624 60.7108L142.732 61.1132Z" fill="#23024D"/>
            <path d="M144.417 60.6613L149.475 59.3059L149.367 58.9035L144.309 60.2589L144.417 60.6613Z" fill="#23024D"/>
            <path d="M156.219 57.4987L151.162 58.8542L151.054 58.4518L156.112 57.0963L156.219 57.4987Z" fill="#23024D"/>
            <path d="M65.9622 126.818L66.9595 125.09L66.5988 124.882L65.6014 126.609L65.9622 126.818Z" fill="#23024D"/>
            <path d="M70.4506 119.043L67.8325 123.578L67.4718 123.37L70.0898 118.834L70.4506 119.043Z" fill="#23024D"/>
            <path d="M71.3234 117.531L73.9414 112.996L73.5807 112.787L70.9626 117.323L71.3234 117.531Z" fill="#23024D"/>
            <path d="M146.465 45.4041L153.158 41.5387L152.95 41.1779L146.256 45.0433L146.465 45.4041Z" fill="#23024D"/>
            <path d="M144.09 46.7755L137.396 50.6409L137.188 50.2801L143.882 46.4147L144.09 46.7755Z" fill="#23024D"/>
            <path d="M58.3355 111.896L63.8011 106.43L63.5066 106.135L58.041 111.602L58.3355 111.896Z" fill="#23024D"/>
            <path d="M56.3951 113.836L50.9295 119.302L50.635 119.008L56.1006 113.541L56.3951 113.836Z" fill="#23024D"/>
            <path d="M133.102 37.1156L130.282 39.9371L129.987 39.6425L132.808 36.8211L133.102 37.1156Z" fill="#23024D"/>
            <path d="M135.572 34.647L143.153 27.0644L142.859 26.7698L135.277 34.3524L135.572 34.647Z" fill="#23024D"/>
            <path d="M150.619 19.6826L145.796 24.4191L145.501 24.1246L150.325 19.388L150.619 19.6826Z" fill="#23024D"/>
            <path d="M76.8453 148.148L77.8779 144.294L77.4755 144.186L76.443 148.04L76.8453 148.148Z" fill="#23024D"/>
            <path d="M81.5553 130.563L78.7803 140.921L78.378 140.813L81.153 130.455L81.5553 130.563Z" fill="#23024D"/>
            <path d="M82.523 126.95L85.2334 116.833L84.8311 116.725L82.1207 126.842L82.523 126.95Z" fill="#23024D"/>
            <path d="M35.8182 89.9434L52.4364 85.4898L52.3286 85.0873L35.7104 89.5409L35.8182 89.9434Z" fill="#23024D"/>
            <path d="M113.221 12.2543L108.768 28.8754L108.366 28.7675L112.819 12.1465L113.221 12.2543Z" fill="#23024D"/>
            <path d="M-9.1841 72.565L-13 72.565L-13 72.1484L-9.1841 72.1484L-9.1841 72.565Z" fill="#23024D"/>
            <path d="M8.36871 72.565L-5.36853 72.565L-5.36853 72.1484L8.36871 72.1484L8.36871 72.565Z" fill="#23024D"/>
            <path d="M174.361 72.565L12.9481 72.565L12.9481 72.1484L174.361 72.1484L174.361 72.565Z" fill="#23024D"/>
            <path d="M196.875 72.565L183.137 72.565L183.137 72.1484L196.875 72.1484L196.875 72.565Z" fill="#23024D"/>
            <path d="M204.506 72.565L200.69 72.565L200.69 72.1484L204.506 72.1484L204.506 72.565Z" fill="#23024D"/>
            <path d="M94.5158 -52.1387L94.5158 -46.988L94.0993 -46.988L94.0993 -52.1387L94.5158 -52.1387Z" fill="#23024D"/>
            <path d="M94.5158 -41.8374L94.5158 -23.2951L94.0993 -23.2951L94.0993 -41.8374L94.5158 -41.8374Z" fill="#23024D"/>
            <path d="M94.5158 -11.4483L94.5158 161.739L94.0993 161.739L94.0993 -11.4483L94.5158 -11.4483Z" fill="#23024D"/>
            <path d="M94.5158 167.92L94.5158 186.462L94.0993 186.462L94.0993 167.92L94.5158 167.92Z" fill="#23024D"/>
            <path d="M94.5158 191.613L94.5158 196.763L94.0993 196.763L94.0993 191.613L94.5158 191.613Z" fill="#23024D"/>
            <path fill-rule="evenodd" clip-rule="evenodd" d="M93.4563 25.4684C93.7395 25.4634 94.0233 25.4609 94.3076 25.4609C94.592 25.4609 94.8757 25.4634 95.1589 25.4684L95.1516 25.8849C94.8709 25.88 94.5895 25.8775 94.3076 25.8775C94.0257 25.8775 93.7444 25.88 93.4636 25.8849L93.4563 25.4684ZM96.429 25.5074C96.9965 25.5323 97.5614 25.5671 98.1236 25.6117L98.0906 26.027C97.5334 25.9828 96.9733 25.9482 96.4107 25.9236L96.429 25.5074ZM90.4917 25.6117C91.0538 25.5671 91.6187 25.5323 92.1863 25.5074L92.2045 25.9236C91.6419 25.9482 91.0819 25.9828 90.5246 26.027L90.4917 25.6117ZM99.3885 25.7289C99.9529 25.7888 100.514 25.8586 101.073 25.9381L101.014 26.3505C100.461 26.2717 99.904 26.2026 99.3445 26.1432L99.3885 25.7289ZM87.5426 25.9381C88.1009 25.8586 88.6623 25.7888 89.2267 25.7289L89.2707 26.1432C88.7112 26.2026 88.1547 26.2717 87.6013 26.3505L87.5426 25.9381ZM102.33 26.1343C102.889 26.2291 103.444 26.3336 103.996 26.4478L103.912 26.8557C103.365 26.7426 102.814 26.639 102.261 26.545L102.33 26.1343ZM84.6193 26.4478C85.1711 26.3336 85.7263 26.2291 86.2849 26.1343L86.3546 26.545C85.8009 26.639 85.2506 26.7426 84.7037 26.8557L84.6193 26.4478ZM81.7316 27.1403C82.2757 26.9916 82.8237 26.8523 83.3755 26.7226L83.4708 27.1281C82.9239 27.2567 82.3807 27.3948 81.8414 27.5422L81.7316 27.1403ZM105.24 26.7226C105.792 26.8523 106.34 26.9916 106.884 27.1403L106.774 27.5422C106.235 27.3948 105.691 27.2567 105.144 27.1281L105.24 26.7226ZM78.8942 28.0127C79.4284 27.8299 79.9669 27.6563 80.5096 27.4921L80.6302 27.8909C80.0923 28.0536 79.5586 28.2257 79.0291 28.4069L78.8942 28.0127ZM108.106 27.4921C108.648 27.6563 109.187 27.8299 109.721 28.0127L109.586 28.4069C109.057 28.2257 108.523 28.0536 107.985 27.8909L108.106 27.4921ZM76.1181 29.0616C76.6397 28.8455 77.166 28.6385 77.6968 28.4407L77.8422 28.8311C77.3161 29.0272 76.7944 29.2324 76.2775 29.4465L76.1181 29.0616ZM110.918 28.4407C111.449 28.6385 111.976 28.8455 112.497 29.0616L112.338 29.4465C111.821 29.2324 111.299 29.0272 110.773 28.8311L110.918 28.4407ZM73.4125 30.2833C73.9195 30.0349 74.4316 29.7952 74.9487 29.5646L75.1183 29.945C74.6059 30.1737 74.0983 30.4112 73.5957 30.6574L73.4125 30.2833ZM113.667 29.5646C114.184 29.7952 114.696 30.0349 115.203 30.2833L115.019 30.6574C114.517 30.4112 114.009 30.1737 113.497 29.945L113.667 29.5646ZM70.7888 31.6724C71.2795 31.3926 71.7758 31.1212 72.2773 30.8585L72.4705 31.2275C71.9734 31.4879 71.4815 31.7569 70.9951 32.0343L70.7888 31.6724ZM116.338 30.8585C116.839 31.1212 117.336 31.3926 117.826 31.6724L117.62 32.0343C117.134 31.7569 116.642 31.4879 116.145 31.2275L116.338 30.8585ZM68.2577 33.2229C68.7301 32.9128 69.2085 32.6108 69.6926 32.3172L69.9086 32.6734C69.4287 32.9644 68.9545 33.2638 68.4862 33.5712L68.2577 33.2229ZM118.923 32.3172C119.407 32.6108 119.885 32.9128 120.358 33.2229L120.129 33.5712C119.661 33.2638 119.186 32.9644 118.707 32.6734L118.923 32.3172ZM65.8284 34.9286C66.2805 34.5896 66.7389 34.2585 67.2034 33.9354L67.4412 34.2774C66.9808 34.5977 66.5264 34.9259 66.0783 35.2619L65.8284 34.9286ZM121.412 33.9354C121.876 34.2585 122.335 34.5896 122.787 34.9286L122.537 35.2619C122.089 34.9259 121.634 34.5977 121.174 34.2774L121.412 33.9354ZM63.51 36.7829C63.9402 36.4162 64.3772 36.0571 64.8205 35.7057L65.0792 36.0322C64.6397 36.3805 64.2067 36.7365 63.7802 37.1L63.51 36.7829ZM123.795 35.7057C124.238 36.0571 124.675 36.4162 125.105 36.7829L124.835 37.1C124.409 36.7365 123.975 36.3805 123.536 36.0322L123.795 35.7057ZM61.312 38.7781C61.7187 38.3852 62.1324 37.9994 62.5529 37.6211L62.8315 37.9308C62.4146 38.3059 62.0045 38.6882 61.6014 39.0777L61.312 38.7781ZM126.062 37.6211C126.483 37.9994 126.897 38.3852 127.303 38.7781L127.014 39.0777C126.611 38.6882 126.201 38.3059 125.784 37.9308L126.062 37.6211ZM59.2427 40.9066C59.6241 40.489 60.0129 40.0782 60.409 39.6745L60.7063 39.9662C60.3137 40.3664 59.9283 40.7736 59.5503 41.1876L59.2427 40.9066ZM128.206 39.6745C128.602 40.0782 128.991 40.489 129.372 40.9066L129.065 41.1876C128.687 40.7736 128.301 40.3664 127.909 39.9662L128.206 39.6745ZM57.3105 43.1602C57.6651 42.7195 58.0275 42.2852 58.3974 41.8576L58.7124 42.1302C58.3457 42.554 57.9865 42.9845 57.635 43.4214L57.3105 43.1602ZM130.218 41.8576C130.588 42.2852 130.95 42.7195 131.305 43.1602L130.98 43.4214C130.629 42.9845 130.27 42.554 129.903 42.1302L130.218 41.8576ZM55.5231 45.5304C55.8494 45.0682 56.1838 44.6122 56.5262 44.1624L56.8576 44.4147C56.5182 44.8606 56.1867 45.3126 55.8633 45.7707L55.5231 45.5304ZM132.089 44.1624C132.431 44.6122 132.766 45.0682 133.092 45.5304L132.752 45.7707C132.428 45.3126 132.097 44.8606 131.758 44.4147L132.089 44.1624ZM53.8877 48.0086C54.1845 47.5265 54.4897 47.0502 54.8031 46.5798L55.1497 46.8109C54.8391 47.2771 54.5365 47.7492 54.2424 48.227L53.8877 48.0086ZM133.812 46.5798C134.126 47.0502 134.431 47.5265 134.727 48.0086L134.373 48.227C134.079 47.7492 133.776 47.2771 133.465 46.8109L133.812 46.5798ZM52.4121 50.5843C52.6779 50.0844 52.9525 49.5898 53.2356 49.1007L53.5961 49.3095C53.3154 49.7942 53.0433 50.2844 52.7799 50.7799L52.4121 50.5843ZM135.38 49.1007C135.663 49.5898 135.937 50.0844 136.203 50.5843L135.835 50.7799C135.572 50.2844 135.3 49.7942 135.019 49.3095L135.38 49.1007ZM51.1022 53.2483C51.3358 52.7325 51.5785 52.2217 51.83 51.716L52.2029 51.9015C51.9536 52.4027 51.7132 52.909 51.4816 53.4202L51.1022 53.2483ZM136.785 51.716C137.037 52.2217 137.279 52.7325 137.513 53.2483L137.134 53.4202C136.902 52.909 136.662 52.4027 136.412 51.9015L136.785 51.716ZM49.9637 55.9907C50.1641 55.4609 50.3739 54.9357 50.5927 54.4152L50.9767 54.5767C50.7598 55.0926 50.5519 55.6131 50.3533 56.1381L49.9637 55.9907ZM138.022 54.4152C138.241 54.9357 138.451 55.4609 138.652 55.9907L138.262 56.1381C138.063 55.6131 137.855 55.0926 137.639 54.5767L138.022 54.4152ZM49.002 58.7999C49.1684 58.2579 49.3445 57.72 49.5299 57.1865L49.9233 57.3232C49.7396 57.852 49.5651 58.3851 49.4001 58.9223L49.002 58.7999ZM139.085 57.1865C139.271 57.72 139.447 58.2579 139.613 58.7999L139.215 58.9223C139.05 58.3851 138.876 57.852 138.692 57.3232L139.085 57.1865ZM48.2214 61.6634C48.353 61.1119 48.4944 60.5643 48.6452 60.0206L49.0466 60.132C48.8971 60.6708 48.757 61.2136 48.6266 61.7601L48.2214 61.6634ZM139.97 60.0206C140.121 60.5643 140.262 61.1119 140.394 61.6634L139.989 61.7601C139.858 61.2136 139.718 60.6708 139.569 60.132L139.97 60.0206ZM47.6245 64.5716C47.7207 64.0131 47.8268 63.458 47.9427 62.9064L48.3503 62.992C48.2355 63.5387 48.1303 64.0889 48.0349 64.6424L47.6245 64.5716ZM140.673 62.9064C140.788 63.458 140.895 64.0131 140.991 64.5716L140.58 64.6424C140.485 64.0889 140.38 63.5387 140.265 62.992L140.673 62.9064ZM47.213 67.5132C47.2738 66.9488 47.3447 66.3874 47.4253 65.8292L47.8375 65.8888C47.7576 66.442 47.6874 66.9984 47.6272 67.5578L47.213 67.5132ZM141.19 65.8292C141.271 66.3874 141.341 66.9488 141.402 67.5132L140.988 67.5578C140.928 66.9984 140.858 66.4421 140.778 65.8888L141.19 65.8292ZM46.9881 70.4732C47.0133 69.9056 47.0487 69.3406 47.094 68.7783L47.5092 68.8118C47.4643 69.3691 47.4292 69.9291 47.4042 70.4918L46.9881 70.4732ZM141.521 68.7783C141.567 69.3406 141.602 69.9056 141.627 70.4733L141.211 70.4918C141.186 69.9291 141.151 69.3691 141.106 68.8118L141.521 68.7783ZM46.9409 72.595C46.9409 72.3106 46.9435 72.0268 46.9485 71.7436L47.365 71.751C47.36 72.0317 47.3575 72.3131 47.3575 72.595C47.3575 72.877 47.36 73.1583 47.365 73.4391L46.9485 73.4465C46.9435 73.1633 46.9409 72.8795 46.9409 72.595ZM141.667 71.7436C141.672 72.0268 141.674 72.3106 141.674 72.595C141.674 72.8795 141.672 73.1633 141.667 73.4465L141.25 73.4391C141.255 73.1583 141.258 72.877 141.258 72.595C141.258 72.3131 141.255 72.0317 141.25 71.751L141.667 71.7436ZM47.094 76.4117C47.0487 75.8495 47.0133 75.2844 46.9881 74.7168L47.4042 74.6983C47.4292 75.2609 47.4643 75.821 47.5092 76.3783L47.094 76.4117ZM141.627 74.7168C141.602 75.2845 141.567 75.8495 141.521 76.4117L141.106 76.3783C141.151 75.821 141.186 75.2609 141.211 74.6983L141.627 74.7168ZM47.4253 79.3608C47.3447 78.8026 47.2738 78.2413 47.213 77.6769L47.6272 77.6323C47.6874 78.1916 47.7576 78.748 47.8375 79.3013L47.4253 79.3608ZM141.402 77.6769C141.341 78.2413 141.271 78.8026 141.19 79.3609L140.778 79.3013C140.858 78.748 140.928 78.1916 140.988 77.6323L141.402 77.6769ZM47.9427 82.2837C47.8268 81.7321 47.7207 81.177 47.6245 80.6185L48.0349 80.5477C48.1303 81.1012 48.2355 81.6514 48.3503 82.198L47.9427 82.2837ZM140.991 80.6185C140.895 81.177 140.788 81.7321 140.673 82.2837L140.265 82.1981C140.38 81.6514 140.485 81.1012 140.58 80.5477L140.991 80.6185ZM48.6452 85.1695C48.4944 84.6258 48.353 84.0781 48.2214 83.5267L48.6266 83.43C48.757 83.9765 48.8971 84.5192 49.0466 85.0581L48.6452 85.1695ZM140.394 83.5267C140.262 84.0781 140.121 84.6258 139.97 85.1695L139.569 85.0581C139.718 84.5192 139.858 83.9765 139.989 83.43L140.394 83.5267ZM49.5298 88.0036C49.3445 87.4701 49.1684 86.9322 49.002 86.3901L49.4001 86.2678C49.5651 86.805 49.7396 87.3381 49.9233 87.8668L49.5298 88.0036ZM139.613 86.3901C139.447 86.9322 139.271 87.4701 139.085 88.0036L138.692 87.8668C138.876 87.3381 139.05 86.805 139.215 86.2678L139.613 86.3901ZM50.5927 90.7748C50.3739 90.2544 50.1641 89.7291 49.9637 89.1994L50.3533 89.0519C50.5519 89.577 50.7598 90.0975 50.9767 90.6134L50.5927 90.7748ZM138.652 89.1994C138.451 89.7291 138.241 90.2544 138.022 90.7749L137.639 90.6134C137.855 90.0975 138.063 89.577 138.262 89.0519L138.652 89.1994ZM51.83 93.4741C51.5785 92.9684 51.3358 92.4576 51.1022 91.9418L51.4816 91.7699C51.7132 92.2811 51.9536 92.7873 52.2029 93.2885L51.83 93.4741ZM137.513 91.9418C137.279 92.4576 137.037 92.9684 136.785 93.4741L136.412 93.2885C136.662 92.7873 136.902 92.2811 137.134 91.7699L137.513 91.9418ZM53.2356 96.0894C52.9524 95.6003 52.6779 95.1057 52.4121 94.6058L52.7799 94.4102C53.0433 94.9056 53.3154 95.3959 53.596 95.8806L53.2356 96.0894ZM136.203 94.6058C135.937 95.1057 135.663 95.6003 135.38 96.0894L135.019 95.8806C135.3 95.3959 135.572 94.9057 135.835 94.4102L136.203 94.6058ZM54.8031 98.6103C54.4897 98.1399 54.1845 97.6635 53.8877 97.1815L54.2424 96.9631C54.5365 97.4409 54.839 97.913 55.1497 98.3792L54.8031 98.6103ZM134.727 97.1815C134.431 97.6635 134.126 98.1399 133.812 98.6102L133.465 98.3792C133.776 97.913 134.079 97.4409 134.373 96.9631L134.727 97.1815ZM56.5262 101.028C56.1838 100.578 55.8494 100.122 55.5231 99.6596L55.8633 99.4193C56.1867 99.8774 56.5182 100.33 56.8576 100.775L56.5262 101.028ZM133.092 99.6596C132.766 100.122 132.431 100.578 132.089 101.028L131.758 100.775C132.097 100.33 132.428 99.8775 132.752 99.4193L133.092 99.6596ZM58.3974 103.332C58.0274 102.905 57.6651 102.471 57.3105 102.03L57.635 101.769C57.9865 102.206 58.3457 102.636 58.7124 103.06L58.3974 103.332ZM131.305 102.03C130.95 102.471 130.588 102.905 130.218 103.332L129.903 103.06C130.27 102.636 130.629 102.206 130.98 101.769L131.305 102.03ZM60.409 105.516C60.0129 105.112 59.6241 104.701 59.2427 104.283L59.5503 104.002C59.9283 104.416 60.3137 104.824 60.7063 105.224L60.409 105.516ZM129.372 104.283C128.991 104.701 128.602 105.112 128.206 105.516L127.909 105.224C128.301 104.824 128.687 104.416 129.065 104.002L129.372 104.283ZM62.5529 107.569C62.1323 107.191 61.7186 106.805 61.312 106.412L61.6014 106.112C62.0045 106.502 62.4146 106.884 62.8315 107.259L62.5529 107.569ZM127.303 106.412C126.897 106.805 126.483 107.191 126.062 107.569L125.784 107.259C126.201 106.884 126.611 106.502 127.014 106.112L127.303 106.412ZM64.8205 109.484C64.3771 109.133 63.9402 108.774 63.51 108.407L63.7802 108.09C64.2066 108.454 64.6397 108.81 65.0792 109.158L64.8205 109.484ZM125.105 108.407C124.675 108.774 124.238 109.133 123.795 109.484L123.536 109.158C123.975 108.81 124.409 108.454 124.835 108.09L125.105 108.407ZM67.2034 111.255C66.7389 110.932 66.2805 110.6 65.8284 110.261L66.0783 109.928C66.5264 110.264 66.9808 110.592 67.4412 110.913L67.2034 111.255ZM122.787 110.261C122.335 110.6 121.876 110.932 121.412 111.255L121.174 110.913C121.634 110.592 122.089 110.264 122.537 109.928L122.787 110.261ZM69.6926 112.873C69.2085 112.579 68.7301 112.277 68.2577 111.967L68.4862 111.619C68.9545 111.926 69.4287 112.226 69.9086 112.517L69.6926 112.873ZM120.358 111.967C119.885 112.277 119.407 112.579 118.923 112.873L118.707 112.517C119.186 112.226 119.661 111.926 120.129 111.619L120.358 111.967ZM72.2773 114.332C71.7757 114.069 71.2795 113.798 70.7887 113.518L70.9951 113.156C71.4815 113.433 71.9734 113.702 72.4705 113.963L72.2773 114.332ZM117.826 113.518C117.336 113.798 116.839 114.069 116.338 114.332L116.145 113.963C116.642 113.702 117.134 113.433 117.62 113.156L117.826 113.518ZM74.9487 115.626C74.4316 115.395 73.9195 115.155 73.4125 114.907L73.5957 114.533C74.0983 114.779 74.6059 115.016 75.1183 115.245L74.9487 115.626ZM115.203 114.907C114.696 115.155 114.184 115.395 113.667 115.626L113.497 115.245C114.009 115.016 114.517 114.779 115.019 114.533L115.203 114.907ZM77.6968 116.749C77.166 116.552 76.6397 116.345 76.1181 116.128L76.2775 115.744C76.7944 115.958 77.3161 116.163 77.8422 116.359L77.6968 116.749ZM112.497 116.128C111.976 116.345 111.449 116.552 110.918 116.749L110.773 116.359C111.299 116.163 111.821 115.958 112.338 115.744L112.497 116.128ZM80.5096 117.698C79.9669 117.534 79.4284 117.36 78.8942 117.177L79.0291 116.783C79.5586 116.964 80.0923 117.136 80.6302 117.299L80.5096 117.698ZM109.721 117.177C109.187 117.36 108.648 117.534 108.106 117.698L107.985 117.299C108.523 117.136 109.057 116.964 109.586 116.783L109.721 117.177ZM83.3754 118.468C82.8237 118.338 82.2757 118.198 81.7316 118.05L81.8414 117.648C82.3807 117.795 82.9239 117.933 83.4708 118.062L83.3754 118.468ZM106.884 118.05C106.34 118.198 105.792 118.338 105.24 118.468L105.144 118.062C105.691 117.933 106.235 117.795 106.774 117.648L106.884 118.05ZM86.2849 119.056C85.7263 118.961 85.1711 118.856 84.6193 118.742L84.7037 118.334C85.2506 118.447 85.8009 118.551 86.3546 118.645L86.2849 119.056ZM103.996 118.742C103.444 118.856 102.889 118.961 102.33 119.056L102.261 118.645C102.814 118.551 103.365 118.447 103.912 118.334L103.996 118.742ZM89.2267 119.461C88.6623 119.401 88.1009 119.331 87.5426 119.252L87.6013 118.84C88.1547 118.918 88.7112 118.987 89.2707 119.047L89.2267 119.461ZM101.073 119.252C100.514 119.331 99.9529 119.401 99.3885 119.461L99.3445 119.047C99.904 118.987 100.461 118.918 101.014 118.84L101.073 119.252ZM92.1863 119.683C91.6187 119.658 91.0538 119.623 90.4917 119.578L90.5246 119.163C91.0819 119.207 91.6419 119.242 92.2045 119.267L92.1863 119.683ZM98.1236 119.578C97.5614 119.623 96.9965 119.658 96.429 119.683L96.4107 119.267C96.9733 119.242 97.5334 119.207 98.0906 119.163L98.1236 119.578ZM94.3076 119.729C94.0233 119.729 93.7395 119.727 93.4563 119.722L93.4636 119.305C93.7444 119.31 94.0257 119.313 94.3076 119.313C94.5895 119.313 94.8709 119.31 95.1516 119.305L95.1589 119.722C94.8757 119.727 94.592 119.729 94.3076 119.729Z" fill="#23024D"/>
            <path d="M64.6822 102.024C64.6822 85.7938 77.9449 72.6334 94.3088 72.6334C110.673 72.6334 123.935 85.7938 123.935 102.024C123.935 118.255 110.673 131.415 94.3088 131.415C94.0312 131.416 93.7546 131.412 93.4788 131.404L93.4675 131.821C93.747 131.828 94.0274 131.832 94.3088 131.832C110.9 131.832 124.352 118.488 124.352 102.024C124.352 85.5605 110.9 72.2168 94.3088 72.2168C77.718 72.2168 64.2656 85.5605 64.2656 102.024L64.6822 102.024Z" fill="#23024D"/>
            <path d="M64.2656 102.024C64.2656 102.306 64.2696 102.586 64.2774 102.866L64.6937 102.854C64.686 102.579 64.6822 102.302 64.6822 102.024L64.2656 102.024Z" fill="#23024D"/>
            <path d="M64.339 104.124C64.3783 104.685 64.4334 105.242 64.5036 105.794L64.9168 105.742C64.8476 105.197 64.7933 104.648 64.7545 104.094L64.339 104.124Z" fill="#23024D"/>
            <path d="M64.6891 107.04C64.7837 107.594 64.8938 108.143 65.0188 108.686L65.4247 108.593C65.3015 108.057 65.193 107.516 65.0997 106.97L64.6891 107.04Z" fill="#23024D"/>
            <path d="M65.3273 109.907C65.4766 110.448 65.6408 110.984 65.8196 111.512L66.2142 111.379C66.0379 110.858 65.876 110.33 65.7289 109.796L65.3273 109.907Z" fill="#23024D"/>
            <path d="M66.2484 112.696C66.4507 113.219 66.6675 113.736 66.8982 114.244L67.2775 114.072C67.0501 113.571 66.8364 113.062 66.6369 112.546L66.2484 112.696Z" fill="#23024D"/>
            <path d="M67.4427 115.38C67.6958 115.88 67.9626 116.372 68.2428 116.856L68.6032 116.647C68.327 116.17 68.0639 115.685 67.8143 115.192L67.4427 115.38Z" fill="#23024D"/>
            <path d="M68.8969 117.932C69.1979 118.404 69.512 118.868 69.8386 119.322L70.1767 119.078C69.8546 118.631 69.545 118.174 69.2481 117.708L68.8969 117.932Z" fill="#23024D"/>
            <path d="M70.5952 120.328C70.9409 120.768 71.2989 121.199 71.6685 121.619L71.9812 121.344C71.6167 120.929 71.2637 120.505 70.9228 120.071L70.5952 120.328Z" fill="#23024D"/>
            <path d="M72.5198 122.547C72.9067 122.951 73.3049 123.344 73.7139 123.726L73.9983 123.422C73.5949 123.045 73.2023 122.657 72.8207 122.258L72.5198 122.547Z" fill="#23024D"/>
            <path d="M74.6516 124.567C75.0757 124.931 75.5103 125.284 75.9548 125.625L76.2082 125.294C75.7699 124.958 75.3413 124.61 74.923 124.251L74.6516 124.567Z" fill="#23024D"/>
            <path d="M76.9697 126.37C77.4271 126.691 77.894 127 78.3698 127.296L78.5898 126.942C78.1206 126.65 77.6602 126.346 77.2091 126.029L76.9697 126.37Z" fill="#23024D"/>
            <path d="M79.4524 127.938C79.9386 128.213 80.4334 128.475 80.9361 128.724L81.1206 128.35C80.6248 128.105 80.1369 127.847 79.6574 127.576L79.4524 127.938Z" fill="#23024D"/>
            <path d="M82.0762 129.257C82.5867 129.484 83.1046 129.696 83.6297 129.894L83.7767 129.504C83.259 129.309 82.7482 129.099 82.2449 128.877L82.0762 129.257Z" fill="#23024D"/>
            <path d="M84.8164 130.314C85.3461 130.489 85.8823 130.649 86.4247 130.795L86.5329 130.393C85.9981 130.249 85.4693 130.09 84.947 129.918L84.8164 130.314Z" fill="#23024D"/>
            <path d="M87.6467 131.097C88.1904 131.219 88.7397 131.326 89.2942 131.419L89.3627 131.008C88.8159 130.917 88.2742 130.811 87.738 130.69L87.6467 131.097Z" fill="#23024D"/>
            <path d="M90.5397 131.6C91.092 131.668 91.6491 131.722 92.2104 131.761L92.2388 131.345C91.6852 131.307 91.1358 131.254 90.591 131.186L90.5397 131.6Z" fill="#23024D"/>
            <path fill-rule="evenodd" clip-rule="evenodd" d="M94.3088 72.0796C110.673 72.0796 123.935 58.9191 123.935 42.6885L124.352 42.6885C124.352 59.1524 110.9 72.4962 94.3088 72.4962C77.718 72.4962 64.2656 59.1524 64.2656 42.6885C64.2656 26.2246 77.718 12.8809 94.3088 12.8809L94.3088 13.2975C77.9449 13.2975 64.6822 26.4579 64.6822 42.6885C64.6822 58.9191 77.9449 72.0796 94.3088 72.0796Z" fill="#23024D"/>
            <path fill-rule="evenodd" clip-rule="evenodd" d="M124.34 41.8469C124.348 42.1265 124.352 42.4071 124.352 42.6885L123.935 42.6885C123.935 42.4109 123.932 42.1343 123.924 41.8585L124.34 41.8469ZM124.114 38.9186C124.184 39.471 124.239 40.0281 124.279 40.5894L123.863 40.6186C123.824 40.0651 123.77 39.5158 123.701 38.9712L124.114 38.9186ZM123.599 36.0268C123.724 36.5702 123.834 37.1191 123.929 37.6733L123.518 37.7434C123.425 37.1971 123.316 36.6559 123.193 36.1203L123.599 36.0268ZM122.798 33.2007C122.977 33.7294 123.141 34.2647 123.29 34.8061L122.889 34.9168C122.742 34.3831 122.58 33.8554 122.403 33.3342L122.798 33.2007ZM121.719 30.4686C121.95 30.9772 122.167 31.4935 122.369 32.0168L121.981 32.1671C121.781 31.6511 121.568 31.1422 121.34 30.6407L121.719 30.4686ZM120.375 27.8571C120.655 28.3408 120.922 28.8329 121.175 29.3332L120.803 29.5213C120.554 29.0281 120.291 28.5428 120.014 28.066L120.375 27.8571ZM118.779 25.3913C119.106 25.8453 119.42 26.3087 119.721 26.7812L119.369 27.0051C119.073 26.5392 118.763 26.0823 118.441 25.6346L118.779 25.3913ZM116.949 23.094C117.319 23.5141 117.677 23.9445 118.022 24.3848L117.695 24.6422C117.354 24.208 117.001 23.7835 116.636 23.3693L116.949 23.094ZM114.904 20.9865C115.313 21.3687 115.711 21.7622 116.098 22.1664L115.797 22.4545C115.415 22.0559 115.023 21.6678 114.619 21.2909L114.904 20.9865ZM112.663 19.0882C113.107 19.429 113.542 19.7818 113.966 20.1463L113.695 20.4623C113.276 20.1029 112.848 19.7549 112.409 19.4189L112.663 19.0882ZM110.248 17.4171C110.724 17.7131 111.191 18.022 111.648 18.3432L111.409 18.6842C110.957 18.3674 110.497 18.0627 110.028 17.7708L110.248 17.4171ZM107.682 15.9893C108.184 16.2376 108.679 16.4995 109.165 16.7745L108.96 17.1372C108.481 16.866 107.993 16.6077 107.497 16.3628L107.682 15.9893ZM104.988 14.819C105.513 15.0171 106.031 15.2295 106.541 15.4555L106.373 15.8364C105.869 15.6135 105.359 15.4041 104.841 15.2088L104.988 14.819ZM102.193 13.9179C102.735 14.0638 103.272 14.2245 103.801 14.3993L103.671 14.7949C103.148 14.6225 102.62 14.4641 102.085 14.3202L102.193 13.9179ZM99.3234 13.2943C99.8779 13.3867 100.427 13.4942 100.971 13.6163L100.88 14.0228C100.343 13.9024 99.8018 13.7963 99.255 13.7052L99.3234 13.2943ZM96.4073 12.9524C96.9685 12.9909 97.5256 13.0446 98.078 13.1132L98.0266 13.5266C97.4818 13.4589 96.9324 13.406 96.3788 13.3681L96.4073 12.9524ZM94.3088 12.8809C94.5902 12.8809 94.8706 12.8847 95.1502 12.8923L95.1388 13.3088C94.8631 13.3012 94.5864 13.2975 94.3088 13.2975L94.3088 12.8809Z" fill="#23024D"/>
        </g>
        <path d="M73.9125 60.8296C74.0018 58.1519 75.3215 55.9687 77.455 54.1574C78.1496 53.5651 78.5862 53.8294 79.1617 54.2455C83.8618 57.6167 88.5653 60.9748 93.272 64.3199C99.4771 68.7648 105.686 73.2031 111.897 77.6349C114.378 79.3923 116.239 81.512 116.586 84.6155C116.953 87.8611 115.097 90.7199 112.746 92.492C112.14 92.9472 111.753 92.3892 111.347 92.1003C104.133 86.9604 96.9236 81.8106 89.7196 76.651C85.9886 73.9831 82.2279 71.3348 78.5068 68.6473C75.8673 66.7675 73.972 64.3885 73.9125 60.8296Z" fill="#23024D"/>
        <path d="M100.273 97.906C96.4211 97.8722 92.6775 96.6394 89.5705 94.3819C84.5837 90.6956 79.5176 87.1518 74.4911 83.5393C71.7201 81.5732 71.7994 79.1157 74.6745 77.2971C78.1445 75.0804 83.6518 75.2328 87.1911 77.7493C94.374 82.8659 101.522 88.0316 108.68 93.1531L109.082 93.4431C111.149 94.9176 111.154 94.9176 108.784 96.0727C106.127 97.3234 103.214 97.9507 100.273 97.906Z" fill="#23024D"/>
        <path d="M90.1345 48.5758C94.0285 48.5207 97.8343 49.7194 100.974 51.9899C105.998 55.6381 111.091 59.2034 116.154 62.8223C118.847 64.7733 118.698 67.3192 115.823 69.0068C113.876 70.08 111.662 70.5915 109.435 70.4829C107.207 70.3742 105.055 69.6497 103.226 68.3922C95.739 63.0402 88.2471 57.7028 80.7501 52.3801C79.6711 51.6143 79.6711 51.468 80.7947 50.8632C83.6371 49.2736 86.8675 48.4824 90.1345 48.5758Z" fill="#23024D"/>
    </g>
    <defs>
        <clipPath id="clip0_7385_47802">
            <rect width="184" height="144" fill="white"/>
        </clipPath>
    </defs>
</svg>
