<svg width="100%" height="100%" viewBox="0 0 32 32" fill="none" xmlns="http://www.w3.org/2000/svg">
<rect width="32" height="32" rx="16" fill="#23024D"/>
<path d="M8.50794 11.4731C8.53926 10.4962 9.00217 9.69975 9.75047 9.03898C9.9941 8.8229 10.1472 8.91933 10.3491 9.07113C11.9977 10.301 13.6474 11.5261 15.2984 12.7464C17.4748 14.368 19.6524 15.9872 21.8312 17.604C22.7013 18.2451 23.3539 19.0184 23.4758 20.1506C23.6045 21.3346 22.9537 22.3776 22.1288 23.0241C21.9165 23.1902 21.7808 22.9866 21.6381 22.8812C19.1077 21.006 16.5792 19.1273 14.0523 17.245C12.7437 16.2717 11.4246 15.3056 10.1194 14.3251C9.19359 13.6394 8.52882 12.7714 8.50794 11.4731Z" fill="white"/>
<path d="M17.7539 24.9992C16.4029 24.9869 15.0898 24.5371 14.0001 23.7135C12.2509 22.3687 10.4739 21.0759 8.71088 19.758C7.73894 19.0407 7.76676 18.1442 8.77522 17.4807C9.99232 16.672 11.924 16.7276 13.1655 17.6457C15.6849 19.5123 18.1921 21.3969 20.7028 23.2653L20.8436 23.3711C21.5687 23.909 21.5704 23.909 20.7393 24.3304C19.8072 24.7866 18.7856 25.0155 17.7539 24.9992Z" fill="white"/>
<path d="M14.1979 7.0027C15.5637 6.98262 16.8986 7.41994 17.9999 8.24822C19.762 9.57916 21.5484 10.8798 23.3244 12.2001C24.2688 12.9118 24.2167 13.8406 23.2081 14.4563C22.5254 14.8478 21.7489 15.0344 20.9675 14.9948C20.1861 14.9551 19.4314 14.6908 18.7898 14.2321C16.1637 12.2796 13.5358 10.3324 10.9063 8.39057C10.5278 8.11122 10.5278 8.05784 10.9219 7.8372C11.9189 7.25727 13.052 6.96864 14.1979 7.0027Z" fill="white"/>
</svg>
