<svg width="45" height="45" viewBox="0 0 45 45" fill="none" xmlns="http://www.w3.org/2000/svg">
    <g clip-path="url(#clip0_5429_56686)">
        <path d="M0 22.5C0 12.7466 0 7.86995 2.64606 4.55528C3.20932 3.8497 3.8497 3.20932 4.55528 2.64606C7.86995 0 12.7466 0 22.5 0C32.2534 0 37.1301 0 40.4447 2.64606C41.1503 3.20932 41.7907 3.8497 42.3539 4.55528C45 7.86995 45 12.7466 45 22.5C45 32.2534 45 37.1301 42.3539 40.4447C41.7907 41.1503 41.1503 41.7907 40.4447 42.3539C37.1301 45 32.2534 45 22.5 45C12.7466 45 7.86995 45 4.55528 42.3539C3.8497 41.7907 3.20932 41.1503 2.64606 40.4447C0 37.1301 0 32.2534 0 22.5Z" fill="url(#paint0_linear_5429_56686)"/>
        <path d="M28.5201 19.2955C29.0186 12.2775 27.2165 8.76852 23.114 8.76852C19.0114 8.76852 17.2094 12.2775 17.7079 19.2955H14.7475C13.976 10.2347 16.7648 5.70435 23.114 5.70435C29.4632 5.70435 32.252 10.2347 31.4805 19.2955H28.5201Z" fill="url(#paint1_linear_5429_56686)"/>
        <path d="M14.5769 33.1361L14.5131 33.0687L14.3864 32.9342C14.3654 32.9117 14.3444 32.8893 14.3234 32.8668L14.1984 32.7316C13.1832 31.6244 12.3121 30.4141 12.1306 27.828C12.0744 27.0276 12.0448 25.8926 12.042 24.423V23.9391C12.0448 22.3977 12.0744 20.5218 12.1306 18.3113L23.1135 15.7881L34.0964 18.3113C34.1526 20.5218 34.1822 22.3977 34.185 23.9391V24.423C34.1822 25.8926 34.1526 27.0276 34.0964 27.828C33.9149 30.4141 33.0438 31.6244 32.0286 32.7316L31.9036 32.8668C31.8826 32.8893 31.8616 32.9117 31.8406 32.9342L31.7139 33.0687L31.6501 33.1361C30.1178 34.7549 27.2723 36.3889 23.1135 38.0381C18.9548 36.3889 16.1092 34.7549 14.5769 33.1361Z" fill="#4F3292"/>
        <path d="M28.4885 14.8018C28.4197 10.7098 26.6243 8.66382 23.1025 8.66382C19.5807 8.66382 17.7929 10.7098 17.7393 14.8018C18.3407 11.1659 20.1285 9.3479 23.1025 9.3479C26.0765 9.3479 27.8718 11.1659 28.4885 14.8018Z" fill="url(#paint2_linear_5429_56686)"/>
        <path d="M14.5768 32.2815C14.5118 32.2162 14.4471 32.1511 14.3829 32.086L14.255 31.9554C13.2157 30.8864 12.3155 29.7392 12.1305 27.2349C12.0745 26.4754 12.0449 25.3989 12.042 24.0055V23.5293C12.0449 22.0654 12.0745 20.2847 12.1305 18.187L23.1135 15.7881L34.0964 18.187C34.1525 20.2847 34.182 22.0654 34.185 23.5293V24.0055C34.182 25.3989 34.1525 26.4754 34.0964 27.2349C33.9115 29.7392 33.0113 30.8864 31.972 31.9554L31.8441 32.086C31.7798 32.1511 31.7151 32.2162 31.6501 32.2815C30.1178 33.8206 27.2722 35.3741 23.1135 36.9421C18.9547 35.3741 16.1092 33.8206 14.5768 32.2815Z" fill="url(#paint3_linear_5429_56686)"/>
        <path d="M23.1133 15.7881L34.0962 18.187C34.2146 22.6154 34.2146 25.6314 34.0962 27.2349C33.8924 29.9947 32.8199 31.1064 31.6499 32.2815C30.1176 33.8206 27.272 35.3741 23.1133 36.9421V15.7881Z" fill="url(#paint4_linear_5429_56686)"/>
        <path d="M23.0608 15.7881V17.5438L12.042 19.8075L12.073 18.1827L23.0608 15.7881Z" fill="url(#paint5_linear_5429_56686)"/>
        <path d="M23.1133 15.7881V17.5393L34.1348 19.8075L34.0989 18.1854L23.1133 15.7881Z" fill="url(#paint6_linear_5429_56686)"/>
    </g>
    <defs>
        <linearGradient id="paint0_linear_5429_56686" x1="45" y1="1.3411e-06" x2="-1.3411e-06" y2="45" gradientUnits="userSpaceOnUse">
            <stop stop-color="#4A1A9E"/>
            <stop offset="1" stop-color="#8C66F3"/>
        </linearGradient>
        <linearGradient id="paint1_linear_5429_56686" x1="14.5775" y1="-55.1407" x2="8.29828" y2="26.2549" gradientUnits="userSpaceOnUse">
            <stop offset="0.451037" stop-color="#FBF8FF"/>
            <stop offset="1" stop-color="#D0B1FF"/>
        </linearGradient>
        <linearGradient id="paint2_linear_5429_56686" x1="555.203" y1="-52.8815" x2="555.203" y2="70.8545" gradientUnits="userSpaceOnUse">
            <stop stop-color="#EEEEEE"/>
            <stop offset="1" stop-color="#DAC1FF"/>
        </linearGradient>
        <linearGradient id="paint3_linear_5429_56686" x1="12.9927" y1="14.5776" x2="22.8166" y2="35.1762" gradientUnits="userSpaceOnUse">
            <stop stop-color="white"/>
            <stop offset="1" stop-color="#DBC3FF"/>
        </linearGradient>
        <linearGradient id="paint4_linear_5429_56686" x1="422.094" y1="2131.18" x2="1174.71" y2="1314.05" gradientUnits="userSpaceOnUse">
            <stop stop-color="#B27EFF"/>
            <stop offset="1" stop-color="#B482FF"/>
        </linearGradient>
        <linearGradient id="paint5_linear_5429_56686" x1="12.042" y1="184.904" x2="562.984" y2="184.904" gradientUnits="userSpaceOnUse">
            <stop stop-color="white"/>
            <stop offset="1" stop-color="#E8D8FF"/>
        </linearGradient>
        <linearGradient id="paint6_linear_5429_56686" x1="34.1348" y1="232.121" x2="-1035.32" y2="30.8312" gradientUnits="userSpaceOnUse">
            <stop stop-color="#C7A1FF"/>
            <stop offset="1" stop-color="#BE92FF"/>
        </linearGradient>
        <clipPath id="clip0_5429_56686">
            <rect width="45" height="45" fill="white"/>
        </clipPath>
    </defs>
</svg>
