<svg width="24" height="24" viewBox="0 0 24 24" fill="none" xmlns="http://www.w3.org/2000/svg">
    <path d="M19.197 0.0275672C18.6983 -0.000642157 18.3282 0.266782 17.984 0.610936C12.1917 6.40325 6.39939 12.1974 0.607077 17.9935C-0.209865 18.8116 -0.198581 19.6172 0.628516 20.4489C1.58237 21.408 2.53885 22.3648 3.49797 23.3194C4.40067 24.2221 5.16683 24.2221 6.07404 23.3194C7.92232 21.4734 9.77623 19.633 11.6087 17.7712C11.9224 17.4519 12.0962 17.4598 12.4065 17.7712C14.2525 19.6455 16.1188 21.5016 17.9818 23.3578C18.8156 24.1894 19.6055 24.1928 20.4371 23.3702C21.415 22.4058 22.385 21.4362 23.3472 20.4613C24.2126 19.5902 24.2036 18.8071 23.3235 17.9247C21.491 16.0888 19.6664 14.2451 17.8136 12.4318C17.4492 12.0752 17.4751 11.8924 17.8227 11.5505C19.6991 9.70788 21.5519 7.83929 23.4092 5.97522C24.1686 5.21244 24.1923 4.37632 23.469 3.64174C22.4264 2.58446 21.3714 1.54071 20.3209 0.491328C20.179 0.336305 20.0048 0.214395 19.8106 0.134247C19.6164 0.0540994 19.4069 0.017678 19.197 0.0275672ZM4.83283 9.52621C4.99465 9.54357 5.1583 9.52529 5.3123 9.47266C5.4663 9.42003 5.60691 9.33432 5.72425 9.22155C6.92258 8.1101 8.09383 6.97044 9.18722 5.75519C9.75141 5.12443 9.68709 4.30071 9.07438 3.68011C8.03252 2.62696 6.98351 1.57757 5.92735 0.53195C5.22776 -0.159743 4.38148 -0.176668 3.67061 0.509382C2.60994 1.54448 1.56281 2.59386 0.529219 3.65754C-0.165858 4.37519 -0.155703 5.20341 0.535989 5.90865C1.57973 6.96706 2.63138 8.01532 3.68076 9.05793C3.82677 9.21561 4.00564 9.33928 4.20472 9.4202C4.4038 9.50112 4.61822 9.53731 4.83283 9.52621Z" fill="#FFFDF9"/>
    <path d="M19.1969 0.0271877C19.4076 0.0166255 19.6179 0.0527189 19.813 0.132888C20.008 0.213058 20.183 0.335324 20.3253 0.490949C21.3758 1.54034 22.4308 2.58408 23.4735 3.64137C24.1967 4.37594 24.173 5.21206 23.4137 5.97484C21.5518 7.83891 19.6991 9.7075 17.8214 11.549C17.4728 11.8875 17.4479 12.0737 17.8124 12.4303C19.6652 14.2436 21.4898 16.0873 23.3223 17.9232C24.2024 18.8056 24.2114 19.5887 23.3459 20.4598C22.3801 21.4324 21.41 22.4021 20.4359 23.3687C19.6043 24.1913 18.8144 24.1879 17.9805 23.3563C16.1176 21.5001 14.2569 19.6439 12.4052 17.7697C12.0949 17.4538 11.9212 17.4459 11.6075 17.7697C9.77501 19.6315 7.9211 21.4719 6.07282 23.3179C5.17012 24.2206 4.40057 24.2206 3.49675 23.3179C2.53913 22.3641 1.58265 21.4076 0.627295 20.4485C-0.199802 19.6169 -0.211086 18.8112 0.605856 17.9931C6.39817 12.2008 12.1905 6.40851 17.9828 0.616198C18.3281 0.266403 18.6982 0.00349192 19.1969 0.0271877Z" fill="#23024D"/>
    <path d="M4.83274 9.52621C4.61813 9.53731 4.4037 9.50112 4.20462 9.4202C4.00555 9.33928 3.82668 9.21561 3.68067 9.05793C2.63128 8.01532 1.57964 6.96706 0.535894 5.90865C-0.155798 5.20341 -0.165953 4.37519 0.529124 3.65754C1.56271 2.59236 2.61172 1.54297 3.67616 0.509382C4.38139 -0.176668 5.22767 -0.159743 5.9329 0.53195C6.98605 1.57457 8.03506 2.62395 9.07993 3.68011C9.69264 4.30071 9.75696 5.12443 9.19277 5.75519C8.09374 6.97044 6.92248 8.1101 5.72415 9.22155C5.60681 9.33432 5.4662 9.42003 5.31221 9.47266C5.15821 9.52529 4.99455 9.54357 4.83274 9.52621Z" fill="#23024D"/>
</svg>
