<svg width="24" height="24" viewBox="0 0 24 24" fill="none" xmlns="http://www.w3.org/2000/svg">
    <g clip-path="url(#clip0_9877_20991)">
        <path d="M16.5784 16.9076V14.7874C20.8756 13.1193 23.1255 10.052 23.2214 5.34888H16.3865C15.4375 4.25112 14.4991 3.17489 13.5715 2.09866V0.990134C13.5715 0.441256 13.1343 0 12.5905 0H10.8951C10.8524 0 10.8098 0 10.7671 0.0107623C10.2659 0.0538117 9.87141 0.473543 9.87141 0.990134V2.10942C8.94374 3.17489 8.01606 4.25112 7.06705 5.34888H0.338728C0.338728 5.34888 0.338728 5.34888 0.338728 5.35964H0.221436C0.317402 10.0628 2.56729 13.13 6.86446 14.7982V16.9184H9.07169V18.8341C7.46158 19.7274 5.84081 20.6206 4.22004 21.5139V24H19.1482H19.2228V21.5031C17.6021 20.6099 15.9813 19.7166 14.3712 18.8233V16.9076H16.5784ZM2.81253 10.7085C4.45463 10.7085 6.03275 10.7085 7.68551 10.7085C7.0244 11.6018 6.40595 12.4305 5.77684 13.27C4.58259 12.6565 3.61226 11.8386 2.81253 10.7085ZM17.666 13.2807C17.0369 12.4305 16.4185 11.6018 15.7574 10.7085C17.4208 10.7085 18.9882 10.7085 20.641 10.7085C19.8413 11.8386 18.8709 12.6565 17.666 13.2807ZM18.807 6.27444C20.0012 6.27444 21.0995 6.27444 22.2298 6.27444C22.1338 7.52287 21.8459 8.65291 21.2275 9.75067C20.4064 8.57758 19.628 7.4583 18.807 6.27444ZM20.0545 9.75067C18.583 9.75067 17.1969 9.75067 15.7254 9.75067C16.4611 8.69596 17.1542 7.69507 17.89 6.61883C18.6257 7.6843 19.3188 8.6852 20.0545 9.75067ZM14.8084 9.38475C14.0833 8.34081 13.3902 7.33991 12.6544 6.2852C14.1046 6.2852 15.4801 6.2852 16.9623 6.2852C16.2265 7.33991 15.5334 8.34081 14.8084 9.38475ZM9.56219 9.72915C10.2873 8.67444 10.9804 7.6843 11.7161 6.61883C12.4518 7.6843 13.1449 8.67444 13.87 9.72915C12.4199 9.72915 11.0337 9.72915 9.56219 9.72915ZM9.57285 10.7193C11.0443 10.7193 12.4305 10.7193 13.8913 10.7193C13.1663 11.774 12.4732 12.7641 11.7374 13.8296C10.9804 12.7641 10.2979 11.774 9.57285 10.7193ZM12.2279 5.29507C12.2279 4.39103 12.2279 3.56233 12.2279 2.70135C12.4199 2.70135 12.6011 2.70135 12.8251 2.70135C13.5501 3.54081 14.2752 4.38027 15.0536 5.29507C14.062 5.29507 13.1556 5.29507 12.2279 5.29507ZM12.5265 1.7435C11.9933 1.7435 11.4709 1.7435 10.927 1.7435C10.927 1.43139 10.927 1.19462 10.927 0.92556C11.4709 0.92556 11.9827 0.92556 12.5265 0.92556C12.5265 1.19462 12.5265 1.44215 12.5265 1.7435ZM10.8098 14.1955C10.7244 14.1955 10.6391 14.2063 10.5538 14.2063C9.19965 14.2386 7.95208 14.1955 6.68319 13.6682C7.33363 12.7964 7.95208 11.957 8.62385 11.0529C9.37025 12.1184 10.0633 13.13 10.8098 14.1955ZM12.6438 14.1848C13.3795 13.1193 14.0726 12.1184 14.819 11.0422C15.4908 11.957 16.1199 12.7857 16.7597 13.6682C15.9173 14.0233 15.0856 14.1632 14.2219 14.2063C13.7101 14.2278 13.1876 14.2063 12.6438 14.1848ZM11.2149 2.71211C11.2149 3.56233 11.2149 4.40179 11.2149 5.29507C10.2979 5.29507 9.39158 5.29507 8.3786 5.29507C9.16766 4.38027 9.89274 3.54081 10.6072 2.71211C10.8098 2.71211 11.0017 2.71211 11.2149 2.71211ZM10.7884 6.2852C10.0527 7.35067 9.37025 8.34081 8.64517 9.38475C7.92009 8.34081 7.227 7.35067 6.50192 6.29596C7.97341 6.2852 9.34893 6.2852 10.7884 6.2852ZM7.7175 9.75067C6.24601 9.75067 4.85982 9.75067 3.38833 9.75067C4.12408 8.6852 4.81717 7.6843 5.55291 6.61883C6.29932 7.69507 6.99241 8.69596 7.7175 9.75067ZM4.6359 6.27444C3.81485 7.4583 3.03646 8.58834 2.22607 9.75067C1.60762 8.65291 1.31972 7.52287 1.22375 6.27444C2.34336 6.27444 3.45231 6.27444 4.6359 6.27444ZM13.4115 18.6188C12.2812 18.6188 11.183 18.6188 10.042 18.6188C10.042 18.3498 10.042 18.1022 10.042 17.8224C11.183 17.8224 12.2919 17.8224 13.4115 17.8224C13.4115 18.1022 13.4115 18.3498 13.4115 18.6188ZM5.17971 23.096C5.17971 22.7623 5.17971 22.4287 5.17971 22.0413C6.40595 21.3632 7.66418 20.6744 8.92241 19.9856C9.29561 19.7812 9.63683 19.5013 10.1593 19.609C10.17 19.6305 10.1806 19.652 10.202 19.6843C9.66882 20.3408 9.125 20.9865 8.55987 21.6861C8.55987 22.1489 8.55987 22.6332 8.55987 23.1067C7.42959 23.096 6.32065 23.096 5.17971 23.096ZM9.57285 23.096C9.57285 22.73 9.57285 22.3426 9.57285 21.9229C10.1913 21.1803 10.8524 20.3839 11.5135 19.5982C11.6521 19.5982 11.7907 19.5982 11.94 19.5982C12.6011 20.3839 13.2622 21.1803 13.8807 21.9229C13.8807 22.3534 13.8807 22.73 13.8807 23.096C12.4412 23.096 11.0337 23.096 9.57285 23.096ZM13.2409 19.6628C13.2516 19.6413 13.2622 19.6197 13.2729 19.609C13.7954 19.4906 14.1473 19.7812 14.5205 19.9856C15.7787 20.6744 17.0369 21.374 18.2632 22.0413C18.2632 22.4287 18.2632 22.7623 18.2632 23.096C17.1222 23.096 16.0133 23.096 14.883 23.096C14.883 22.6224 14.883 22.1274 14.883 21.6646C14.3179 20.9758 13.7847 20.3193 13.2409 19.6628ZM13.4755 16.0251C13.4542 16.3372 13.4328 16.5848 13.4115 16.8538C12.2919 16.8538 11.1723 16.8538 10.0314 16.8538C10.01 16.5848 9.99937 16.3372 9.96738 16.0251C9.93539 16.0251 9.9034 16.0036 9.88208 16.0036C9.88208 16.0144 9.93539 16.0036 9.88208 16.0036C9.16766 16.0036 8.50655 16.0036 7.83479 16.0036C7.83479 15.6377 7.83479 15.3256 7.83479 15.0565C10.4365 15.0565 13.0063 15.0565 15.5974 15.0565C15.5974 15.3256 15.5974 15.6269 15.5974 15.9928C14.9257 15.9928 14.2646 15.9928 13.5501 15.9928" fill="#25044F"/>
    </g>
    <defs>
        <clipPath id="clip0_9877_20991">
            <rect width="23" height="24" fill="white" transform="translate(0.221436)"/>
        </clipPath>
    </defs>
</svg>
